<svg width="82" height="59" viewBox="0 0 82 59" fill="none" xmlns="http://www.w3.org/2000/svg">
<path d="M48.4545 18.0095C48.4545 17.6343 48.5788 17.2748 48.8273 16.9308C49.0758 16.5869 49.3553 16.3524 49.6659 16.2273C51.5295 15.5395 53.4398 15.0079 55.3966 14.6328C57.3534 14.2576 59.3879 14.07 61.5 14.07C62.8667 14.07 64.2023 14.1481 65.5068 14.3045C66.8114 14.4608 68.0848 14.6953 69.3273 15.0079C69.7 15.133 70.0417 15.3675 70.3523 15.7114C70.6629 16.0554 70.8182 16.4462 70.8182 16.8839C70.8182 17.5718 70.5852 18.1033 70.1193 18.4785C69.6534 18.8537 69.0788 18.9475 68.3955 18.7599C67.3394 18.4473 66.2367 18.2128 65.0875 18.0564C63.9383 17.9001 62.7424 17.8219 61.5 17.8219C59.6985 17.8219 57.9591 17.9939 56.2818 18.3378C54.6045 18.6818 52.9583 19.1977 51.3432 19.8855C50.4735 20.1982 49.7746 20.1826 49.2466 19.8386C48.7186 19.4947 48.4545 18.885 48.4545 18.0095ZM48.4545 38.6455C48.4545 38.2703 48.5788 37.8951 48.8273 37.5199C49.0758 37.1447 49.3553 36.8945 49.6659 36.7695C51.5295 36.0816 53.4398 35.5657 55.3966 35.2218C57.3534 34.8778 59.3879 34.7059 61.5 34.7059C62.8667 34.7059 64.2023 34.784 65.5068 34.9404C66.8114 35.0967 68.0848 35.3312 69.3273 35.6439C69.7 35.7689 70.0417 36.0034 70.3523 36.3474C70.6629 36.6913 70.8182 37.0821 70.8182 37.5199C70.8182 38.2077 70.5852 38.7393 70.1193 39.1145C69.6534 39.4897 69.0788 39.5835 68.3955 39.3959C67.3394 39.0832 66.2367 38.8487 65.0875 38.6924C63.9383 38.536 62.7424 38.4579 61.5 38.4579C59.6985 38.4579 57.9591 38.6142 56.2818 38.9269C54.6045 39.2395 52.9583 39.7398 51.3432 40.4277C50.4735 40.7403 49.7746 40.7403 49.2466 40.4277C48.7186 40.115 48.4545 39.5209 48.4545 38.6455ZM48.4545 28.3275C48.4545 27.9523 48.5788 27.5927 48.8273 27.2488C49.0758 26.9049 49.3553 26.6704 49.6659 26.5453C51.5295 25.8574 53.4398 25.3259 55.3966 24.9507C57.3534 24.5755 59.3879 24.3879 61.5 24.3879C62.8667 24.3879 64.2023 24.4661 65.5068 24.6224C66.8114 24.7787 68.0848 25.0133 69.3273 25.3259C69.7 25.451 70.0417 25.6855 70.3523 26.0294C70.6629 26.3733 70.8182 26.7642 70.8182 27.2019C70.8182 27.8898 70.5852 28.4213 70.1193 28.7965C69.6534 29.1717 69.0788 29.2655 68.3955 29.0779C67.3394 28.7652 66.2367 28.5307 65.0875 28.3744C63.9383 28.2181 62.7424 28.1399 61.5 28.1399C59.6985 28.1399 57.9591 28.3119 56.2818 28.6558C54.6045 28.9997 52.9583 29.5156 51.3432 30.2035C50.4735 30.5162 49.7746 30.5005 49.2466 30.1566C48.7186 29.8127 48.4545 29.203 48.4545 28.3275ZM19.3818 46.8998C22.7364 46.8998 25.9822 47.2907 29.1193 48.0723C32.2564 48.854 35.347 50.0265 38.3909 51.5898V11.5374C35.5955 9.66137 32.567 8.20747 29.3057 7.17568C26.0443 6.14388 22.7364 5.62798 19.3818 5.62798C17.0212 5.62798 14.7072 5.92501 12.4398 6.51908C10.1723 7.11314 7.88939 7.84791 5.59091 8.72337V49.4324C7.51667 48.557 9.70644 47.916 12.1602 47.5095C14.614 47.1031 17.0212 46.8998 19.3818 46.8998ZM43.9818 51.5898C47.0879 50.0265 50.1318 48.854 53.1136 48.0723C56.0955 47.2907 59.2636 46.8998 62.6182 46.8998C64.9788 46.8998 67.417 47.0874 69.933 47.4626C72.4489 47.8378 74.6076 48.3381 76.4091 48.9634V8.72337C74.297 7.66031 72.0606 6.87864 69.7 6.37838C67.3394 5.87811 64.9788 5.62798 62.6182 5.62798C59.2636 5.62798 56.0178 6.14388 52.8807 7.17568C49.7436 8.20747 46.7773 9.66137 43.9818 11.5374V51.5898ZM41.1864 59C40.6894 59 40.239 58.9531 39.8352 58.8593C39.4314 58.7655 39.0742 58.5935 38.7636 58.3434C35.8439 56.5299 32.7379 55.1229 29.4455 54.1224C26.153 53.1219 22.7985 52.6216 19.3818 52.6216C17.0833 52.6216 14.847 52.903 12.6727 53.4658C10.4985 54.0286 8.32424 54.7165 6.15 55.5294C4.72121 56.2173 3.33902 56.1235 2.00341 55.248C0.667803 54.3726 0 53.1219 0 51.496V8.06677C0 7.12878 0.217424 6.26895 0.652273 5.48728C1.08712 4.70562 1.73939 4.09592 2.60909 3.65819C5.21818 2.40752 7.93599 1.48516 10.7625 0.891098C13.589 0.297033 16.4621 0 19.3818 0C23.2955 0 27.1004 0.531532 30.7966 1.5946C34.4928 2.65766 37.9561 4.28352 41.1864 6.47218C44.3545 4.28352 47.7557 2.65766 51.3898 1.5946C55.0239 0.531532 58.7667 0 62.6182 0C65.5379 0 68.3955 0.297033 71.1909 0.891098C73.9864 1.48516 76.6886 2.40752 79.2977 3.65819C80.1674 4.09592 80.8352 4.70562 81.3011 5.48728C81.767 6.26895 82 7.12878 82 8.06677V51.496C82 53.247 81.3011 54.5758 79.9034 55.4825C78.5057 56.3892 77.1235 56.4049 75.7568 55.5294C73.6447 54.6539 71.5015 53.9505 69.3273 53.4189C67.153 52.8874 64.9167 52.6216 62.6182 52.6216C59.2636 52.6216 55.9712 53.1219 52.7409 54.1224C49.5106 55.1229 46.4667 56.5299 43.6091 58.3434C43.2985 58.5935 42.9413 58.7655 42.5375 58.8593C42.1337 58.9531 41.6833 59 41.1864 59Z" fill="#6A6A6A"/>
</svg>
