<svg width="745" height="445" viewBox="0 0 745 445" fill="none" xmlns="http://www.w3.org/2000/svg">
<g clip-path="url(#clip0_307_1726)">
<rect width="745" height="445" rx="75.8491" fill="#FFDC84"/>
<path d="M427.548 87.3638C428.849 91.8531 426.277 96.5614 421.789 97.8654C417.3 99.1694 412.614 96.5913 411.313 92.092C410.012 87.6027 412.584 82.8944 417.072 81.5904C421.56 80.2864 426.247 82.8645 427.548 87.3638Z" fill="#FF533A"/>
<path d="M652.162 150.807C651.169 154.56 647.326 156.8 643.583 155.804C639.839 154.809 637.605 150.957 638.598 147.204C639.591 143.451 643.434 141.212 647.177 142.207C650.921 143.203 653.155 147.055 652.162 150.807Z" fill="#FF533A"/>
<path d="M282.229 14.0903L287.472 40.1304C287.998 42.7483 289.775 44.9382 292.218 45.9834L316.585 56.4253C322.751 59.0632 323.218 67.6437 317.379 70.9385L294.293 83.9784C291.98 85.2924 290.451 87.6614 290.212 90.3192L287.839 116.777C287.243 123.466 279.25 126.562 274.315 122.023L254.803 104.046C252.847 102.244 250.127 101.518 247.535 102.115L221.698 108.028C215.165 109.521 209.753 102.861 212.543 96.7496L223.575 72.5909C224.687 70.1621 224.528 67.345 223.168 65.0556L209.574 42.2506C206.139 36.4872 210.786 29.2704 217.438 30.0369L243.762 33.0928C246.403 33.4014 249.034 32.3861 250.782 30.3753L268.218 10.3675C272.627 5.31081 280.908 7.51067 282.229 14.1003V14.0903Z" fill="#FF533A"/>
<path d="M260.245 56.6537C258.676 62.5664 252.629 66.0902 246.731 64.5174C240.832 62.9447 237.317 56.8826 238.886 50.9699C240.455 45.0571 246.502 41.5333 252.4 43.1061C258.299 44.6788 261.814 50.7409 260.245 56.6537Z" fill="white"/>
<path d="M257.296 55.8683C256.164 60.1485 251.775 62.7068 247.505 61.562C243.235 60.4273 240.684 56.0275 241.825 51.7473C242.957 47.467 247.346 44.9088 251.616 46.0535C255.886 47.1883 258.438 51.588 257.296 55.8683Z" fill="#252525"/>
<path d="M287.601 63.929C286.032 69.8418 279.985 73.3656 274.087 71.7928C268.189 70.22 264.674 64.158 266.243 58.2452C267.811 52.3325 273.858 48.8087 279.757 50.3815C285.655 51.9542 289.17 58.0163 287.601 63.929Z" fill="white"/>
<path d="M284.652 63.1535C283.52 67.4337 279.131 69.9919 274.861 68.8472C270.591 67.7125 268.04 63.3127 269.181 59.0324C270.313 54.7521 274.702 52.1939 278.972 53.3387C283.242 54.4834 285.794 58.8732 284.652 63.1535Z" fill="#252525"/>
<path d="M246.056 48.1454C245.827 48.9916 244.963 49.4992 244.119 49.2702C243.275 49.0413 242.769 48.1753 242.997 47.3292C243.226 46.4831 244.089 45.9754 244.933 46.2044C245.777 46.4333 246.284 47.2993 246.056 48.1454Z" fill="white"/>
<path d="M273.411 55.4189C273.183 56.265 272.319 56.7726 271.475 56.5437C270.631 56.3147 270.125 55.4487 270.353 54.6026C270.581 53.7565 271.445 53.2489 272.289 53.4778C273.133 53.7068 273.64 54.5728 273.411 55.4189Z" fill="white"/>
<path d="M253.403 57.2115C253.076 58.4359 251.825 59.1725 250.603 58.844C249.382 58.5155 248.647 57.2613 248.975 56.0369C249.302 54.8125 250.554 54.0759 251.775 54.4044C252.996 54.7329 253.731 55.9871 253.403 57.2115Z" fill="white"/>
<path d="M281.792 64.7672C281.464 65.9915 280.213 66.7281 278.992 66.3996C277.77 66.0712 277.036 64.8169 277.363 63.5926C277.691 62.3682 278.942 61.6316 280.163 61.9601C281.385 62.2886 282.12 63.5428 281.792 64.7672Z" fill="white"/>
<path d="M256.283 84.0972C253.026 83.2312 250.236 82.0068 247.962 80.7426C240.832 76.7809 237.059 71.6445 236.9 71.4255C235.818 69.9225 236.146 67.8321 237.635 66.7371C239.125 65.6521 241.21 65.9806 242.302 67.4737C242.818 68.1705 254.942 84.1868 277.403 76.6017C279.151 76.0044 281.047 76.9501 281.643 78.712C282.229 80.4639 281.295 82.3651 279.538 82.9624C270.264 86.088 262.429 85.7495 256.283 84.1071V84.0972Z" fill="#252525"/>
<path d="M257.047 81.6691C245.321 78.5534 239.015 70.0725 238.926 69.9431C238.658 69.5648 238.737 69.0472 239.115 68.7685C239.492 68.4997 240.008 68.5794 240.286 68.9477C240.415 69.1268 253.9 87.1836 278.207 78.9715C278.644 78.8222 279.121 79.0611 279.27 79.4991C279.419 79.9371 279.18 80.4148 278.744 80.5641C270.214 83.4409 262.946 83.2319 257.057 81.6591L257.047 81.6691Z" fill="#FF533A"/>
<path d="M300.953 73.7319C302.952 70.4014 301.879 66.0772 298.556 64.0737C295.234 62.0701 290.92 63.1458 288.922 66.4764C286.923 69.8069 287.996 74.1311 291.319 76.1346C294.641 78.1382 298.954 77.0625 300.953 73.7319Z" fill="#FF533A"/>
<path d="M653.237 722.379C624.57 722.379 601.335 699.086 601.335 670.349V457.997C601.335 429.259 624.57 405.967 653.237 405.967C681.903 405.967 705.138 429.259 705.138 457.997V670.349C705.138 699.086 681.903 722.379 653.237 722.379Z" fill="#74CDFF"/>
<path d="M522.693 51.2789C521.779 53.6679 519.644 55.5193 516.943 55.9573C512.902 56.6043 509.099 53.847 508.454 49.7957C507.5 43.8033 504.263 38.5376 499.358 34.974C494.453 31.4104 488.455 29.977 482.468 30.9425C476.48 31.8981 471.238 35.1432 467.683 40.0605C464.128 44.9779 462.698 50.9902 463.661 56.9925C464.307 61.0439 461.556 64.8563 457.515 65.5033C453.474 66.1503 449.671 63.393 449.025 59.3417C447.446 49.4274 449.81 39.4832 455.678 31.3407C461.556 23.2082 470.235 17.8528 480.134 16.2602C490.024 14.6675 499.944 17.0466 508.066 22.9295C516.179 28.8223 521.521 37.5222 523.11 47.4465C523.328 48.7903 523.169 50.1043 522.712 51.2789H522.693Z" fill="#FF9F59"/>
<path d="M101.947 -15.9199C110.527 -1.64568 105.949 16.8989 91.72 25.4993C77.481 34.0996 58.9822 29.5108 50.4031 15.2465" stroke="#FFFAF2" stroke-width="14.5985" stroke-miterlimit="10" stroke-linecap="round"/>
<path d="M456.651 337.061C456.651 341.998 460.643 346.01 465.578 346.01H658.847C663.772 346.01 667.773 342.008 667.773 337.061C667.773 332.124 663.782 328.112 658.847 328.112H465.578C460.653 328.112 456.651 332.114 456.651 337.061Z" fill="#FFFAF2"/>
<path d="M703.202 25.4766L717.69 61.7594L724.809 49.0679L738.81 64.6063L725.564 29.8663L717.948 41.5127L703.202 25.4766Z" fill="#FF9F59"/>
<path d="M119.145 60.3496L94.2222 90.4012L108.749 90.6201L101.789 110.369L125.947 82.1491L112.105 80.9845L119.145 60.3496Z" fill="#FF9F59"/>
<path d="M475.368 606.918C445.341 606.918 420.905 582.43 420.905 552.319V472.298C420.905 442.196 445.332 417.699 475.368 417.699C505.405 417.699 529.832 442.186 529.832 472.298V552.319C529.832 582.42 505.405 606.918 475.368 606.918ZM475.368 438.344C456.691 438.344 441.499 453.574 441.499 472.298V552.319C441.499 571.043 456.691 586.273 475.368 586.273C494.046 586.273 509.238 571.043 509.238 552.319V472.298C509.238 453.574 494.046 438.344 475.368 438.344Z" fill="#FF9F59"/>
<path d="M59.439 378.084C59.439 378.084 36.3826 367.592 33.7016 352.82C31.0206 338.038 47.1263 336.804 53.1933 346.888C55.4175 335.032 70.5998 330.473 73.9163 344.2C77.4016 358.653 59.439 378.084 59.439 378.084Z" fill="#252525"/>
<path d="M540.457 465.564C540.457 465.564 533.655 449.557 539.136 440.848C544.607 432.138 553.315 438.996 551.727 446.9C558.33 441.943 568.101 446.691 563.434 455.162C558.519 464.081 540.467 465.554 540.467 465.554L540.457 465.564Z" fill="#252525"/>
<path d="M132.193 391.095L136.204 317.644L190.519 348.223L132.193 391.095Z" fill="#74CDFF"/>
<path d="M153.105 -9.67116C153.105 -4.2362 151.079 0.163538 148.577 0.163538C146.075 0.163538 144.049 -4.2362 144.049 -9.67116C144.049 -15.1061 146.075 -19.5059 148.577 -19.5059C151.079 -19.5059 153.105 -15.1061 153.105 -9.67116Z" fill="#FF533A"/>
<path d="M705.337 285.193C705.337 290.628 703.311 295.028 700.809 295.028C698.307 295.028 696.281 290.628 696.281 285.193C696.281 279.758 698.307 275.358 700.809 275.358C703.311 275.358 705.337 279.758 705.337 285.193Z" fill="#FF533A"/>
<path d="M705.337 307.123C705.337 312.558 703.311 316.957 700.809 316.957C698.307 316.957 696.281 312.558 696.281 307.123C696.281 301.688 698.307 297.288 700.809 297.288C703.311 297.288 705.337 301.688 705.337 307.123Z" fill="#FF533A"/>
<path d="M711.742 300.693C706.32 300.693 701.931 298.663 701.931 296.154C701.931 293.646 706.32 291.615 711.742 291.615C717.163 291.615 721.552 293.646 721.552 296.154C721.552 298.663 717.163 300.693 711.742 300.693Z" fill="#FF533A"/>
<path d="M689.877 300.693C684.455 300.693 680.066 298.663 680.066 296.154C680.066 293.646 684.455 291.615 689.877 291.615C695.298 291.615 699.687 293.646 699.687 296.154C699.687 298.663 695.298 300.693 689.877 300.693Z" fill="#FF533A"/>
<path d="M711.741 291.614C707.909 295.457 703.371 297.129 701.603 295.357C699.836 293.585 701.514 289.036 705.337 285.194C709.17 281.352 713.707 279.679 715.475 281.451C717.242 283.223 715.564 287.772 711.741 291.614Z" fill="#FF533A"/>
<path d="M696.271 307.113C692.438 310.956 687.9 312.628 686.133 310.856C684.366 309.084 686.044 304.535 689.867 300.693C693.699 296.851 698.237 295.178 700.005 296.95C701.772 298.722 700.094 303.271 696.271 307.113Z" fill="#FF533A"/>
<path d="M705.337 307.114C701.504 303.271 699.836 298.722 701.603 296.951C703.371 295.179 707.909 296.861 711.741 300.693C715.574 304.536 717.242 309.085 715.475 310.857C713.707 312.628 709.17 310.946 705.337 307.114Z" fill="#FF533A"/>
<path d="M689.877 291.613C686.044 287.77 684.376 283.221 686.143 281.45C687.911 279.678 692.448 281.36 696.281 285.192C700.114 289.035 701.782 293.584 700.015 295.356C698.247 297.127 693.709 295.445 689.877 291.613Z" fill="#FF533A"/>
<path d="M707.968 296.154C707.968 292.192 704.761 288.977 700.809 288.977C696.857 288.977 693.65 292.192 693.65 296.154C693.65 300.115 696.857 303.33 700.809 303.33C704.761 303.33 707.968 300.115 707.968 296.154Z" fill="#FF9F59"/>
<path d="M705.337 296.154C705.337 293.646 703.311 291.615 700.809 291.615C698.307 291.615 696.281 293.646 696.281 296.154C696.281 298.663 698.307 300.693 700.809 300.693C703.311 300.693 705.337 298.663 705.337 296.154Z" fill="#FF533A"/>
<path d="M651.707 69.1843C651.707 74.6193 649.682 79.019 647.18 79.019C644.677 79.019 642.652 74.6193 642.652 69.1843C642.652 63.7493 644.677 59.3496 647.18 59.3496C649.682 59.3496 651.707 63.7493 651.707 69.1843Z" fill="#FF533A"/>
<path d="M651.707 91.1013C651.707 96.5363 649.682 100.936 647.18 100.936C644.677 100.936 642.652 96.5363 642.652 91.1013C642.652 85.6663 644.677 81.2666 647.18 81.2666C649.682 81.2666 651.707 85.6663 651.707 91.1013Z" fill="#FF533A"/>
<path d="M658.122 84.6729C652.701 84.6729 648.312 82.6423 648.312 80.1338C648.312 77.6254 652.701 75.5947 658.122 75.5947C663.544 75.5947 667.932 77.6254 667.932 80.1338C667.932 82.6423 663.544 84.6729 658.122 84.6729Z" fill="#FF533A"/>
<path d="M636.257 84.6729C630.836 84.6729 626.447 82.6423 626.447 80.1338C626.447 77.6254 630.836 75.5947 636.257 75.5947C641.679 75.5947 646.068 77.6254 646.068 80.1338C646.068 82.6423 641.679 84.6729 636.257 84.6729Z" fill="#FF533A"/>
<path d="M658.122 75.5938C654.289 79.4361 649.751 81.1085 647.984 79.3366C646.217 77.5648 647.895 73.0157 651.718 69.1734C655.55 65.3311 660.088 63.6588 661.856 65.4307C663.623 67.2025 661.945 71.7515 658.122 75.5938Z" fill="#FF533A"/>
<path d="M642.652 91.1036C638.819 94.9459 634.281 96.6182 632.514 94.8464C630.746 93.0745 632.424 88.5255 636.247 84.6832C640.07 80.8409 644.618 79.1686 646.385 80.9404C648.153 82.7123 646.475 87.2613 642.652 91.1036Z" fill="#FF533A"/>
<path d="M651.717 91.1049C647.885 87.2626 646.216 82.7136 647.984 80.9418C649.751 79.1699 654.289 80.8522 658.122 84.6845C661.955 88.5268 663.623 93.0759 661.856 94.8477C660.088 96.6195 655.55 94.9373 651.717 91.1049Z" fill="#FF533A"/>
<path d="M636.257 75.5952C632.424 71.7529 630.756 67.2039 632.524 65.432C634.291 63.6602 638.829 65.3424 642.662 69.1747C646.494 73.017 648.163 77.5661 646.395 79.338C644.628 81.1098 640.09 79.4275 636.257 75.5952Z" fill="#FF533A"/>
<path d="M654.349 80.1457C654.349 76.184 651.141 72.9688 647.189 72.9688C643.237 72.9688 640.03 76.184 640.03 80.1457C640.03 84.1075 643.237 87.3226 647.189 87.3226C651.141 87.3226 654.349 84.1075 654.349 80.1457Z" fill="#FF9F59"/>
<path d="M651.707 80.1446C651.707 77.6361 649.682 75.6055 647.18 75.6055C644.677 75.6055 642.652 77.6361 642.652 80.1446C642.652 82.653 644.677 84.6836 647.18 84.6836C649.682 84.6836 651.707 82.653 651.707 80.1446Z" fill="#FF533A"/>
<path d="M275.804 368.657C275.804 374.092 273.778 378.492 271.276 378.492C268.774 378.492 266.748 374.092 266.748 368.657C266.748 363.222 268.774 358.822 271.276 358.822C273.778 358.822 275.804 363.222 275.804 368.657Z" fill="#FF533A"/>
<path d="M271.286 400.409C273.787 400.409 275.814 396.006 275.814 390.574C275.814 385.142 273.787 380.739 271.286 380.739C268.785 380.739 266.758 385.142 266.758 390.574C266.758 396.006 268.785 400.409 271.286 400.409Z" fill="#FF533A"/>
<path d="M282.219 384.156C287.637 384.156 292.029 382.124 292.029 379.617C292.029 377.11 287.637 375.078 282.219 375.078C276.801 375.078 272.408 377.11 272.408 379.617C272.408 382.124 276.801 384.156 282.219 384.156Z" fill="#FF533A"/>
<path d="M260.344 384.156C254.922 384.156 250.533 382.126 250.533 379.617C250.533 377.109 254.922 375.078 260.344 375.078C265.765 375.078 270.154 377.109 270.154 379.617C270.154 382.126 265.765 384.156 260.344 384.156Z" fill="#FF533A"/>
<path d="M282.209 375.078C278.376 378.921 273.838 380.593 272.071 378.821C270.303 377.049 271.981 372.5 275.804 368.658C279.637 364.816 284.175 363.143 285.942 364.915C287.71 366.687 286.032 371.236 282.209 375.078Z" fill="#FF533A"/>
<path d="M266.748 390.577C262.916 394.42 258.378 396.092 256.61 394.32C254.843 392.548 256.521 387.999 260.344 384.157C264.177 380.315 268.714 378.642 270.482 380.414C272.249 382.186 270.571 386.735 266.748 390.577Z" fill="#FF533A"/>
<path d="M275.814 390.578C271.981 386.735 270.313 382.186 272.081 380.414C273.848 378.643 278.386 380.325 282.219 384.157C286.051 387.999 287.72 392.549 285.952 394.32C284.185 396.092 279.647 394.41 275.814 390.578Z" fill="#FF533A"/>
<path d="M260.354 375.077C256.521 371.234 254.853 366.685 256.62 364.913C258.388 363.142 262.926 364.824 266.758 368.656C270.591 372.499 272.259 377.048 270.492 378.819C268.724 380.591 264.187 378.909 260.354 375.077Z" fill="#FF533A"/>
<path d="M271.286 386.793C275.24 386.793 278.445 383.58 278.445 379.616C278.445 375.653 275.24 372.439 271.286 372.439C267.332 372.439 264.127 375.653 264.127 379.616C264.127 383.58 267.332 386.793 271.286 386.793Z" fill="#FF9F59"/>
<path d="M271.286 384.156C273.787 384.156 275.814 382.124 275.814 379.617C275.814 377.11 273.787 375.078 271.286 375.078C268.785 375.078 266.758 377.11 266.758 379.617C266.758 382.124 268.785 384.156 271.286 384.156Z" fill="#FF533A"/>
<path d="M607.074 8.5354C612.367 -7.66994 622.425 -32.8838 637.111 -42.8877C640.04 -33.7797 636.396 -20.7497 634.122 -11.4824C643.267 -14.827 649.096 -28.7528 656.752 -35.2628C663.951 -29.8577 656.156 -6.86367 655.6 0.213726C663.941 -5.08187 676.849 -22.2627 687.841 -18.1716C684.137 -7.19215 677.753 2.26429 672.311 12.2981C668.141 19.9827 664.388 29.0608 659.145 35.979C654.299 29.3595 642.791 25.8058 635.512 22.2522C627.628 18.4 616.855 15.1449 607.074 8.52544V8.5354Z" fill="#FF9F59"/>
<path d="M662.193 16.9364C661.18 18.4395 659.155 18.8377 657.655 17.8224C656.156 16.807 655.759 14.7764 656.772 13.2733C657.784 11.7702 659.81 11.3721 661.309 12.3874C662.809 13.4027 663.206 15.4334 662.193 16.9364Z" fill="#252525"/>
<path d="M633.407 3.58691C633.407 3.58691 639.951 11.4009 647.497 10.0272" stroke="#252525" stroke-width="4.38053" stroke-miterlimit="10" stroke-linecap="round"/>
<path d="M34.9925 441.336H29.1738V469.845H34.9925V441.336Z" fill="#252525"/>
<path d="M72.7843 429.854C71.1261 429.854 72.3276 436.294 70.431 438.733C68.5345 441.171 62.1398 439.977 62.1398 441.331C62.1398 442.684 68.3657 441.062 69.9842 443.501C71.6027 445.939 70.4409 452.449 72.1488 452.449C73.8567 452.449 73.0822 445.521 74.9688 443.351C76.8654 441.181 82.5749 442.605 82.5749 441.151C82.5749 439.698 76.0313 439.997 74.6809 438.364C73.3304 436.732 73.9064 429.844 72.7843 429.854Z" fill="#FF533A"/>
<path d="M724.918 133.291C723.26 133.291 724.461 139.731 722.565 142.17C720.668 144.609 714.274 143.414 714.274 144.768C714.274 146.122 720.499 144.499 722.118 146.938C723.746 149.377 722.575 155.887 724.283 155.887C725.99 155.887 725.216 148.959 727.103 146.789C728.999 144.619 734.709 146.042 734.709 144.589C734.709 143.136 728.165 143.434 726.815 141.802C725.464 140.169 726.04 133.281 724.918 133.291Z" fill="#FF533A"/>
<path d="M383.888 360.963C382.229 360.963 383.431 367.403 381.534 369.842C379.638 372.281 373.243 371.086 373.243 372.44C373.243 373.794 379.469 372.171 381.087 374.61C382.716 377.049 381.544 383.559 383.252 383.559C384.96 383.559 384.185 376.631 386.072 374.461C387.969 372.291 393.678 373.714 393.678 372.261C393.678 370.808 387.135 371.106 385.784 369.474C384.434 367.841 385.01 360.953 383.888 360.963Z" fill="#FF533A"/>
<path d="M105.87 408.623C104.877 408.623 105.592 412.475 104.46 413.939C103.328 415.402 99.5048 414.685 99.5048 415.491C99.5048 416.298 103.228 415.332 104.201 416.785C105.175 418.249 104.47 422.141 105.492 422.141C106.515 422.141 106.048 418 107.18 416.696C108.312 415.392 111.728 416.248 111.728 415.382C111.728 414.516 107.816 414.685 107.002 413.72C106.187 412.744 106.535 408.623 105.86 408.623H105.87Z" fill="#FF533A"/>
<path d="M714.998 97.6777C714.005 97.6777 714.72 101.53 713.588 102.993C712.456 104.457 708.634 103.74 708.634 104.546C708.634 105.352 712.357 104.387 713.33 105.84C714.303 107.303 713.598 111.195 714.621 111.195C715.644 111.195 715.177 107.055 716.309 105.751C717.441 104.456 720.857 105.303 720.857 104.437C720.857 103.571 716.945 103.74 716.13 102.774C715.316 101.799 715.664 97.6777 714.988 97.6777H714.998Z" fill="#FF533A"/>
<path d="M723.498 167.545C722.505 167.545 723.22 171.397 722.088 172.86C720.956 174.324 717.133 173.607 717.133 174.413C717.133 175.22 720.857 174.254 721.83 175.707C722.803 177.171 722.098 181.063 723.121 181.063C724.144 181.063 723.677 176.922 724.809 175.618C725.941 174.314 729.357 175.17 729.357 174.304C729.357 173.438 725.444 173.607 724.63 172.641C723.816 171.666 724.163 167.545 723.488 167.545H723.498Z" fill="#FF533A"/>
<path d="M590.402 396.27C590.402 398.032 588.982 399.456 587.225 399.456C585.467 399.456 584.047 398.032 584.047 396.27C584.047 394.508 585.467 393.085 587.225 393.085C588.982 393.085 590.402 394.508 590.402 396.27Z" fill="#FF533A"/>
<path d="M396.012 438.805C396.012 442.229 393.251 444.996 389.835 444.996C386.42 444.996 383.659 442.229 383.659 438.805C383.659 435.381 386.42 432.613 389.835 432.613C393.251 432.613 396.012 435.381 396.012 438.805Z" fill="#FF533A"/>
<path d="M238.926 441.154C240.993 441.154 242.669 439.474 242.669 437.401C242.669 435.329 240.993 433.648 238.926 433.648C236.858 433.648 235.182 435.329 235.182 437.401C235.182 439.474 236.858 441.154 238.926 441.154Z" fill="#FF533A"/>
<path d="M363.879 3.59984C366.226 3.59984 368.129 1.69241 368.129 -0.660527C368.129 -3.01347 366.226 -4.9209 363.879 -4.9209C361.532 -4.9209 359.629 -3.01347 359.629 -0.660527C359.629 1.69241 361.532 3.59984 363.879 3.59984Z" fill="#FF533A"/>
<path d="M31.5767 61.1842C31.5767 66.211 27.5056 70.2922 22.4911 70.2922C17.4767 70.2922 13.4056 66.211 13.4056 61.1842C13.4056 56.1574 17.4767 52.0762 22.4911 52.0762C27.5056 52.0762 31.5767 56.1574 31.5767 61.1842Z" fill="#FF533A"/>
<path d="M571.373 20.7299C577.063 18.3673 579.765 11.8283 577.408 6.1245C575.051 0.420726 568.528 -2.28786 562.839 0.0747185C557.149 2.4373 554.447 8.97637 556.804 14.6801C559.161 20.3839 565.683 23.0925 571.373 20.7299Z" fill="#74CDFF"/>
<path d="M199.712 449.416C204.494 434.88 196.615 419.212 182.116 414.419C167.617 409.626 151.987 417.523 147.206 432.059C142.424 446.594 150.303 462.262 164.802 467.055C179.301 471.848 194.931 463.951 199.712 449.416Z" fill="#FF9F59"/>
<path d="M166.708 434.316C165.586 437.302 162.25 438.815 159.271 437.69C156.292 436.565 154.783 433.221 155.905 430.235C157.027 427.248 160.363 425.735 163.342 426.86C166.321 427.985 167.83 431.33 166.708 434.316Z" fill="#252525"/>
<path d="M192.823 444.19C191.701 447.176 188.364 448.689 185.385 447.564C182.407 446.439 180.897 443.095 182.019 440.109C183.141 437.122 186.478 435.609 189.457 436.734C192.435 437.859 193.945 441.204 192.823 444.19Z" fill="#252525"/>
<path d="M169.915 450.48C165.219 448.708 162.14 445.423 161.942 445.214C161.108 444.309 161.167 442.895 162.061 442.059C162.965 441.223 164.365 441.273 165.199 442.178C165.308 442.298 171.256 448.509 178.306 446.847C179.497 446.568 180.699 447.305 180.977 448.509C181.255 449.704 180.52 450.908 179.319 451.187C175.804 452.013 172.586 451.495 169.895 450.48H169.915Z" fill="#252525"/>
<path d="M163.382 420.131L163.411 405.011L170.312 411.192L175.674 404.185L178.941 411.093L184.631 405.469L185.197 421.087L163.382 420.131Z" fill="#FF9F59"/>
<path d="M128.461 191.284H132.852V219.116H116.301L128.461 191.284ZM111.437 191.284H119.341L107.586 219.116H102.857V236.546H111.707V227.088H137.446L135.486 236.546H144.336L147.984 219.116H141.769V191.284L142.85 183.312H111.437V191.284ZM173.716 189.865C182.093 189.865 186.619 196.756 186.619 204.187C186.619 212.901 181.755 220.535 172.838 220.535C164.393 220.535 159.867 213.442 159.867 206.213C159.867 197.499 164.798 189.865 173.716 189.865ZM150.882 206.754C150.882 217.968 158.381 228.439 172.838 228.439C187.024 228.439 195.604 217.157 195.604 203.646C195.604 192.432 188.105 181.961 173.716 181.961C159.529 181.961 150.882 193.581 150.882 206.754ZM201.847 227.088H253.054V182.434L244.137 183.312V219.116H232.45V183.312H223.532V219.116H211.845V183.312H202.928V219.116L201.847 227.088ZM262.253 227.088H271.17V206.078L289.68 227.088H301.029L281.371 204.524L297.314 186.42L290.018 182.096L271.17 204.322V183.312H262.253V227.088ZM306.337 227.088H315.255V183.312H306.337V227.088ZM328.888 191.284H336.387L331.253 207.632C330.037 211.415 326.929 216.144 320.579 222.427L327.334 228.439C335.171 220.873 338.143 215.401 339.832 209.591L345.101 191.284H350.641V227.088H359.558V191.284L360.639 183.312H328.888V191.284ZM383.776 204.997C390.261 204.997 393.301 207.159 393.301 211.077C393.301 215.941 389.45 219.116 380.871 219.116H377.696V204.997H383.776ZM380.871 227.088C394.99 227.088 402.286 220.197 402.286 210.537C402.286 202.43 396.273 197.093 383.776 197.093H377.696V183.312H368.778V219.116L367.698 227.088H380.871ZM409.103 227.088H418.02V208.172H437.206V227.088H446.123V182.434L437.206 183.312V200.269H418.02V183.312H409.103V227.088ZM475.093 191.284H478.403V202.768H472.188C465.703 202.768 463.406 200.674 463.406 197.296C463.406 193.986 466.513 191.284 475.093 191.284ZM454.286 197.837C454.286 203.038 457.461 207.159 463.135 209.118L451.786 224.521L459.69 228.304L471.918 210.672H478.403V227.088H487.32V191.284L488.401 183.312H475.093C460.906 183.312 454.286 189.797 454.286 197.837ZM492.631 191.284H505.399V227.088H514.383V191.284H526.003L527.557 183.312H492.631V191.284ZM532.782 227.088H541.699V206.078L560.209 227.088H571.558L551.9 204.524L567.843 186.42L560.547 182.096L541.699 204.322V183.312H532.782V227.088ZM597.809 189.865C606.185 189.865 610.712 196.756 610.712 204.187C610.712 212.901 605.848 220.535 596.93 220.535C588.486 220.535 583.96 213.442 583.96 206.213C583.96 197.499 588.891 189.865 597.809 189.865ZM574.975 206.754C574.975 217.968 582.474 228.439 596.93 228.439C611.117 228.439 619.696 217.157 619.696 203.646C619.696 192.432 612.198 181.961 597.809 181.961C583.622 181.961 574.975 193.581 574.975 206.754ZM112.416 249.963C114.227 249.963 115.922 251.147 115.922 253.632C115.922 256.419 113.832 258.532 110.163 258.555V250.637C110.767 250.265 111.626 249.963 112.416 249.963ZM108.282 263.455H110.163V260.343C114.529 260.32 117.803 257.441 117.803 253.632C117.803 250.288 115.713 248.221 112.578 248.221C111.603 248.221 110.535 248.547 109.745 249.011L108.63 248.361H108.282V263.455ZM126.313 249.986C128.659 249.986 129.796 251.937 129.796 254.05C129.796 256.814 128.589 258.578 126.081 258.578C123.735 258.578 122.598 256.628 122.598 254.515C122.598 251.751 123.805 249.986 126.313 249.986ZM120.717 254.7C120.717 257.603 122.551 260.343 126.081 260.343C129.657 260.343 131.677 257.441 131.677 253.864C131.677 250.962 129.843 248.221 126.313 248.221C122.737 248.221 120.717 251.124 120.717 254.7ZM136.154 254.933H138.499C139.567 254.933 140.496 255.42 140.496 256.442C140.496 257.533 139.358 258.509 137.431 258.509C136.154 258.509 135.364 258.323 134.575 258.137V259.972C135.434 260.204 136.27 260.343 137.384 260.343C140.334 260.343 142.377 258.648 142.377 256.21C142.377 254.933 141.564 254.213 140.496 253.864C141.1 253.353 141.68 252.541 141.68 251.403C141.68 249.522 140.45 248.221 137.57 248.221C135.898 248.221 134.807 248.663 134.807 248.663V250.52C134.83 250.52 136.014 250.056 137.338 250.056C139.219 250.056 139.799 250.706 139.799 251.635C139.799 252.517 139.219 253.168 138.94 253.307H136.386L136.154 254.933ZM149.832 250.126C151.481 250.126 152.293 250.613 152.293 251.635C152.293 252.401 151.899 252.982 151.481 253.307H147.904V250.126H149.832ZM151.063 254.933C152.131 254.933 153.06 255.42 153.06 256.442C153.06 257.626 151.806 258.439 149.762 258.439H147.904V254.933H151.063ZM146.023 260.088H149.716C152.665 260.088 154.941 258.764 154.941 256.21C154.941 254.933 154.105 254.213 153.083 253.864C153.687 253.353 154.174 252.517 154.174 251.403C154.174 249.661 152.479 248.477 149.832 248.477H145.791L146.023 250.126V260.088ZM158.589 259.856L160.47 260.32L166.74 251.101L166.624 252.796V260.088H168.504V249.638L168.667 248.477H166.624L160.33 257.812L160.47 255.815V248.477H158.589V259.856ZM176.709 250.126C178.357 250.126 179.17 250.613 179.17 251.635C179.17 252.401 178.775 252.982 178.357 253.307H174.781V250.126H176.709ZM177.939 254.933C179.008 254.933 179.936 255.42 179.936 256.442C179.936 257.626 178.682 258.439 176.639 258.439H174.781V254.933H177.939ZM172.9 260.088H176.592C179.542 260.088 181.817 258.764 181.817 256.21C181.817 254.933 180.981 254.213 179.96 253.864C180.563 253.353 181.051 252.517 181.051 251.403C181.051 249.661 179.356 248.477 176.709 248.477H172.668L172.9 250.126V260.088ZM186.603 256.93C186.603 255.234 189.018 254.538 191.132 254.329V257.719C190.598 258.137 189.599 258.625 188.531 258.625C187.277 258.625 186.603 257.951 186.603 256.93ZM186.139 250.404C186.139 250.404 187.254 250.056 188.461 250.056C190.063 250.056 191.108 250.938 191.132 252.819C187.834 253.052 184.722 254.236 184.722 257.162C184.722 259.136 186 260.343 188.136 260.343C189.344 260.343 190.458 259.902 191.178 259.391L192.78 260.204H193.013V252.889C193.013 249.824 191.619 248.221 188.693 248.221C187.37 248.221 186.162 248.547 186.162 248.547L186.139 250.404ZM206.944 249.986C208.964 249.986 209.963 251.937 209.963 254.05C209.963 256.814 208.825 258.578 206.479 258.578C204.297 258.578 203.228 256.628 203.228 254.515C203.228 251.751 204.436 249.986 206.944 249.986ZM206.479 260.343C209.916 260.343 211.844 257.441 211.844 253.864C211.844 250.962 210.149 248.221 206.944 248.221C203.855 248.221 201.928 250.381 201.463 253.261H199.118V248.477H197.237V260.088H199.118V254.909H201.347C201.417 257.742 203.182 260.343 206.479 260.343ZM221.741 260.088H223.622V248.245L221.741 248.477V253.284C221.137 253.655 219.883 253.957 219.094 253.957C217.306 253.957 216.632 253.144 216.632 251.217V248.477H214.751V251.519C214.751 253.864 215.68 255.699 218.955 255.699C219.721 255.699 220.859 255.443 221.741 255.118V260.088ZM229.152 256.93C229.152 255.234 231.567 254.538 233.681 254.329V257.719C233.147 258.137 232.148 258.625 231.08 258.625C229.826 258.625 229.152 257.951 229.152 256.93ZM228.688 250.404C228.688 250.404 229.803 250.056 231.01 250.056C232.612 250.056 233.657 250.938 233.681 252.819C230.383 253.052 227.271 254.236 227.271 257.162C227.271 259.136 228.549 260.343 230.685 260.343C231.893 260.343 233.007 259.902 233.727 259.391L235.329 260.204H235.562V252.889C235.562 249.824 234.168 248.221 231.242 248.221C229.919 248.221 228.711 248.547 228.711 248.547L228.688 250.404ZM247.793 260.088H249.674V250.126H254.899V260.088H256.78V248.245L254.899 248.477H247.793V260.088ZM261.895 250.195L264.147 250.172L262.986 253.795C262.429 255.536 261.128 257.766 259.549 259.02L260.78 260.436C262.754 258.741 263.938 256.512 264.658 254.306L265.982 250.172L267.886 250.149V260.088H269.767V248.245L267.886 248.477H261.895V250.195ZM275.286 256.93C275.286 255.234 277.701 254.538 279.815 254.329V257.719C279.28 258.137 278.282 258.625 277.214 258.625C275.96 258.625 275.286 257.951 275.286 256.93ZM274.822 250.404C274.822 250.404 275.936 250.056 277.144 250.056C278.746 250.056 279.791 250.938 279.815 252.819C276.517 253.052 273.405 254.236 273.405 257.162C273.405 259.136 274.682 260.343 276.819 260.343C278.026 260.343 279.141 259.902 279.861 259.391L281.463 260.204H281.696V252.889C281.696 249.824 280.302 248.221 277.376 248.221C276.053 248.221 274.845 248.547 274.845 248.547L274.822 250.404ZM284.527 250.126H288.405V260.088H290.286V250.126H293.908L294.187 248.477H284.527V250.126ZM307.799 253.98C307.799 256.21 306.313 257.928 303.643 258.416V249.963C305.779 249.986 307.799 251.356 307.799 253.98ZM297.605 254.352C297.605 252.262 299.091 250.613 301.762 250.149V258.602C299.602 258.578 297.605 257.115 297.605 254.352ZM301.762 263.455H303.643V260.204C307.172 259.623 309.68 257.185 309.68 253.98C309.68 250.497 307.312 248.221 303.759 248.221H303.643V244.761L301.762 245.04V248.361C298.209 248.918 295.724 251.287 295.724 254.352C295.724 257.975 298.092 260.343 301.645 260.343H301.762V263.455ZM318.172 249.986C320.517 249.986 321.655 251.937 321.655 254.05C321.655 256.814 320.448 258.578 317.94 258.578C315.594 258.578 314.456 256.628 314.456 254.515C314.456 251.751 315.664 249.986 318.172 249.986ZM312.575 254.7C312.575 257.603 314.41 260.343 317.94 260.343C321.516 260.343 323.536 257.441 323.536 253.864C323.536 250.962 321.702 248.221 318.172 248.221C314.596 248.221 312.575 251.124 312.575 254.7ZM331.31 249.963C333.121 249.963 334.816 251.147 334.816 253.632C334.816 256.419 332.726 258.532 329.057 258.555V250.637C329.661 250.265 330.52 249.963 331.31 249.963ZM327.176 263.455H329.057V260.343C333.423 260.32 336.697 257.441 336.697 253.632C336.697 250.288 334.607 248.221 331.472 248.221C330.497 248.221 329.429 248.547 328.639 249.011L327.525 248.361H327.176V263.455ZM339.913 260.088H341.724L342.49 251.96L346.531 259.205L351.175 251.171V252.796L351.408 260.088H353.289L352.824 248.245L350.943 248.477L346.554 255.861L342.583 248.477H340.052L341.097 250.335L339.913 260.088ZM358.751 256.93C358.751 255.234 361.166 254.538 363.28 254.329V257.719C362.746 258.137 361.747 258.625 360.679 258.625C359.425 258.625 358.751 257.951 358.751 256.93ZM358.287 250.404C358.287 250.404 359.402 250.056 360.609 250.056C362.211 250.056 363.256 250.938 363.28 252.819C359.982 253.052 356.87 254.236 356.87 257.162C356.87 259.136 358.148 260.343 360.284 260.343C361.492 260.343 362.606 259.902 363.326 259.391L364.928 260.204H365.161V252.889C365.161 249.824 363.767 248.221 360.841 248.221C359.518 248.221 358.31 248.547 358.31 248.547L358.287 250.404ZM381.294 252.959L382.083 250.219H384.405V258.439H378.902C379.97 256.721 380.713 254.956 381.294 252.959ZM377.95 260.088H386.077L385.334 263.107H387.215L388.376 258.439H386.286V248.245L384.405 248.477H378.159V250.219H380.225L379.598 252.61C379.041 254.677 377.996 256.906 376.974 258.439H376.092V263.014H377.95V260.088ZM392.378 250.195L394.631 250.172L393.47 253.795C392.912 255.536 391.612 257.766 390.033 259.02L391.264 260.436C393.237 258.741 394.422 256.512 395.142 254.306L396.465 250.172L398.37 250.149V260.088H400.251V248.245L398.37 248.477H392.378V250.195ZM406.861 252.541C406.861 251.008 408.417 250.126 411.32 250.126H411.552V254.491H409.09C407.976 254.491 406.861 253.818 406.861 252.541ZM404.051 259.275L405.561 260.39L408.881 256.07H411.552V260.088H413.433V250.126L413.665 248.477H411.273C407.233 248.477 404.911 250.219 404.911 252.796C404.911 254.166 405.956 255.188 407.001 255.652L404.051 259.275ZM429.741 252.959L430.53 250.219H432.852V258.439H427.349C428.417 256.721 429.16 254.956 429.741 252.959ZM426.397 260.088H434.524L433.781 263.107H435.662L436.823 258.439H434.733V248.245L432.852 248.477H426.606V250.219H428.672L428.045 252.61C427.488 254.677 426.443 256.906 425.421 258.439H424.539V263.014H426.397V260.088ZM439.879 259.856L441.76 260.32L448.03 251.101L447.913 252.796V260.088H449.794V249.638L449.957 248.477H447.913L441.62 257.812L441.76 255.815V248.477H439.879V259.856ZM452.797 250.126H456.675V260.088H458.556V250.126H462.178L462.457 248.477H452.797V250.126ZM467.284 252.541C467.284 251.008 468.84 250.126 471.743 250.126H471.975V254.491H469.513C468.399 254.491 467.284 253.818 467.284 252.541ZM464.474 259.275L465.983 260.39L469.304 256.07H471.975V260.088H473.856V250.126L474.088 248.477H471.696C467.655 248.477 465.333 250.219 465.333 252.796C465.333 254.166 466.378 255.188 467.423 255.652L464.474 259.275ZM484.502 260.088H486.383V248.245L484.502 248.477V253.284C483.898 253.655 482.644 253.957 481.854 253.957C480.066 253.957 479.393 253.144 479.393 251.217V248.477H477.512V251.519C477.512 253.864 478.441 255.699 481.715 255.699C482.481 255.699 483.619 255.443 484.502 255.118V260.088ZM490.775 259.856L492.656 260.32L498.926 251.101L498.81 252.796V260.088H500.691V249.638L500.853 248.477H498.81L492.516 257.812L492.656 255.815V248.477H490.775V259.856ZM503.809 259.136L505.226 260.367L509.313 255.583L512.471 260.088H514.747L510.66 254.282L514.747 249.406L513.446 248.175L509.638 252.843L506.573 248.477H504.343L508.268 254.097L503.809 259.136ZM527.227 254.747C527.227 251.937 529.689 250.033 533.126 250.033V248.221C528.458 248.221 525.346 251.147 525.346 254.747C525.346 257.812 527.39 260.343 531.059 260.343C531.965 260.343 532.731 260.204 533.126 260.041V258.3C532.569 258.486 532.081 258.555 531.291 258.555C528.412 258.555 527.227 256.674 527.227 254.747ZM537.797 256.93C537.797 255.234 540.212 254.538 542.325 254.329V257.719C541.791 258.137 540.793 258.625 539.725 258.625C538.471 258.625 537.797 257.951 537.797 256.93ZM537.333 250.404C537.333 250.404 538.447 250.056 539.655 250.056C541.257 250.056 542.302 250.938 542.325 252.819C539.028 253.052 535.916 254.236 535.916 257.162C535.916 259.136 537.193 260.343 539.33 260.343C540.537 260.343 541.652 259.902 542.372 259.391L543.974 260.204H544.206V252.889C544.206 249.824 542.813 248.221 539.887 248.221C538.563 248.221 537.356 248.547 537.356 248.547L537.333 250.404ZM552.332 252.959L553.122 250.219H555.444V258.439H549.94C551.008 256.721 551.752 254.956 552.332 252.959ZM548.988 260.088H557.116L556.373 263.107H558.254L559.415 258.439H557.325V248.245L555.444 248.477H549.197V250.219H551.264L550.637 252.61C550.08 254.677 549.035 256.906 548.013 258.439H547.13V263.014H548.988V260.088ZM567.324 249.986C569.669 249.986 570.807 251.937 570.807 254.05C570.807 256.814 569.599 258.578 567.091 258.578C564.746 258.578 563.608 256.628 563.608 254.515C563.608 251.751 564.816 249.986 567.324 249.986ZM561.727 254.7C561.727 257.603 563.562 260.343 567.091 260.343C570.668 260.343 572.688 257.441 572.688 253.864C572.688 250.962 570.853 248.221 567.324 248.221C563.747 248.221 561.727 251.124 561.727 254.7ZM582.575 260.088H584.456V248.245L582.575 248.477V253.284C581.971 253.655 580.717 253.957 579.928 253.957C578.139 253.957 577.466 253.144 577.466 251.217V248.477H575.585V251.519C575.585 253.864 576.514 255.699 579.788 255.699C580.555 255.699 581.692 255.443 582.575 255.118V260.088ZM588.848 260.088H590.729V248.477H588.848V260.088ZM596.256 260.088H598.578L593.423 254.143L597.789 249.452L596.511 248.245L591.101 254.306L596.256 260.088ZM601.996 246.642L603.83 246.41L604.364 244.041L602.321 243.832L601.996 246.642ZM600.184 250.126H601.879V260.088H603.76V248.245L600.184 248.709V250.126ZM611.959 250.126C613.608 250.126 614.42 250.613 614.42 251.635C614.42 252.401 614.026 252.982 613.608 253.307H610.032V250.126H611.959ZM613.19 254.933C614.258 254.933 615.187 255.42 615.187 256.442C615.187 257.626 613.933 258.439 611.889 258.439H610.032V254.933H613.19ZM608.151 260.088H611.843C614.792 260.088 617.068 258.764 617.068 256.21C617.068 254.933 616.232 254.213 615.21 253.864C615.814 253.353 616.301 252.517 616.301 251.403C616.301 249.661 614.606 248.477 611.959 248.477H607.918L608.151 250.126V260.088Z" fill="#252525"/>
</g>
<defs>
<clipPath id="clip0_307_1726">
<rect width="745" height="445" rx="75.8491" fill="white"/>
</clipPath>
</defs>
</svg>
