<svg width="353" height="267" viewBox="0 0 353 267" fill="none" xmlns="http://www.w3.org/2000/svg">
<g clip-path="url(#clip0_286_73)">
<rect width="353" height="267" rx="50" fill="#FFDC84"/>
<path d="M202.575 53.4503C203.192 55.9889 201.973 58.6514 199.847 59.3888C197.721 60.1262 195.501 58.6683 194.885 56.124C194.269 53.5854 195.487 50.9229 197.613 50.1855C199.739 49.4481 201.959 50.906 202.575 53.4503Z" fill="#FF533A"/>
<path d="M308.972 89.3281C308.502 91.4502 306.682 92.7167 304.908 92.1539C303.135 91.591 302.077 89.4126 302.547 87.2905C303.018 85.1683 304.838 83.9018 306.611 84.4647C308.384 85.0276 309.443 87.206 308.972 89.3281Z" fill="#FF533A"/>
<path d="M133.74 12.0163L136.223 26.7416C136.472 28.222 137.314 29.4604 138.471 30.0514L150.014 35.9562C152.935 37.4478 153.156 42.3 150.39 44.1631L139.454 51.537C138.359 52.2801 137.634 53.6197 137.521 55.1227L136.397 70.0843C136.115 73.867 132.329 75.6176 129.991 73.0508L120.749 62.8849C119.822 61.8661 118.533 61.4552 117.306 61.7929L105.067 65.1365C101.972 65.9809 99.4088 62.2151 100.73 58.7589L105.956 45.0975C106.483 43.7241 106.408 42.1311 105.763 40.8364L99.3241 27.9406C97.6967 24.6814 99.8979 20.6005 103.049 21.0339L115.518 22.762C116.769 22.9365 118.016 22.3623 118.844 21.2253L127.103 9.91113C129.191 7.05163 133.114 8.29562 133.74 12.022V12.0163Z" fill="#FF533A"/>
<path d="M123.326 36.0857C122.583 39.4293 119.718 41.4219 116.925 40.5326C114.131 39.6432 112.466 36.2152 113.209 32.8716C113.952 29.528 116.816 27.5354 119.61 28.4247C122.404 29.3141 124.069 32.7421 123.326 36.0857Z" fill="white"/>
<path d="M121.929 35.6411C121.393 38.0616 119.314 39.5082 117.291 38.8609C115.269 38.2192 114.06 35.7312 114.601 33.3108C115.137 30.8903 117.216 29.4437 119.239 30.091C121.261 30.7327 122.47 33.2207 121.929 35.6411Z" fill="#252525"/>
<path d="M136.284 40.2C135.541 43.5435 132.677 45.5362 129.883 44.6468C127.089 43.7574 125.424 40.3294 126.167 36.9858C126.91 33.6423 129.775 31.6496 132.569 32.539C135.362 33.4284 137.027 36.8564 136.284 40.2Z" fill="white"/>
<path d="M134.887 39.7613C134.351 42.1817 132.272 43.6283 130.25 42.981C128.227 42.3393 127.018 39.8513 127.559 37.4309C128.095 35.0105 130.174 33.5638 132.197 34.2111C134.219 34.8585 135.428 37.3408 134.887 39.7613Z" fill="#252525"/>
<path d="M116.605 31.2733C116.497 31.7517 116.087 32.0388 115.688 31.9093C115.288 31.7799 115.048 31.2901 115.156 30.8117C115.264 30.3332 115.673 30.0461 116.073 30.1756C116.473 30.3051 116.713 30.7948 116.605 31.2733Z" fill="white"/>
<path d="M129.563 35.3865C129.455 35.865 129.046 36.1521 128.646 36.0226C128.246 35.8931 128.006 35.4034 128.114 34.925C128.222 34.4465 128.632 34.1594 129.031 34.2889C129.431 34.4184 129.671 34.9081 129.563 35.3865Z" fill="white"/>
<path d="M120.085 36.4011C119.93 37.0935 119.338 37.51 118.759 37.3243C118.18 37.1385 117.832 36.4293 117.988 35.7369C118.143 35.0446 118.735 34.628 119.314 34.8138C119.893 34.9995 120.241 35.7088 120.085 36.4011Z" fill="white"/>
<path d="M133.533 40.6726C133.377 41.365 132.785 41.7815 132.206 41.5958C131.628 41.41 131.28 40.7008 131.435 40.0084C131.59 39.3161 132.183 38.8995 132.761 39.0853C133.34 39.271 133.688 39.9803 133.533 40.6726Z" fill="white"/>
<path d="M121.449 51.6042C119.907 51.1145 118.585 50.4222 117.508 49.7073C114.131 47.467 112.343 44.5625 112.268 44.4386C111.755 43.5886 111.911 42.4066 112.616 41.7874C113.322 41.1738 114.309 41.3596 114.827 42.2039C115.071 42.598 120.814 51.6549 131.454 47.3657C132.282 47.0279 133.18 47.5627 133.462 48.559C133.74 49.5497 133.298 50.6248 132.465 50.9625C128.072 52.73 124.361 52.5386 121.449 51.6099V51.6042Z" fill="#252525"/>
<path d="M121.812 50.2308C116.257 48.4689 113.27 43.6731 113.228 43.5999C113.101 43.386 113.138 43.0933 113.317 42.9357C113.496 42.7837 113.74 42.8287 113.872 43.037C113.933 43.1383 120.321 53.3492 131.835 48.7053C132.042 48.6209 132.267 48.756 132.338 49.0037C132.409 49.2513 132.296 49.5215 132.089 49.606C128.048 51.2327 124.605 51.1145 121.816 50.2251L121.812 50.2308Z" fill="#FF533A"/>
<path d="M142.609 45.7426C143.556 43.8592 143.047 41.4139 141.474 40.281C139.9 39.148 137.857 39.7563 136.91 41.6397C135.963 43.523 136.472 45.9683 138.045 47.1013C139.619 48.2343 141.662 47.6259 142.609 45.7426Z" fill="#FF533A"/>
<path d="M309.481 412.541C295.902 412.541 284.896 399.369 284.896 383.119V263.037C284.896 246.786 295.902 233.614 309.481 233.614C323.06 233.614 334.067 246.786 334.067 263.037V383.119C334.067 399.369 323.06 412.541 309.481 412.541Z" fill="#74CDFF"/>
<path d="M295.357 277.588C293.099 277.588 291.269 275.398 291.269 272.696V262.919C291.269 260.217 293.099 258.027 295.357 258.027C297.615 258.027 299.444 260.217 299.444 262.919V272.696C299.444 275.398 297.615 277.588 295.357 277.588Z" fill="white"/>
<path d="M295.357 273.94C294.331 273.94 293.499 272.944 293.499 271.717V263.904C293.499 262.677 294.331 261.681 295.357 261.681C296.382 261.681 297.215 262.677 297.215 263.904V271.717C297.215 272.944 296.382 273.94 295.357 273.94Z" fill="#252525"/>
<path d="M294.176 265.227C294.176 265.717 293.847 266.111 293.438 266.111C293.029 266.111 292.699 265.717 292.699 265.227C292.699 264.738 293.029 264.344 293.438 264.344C293.847 264.344 294.176 264.738 294.176 265.227Z" fill="white"/>
<path d="M326.461 262.919C326.461 260.217 324.632 258.027 322.376 258.027C320.12 258.027 318.291 260.217 318.291 262.919V272.696C318.291 275.398 320.12 277.588 322.376 277.588C324.632 277.588 326.461 275.398 326.461 272.696V262.919Z" fill="white"/>
<path d="M322.374 273.94C321.348 273.94 320.516 272.944 320.516 271.717V263.904C320.516 262.677 321.348 261.681 322.374 261.681C323.399 261.681 324.232 262.677 324.232 263.904V271.717C324.232 272.944 323.399 273.94 322.374 273.94Z" fill="#252525"/>
<path d="M321.193 265.227C321.193 265.717 320.864 266.111 320.455 266.111C320.046 266.111 319.716 265.717 319.716 265.227C319.716 264.738 320.046 264.344 320.455 264.344C320.864 264.344 321.193 264.738 321.193 265.227Z" fill="white"/>
<path d="M247.644 33.0453C247.212 34.3963 246.2 35.4433 244.921 35.6909C243.007 36.0568 241.205 34.4976 240.9 32.2066C240.448 28.818 238.915 25.8403 236.591 23.8252C234.268 21.81 231.427 20.9994 228.59 21.5454C225.754 22.0858 223.271 23.9208 221.587 26.7015C219.903 29.4822 219.226 32.8821 219.682 36.2763C219.988 38.5673 218.685 40.7232 216.771 41.0891C214.856 41.4549 213.055 39.8957 212.749 37.6048C212.001 31.9983 213.121 26.375 215.9 21.7706C218.685 17.1718 222.796 14.1434 227.485 13.2428C232.17 12.3421 236.869 13.6875 240.716 17.0142C244.559 20.3465 247.089 25.2662 247.842 30.8782C247.945 31.6381 247.87 32.3811 247.654 33.0453H247.644Z" fill="#FF9F59"/>
<path d="M48.3426 -4.95508C52.4064 3.1168 50.2381 13.6035 43.498 18.4669C36.7532 23.3303 27.9905 20.7353 23.9267 12.6691" stroke="#FFFAF2" stroke-width="6.91513" stroke-miterlimit="10" stroke-linecap="round"/>
<path d="M216.361 194.651C216.361 197.443 218.252 199.712 220.59 199.712H312.139C314.472 199.712 316.367 197.449 316.367 194.651C316.367 191.859 314.476 189.591 312.139 189.591H220.59C218.257 189.591 216.361 191.854 216.361 194.651Z" fill="#FFFAF2"/>
<path d="M333.15 18.4551L340.012 38.9725L343.384 31.7956L350.016 40.5824L343.742 20.9374L340.134 27.5233L333.15 18.4551Z" fill="#FF9F59"/>
<path d="M56.4891 38.1738L44.6833 55.1676L51.5645 55.2914L48.2674 66.4592L59.711 50.5012L53.1543 49.8426L56.4891 38.1738Z" fill="#FF9F59"/>
<path d="M225.228 347.251C211.004 347.251 199.429 333.404 199.429 316.377V271.126C199.429 254.104 210.999 240.251 225.228 240.251C239.456 240.251 251.026 254.098 251.026 271.126V316.377C251.026 333.398 239.456 347.251 225.228 347.251ZM225.228 251.925C216.38 251.925 209.184 260.538 209.184 271.126V316.377C209.184 326.965 216.38 335.577 225.228 335.577C234.075 335.577 241.271 326.965 241.271 316.377V271.126C241.271 260.538 234.075 251.925 225.228 251.925Z" fill="#FF9F59"/>
<path d="M28.2069 217.849C28.2069 217.849 17.2854 211.916 16.0154 203.562C14.7455 195.203 22.3746 194.505 25.2484 200.208C26.302 193.503 33.4937 190.925 35.0646 198.688C36.7156 206.861 28.2069 217.849 28.2069 217.849Z" fill="#252525"/>
<path d="M256.059 267.317C256.059 267.317 252.837 258.265 255.433 253.34C258.025 248.415 262.15 252.293 261.397 256.762C264.525 253.959 269.154 256.644 266.943 261.434C264.615 266.478 256.064 267.311 256.064 267.311L256.059 267.317Z" fill="#252525"/>
<path d="M62.6695 225.206L64.5697 183.67L90.2979 200.962L62.6695 225.206Z" fill="#74CDFF"/>
<path d="M72.5752 -1.42104C72.5752 1.65235 71.6157 4.14034 70.4304 4.14034C69.2451 4.14034 68.2856 1.65235 68.2856 -1.42104C68.2856 -4.49443 69.2451 -6.98242 70.4304 -6.98242C71.6157 -6.98242 72.5752 -4.49443 72.5752 -1.42104Z" fill="#FF533A"/>
<path d="M68.2808 -1.41945C66.4653 0.753312 64.3158 1.69898 63.4785 0.697028C62.6413 -0.30492 63.4362 -2.87735 65.2471 -5.05012C67.0626 -7.22288 69.2121 -8.16853 70.0493 -7.16658C70.8866 -6.16463 70.0917 -3.59222 68.2808 -1.41945Z" fill="#FF533A"/>
<path d="M72.5752 -1.41938C70.7597 -3.59214 69.9695 -6.16456 70.8067 -7.16651C71.6439 -8.16846 73.7934 -7.21718 75.609 -5.05004C77.4245 -2.87728 78.2147 -0.304846 77.3775 0.697103C76.5403 1.69905 74.3908 0.747758 72.5752 -1.41938Z" fill="#FF533A"/>
<path d="M334.161 165.319C334.161 168.393 333.201 170.881 332.016 170.881C330.831 170.881 329.871 168.393 329.871 165.319C329.871 162.246 330.831 159.758 332.016 159.758C333.201 159.758 334.161 162.246 334.161 165.319Z" fill="#FF533A"/>
<path d="M334.161 177.72C334.161 180.793 333.201 183.281 332.016 183.281C330.831 183.281 329.871 180.793 329.871 177.72C329.871 174.646 330.831 172.158 332.016 172.158C333.201 172.158 334.161 174.646 334.161 177.72Z" fill="#FF533A"/>
<path d="M337.194 174.084C334.626 174.084 332.547 172.935 332.547 171.517C332.547 170.098 334.626 168.95 337.194 168.95C339.763 168.95 341.842 170.098 341.842 171.517C341.842 172.935 339.763 174.084 337.194 174.084Z" fill="#FF533A"/>
<path d="M326.837 174.084C324.269 174.084 322.19 172.935 322.19 171.517C322.19 170.098 324.269 168.95 326.837 168.95C329.405 168.95 331.484 170.098 331.484 171.517C331.484 172.935 329.405 174.084 326.837 174.084Z" fill="#FF533A"/>
<path d="M337.194 168.95C335.379 171.122 333.229 172.068 332.392 171.066C331.555 170.064 332.35 167.492 334.161 165.319C335.976 163.146 338.126 162.201 338.963 163.203C339.8 164.205 339.005 166.777 337.194 168.95Z" fill="#FF533A"/>
<path d="M329.866 177.714C328.051 179.887 325.901 180.833 325.064 179.831C324.227 178.829 325.022 176.256 326.833 174.084C328.648 171.911 330.798 170.965 331.635 171.967C332.472 172.969 331.677 175.542 329.866 177.714Z" fill="#FF533A"/>
<path d="M334.161 177.714C332.345 175.542 331.555 172.969 332.392 171.967C333.229 170.965 335.379 171.917 337.194 174.084C339.01 176.257 339.8 178.829 338.963 179.831C338.126 180.833 335.976 179.882 334.161 177.714Z" fill="#FF533A"/>
<path d="M326.837 168.949C325.022 166.776 324.232 164.204 325.069 163.202C325.906 162.2 328.055 163.151 329.871 165.318C331.687 167.491 332.477 170.063 331.64 171.065C330.802 172.067 328.653 171.116 326.837 168.949Z" fill="#FF533A"/>
<path d="M335.407 171.516C335.407 169.276 333.888 167.458 332.016 167.458C330.144 167.458 328.625 169.276 328.625 171.516C328.625 173.757 330.144 175.575 332.016 175.575C333.888 175.575 335.407 173.757 335.407 171.516Z" fill="#FF9F59"/>
<path d="M334.161 171.517C334.161 170.098 333.201 168.95 332.016 168.95C330.831 168.95 329.871 170.098 329.871 171.517C329.871 172.935 330.831 174.084 332.016 174.084C333.201 174.084 334.161 172.935 334.161 171.517Z" fill="#FF533A"/>
<path d="M308.757 43.1717C308.757 46.2451 307.798 48.7331 306.612 48.7331C305.427 48.7331 304.468 46.2451 304.468 43.1717C304.468 40.0983 305.427 37.6104 306.612 37.6104C307.798 37.6104 308.757 40.0983 308.757 43.1717Z" fill="#FF533A"/>
<path d="M308.757 55.5663C308.757 58.6397 307.798 61.1276 306.612 61.1276C305.427 61.1276 304.468 58.6397 304.468 55.5663C304.468 52.4929 305.427 50.0049 306.612 50.0049C307.798 50.0049 308.757 52.4929 308.757 55.5663Z" fill="#FF533A"/>
<path d="M311.796 51.9305C309.228 51.9305 307.149 50.7822 307.149 49.3637C307.149 47.9452 309.228 46.7969 311.796 46.7969C314.364 46.7969 316.443 47.9452 316.443 49.3637C316.443 50.7822 314.364 51.9305 311.796 51.9305Z" fill="#FF533A"/>
<path d="M301.438 51.9305C298.87 51.9305 296.791 50.7822 296.791 49.3637C296.791 47.9452 298.87 46.7969 301.438 46.7969C304.007 46.7969 306.086 47.9452 306.086 49.3637C306.086 50.7822 304.007 51.9305 301.438 51.9305Z" fill="#FF533A"/>
<path d="M311.796 46.7964C309.98 48.9691 307.831 49.9148 306.993 48.9128C306.156 47.9109 306.951 45.3385 308.762 43.1657C310.577 40.9929 312.727 40.0473 313.564 41.0492C314.401 42.0512 313.606 44.6236 311.796 46.7964Z" fill="#FF533A"/>
<path d="M304.467 55.5669C302.652 57.7396 300.502 58.6853 299.665 57.6834C298.828 56.6814 299.623 54.109 301.434 51.9362C303.245 49.7635 305.399 48.8178 306.236 49.8197C307.073 50.8217 306.278 53.3941 304.467 55.5669Z" fill="#FF533A"/>
<path d="M308.762 55.5669C306.946 53.3942 306.156 50.8218 306.993 49.8198C307.831 48.8179 309.98 49.7692 311.796 51.9363C313.611 54.1091 314.401 56.6815 313.564 57.6834C312.727 58.6854 310.577 57.7341 308.762 55.5669Z" fill="#FF533A"/>
<path d="M301.438 46.7964C299.623 44.6237 298.833 42.0513 299.67 41.0493C300.507 40.0474 302.657 40.9986 304.472 43.1658C306.288 45.3385 307.078 47.911 306.241 48.9129C305.403 49.9149 303.254 48.9636 301.438 46.7964Z" fill="#FF533A"/>
<path d="M310.008 49.37C310.008 47.1297 308.489 45.3115 306.617 45.3115C304.745 45.3115 303.226 47.1297 303.226 49.37C303.226 51.6103 304.745 53.4284 306.617 53.4284C308.489 53.4284 310.008 51.6103 310.008 49.37Z" fill="#FF9F59"/>
<path d="M308.757 49.3695C308.757 47.951 307.798 46.8027 306.612 46.8027C305.427 46.8027 304.468 47.951 304.468 49.3695C304.468 50.788 305.427 51.9363 306.612 51.9363C307.798 51.9363 308.757 50.788 308.757 49.3695Z" fill="#FF533A"/>
<path d="M130.696 212.517C130.696 215.591 129.737 218.079 128.552 218.079C127.366 218.079 126.407 215.591 126.407 212.517C126.407 209.444 127.366 206.956 128.552 206.956C129.737 206.956 130.696 209.444 130.696 212.517Z" fill="#FF533A"/>
<path d="M128.556 230.473C129.741 230.473 130.701 227.983 130.701 224.912C130.701 221.841 129.741 219.351 128.556 219.351C127.372 219.351 126.411 221.841 126.411 224.912C126.411 227.983 127.372 230.473 128.556 230.473Z" fill="#FF533A"/>
<path d="M133.735 221.282C136.301 221.282 138.382 220.133 138.382 218.715C138.382 217.298 136.301 216.148 133.735 216.148C131.168 216.148 129.088 217.298 129.088 218.715C129.088 220.133 131.168 221.282 133.735 221.282Z" fill="#FF533A"/>
<path d="M123.373 221.282C120.805 221.282 118.726 220.134 118.726 218.715C118.726 217.297 120.805 216.148 123.373 216.148C125.941 216.148 128.02 217.297 128.02 218.715C128.02 220.134 125.941 221.282 123.373 221.282Z" fill="#FF533A"/>
<path d="M133.73 216.148C131.915 218.321 129.765 219.266 128.928 218.264C128.091 217.262 128.886 214.69 130.696 212.517C132.512 210.345 134.661 209.399 135.499 210.401C136.336 211.403 135.541 213.975 133.73 216.148Z" fill="#FF533A"/>
<path d="M126.407 224.913C124.591 227.085 122.442 228.031 121.605 227.029C120.767 226.027 121.562 223.455 123.373 221.282C125.189 219.109 127.338 218.163 128.175 219.165C129.013 220.167 128.218 222.74 126.407 224.913Z" fill="#FF533A"/>
<path d="M130.701 224.913C128.886 222.74 128.095 220.167 128.933 219.166C129.77 218.164 131.919 219.115 133.735 221.282C135.55 223.455 136.341 226.027 135.503 227.029C134.666 228.031 132.517 227.08 130.701 224.913Z" fill="#FF533A"/>
<path d="M123.378 216.147C121.562 213.974 120.772 211.402 121.609 210.4C122.446 209.398 124.596 210.349 126.411 212.516C128.227 214.689 129.017 217.262 128.18 218.264C127.343 219.265 125.193 218.314 123.378 216.147Z" fill="#FF533A"/>
<path d="M128.556 222.773C130.429 222.773 131.948 220.956 131.948 218.715C131.948 216.473 130.429 214.656 128.556 214.656C126.683 214.656 125.165 216.473 125.165 218.715C125.165 220.956 126.683 222.773 128.556 222.773Z" fill="#FF9F59"/>
<path d="M128.556 221.282C129.741 221.282 130.701 220.133 130.701 218.715C130.701 217.298 129.741 216.148 128.556 216.148C127.372 216.148 126.411 217.298 126.411 218.715C126.411 220.133 127.372 221.282 128.556 221.282Z" fill="#FF533A"/>
<path d="M287.615 8.87396C290.122 -0.289936 294.886 -14.548 301.843 -20.2051C303.23 -15.0546 301.504 -7.68635 300.427 -2.44582C304.759 -4.33714 307.52 -12.212 311.146 -15.8933C314.557 -12.8368 310.864 0.165998 310.601 4.16817C314.552 1.17358 320.666 -8.54195 325.873 -6.22846C324.119 -0.0197563 321.094 5.32773 318.517 11.0017C316.541 15.3472 314.763 20.4808 312.28 24.3929C309.985 20.6497 304.533 18.6401 301.086 16.6306C297.351 14.4522 292.248 12.6116 287.615 8.86832V8.87396Z" fill="#FF9F59"/>
<path d="M296.011 2.78291C295.531 3.63288 294.571 3.85803 293.861 3.28388C293.151 2.70973 292.963 1.56144 293.443 0.711472C293.922 -0.138496 294.882 -0.363661 295.592 0.21049C296.302 0.78464 296.49 1.93295 296.011 2.78291Z" fill="#252525"/>
<path d="M313.724 13.6247C313.244 14.4747 312.285 14.6998 311.575 14.1257C310.864 13.5515 310.676 12.4032 311.156 11.5533C311.636 10.7033 312.595 10.4781 313.305 11.0523C314.016 11.6264 314.204 12.7747 313.724 13.6247Z" fill="#252525"/>
<path d="M300.089 6.07617C300.089 6.07617 303.188 10.4949 306.763 9.71809" stroke="#252525" stroke-width="2.075" stroke-miterlimit="10" stroke-linecap="round"/>
<path d="M16.6269 253.615H13.8707V269.736H16.6269V253.615Z" fill="#252525"/>
<path d="M21.9842 263.319V260.021H8.51334V263.319H21.9842Z" fill="#252525"/>
<path d="M34.5284 247.124C33.7429 247.124 34.3121 250.766 33.4137 252.145C32.5153 253.524 29.4863 252.849 29.4863 253.614C29.4863 254.38 32.4354 253.462 33.202 254.841C33.9687 256.22 33.4184 259.902 34.2274 259.902C35.0364 259.902 34.6695 255.984 35.5632 254.757C36.4616 253.53 39.1661 254.335 39.1661 253.513C39.1661 252.691 36.0665 252.86 35.4268 251.937C34.7871 251.014 35.0599 247.118 34.5284 247.124Z" fill="#FF533A"/>
<path d="M343.436 79.4229C342.651 79.4229 343.22 83.0648 342.321 84.4439C341.423 85.823 338.394 85.1475 338.394 85.913C338.394 86.6785 341.343 85.761 342.11 87.1401C342.881 88.5192 342.326 92.2005 343.135 92.2005C343.944 92.2005 343.577 88.2828 344.471 87.0557C345.369 85.8286 348.074 86.6335 348.074 85.8117C348.074 84.9899 344.974 85.1587 344.334 84.2356C343.695 83.3124 343.968 79.4172 343.436 79.4229Z" fill="#FF533A"/>
<path d="M181.894 208.166C181.109 208.166 181.678 211.808 180.779 213.187C179.881 214.566 176.852 213.891 176.852 214.656C176.852 215.422 179.801 214.504 180.568 215.883C181.339 217.262 180.784 220.944 181.593 220.944C182.402 220.944 182.035 217.026 182.929 215.799C183.827 214.572 186.532 215.377 186.532 214.555C186.532 213.733 183.432 213.902 182.792 212.979C182.153 212.056 182.426 208.16 181.894 208.166Z" fill="#FF533A"/>
<path d="M50.2005 235.118C49.7301 235.118 50.0688 237.297 49.5326 238.124C48.9964 238.951 47.1855 238.546 47.1855 239.002C47.1855 239.458 48.9494 238.912 49.4103 239.734C49.8713 240.561 49.5373 242.762 50.0218 242.762C50.5062 242.762 50.2852 240.421 50.8214 239.683C51.3576 238.946 52.9756 239.43 52.9756 238.94C52.9756 238.45 51.1224 238.546 50.7367 238C50.351 237.449 50.5156 235.118 50.1958 235.118H50.2005Z" fill="#FF533A"/>
<path d="M338.737 59.2822C338.267 59.2822 338.606 61.4606 338.069 62.2881C337.533 63.1155 335.722 62.7102 335.722 63.1662C335.722 63.6221 337.486 63.0761 337.947 63.898C338.408 64.7254 338.074 66.9263 338.558 66.9263C339.043 66.9263 338.822 64.5847 339.358 63.8473C339.894 63.1155 341.512 63.594 341.512 63.1043C341.512 62.6146 339.659 62.7102 339.273 62.1642C338.888 61.6126 339.052 59.2822 338.733 59.2822H338.737Z" fill="#FF533A"/>
<path d="M342.763 98.792C342.293 98.792 342.632 100.97 342.096 101.798C341.559 102.625 339.749 102.22 339.749 102.676C339.749 103.132 341.512 102.586 341.973 103.408C342.434 104.235 342.1 106.436 342.585 106.436C343.069 106.436 342.848 104.094 343.384 103.357C343.921 102.62 345.539 103.104 345.539 102.614C345.539 102.124 343.685 102.22 343.3 101.674C342.914 101.122 343.079 98.792 342.759 98.792H342.763Z" fill="#FF533A"/>
<path d="M279.718 228.132C279.718 229.129 279.045 229.934 278.213 229.934C277.38 229.934 276.707 229.129 276.707 228.132C276.707 227.136 277.38 226.331 278.213 226.331C279.045 226.331 279.718 227.136 279.718 228.132Z" fill="#FF533A"/>
<path d="M187.637 252.185C187.637 254.121 186.329 255.686 184.711 255.686C183.093 255.686 181.786 254.121 181.786 252.185C181.786 250.248 183.093 248.684 184.711 248.684C186.329 248.684 187.637 250.248 187.637 252.185Z" fill="#FF533A"/>
<path d="M113.228 253.514C114.207 253.514 115.001 252.564 115.001 251.392C115.001 250.22 114.207 249.27 113.228 249.27C112.248 249.27 111.454 250.22 111.454 251.392C111.454 252.564 112.248 253.514 113.228 253.514Z" fill="#FF533A"/>
<path d="M172.416 6.08301C173.528 6.08301 174.43 5.00438 174.43 3.67383C174.43 2.34327 173.528 1.26465 172.416 1.26465C171.305 1.26465 170.403 2.34327 170.403 3.67383C170.403 5.00438 171.305 6.08301 172.416 6.08301Z" fill="#FF533A"/>
<path d="M15.0088 38.6466C15.0088 41.4892 13.0804 43.797 10.7051 43.797C8.32987 43.797 6.40143 41.4892 6.40143 38.6466C6.40143 35.804 8.32987 33.4961 10.7051 33.4961C13.0804 33.4961 15.0088 35.804 15.0088 38.6466Z" fill="#FF533A"/>
<path d="M270.704 15.7699C273.399 14.4339 274.679 10.7362 273.562 7.51081C272.446 4.28541 269.356 2.75374 266.661 4.08974C263.966 5.42575 262.686 9.1235 263.802 12.3489C264.919 15.5743 268.008 17.106 270.704 15.7699Z" fill="#74CDFF"/>
<path d="M138.203 267.198C139.076 267.198 139.784 266.351 139.784 265.306C139.784 264.262 139.076 263.415 138.203 263.415C137.33 263.415 136.623 264.262 136.623 265.306C136.623 266.351 137.33 267.198 138.203 267.198Z" fill="#FF533A"/>
<path d="M94.6527 258.184C96.9174 249.965 93.1856 241.105 86.3175 238.394C79.4493 235.684 72.0456 240.15 69.7809 248.369C67.5161 256.589 71.2478 265.449 78.116 268.16C84.9842 270.87 92.3879 266.404 94.6527 258.184Z" fill="#FF9F59"/>
<path d="M79.0189 249.646C78.4874 251.335 76.907 252.19 75.496 251.554C74.0849 250.918 73.37 249.027 73.9015 247.338C74.433 245.65 76.0134 244.794 77.4244 245.43C78.8355 246.066 79.5504 247.957 79.0189 249.646Z" fill="#252525"/>
<path d="M91.3892 255.23C90.8577 256.919 89.2773 257.774 87.8662 257.138C86.4552 256.502 85.7402 254.611 86.2717 252.922C86.8032 251.234 88.3836 250.378 89.7947 251.014C91.2057 251.65 91.9207 253.541 91.3892 255.23Z" fill="#252525"/>
<path d="M80.5381 258.786C78.3133 257.784 76.8553 255.927 76.7612 255.808C76.3661 255.296 76.3943 254.497 76.8176 254.024C77.2457 253.551 77.9088 253.579 78.3039 254.092C78.3557 254.159 81.1731 257.672 84.5126 256.732C85.077 256.574 85.6461 256.99 85.7778 257.672C85.9095 258.347 85.5615 259.028 84.9923 259.186C83.3273 259.653 81.8034 259.36 80.5287 258.786H80.5381Z" fill="#252525"/>
<path d="M77.4432 241.626L77.4573 233.076L80.7263 236.571L83.2662 232.608L84.8136 236.515L87.5087 233.335L87.7768 242.166L77.4432 241.626Z" fill="#FF9F59"/>
<path d="M61.1444 119.04H63.2244V132.224H55.3844L61.1444 119.04ZM53.0804 119.04H56.8244L51.2564 132.224H49.0164V140.48H53.2084V136H65.4004L64.4724 140.48H68.6644L70.3924 132.224H67.4484V119.04L67.9604 115.264H53.0804V119.04ZM82.5811 118.368C86.5491 118.368 88.6931 121.632 88.6931 125.152C88.6931 129.28 86.3891 132.896 82.1651 132.896C78.1651 132.896 76.0211 129.536 76.0211 126.112C76.0211 121.984 78.3571 118.368 82.5811 118.368ZM71.7651 126.368C71.7651 131.68 75.3171 136.64 82.1651 136.64C88.8851 136.64 92.9491 131.296 92.9491 124.896C92.9491 119.584 89.3971 114.624 82.5811 114.624C75.8611 114.624 71.7651 120.128 71.7651 126.368ZM95.9066 136H120.163V114.848L115.939 115.264V132.224H110.403V115.264H106.179V132.224H100.643V115.264H96.4186V132.224L95.9066 136ZM124.52 136H128.744V126.048L137.512 136H142.888L133.576 125.312L141.128 116.736L137.672 114.688L128.744 125.216V115.264H124.52V136ZM145.402 136H149.626V115.264H145.402V136ZM156.084 119.04H159.636L157.204 126.784C156.628 128.576 155.156 130.816 152.148 133.792L155.348 136.64C159.06 133.056 160.468 130.464 161.268 127.712L163.764 119.04H166.388V136H170.612V119.04L171.124 115.264H156.084V119.04ZM182.084 125.536C185.156 125.536 186.596 126.56 186.596 128.416C186.596 130.72 184.772 132.224 180.708 132.224H179.204V125.536H182.084ZM180.708 136C187.396 136 190.852 132.736 190.852 128.16C190.852 124.32 188.004 121.792 182.084 121.792H179.204V115.264H174.98V132.224L174.468 136H180.708ZM194.081 136H198.305V127.04H207.393V136H211.617V114.848L207.393 115.264V123.296H198.305V115.264H194.081V136ZM225.34 119.04H226.908V124.48H223.964C220.892 124.48 219.804 123.488 219.804 121.888C219.804 120.32 221.276 119.04 225.34 119.04ZM215.484 122.144C215.484 124.608 216.988 126.56 219.676 127.488L214.3 134.784L218.044 136.576L223.836 128.224H226.908V136H231.132V119.04L231.644 115.264H225.34C218.62 115.264 215.484 118.336 215.484 122.144ZM233.647 119.04H239.695V136H243.951V119.04H249.455L250.191 115.264H233.647V119.04ZM252.666 136H256.89V126.048L265.658 136H271.034L261.722 125.312L269.274 116.736L265.818 114.688L256.89 125.216V115.264H252.666V136ZM283.469 118.368C287.437 118.368 289.581 121.632 289.581 125.152C289.581 129.28 287.277 132.896 283.053 132.896C279.053 132.896 276.909 129.536 276.909 126.112C276.909 121.984 279.245 118.368 283.469 118.368ZM272.653 126.368C272.653 131.68 276.205 136.64 283.053 136.64C289.773 136.64 293.837 131.296 293.837 124.896C293.837 119.584 290.285 114.624 283.469 114.624C276.749 114.624 272.653 120.128 272.653 126.368ZM53.544 147.204C54.402 147.204 55.205 147.765 55.205 148.942C55.205 150.262 54.215 151.263 52.477 151.274V147.523C52.763 147.347 53.17 147.204 53.544 147.204ZM51.586 153.595H52.477V152.121C54.545 152.11 56.096 150.746 56.096 148.942C56.096 147.358 55.106 146.379 53.621 146.379C53.159 146.379 52.653 146.533 52.279 146.753L51.751 146.445H51.586V153.595ZM60.1271 147.215C61.2381 147.215 61.7771 148.139 61.7771 149.14C61.7771 150.449 61.2051 151.285 60.0171 151.285C58.9061 151.285 58.3671 150.361 58.3671 149.36C58.3671 148.051 58.9391 147.215 60.1271 147.215ZM57.4761 149.448C57.4761 150.823 58.3451 152.121 60.0171 152.121C61.7111 152.121 62.6681 150.746 62.6681 149.052C62.6681 147.677 61.7991 146.379 60.1271 146.379C58.4331 146.379 57.4761 147.754 57.4761 149.448ZM64.7884 149.558H65.8994C66.4054 149.558 66.8454 149.789 66.8454 150.273C66.8454 150.79 66.3064 151.252 65.3934 151.252C64.7884 151.252 64.4144 151.164 64.0404 151.076V151.945C64.4474 152.055 64.8434 152.121 65.3714 152.121C66.7684 152.121 67.7364 151.318 67.7364 150.163C67.7364 149.558 67.3514 149.217 66.8454 149.052C67.1314 148.81 67.4064 148.425 67.4064 147.886C67.4064 146.995 66.8234 146.379 65.4594 146.379C64.6674 146.379 64.1504 146.588 64.1504 146.588V147.468C64.1614 147.468 64.7224 147.248 65.3494 147.248C66.2404 147.248 66.5154 147.556 66.5154 147.996C66.5154 148.414 66.2404 148.722 66.1084 148.788H64.8984L64.7884 149.558ZM71.2676 147.281C72.0486 147.281 72.4336 147.512 72.4336 147.996C72.4336 148.359 72.2466 148.634 72.0486 148.788H70.3546V147.281H71.2676ZM71.8506 149.558C72.3566 149.558 72.7966 149.789 72.7966 150.273C72.7966 150.834 72.2026 151.219 71.2346 151.219H70.3546V149.558H71.8506ZM69.4636 152H71.2126C72.6096 152 73.6876 151.373 73.6876 150.163C73.6876 149.558 73.2916 149.217 72.8076 149.052C73.0936 148.81 73.3246 148.414 73.3246 147.886C73.3246 147.061 72.5216 146.5 71.2676 146.5H69.3536L69.4636 147.281V152ZM75.4156 151.89L76.3066 152.11L79.2766 147.743L79.2216 148.546V152H80.1126V147.05L80.1896 146.5H79.2216L76.2406 150.922L76.3066 149.976V146.5H75.4156V151.89ZM83.9988 147.281C84.7798 147.281 85.1648 147.512 85.1648 147.996C85.1648 148.359 84.9778 148.634 84.7798 148.788H83.0858V147.281H83.9988ZM84.5818 149.558C85.0878 149.558 85.5278 149.789 85.5278 150.273C85.5278 150.834 84.9338 151.219 83.9658 151.219H83.0858V149.558H84.5818ZM82.1948 152H83.9438C85.3408 152 86.4188 151.373 86.4188 150.163C86.4188 149.558 86.0228 149.217 85.5388 149.052C85.8248 148.81 86.0558 148.414 86.0558 147.886C86.0558 147.061 85.2528 146.5 83.9988 146.5H82.0848L82.1948 147.281V152ZM88.6858 150.504C88.6858 149.701 89.8298 149.371 90.8308 149.272V150.878C90.5778 151.076 90.1048 151.307 89.5988 151.307C89.0048 151.307 88.6858 150.988 88.6858 150.504ZM88.4658 147.413C88.4658 147.413 88.9938 147.248 89.5658 147.248C90.3248 147.248 90.8198 147.666 90.8308 148.557C89.2688 148.667 87.7948 149.228 87.7948 150.614C87.7948 151.549 88.3998 152.121 89.4118 152.121C89.9838 152.121 90.5118 151.912 90.8528 151.67L91.6118 152.055H91.7218V148.59C91.7218 147.138 91.0618 146.379 89.6758 146.379C89.0488 146.379 88.4768 146.533 88.4768 146.533L88.4658 147.413ZM98.3209 147.215C99.2779 147.215 99.7509 148.139 99.7509 149.14C99.7509 150.449 99.2119 151.285 98.1009 151.285C97.0669 151.285 96.5609 150.361 96.5609 149.36C96.5609 148.051 97.1329 147.215 98.3209 147.215ZM98.1009 152.121C99.7289 152.121 100.642 150.746 100.642 149.052C100.642 147.677 99.8389 146.379 98.3209 146.379C96.8579 146.379 95.9449 147.402 95.7249 148.766H94.6139V146.5H93.7229V152H94.6139V149.547H95.6699C95.7029 150.889 96.5389 152.121 98.1009 152.121ZM105.33 152H106.221V146.39L105.33 146.5V148.777C105.044 148.953 104.45 149.096 104.076 149.096C103.229 149.096 102.91 148.711 102.91 147.798V146.5H102.019V147.941C102.019 149.052 102.459 149.921 104.01 149.921C104.373 149.921 104.912 149.8 105.33 149.646V152ZM108.841 150.504C108.841 149.701 109.985 149.371 110.986 149.272V150.878C110.733 151.076 110.26 151.307 109.754 151.307C109.16 151.307 108.841 150.988 108.841 150.504ZM108.621 147.413C108.621 147.413 109.149 147.248 109.721 147.248C110.48 147.248 110.975 147.666 110.986 148.557C109.424 148.667 107.95 149.228 107.95 150.614C107.95 151.549 108.555 152.121 109.567 152.121C110.139 152.121 110.667 151.912 111.008 151.67L111.767 152.055H111.877V148.59C111.877 147.138 111.217 146.379 109.831 146.379C109.204 146.379 108.632 146.533 108.632 146.533L108.621 147.413ZM117.671 152H118.562V147.281H121.037V152H121.928V146.39L121.037 146.5H117.671V152ZM124.35 147.314L125.417 147.303L124.867 149.019C124.603 149.844 123.987 150.9 123.239 151.494L123.822 152.165C124.757 151.362 125.318 150.306 125.659 149.261L126.286 147.303L127.188 147.292V152H128.079V146.39L127.188 146.5H124.35V147.314ZM130.694 150.504C130.694 149.701 131.838 149.371 132.839 149.272V150.878C132.586 151.076 132.113 151.307 131.607 151.307C131.013 151.307 130.694 150.988 130.694 150.504ZM130.474 147.413C130.474 147.413 131.002 147.248 131.574 147.248C132.333 147.248 132.828 147.666 132.839 148.557C131.277 148.667 129.803 149.228 129.803 150.614C129.803 151.549 130.408 152.121 131.42 152.121C131.992 152.121 132.52 151.912 132.861 151.67L133.62 152.055H133.73V148.59C133.73 147.138 133.07 146.379 131.684 146.379C131.057 146.379 130.485 146.533 130.485 146.533L130.474 147.413ZM135.071 147.281H136.908V152H137.799V147.281H139.515L139.647 146.5H135.071V147.281ZM146.095 149.107C146.095 150.163 145.391 150.977 144.126 151.208V147.204C145.138 147.215 146.095 147.864 146.095 149.107ZM141.266 149.283C141.266 148.293 141.97 147.512 143.235 147.292V151.296C142.212 151.285 141.266 150.592 141.266 149.283ZM143.235 153.595H144.126V152.055C145.798 151.78 146.986 150.625 146.986 149.107C146.986 147.457 145.864 146.379 144.181 146.379H144.126V144.74L143.235 144.872V146.445C141.552 146.709 140.375 147.831 140.375 149.283C140.375 150.999 141.497 152.121 143.18 152.121H143.235V153.595ZM151.008 147.215C152.119 147.215 152.658 148.139 152.658 149.14C152.658 150.449 152.086 151.285 150.898 151.285C149.787 151.285 149.248 150.361 149.248 149.36C149.248 148.051 149.82 147.215 151.008 147.215ZM148.357 149.448C148.357 150.823 149.226 152.121 150.898 152.121C152.592 152.121 153.549 150.746 153.549 149.052C153.549 147.677 152.68 146.379 151.008 146.379C149.314 146.379 148.357 147.754 148.357 149.448ZM157.231 147.204C158.089 147.204 158.892 147.765 158.892 148.942C158.892 150.262 157.902 151.263 156.164 151.274V147.523C156.45 147.347 156.857 147.204 157.231 147.204ZM155.273 153.595H156.164V152.121C158.232 152.11 159.783 150.746 159.783 148.942C159.783 147.358 158.793 146.379 157.308 146.379C156.846 146.379 156.34 146.533 155.966 146.753L155.438 146.445H155.273V153.595ZM161.307 152H162.165L162.528 148.15L164.442 151.582L166.642 147.776V148.546L166.752 152H167.643L167.423 146.39L166.532 146.5L164.453 149.998L162.572 146.5H161.373L161.868 147.38L161.307 152ZM170.23 150.504C170.23 149.701 171.374 149.371 172.375 149.272V150.878C172.122 151.076 171.649 151.307 171.143 151.307C170.549 151.307 170.23 150.988 170.23 150.504ZM170.01 147.413C170.01 147.413 170.538 147.248 171.11 147.248C171.869 147.248 172.364 147.666 172.375 148.557C170.813 148.667 169.339 149.228 169.339 150.614C169.339 151.549 169.944 152.121 170.956 152.121C171.528 152.121 172.056 151.912 172.397 151.67L173.156 152.055H173.266V148.59C173.266 147.138 172.606 146.379 171.22 146.379C170.593 146.379 170.021 146.533 170.021 146.533L170.01 147.413ZM180.908 148.623L181.282 147.325H182.382V151.219H179.775C180.281 150.405 180.633 149.569 180.908 148.623ZM179.324 152H183.174L182.822 153.43H183.713L184.263 151.219H183.273V146.39L182.382 146.5H179.423V147.325H180.402L180.105 148.458C179.841 149.437 179.346 150.493 178.862 151.219H178.444V153.386H179.324V152ZM186.159 147.314L187.226 147.303L186.676 149.019C186.412 149.844 185.796 150.9 185.048 151.494L185.631 152.165C186.566 151.362 187.127 150.306 187.468 149.261L188.095 147.303L188.997 147.292V152H189.888V146.39L188.997 146.5H186.159V147.314ZM193.019 148.425C193.019 147.699 193.756 147.281 195.131 147.281H195.241V149.349H194.075C193.547 149.349 193.019 149.03 193.019 148.425ZM191.688 151.615L192.403 152.143L193.976 150.097H195.241V152H196.132V147.281L196.242 146.5H195.109C193.195 146.5 192.095 147.325 192.095 148.546C192.095 149.195 192.59 149.679 193.085 149.899L191.688 151.615ZM203.857 148.623L204.231 147.325H205.331V151.219H202.724C203.23 150.405 203.582 149.569 203.857 148.623ZM202.273 152H206.123L205.771 153.43H206.662L207.212 151.219H206.222V146.39L205.331 146.5H202.372V147.325H203.351L203.054 148.458C202.79 149.437 202.295 150.493 201.811 151.219H201.393V153.386H202.273V152ZM208.659 151.89L209.55 152.11L212.52 147.743L212.465 148.546V152H213.356V147.05L213.433 146.5H212.465L209.484 150.922L209.55 149.976V146.5H208.659V151.89ZM214.778 147.281H216.615V152H217.506V147.281H219.222L219.354 146.5H214.778V147.281ZM221.641 148.425C221.641 147.699 222.378 147.281 223.753 147.281H223.863V149.349H222.697C222.169 149.349 221.641 149.03 221.641 148.425ZM220.31 151.615L221.025 152.143L222.598 150.097H223.863V152H224.754V147.281L224.864 146.5H223.731C221.817 146.5 220.717 147.325 220.717 148.546C220.717 149.195 221.212 149.679 221.707 149.899L220.31 151.615ZM229.796 152H230.687V146.39L229.796 146.5V148.777C229.51 148.953 228.916 149.096 228.542 149.096C227.695 149.096 227.376 148.711 227.376 147.798V146.5H226.485V147.941C226.485 149.052 226.925 149.921 228.476 149.921C228.839 149.921 229.378 149.8 229.796 149.646V152ZM232.768 151.89L233.659 152.11L236.629 147.743L236.574 148.546V152H237.465V147.05L237.542 146.5H236.574L233.593 150.922L233.659 149.976V146.5H232.768V151.89ZM238.942 151.549L239.613 152.132L241.549 149.866L243.045 152H244.123L242.187 149.25L244.123 146.94L243.507 146.357L241.703 148.568L240.251 146.5H239.195L241.054 149.162L238.942 151.549ZM250.035 149.47C250.035 148.139 251.201 147.237 252.829 147.237V146.379C250.618 146.379 249.144 147.765 249.144 149.47C249.144 150.922 250.112 152.121 251.85 152.121C252.279 152.121 252.642 152.055 252.829 151.978V151.153C252.565 151.241 252.334 151.274 251.96 151.274C250.596 151.274 250.035 150.383 250.035 149.47ZM255.042 150.504C255.042 149.701 256.186 149.371 257.187 149.272V150.878C256.934 151.076 256.461 151.307 255.955 151.307C255.361 151.307 255.042 150.988 255.042 150.504ZM254.822 147.413C254.822 147.413 255.35 147.248 255.922 147.248C256.681 147.248 257.176 147.666 257.187 148.557C255.625 148.667 254.151 149.228 254.151 150.614C254.151 151.549 254.756 152.121 255.768 152.121C256.34 152.121 256.868 151.912 257.209 151.67L257.968 152.055H258.078V148.59C258.078 147.138 257.418 146.379 256.032 146.379C255.405 146.379 254.833 146.533 254.833 146.533L254.822 147.413ZM261.927 148.623L262.301 147.325H263.401V151.219H260.794C261.3 150.405 261.652 149.569 261.927 148.623ZM260.343 152H264.193L263.841 153.43H264.732L265.282 151.219H264.292V146.39L263.401 146.5H260.442V147.325H261.421L261.124 148.458C260.86 149.437 260.365 150.493 259.881 151.219H259.463V153.386H260.343V152ZM269.028 147.215C270.139 147.215 270.678 148.139 270.678 149.14C270.678 150.449 270.106 151.285 268.918 151.285C267.807 151.285 267.268 150.361 267.268 149.36C267.268 148.051 267.84 147.215 269.028 147.215ZM266.377 149.448C266.377 150.823 267.246 152.121 268.918 152.121C270.612 152.121 271.569 150.746 271.569 149.052C271.569 147.677 270.7 146.379 269.028 146.379C267.334 146.379 266.377 147.754 266.377 149.448ZM276.253 152H277.144V146.39L276.253 146.5V148.777C275.967 148.953 275.373 149.096 274.999 149.096C274.152 149.096 273.833 148.711 273.833 147.798V146.5H272.942V147.941C272.942 149.052 273.382 149.921 274.933 149.921C275.296 149.921 275.835 149.8 276.253 149.646V152ZM279.224 152H280.115V146.5H279.224V152ZM282.733 152H283.833L281.391 149.184L283.459 146.962L282.854 146.39L280.291 149.261L282.733 152ZM285.452 145.631L286.321 145.521L286.574 144.399L285.606 144.3L285.452 145.631ZM284.594 147.281H285.397V152H286.288V146.39L284.594 146.61V147.281ZM290.171 147.281C290.952 147.281 291.337 147.512 291.337 147.996C291.337 148.359 291.15 148.634 290.952 148.788H289.258V147.281H290.171ZM290.754 149.558C291.26 149.558 291.7 149.789 291.7 150.273C291.7 150.834 291.106 151.219 290.138 151.219H289.258V149.558H290.754ZM288.367 152H290.116C291.513 152 292.591 151.373 292.591 150.163C292.591 149.558 292.195 149.217 291.711 149.052C291.997 148.81 292.228 148.414 292.228 147.886C292.228 147.061 291.425 146.5 290.171 146.5H288.257L288.367 147.281V152Z" fill="#252525"/>
</g>
<defs>
<clipPath id="clip0_286_73">
<rect width="353" height="267" rx="50" fill="white"/>
</clipPath>
</defs>
</svg>
