<svg width="100" height="99" viewBox="0 0 100 99" fill="none" xmlns="http://www.w3.org/2000/svg">
<path d="M49.9997 0C40.2754 0 30.7696 2.88358 22.6842 8.28608C14.5987 13.6886 8.29693 21.3674 4.57562 30.3514C0.854311 39.3354 -0.119353 49.2212 1.77775 58.7586C3.67486 68.296 8.35753 77.0567 15.2336 83.9327C22.1097 90.8088 30.8704 95.4915 40.4078 97.3886C49.9452 99.2857 59.8309 98.3121 68.815 94.5907C77.799 90.8694 85.4778 84.5676 90.8803 76.4822C96.2828 68.3968 99.1664 58.8909 99.1664 49.1667C99.1664 42.71 97.8946 36.3166 95.4238 30.3514C92.9529 24.3862 89.3313 18.9661 84.7658 14.4006C80.2002 9.83504 74.7801 6.21345 68.815 3.74259C62.8498 1.27173 56.4564 0 49.9997 0Z" fill="#E55046"/>
<path d="M28.9467 73.0533C30.2507 74.3572 32.3647 74.3572 33.6686 73.0533L49.5 57.2219L65.3313 73.0533C66.6353 74.3572 68.7493 74.3572 70.0533 73.0533C71.3572 71.7493 71.3572 69.6353 70.0533 68.3313L54.2219 52.5L70.0533 36.6686C71.3572 35.3647 71.3572 33.2507 70.0533 31.9467C68.7493 30.6428 66.6353 30.6428 65.3313 31.9467L49.5 47.7781L33.6686 31.9467C32.3647 30.6428 30.2507 30.6428 28.9467 31.9467C27.6428 33.2507 27.6428 35.3647 28.9467 36.6686L44.7781 52.5L28.9467 68.3313C27.6428 69.6353 27.6428 71.7493 28.9467 73.0533Z" fill="white" stroke="white" stroke-width="2"/>
</svg>
