<svg width="350" height="350" viewBox="0 0 971 864" fill="none" xmlns="http://www.w3.org/2000/svg">
<g clip-path="url(#clip0_650_833)">
<path d="M710.279 0H260.723V858.43H710.279V0Z" fill="#7F573C"/>
<path d="M670.682 36.0703H300.316V858.431H670.682V36.0703Z" fill="#C58D63"/>
<path d="M342.725 341.555C342.779 347.828 343.05 354.804 346.403 359.292C349.974 363.997 355.599 364.213 360.63 364.051C390.542 363.294 421.807 366.052 451.558 362.267C455.777 361.726 460.483 360.806 462.971 356.318C464.648 353.29 464.918 349.288 465.081 345.502C466.866 301.97 465.622 137.519 464.972 98.9621C464.918 96.7989 464.864 94.5277 463.945 92.7431C462.538 90.0392 459.726 89.5525 457.237 89.2281C434.681 86.6323 412.612 87.822 389.731 88.471C377.831 88.8495 353.544 83.0091 343.969 94.9062C340.616 99.0702 339.858 105.56 339.642 111.562C338.398 145.739 342.184 300.726 342.725 341.555Z" fill="#BB7B56"/>
<path d="M509.543 341.555C509.597 347.828 509.867 354.804 513.221 359.292C516.737 363.997 522.417 364.213 527.447 364.051C557.36 363.294 588.625 366.052 618.375 362.267C622.594 361.726 627.301 360.806 629.789 356.318C631.466 353.29 631.736 349.288 631.898 345.502C633.683 301.97 632.439 137.519 631.79 98.9621C631.736 96.7989 631.682 94.5277 630.762 92.7431C629.356 90.0392 626.543 89.5525 624.055 89.2281C601.499 86.6323 579.429 87.822 556.549 88.471C544.648 88.8495 520.361 83.0091 510.787 94.9062C507.433 99.0702 506.676 105.56 506.46 111.562C505.216 145.739 509.056 300.726 509.543 341.555Z" fill="#BB7B56"/>
<path d="M600.472 474.533C600.526 476.858 600.58 479.454 601.662 481.13C602.798 482.861 604.691 482.969 606.314 482.915C616.105 482.644 626.382 483.672 636.173 482.266C637.525 482.049 639.094 481.725 639.905 480.049C640.446 478.913 640.554 477.399 640.608 476.047C641.203 459.823 640.77 398.607 640.608 384.223C640.608 383.412 640.554 382.546 640.284 381.897C639.797 380.87 638.877 380.708 638.066 380.6C630.655 379.626 623.407 380.059 615.888 380.329C611.994 380.437 603.988 378.274 600.851 382.709C599.769 384.277 599.498 386.656 599.444 388.928C599.066 401.636 600.31 459.337 600.472 474.533Z" fill="#BBBDC6"/>
<path d="M342.725 760.982C342.779 767.255 343.05 774.231 346.403 778.72C349.974 783.424 355.599 783.641 360.63 783.479C390.542 782.721 421.807 785.479 451.558 781.694C455.777 781.153 460.483 780.234 462.971 775.745C464.648 772.717 464.918 768.715 465.081 764.93C466.866 721.397 465.622 556.947 464.972 518.389C464.918 516.226 464.864 513.955 463.945 512.17C462.538 509.467 459.726 508.98 457.237 508.655C434.681 506.06 412.612 507.249 389.731 507.952C377.831 508.331 353.544 502.491 343.969 514.388C340.616 518.552 339.858 525.041 339.642 531.044C338.398 565.167 342.184 720.153 342.725 760.982Z" fill="#BB7B56"/>
<path d="M509.543 760.982C509.597 767.255 509.867 774.231 513.221 778.72C516.737 783.424 522.417 783.641 527.447 783.479C557.36 782.721 588.625 785.479 618.375 781.694C622.594 781.153 627.301 780.234 629.789 775.745C631.466 772.717 631.736 768.715 631.898 764.93C633.683 721.397 632.439 556.947 631.79 518.389C631.736 516.226 631.682 513.955 630.762 512.17C629.356 509.467 626.543 508.98 624.055 508.655C601.499 506.06 579.429 507.249 556.549 507.952C544.648 508.331 520.361 502.491 510.787 514.388C507.433 518.552 506.676 525.041 506.46 531.044C505.216 565.167 509.056 720.153 509.543 760.982Z" fill="#BB7B56"/>
<path d="M621.08 439.868H551.248C549.084 439.868 547.299 438.083 547.299 435.92V426.997C547.299 424.834 549.084 423.05 551.248 423.05H621.08C623.244 423.05 625.029 424.834 625.029 426.997V435.92C625.029 438.083 623.244 439.868 621.08 439.868Z" fill="#D4D6DF"/>
<path d="M737.107 623.462C736.837 621.407 736.728 619.244 736.891 617.027C737.107 613.728 737.54 610.43 739.108 607.509C741.056 603.886 745.762 600.533 749.873 602.696C752.902 604.319 753.551 608.807 755.985 611.133C756.364 611.511 756.796 611.89 757.337 611.836C758.527 611.782 758.744 610.105 758.473 608.915C757.662 604.86 756.255 600.966 754.416 597.289C750.738 590.15 750.089 583.715 748.683 575.82C746.465 563.544 745.708 550.998 746.411 538.56C746.681 533.693 747.33 528.502 750.63 524.933C748.791 526.934 758.744 537.316 760.204 538.398C758.257 533.044 756.905 527.42 755.336 521.958C754.957 520.661 754.579 519.363 754.633 518.011C754.687 516.929 755.011 515.848 755.336 514.766C760.096 500.544 770.265 490.323 779.677 478.967C781.625 476.587 784.005 474.045 787.088 473.937C790.55 473.829 793.2 476.912 795.256 479.67C797.149 482.211 799.042 484.753 800.935 487.295C803.045 490.107 805.209 493.135 805.371 496.65C805.587 501.301 803.207 506.06 803.153 510.71C806.182 507.898 808.941 504.762 811.808 501.787C812.998 500.544 818.623 513.576 818.84 514.712C822.247 530.935 819.164 548.727 813.106 563.977C816.027 561.651 818.948 559.272 821.923 556.947C821.166 557.542 822.085 570.953 821.869 572.9C821.22 577.604 820.408 582.417 819.381 587.014C817.109 597.343 812.565 607.131 806.074 615.459C803.964 618.163 801.638 620.758 800.286 623.949C800.016 624.598 799.799 625.463 800.286 626.004C800.557 626.328 801.043 626.437 801.476 626.491C805.587 626.923 808.616 622.976 811.213 619.785C814.35 616 821.977 607.996 821.652 618.217C820.787 643.417 817.109 668.563 810.618 692.898C807.156 706.039 800.124 728.643 782.598 723.398C771.455 720.045 767.669 706.85 763.882 697.17C756.039 677.216 746.032 657.261 740.298 636.657C738.946 632.169 737.648 627.951 737.107 623.462Z" fill="#96BA62"/>
<path d="M786.872 719.072H786.709C785.952 718.964 785.465 718.315 785.519 717.558C789.576 683.921 787.088 649.474 784.654 616.108C783.248 596.802 781.787 576.848 781.625 557.217C781.408 532.233 783.248 506.979 785.033 482.482C785.087 481.725 785.736 481.184 786.493 481.238C787.25 481.292 787.791 481.941 787.737 482.644C785.952 507.087 784.113 532.342 784.329 557.163C784.492 576.739 785.952 596.64 787.359 615.892C789.793 649.366 792.335 683.976 788.224 717.828C788.116 718.585 787.575 719.072 786.872 719.072Z" fill="#87B15E"/>
<path d="M782.869 530.124C782.437 530.124 782.004 529.908 781.733 529.475C776.973 521.904 773.836 513.198 772.592 504.329C772.484 503.572 773.025 502.923 773.728 502.815C774.485 502.706 775.134 503.247 775.242 503.95C776.432 512.44 779.462 520.768 784.005 528.015C784.384 528.664 784.222 529.475 783.573 529.853L782.869 530.124Z" fill="#87B15E"/>
<path d="M783.626 565.059C783.301 565.059 783.031 564.951 782.76 564.734C782.165 564.248 782.111 563.382 782.598 562.842C792.01 551.647 798.826 538.182 802.287 523.96C802.45 523.257 803.207 522.824 803.91 522.986C804.613 523.148 805.046 523.906 804.884 524.609C801.368 539.264 794.336 553.053 784.654 564.572C784.383 564.896 784.004 565.059 783.626 565.059Z" fill="#87B15E"/>
<path d="M783.248 592.043C782.923 592.043 782.599 591.935 782.328 591.664C769.508 579.551 759.339 564.463 752.956 548.024C752.686 547.321 753.01 546.564 753.714 546.293C754.417 546.023 755.174 546.347 755.444 547.05C761.665 563.111 771.564 577.875 784.113 589.718C784.654 590.204 784.708 591.069 784.167 591.61C783.951 591.935 783.626 592.043 783.248 592.043Z" fill="#87B15E"/>
<path d="M787.63 620.542C787.305 620.542 786.981 620.434 786.764 620.218C786.223 619.731 786.169 618.866 786.656 618.325C798.881 604.427 808.293 588.582 814.675 571.169C814.946 570.466 815.703 570.142 816.406 570.358C817.11 570.629 817.488 571.386 817.218 572.089C810.727 589.772 801.098 605.887 788.711 620.056C788.387 620.38 788.008 620.542 787.63 620.542Z" fill="#87B15E"/>
<path d="M790.009 666.616C789.684 666.616 789.414 666.508 789.143 666.292C788.548 665.805 788.494 664.994 788.981 664.399C796.608 655.206 803.423 645.256 809.211 634.819C809.59 634.17 810.401 633.954 811.05 634.278C811.699 634.657 811.916 635.468 811.591 636.117C805.749 646.716 798.826 656.828 791.091 666.13C790.766 666.454 790.387 666.616 790.009 666.616Z" fill="#87B15E"/>
<path d="M787.737 688.139C787.359 688.139 786.98 687.977 786.71 687.652C772.159 669.915 760.313 650.176 751.55 628.978C751.28 628.275 751.604 627.518 752.307 627.247C753.01 626.977 753.768 627.301 754.038 628.004C762.693 648.986 774.377 668.509 788.765 686.03C789.252 686.625 789.144 687.436 788.603 687.922C788.386 688.085 788.062 688.139 787.737 688.139Z" fill="#87B15E"/>
<path d="M960.83 609.943C954.177 606.644 947.361 604.481 939.356 603.507C938.49 603.399 937.571 603.291 936.705 603.561C935.569 603.886 934.65 604.697 933.784 605.508C928.916 609.997 924.102 614.431 919.233 618.919C918.909 619.19 918.53 619.514 918.098 619.46C917.286 619.298 917.394 618.108 917.719 617.351C920.315 611.511 925.724 607.834 928.862 602.372C929.457 601.29 921.884 602.318 921.235 602.426C918.043 602.967 914.852 603.399 911.661 604.156C907.55 605.13 902.844 606.103 898.949 607.509C895.055 608.915 893.702 613.349 892.025 617.027C887.86 626.112 884.723 635.792 878.665 643.849C878.07 644.606 877.15 645.418 876.339 644.985C875.744 644.66 875.636 643.903 875.527 643.254C874.932 636.387 876.068 629.411 878.827 623.138C879.206 622.326 879.584 621.461 879.53 620.542C879.26 616.324 872.552 622.597 871.308 623.57C867.143 626.598 863.14 629.843 859.3 633.304C847.508 643.795 836.419 655.422 827.602 668.509C821.814 677.107 816.243 686.192 814.133 696.413C813.484 699.549 811.429 703.767 811.753 706.958C812.24 711.446 816.892 715.232 820.354 717.557C825.493 721.018 831.659 723.668 837.825 722.911C846.642 721.829 852.268 715.232 859.083 710.473C866.007 705.66 873.905 702.145 882.181 700.306C889.699 698.63 897.813 698.251 904.791 694.574C907.928 692.952 911.823 690.41 907.171 688.085C903.385 686.192 899.111 686.084 895.325 683.705C900.301 682.299 905.602 682.299 910.687 681.217C920.261 679.216 925.454 673.322 932.594 667.535C940.87 660.884 948.443 653.421 955.15 645.255C955.908 644.336 956.719 643.2 956.503 642.065C953.203 642.66 949.741 642.551 946.496 641.686C950.066 642.605 956.773 635.197 959.261 633.196C964.076 629.302 968.89 624.598 970.783 618.541C970.999 617.784 971.162 616.919 970.837 616.216C970.512 615.567 969.863 615.134 969.268 614.755C966.401 612.863 963.643 611.294 960.83 609.943Z" fill="#96BA62"/>
<path d="M831.011 709.77L830.47 709.608C830.091 709.283 829.983 708.743 830.307 708.364C861.626 667.481 906.306 635.413 959.641 615.621C960.127 615.458 960.614 615.675 960.777 616.161C960.939 616.648 960.722 617.135 960.236 617.297C907.226 636.927 862.816 668.779 831.714 709.446C831.551 709.662 831.281 709.77 831.011 709.77Z" fill="#87B15E"/>
<path d="M896.136 648.555H895.974C895.487 648.446 895.163 648.014 895.217 647.527C897.813 631.844 904.953 618.379 909.01 611.728C909.281 611.295 909.822 611.187 910.254 611.403C910.687 611.673 910.795 612.214 910.579 612.647C906.576 619.19 899.544 632.439 897.002 647.797C896.894 648.23 896.515 648.555 896.136 648.555Z" fill="#87B15E"/>
<path d="M896.407 662.29C892.025 662.29 887.644 661.912 883.37 660.992C882.884 660.884 882.559 660.398 882.667 659.911C882.776 659.424 883.262 659.1 883.749 659.208C900.193 662.615 917.394 658.289 932.594 654.503C933.081 654.395 933.568 654.665 933.676 655.152C933.784 655.639 933.514 656.125 933.027 656.234C921.559 659.154 909.01 662.29 896.407 662.29Z" fill="#87B15E"/>
<path d="M855.569 680.514H855.461C854.974 680.46 854.596 680.028 854.65 679.541C856.056 664.778 859.788 650.447 865.738 636.928C865.955 636.495 866.496 636.279 866.928 636.495C867.361 636.711 867.578 637.198 867.415 637.685C861.519 651.042 857.841 665.21 856.435 679.757C856.435 680.19 856.056 680.514 855.569 680.514Z" fill="#87B15E"/>
<path d="M843.615 695.277C843.182 695.277 842.803 695.007 842.749 694.574C842.641 694.087 842.966 693.601 843.453 693.547C861.032 690.14 879.045 688.247 897.003 687.977C897.49 687.977 897.869 688.355 897.869 688.842C897.869 689.329 897.49 689.761 897.003 689.761C879.153 690.032 861.303 691.87 843.777 695.277H843.615Z" fill="#87B15E"/>
<path d="M768.534 678.946C768.155 675.431 767.723 671.916 767.182 668.401C764.856 652.34 763.882 632.115 748.574 622.489C749.872 627.572 754.308 641.308 751.171 645.689C747.925 642.66 747.979 636.549 746.789 632.494C745.653 628.546 744.463 624.544 742.895 620.705C737.161 606.536 726.721 595.288 714.767 585.987C709.574 581.931 702.272 574.901 695.889 573.116C693.996 572.575 690.426 572.143 690.696 575.009C690.912 577.172 693.401 579.768 694.969 581.066C695.348 581.39 695.781 581.715 696.051 582.147C696.322 582.58 696.43 583.175 696.159 583.607C693.238 582.688 691.453 581.12 689.236 579.227C686.964 577.28 683.34 576.199 680.527 575.387C674.415 573.549 667.923 573.17 661.595 573.819C653.86 574.576 645.313 577.064 638.281 580.471C635.252 581.931 631.682 583.607 629.951 586.636C628.977 588.258 628.869 590.313 629.14 592.152C629.572 595.288 630.925 598.262 632.385 601.074C635.631 607.564 639.634 613.512 643.69 619.461C647.639 625.301 653.751 629.736 659.377 633.846C665.814 638.604 674.577 644.823 682.853 645.202C683.448 645.256 684.097 645.256 684.476 645.689C684.908 646.175 684.8 646.986 684.367 647.473C683.935 647.96 683.286 648.23 682.691 648.446C680.094 649.366 677.335 649.907 674.577 650.177C674.252 650.231 673.928 650.231 673.711 650.393C672.9 650.988 673.603 652.232 674.306 652.935C687.883 665.805 705.788 672.781 719.148 686.031C714.605 684.57 710.061 683.056 705.517 681.596C709.845 688.031 714.226 694.467 718.553 700.848C725.91 711.663 728.614 723.831 732.942 736.052C734.997 741.893 737.918 748.544 743.976 750.167C749.818 751.735 760.745 748.598 765.072 744.056C768.913 740 769.237 732.754 769.94 727.508C772.32 711.501 770.265 694.953 768.534 678.946Z" fill="#AFC661"/>
<path d="M756.958 746.651C756.417 746.651 756.039 746.218 756.039 745.732C756.904 714.583 745.816 688.896 733.699 665.751C723.313 645.904 711.035 629.789 697.133 617.784C680.743 603.669 662.027 595.071 642.987 592.908C642.5 592.854 642.176 592.421 642.176 591.934C642.23 591.448 642.663 591.069 643.149 591.123C662.514 593.286 681.609 602.047 698.269 616.432C712.333 628.599 724.774 644.877 735.268 664.885C747.492 688.247 758.635 714.15 757.77 745.732C757.824 746.272 757.445 746.651 756.958 746.651Z" fill="#96BA62"/>
<path d="M683.286 607.401C682.907 607.401 682.529 607.131 682.42 606.752C679.554 595.612 671.548 588.853 664.083 583.715C663.705 583.445 663.597 582.85 663.867 582.471C664.138 582.039 664.732 581.985 665.111 582.255C672.846 587.555 681.176 594.585 684.206 606.32C684.314 606.806 684.043 607.293 683.556 607.401H683.286Z" fill="#96BA62"/>
<path d="M686.965 625.031C679.933 625.031 673.063 624.382 667.33 623.841C666.031 623.733 664.733 623.57 663.543 623.516C663.056 623.462 662.678 623.03 662.732 622.543C662.786 622.056 663.273 621.678 663.705 621.732C664.895 621.84 666.194 621.948 667.492 622.11C677.553 623.084 691.292 624.382 702.76 621.786C703.246 621.678 703.733 622.002 703.841 622.435C703.95 622.921 703.625 623.408 703.192 623.516C698 624.652 692.428 625.031 686.965 625.031Z" fill="#96BA62"/>
<path d="M723.855 648.121C723.369 648.121 722.99 647.743 722.99 647.202C722.99 628.87 716.012 608.861 703.301 590.853C703.03 590.42 703.138 589.88 703.517 589.609C703.896 589.339 704.491 589.447 704.761 589.825C717.635 608.104 724.775 628.491 724.775 647.202C724.775 647.743 724.342 648.121 723.855 648.121Z" fill="#96BA62"/>
<path d="M735.646 667.427C721.691 667.265 707.519 664.236 694.699 658.72C694.266 658.504 694.05 658.018 694.212 657.531C694.428 657.098 694.915 656.882 695.402 657.044C708.005 662.452 721.961 665.426 735.646 665.588C736.133 665.588 736.512 666.021 736.512 666.508C736.566 666.994 736.133 667.427 735.646 667.427Z" fill="#96BA62"/>
<path d="M750.415 703.389L750.198 703.335C749.711 703.227 749.441 702.741 749.549 702.254C753.065 688.14 755.445 671.7 756.094 657.153C756.094 656.666 756.419 656.234 757.014 656.288C757.501 656.288 757.879 656.72 757.879 657.207C757.23 671.862 754.85 688.41 751.28 702.632C751.172 703.119 750.793 703.389 750.415 703.389Z" fill="#96BA62"/>
<path d="M754.957 728.589L754.578 728.481C742.246 722.587 732.347 711.879 727.37 699.171C727.208 698.684 727.424 698.198 727.857 698.035C728.29 697.873 728.831 698.089 728.993 698.522C733.807 710.852 743.381 721.126 755.282 726.859C755.714 727.075 755.931 727.616 755.714 728.048C755.606 728.427 755.282 728.589 754.957 728.589Z" fill="#96BA62"/>
<path d="M795.04 629.735C795.419 626.923 796.122 624.111 797.42 621.624C799.53 617.676 803.532 614.431 808.022 614.323C812.998 614.215 817.326 617.73 821.004 621.137C821.869 621.894 822.789 622.759 823.925 622.921C825.061 623.084 826.413 622.272 826.305 621.137C826.251 620.488 825.818 620.001 825.385 619.515C815.27 608.212 808.076 594.585 808.455 579.01C810.672 582.147 813.539 584.797 816.839 586.689C814.188 585.175 813.161 575.333 812.782 572.575C812.241 568.141 811.917 563.544 813.81 559.434C814.567 557.812 821.437 543.698 819.922 542.616C824.899 546.185 831.173 555.973 832.634 561.76C829.875 550.782 828.306 539.534 827.874 528.231C827.441 516.442 836.907 506.168 846.589 500.003C859.193 491.945 870.66 494.865 878.99 506.817C885.157 515.631 892.73 529.962 891.431 541.048C890.133 552.242 881.803 564.355 874.23 572.251C881.046 571.007 886.671 566.302 891.918 561.76C890.89 562.679 889.592 572.629 888.997 574.846C884.67 590.529 882.939 603.507 872.553 616.811C867.793 622.921 862.763 628.87 857.462 634.548C864.548 633.845 871.471 630.979 876.935 626.436C876.718 639.415 871.85 652.394 868.551 664.994C864.926 678.621 861.086 692.141 857.029 705.66C854.216 714.962 850.971 725.236 843.236 731.726C837.123 736.809 827.279 739.621 819.814 735.89C810.402 731.185 810.131 715.989 808.238 706.958C805.047 682.623 794.066 659.694 794.607 634.819C794.715 633.034 794.824 631.358 795.04 629.735Z" fill="#AFC661"/>
<path d="M829.389 743.514H829.172C828.415 743.406 827.928 742.703 828.036 742C839.612 663.696 850.376 584.201 860.167 505.626C860.275 504.869 860.924 504.383 861.681 504.437C862.439 504.545 862.926 505.194 862.871 505.951C853.135 584.526 842.317 664.074 830.741 742.379C830.579 743.028 830.038 743.514 829.389 743.514Z" fill="#96BA62"/>
<path d="M854.648 544.995C854.161 544.995 853.674 544.725 853.458 544.292C848.157 534.234 845.182 522.931 844.857 511.575C844.857 510.818 845.398 510.223 846.156 510.169C846.859 510.169 847.508 510.71 847.562 511.467C847.887 522.445 850.753 533.314 855.838 543.048C856.163 543.697 855.946 544.508 855.243 544.887L854.648 544.995Z" fill="#96BA62"/>
<path d="M855.136 565.491C854.649 565.491 854.217 565.22 853.946 564.788C853.567 564.139 853.784 563.328 854.433 562.949C865.63 556.568 875.529 547.699 883.047 537.262C883.48 536.667 884.292 536.505 884.941 536.938C885.536 537.37 885.698 538.236 885.265 538.831C877.53 549.592 867.307 558.731 855.785 565.329L855.136 565.491Z" fill="#96BA62"/>
<path d="M848.159 612.16C847.726 612.16 847.293 611.944 847.023 611.565C837.557 597.559 826.846 581.714 823.601 563.706C823.493 562.949 823.98 562.246 824.683 562.138C825.44 562.03 826.143 562.517 826.251 563.22C829.389 580.687 839.937 596.261 849.24 610.051C849.673 610.646 849.511 611.511 848.862 611.89C848.7 612.106 848.429 612.16 848.159 612.16Z" fill="#96BA62"/>
<path d="M849.889 601.885C849.402 601.885 848.915 601.56 848.645 601.074C848.32 600.425 848.645 599.614 849.294 599.289C860.329 594.368 870.173 586.851 877.909 577.604C878.395 577.009 879.207 576.955 879.802 577.442C880.397 577.929 880.451 578.74 879.964 579.335C872.013 588.906 861.789 596.693 850.376 601.777L849.889 601.885Z" fill="#96BA62"/>
<path d="M839.396 676.729C838.963 676.729 838.53 676.513 838.26 676.08C837.881 675.431 838.043 674.62 838.693 674.242C848.321 668.185 855.731 658.938 859.518 648.176C859.734 647.473 860.546 647.095 861.249 647.365C861.952 647.635 862.331 648.393 862.06 649.096C858.057 660.398 850.268 670.132 840.153 676.513C839.883 676.621 839.612 676.729 839.396 676.729Z" fill="#96BA62"/>
<path d="M835.013 701.821C834.581 701.821 834.148 701.605 833.877 701.172C827.549 691.006 821.004 680.515 816.406 669.158C811.916 658.126 809.266 646.5 806.723 635.306C806.561 634.603 806.994 633.846 807.751 633.683C808.454 633.521 809.212 633.954 809.374 634.711C811.916 645.851 814.513 657.315 818.948 668.185C823.492 679.325 829.983 689.708 836.203 699.766C836.582 700.415 836.42 701.226 835.771 701.605L835.013 701.821Z" fill="#96BA62"/>
<path d="M875.528 737.134H722.449C718.338 737.134 714.984 733.781 714.984 729.671V709.932C714.984 705.823 718.338 702.47 722.449 702.47H875.528C879.639 702.47 882.993 705.823 882.993 709.932V729.671C882.993 733.835 879.639 737.134 875.528 737.134Z" fill="#CD6C62"/>
<path d="M848.591 864H749.387L728.67 737.134H869.308L848.591 864Z" fill="#D68878"/>
<path d="M863.899 770.499L869.362 737.188H728.67L730.455 748.273C775.135 754.601 819.544 762.226 863.899 770.499Z" fill="#D47F6F"/>
<path d="M107.914 623.462C107.643 621.407 107.535 619.244 107.697 617.027C107.914 613.728 108.346 610.43 109.915 607.509C111.862 603.886 116.568 600.533 120.679 602.696C123.763 604.319 124.358 608.807 126.792 611.133C127.17 611.511 127.657 611.89 128.144 611.836C129.334 611.782 129.55 610.105 129.28 608.915C128.469 604.86 127.062 600.966 125.169 597.289C121.437 590.15 120.842 583.715 119.435 575.82C117.217 563.544 116.46 550.998 117.163 538.56C117.434 533.693 118.083 528.502 121.383 524.933C119.543 526.934 129.496 537.316 130.957 538.398C129.009 533.044 127.657 527.42 126.089 521.958C125.71 520.661 125.331 519.363 125.385 518.011C125.439 516.929 125.764 515.848 126.089 514.766C130.849 500.544 141.018 490.323 150.43 478.967C152.377 476.587 154.757 474.045 157.84 473.937C161.302 473.829 163.899 476.912 166.008 479.67C167.901 482.211 169.795 484.753 171.688 487.295C173.797 490.107 175.961 493.135 176.123 496.65C176.34 501.301 173.96 506.06 173.851 510.71C176.881 507.898 179.639 504.762 182.506 501.787C183.696 500.544 189.322 513.576 189.538 514.712C192.946 530.935 189.863 548.727 183.804 563.977C186.725 561.651 189.646 559.272 192.621 556.947C191.864 557.542 192.784 570.953 192.567 572.9C191.918 577.604 191.107 582.417 190.079 587.014C187.807 597.343 183.263 607.131 176.772 615.459C174.663 618.163 172.337 620.758 170.985 623.949C170.714 624.598 170.498 625.463 170.985 626.004C171.255 626.328 171.742 626.437 172.175 626.491C176.286 626.923 179.315 622.976 181.911 619.785C185.048 616 192.675 607.996 192.351 618.217C191.485 643.417 187.807 668.563 181.316 692.898C177.854 706.039 170.822 728.643 153.351 723.398C142.208 720.045 138.421 706.85 134.635 697.17C126.792 677.216 116.785 657.261 111.051 636.657C109.753 632.169 108.455 627.951 107.914 623.462Z" fill="#96BA62"/>
<path d="M157.676 719.072H157.514C156.757 718.964 156.27 718.315 156.324 717.558C160.381 683.921 157.893 649.474 155.459 616.108C154.052 596.802 152.592 576.848 152.43 557.217C152.213 532.233 154.052 506.979 155.837 482.482C155.891 481.725 156.54 481.184 157.298 481.238C158.055 481.292 158.596 481.941 158.542 482.644C156.757 507.087 154.918 532.342 155.134 557.163C155.296 576.739 156.757 596.64 158.163 615.892C160.597 649.366 163.14 683.976 159.029 717.828C158.975 718.585 158.38 719.072 157.676 719.072Z" fill="#87B15E"/>
<path d="M153.674 530.124C153.241 530.124 152.809 529.908 152.538 529.475C147.778 521.904 144.641 513.198 143.397 504.329C143.288 503.572 143.829 502.923 144.533 502.815C145.29 502.706 145.939 503.247 146.047 503.95C147.237 512.44 150.266 520.768 154.81 528.015C155.189 528.664 155.026 529.475 154.377 529.853C154.161 530.016 153.945 530.124 153.674 530.124Z" fill="#87B15E"/>
<path d="M154.433 565.059C154.108 565.059 153.838 564.951 153.567 564.734C152.972 564.248 152.918 563.382 153.405 562.842C162.817 551.647 169.632 538.182 173.094 523.96C173.256 523.257 174.014 522.824 174.717 522.986C175.42 523.148 175.853 523.906 175.691 524.609C172.175 539.264 165.143 553.053 155.46 564.572C155.19 564.896 154.865 565.059 154.433 565.059Z" fill="#87B15E"/>
<path d="M154.052 592.043C153.728 592.043 153.403 591.935 153.133 591.664C140.313 579.551 130.144 564.463 123.761 548.024C123.49 547.321 123.815 546.564 124.518 546.293C125.221 546.023 125.979 546.347 126.249 547.05C132.47 563.111 142.368 577.875 154.918 589.718C155.459 590.204 155.513 591.069 154.972 591.61C154.755 591.935 154.431 592.043 154.052 592.043Z" fill="#87B15E"/>
<path d="M158.434 620.542C158.11 620.542 157.785 620.434 157.569 620.218C157.028 619.731 156.974 618.866 157.461 618.325C169.685 604.427 179.097 588.582 185.48 571.169C185.751 570.466 186.508 570.142 187.211 570.358C187.914 570.629 188.239 571.386 188.022 572.089C181.531 589.772 171.903 605.887 159.516 620.056C159.192 620.38 158.813 620.542 158.434 620.542Z" fill="#87B15E"/>
<path d="M160.815 666.616C160.491 666.616 160.22 666.508 159.95 666.292C159.355 665.805 159.301 664.994 159.788 664.399C167.415 655.206 174.23 645.256 180.018 634.819C180.397 634.17 181.208 633.954 181.857 634.278C182.506 634.657 182.722 635.468 182.398 636.117C176.556 646.716 169.632 656.828 161.897 666.13C161.573 666.454 161.194 666.616 160.815 666.616Z" fill="#87B15E"/>
<path d="M158.542 688.139C158.163 688.139 157.785 687.977 157.514 687.652C142.964 669.915 131.118 650.176 122.355 628.978C122.084 628.275 122.409 627.518 123.112 627.247C123.815 626.977 124.572 627.301 124.843 628.004C133.498 648.986 145.181 668.509 159.57 686.03C160.057 686.625 159.948 687.436 159.408 687.922C159.191 688.085 158.867 688.139 158.542 688.139Z" fill="#87B15E"/>
<path d="M331.635 609.943C324.982 606.644 318.166 604.481 310.161 603.507C309.295 603.399 308.376 603.291 307.51 603.561C306.374 603.886 305.455 604.697 304.589 605.508C299.721 609.997 294.907 614.431 290.039 618.919C289.714 619.19 289.336 619.514 288.903 619.46C288.091 619.298 288.2 618.108 288.524 617.351C291.175 611.511 296.584 607.834 299.667 602.372C300.262 601.29 292.689 602.318 292.04 602.426C288.849 602.967 285.657 603.399 282.466 604.156C278.355 605.13 273.649 606.103 269.754 607.509C265.86 608.915 264.507 613.349 262.831 617.027C258.666 626.112 255.528 635.792 249.47 643.849C248.875 644.606 247.955 645.418 247.144 644.985C246.549 644.66 246.441 643.903 246.387 643.254C245.792 636.387 246.928 629.411 249.686 623.138C250.065 622.326 250.444 621.461 250.39 620.542C250.119 616.324 243.412 622.597 242.168 623.57C238.003 626.598 234 629.843 230.159 633.304C218.367 643.795 207.278 655.422 198.461 668.509C192.674 677.107 187.102 686.192 184.993 696.413C184.344 699.549 182.288 703.767 182.613 706.958C183.099 711.446 187.751 715.232 191.213 717.557C196.406 721.018 202.518 723.668 208.685 722.911C217.502 721.829 223.127 715.232 229.943 710.473C236.867 705.66 244.764 702.145 253.04 700.306C260.559 698.63 268.673 698.251 275.65 694.574C278.788 692.952 282.682 690.41 278.03 688.085C274.244 686.192 269.971 686.084 266.184 683.705C271.215 682.299 276.462 682.299 281.546 681.217C291.121 679.216 296.313 673.322 303.453 667.535C311.73 660.884 319.302 653.421 326.01 645.255C326.767 644.336 327.578 643.2 327.362 642.065C324.062 642.66 320.601 642.551 317.355 641.686C320.925 642.605 327.632 635.197 330.121 633.196C334.935 629.302 339.749 624.598 341.642 618.541C341.859 617.784 342.021 616.919 341.696 616.216C341.372 615.567 340.723 615.134 340.128 614.755C337.207 612.863 334.448 611.294 331.635 609.943Z" fill="#96BA62"/>
<path d="M201.815 709.77L201.274 709.608C200.896 709.283 200.788 708.743 201.112 708.364C232.431 667.481 277.111 635.413 330.445 615.621C330.932 615.458 331.419 615.675 331.581 616.161C331.744 616.648 331.527 617.135 331.04 617.297C278.03 636.927 233.621 668.779 202.518 709.446C202.356 709.662 202.086 709.77 201.815 709.77Z" fill="#87B15E"/>
<path d="M266.943 648.555H266.781C266.294 648.446 265.969 648.014 266.023 647.527C268.62 631.844 275.76 618.379 279.817 611.728C280.087 611.295 280.628 611.187 281.061 611.403C281.494 611.673 281.602 612.214 281.386 612.647C277.383 619.19 270.351 632.439 267.808 647.797C267.754 648.23 267.376 648.555 266.943 648.555Z" fill="#87B15E"/>
<path d="M267.213 662.29C262.832 662.29 258.45 661.912 254.177 660.992C253.69 660.884 253.366 660.398 253.474 659.911C253.582 659.424 254.069 659.1 254.502 659.208C270.946 662.615 288.147 658.289 303.347 654.503C303.833 654.395 304.32 654.665 304.428 655.152C304.537 655.639 304.266 656.125 303.779 656.234C292.366 659.154 279.817 662.29 267.213 662.29Z" fill="#87B15E"/>
<path d="M226.429 680.514H226.32C225.834 680.46 225.455 680.028 225.509 679.541C226.915 664.778 230.648 650.447 236.598 636.928C236.814 636.495 237.355 636.279 237.788 636.495C238.221 636.711 238.437 637.198 238.275 637.685C232.379 651.042 228.7 665.21 227.348 679.757C227.24 680.19 226.861 680.514 226.429 680.514Z" fill="#87B15E"/>
<path d="M214.42 695.277C213.987 695.277 213.608 695.007 213.554 694.574C213.446 694.087 213.77 693.601 214.257 693.547C231.837 690.14 249.85 688.247 267.808 687.977C268.295 687.977 268.674 688.355 268.674 688.842C268.674 689.329 268.295 689.761 267.808 689.761C250.012 690.032 232.108 691.87 214.582 695.277H214.42Z" fill="#87B15E"/>
<path d="M139.394 678.946C139.015 675.431 138.583 671.916 138.042 668.401C135.716 652.34 134.742 632.115 119.434 622.489C120.732 627.572 125.168 641.308 122.031 645.689C118.785 642.66 118.839 636.549 117.649 632.494C116.513 628.546 115.323 624.544 113.755 620.705C107.967 606.536 97.5811 595.288 85.6269 585.987C80.4341 581.931 73.1317 574.901 66.7489 573.116C64.8557 572.575 61.2856 572.143 61.5561 575.009C61.7724 577.172 64.2607 579.768 65.8293 581.066C66.262 581.39 66.6407 581.715 66.9111 582.147C67.1816 582.58 67.2898 583.175 67.0734 583.607C64.1525 582.688 62.3674 581.12 60.1497 579.227C57.8778 577.28 54.2537 576.199 51.4409 575.387C45.3286 573.549 38.8376 573.17 32.5088 573.819C24.7737 574.576 16.2272 577.064 9.19531 580.471C6.16618 581.931 2.59613 583.607 0.865192 586.636C-0.108458 588.258 -0.216642 590.313 0.0538167 592.152C0.48655 595.288 1.83884 598.262 3.29932 601.074C6.59891 607.564 10.5476 613.512 14.6045 619.461C18.5532 625.301 24.6655 629.736 30.2911 633.846C36.728 638.604 45.4908 644.823 53.821 645.202C54.416 645.256 55.0651 645.256 55.4437 645.689C55.8764 646.175 55.7683 646.986 55.3355 647.473C54.9028 647.96 54.2537 648.23 53.6587 648.446C51.0623 649.366 48.3036 649.907 45.5449 650.177C45.2204 650.231 44.8958 650.231 44.6795 650.393C43.8681 650.988 44.5713 652.232 45.2745 652.935C58.9056 665.805 76.7558 672.781 90.1165 686.031C85.5728 684.57 81.0291 683.056 76.4854 681.596C80.8668 688.031 85.1941 694.467 89.5215 700.848C96.8779 711.663 99.5825 723.831 103.91 736.052C105.965 741.893 108.886 748.544 114.945 750.167C120.786 751.735 131.713 748.598 136.04 744.056C139.881 740 140.205 732.754 140.909 727.508C143.126 711.501 141.125 694.953 139.394 678.946Z" fill="#AFC661"/>
<path d="M127.764 746.651C127.223 746.651 126.845 746.218 126.845 745.732C127.71 714.583 116.621 688.896 104.505 665.751C94.1192 645.904 81.8404 629.789 67.9389 617.784C51.5491 603.669 32.8334 595.071 13.7931 592.908C13.3063 592.854 12.9276 592.421 12.9817 591.934C13.0358 591.448 13.4685 591.069 13.9554 591.123C33.3202 593.286 52.4146 602.047 69.0748 616.432C83.1386 628.599 95.5797 644.877 106.074 664.885C118.298 688.247 129.441 714.15 128.576 745.732C128.63 746.272 128.251 746.651 127.764 746.651Z" fill="#96BA62"/>
<path d="M54.092 607.401C53.7134 607.401 53.3348 607.131 53.2266 606.752C50.3597 595.612 42.3541 588.853 34.8895 583.715C34.4568 583.445 34.4027 582.85 34.6731 582.471C34.9436 582.039 35.5386 581.985 35.9172 582.255C43.6523 587.555 51.9825 594.585 55.0116 606.32C55.1198 606.806 54.8493 607.293 54.3625 607.401H54.092Z" fill="#96BA62"/>
<path d="M57.7695 625.031C50.7376 625.031 43.8679 624.382 38.1342 623.841C36.836 623.733 35.5378 623.57 34.3478 623.516C33.861 623.462 33.4823 623.03 33.5364 622.543C33.5905 622.056 34.0773 621.678 34.5101 621.732C35.7001 621.84 36.9983 621.948 38.2965 622.11C48.3575 623.084 62.0968 624.382 73.5643 621.786C74.0511 621.678 74.5379 622.002 74.6461 622.435C74.7543 622.921 74.4297 623.408 73.9429 623.516C68.8042 624.652 63.2327 625.031 57.7695 625.031Z" fill="#96BA62"/>
<path d="M94.6602 648.121C94.1733 648.121 93.7947 647.743 93.7947 647.202C93.7947 628.87 86.8169 608.861 74.1053 590.853C73.8349 590.42 73.943 589.88 74.3217 589.609C74.7544 589.339 75.2953 589.447 75.5658 589.825C88.4396 608.104 95.5797 628.491 95.5797 647.202C95.5797 647.743 95.147 648.121 94.6602 648.121Z" fill="#96BA62"/>
<path d="M106.506 667.427C92.55 667.265 78.378 664.236 65.5583 658.72C65.1255 658.504 64.9092 658.018 65.0715 657.531C65.2878 657.098 65.7746 656.882 66.2615 657.044C78.8648 662.452 92.7664 665.426 106.506 665.588C106.993 665.588 107.371 666.021 107.371 666.508C107.371 666.994 106.993 667.427 106.506 667.427Z" fill="#96BA62"/>
<path d="M121.219 703.389L121.003 703.335C120.516 703.227 120.246 702.741 120.354 702.254C123.87 688.14 126.25 671.7 126.899 657.153C126.899 656.666 127.223 656.234 127.818 656.288C128.305 656.288 128.684 656.72 128.684 657.207C128.035 671.862 125.655 688.41 122.085 702.632C121.977 703.119 121.598 703.389 121.219 703.389Z" fill="#96BA62"/>
<path d="M125.763 728.589L125.384 728.481C113.052 722.587 103.153 711.879 98.1763 699.171C98.014 698.684 98.2304 698.198 98.7172 698.035C99.15 697.873 99.6909 698.089 99.8532 698.522C104.667 710.852 114.242 721.126 126.142 726.859C126.574 727.075 126.791 727.616 126.574 728.048C126.412 728.427 126.088 728.589 125.763 728.589Z" fill="#96BA62"/>
<path d="M165.846 629.735C166.225 626.923 166.928 624.111 168.226 621.624C170.335 617.676 174.338 614.431 178.828 614.323C183.858 614.215 188.132 617.73 191.81 621.137C192.675 621.894 193.595 622.759 194.731 622.921C195.867 623.084 197.219 622.272 197.111 621.137C197.057 620.488 196.624 620.001 196.191 619.515C186.076 608.212 178.882 594.585 179.261 579.01C181.478 582.147 184.345 584.797 187.645 586.689C184.994 585.175 183.967 575.333 183.588 572.575C183.047 568.141 182.722 563.544 184.616 559.434C185.373 557.812 192.243 543.698 190.728 542.616C195.704 546.185 201.979 555.973 203.44 561.76C200.681 550.782 199.112 539.534 198.68 528.231C198.247 516.442 207.767 506.168 217.449 500.003C230.053 491.945 241.52 494.865 249.85 506.817C256.017 515.631 263.59 529.962 262.291 541.048C260.993 552.242 252.663 564.355 245.09 572.251C251.906 571.007 257.531 566.302 262.778 561.76C261.75 562.679 260.452 572.629 259.857 574.846C255.53 590.529 253.799 603.507 243.413 616.811C238.653 622.921 233.623 628.87 228.322 634.548C235.408 633.845 242.277 630.979 247.795 626.436C247.578 639.415 242.71 652.394 239.411 664.994C235.786 678.621 231.946 692.141 227.889 705.66C225.076 714.962 221.831 725.236 214.096 731.726C207.983 736.809 198.139 739.621 190.674 735.89C181.262 731.185 180.992 715.989 179.098 706.958C175.907 682.623 164.926 659.694 165.521 634.819C165.521 633.034 165.63 631.358 165.846 629.735Z" fill="#AFC661"/>
<path d="M200.193 743.514H199.977C199.22 743.406 198.733 742.703 198.841 742C210.417 663.696 221.181 584.147 230.972 505.626C231.08 504.869 231.729 504.383 232.486 504.437C233.243 504.545 233.73 505.194 233.676 505.951C223.886 584.526 213.121 664.074 201.546 742.379C201.438 743.028 200.843 743.514 200.193 743.514Z" fill="#96BA62"/>
<path d="M225.507 544.995C225.021 544.995 224.534 544.725 224.317 544.292C219.016 534.234 216.041 522.931 215.717 511.575C215.717 510.818 216.258 510.223 217.015 510.169C217.718 510.169 218.367 510.71 218.421 511.467C218.746 522.445 221.613 533.314 226.697 543.048C227.022 543.697 226.806 544.508 226.102 544.887L225.507 544.995Z" fill="#96BA62"/>
<path d="M225.995 565.491C225.509 565.491 225.076 565.22 224.805 564.788C224.427 564.139 224.643 563.328 225.292 562.949C236.489 556.568 246.388 547.699 253.907 537.262C254.34 536.667 255.151 536.505 255.8 536.938C256.395 537.37 256.557 538.236 256.125 538.831C248.389 549.592 238.166 558.731 226.645 565.329L225.995 565.491Z" fill="#96BA62"/>
<path d="M218.963 612.16C218.531 612.16 218.098 611.944 217.827 611.565C208.361 597.559 197.651 581.714 194.406 563.706C194.297 562.949 194.784 562.246 195.488 562.138C196.245 562.03 196.948 562.517 197.056 563.22C200.193 580.687 210.741 596.261 220.045 610.051C220.478 610.646 220.316 611.511 219.667 611.89C219.504 612.106 219.234 612.16 218.963 612.16Z" fill="#96BA62"/>
<path d="M220.694 601.885C220.207 601.885 219.72 601.56 219.45 601.074C219.125 600.425 219.45 599.614 220.099 599.289C231.133 594.368 240.978 586.851 248.713 577.604C249.2 577.009 250.011 576.955 250.606 577.442C251.201 577.929 251.256 578.74 250.769 579.335C242.817 588.906 232.594 596.693 221.181 601.777L220.694 601.885Z" fill="#96BA62"/>
<path d="M210.2 676.729C209.768 676.729 209.335 676.513 209.064 676.08C208.686 675.431 208.848 674.62 209.497 674.242C219.125 668.185 226.536 658.938 230.322 648.176C230.539 647.473 231.35 647.095 232.053 647.365C232.757 647.635 233.135 648.393 232.865 649.096C228.862 660.398 221.073 670.132 210.958 676.513C210.687 676.621 210.471 676.729 210.2 676.729Z" fill="#96BA62"/>
<path d="M205.818 701.821C205.385 701.821 204.953 701.605 204.682 701.172C198.353 691.006 191.808 680.515 187.21 669.158C182.721 658.126 180.07 646.5 177.528 635.306C177.366 634.603 177.799 633.846 178.556 633.683C179.259 633.521 180.016 633.954 180.179 634.711C182.721 645.851 185.317 657.315 189.753 668.185C194.296 679.325 200.787 689.708 207.008 699.766C207.387 700.415 207.224 701.226 206.575 701.605C206.305 701.713 206.088 701.821 205.818 701.821Z" fill="#96BA62"/>
<path d="M246.333 737.134H93.2537C89.1427 737.134 85.7891 733.781 85.7891 729.671V709.932C85.7891 705.823 89.1427 702.47 93.2537 702.47H246.333C250.444 702.47 253.798 705.823 253.798 709.932V729.671C253.798 733.835 250.444 737.134 246.333 737.134Z" fill="#CD6C62"/>
<path d="M219.396 864H120.192L99.4746 737.134H240.167L219.396 864Z" fill="#D68878"/>
<path d="M234.704 770.499L240.167 737.188H99.4746L101.26 748.273C145.939 754.601 190.349 762.226 234.704 770.499Z" fill="#D47F6F"/>
</g>
<defs>
<clipPath id="clip0_650_833">
<rect width="971" height="864" fill="white"/>
</clipPath>
</defs>
</svg>
