<svg width="692" height="300" viewBox="0 0 692 502" fill="none" xmlns="http://www.w3.org/2000/svg">
<g clip-path="url(#clip0_650_908)">
<path d="M510.286 277.179L497.084 89.2307V89.2056L494.846 57.5796C494.519 52.911 490.596 49.2715 485.918 49.2715C485.893 49.2715 485.893 49.2715 485.893 49.2715C484.963 49.2715 484.032 49.2715 483.077 49.2966C471.484 49.3217 460.168 49.397 449.178 49.5225C437.158 49.648 425.565 49.8488 414.601 50.0496C369.085 50.9281 334.004 52.2835 321.23 52.8106C316.703 53.0114 313.006 56.5756 312.705 61.0936L298.119 260.463L296.887 277.23C296.787 278.46 296.963 279.689 297.365 280.794C297.742 281.923 298.371 282.978 299.201 283.881C300.86 285.713 303.149 286.743 305.613 286.793C310.617 286.893 315.697 287.019 320.852 287.094C333.325 287.32 346.226 287.445 359.152 287.521C370.04 287.596 380.954 287.621 391.642 287.621H397.803C443.923 287.571 484.988 286.994 501.459 286.743C503.949 286.692 506.237 285.663 507.922 283.856C508.45 283.279 508.878 282.676 509.23 281.999C510.035 280.543 510.412 278.886 510.286 277.179ZM505.483 281.597C504.427 282.727 502.993 283.379 501.434 283.404C485.164 283.655 444.929 284.233 399.513 284.283C386.889 284.308 373.888 284.283 360.887 284.207C347.986 284.132 335.086 283.982 322.562 283.781C316.854 283.68 311.221 283.58 305.714 283.454C304.18 283.404 302.746 282.777 301.69 281.622C301.137 280.995 300.735 280.292 300.508 279.539C300.282 278.886 300.207 278.183 300.257 277.456L302.017 253.259L316.049 61.3195C316.276 58.4832 318.564 56.2493 321.38 56.1238C333.954 55.5967 368.154 54.2664 412.64 53.413C423.629 53.1871 435.247 53.0114 447.318 52.8859C458.307 52.7604 469.648 52.66 481.241 52.6349C482.775 52.6349 484.334 52.6098 485.893 52.6098H485.918C488.836 52.6098 491.3 54.8939 491.501 57.8055L494.116 95.1292C494.116 95.1292 494.116 95.1292 494.116 95.1543L506.941 277.43C507.042 278.861 506.615 280.217 505.734 281.321C505.659 281.396 505.558 281.497 505.483 281.597Z" fill="black"/>
<path d="M329.603 299.016C329.528 298.991 329.452 298.966 329.377 298.966C329.327 298.941 329.302 298.941 329.276 298.941C322.939 298.589 316.527 298.69 310.315 298.79L307.901 298.84C307.021 298.865 306.216 299.016 305.462 299.342C303.023 300.371 301.69 302.706 300.961 305.14C300.282 307.475 300.131 309.884 300.131 311.315C300.131 317.966 303.249 322.158 308.304 322.208C309.913 322.233 311.497 322.258 313.107 322.309C315.722 322.359 318.388 322.409 321.053 322.409C323.97 322.409 326.887 322.334 329.729 322.133C331.565 322.133 336.77 320.1 336.77 311.089C336.795 300.974 329.905 299.091 329.603 299.016ZM329.654 318.82C324.247 319.196 318.639 319.096 313.233 318.97C311.598 318.92 309.989 318.895 308.379 318.87C304.004 318.82 303.526 313.574 303.526 311.315C303.526 309.257 303.827 306.872 304.582 305.065C304.607 305.065 304.607 305.065 304.607 305.065C305.11 303.81 305.839 302.831 306.82 302.429C307.172 302.279 307.574 302.204 308.027 302.178L310.416 302.128C313.358 302.078 316.351 302.028 319.343 302.028C322.562 302.028 325.756 302.078 328.924 302.279C329.377 302.429 330.886 303.107 332.043 305.04C332.847 306.37 333.476 308.303 333.476 311.089C333.451 318.293 329.779 318.82 329.654 318.82Z" fill="black"/>
<path d="M333.452 311.14C333.452 318.318 329.781 318.82 329.655 318.82C324.249 319.197 318.641 319.096 313.234 318.971C311.6 318.921 309.99 318.896 308.381 318.87C304.005 318.82 303.527 313.574 303.527 311.315C303.527 307.852 304.382 303.434 306.796 302.43C307.149 302.279 307.551 302.204 308.004 302.179L310.393 302.129C313.335 302.078 316.327 302.028 319.32 302.028C322.539 302.028 325.732 302.079 328.901 302.279C329.655 302.581 333.452 304.312 333.452 311.14Z" fill="url(#paint0_linear_650_908)"/>
<path d="M571.948 210.94C571.872 208.832 570.992 206.874 569.433 205.443C567.899 203.988 565.862 203.235 563.75 203.335C561.637 203.41 559.676 204.289 558.242 205.845C556.784 207.376 556.029 209.409 556.13 211.518L557.79 258.605C557.865 260.714 558.745 262.671 560.304 264.127C561.788 265.483 563.674 266.236 565.711 266.236H565.988C568.1 266.16 570.062 265.257 571.495 263.726C572.953 262.195 573.708 260.161 573.607 258.053L571.948 210.94ZM569.056 261.416C568.226 262.295 567.094 262.822 565.887 262.872C564.655 262.897 563.523 262.471 562.618 261.642C561.738 260.814 561.21 259.685 561.159 258.48L559.475 211.392C559.424 210.162 559.877 209.008 560.707 208.129C561.537 207.226 562.668 206.724 563.875 206.673H564.026C565.183 206.673 566.289 207.1 567.144 207.903C568.025 208.732 568.553 209.861 568.603 211.066L570.263 258.153C570.313 259.358 569.885 260.538 569.056 261.416Z" fill="black"/>
<path d="M592.869 210.212C592.794 208.104 591.888 206.146 590.354 204.69C588.82 203.26 586.783 202.481 584.671 202.582C580.295 202.732 576.875 206.422 577.026 210.764L578.711 257.852C578.862 262.119 582.383 265.482 586.632 265.482C586.733 265.482 586.808 265.482 586.909 265.457C591.184 265.307 594.554 261.793 594.554 257.551V257.275L592.869 210.212ZM586.783 262.144C584.319 262.245 582.131 260.262 582.056 257.727L580.371 210.639C580.295 208.129 582.257 205.996 584.772 205.92H584.948C586.104 205.92 587.211 206.347 588.066 207.15C588.946 207.978 589.474 209.108 589.524 210.313L591.184 257.4C591.285 259.935 589.298 262.044 586.783 262.144Z" fill="black"/>
<path d="M613.793 209.459C613.642 205.092 609.971 201.678 605.595 201.829C603.483 201.904 601.521 202.783 600.088 204.339C598.654 205.87 597.875 207.903 597.975 210.012L599.635 257.099C599.786 261.366 603.307 264.73 607.557 264.73C607.657 264.73 607.733 264.73 607.833 264.705C612.209 264.554 615.629 260.889 615.478 256.522L613.793 209.459ZM607.707 261.391C605.168 261.442 603.055 259.509 602.98 256.974L601.32 209.886C601.27 208.681 601.697 207.527 602.552 206.623C603.382 205.745 604.514 205.218 605.721 205.167H605.872C608.336 205.167 610.348 207.1 610.448 209.56L612.108 256.647C612.209 259.183 610.222 261.316 607.707 261.391Z" fill="black"/>
<path d="M238.622 46.335C230.097 46.335 223.182 53.2375 223.182 61.7464C223.182 70.2553 230.097 77.1578 238.622 77.1578C247.122 77.1578 254.062 70.2553 254.062 61.7464C254.062 53.2375 247.122 46.335 238.622 46.335ZM238.622 73.8195C231.958 73.8195 226.526 68.3979 226.526 61.7464C226.526 55.0949 231.958 49.6733 238.622 49.6733C245.286 49.6733 250.718 55.0949 250.718 61.7464C250.718 68.3979 245.286 73.8195 238.622 73.8195Z" fill="black"/>
<path d="M238.621 73.8191C245.302 73.8191 250.717 68.4137 250.717 61.746C250.717 55.0782 245.302 49.6729 238.621 49.6729C231.941 49.6729 226.525 55.0782 226.525 61.746C226.525 68.4137 231.941 73.8191 238.621 73.8191Z" fill="url(#paint1_linear_650_908)"/>
<path d="M95.8365 122.688C90.4047 122.688 86.0039 127.106 86.0039 132.503C86.0039 137.924 90.4047 142.317 95.8365 142.317C101.268 142.317 105.669 137.899 105.669 132.503C105.669 127.081 101.243 122.688 95.8365 122.688ZM95.8365 138.978C92.2656 138.978 89.3485 136.067 89.3485 132.503C89.3485 128.938 92.2404 126.027 95.8365 126.027C99.4074 126.027 102.324 128.938 102.324 132.503C102.324 136.067 99.4074 138.978 95.8365 138.978Z" fill="black"/>
<path d="M95.8356 138.979C99.4188 138.979 102.324 136.08 102.324 132.503C102.324 128.927 99.4188 126.027 95.8356 126.027C92.2524 126.027 89.3477 128.927 89.3477 132.503C89.3477 136.08 92.2524 138.979 95.8356 138.979Z" fill="url(#paint2_linear_650_908)"/>
<path d="M29.6232 297.385C21.9533 297.385 15.7168 303.635 15.7168 311.265C15.7168 318.921 21.9533 325.145 29.6232 325.145C37.2931 325.145 43.5296 318.921 43.5296 311.265C43.5547 303.635 37.3182 297.385 29.6232 297.385ZM29.6232 321.832C23.789 321.832 19.0614 317.113 19.0614 311.29C19.0614 305.467 23.789 300.748 29.6232 300.748C35.4573 300.748 40.185 305.467 40.185 311.29C40.185 317.088 35.4573 321.832 29.6232 321.832Z" fill="black"/>
<path d="M603.005 407.373C593.072 407.373 584.949 415.455 584.949 425.395C584.949 435.334 593.047 443.417 603.005 443.417C612.963 443.417 621.061 435.334 621.061 425.395C621.061 415.455 612.963 407.373 603.005 407.373ZM603.005 440.053C594.907 440.053 588.319 433.477 588.319 425.395C588.319 417.313 594.933 410.736 603.005 410.736C611.102 410.736 617.691 417.313 617.691 425.395C617.691 433.477 611.102 440.053 603.005 440.053Z" fill="black"/>
<path d="M301.841 404.537C291.908 404.537 283.785 412.619 283.785 422.559C283.785 432.473 291.883 440.581 301.841 440.581C311.799 440.581 319.896 432.499 319.896 422.559C319.896 412.619 311.799 404.537 301.841 404.537ZM301.841 437.217C293.743 437.217 287.155 430.616 287.155 422.559C287.155 414.477 293.769 407.901 301.841 407.901C309.938 407.901 316.527 414.477 316.527 422.559C316.527 430.641 309.938 437.217 301.841 437.217Z" fill="black"/>
<path d="M603.005 389.953C593.75 389.953 585.301 393.518 578.989 399.341C575.871 402.202 573.255 405.641 571.319 409.456C479.155 408.176 338.808 407.398 334.584 407.373H334.508C334.332 407.373 334.156 407.423 333.98 407.473C333.754 407.021 333.553 406.57 333.326 406.143C327.392 394.848 315.522 387.117 301.867 387.117C287.835 387.117 275.664 395.3 269.905 407.122C267.642 411.79 266.359 417.011 266.359 422.558C266.359 428.407 267.793 433.929 270.308 438.773C276.192 450.168 288.137 457.974 301.842 457.974C314.139 457.974 324.977 451.725 331.365 442.212C331.667 441.76 331.943 441.308 332.245 440.856C332.999 439.576 333.704 438.246 334.332 436.89C348.993 436.991 507.169 438.02 570.364 439.25C570.791 440.279 571.269 441.258 571.822 442.212C577.832 453.256 589.551 460.786 603.03 460.786C622.619 460.786 638.538 444.897 638.538 425.344C638.512 405.842 622.569 389.953 603.005 389.953ZM328.9 439.827C323.192 448.738 313.183 454.636 301.842 454.636C289.696 454.636 279.059 447.834 273.627 437.869C273.602 437.844 273.602 437.819 273.602 437.819C271.112 433.276 269.704 428.08 269.704 422.558C269.704 417.589 270.836 412.87 272.872 408.653C272.872 408.653 272.898 408.628 272.898 408.603C278.103 397.885 289.118 390.455 301.842 390.455C314.567 390.455 325.606 397.885 330.786 408.603C330.812 408.628 330.812 408.653 330.812 408.653C332.849 412.87 333.98 417.589 333.98 422.558C334.005 428.909 332.119 434.832 328.9 439.827ZM568.201 432.347C568.452 433.552 568.729 434.732 569.106 435.886C506.565 434.707 356.286 433.678 335.59 433.552C335.942 432.473 336.243 431.368 336.495 430.239C337.048 427.779 337.35 425.194 337.35 422.558C337.35 419.647 336.998 416.81 336.294 414.075C336.017 412.945 335.665 411.816 335.288 410.711C346.906 410.786 480.387 411.539 569.836 412.769C569.458 413.748 569.106 414.777 568.83 415.806C567.975 418.844 567.497 422.056 567.497 425.37C567.497 427.754 567.748 430.088 568.201 432.347ZM603.005 457.447C585.301 457.447 570.867 443.065 570.867 425.37C570.867 422.056 571.369 418.844 572.325 415.832C572.828 414.225 573.457 412.669 574.211 411.188C579.467 400.596 590.406 393.292 603.03 393.292C620.759 393.292 635.193 407.674 635.193 425.37C635.193 443.065 620.733 457.447 603.005 457.447Z" fill="black"/>
<path d="M123.046 313.298C122.719 313.574 122.317 313.725 121.939 313.725C121.462 313.725 121.009 313.549 120.682 313.173C115.326 307.174 107.857 311.742 107.53 311.943C106.826 312.395 105.895 312.244 105.367 311.617C101.017 306.572 95.7863 309.759 95.1827 310.136C94.4032 310.638 93.3721 310.437 92.8692 309.659C92.3663 308.906 92.5674 307.852 93.347 307.35C95.9875 305.618 102.023 303.76 106.977 308.429C110.9 306.496 118.016 305.141 123.197 310.939C123.8 311.642 123.725 312.696 123.046 313.298Z" fill="black"/>
<path d="M167.833 343.544C167.934 344.447 167.28 345.276 166.375 345.401C166.299 345.426 166.249 345.426 166.173 345.426C165.318 345.426 164.614 344.799 164.514 343.945C163.533 335.487 153.902 334.633 153.801 334.608C153.122 334.558 152.569 334.106 152.342 333.479C150.482 327.957 142.409 328.484 142.334 328.509C141.403 328.609 140.599 327.881 140.523 326.978C140.448 326.074 141.127 325.246 142.057 325.17C142.485 325.145 151.94 324.468 155.109 331.395C159.635 332.098 166.878 335.286 167.833 343.544Z" fill="black"/>
<path d="M659.861 466.157C659.911 469.521 658.327 472.809 655.108 475.896C651.713 479.184 648.268 480.715 644.898 480.439C641.026 480.138 638.084 477.553 636.826 476.222C645.477 471.905 651.864 465.63 656.089 457.297C657.422 458.803 659.811 462.091 659.861 466.157Z" fill="url(#paint3_linear_650_908)"/>
<path d="M617.991 482.021C617.564 485.71 615.476 495.198 604.714 496.026C601.042 496.302 598.075 495.449 595.811 493.441C592.567 490.58 591.562 486.011 591.26 483.803C599.407 483.803 608.813 483.577 617.991 482.021Z" fill="url(#paint4_linear_650_908)"/>
<path d="M574.311 483.777C574.085 485.885 573.255 490.479 570.086 493.541C567.873 495.674 564.906 496.729 561.184 496.628C550.119 496.402 547.932 486.814 547.529 483.576C558.343 483.651 567.446 483.702 574.311 483.777Z" fill="url(#paint5_linear_650_908)"/>
<path d="M530.278 483.426C530.278 483.476 530.253 483.501 530.253 483.527C530.253 483.577 530.328 489.049 526.783 492.588C524.645 494.721 521.502 495.826 517.528 495.7C507.017 495.474 504.527 486.84 503.924 483.2C513.228 483.275 522.055 483.376 530.278 483.426Z" fill="url(#paint6_linear_650_908)"/>
<path d="M486.573 483.025C486.522 484.355 486.095 488.697 483.102 491.684C480.94 493.818 477.847 494.897 473.848 494.797C462.96 494.571 460.671 485.886 460.193 482.724C469.196 482.849 477.998 482.95 486.573 483.025Z" fill="url(#paint7_linear_650_908)"/>
<path d="M442.841 482.547C442.716 484.204 442.137 488.019 439.421 490.755C437.259 492.913 434.14 494.018 430.167 493.892C418.951 493.641 416.915 485.358 416.562 482.221C425.289 482.346 434.09 482.447 442.841 482.547Z" fill="url(#paint8_linear_650_908)"/>
<path d="M399.137 481.995C398.986 483.803 398.307 487.291 395.767 489.852C393.604 492.01 390.511 493.115 386.488 492.989C375.599 492.763 373.386 484.907 372.908 481.594C381.433 481.719 390.209 481.87 399.137 481.995Z" fill="url(#paint9_linear_650_908)"/>
<path d="M355.481 481.293C355.255 483.175 354.551 486.539 352.111 488.973C349.974 491.132 346.856 492.186 342.857 492.086C330.938 491.835 329.353 483.175 329.127 480.766C337.35 480.941 346.177 481.117 355.481 481.293Z" fill="url(#paint10_linear_650_908)"/>
<path d="M312.027 480.338C311.675 483.601 309.738 491.633 299.076 492.085C295.253 492.261 292.16 491.232 289.872 489.048C286.502 485.835 285.572 480.865 285.32 478.431C290.475 479.56 293.996 479.761 294.147 479.786C299.327 479.987 305.337 480.163 312.027 480.338Z" fill="url(#paint11_linear_650_908)"/>
<path d="M270.131 473.26C268.169 475.143 264.347 478.155 259.821 478.456C256.451 478.632 253.207 477.276 250.164 474.365C246.97 471.277 245.361 468.014 245.411 464.651C245.487 460.434 248.102 457.021 249.359 455.59C254.917 464.124 262.637 469.671 270.131 473.26Z" fill="url(#paint12_linear_650_908)"/>
<path d="M242.696 438.849C241.263 438.924 236.786 438.924 233.492 436.012C230.952 433.753 229.645 430.214 229.645 425.495C229.645 421.053 230.902 417.639 233.366 415.33C236.459 412.418 240.785 411.942 242.671 411.866C242.017 415.857 241.615 420.199 241.539 424.943C241.413 430.064 241.866 434.657 242.696 438.849Z" fill="url(#paint13_linear_650_908)"/>
<path d="M265.78 374.24C259.292 378.206 252.854 384.331 248.253 393.743C247.297 392.89 243.751 389.476 243.625 384.933C243.55 381.695 245.26 378.482 248.73 375.42C252.251 372.283 255.772 370.852 259.141 371.178C262.109 371.429 264.422 373.036 265.78 374.24Z" fill="url(#paint14_linear_650_908)"/>
<path d="M314.993 366.962C307.047 366.912 299.075 366.862 291.128 366.887C290.6 366.887 289.595 366.912 288.262 367.012C288.413 365.23 289.142 360.888 292.26 357.976C294.599 355.793 297.893 354.839 302.042 355.09C312.554 355.743 314.616 363.549 314.993 366.962Z" fill="url(#paint15_linear_650_908)"/>
<path d="M358.524 367.414C357.166 367.389 355.833 367.363 354.475 367.363C347.107 367.263 339.613 367.188 332.119 367.087C332.295 364.853 333.779 355.993 345.824 355.993C349.823 355.993 352.941 357.123 355.104 359.331C357.694 361.992 358.348 365.632 358.524 367.414Z" fill="url(#paint16_linear_650_908)"/>
<path d="M489.566 368.091C480.84 368.066 472.038 368.066 463.287 368.041C463.916 364.326 466.481 355.993 476.816 355.993C480.815 355.993 483.933 357.123 486.096 359.331C489.113 362.419 489.516 366.811 489.566 368.091Z" fill="url(#paint17_linear_650_908)"/>
<path d="M445.86 368.016C436.807 367.991 427.98 367.966 419.48 367.941C419.656 365.431 421.14 356.019 433.11 356.019C437.084 356.019 440.227 357.148 442.39 359.357C445.357 362.344 445.81 366.636 445.86 368.016Z" fill="url(#paint18_linear_650_908)"/>
<path d="M402.179 367.865C395.741 367.815 389.63 367.765 383.947 367.715C381.256 367.69 378.54 367.64 375.85 367.614C376.151 364.728 377.962 355.993 389.454 355.993C393.427 355.993 396.571 357.123 398.734 359.331C401.575 362.243 402.078 366.309 402.179 367.865Z" fill="url(#paint19_linear_650_908)"/>
<path d="M674.674 425.52C674.674 430.239 673.391 433.778 670.852 436.012C667.482 439.024 662.754 438.948 661.497 438.873C662 435.058 662.276 431.042 662.276 426.725C662.276 421.278 661.899 416.358 661.17 411.891C662.679 411.916 667.532 412.167 670.952 415.354C673.417 417.639 674.674 421.077 674.674 425.52Z" fill="url(#paint20_linear_650_908)"/>
<path d="M660.289 384.431C660.214 388.648 657.372 392.313 655.561 394.245C651.035 385.711 644.471 379.989 636.676 376.198C637.883 374.893 641.177 371.806 645.553 371.429C648.922 371.128 652.292 372.459 655.637 375.395C658.78 378.206 660.339 381.244 660.289 384.431Z" fill="url(#paint21_linear_650_908)"/>
<path d="M620.583 371.029C612.234 369.347 603.231 368.795 594.229 368.569C594.53 366.561 595.511 362.52 598.504 359.909C600.767 357.951 603.86 357.123 607.657 357.5C619.552 358.679 620.532 368.82 620.583 371.029Z" fill="url(#paint22_linear_650_908)"/>
<path d="M576.927 368.368C568.779 368.292 559.928 368.267 550.623 368.242C551.201 364.628 553.691 356.019 564.177 356.019C568.151 356.019 571.294 357.148 573.457 359.357C576.726 362.67 576.927 367.565 576.927 368.368Z" fill="url(#paint23_linear_650_908)"/>
<path d="M533.246 368.192C524.746 368.167 515.944 368.142 506.967 368.142C507.57 364.477 510.11 356.019 520.496 356.019C524.469 356.019 527.587 357.148 529.775 359.357C532.843 362.469 533.22 366.987 533.246 368.192Z" fill="url(#paint24_linear_650_908)"/>
<path d="M582.183 371.756C556.81 371.58 524.244 371.505 489.742 371.455C451.845 371.404 412.666 371.354 383.923 371.078C374.09 370.978 364.258 370.852 354.425 370.727C333.679 370.451 312.228 370.175 291.155 370.225C286.528 370.225 245.965 371.856 244.884 425.043C244.331 452.327 259.369 465.128 273.024 471.152C273.351 471.177 273.677 471.252 273.929 471.478C273.954 471.503 273.979 471.528 274.004 471.553C284.214 475.845 293.393 476.398 294.273 476.448C361.969 478.958 569.358 480.464 587.162 480.489C601.194 480.489 620.432 480.514 634.917 473.461C651.086 465.605 658.932 450.319 658.932 426.725C658.932 372.358 619.904 372.057 582.183 371.756ZM603.005 460.811C588.369 460.811 575.771 451.925 570.364 439.25C507.169 437.995 348.993 436.966 334.332 436.89C328.8 449.315 316.327 457.999 301.867 457.999C282.303 457.999 266.36 442.111 266.36 422.558C266.36 403.005 282.278 387.117 301.867 387.117C316.05 387.117 328.297 395.45 333.98 407.473C334.156 407.423 334.332 407.373 334.508 407.373C335.942 407.398 478.225 408.151 571.319 409.456C577.179 397.885 589.174 389.953 603.005 389.953C622.595 389.953 638.513 405.842 638.513 425.395C638.513 444.922 622.569 460.811 603.005 460.811Z" fill="url(#paint25_linear_650_908)"/>
<path d="M603.003 393.292C585.3 393.292 570.865 407.674 570.865 425.37C570.865 443.065 585.3 457.448 603.003 457.448C620.732 457.448 635.167 443.065 635.167 425.37C635.167 407.674 620.732 393.292 603.003 393.292ZM603.003 443.392C593.07 443.392 584.948 435.309 584.948 425.37C584.948 415.43 593.045 407.348 603.003 407.348C612.962 407.348 621.059 415.43 621.059 425.37C621.059 435.309 612.962 443.392 603.003 443.392Z" fill="url(#paint26_linear_650_908)"/>
<path d="M301.841 390.456C284.138 390.456 269.703 404.863 269.703 422.559C269.703 440.229 284.138 454.637 301.841 454.637C319.57 454.637 334.004 440.229 334.004 422.559C334.004 404.863 319.57 390.456 301.841 390.456ZM301.841 440.556C291.908 440.556 283.786 432.473 283.786 422.534C283.786 412.594 291.883 404.512 301.841 404.512C311.8 404.512 319.897 412.594 319.897 422.534C319.897 432.473 311.8 440.556 301.841 440.556Z" fill="url(#paint27_linear_650_908)"/>
<path d="M567.496 425.37C567.496 429.035 568.049 432.549 569.106 435.862C506.565 434.682 356.285 433.653 335.589 433.528C336.72 430.064 337.349 426.374 337.349 422.534C337.349 418.392 336.62 414.401 335.287 410.687C346.905 410.762 480.386 411.515 569.835 412.745C568.326 416.711 567.496 420.952 567.496 425.37Z" fill="url(#paint28_linear_650_908)"/>
<path d="M301.842 437.217C309.953 437.217 316.528 430.654 316.528 422.559C316.528 414.463 309.953 407.9 301.842 407.9C293.731 407.9 287.156 414.463 287.156 422.559C287.156 430.654 293.731 437.217 301.842 437.217Z" fill="url(#paint29_linear_650_908)"/>
<path d="M603.004 440.028C611.115 440.028 617.69 433.465 617.69 425.369C617.69 417.274 611.115 410.711 603.004 410.711C594.893 410.711 588.318 417.274 588.318 425.369C588.318 433.465 594.893 440.028 603.004 440.028Z" fill="url(#paint30_linear_650_908)"/>
<path d="M623.298 109.21C616.936 108.959 611.252 109.034 606.676 109.185C606.6 105.068 606.424 93.0955 606.651 82.8798C609.668 82.7543 616.634 82.5535 623.298 83.1559C623.348 87.4731 623.474 100.174 623.298 109.21Z" fill="url(#paint31_linear_650_908)"/>
<path d="M632.677 176.805C622.141 176.579 609.617 176.328 596.968 176.052C596.843 168.195 596.34 132.98 596.943 113.151C601.369 112.749 615.628 111.695 632.677 113.176C632.828 119.978 633.306 149.069 632.677 176.805Z" fill="url(#paint32_linear_650_908)"/>
<path d="M567.497 343.72V352.906C566.441 352.756 565.334 352.655 564.177 352.655C552.157 352.655 547.957 362.143 547.203 368.217C543.733 368.192 540.187 368.192 536.591 368.192C536.541 366.661 536.138 361.089 532.165 357.023C529.349 354.136 525.426 352.655 520.472 352.655C508.527 352.655 504.302 362.043 503.522 368.117C500.002 368.092 496.456 368.092 492.885 368.092C492.835 366.46 492.407 361.014 488.484 356.998C485.668 354.111 481.745 352.63 476.791 352.63C464.896 352.63 460.672 361.942 459.867 368.042C456.296 368.017 452.75 368.017 449.205 368.017C449.154 366.31 448.651 360.964 444.804 356.998C441.987 354.111 438.039 352.63 433.11 352.63C427.88 352.63 423.73 354.161 420.738 357.148C416.89 361.014 416.237 366.134 416.111 367.891C412.515 367.866 408.969 367.841 405.524 367.841C405.448 365.984 404.87 360.813 401.123 356.998C398.281 354.111 394.358 352.63 389.43 352.63C384.199 352.63 380.05 354.161 377.057 357.148C373.436 360.788 372.631 365.532 372.455 367.54C368.935 367.49 365.389 367.464 361.843 367.414C361.692 365.281 360.963 360.562 357.468 356.973C356.587 356.069 355.607 355.316 354.525 354.714L354.701 344.372C363.377 344.423 372.782 344.448 382.942 344.448C417.745 344.448 461.149 344.096 512.902 343.143C512.902 343.143 512.902 343.143 512.927 343.143C513.531 343.193 538.225 343.444 567.497 343.72Z" fill="url(#paint33_linear_650_908)"/>
<path d="M29.6237 287.42C16.4214 287.42 5.68359 298.113 5.68359 311.29C5.68359 324.468 16.4214 335.185 29.6237 335.185C42.826 335.185 53.5387 324.468 53.5387 311.29C53.5387 298.113 42.826 287.42 29.6237 287.42ZM29.6237 325.17C21.9538 325.17 15.7173 318.946 15.7173 311.29C15.7173 303.635 21.9538 297.41 29.6237 297.41C37.2936 297.41 43.5301 303.66 43.5301 311.29C43.5552 318.946 37.3187 325.17 29.6237 325.17Z" fill="url(#paint34_linear_650_908)"/>
<path d="M29.6243 321.832C35.4574 321.832 40.1861 317.112 40.1861 311.29C40.1861 305.468 35.4574 300.748 29.6243 300.748C23.7912 300.748 19.0625 305.468 19.0625 311.29C19.0625 317.112 23.7912 321.832 29.6243 321.832Z" fill="url(#paint35_linear_650_908)"/>
<path d="M177.89 392.815C177.262 393.568 176.633 394.271 176.004 395.024C175.828 394.673 175.501 394.346 175.099 394.196C142.735 382.173 63.2696 336.415 50.3691 328.961C54.3927 324.267 56.8571 318.193 56.9074 311.566C69.3804 318.343 126.012 348.965 157.949 364.226C158.376 364.452 158.879 364.452 159.307 364.276C159.483 364.201 178.041 356.495 190.866 351.576C192.325 351.024 194.89 350.246 195.67 351.35C199.442 356.521 183.247 386.289 177.89 392.815Z" fill="url(#paint36_linear_650_908)"/>
<path d="M174.018 397.358C152.442 422.056 129.809 435.635 104.939 438.798C92.8932 440.329 79.7915 438.848 68.6513 434.957C68.5507 434.907 68.4501 434.857 68.3495 434.832H68.2992C64.8038 433.577 61.5095 432.121 58.4918 430.389C24.7192 411.188 6.26114 370.802 13.8807 333.503C18.3318 336.641 23.7636 338.523 29.6229 338.523C36.6641 338.523 43.0766 335.812 47.93 331.42C58.1649 337.344 140.597 384.958 173.917 397.333C173.943 397.333 173.993 397.333 174.018 397.358Z" fill="url(#paint37_linear_650_908)"/>
<path d="M111.528 164.129L110.949 165.635C108.988 170.855 68.9033 253.66 47.327 290.582C42.5742 286.516 36.388 284.056 29.6486 284.056C27.9134 284.056 26.2286 284.232 24.6191 284.533C37.1927 241.964 60.8562 136.092 61.1077 134.937C61.1328 134.812 63.1698 124.42 81.2254 118.898C75.8439 125.675 74.3854 135.615 78.3335 143.346C81.6026 149.721 87.5625 153.034 95.157 153.034C99.1051 153.034 103.481 152.156 108.158 150.349C109.265 149.897 111.025 149.169 113.263 148.19C114.923 155.168 114.571 156.097 111.528 164.129Z" fill="url(#paint38_linear_650_908)"/>
<path d="M209.954 74.8479C207.213 63.076 208.596 51.53 213.45 43.3223C188.906 57.1775 121.612 95.455 88.0658 117.091C79.3397 122.714 77.5542 134.41 81.3263 141.815C85.4756 149.947 94.8052 151.905 106.951 147.211C109.114 146.383 113.791 144.35 120.003 141.539C120.003 141.539 120.003 141.539 120.028 141.539C120.103 141.463 120.204 141.463 120.279 141.413C147.966 128.963 205.981 101.755 215.134 97.463C212.821 87.3979 211.035 79.5165 209.954 74.8479ZM95.8362 142.317C90.4044 142.317 86.0037 137.899 86.0037 132.503C86.0037 127.081 90.4044 122.688 95.8362 122.688C101.268 122.688 105.669 127.106 105.669 132.503C105.669 137.924 101.243 142.317 95.8362 142.317Z" fill="url(#paint39_linear_650_908)"/>
<path d="M524.293 32.8309H521.754C472.465 32.8309 302.018 38.2776 282.855 38.9051C283.006 33.8851 284.641 18.8251 297.868 13.5541C308.858 9.16157 395.112 5.57227 453.907 5.57227C479.758 5.57227 500.303 6.27507 506.816 7.88147C522.407 11.7971 524.168 27.6603 524.293 32.8309Z" fill="url(#paint40_linear_650_908)"/>
<path d="M273.45 81.249C272.545 78.8896 271.64 76.3545 270.709 73.6437C264.951 57.2785 257.758 36.9224 240.13 34.6885C233.19 33.81 227.355 34.9646 222.754 38.1021C222.728 38.1272 222.703 38.1523 222.678 38.1523C222.653 38.1523 222.628 38.1774 222.603 38.2025C221.32 39.081 220.138 40.1101 219.082 41.3149C212.468 48.619 210.23 61.1941 213.223 74.1206C220.239 104.316 256.551 266.788 266.183 309.91C269.854 268.219 277.926 172.663 283.459 107.228L273.45 81.249ZM238.621 77.1577C230.097 77.1577 223.181 70.2552 223.181 61.7463C223.181 53.2374 230.097 46.3349 238.621 46.3349C247.121 46.3349 254.062 53.2374 254.062 61.7463C254.062 70.2552 247.121 77.1577 238.621 77.1577Z" fill="url(#paint41_linear_650_908)"/>
<path d="M515.643 36.1943C465.348 36.5457 331.691 40.6872 292.311 41.9422C290.601 62.0975 272.319 279.865 268.32 323.263C268.32 323.79 268.195 339.076 282.78 339.754C287.407 339.98 295.605 340.231 307.349 340.482C319.092 340.733 334.357 340.933 353.117 341.034C392.497 341.285 447.293 341.084 517.126 339.754H517.328C517.428 339.779 526.758 340.632 532.793 335.16C536.263 332.023 538.024 327.304 538.024 321.18C538.049 299.92 517.479 57.956 515.643 36.1943ZM329.78 322.159C326.913 322.359 324.021 322.435 321.104 322.435C318.439 322.435 315.773 322.385 313.158 322.334C311.548 322.284 309.939 322.259 308.355 322.234C303.3 322.159 300.182 317.992 300.182 311.341C300.182 308.404 300.71 301.376 305.488 299.368C306.242 299.042 307.047 298.891 307.927 298.866L310.341 298.816C316.553 298.715 322.965 298.615 329.302 298.966C329.403 298.966 329.529 298.991 329.629 299.016C329.931 299.092 336.821 300.974 336.821 311.115C336.796 320.126 331.591 322.159 329.78 322.159ZM507.948 283.856C506.263 285.688 503.975 286.717 501.485 286.743C484.259 287.019 440.252 287.621 391.642 287.621C363.05 287.621 332.873 287.395 305.614 286.793C303.149 286.743 300.861 285.688 299.201 283.881C297.541 282.049 296.712 279.664 296.888 277.205L312.705 61.0684C313.032 56.5504 316.704 52.9862 321.23 52.7854C340.141 52.0073 407.887 49.422 485.894 49.2714C485.894 49.2714 485.894 49.2714 485.919 49.2714C490.596 49.2714 494.519 52.9109 494.846 57.5795L510.286 277.179C510.462 279.664 509.633 282.024 507.948 283.856Z" fill="url(#paint42_linear_650_908)"/>
<path d="M686.217 318.644C685.211 303.911 670.676 203.988 668.387 190.81C666.627 180.619 650.809 180.494 650.684 180.494C638.638 180.293 617.037 179.841 595.36 179.364C595.335 179.364 595.335 179.364 595.335 179.364V179.339C566.893 178.712 538.301 178.034 530.857 177.858C536.264 243.997 541.444 310.286 541.444 321.204C541.444 328.333 539.307 333.855 535.082 337.67C534.026 338.599 532.919 339.377 531.788 340.029C568.528 340.381 647.641 341.134 661.899 341.134C670.978 341.134 677.616 338.925 681.665 334.633C685.135 330.893 686.694 325.522 686.217 318.644ZM571.495 263.7C570.062 265.231 568.1 266.135 565.988 266.21H565.711C563.7 266.21 561.788 265.457 560.305 264.102C558.746 262.646 557.866 260.688 557.79 258.58L556.13 211.492C556.055 209.384 556.809 207.351 558.243 205.82C559.676 204.289 561.638 203.385 563.75 203.31C565.837 203.209 567.874 203.988 569.433 205.418C570.992 206.849 571.872 208.807 571.948 210.915L573.608 258.003C573.708 260.136 572.954 262.169 571.495 263.7ZM594.555 257.551C594.555 261.793 591.185 265.332 586.91 265.457C586.81 265.482 586.734 265.482 586.634 265.482C582.384 265.482 578.863 262.119 578.713 257.852L577.028 210.765C576.877 206.422 580.297 202.732 584.672 202.582C586.76 202.481 588.797 203.26 590.356 204.69C591.89 206.146 592.795 208.104 592.87 210.212L594.53 257.3V257.551H594.555ZM607.808 264.729C607.707 264.755 607.632 264.755 607.531 264.755C603.281 264.755 599.786 261.391 599.61 257.124L597.95 210.037C597.875 207.928 598.629 205.92 600.062 204.364C601.521 202.808 603.482 201.929 605.57 201.854C609.945 201.703 613.617 205.117 613.768 209.484L615.452 256.572C615.603 260.914 612.183 264.579 607.808 264.729Z" fill="url(#paint43_linear_650_908)"/>
<path d="M570.262 258.153C570.313 259.383 569.885 260.538 569.03 261.441C568.2 262.32 567.069 262.847 565.862 262.897C564.629 262.922 563.498 262.496 562.592 261.667C561.712 260.839 561.184 259.709 561.134 258.505L559.449 211.417C559.399 210.187 559.851 209.033 560.681 208.154C561.511 207.25 562.643 206.748 563.85 206.698H564.001C565.158 206.698 566.264 207.125 567.119 207.928C567.999 208.756 568.527 209.886 568.578 211.091L570.262 258.153Z" fill="url(#paint44_linear_650_908)"/>
<path d="M591.185 257.401C591.285 259.911 589.298 262.044 586.784 262.12C584.319 262.22 582.132 260.237 582.056 257.702L580.371 210.614C580.296 208.104 582.257 205.971 584.772 205.896H584.948C586.105 205.896 587.211 206.322 588.066 207.125C588.946 207.954 589.475 209.083 589.525 210.288L591.185 257.401Z" fill="url(#paint45_linear_650_908)"/>
<path d="M612.107 256.672C612.207 259.182 610.221 261.316 607.706 261.391C605.166 261.441 603.054 259.508 602.978 256.973L601.318 209.886C601.268 208.681 601.696 207.526 602.551 206.623C603.381 205.744 604.512 205.217 605.719 205.167H605.87C608.335 205.167 610.346 207.1 610.447 209.559L612.107 256.672Z" fill="url(#paint46_linear_650_908)"/>
<path d="M494.971 276.125C490.797 276.702 329.83 278.309 300.332 276.301L316.049 61.3191C316.275 58.4828 318.564 56.2489 321.38 56.1234C340.115 55.3453 406.956 52.7851 484.158 52.6094C485.868 77.7596 498.089 256.647 499.045 268.369C499.07 268.369 499.271 275.522 494.971 276.125Z" fill="url(#paint47_linear_650_908)"/>
<path d="M182.795 341.712C181.965 341.611 181.311 340.883 181.311 340.055C181.211 331.195 173.717 329.789 173.415 329.739C172.56 329.588 171.956 328.835 172.032 327.982C172.711 317.666 164.312 314.553 164.211 314.528C163.532 314.277 163.079 313.625 163.105 312.897C163.205 309.81 162.426 307.45 160.816 305.944C158.151 303.434 153.901 303.811 153.85 303.811C153.373 303.861 152.87 303.685 152.518 303.334C146.809 297.762 138.561 301.577 138.209 301.727C137.429 302.079 136.499 301.828 136.071 301.075C132.35 294.95 125.233 297.36 124.931 297.46C124.428 297.636 123.85 297.561 123.422 297.26C122.97 296.958 122.718 296.456 122.693 295.929C122.467 287.471 112.71 286.893 112.307 286.868C111.98 286.843 111.679 286.743 111.402 286.567C102.299 280.066 94.1259 287.621 93.7739 287.947C93.2206 288.475 92.3908 288.55 91.7369 288.173C83.036 282.902 77.5791 289.654 77.3528 289.93C76.9001 290.508 76.1205 290.708 75.4164 290.457C68.6518 287.822 64.4774 293.896 64.3014 294.147C63.7984 294.9 62.7674 295.101 61.9878 294.624C56.38 291.01 52.0547 295.377 51.8787 295.578C51.8535 295.578 51.8535 295.578 51.8535 295.578C54.3431 299.067 56.0028 303.183 56.6063 307.601C63.2452 311.215 124.554 344.523 158.654 360.863C162.099 359.432 177.539 353.057 188.956 348.664C187.271 342.364 182.996 341.737 182.795 341.712ZM123.045 313.298C122.718 313.575 122.316 313.725 121.939 313.725C121.461 313.725 121.008 313.549 120.681 313.173C115.325 307.174 107.856 311.742 107.529 311.943C106.825 312.395 105.895 312.244 105.367 311.617C101.016 306.572 95.7856 309.759 95.1821 310.136C94.4025 310.638 93.3715 310.437 92.8686 309.659C92.3656 308.906 92.5668 307.852 93.3464 307.35C95.9868 305.618 102.022 303.76 106.976 308.429C110.899 306.496 118.016 305.141 123.196 310.939C123.8 311.642 123.724 312.696 123.045 313.298ZM166.374 345.401C166.298 345.426 166.248 345.426 166.173 345.426C165.318 345.426 164.613 344.799 164.513 343.946C163.532 335.487 153.901 334.633 153.8 334.608C153.121 334.558 152.568 334.106 152.342 333.479C150.481 327.957 142.408 328.484 142.333 328.509C141.403 328.609 140.598 327.882 140.522 326.978C140.447 326.074 141.126 325.246 142.056 325.171C142.484 325.146 151.939 324.468 155.108 331.396C159.609 332.123 166.852 335.311 167.807 343.569C167.933 344.448 167.279 345.301 166.374 345.401Z" fill="url(#paint48_linear_650_908)"/>
<path d="M506.942 277.43C507.042 278.987 506.514 280.467 505.483 281.622C504.427 282.752 502.994 283.404 501.435 283.429C474.1 283.856 379.244 285.161 305.714 283.479C304.18 283.429 302.747 282.802 301.691 281.647C300.634 280.493 300.131 279.012 300.257 277.455L300.333 276.301C329.83 278.309 490.797 276.728 494.972 276.125C499.247 275.548 499.046 268.394 499.046 268.394C498.09 256.673 485.869 77.785 484.159 52.6348H485.919C488.836 52.6348 491.3 54.9189 491.501 57.8305L506.942 277.43Z" fill="#79B3C6"/>
<path opacity="0.8" d="M494.116 95.1288C477.016 129.365 420.209 242.968 399.513 284.282C386.889 284.307 373.888 284.282 360.887 284.207C377.937 251.025 456.547 98.191 481.266 52.6345C482.8 52.6345 484.359 52.6094 485.918 52.6094H485.944C488.861 52.6094 491.325 54.8935 491.526 57.8051L494.116 95.1288Z" fill="white"/>
<path opacity="0.8" d="M447.343 52.8857C429.614 85.089 351.331 227.456 322.563 283.781C316.854 283.68 311.221 283.58 305.714 283.454C304.18 283.404 302.747 282.777 301.691 281.622C300.634 280.467 300.131 278.987 300.257 277.43L302.018 253.234C328.171 205.167 383.897 103.036 412.64 53.3877C423.629 53.212 435.272 53.0112 447.343 52.8857Z" fill="white"/>
<path d="M567.496 343.719V350.722C518.685 351.249 378.766 350.697 354.625 350.597L354.726 344.422C363.401 344.472 372.806 344.498 382.966 344.498C417.77 344.498 461.174 344.146 512.926 343.192C512.926 343.192 512.926 343.192 512.952 343.192C513.53 343.192 538.225 343.443 567.496 343.719Z" fill="#E77903"/>
<path d="M509.255 281.998C506.942 289.077 499.775 290.131 499.775 290.131C499.775 290.131 418.122 291.21 409.421 290.884C400.695 290.583 318.615 290.884 308.656 290.281C298.723 289.654 297.365 280.769 297.365 280.769C297.742 281.898 298.371 282.952 299.201 283.856C300.861 285.688 303.149 286.717 305.614 286.767C310.618 286.868 315.698 286.993 320.853 287.069C333.326 287.295 346.226 287.42 359.152 287.495C370.041 287.571 380.954 287.596 391.642 287.596H397.803C443.923 287.546 484.988 286.968 501.46 286.717C503.949 286.667 506.238 285.638 507.923 283.831C508.476 283.279 508.903 282.676 509.255 281.998Z" fill="#F29E04"/>
<path d="M535.282 332.249C534.603 333.353 533.774 334.332 532.818 335.185C526.783 340.657 517.428 339.804 517.353 339.778H517.151C447.318 341.109 392.522 341.31 353.141 341.059C349.621 341.034 346.226 341.008 342.957 340.983C328.774 340.858 316.904 340.682 307.374 340.481C295.63 340.23 287.457 339.979 282.805 339.753C275.512 339.427 271.891 335.411 270.105 331.445C281.925 331.696 350.803 333.077 403.612 333.077C461.551 333.077 535.282 332.249 535.282 332.249Z" fill="#F29E04"/>
<path d="M516.045 40.9382C485.064 41.5657 291.934 46.4351 291.934 46.4351C292.084 44.4773 292.235 42.9713 292.311 41.9422C331.666 40.6872 465.349 36.5457 515.643 36.1943C515.718 37.2736 515.869 38.88 516.045 40.9382Z" fill="#FFF09D"/>
<path d="M684.531 330.216C683.801 331.898 682.821 333.353 681.613 334.659C677.565 338.976 670.926 341.159 661.848 341.159C653.524 341.159 623.222 340.908 592.09 340.607C576.146 340.457 560.002 340.306 546.498 340.181C541.091 340.13 536.112 340.08 531.736 340.055C532.868 339.402 534 338.624 535.031 337.696C536.187 336.667 537.168 335.487 537.998 334.207C538.325 333.73 538.601 333.228 538.878 332.701H538.903C538.903 332.701 609.542 333.479 631.344 333.73C639.492 333.78 682.695 334.332 684.531 330.216Z" fill="#E77903"/>
<path d="M669.141 195.403C666.149 186.719 658.278 186.166 651.538 185.765C645.352 185.388 547.379 183.305 531.26 182.954C531.134 181.247 530.983 179.54 530.832 177.858C538.301 178.034 566.868 178.712 595.309 179.339V179.364C595.335 179.364 595.335 179.364 595.335 179.364C617.011 179.841 638.613 180.293 650.658 180.494C650.809 180.494 666.602 180.619 668.362 190.81C668.563 191.839 668.815 193.395 669.141 195.403Z" fill="#FFE033"/>
<path d="M278.58 164.982C273.903 220.202 268.874 279.438 266.183 309.91C261.48 288.851 250.39 239.253 239.477 190.559L260.776 262.546C261.48 264.931 264.951 264.68 265.303 262.195L278.58 164.982Z" fill="#E77903"/>
<path d="M271.413 75.6517C261.48 52.8107 253.206 38.6794 238.621 37.8762C224.438 37.0981 217.221 43.8751 216.818 44.2767C217.497 43.1974 218.252 42.2185 219.082 41.3149C220.163 40.1352 221.345 39.081 222.602 38.2025C222.653 38.1774 222.678 38.1523 222.678 38.1523C222.703 38.1272 222.728 38.1021 222.753 38.1021C227.355 34.9646 233.189 33.81 240.13 34.6885C257.758 36.9224 264.95 57.3036 270.709 73.6437C270.96 74.3214 271.187 74.974 271.413 75.6517Z" fill="#FFE033"/>
<path d="M215.135 97.4883C205.981 101.78 147.967 128.989 120.28 141.438C120.204 141.489 120.103 141.489 120.028 141.564C120.003 141.564 120.003 141.564 120.003 141.564C113.792 144.375 109.139 146.408 106.952 147.236C97.8734 150.75 90.3292 150.525 85.4004 146.76C85.7525 146.86 92.6176 148.416 105.669 143.948C118.217 139.656 202.989 97.7644 213.953 92.3428C214.305 93.9994 214.707 95.7062 215.135 97.4883Z" fill="#F29E04"/>
<path d="M213.449 43.3223C212.493 44.9538 211.663 46.7108 210.985 48.5933C203.44 53.4376 190.741 61.2939 173.817 71.0076C145.074 87.4983 81.4766 124.646 81.4766 124.646C82.8848 121.71 85.0726 119.049 88.0651 117.116C121.637 95.455 188.905 57.2026 213.449 43.3223Z" fill="#FFF09D"/>
<path d="M114.219 153.436C91.3849 162.272 81.7786 156.775 75.0643 147.463C68.3249 138.15 72.9268 127.483 72.9268 127.483C64.6283 130.219 61.334 134.662 61.1328 134.938C61.2083 134.486 63.2452 125.4 78.5347 119.827C79.3897 119.501 80.295 119.2 81.2254 118.924C80.5967 119.702 80.0183 120.555 79.4903 121.434C75.5673 127.985 74.838 136.544 78.3335 143.371C79.616 145.881 81.3511 147.939 83.4132 149.471C86.5566 151.855 90.555 153.085 95.1569 153.085C99.105 153.085 103.481 152.206 108.158 150.399C109.265 149.947 111.025 149.22 113.263 148.241C113.791 150.399 114.118 152.006 114.219 153.436Z" fill="#FDCC03"/>
<path d="M50.3445 285.312C49.2883 287.169 48.2824 288.926 47.3017 290.583C42.5488 286.516 36.3626 284.057 29.6232 284.057C27.888 284.057 26.2032 284.232 24.5938 284.533C25.147 282.676 25.7254 280.668 26.3038 278.585C26.3038 278.61 38.7265 276.025 50.3445 285.312Z" fill="#E77903"/>
<path d="M140.724 426.148C129.257 433.025 117.362 437.192 104.939 438.773C92.8938 440.304 79.7921 438.823 68.6519 434.933C68.5513 434.883 68.4507 434.833 68.3501 434.807H68.2999C64.8044 433.552 61.5101 432.097 58.4925 430.365C34.0997 416.51 17.6786 391.56 13.3281 364.703C13.3533 364.703 13.3533 364.703 13.3533 364.703C14.4346 365.23 15.9686 370.953 16.4715 372.032C19.5898 378.634 23.2864 384.934 27.4105 390.958C39.8081 409.005 56.0029 424.968 77.3528 431.645C98.4513 438.246 121.335 437.117 140.724 426.148Z" fill="#E77903"/>
<path d="M195.621 357.675L158.629 372.409L55.752 319.096C56.4812 316.712 56.8584 314.177 56.8836 311.566C58.317 312.345 60.3539 313.449 62.8686 314.804C82.1062 325.221 129.685 350.722 157.925 364.226C158.352 364.452 158.855 364.452 159.283 364.276C159.459 364.201 178.018 356.495 190.843 351.576C192.301 351.024 194.866 350.246 195.646 351.35C196.476 352.429 196.35 354.713 195.621 357.675Z" fill="#FFF09D"/>
<path d="M332.018 305.091H304.582C305.085 303.836 305.814 302.857 306.795 302.455C307.147 302.305 307.549 302.229 308.002 302.204L310.391 302.154C313.333 302.104 316.326 302.054 319.318 302.054C322.537 302.054 325.731 302.104 328.899 302.305C329.327 302.455 330.861 303.133 332.018 305.091Z" fill="#F15B64"/>
<path d="M188.982 348.664C177.565 353.081 162.125 359.432 158.68 360.862C130.439 347.308 83.5147 322.133 64.4783 311.842V311.817C60.5302 309.684 57.764 308.178 56.6324 307.575C56.3809 305.843 55.9786 304.162 55.4505 302.555C55.023 301.325 54.5452 300.12 53.9668 298.966L159.66 353.257L185.839 343.192C186.995 344.221 188.228 345.903 188.982 348.664Z" fill="#913D01"/>
<path d="M181.311 339.779C178.519 333.278 167.857 331.396 167.857 331.396C169.542 317.39 158.427 315.959 158.427 315.959C160.061 305.794 151.159 307.425 151.159 307.425C148.167 301.727 136.423 307.425 136.423 307.425C132.55 295.427 120.429 302.054 120.429 302.054C120.429 288.7 111.326 290.583 111.326 290.583C105.416 282.702 93.0943 292.114 93.0943 292.114C82.2056 287.194 78.7101 294.147 78.7101 294.147C70.5121 289.805 64.7786 293.796 64.3008 294.122C64.6528 293.595 68.8021 287.872 75.3907 290.457C76.0948 290.734 76.8744 290.508 77.327 289.93C77.4779 289.755 79.7914 286.868 83.7647 286.266C85.9274 285.939 88.6181 286.291 91.7112 288.173C92.365 288.55 93.1949 288.475 93.7481 287.947C94.075 287.621 102.273 280.066 111.376 286.567C111.653 286.743 111.955 286.868 112.282 286.868C112.709 286.893 122.466 287.445 122.667 295.929C122.693 296.456 122.944 296.958 123.397 297.26C123.849 297.561 124.403 297.636 124.905 297.46C125.207 297.36 132.324 294.925 136.046 301.075C136.498 301.828 137.404 302.104 138.183 301.727C138.535 301.577 146.784 297.762 152.492 303.334C152.844 303.685 153.347 303.861 153.825 303.811C153.875 303.811 158.125 303.434 160.79 305.944C162.425 307.45 163.179 309.81 163.079 312.897C163.054 313.625 163.506 314.277 164.185 314.528C164.236 314.553 167.128 315.608 169.391 318.569C171 320.653 172.283 323.69 172.006 327.982C171.956 328.835 172.559 329.613 173.389 329.739C173.716 329.789 181.059 331.195 181.311 339.779Z" fill="#E77903"/>
<path d="M643.113 468.24C640.674 470.248 637.933 471.98 634.89 473.461C620.431 480.514 601.168 480.489 587.136 480.489C569.332 480.464 361.943 478.983 294.247 476.448C293.366 476.398 284.188 475.871 273.978 471.553C273.953 471.528 273.928 471.503 273.902 471.478C273.626 471.252 273.324 471.177 272.997 471.152C265.327 467.763 257.23 462.241 251.723 453.23C252.703 454.134 267.188 467.261 285.294 470.223C304.054 473.285 389.026 474.189 419.454 474.189C449.882 474.189 591.21 476.322 591.21 476.322C591.21 476.322 628.553 477.05 643.113 468.24Z" fill="#333333"/>
<path d="M652.242 395.225C637.053 374.166 599.131 375.797 599.131 375.797C599.131 375.797 521.25 375.597 463.286 375.597C405.322 375.597 295.605 374.944 295.605 374.944C257.758 377.203 250.667 396.806 249.309 399.818C260.147 371.254 287.407 370.2 291.128 370.2C307.801 370.15 324.7 370.326 341.297 370.526C345.698 370.577 350.048 370.627 354.399 370.677C364.231 370.802 374.064 370.928 383.896 371.028C405.498 371.254 432.984 371.33 461.4 371.38C470.805 371.405 480.311 371.405 489.741 371.43C524.218 371.48 556.808 371.53 582.182 371.731C610.472 371.982 639.492 372.208 652.242 395.225Z" fill="#666666"/>
<path d="M569.107 435.887C506.566 434.707 356.286 433.678 335.59 433.552C335.942 432.473 336.244 431.369 336.495 430.239C352.564 430.315 525.25 431.745 568.201 432.348C568.453 433.552 568.729 434.732 569.107 435.887Z" fill="#666666"/>
<path d="M569.835 412.769C569.458 413.748 569.106 414.777 568.829 415.806L336.293 414.074C336.016 412.945 335.664 411.815 335.287 410.711C346.93 410.786 480.386 411.539 569.835 412.769Z" fill="#B3B3B3"/>
<path d="M328.9 439.827C323.192 448.737 313.183 454.636 301.842 454.636C289.696 454.636 279.059 447.834 273.627 437.869C274.306 438.647 285.32 451.097 300.308 451.097C318.238 451.072 328.9 439.827 328.9 439.827Z" fill="#666666"/>
<path d="M330.785 408.603C330.182 407.725 320.299 393.744 301.841 393.744C283.383 393.744 273.5 407.75 272.896 408.603C278.102 397.886 289.116 390.456 301.841 390.456C314.565 390.456 325.605 397.886 330.785 408.603Z" fill="#B3B3B3"/>
<path d="M630.063 442.638C624.354 451.549 614.346 457.447 603.004 457.447C590.858 457.447 580.221 450.645 574.789 440.681C575.468 441.459 586.483 453.908 601.47 453.908C619.4 453.908 630.063 442.638 630.063 442.638Z" fill="#666666"/>
<path d="M631.949 411.439C631.346 410.561 621.463 396.58 603.005 396.58C584.547 396.58 574.664 410.586 574.061 411.439C579.266 400.722 590.28 393.292 603.005 393.292C615.729 393.292 626.744 400.696 631.949 411.439Z" fill="#B3B3B3"/>
<path d="M524.293 32.8311H521.754C472.465 32.8311 302.018 38.2778 282.855 38.9053C282.906 37.575 283.031 35.5419 283.484 33.1574C295.932 32.7307 488.585 26.5059 523.891 28.6143C524.193 30.3211 524.268 31.802 524.293 32.8311Z" fill="#E77903"/>
<path d="M517.253 13.855C511.72 11.2446 477.646 9.56287 391.014 11.1944C305.539 12.8008 289.419 20.0798 288.941 20.2806C291.079 17.5196 293.971 15.0849 297.894 13.5287C308.883 9.13618 395.138 5.54688 453.932 5.54688C479.783 5.54688 500.329 6.24967 506.842 7.85607C511.393 9.03577 514.788 11.2195 517.253 13.855Z" fill="#FDCC03"/>
<path d="M632.853 168.446C632.803 171.207 632.752 174.018 632.702 176.779C622.165 176.553 609.642 176.302 596.993 176.026C596.968 174.445 596.918 171.759 596.893 168.346L632.853 168.446Z" fill="#666666"/>
<path d="M623.372 101.529C623.347 104.19 623.322 106.825 623.297 109.21C616.935 108.959 611.252 109.034 606.675 109.185C606.65 107.603 606.599 104.868 606.574 101.529H623.372Z" fill="#666666"/>
<path d="M623.322 86.0929C617.312 85.6411 610.02 85.616 606.6 85.6411C606.625 84.7124 606.625 83.7837 606.65 82.9052C609.668 82.7797 616.633 82.5789 623.297 83.1813C623.323 83.9092 623.322 84.9132 623.322 86.0929Z" fill="#B3B3B3"/>
<path d="M6.84003 342.414C6.28679 348.764 6.38738 355.215 7.1418 361.641C7.89621 368.167 9.3296 374.643 11.4168 380.968L12.5736 384.256C13.1017 385.737 13.6801 387.218 14.3087 388.673C22.7582 408.603 37.0921 424.717 55.7261 435.309C59.1713 437.267 62.9937 438.974 67.0424 440.354C67.0424 440.354 68.6266 440.932 70.5127 441.459C78.3586 443.768 86.9338 445.023 95.4587 445.023C98.9541 445.023 102.374 444.822 105.694 444.395C112.182 443.567 118.544 442.061 124.755 439.903C124.755 439.903 126.566 439.3 128.251 438.622C129.684 438.07 131.117 437.468 132.526 436.815C150.003 429.009 166.474 415.606 182.292 396.354C184.279 393.944 188.528 387.092 192.376 379.763C192.627 379.261 192.879 378.759 193.155 378.282C199.392 367.163 201.529 356.872 201.529 356.872C201.63 356.244 201.705 355.692 201.756 355.165C202.058 352.128 201.58 350.346 200.976 349.091C199.744 346.48 197.28 344.999 194.212 344.999C194.086 344.999 193.96 344.999 193.834 345.025C193.508 344.196 193.155 343.468 192.753 342.791C191.647 340.858 190.314 339.402 188.931 338.373C188.227 337.821 187.472 337.369 186.793 337.018C185.938 331.696 182.946 328.308 179.903 326.325C179.903 326.325 178.193 325.321 177.514 325.07C177.514 325.07 177.64 324.091 177.539 323.589C177.438 322.836 177.262 322.108 177.086 321.405C175.578 315.858 171.881 312.269 168.738 310.361C168.411 307.023 167.204 304.262 165.142 302.129C161.998 298.866 157.799 298.138 155.208 298.037C152.316 295.778 148.771 294.574 144.823 294.574C142.534 294.574 140.472 294.95 138.913 295.402C136.247 292.666 132.651 291.185 128.527 291.185C128.225 291.185 127.924 291.21 127.647 291.21C125.359 284.383 118.418 281.773 113.791 281.22C110.648 279.187 107.303 278.183 103.782 278.183C98.7781 278.183 94.6791 280.292 92.265 281.923C89.9766 280.894 87.6379 280.392 85.3495 280.392C81.4517 280.392 78.3586 281.873 76.2462 283.329C75.7684 283.655 75.3409 283.981 74.9637 284.308C74.0081 284.107 73.0526 284.007 72.097 284.007C71.1162 284.007 70.1606 284.107 69.2553 284.308C66.2377 284.96 63.7481 286.542 61.9626 288.198C60.5041 287.671 59.0456 287.42 57.5367 287.42C56.8578 287.42 56.2291 287.47 55.6256 287.546C57.3607 284.458 59.2216 281.12 61.1076 277.631C80.9488 241.236 107.781 186.142 114.696 171.182C115.551 169.325 116.105 168.095 116.306 167.568L116.859 166.087C117.538 164.33 118.091 162.849 118.544 161.518C120.455 156.323 119.801 151.905 119.801 151.905C119.701 151.002 119.525 150.023 119.298 148.918C119.248 148.642 119.198 148.366 119.122 148.09L119.675 147.839C120.027 147.688 120.38 147.513 120.732 147.362L124.001 145.906C149.802 134.26 199.065 111.193 214.229 104.09C215.26 108.658 216.366 113.577 217.548 118.823C222.301 139.983 228.135 165.936 234.02 192.166L234.975 196.407C235.126 197.135 235.302 197.863 235.478 198.616C239.326 215.885 243.173 233.079 246.719 248.917L247.448 252.205C255.495 288.198 261.807 316.436 262.813 320.929L262.662 322.66C262.637 322.761 262.637 322.836 262.637 322.937C262.562 326.375 263.366 331.245 265.831 335.562C267.541 338.574 270.056 341.335 273.626 343.142C276.066 344.422 279.008 345.225 282.529 345.376C286.275 345.552 292.185 345.752 300.106 345.928C311.775 346.204 327.844 346.455 347.785 346.606C348.188 346.631 348.59 346.631 348.993 346.631L348.967 348.011L348.917 350.421C347.936 350.296 346.88 350.22 345.799 350.22C332.471 350.22 327.844 358.93 326.687 364.603C324.6 364.577 322.513 364.552 320.425 364.552C319.193 358.202 314.516 350.07 302.37 349.317C301.816 349.266 301.263 349.266 300.71 349.266C293.367 349.266 287.659 352.63 284.666 358.729C283.484 361.164 282.931 363.548 282.679 365.255C280.19 365.707 277.298 366.41 274.205 367.539C272.57 368.117 270.911 368.794 269.201 369.623C268.245 368.794 267.013 367.916 265.529 367.163C263.517 366.134 261.028 365.356 258.186 365.356C256.099 365.356 254.037 365.782 251.975 366.585C251.849 366.636 251.698 366.686 251.547 366.761C249.284 367.69 247.071 369.171 244.883 371.078C240.08 375.32 237.741 380.014 237.867 385.034C237.917 386.967 238.345 388.749 238.974 390.33C239.426 391.434 239.954 392.464 240.508 393.367C241.74 395.325 243.098 396.731 243.978 397.584C242.947 400.295 242.067 403.206 241.363 406.218C239.099 406.394 235.654 407.022 232.41 408.929C228.538 411.213 223.91 415.932 223.91 425.47C223.91 439.375 233.014 444.421 241.664 444.521C242.469 447.182 243.5 449.742 244.682 452.151C243.073 454.059 240.658 457.523 239.904 461.965C239.753 462.744 239.678 463.597 239.653 464.45C239.577 469.47 241.765 474.139 246.141 478.381C250.064 482.171 254.414 484.079 259.066 484.079C265.655 484.079 271.011 480.088 273.802 477.477C275.689 478.205 277.6 478.833 279.561 479.41C280.19 485.007 282.881 492.512 289.821 495.951C294.976 498.486 301.414 498.31 306.67 496.152C309.134 495.148 311.397 493.642 313.158 491.634C313.711 491.006 317.961 482.798 317.357 482.773C319.369 482.824 321.431 482.874 323.569 482.924C323.393 482.924 325.404 488.245 325.656 488.697C326.913 490.906 328.648 492.838 330.761 494.269C337.978 499.214 349.898 499.289 356.235 492.788C359.077 489.877 360.309 486.338 360.837 483.677C362.999 483.702 365.212 483.752 367.425 483.777C367.224 483.777 369.689 489.751 370.016 490.253C371.6 492.738 373.762 494.796 376.378 496.202C383.419 499.992 394.081 499.615 399.89 493.692C402.807 490.68 404.04 487.04 404.543 484.355C406.705 484.38 408.893 484.405 411.081 484.455C412.062 489.651 415.456 496.102 423.478 498.561C423.478 498.561 431.023 500.042 436.555 498.737C439.296 497.959 441.635 496.578 443.546 494.621C446.614 491.483 447.796 487.643 448.248 484.932C450.436 484.957 452.599 484.982 454.762 485.007C454.51 485.007 457.553 491.91 457.93 492.462C459.791 495.148 462.381 497.457 465.424 498.712C472.214 501.523 481.92 500.971 487.227 495.524C490.471 492.211 491.627 488.12 492.03 485.384L498.492 485.434C499.725 491.056 503.396 498.084 511.619 500.494C517.956 502.351 526.154 501.297 530.907 496.428C534.352 492.914 535.434 488.496 535.761 485.76C537.898 485.785 540.01 485.81 542.047 485.81C541.821 485.81 544.562 492.738 544.914 493.29C546.624 496.102 549.063 498.586 552.031 500.092C557.689 502.929 567.396 502.477 572.576 498.787C576.65 495.901 578.712 490.956 579.793 486.087C581.78 486.087 583.767 486.112 585.753 486.112C585.351 486.112 588.695 493.642 589.173 494.344C593.775 501.197 602.652 502.703 610.171 500.494C614.094 499.339 617.288 496.955 619.626 493.591C620.758 491.985 621.638 490.203 622.292 488.371C622.468 487.919 623.424 483.275 623.549 483.25C626.919 482.472 630.062 481.518 632.98 480.389C635.117 482.547 639.593 486.087 645.603 486.087C645.981 486.087 646.383 486.061 646.785 486.036C651.035 485.735 655.134 483.677 659.032 479.912C663.433 475.67 665.595 471.001 665.52 465.981C665.419 460.108 662.125 455.515 660.264 453.381C661.32 450.595 662.175 447.633 662.854 444.471C671.404 444.27 680.332 439.175 680.332 425.42C680.332 411.841 670.977 406.62 662.452 406.143C661.773 403.206 660.893 400.445 659.887 397.86C662.326 395.225 665.847 390.38 665.973 384.482C666.073 379.537 663.86 375.019 659.384 371.053C655.411 367.539 651.186 365.682 646.811 365.607C646.685 365.581 646.584 365.581 646.458 365.581C639.794 365.581 634.891 369.698 632.778 371.882C630.716 371.129 628.529 370.426 626.24 369.823C626.089 367.69 625.536 365.13 624.379 362.595C622.845 359.206 620.18 355.893 615.93 353.81C613.792 352.73 611.227 351.977 608.21 351.701C607.43 351.626 606.65 351.601 605.896 351.601C602.878 351.601 600.364 352.178 598.251 353.207C592.543 355.868 589.827 361.44 588.846 366.008C586.583 365.958 584.42 365.958 582.459 365.933C581.906 361.54 579.567 355.491 573.607 352.329C573.481 352.253 573.33 352.178 573.18 352.103V346.129C579.064 346.179 585.125 346.229 591.21 346.305C622.066 346.581 653.349 346.857 661.849 346.857C672.561 346.857 680.608 344.046 685.763 338.549C687.172 337.043 688.328 335.386 689.259 333.554C691.422 329.312 692.302 324.217 691.899 318.293C691.195 307.927 684.431 259.885 679.376 225.373L678.848 221.758C677.415 211.969 676.132 203.486 675.227 197.612C674.648 193.872 674.221 191.162 673.995 189.881C671.43 175.198 651.966 174.847 650.683 174.847C647.515 174.796 643.667 174.721 639.367 174.646C639.065 174.621 638.738 174.621 638.437 174.621C638.437 174.319 638.462 174.043 638.462 173.742C638.512 171.307 638.562 168.848 638.587 166.438C638.965 138.326 638.386 111.896 638.361 111.595C638.311 109.561 636.752 107.88 634.715 107.679C632.854 107.503 630.943 107.353 629.006 107.227C629.107 100.049 629.057 91.3891 629.006 86.1934C628.981 83.4575 628.956 81.7005 628.956 81.6503C628.931 79.6172 627.397 77.9355 625.385 77.7096C621.739 77.3331 617.564 77.1323 612.962 77.1323C608.285 77.1323 604.89 77.3331 604.764 77.3582C602.677 77.4837 601.043 79.1905 600.992 81.2487C600.967 82.1523 600.942 83.081 600.917 83.9846C600.791 90.0086 600.791 96.4844 600.841 101.58C600.867 103.738 600.892 105.671 600.917 107.177C597.17 107.428 594.957 107.679 594.831 107.679C592.87 107.905 591.361 109.536 591.286 111.544C591.185 114.406 591.109 117.644 591.059 121.082C590.883 132.402 590.933 146.082 591.009 157.176C591.059 162.096 591.109 166.513 591.135 170.002C591.16 171.358 591.185 172.562 591.185 173.617C588.746 173.566 586.332 173.516 583.943 173.466C561.587 172.964 540.84 172.462 532.693 172.286C532.466 169.726 532.265 167.166 532.064 164.606C529.6 134.536 527.16 105.219 525.199 82.0017L524.922 78.5881C523.992 67.5692 523.187 58.0312 522.558 50.6769C522.231 46.6358 521.93 43.2473 521.703 40.6118C521.628 39.8839 521.578 39.1811 521.527 38.5787H521.804C522.986 38.5787 524.143 38.5787 525.174 38.6038H525.928C528.065 38.6038 529.826 36.9221 529.952 34.7886C530.027 33.1822 529.977 31.3248 529.725 29.2666C529.147 24.2717 527.462 18.2979 523.891 13.2026C520.521 8.3583 515.492 4.2921 508.174 2.4347C500.353 0.4016 473.597 0 452.549 0C395.716 0 308.581 3.1375 295.756 8.2579C291.229 10.0651 287.759 12.7257 285.169 15.7628C280.869 20.7577 278.857 26.7566 277.927 31.6511C277.474 34.0607 277.273 36.1691 277.197 37.7755C277.097 39.5074 277.147 40.6369 277.172 40.8377C277.273 42.9712 279.058 44.6529 281.196 44.6529H281.321C281.321 44.6529 283.107 44.5776 286.376 44.5023C286.275 45.8326 286.125 47.4139 285.974 49.2964C285.596 53.965 285.068 60.24 284.44 67.77C283.886 74.0952 283.283 81.2989 282.629 89.1803L278.807 79.2407C277.927 76.9566 277.046 74.4466 276.116 71.786C275.286 69.4768 274.431 67.0421 273.501 64.5572C273.476 64.4819 273.425 64.3815 273.4 64.3062C271.263 58.6085 268.748 52.6598 265.529 47.3135C259.997 38.0516 252.327 30.5216 240.86 29.0658C239.124 28.8399 237.44 28.7395 235.805 28.7395C229.669 28.7395 224.212 30.2957 219.661 33.3579C219.384 33.4834 219.132 33.634 218.831 33.8097L217.422 34.5878L215.788 35.4914C214.983 35.9432 214.053 36.4703 213.022 37.0476C210.733 38.3528 207.917 39.9341 204.698 41.7664C196.148 46.6107 182.87 54.1407 168.159 62.6245C148.494 73.9446 123.322 88.603 102.877 101.128L99.9097 102.935C98.8535 103.588 97.8225 104.215 96.8166 104.843C92.7931 107.328 89.0462 109.712 85.601 111.896C81.7535 112.699 78.4089 113.703 75.4918 114.832C64.1505 119.225 59.1713 125.575 57.0338 129.742C56.0028 131.75 55.6256 133.256 55.525 133.808C54.9717 136.293 33.6972 231.422 20.9224 276.727C20.2183 279.237 19.5394 281.572 18.8855 283.755C11.2659 286.717 5.30605 292.666 2.2381 300.02C1.25736 302.38 0.578385 304.89 0.251472 307.5C0.0754415 308.755 0 310.01 0 311.265C0 318.971 3.04281 326.35 8.39916 331.847C7.66989 335.336 7.1418 338.85 6.84003 342.414ZM233.492 436.037C230.952 433.778 229.644 430.239 229.644 425.52C229.644 421.078 230.901 417.664 233.366 415.355C236.459 412.443 240.784 411.966 242.67 411.891C242.016 415.882 241.614 420.224 241.539 424.968C241.438 430.063 241.866 434.657 242.695 438.848C241.287 438.924 236.786 438.924 233.492 436.037ZM670.977 415.355C673.441 417.664 674.674 421.078 674.674 425.52C674.674 430.239 673.391 433.778 670.851 436.012C667.481 439.024 662.754 438.949 661.496 438.873C661.999 435.058 662.276 431.042 662.276 426.725C662.276 421.278 661.899 416.359 661.17 411.891C662.678 411.891 667.557 412.167 670.977 415.355ZM140.874 426.072C140.824 426.098 140.774 426.148 140.724 426.173C129.256 433.05 117.362 437.217 104.939 438.798C92.8937 440.329 79.792 438.848 68.6518 434.958C68.5512 434.908 68.4506 434.857 68.35 434.832H68.2997C64.8043 433.577 61.51 432.122 58.4923 430.39C34.0996 416.509 17.6785 391.56 13.328 364.703C12.0455 356.721 11.8192 348.614 12.7496 340.532C13.0262 338.172 13.4034 335.813 13.8812 333.479C18.3323 336.616 23.7641 338.499 29.6234 338.499C36.6646 338.499 43.0771 335.788 47.9305 331.395C49.037 332.048 50.9733 333.152 53.6138 334.683C75.3912 347.183 144.194 386.264 173.918 397.308C173.943 397.333 173.993 397.333 174.018 397.333C163.306 409.657 152.291 419.195 140.874 426.072ZM190.867 351.525C192.326 350.973 194.891 350.195 195.67 351.3C196.5 352.429 196.374 354.713 195.62 357.65C194.337 362.72 191.219 369.748 187.849 376.299C184.128 383.528 180.104 390.129 177.891 392.79C177.262 393.543 176.634 394.246 176.005 394.999C175.829 394.647 175.502 394.321 175.1 394.17C166.349 390.907 154.127 385.185 140.724 378.408L140.698 378.382C109.239 362.494 71.1665 340.858 55.6507 331.947C53.3623 330.642 51.5517 329.588 50.3446 328.885C51.4008 327.655 52.3313 326.35 53.1611 324.945C54.2425 323.087 55.1226 321.104 55.7513 319.021C56.4806 316.636 56.8578 314.101 56.8829 311.491C58.3163 312.269 60.3532 313.374 62.8679 314.729C82.1055 325.145 129.684 350.647 157.924 364.151C158.352 364.377 158.855 364.377 159.282 364.201C159.483 364.176 178.017 356.47 190.867 351.525ZM61.9878 294.624C62.7422 295.126 63.7984 294.9 64.3013 294.147L64.3265 294.122C64.6785 293.595 68.8278 287.872 75.4164 290.457C76.1205 290.733 76.9001 290.507 77.3527 289.93C77.5036 289.754 79.8171 286.868 83.7904 286.265C85.953 285.939 88.6438 286.291 91.7369 288.173C92.3907 288.55 93.2206 288.474 93.7738 287.947C94.1007 287.621 102.299 280.066 111.402 286.567C111.679 286.742 111.98 286.868 112.307 286.868C112.735 286.893 122.492 287.445 122.693 295.929C122.718 296.456 122.97 296.958 123.422 297.259C123.875 297.56 124.428 297.636 124.931 297.46C125.233 297.36 132.35 294.925 136.071 301.074C136.524 301.827 137.429 302.104 138.209 301.727C138.561 301.576 146.809 297.761 152.518 303.333C152.87 303.685 153.373 303.861 153.85 303.81C153.901 303.81 158.151 303.434 160.816 305.944C162.451 307.45 163.205 309.809 163.105 312.897C163.079 313.624 163.532 314.277 164.211 314.528C164.261 314.553 167.153 315.607 169.417 318.569C171.026 320.652 172.308 323.69 172.032 327.982C171.982 328.835 172.585 329.613 173.415 329.739C173.717 329.789 181.06 331.194 181.311 339.779C181.311 339.804 181.311 339.804 181.311 339.804C181.336 339.879 181.336 339.979 181.336 340.08C181.336 340.507 181.487 340.858 181.764 341.159C182.04 341.46 182.418 341.661 182.82 341.711C182.895 341.736 183.6 341.812 184.555 342.339H184.58C184.957 342.54 185.41 342.841 185.838 343.217C187.02 344.246 188.252 345.903 189.006 348.664C177.589 353.082 162.149 359.432 158.704 360.863C130.464 347.309 83.5389 322.133 64.5025 311.842V311.817C60.5544 309.684 57.7882 308.178 56.6566 307.575C56.4051 305.843 56.0028 304.162 55.4747 302.555C55.0472 301.326 54.5694 300.121 53.991 298.966H53.9658C53.3623 297.786 52.6833 296.632 51.9038 295.527C51.9038 295.527 51.9038 295.527 51.9289 295.527C52.0547 295.377 56.38 291.009 61.9878 294.624ZM345.799 356.018C349.797 356.018 352.915 357.148 355.078 359.357C357.693 362.017 358.322 365.657 358.498 367.439C357.14 367.414 355.807 367.389 354.449 367.389C347.081 367.288 339.587 367.213 332.094 367.113C332.295 364.854 333.778 356.018 345.799 356.018ZM532.19 357.022C529.373 354.136 525.45 352.655 520.496 352.655C515.97 352.655 512.55 353.985 510.01 355.993C507.395 358.051 505.71 360.812 504.704 363.498C504.1 365.13 503.723 366.711 503.547 368.117C500.026 368.091 496.481 368.091 492.91 368.091C492.885 367.589 492.834 366.736 492.658 365.682C492.281 363.272 491.225 359.783 488.509 356.997C485.693 354.111 481.77 352.63 476.816 352.63C464.921 352.63 460.696 361.942 459.892 368.041C456.321 368.016 452.775 368.016 449.229 368.016C449.179 366.309 448.676 360.963 444.828 356.997C442.012 354.111 438.064 352.63 433.135 352.63C427.904 352.63 423.755 354.161 420.763 357.148C416.915 361.013 416.261 366.134 416.135 367.891C412.539 367.866 408.994 367.84 405.548 367.84C405.473 365.983 404.895 360.812 401.148 356.997C398.306 354.111 394.383 352.63 389.454 352.63C384.224 352.63 380.074 354.161 377.082 357.148C373.461 360.787 372.656 365.531 372.48 367.539C368.959 367.489 365.414 367.464 361.868 367.414C361.717 365.28 360.988 360.561 357.492 356.972C356.612 356.069 355.631 355.316 354.55 354.713L354.625 350.547L354.726 344.748L354.751 344.372C363.427 344.422 372.832 344.447 382.991 344.447C417.795 344.447 461.199 344.096 512.952 343.142C512.952 343.142 512.952 343.142 512.977 343.142H513.153C515.014 343.167 530.706 343.318 551.327 343.519C556.457 343.569 561.914 343.619 567.521 343.669V352.856C566.465 352.705 565.359 352.605 564.202 352.605C561.536 352.605 559.273 353.082 557.337 353.86C552.307 355.893 549.541 360.11 548.208 364.075C547.706 365.506 547.404 366.912 547.253 368.167C543.783 368.142 540.237 368.142 536.641 368.142C536.616 367.263 536.465 365.004 535.559 362.469C535.082 361.089 534.352 359.608 533.296 358.252C532.969 357.876 532.592 357.449 532.19 357.022ZM533.246 368.192C524.746 368.167 515.945 368.142 506.967 368.142C507.193 366.786 507.671 364.778 508.727 362.795C509.356 361.616 510.161 360.436 511.242 359.432C513.279 357.474 516.221 356.043 520.496 356.043C524.243 356.043 527.236 357.047 529.398 359.055C529.524 359.156 529.65 359.281 529.776 359.382C530.605 360.21 531.234 361.139 531.687 362.067C533.02 364.628 533.221 367.288 533.246 368.192ZM489.565 368.091C486.246 368.091 482.926 368.066 479.582 368.066C474.15 368.041 468.693 368.041 463.286 368.041C463.915 364.327 466.48 355.993 476.816 355.993C480.814 355.993 483.932 357.123 486.095 359.332C488.232 361.515 489.062 364.377 489.364 366.309C489.515 367.087 489.565 367.715 489.565 368.091ZM445.859 368.016C436.806 367.991 427.98 367.966 419.48 367.941C419.656 365.431 421.14 356.018 433.11 356.018C437.083 356.018 440.226 357.148 442.389 359.357C445.356 362.344 445.809 366.636 445.859 368.016ZM402.179 367.866C395.741 367.815 389.63 367.765 383.947 367.715C381.256 367.69 378.54 367.64 375.85 367.615C376.151 364.728 377.962 355.993 389.454 355.993C393.428 355.993 396.571 357.123 398.734 359.332C401.575 362.243 402.078 366.309 402.179 367.866ZM292.26 357.976C294.599 355.792 297.893 354.839 302.043 355.09C312.554 355.767 314.616 363.573 314.994 366.962C307.047 366.912 299.075 366.862 291.129 366.887C290.601 366.887 289.595 366.912 288.262 367.012C288.413 365.23 289.142 360.863 292.26 357.976ZM243.601 384.934C243.525 381.696 245.235 378.483 248.706 375.421C252.226 372.283 255.747 370.852 259.117 371.179C262.084 371.455 264.397 373.036 265.755 374.241C259.267 378.207 252.83 384.331 248.228 393.744C247.272 392.89 243.726 389.477 243.601 384.934ZM259.821 478.431C256.451 478.607 253.207 477.251 250.164 474.34C246.97 471.253 245.361 467.989 245.411 464.626C245.487 460.409 248.102 456.996 249.359 455.565C254.892 464.124 262.637 469.671 270.131 473.26C268.169 475.143 264.347 478.155 259.821 478.431ZM299.075 492.085C295.253 492.261 292.16 491.232 289.871 489.048C286.502 485.836 285.571 480.866 285.32 478.431C290.475 479.561 293.996 479.761 294.147 479.786C299.352 479.962 305.362 480.163 312.026 480.339C311.674 483.627 309.738 491.634 299.075 492.085ZM352.111 488.973C349.973 491.132 346.855 492.186 342.857 492.085C330.937 491.834 329.353 483.175 329.126 480.765C337.349 480.941 346.176 481.117 355.506 481.292C355.254 483.175 354.55 486.513 352.111 488.973ZM395.766 489.852C393.604 492.01 390.51 493.115 386.487 492.989C375.598 492.763 373.385 484.907 372.907 481.594C381.432 481.719 390.209 481.87 399.136 481.995C398.985 483.802 398.306 487.291 395.766 489.852ZM439.422 490.755C437.259 492.914 434.141 494.018 430.168 493.893C418.952 493.642 416.915 485.359 416.563 482.221C425.289 482.347 434.091 482.447 442.842 482.547C442.716 484.229 442.138 488.019 439.422 490.755ZM483.128 491.684C480.965 493.817 477.872 494.897 473.873 494.796C462.985 494.57 460.696 485.886 460.218 482.723C469.171 482.824 477.998 482.924 486.573 482.999C486.522 484.355 486.12 488.697 483.128 491.684ZM530.253 483.526C530.253 483.577 530.329 489.048 526.783 492.587C524.646 494.721 521.502 495.825 517.529 495.7C507.017 495.474 504.528 486.84 503.924 483.2C513.204 483.275 522.03 483.351 530.253 483.426C530.279 483.476 530.253 483.501 530.253 483.526ZM570.112 493.541C567.899 495.675 564.931 496.729 561.21 496.629C550.145 496.403 547.957 486.814 547.555 483.577C558.343 483.652 567.446 483.702 574.336 483.752C574.085 485.886 573.255 490.454 570.112 493.541ZM604.714 496.026C601.043 496.302 598.075 495.449 595.812 493.441C592.568 490.579 591.562 486.011 591.26 483.802C599.408 483.777 608.838 483.551 617.992 481.995C617.564 485.71 615.477 495.198 604.714 496.026ZM655.109 475.896C652.796 478.13 650.482 479.535 648.168 480.138C647.062 480.439 645.981 480.539 644.899 480.464C641.027 480.163 638.084 477.578 636.827 476.247C641.203 474.064 644.975 471.378 648.219 468.19C651.362 465.078 654.003 461.463 656.09 457.322C657.397 458.828 659.786 462.116 659.862 466.182C659.937 469.521 658.328 472.809 655.109 475.896ZM645.528 371.43C646.735 371.329 647.967 371.405 649.174 371.731C651.337 372.283 653.475 373.513 655.612 375.396C658.755 378.182 660.34 381.219 660.289 384.432C660.214 388.071 658.102 391.284 656.366 393.342C656.09 393.668 655.813 393.97 655.562 394.246C651.035 385.712 644.472 379.989 636.676 376.199C637.883 374.919 641.152 371.831 645.528 371.43ZM594.655 366.661C595.208 364.577 596.315 361.842 598.528 359.934C600.791 357.976 603.884 357.148 607.682 357.524C613.365 358.077 616.584 360.737 618.344 363.548C620.28 366.611 620.557 369.899 620.607 371.028C612.258 369.346 603.256 368.794 594.253 368.568C594.328 368.041 594.454 367.389 594.655 366.661ZM582.182 371.756C610.473 371.982 639.493 372.208 652.242 395.225C656.492 402.905 658.931 413.121 658.931 426.7C658.931 445.876 653.726 459.581 643.114 468.24C640.675 470.248 637.934 471.98 634.891 473.461C620.431 480.514 601.168 480.489 587.136 480.489C569.332 480.464 361.943 478.983 294.247 476.448C293.367 476.398 284.188 475.871 273.978 471.554C273.953 471.529 273.928 471.503 273.903 471.478C273.626 471.252 273.325 471.177 272.998 471.152C265.328 467.764 257.23 462.242 251.723 453.231C251.723 453.206 251.698 453.206 251.698 453.206C247.373 446.152 244.607 436.991 244.858 425.018C245.059 415.054 246.644 406.871 249.133 400.219C249.133 400.219 249.183 400.094 249.284 399.843C260.122 371.279 287.382 370.225 291.104 370.225C307.776 370.175 324.675 370.35 341.272 370.551C345.673 370.602 350.024 370.652 354.374 370.702C364.207 370.827 374.039 370.953 383.872 371.053C405.473 371.279 432.959 371.354 461.375 371.405C470.78 371.43 480.286 371.43 489.716 371.455C524.243 371.505 556.809 371.555 582.182 371.756ZM573.456 359.332C576.197 362.118 576.776 366.008 576.901 367.665C576.927 367.991 576.927 368.217 576.927 368.342C568.779 368.267 559.927 368.242 550.623 368.217C550.773 367.263 551.075 365.958 551.578 364.552C553.062 360.662 556.457 355.993 564.177 355.993C568.15 356.018 571.294 357.123 573.456 359.332ZM606.6 85.6412C606.625 84.7125 606.625 83.7838 606.65 82.9053C609.668 82.7798 616.634 82.579 623.298 83.1814C623.323 83.9093 623.323 84.9133 623.323 86.093C623.348 89.9584 623.398 95.8067 623.373 101.529C623.348 104.19 623.323 106.826 623.298 109.21C616.936 108.959 611.252 109.034 606.676 109.185C606.65 107.604 606.6 104.868 606.575 101.529C606.525 96.9362 606.5 91.1632 606.6 85.6412ZM596.793 121.032C596.843 118.221 596.893 115.56 596.969 113.151C600.565 112.824 610.599 112.071 623.373 112.573C626.341 112.699 629.484 112.875 632.703 113.151C632.829 119.024 633.206 141.438 632.904 165.258C632.879 166.313 632.879 167.367 632.854 168.421C632.804 171.182 632.753 173.993 632.703 176.754C622.166 176.528 609.643 176.277 596.994 176.001C596.969 174.42 596.919 171.734 596.893 168.321C596.843 165.434 596.818 161.995 596.793 158.23C596.667 146.935 596.617 132.679 596.793 121.032ZM578.259 178.963C583.842 179.088 589.576 179.214 595.334 179.339V179.365C595.359 179.365 595.359 179.365 595.359 179.365C614.169 179.791 632.929 180.193 645.427 180.419C647.339 180.444 649.099 180.469 650.683 180.494C650.834 180.494 666.626 180.62 668.387 190.81C668.563 191.839 668.814 193.395 669.141 195.403C672.863 219.098 685.311 305.065 686.216 318.644C686.518 323.137 685.965 327.028 684.556 330.19L684.531 330.216C683.802 331.897 682.821 333.353 681.614 334.658C677.565 338.975 670.927 341.159 661.849 341.159C653.525 341.159 623.222 340.908 592.09 340.607C576.147 340.456 560.002 340.306 546.498 340.18C541.092 340.13 536.113 340.08 531.737 340.055C532.869 339.402 534 338.624 535.031 337.695C536.188 336.666 537.169 335.487 537.999 334.206C538.326 333.73 538.602 333.228 538.879 332.7C540.564 329.538 541.393 325.698 541.393 321.23C541.393 319.849 541.318 317.565 541.142 314.528C540.086 294.122 535.786 239.027 531.234 183.004C531.108 181.297 530.957 179.59 530.807 177.909C536.792 178.009 556.205 178.461 578.259 178.963ZM282.881 38.905C282.931 37.5747 283.057 35.5416 283.509 33.1571C283.71 32.0276 283.987 30.8228 284.339 29.5929C285.244 26.5307 286.653 23.2426 288.916 20.3059C288.916 20.3059 288.916 20.3059 288.941 20.2808C291.079 17.5198 293.97 15.0851 297.893 13.5289C308.883 9.1364 395.138 5.5471 453.932 5.5471C479.783 5.5471 500.328 6.2499 506.841 7.8563C511.393 9.0109 514.788 11.1695 517.277 13.805C521.603 18.323 523.288 24.2466 523.941 28.5638C524.218 30.2706 524.293 31.7515 524.319 32.7806H521.779C472.49 32.8308 302.018 38.2775 282.881 38.905ZM289.997 69.3513C290.852 59.3113 291.506 51.4299 291.934 46.435H291.959C292.11 44.4772 292.26 42.9712 292.336 41.9421C331.691 40.6871 465.374 36.5456 515.668 36.1942C515.769 37.2735 515.894 38.8548 516.07 40.9381C516.297 43.6238 516.598 47.0876 516.951 51.2542C521.552 105.42 535.861 275.623 537.873 314.654C538.024 317.615 538.099 319.849 538.099 321.18C538.099 325.622 537.169 329.312 535.333 332.224C535.157 332.5 534.981 332.776 534.78 333.052C534.227 333.83 533.598 334.533 532.869 335.16C526.833 340.632 517.479 339.779 517.403 339.754H517.202C516.146 339.779 515.064 339.804 514.033 339.804C445.709 341.084 391.969 341.285 353.192 341.034C349.671 341.009 346.277 340.983 343.007 340.958C328.824 340.833 316.955 340.657 307.424 340.456C299.377 340.306 293.015 340.105 288.312 339.954C286.15 339.879 284.339 339.804 282.855 339.728C275.563 339.402 271.942 335.386 270.156 331.42C268.371 327.455 268.396 323.514 268.396 323.238C270.483 300.497 276.493 229.866 282 164.907C285.068 127.96 288.036 92.7947 289.997 69.3513ZM216.215 45.2302C216.417 44.9039 216.593 44.5776 216.794 44.2764C216.794 44.2764 216.794 44.2513 216.819 44.2513C217.397 43.3226 218.051 42.4441 218.755 41.6409C218.856 41.5154 218.956 41.3899 219.057 41.2895C220.138 40.1098 221.32 39.0556 222.578 38.1771C222.628 38.152 222.653 38.1269 222.653 38.1269C222.678 38.1018 222.703 38.0767 222.729 38.0767C227.33 34.9392 233.165 33.7846 240.105 34.6631C249.711 35.893 256.199 42.4692 261.078 50.8777C263.09 54.3164 264.8 58.0814 266.334 61.8715C267.943 65.8122 269.351 69.8533 270.684 73.6434C270.936 74.3211 271.162 74.9737 271.388 75.6514C272.067 77.6092 272.746 79.4917 273.425 81.2738L283.409 107.227C281.925 124.822 280.265 144.626 278.53 164.957V164.982C273.853 220.202 268.823 279.438 266.133 309.91C261.43 288.851 250.34 239.253 239.426 190.559L239.401 190.459C232.963 161.769 226.601 133.381 221.622 111.293C220.038 104.24 218.579 97.8147 217.322 92.2425C215.511 84.3109 214.103 78.0861 213.173 74.1203C210.683 63.252 211.865 52.6598 216.215 45.2302ZM88.0654 117.117C91.8123 114.682 95.9868 112.071 100.488 109.285C136.122 87.2225 191.647 55.6467 213.449 43.3477C212.494 44.9792 211.664 46.7362 210.985 48.6187C208.219 56.1487 207.766 65.4357 209.954 74.8733C210.859 78.7136 212.217 84.7376 213.952 92.368C214.304 94.0246 214.707 95.7314 215.109 97.5135C205.955 101.806 147.941 129.014 120.254 141.464C120.178 141.514 120.078 141.514 120.002 141.589C119.977 141.589 119.977 141.589 119.977 141.589C119.902 141.639 119.826 141.664 119.726 141.689C113.64 144.425 109.063 146.433 106.926 147.237C97.8477 150.751 90.3035 150.525 85.3747 146.76C85.3495 146.76 85.3495 146.76 85.3495 146.76C83.6898 145.505 82.3318 143.873 81.3008 141.84C78.8364 136.996 78.761 130.269 81.4517 124.647C82.8851 121.685 85.0729 119.049 88.0654 117.117ZM26.3039 278.61C39.2044 232.878 60.8813 136.042 61.1076 134.938C61.1076 134.938 61.1076 134.938 61.1328 134.912C61.2082 134.461 63.2451 125.374 78.5346 119.802C79.3896 119.476 80.2949 119.175 81.2254 118.899C80.5967 119.677 80.0183 120.53 79.4902 121.409C75.5673 127.96 74.838 136.519 78.3335 143.346C79.616 145.856 81.3511 147.914 83.4132 149.445C86.5566 151.83 90.555 153.06 95.1569 153.06C99.105 153.06 103.481 152.181 108.158 150.374C109.264 149.922 111.025 149.194 113.263 148.215C113.791 150.424 114.118 152.031 114.193 153.461C114.42 156.499 113.59 158.682 111.503 164.154L110.924 165.66C110.597 166.538 109.214 169.576 107.001 174.194C97.6213 193.973 73.6561 242.767 55.6758 275.698C53.815 279.112 52.0295 282.325 50.3195 285.337C49.2633 287.194 48.2574 288.951 47.2767 290.608C45.8936 289.428 44.3848 288.374 42.7753 287.47C38.8775 285.312 34.3762 284.057 29.5982 284.057C27.8631 284.057 26.1782 284.232 24.5688 284.534C25.1472 282.676 25.7256 280.693 26.3039 278.61ZM5.70841 311.29C5.70841 309.734 5.85929 308.203 6.16106 306.747C6.56341 304.614 7.26753 302.58 8.22313 300.698C12.1209 292.842 20.2686 287.445 29.6485 287.445C33.8481 287.445 37.7962 288.524 41.2162 290.457C43.6303 291.787 45.793 293.519 47.6036 295.578C49.4896 297.711 50.9985 300.196 52.0295 302.907C52.2055 303.409 52.3816 303.886 52.5324 304.413C53.2114 306.596 53.5635 308.931 53.5635 311.315C53.5635 313.725 53.2114 316.009 52.5324 318.193C52.0044 320 51.2499 321.707 50.3195 323.288C46.1702 330.391 38.45 335.185 29.6485 335.185C16.4463 335.16 5.70841 324.443 5.70841 311.29Z" fill="black"/>
</g>
<defs>
<linearGradient id="paint0_linear_650_908" x1="303.52" y1="310.577" x2="333.446" y2="310.577" gradientUnits="userSpaceOnUse">
<stop stop-color="#B1262A"/>
<stop offset="0.6888" stop-color="#EA313C"/>
</linearGradient>
<linearGradient id="paint1_linear_650_908" x1="226.528" y1="61.7498" x2="250.711" y2="61.7498" gradientUnits="userSpaceOnUse">
<stop offset="0.4022" stop-color="#E77903"/>
<stop offset="0.4826" stop-color="#DF7303"/>
<stop offset="0.8135" stop-color="#C06001"/>
<stop offset="1" stop-color="#B55801"/>
</linearGradient>
<linearGradient id="paint2_linear_650_908" x1="89.3497" y1="132.501" x2="102.313" y2="132.501" gradientUnits="userSpaceOnUse">
<stop offset="0.4022" stop-color="#E77903"/>
<stop offset="0.4826" stop-color="#DF7303"/>
<stop offset="0.8135" stop-color="#C06001"/>
<stop offset="1" stop-color="#B55801"/>
</linearGradient>
<linearGradient id="paint3_linear_650_908" x1="636.843" y1="468.884" x2="659.872" y2="468.884" gradientUnits="userSpaceOnUse">
<stop offset="0.1436" stop-color="#808080"/>
<stop offset="0.8838" stop-color="#B3B3B3"/>
</linearGradient>
<linearGradient id="paint4_linear_650_908" x1="591.255" y1="489.054" x2="617.988" y2="489.054" gradientUnits="userSpaceOnUse">
<stop offset="0.1436" stop-color="#808080"/>
<stop offset="0.8838" stop-color="#B3B3B3"/>
</linearGradient>
<linearGradient id="paint5_linear_650_908" x1="547.547" y1="490.104" x2="574.32" y2="490.104" gradientUnits="userSpaceOnUse">
<stop offset="0.1436" stop-color="#808080"/>
<stop offset="0.8838" stop-color="#B3B3B3"/>
</linearGradient>
<linearGradient id="paint6_linear_650_908" x1="503.945" y1="489.463" x2="530.275" y2="489.463" gradientUnits="userSpaceOnUse">
<stop offset="0.1436" stop-color="#808080"/>
<stop offset="0.8838" stop-color="#B3B3B3"/>
</linearGradient>
<linearGradient id="paint7_linear_650_908" x1="460.224" y1="488.785" x2="486.58" y2="488.785" gradientUnits="userSpaceOnUse">
<stop offset="0.1436" stop-color="#808080"/>
<stop offset="0.8838" stop-color="#B3B3B3"/>
</linearGradient>
<linearGradient id="paint8_linear_650_908" x1="416.555" y1="488.068" x2="442.844" y2="488.068" gradientUnits="userSpaceOnUse">
<stop offset="0.1436" stop-color="#808080"/>
<stop offset="0.8838" stop-color="#B3B3B3"/>
</linearGradient>
<linearGradient id="paint9_linear_650_908" x1="372.914" y1="487.299" x2="399.137" y2="487.299" gradientUnits="userSpaceOnUse">
<stop offset="0.1436" stop-color="#808080"/>
<stop offset="0.8838" stop-color="#B3B3B3"/>
</linearGradient>
<linearGradient id="paint10_linear_650_908" x1="329.111" y1="486.427" x2="355.482" y2="486.427" gradientUnits="userSpaceOnUse">
<stop offset="0.1436" stop-color="#808080"/>
<stop offset="0.8838" stop-color="#B3B3B3"/>
</linearGradient>
<linearGradient id="paint11_linear_650_908" x1="285.322" y1="485.275" x2="312.028" y2="485.275" gradientUnits="userSpaceOnUse">
<stop offset="0.1436" stop-color="#808080"/>
<stop offset="0.8838" stop-color="#B3B3B3"/>
</linearGradient>
<linearGradient id="paint12_linear_650_908" x1="245.41" y1="467.003" x2="270.13" y2="467.003" gradientUnits="userSpaceOnUse">
<stop offset="0.1436" stop-color="#808080"/>
<stop offset="0.8838" stop-color="#B3B3B3"/>
</linearGradient>
<linearGradient id="paint13_linear_650_908" x1="229.656" y1="425.382" x2="242.7" y2="425.382" gradientUnits="userSpaceOnUse">
<stop offset="0.1436" stop-color="#808080"/>
<stop offset="0.8838" stop-color="#B3B3B3"/>
</linearGradient>
<linearGradient id="paint14_linear_650_908" x1="243.609" y1="382.431" x2="265.768" y2="382.431" gradientUnits="userSpaceOnUse">
<stop offset="0.1436" stop-color="#808080"/>
<stop offset="0.8838" stop-color="#B3B3B3"/>
</linearGradient>
<linearGradient id="paint15_linear_650_908" x1="288.26" y1="361.023" x2="314.993" y2="361.023" gradientUnits="userSpaceOnUse">
<stop offset="0.1436" stop-color="#808080"/>
<stop offset="0.8838" stop-color="#B3B3B3"/>
</linearGradient>
<linearGradient id="paint16_linear_650_908" x1="332.104" y1="361.712" x2="358.514" y2="361.712" gradientUnits="userSpaceOnUse">
<stop offset="0.1436" stop-color="#808080"/>
<stop offset="0.8838" stop-color="#B3B3B3"/>
</linearGradient>
<linearGradient id="paint17_linear_650_908" x1="463.297" y1="362.054" x2="489.574" y2="362.054" gradientUnits="userSpaceOnUse">
<stop offset="0.1436" stop-color="#808080"/>
<stop offset="0.8838" stop-color="#B3B3B3"/>
</linearGradient>
<linearGradient id="paint18_linear_650_908" x1="419.494" y1="362.014" x2="445.865" y2="362.014" gradientUnits="userSpaceOnUse">
<stop offset="0.1436" stop-color="#808080"/>
<stop offset="0.8838" stop-color="#B3B3B3"/>
</linearGradient>
<linearGradient id="paint19_linear_650_908" x1="375.839" y1="361.933" x2="402.182" y2="361.933" gradientUnits="userSpaceOnUse">
<stop offset="0.1436" stop-color="#808080"/>
<stop offset="0.8838" stop-color="#B3B3B3"/>
</linearGradient>
<linearGradient id="paint20_linear_650_908" x1="661.188" y1="425.376" x2="674.675" y2="425.376" gradientUnits="userSpaceOnUse">
<stop offset="0.1436" stop-color="#808080"/>
<stop offset="0.8838" stop-color="#B3B3B3"/>
</linearGradient>
<linearGradient id="paint21_linear_650_908" x1="636.669" y1="382.827" x2="660.289" y2="382.827" gradientUnits="userSpaceOnUse">
<stop offset="0.1436" stop-color="#808080"/>
<stop offset="0.8838" stop-color="#B3B3B3"/>
</linearGradient>
<linearGradient id="paint22_linear_650_908" x1="594.249" y1="364.22" x2="620.593" y2="364.22" gradientUnits="userSpaceOnUse">
<stop offset="0.1436" stop-color="#808080"/>
<stop offset="0.8838" stop-color="#B3B3B3"/>
</linearGradient>
<linearGradient id="paint23_linear_650_908" x1="550.621" y1="362.188" x2="576.924" y2="362.188" gradientUnits="userSpaceOnUse">
<stop offset="0.1436" stop-color="#808080"/>
<stop offset="0.8838" stop-color="#B3B3B3"/>
</linearGradient>
<linearGradient id="paint24_linear_650_908" x1="506.965" y1="362.094" x2="533.255" y2="362.094" gradientUnits="userSpaceOnUse">
<stop offset="0.1436" stop-color="#808080"/>
<stop offset="0.8838" stop-color="#B3B3B3"/>
</linearGradient>
<linearGradient id="paint25_linear_650_908" x1="244.873" y1="425.341" x2="658.933" y2="425.341" gradientUnits="userSpaceOnUse">
<stop offset="0.1883" stop-color="#3D3E3D"/>
<stop offset="1" stop-color="#515151"/>
</linearGradient>
<linearGradient id="paint26_linear_650_908" x1="570.857" y1="425.378" x2="635.152" y2="425.378" gradientUnits="userSpaceOnUse">
<stop offset="0.1436" stop-color="#808080"/>
<stop offset="0.8838" stop-color="#B3B3B3"/>
</linearGradient>
<linearGradient id="paint27_linear_650_908" x1="269.7" y1="422.545" x2="333.995" y2="422.545" gradientUnits="userSpaceOnUse">
<stop offset="0.1436" stop-color="#808080"/>
<stop offset="0.8838" stop-color="#B3B3B3"/>
</linearGradient>
<linearGradient id="paint28_linear_650_908" x1="335.297" y1="423.295" x2="569.837" y2="423.295" gradientUnits="userSpaceOnUse">
<stop offset="0.1436" stop-color="#808080"/>
<stop offset="0.8838" stop-color="#B3B3B3"/>
</linearGradient>
<linearGradient id="paint29_linear_650_908" x1="287.147" y1="422.552" x2="316.537" y2="422.552" gradientUnits="userSpaceOnUse">
<stop offset="0.1883" stop-color="#3D3E3D"/>
<stop offset="1" stop-color="#515151"/>
</linearGradient>
<linearGradient id="paint30_linear_650_908" x1="588.304" y1="425.377" x2="617.693" y2="425.377" gradientUnits="userSpaceOnUse">
<stop offset="0.1883" stop-color="#3D3E3D"/>
<stop offset="1" stop-color="#515151"/>
</linearGradient>
<linearGradient id="paint31_linear_650_908" x1="606.529" y1="95.9918" x2="623.381" y2="95.9918" gradientUnits="userSpaceOnUse">
<stop offset="0.1436" stop-color="#808080"/>
<stop offset="0.8838" stop-color="#B3B3B3"/>
</linearGradient>
<linearGradient id="paint32_linear_650_908" x1="596.666" y1="144.602" x2="633" y2="144.602" gradientUnits="userSpaceOnUse">
<stop offset="0.1436" stop-color="#808080"/>
<stop offset="0.8838" stop-color="#B3B3B3"/>
</linearGradient>
<linearGradient id="paint33_linear_650_908" x1="461.029" y1="343.201" x2="461.029" y2="368.223" gradientUnits="userSpaceOnUse">
<stop offset="0.3492" stop-color="#F29E04"/>
<stop offset="1" stop-color="#FDCC03"/>
</linearGradient>
<linearGradient id="paint34_linear_650_908" x1="5.70381" y1="311.288" x2="53.5459" y2="311.288" gradientUnits="userSpaceOnUse">
<stop offset="0.4022" stop-color="#FFE033"/>
<stop offset="0.4658" stop-color="#FFDD2D"/>
<stop offset="0.8074" stop-color="#FDD10E"/>
<stop offset="1" stop-color="#FDCC03"/>
</linearGradient>
<linearGradient id="paint35_linear_650_908" x1="19.0706" y1="311.281" x2="40.1936" y2="311.281" gradientUnits="userSpaceOnUse">
<stop offset="0.4022" stop-color="#E77903"/>
<stop offset="0.4826" stop-color="#DF7303"/>
<stop offset="0.8135" stop-color="#C06001"/>
<stop offset="1" stop-color="#B55801"/>
</linearGradient>
<linearGradient id="paint36_linear_650_908" x1="50.3509" y1="353.28" x2="196.226" y2="353.28" gradientUnits="userSpaceOnUse">
<stop offset="0.4022" stop-color="#FFE033"/>
<stop offset="0.4658" stop-color="#FFDD2D"/>
<stop offset="0.8074" stop-color="#FDD10E"/>
<stop offset="1" stop-color="#FDCC03"/>
</linearGradient>
<linearGradient id="paint37_linear_650_908" x1="12.1879" y1="385.395" x2="174.016" y2="385.395" gradientUnits="userSpaceOnUse">
<stop offset="0.3983" stop-color="#F29E04"/>
<stop offset="1" stop-color="#FDCC03"/>
</linearGradient>
<linearGradient id="paint38_linear_650_908" x1="125.251" y1="168.899" x2="-0.290189" y2="241.517" gradientUnits="userSpaceOnUse">
<stop stop-color="#FCC803"/>
<stop offset="0.5592" stop-color="#F29E04"/>
</linearGradient>
<linearGradient id="paint39_linear_650_908" x1="79.4597" y1="96.5277" x2="215.122" y2="96.5277" gradientUnits="userSpaceOnUse">
<stop offset="0.4022" stop-color="#FFE033"/>
<stop offset="0.4658" stop-color="#FFDD2D"/>
<stop offset="0.8074" stop-color="#FDD10E"/>
<stop offset="1" stop-color="#FDCC03"/>
</linearGradient>
<linearGradient id="paint40_linear_650_908" x1="440.128" y1="-31.5919" x2="370.432" y2="89.3524" gradientUnits="userSpaceOnUse">
<stop offset="0.5592" stop-color="#F29E04"/>
<stop offset="1" stop-color="#FDCC03"/>
</linearGradient>
<linearGradient id="paint41_linear_650_908" x1="190.023" y1="266.007" x2="303.491" y2="69.1051" gradientUnits="userSpaceOnUse">
<stop offset="0.5592" stop-color="#F29E04"/>
<stop offset="1" stop-color="#FDCC03"/>
</linearGradient>
<linearGradient id="paint42_linear_650_908" x1="268.332" y1="188.676" x2="538.059" y2="188.676" gradientUnits="userSpaceOnUse">
<stop offset="0.4022" stop-color="#FFE033"/>
<stop offset="0.4658" stop-color="#FFDD2D"/>
<stop offset="0.8074" stop-color="#FDD10E"/>
<stop offset="1" stop-color="#FDCC03"/>
</linearGradient>
<linearGradient id="paint43_linear_650_908" x1="527.025" y1="335.321" x2="671.071" y2="191.004" gradientUnits="userSpaceOnUse">
<stop offset="0.3492" stop-color="#F29E04"/>
<stop offset="1" stop-color="#FDCC03"/>
</linearGradient>
<linearGradient id="paint44_linear_650_908" x1="559.461" y1="234.764" x2="570.271" y2="234.764" gradientUnits="userSpaceOnUse">
<stop offset="0.1883" stop-color="#3D3E3D"/>
<stop offset="1" stop-color="#515151"/>
</linearGradient>
<linearGradient id="paint45_linear_650_908" x1="580.383" y1="234.029" x2="591.192" y2="234.029" gradientUnits="userSpaceOnUse">
<stop offset="0.1883" stop-color="#3D3E3D"/>
<stop offset="1" stop-color="#515151"/>
</linearGradient>
<linearGradient id="paint46_linear_650_908" x1="601.304" y1="233.29" x2="612.113" y2="233.29" gradientUnits="userSpaceOnUse">
<stop offset="0.1883" stop-color="#3D3E3D"/>
<stop offset="1" stop-color="#515151"/>
</linearGradient>
<linearGradient id="paint47_linear_650_908" x1="327.229" y1="52.0447" x2="466.119" y2="293.061" gradientUnits="userSpaceOnUse">
<stop offset="0.1391" stop-color="white"/>
<stop offset="0.2373" stop-color="#E3F5F9"/>
<stop offset="0.3809" stop-color="#C0E8F0"/>
<stop offset="0.5167" stop-color="#A7DFEB"/>
<stop offset="0.6404" stop-color="#98D9E7"/>
<stop offset="0.7408" stop-color="#93D7E6"/>
</linearGradient>
<linearGradient id="paint48_linear_650_908" x1="51.8681" y1="322.401" x2="188.993" y2="322.401" gradientUnits="userSpaceOnUse">
<stop offset="0.4022" stop-color="#B55801"/>
<stop offset="0.7585" stop-color="#9C4601"/>
<stop offset="1" stop-color="#913D01"/>
</linearGradient>
<clipPath id="clip0_650_908">
<rect width="692" height="502" fill="white"/>
</clipPath>
</defs>
</svg>
