<svg width="400" height="300" viewBox="0 0 648 635" fill="none" xmlns="http://www.w3.org/2000/svg">
<g clip-path="url(#clip0_650_635)">
<path d="M295.93 542.195C289.304 560.683 277.148 576.775 261.443 588.597C246.73 599.69 221.269 617.241 194.139 628.125C152.035 645.051 110.609 627.136 92.0346 611.512C73.4607 595.888 56.139 577.973 56.139 577.973C45.7042 568.13 36.2086 557.35 27.8607 545.632C21.5999 536.831 15.7042 527.457 11.0086 517.614C3.33899 501.73 -1.30449 484.648 0.312902 466.68C2.13899 446.526 7.7216 427.048 17.2694 409.393C20.9216 402.623 25.1477 396.113 29.9999 389.968C65.6346 344.399 106.33 335.701 127.878 333.306C142.278 331.691 157.513 336.691 170.609 342.159C183.391 347.523 194.191 355.283 200.922 367.73C206.765 378.51 213.235 389.03 219.6 399.55C221.165 402.102 222.678 404.654 224.191 407.258C224.348 407.519 224.452 407.675 224.452 407.675C227.896 413.403 233.061 419.028 238.591 424.132C245.791 430.798 253.461 436.631 258.417 440.797C267.13 448.192 295.409 462.097 300.626 503.761C302.348 517.874 299.896 530.998 295.93 542.195Z" fill="#DF2C2B"/>
<path d="M363.13 33.6437L362.4 31.9251C360.678 27.7067 360.313 23.0717 361.461 18.6971L361.669 17.8117C363.026 12.5517 366.835 8.28125 371.948 6.35432C372.626 6.09393 373.2 5.62522 373.565 5.00027C376.591 0.0527585 383.113 -1.40546 387.965 1.71929L393.182 5.10443C393.756 5.46898 394.487 5.6773 395.165 5.62522C399.496 5.31274 403.304 8.33333 403.982 12.6038L404.869 18.1242C404.922 18.3846 404.974 18.6971 405.13 18.9575L407.322 23.7487C408.313 25.9361 406.643 28.4358 404.243 28.2796C402.574 28.1754 401.113 29.3733 400.904 31.0398L400.226 36.0915C399.965 37.8101 398.452 39.0079 396.678 38.8517L365.791 35.6748C364.643 35.4665 363.6 34.7374 363.13 33.6437Z" fill="#714C32"/>
<path opacity="0.2" d="M404.243 28.1751C404.191 28.1751 404.139 28.1751 404.087 28.1751C402.469 28.1751 401.113 29.3729 400.904 30.9353L400.226 35.9869C399.965 37.7056 398.452 38.9034 396.678 38.7471L365.791 35.5703C364.591 35.4662 363.6 34.685 363.13 33.5913L363.078 33.4351L387.078 35.8828C388.8 36.0911 390.365 34.8412 390.626 33.1226L391.304 28.0709C391.513 26.4565 392.869 25.3107 394.487 25.3107C394.539 25.3107 394.591 25.3107 394.643 25.3107C397.043 25.467 398.765 22.9672 397.722 20.7799L395.53 15.9886C395.426 15.7282 395.322 15.4678 395.269 15.1553L394.382 9.63495C393.704 5.57278 390.209 2.65635 386.191 2.65635C385.982 2.65635 385.774 2.65635 385.565 2.70843C384.835 2.76051 384.156 2.60427 383.582 2.18764L380.452 0.156558C381.078 0.0524003 381.704 -0.0517578 382.382 -0.0517578C384.313 -0.0517578 386.243 0.469033 387.965 1.61477L393.182 4.99991C393.756 5.36446 394.487 5.57278 395.165 5.5207C395.374 5.5207 395.582 5.46862 395.791 5.46862C399.809 5.46862 403.304 8.38505 403.982 12.4472L404.869 17.9676C404.922 18.2801 405.026 18.5405 405.13 18.8009L407.322 23.5401C408.365 25.8315 406.695 28.2792 404.243 28.1751Z" fill="black"/>
<path opacity="0.6" d="M388.017 1.66653L392.086 4.32256C390.625 3.59346 389.112 3.28098 387.547 3.28098C384.104 3.28098 380.712 5.05167 378.73 8.22849C378.365 8.85344 377.791 9.32215 377.112 9.58255C372.051 11.5095 368.191 15.78 366.834 21.0399L366.573 21.9253C365.425 26.2999 365.791 30.987 367.512 35.1534L367.773 35.8304L365.738 35.6221C364.538 35.5179 363.547 34.7367 363.078 33.6431L362.347 31.8724C360.625 27.654 360.26 23.0189 361.408 18.6443L361.617 17.759C362.973 12.499 366.782 8.22849 371.895 6.30157C372.573 6.04117 373.147 5.57246 373.512 4.94751C375.443 1.77069 378.834 0 382.33 0C384.312 0 386.243 0.520791 388.017 1.66653Z" fill="white"/>
<path opacity="0.6" d="M393.809 5.36482C393.6 5.26067 393.392 5.15651 393.183 5.05235L392.035 4.32324C392.4 4.47948 392.766 4.6878 393.131 4.94819L393.809 5.36482Z" fill="white"/>
<path d="M407.427 57.6515C407.427 57.964 407.427 58.2244 407.375 58.5369L406.696 60.9325L405.757 62.3907C404.87 63.4844 403.722 64.3176 402.366 64.7863C395.792 67.0257 388.905 68.1715 382.018 68.1715C379.514 68.1715 376.957 68.0152 374.453 67.7028L364.331 66.5049C363.444 66.4008 362.662 66.0362 362.036 65.5154C360.679 64.4218 360.053 62.5469 360.627 60.7763L361.67 57.4432C361.983 56.5579 362.14 55.6204 362.244 54.683L362.975 46.8711C363.131 44.9963 363.236 43.0694 363.183 41.1945L363.131 33.6431C363.601 34.7367 364.592 35.5179 365.792 35.6221L396.679 38.7989C398.401 38.9551 399.966 37.7573 400.227 36.0387L400.801 31.6641L402.001 39.6322C402.731 44.6838 404.296 49.5793 406.644 54.1622C407.166 55.2559 407.427 56.4537 407.427 57.6515Z" fill="#EEBF51"/>
<path opacity="0.2" d="M407.426 57.6515C407.426 57.964 407.426 58.2244 407.374 58.5369L406.695 60.9325L405.756 62.3907C404.869 63.4844 403.721 64.3176 402.365 64.7863C399.965 65.6196 397.513 66.2966 395.008 66.8174L395.53 65.9842L396.208 63.5885C396.261 63.2761 396.261 63.0157 396.261 62.7032C396.261 61.5054 395.948 60.3075 395.426 59.2139C393.078 54.6309 391.513 49.7355 390.782 44.6838L389.791 38.0698L396.626 38.7989C398.348 38.9551 399.913 37.7573 400.174 36.0387L400.748 31.6641L401.948 39.6322C402.678 44.6838 404.243 49.5793 406.591 54.1622C407.165 55.2559 407.426 56.4537 407.426 57.6515Z" fill="black"/>
<path opacity="0.6" d="M369.13 42.8616C369.182 44.7885 369.078 46.6633 368.921 48.5382L368.191 56.35C368.086 57.2874 367.93 58.2249 367.617 59.1102L366.573 62.4433C366.052 64.0577 366.521 65.7243 367.617 66.8179L364.382 66.4013C363.495 66.2971 362.712 65.9326 362.086 65.4118C360.73 64.3181 360.104 62.4433 360.678 60.6726L361.721 57.3395C362.034 56.4542 362.191 55.5168 362.295 54.5793L363.025 46.7675C363.182 44.8926 363.286 42.9657 363.234 41.0909L363.13 33.6436C363.599 34.7372 364.591 35.5184 365.791 35.6226L369.025 35.935L369.13 42.8616Z" fill="white"/>
<path d="M628.956 550.059C615.861 571.568 596.974 585.577 575.53 597.972C561.652 605.992 546.626 611.929 531.182 616.304C524.452 618.231 517.565 619.585 510.782 621.199C502.382 623.126 493.774 624.22 485.165 624.428C473.582 624.688 462 623.126 450.678 620.783C444.678 619.533 438.782 617.97 432.939 616.147C430.33 615.314 427.721 614.429 425.165 613.439C415.826 609.95 406.747 605.575 398.347 600.211C389.217 594.378 380.869 587.4 373.721 579.276C368.974 573.859 364.747 567.974 361.147 561.725C358.747 557.611 356.661 553.288 354.782 548.913C353.008 544.695 351.495 540.32 350.191 535.946C347.791 527.717 345.547 519.228 343.774 510.583C342.469 504.282 341.374 497.928 340.591 491.522C338.243 471.888 338.974 451.994 345.861 433.454C353.634 412.414 364.434 392.364 378.678 374.917C385.46 366.585 392.243 359.189 401.634 354.034C411.026 348.826 421.513 345.805 432.208 345.18C436.487 344.92 440.765 345.076 445.043 345.545C456.313 346.743 467.53 347.94 478.8 349.138C481.408 349.399 483.965 349.711 486.574 349.971C489.078 350.232 491.582 350.492 494.034 350.753C495.6 350.909 497.165 351.117 498.73 351.325C499.982 351.482 501.234 351.69 502.487 351.846C503.113 351.95 503.739 352.055 504.365 352.107C511.252 353.148 518.243 354.19 524.921 354.138C530.452 354.086 535.878 353.929 541.2 353.982C552.156 354.034 562.8 354.815 573.913 358.46C584.034 361.793 593.582 367.262 602.139 374.188C616.747 385.958 628.487 401.842 635.53 418.299C653.374 459.702 652.8 510.948 628.956 550.059Z" fill="#DF2C2B"/>
<path d="M504.47 351.795L504.417 352.107C503.791 352.003 503.165 351.899 502.539 351.847C499.67 351.43 496.852 351.014 494.035 350.701C491.531 350.441 489.026 350.18 486.574 349.92L483.965 330.755L479.374 304.247C477.339 292.685 474.991 281.176 472.174 269.77C467.113 249.043 460.8 228.68 453.287 208.734C449.061 197.589 444.47 186.548 439.461 175.768L429.861 154.988C428.348 151.707 426.731 148.53 425.009 145.353L412.904 123.324C409.2 116.554 405.026 110.096 400.383 103.951L390.47 90.8266C389.791 89.9413 388.487 89.9413 387.861 90.8266C383.061 97.2845 379.2 104.315 376.278 111.815L375.6 113.585L368.452 134.417L360.365 163.737L348.365 199.776L335.739 237.794L321.6 271.229L308.348 299.039L286.435 340.91L285.026 343.723C278.035 357.419 270.157 371.741 261.965 385.855C254.296 399.031 246.365 411.998 238.591 424.133C233.113 419.029 227.896 413.456 224.452 407.676C224.452 407.676 224.348 407.519 224.191 407.259L241.148 383.876C250.226 370.908 258.835 357.524 266.817 343.827C279.235 322.578 290.296 300.601 299.948 277.947L311.27 251.334L318.365 232.325C325.148 214.15 331.2 195.714 336.574 177.122C341.948 158.529 346.644 139.677 350.661 120.72C351.913 114.887 352.8 109.002 353.426 103.065C354.052 97.1282 354.365 91.1912 354.365 85.2021C354.365 77.911 357.131 70.8804 362.139 65.5683C362.765 66.0891 363.548 66.4537 364.435 66.5578L374.557 67.7556C377.061 68.0681 379.617 68.2243 382.122 68.2243C386.4 68.2243 390.731 67.7556 394.957 66.9224C397.513 66.4016 400.017 65.7245 402.522 64.8392C403.878 64.3705 405.078 63.5372 405.913 62.4436L406.852 60.9854L408.365 63.8497C411.809 70.3596 415.096 76.9736 418.226 83.6397C421.357 90.3059 424.383 97.0241 427.252 103.794C431.844 114.679 436.748 125.355 442.07 135.927L450.835 153.322L463.67 186.548L467.113 195.349C470.4 203.682 473.426 212.067 476.296 220.503C479.165 228.992 481.774 237.481 484.174 246.126C488.035 259.979 491.374 273.937 494.087 287.998L498.47 310.496L504.47 351.795Z" fill="#70A922"/>
<path opacity="0.6" d="M364.331 66.5048L367.722 66.9214C363.496 72.0773 361.148 78.5351 361.148 85.2012C361.148 91.1903 360.835 97.1273 360.209 103.064C359.583 109.001 358.644 114.886 357.444 120.719C353.478 139.676 348.783 158.529 343.357 177.121C337.983 195.713 331.878 214.149 325.148 232.325L318.052 251.333L306.783 277.946C297.131 300.6 286.07 322.578 273.652 343.826C265.67 357.523 257.061 370.855 247.983 383.875L231.078 407.258C231.235 407.518 231.339 407.675 231.339 407.675C233.844 411.893 237.339 416.059 241.2 420.017C240.313 421.424 239.426 422.778 238.591 424.132C233.113 419.028 227.896 413.455 224.452 407.675C224.452 407.675 224.348 407.518 224.191 407.258L241.148 383.875C250.226 370.907 258.835 357.523 266.817 343.826C279.235 322.578 290.296 300.6 299.948 277.946L311.27 251.333L318.365 232.325C325.148 214.149 331.2 195.713 336.574 177.121C341.948 158.529 346.644 139.676 350.661 120.719C351.913 114.886 352.8 109.001 353.426 103.064C354.052 97.1273 354.365 91.1903 354.365 85.2012C354.365 77.9101 357.131 70.8794 362.139 65.5674C362.713 66.0361 363.444 66.4006 364.331 66.5048Z" fill="white"/>
<path opacity="0.2" d="M295.93 542.195C289.303 560.683 277.147 576.776 261.443 588.598C246.73 599.69 221.269 617.241 194.138 628.126C152.034 645.051 110.608 627.136 92.0339 611.512C73.46 595.889 56.1382 577.973 56.1382 577.973C45.7035 568.131 36.2078 557.35 27.86 545.632C21.5991 536.831 15.7035 527.457 11.0078 517.614C138.886 670.31 295.982 533.185 294.625 480.794C306.051 513.187 299.895 530.998 295.93 542.195Z" fill="black"/>
<path d="M498.73 351.274C494.817 350.909 490.748 350.441 486.521 349.92C489.026 350.18 491.53 350.441 493.982 350.701C495.6 350.857 497.165 351.014 498.73 351.274Z" fill="white"/>
<path opacity="0.2" d="M628.957 550.059C615.861 571.568 596.974 585.577 575.531 597.972C561.652 605.992 546.626 611.929 531.183 616.304C524.452 618.231 517.566 619.585 510.783 621.199C502.383 623.126 493.774 624.22 485.166 624.428C473.583 624.689 462 623.126 450.679 620.783C444.679 619.533 438.783 617.971 432.939 616.148C672.47 574.068 602.139 374.188 602.139 374.188C616.748 385.958 628.487 401.842 635.531 418.299C653.374 459.702 652.8 510.948 628.957 550.059Z" fill="black"/>
<path opacity="0.4" d="M170.569 387.608C172.184 379.043 157.953 369.18 138.783 365.578C119.612 361.976 102.762 365.998 101.147 374.562C99.532 383.127 113.763 392.99 132.933 396.592C152.104 400.194 168.953 396.172 170.569 387.608Z" fill="white"/>
<path opacity="0.6" d="M170.609 342.159C157.514 336.691 142.279 331.691 127.879 333.306C106.331 335.701 65.6354 344.399 30.0007 389.968C25.2007 396.113 20.9746 402.623 17.2702 409.393C7.7224 426.996 2.13979 446.474 0.313706 466.68C-0.0515115 470.847 -0.103685 475.013 0.157184 479.127C0.209358 478.45 0.261532 477.773 0.313706 477.096C2.13979 456.942 7.7224 437.464 17.2702 419.809C20.9224 413.039 25.1485 406.529 30.0007 400.384C65.0615 355.544 105.079 346.378 126.888 343.826C126.575 347.159 134.662 351.377 145.201 353.304C155.896 355.283 165.131 354.19 165.757 350.804C165.757 350.752 165.757 350.648 165.757 350.596C167.427 351.221 169.044 351.898 170.609 352.575C180.262 356.637 188.714 362.001 195.235 369.761C197.166 372.053 200.922 370.751 200.922 367.73C194.14 355.283 183.392 347.523 170.609 342.159Z" fill="white"/>
<path opacity="0.4" d="M435.923 421.226C451.042 401.482 456.952 380.633 449.122 374.659C441.293 368.685 422.689 379.848 407.569 399.592C392.45 419.336 386.54 440.185 394.37 446.158C402.2 452.132 420.803 440.969 435.923 421.226Z" fill="white"/>
<path opacity="0.6" d="M602.192 374.136C593.635 367.21 584.088 361.742 573.966 358.409C562.853 354.763 552.209 353.982 541.253 353.93C535.931 353.878 530.505 354.034 524.975 354.086C518.296 354.138 511.357 353.096 504.418 352.055C503.792 351.951 503.166 351.847 502.54 351.794C501.288 351.586 500.035 351.43 498.783 351.274C497.218 351.065 495.653 350.857 494.088 350.701C491.583 350.44 489.079 350.18 486.627 349.92C484.018 349.659 481.462 349.347 478.853 349.086C467.583 347.889 456.366 346.691 445.096 345.493C440.818 345.024 436.54 344.868 432.262 345.128C421.566 345.753 411.079 348.774 401.688 353.982C392.296 359.138 385.514 366.585 378.731 374.865C364.488 392.312 353.688 412.362 345.914 433.402C339.079 451.943 338.296 471.837 340.644 491.471C341.427 497.876 342.522 504.23 343.827 510.531C345.653 519.177 347.896 527.665 350.244 535.894C351.548 540.321 353.062 544.643 354.835 548.862C356.662 553.288 358.801 557.559 361.201 561.673C364.801 567.923 369.027 573.807 373.775 579.224C374.87 580.422 375.966 581.619 377.062 582.817C373.722 578.599 370.696 574.172 368.035 569.537C365.635 565.423 363.548 561.1 361.67 556.726C359.896 552.507 358.383 548.133 357.079 543.758C354.679 535.529 352.435 527.041 350.662 518.395C349.357 512.094 348.262 505.74 347.479 499.334C345.131 479.701 345.862 459.806 352.748 441.266C358.644 425.33 366.262 409.915 375.809 395.853C375.914 395.958 375.966 396.062 376.07 396.166C379.618 399.707 390.731 394.395 400.853 384.24C410.922 374.188 416.244 363.2 412.853 359.606C421.096 355.752 430.018 353.513 439.096 352.992C443.375 352.732 447.653 352.888 451.931 353.357C463.201 354.555 474.418 355.753 485.688 356.95C488.296 357.211 490.853 357.523 493.462 357.784C495.966 358.044 498.47 358.304 500.922 358.565C502.488 358.721 504.053 358.929 505.618 359.138C506.87 359.294 508.122 359.502 509.375 359.658C510.001 359.763 510.627 359.867 511.253 359.919C518.14 360.96 525.131 362.002 531.809 361.95C537.34 361.898 542.766 361.742 548.088 361.794C559.044 361.846 569.688 362.627 580.801 366.272C590.922 369.606 600.47 375.074 609.027 382C612.731 384.969 616.227 388.198 619.514 391.635C614.348 385.177 608.557 379.24 602.192 374.136Z" fill="white"/>
<path opacity="0.2" d="M504.47 351.794L504.418 352.107C503.792 352.002 503.166 351.898 502.54 351.846C499.67 351.43 496.853 351.013 494.036 350.701C492.157 227.065 394.801 66.8696 394.801 66.8696C397.357 66.3488 399.862 65.6718 402.366 64.7865C403.723 64.3178 404.923 63.4845 405.757 62.3908L406.696 60.9326L408.209 63.797C411.653 70.3068 414.94 76.9209 418.07 83.587C421.201 90.2531 424.227 96.9713 427.096 103.742C431.688 114.626 436.592 125.302 441.914 135.874L450.679 153.269L463.514 186.495L466.957 195.297C470.244 203.629 473.27 212.014 476.14 220.451C479.009 228.94 481.618 237.429 484.018 246.074C487.879 259.927 491.218 273.884 493.931 287.945L498.314 310.443L504.47 351.794Z" fill="black"/>
</g>
<defs>
<clipPath id="clip0_650_635">
<rect width="648" height="635" fill="white"/>
</clipPath>
</defs>
</svg>
