<svg width="509" height="300" viewBox="0 0 509 589" fill="none" xmlns="http://www.w3.org/2000/svg">
<g clip-path="url(#clip0_653_1005)">
<path d="M429.973 376.163C427.776 376.783 425.56 380.352 423.551 384.127C423.345 384.165 423.157 384.221 422.95 384.258C416.811 385.517 410.953 388.635 405.564 392.898C400.513 396.88 395.875 401.876 391.801 407.266C392.402 402.89 393.679 397.932 395.932 396.373C395.256 396.561 388.44 399.453 384.967 403.491C384.685 401.575 385.342 393.199 387.652 391.076C385.342 391.076 376.311 395.302 374.377 401.65C373.419 398.965 372.837 388.672 375.635 385.104C373.138 385.104 364.294 388.466 361.891 396.654C361.403 394.063 361.985 383 363.712 380.014C361.985 380.389 354.193 384.634 353.423 390.888C353.047 388.578 353.423 376.746 356.596 372.895C354.286 373.177 345.255 379.525 343.415 389.254C342.927 385.498 343.603 366.078 346.213 364.049C344.767 364.162 341.293 366.51 338.439 370.811C341.369 354.827 347.696 337.003 359.825 322.203C360.652 321.827 361.478 321.489 362.266 321.208C364.313 320.475 366.097 320.062 366.81 320.175C362.773 322.86 357.291 338.825 357.291 344.028C361.515 338.262 372.762 330.185 373.926 328.551C375.072 332.308 372.387 342.394 370.941 345.286C375.747 339.708 384.591 338.168 386.225 338.355C382.188 340.666 382.563 347.69 382.563 349.906C385.736 344.91 396.026 344.61 398.035 345.192C399.668 348.855 396.119 360.387 392.458 362.509C399.762 361.251 408.812 356.255 409.282 355.391C409.77 360.781 405.526 369.909 403.029 371.449C408.793 369.815 422.744 364.725 424.19 362.603C424.678 367.317 417.562 375.882 413.9 378.962C422.763 375.506 428.058 376.276 429.973 376.163Z" fill="#CCCCCC"/>
<path d="M394.804 396.88C392.551 398.439 392.401 402.89 391.8 407.267C383.238 418.573 377.117 431.664 374.789 441.112C370.17 459.856 364.406 488.423 339.885 497.082C339.415 496.65 338.946 496.161 338.495 495.654C324.826 480.422 315.551 435.045 315.551 435.045C332.092 430.049 335.266 414.855 336.43 388.597C336.599 384.541 336.993 380.164 337.669 375.582C337.894 374.023 338.157 372.426 338.439 370.83C341.312 366.529 344.766 364.181 346.212 364.068C343.621 366.097 342.945 385.517 343.414 389.274C345.236 379.563 354.286 373.215 356.595 372.915C353.422 376.765 353.047 388.598 353.422 390.908C354.192 384.653 361.984 380.427 363.711 380.033C361.984 383.019 361.402 394.082 361.89 396.674C364.293 388.504 373.137 385.123 375.634 385.123C372.837 388.673 373.419 398.965 374.376 401.67C376.291 395.321 385.341 391.095 387.651 391.095C385.341 393.218 384.665 401.576 384.966 403.51C388.439 399.453 394.129 397.068 394.804 396.88Z" fill="#4D4D4D"/>
<path d="M429.972 376.164C428.057 376.258 422.762 375.488 413.918 378.963C417.58 375.882 424.696 367.318 424.208 362.604C422.762 364.726 408.83 369.816 403.047 371.45C405.544 369.91 409.769 360.782 409.299 355.391C408.811 356.255 399.78 361.251 392.476 362.51C396.137 360.387 399.686 348.855 398.053 345.193C396.025 344.611 385.754 344.911 382.581 349.907C382.581 347.691 382.206 340.666 386.243 338.356C384.609 338.168 375.765 339.708 370.959 345.287C372.405 342.394 375.09 332.308 373.944 328.552C372.799 330.186 361.533 338.262 357.309 344.028C357.309 338.826 362.791 322.861 366.828 320.175C365.852 320.006 362.772 320.851 359.843 322.204C366.021 314.672 373.681 307.93 383.182 302.595C389.51 299.046 395.386 295.834 400.813 292.923C402.258 292.153 403.648 291.401 405.019 290.669C408.774 290.725 412.285 291.345 415.101 292.472C404.436 296.228 391.537 307.479 390.88 312.099C404.061 303.159 420.208 301.619 427.7 303.347C419.814 305.469 416.641 315.649 416.547 316.813C427.118 311.047 438.571 312.587 439.623 313.264C433.765 313.545 424.151 323.162 423.475 326.148C434.91 322.016 445.687 322.786 448.767 320.664C450.494 325.754 438.759 336.253 431.85 338.168C442.627 339.521 449.837 335.764 453.386 336.046C449.537 337.868 438.102 350.283 438.008 355.767C441.669 352.217 452.428 350.47 454.062 351.729C444.167 354.903 440.599 360.763 439.153 365.383C445.5 365.158 453.461 366.83 460.783 366.717C453.273 372.802 439.21 380.784 423.588 384.128C424.508 382.4 425.466 380.709 426.461 379.338C427.587 377.723 428.789 376.521 429.972 376.164Z" fill="#4D4D4D"/>
<path d="M506.899 296.547C497.097 300.585 489.906 332.439 476.068 344.366C462.23 356.292 449.143 359.617 445.294 359.617C450.814 361.664 463.883 361.025 466.455 359.748C466.755 360.969 464.634 363.58 460.747 366.716C453.406 366.829 445.463 365.157 439.117 365.383C440.563 360.762 444.111 354.902 454.025 351.728C452.392 350.47 441.614 352.217 437.972 355.766C437.99 354.658 438.479 353.25 439.267 351.728C442.384 345.699 450.289 337.51 453.349 336.045C449.801 335.764 442.572 339.501 431.813 338.168C438.741 336.252 450.458 325.753 448.73 320.663C445.651 322.785 434.892 322.015 423.439 326.147C424.115 323.161 433.728 313.545 439.586 313.263C438.535 312.587 427.082 311.047 416.511 316.813C416.604 315.667 419.778 305.469 427.664 303.346C420.172 301.618 404.006 303.158 390.844 312.099C391.52 307.478 404.4 296.228 415.065 292.471C412.248 291.345 408.737 290.725 404.982 290.668C421.993 281.578 433.972 275.53 440.15 270.91C442.14 269.426 443.529 268.074 444.299 266.815C443.717 276.056 437.671 281.822 434.498 283.268C454.119 276.056 486.132 283.569 506.899 296.547Z" fill="#CCCCCC"/>
<path d="M506.898 296.547C497.097 300.585 489.906 332.439 476.068 344.366C462.23 356.292 449.143 359.617 445.294 359.617C450.814 361.664 463.882 361.025 466.454 359.748C466.755 360.969 464.633 363.58 460.747 366.716C453.405 366.829 445.463 365.157 439.117 365.383C440.562 360.762 444.111 354.902 454.025 351.728C452.391 350.47 441.614 352.217 437.971 355.766C437.99 354.658 438.478 353.25 439.267 351.728C454.795 347.183 479.767 332.383 484.986 315.949C483.635 318.071 477.683 320.569 470.942 319.987C479.973 316.907 489.981 298.82 494.506 296.904C486.714 293.636 464.708 286.33 452.673 287.776C453.724 286.724 460.465 284.114 465.948 283.926C455.17 281.334 437.483 287.682 426.33 286.424C433.165 283.926 438.459 276.451 440.168 270.91C442.158 269.426 443.548 268.074 444.318 266.815C443.735 276.056 437.69 281.822 434.516 283.268C454.119 276.056 486.132 283.569 506.898 296.547Z" fill="#999999"/>
<path d="M507.406 295.74C491.634 285.879 470.079 279.512 452.448 279.512C447.642 279.512 443.21 279.982 439.23 280.883C442.121 277.859 444.881 273.07 445.257 266.891L445.501 263.003L443.492 266.327C440.938 270.534 429.936 276.357 413.3 285.184C410.521 286.668 407.63 288.189 404.55 289.842L401.265 291.589L404.982 291.645C407.611 291.683 410.089 292.002 412.267 292.584C407.855 294.519 403.011 297.58 398.598 301.243C393.51 305.469 390.262 309.488 389.905 311.986L389.586 314.146L391.388 312.925C403.968 304.379 417.412 303.722 421.242 303.722C422.275 303.722 423.27 303.76 424.209 303.835C418.069 307.554 415.647 315.761 415.572 316.775L415.422 318.56L416.98 317.696C423.589 314.09 430.349 313.545 433.785 313.545C434.329 313.545 434.836 313.564 435.306 313.583C432.79 314.822 430.424 316.7 428.941 317.996C426.162 320.419 422.951 323.95 422.5 325.96L422.106 327.669L423.758 327.068C430.011 324.814 435.982 324.044 440.769 323.424C443.83 323.03 446.233 322.729 447.904 322.128C447.829 322.842 447.548 323.668 447.059 324.57C444.487 329.416 436.658 335.82 431.532 337.248L426.913 338.525L431.682 339.126C433.278 339.333 434.893 339.426 436.489 339.426C441.408 339.426 445.501 338.469 448.468 337.774C448.9 337.68 449.294 337.586 449.688 337.492C447.792 339.145 445.576 341.417 443.492 343.915C441.089 346.789 437.052 352.161 436.977 355.748L436.939 358.077L438.61 356.443C440.769 354.339 445.839 352.874 449.594 352.423C446.834 353.738 444.525 355.391 442.666 357.363C443.398 357.588 444.187 357.57 444.994 357.776C447.397 355.579 450.495 353.851 454.288 352.63L456.034 352.067L454.57 350.94C454.232 350.677 453.575 350.339 451.772 350.339C448.58 350.339 443.098 351.447 439.474 353.475C441.783 347.822 450.514 338.431 453.744 336.91L456.973 335.37L453.406 335.088C453.256 335.069 453.087 335.069 452.918 335.069C451.603 335.069 450.026 335.445 448.036 335.895C444.975 336.609 441.183 337.492 436.489 337.492C436.282 337.492 436.075 337.492 435.85 337.492C440.901 334.769 446.534 329.66 448.768 325.471C449.82 323.481 450.101 321.771 449.632 320.363L449.219 319.161L448.167 319.874C446.984 320.682 443.999 321.077 440.525 321.509C436.451 322.034 431.062 322.711 425.429 324.457C426.443 323.067 428.133 321.208 430.18 319.405C433.785 316.268 437.296 314.315 439.624 314.202L442.647 314.052L440.094 312.437C439.324 311.949 436.658 311.592 433.766 311.592C430.48 311.592 424.34 312.061 418.013 314.972C419.196 311.779 422.294 305.788 427.889 304.286L431.607 303.29L427.852 302.426C426.011 301.994 423.702 301.769 421.205 301.769C417.544 301.769 405.301 302.351 393.153 309.488C394.449 307.685 396.627 305.337 399.8 302.708C404.888 298.482 410.559 295.082 415.365 293.392L417.769 292.547L415.403 291.589C413.375 290.763 411.009 290.199 408.418 289.917C410.409 288.866 412.305 287.851 414.164 286.856C428.603 279.212 438.31 274.047 442.872 269.877C441.333 276.92 436.489 281.278 434.066 282.386L434.799 284.17C439.756 282.348 445.689 281.428 452.429 281.428C469.196 281.428 489.625 287.307 504.965 296.51C500.459 299.59 496.609 307.647 492.235 316.832C487.559 326.636 482.246 337.755 475.43 343.634C467.976 350.057 460.616 354.02 454.908 356.255C450.514 357.964 443.999 360.162 443.999 360.162L444.957 360.518C448.186 361.721 453.256 361.908 455.997 361.908C458.982 361.908 462.568 361.683 464.953 361.195C464.296 362.152 462.963 363.655 460.39 365.777C456.879 365.796 453.218 365.439 449.669 365.082C446.402 364.744 443.323 364.444 440.45 364.425C440.92 363.242 441.483 362.152 442.159 361.119C441.521 360.932 440.882 360.725 440.169 360.65C439.324 362.04 438.648 363.524 438.16 365.139L437.747 366.435L439.098 366.397C439.474 366.378 439.868 366.378 440.263 366.378C443.079 366.378 446.177 366.698 449.444 367.017C452.918 367.374 456.504 367.731 459.996 367.731C460.24 367.731 460.484 367.731 460.71 367.731H461.048L461.31 367.524C464.352 365.064 467.863 361.683 467.338 359.561L467.056 358.396L465.986 358.941C464.915 359.485 460.879 360.03 455.978 360.03C453.988 360.03 452.129 359.936 450.477 359.767C456.466 358.19 466.192 354.151 476.651 345.136C483.785 338.994 489.174 327.688 493.943 317.696C498.45 308.248 502.712 299.346 507.218 297.468L508.945 296.754L507.406 295.74Z" fill="#666666"/>
<path d="M426.424 379.338C433.559 378.042 440.713 373.422 447.66 368.464C446.383 368.651 440.356 367.825 435.794 368.464C435.794 366.21 436.432 362.622 439.568 358.021C438.159 358.603 436.169 361.101 434.442 362.19C433.353 356.556 437.127 342.77 442.065 340.779C436.488 342.056 423.739 340.911 420.717 338.15C432.189 337.117 439.699 329.04 445.276 324.044C442.459 325.528 425.786 327.049 419.947 329.998C419.628 327.237 422.068 318.579 428.152 315.818C425.204 316.325 415.647 319.349 413.018 323.706C413.018 323.011 413.281 308.887 417.825 306.07C411.103 306.258 395.895 311.836 386.863 318.053C386.995 306.634 397.059 296.322 407.442 293.824C407.292 293.768 405.245 293.186 400.758 292.923C402.203 292.153 403.593 291.401 404.963 290.669C408.719 290.725 412.23 291.345 415.046 292.472C404.381 296.228 391.482 307.479 390.825 312.099C404.006 303.159 420.153 301.619 427.645 303.347C419.759 305.469 416.586 315.649 416.492 316.813C427.063 311.047 438.516 312.587 439.568 313.264C433.71 313.545 424.096 323.162 423.42 326.148C434.855 322.016 445.632 322.786 448.712 320.664C450.439 325.754 438.704 336.253 431.794 338.168C442.572 339.521 449.782 335.764 453.331 336.046C449.481 337.868 438.047 350.283 437.953 355.767C441.614 352.217 452.373 350.47 454.006 351.729C444.111 354.903 440.544 360.763 439.098 365.383C445.445 365.158 453.406 366.83 460.728 366.717C453.218 372.802 439.155 380.784 423.533 384.128C424.491 382.4 425.448 380.728 426.424 379.338Z" fill="#3A3A3A"/>
<path d="M449.687 365.064C446.42 364.726 443.34 364.425 440.467 364.406C442.646 358.847 447.302 354.884 454.305 352.649L456.052 352.085L454.587 350.958C454.249 350.695 453.592 350.357 451.789 350.357C448.598 350.357 443.115 351.466 439.491 353.494C441.801 347.841 450.531 338.45 453.761 336.928L456.99 335.388L453.423 335.107C453.273 335.088 453.104 335.088 452.935 335.088C451.62 335.088 450.043 335.463 448.053 335.914C444.993 336.628 441.2 337.511 436.506 337.511C436.299 337.511 436.093 337.511 435.867 337.511C440.918 334.787 446.551 329.679 448.785 325.49C449.837 323.499 450.118 321.79 449.649 320.382L449.236 319.18L448.184 319.893C447.002 320.701 444.016 321.095 440.543 321.527C436.468 322.053 431.079 322.729 425.447 324.476C426.461 323.086 428.15 321.227 430.197 319.424C433.802 316.287 437.313 314.334 439.641 314.221L442.664 314.071L440.111 312.456C439.341 311.967 436.675 311.61 433.783 311.61C430.497 311.61 424.358 312.08 418.03 314.991C419.213 311.798 422.311 305.807 427.906 304.304L431.624 303.309L427.869 302.445C426.029 302.013 423.719 301.787 421.222 301.787C417.561 301.787 405.319 302.37 393.171 309.507C394.466 307.704 396.644 305.356 399.817 302.727C404.906 298.501 410.576 295.101 415.383 293.411L417.786 292.566L415.42 291.608C412.529 290.443 408.924 289.786 405 289.729H404.755L404.53 289.842C399.386 292.584 391.537 296.81 382.675 301.769C373.644 306.84 365.701 313.507 359.073 321.602L356.614 324.889L360.219 323.086C361.627 322.448 363.016 321.94 364.18 321.602C360.237 327.143 356.332 339.727 356.332 344.047V346.977L358.078 344.61C360.744 340.985 366.49 336.215 370.301 333.059C371.559 332.008 372.536 331.2 373.268 330.58C373.381 334.731 371.409 342.262 370.114 344.873L366.659 351.785L371.691 345.944C374.977 342.131 380.29 340.29 383.595 339.633C381.567 342.657 381.623 347.202 381.642 349.418C381.642 349.625 381.642 349.794 381.642 349.944V353.25L383.407 350.451C385.66 346.92 392.176 345.962 395.668 345.962C396.4 345.962 396.963 346 397.358 346.056C397.79 347.69 397.414 350.846 396.363 354.17C395.198 357.851 393.452 360.875 392.025 361.702L387.388 364.387L392.664 363.486C396.982 362.753 401.545 360.8 403.892 359.711C404.267 359.523 406.633 358.415 408.379 357.344C407.947 362.566 404.38 369.553 402.596 370.661L396.682 374.304L403.347 372.407C406.502 371.525 411.552 369.759 415.646 368.125C419.495 366.604 421.729 365.514 423.062 364.744C421.842 369.102 416.547 375.544 413.336 378.249L408.867 382.005L414.294 379.883C420.039 377.629 424.226 377.216 427.005 377.159C425.484 378.793 424.076 381.216 422.743 383.714L421.767 385.536L423.794 385.104C439.679 381.723 453.986 373.515 461.384 367.505L463.543 365.759L460.764 365.796C457.141 365.834 453.348 365.439 449.687 365.064ZM425.052 382.813C426.329 380.577 427.643 377.535 429.277 377.065L429.934 375.206C429.653 375.225 429.277 375.206 428.826 375.206C428.488 375.206 428.113 375.187 427.681 375.187C425.409 375.187 422.067 375.375 417.598 376.671C421.203 372.708 425.578 366.585 425.165 362.491L424.902 359.861L423.419 362.04C423.344 362.152 422.386 363.317 414.913 366.284C412.078 367.411 408.792 368.595 406.013 369.515C408.417 365.759 410.651 359.392 410.276 355.278L409.994 352.16L408.511 354.846C407.778 355.579 401.545 359.091 395.386 360.838C396.851 358.621 397.827 355.785 398.184 354.696C399.235 351.409 399.968 347.071 398.954 344.779L398.766 344.366L398.334 344.235C397.564 344.009 396.325 343.99 395.649 343.99C391.706 343.99 386.655 344.929 383.557 347.409C383.632 344.591 384.139 340.647 386.73 339.163L389.265 337.717L386.374 337.379C386.242 337.36 386.111 337.36 385.942 337.36C383.895 337.36 377.962 338.506 373.23 341.924C374.564 337.548 375.784 331.237 374.864 328.251L374.282 326.373L373.155 327.969C372.817 328.439 370.996 329.96 369.062 331.557C365.833 334.243 361.646 337.698 358.641 340.929C359.167 338.318 360.162 334.862 361.439 331.5C363.486 326.072 365.739 322.034 367.354 320.964L369.344 319.63L366.978 319.217C366.847 319.198 366.696 319.18 366.509 319.18C365.72 319.18 364.481 319.442 363.054 319.912C369.006 313.301 375.915 307.76 383.632 303.421C392.344 298.538 400.099 294.369 405.225 291.626C407.76 291.683 410.144 292.002 412.247 292.547C407.835 294.481 402.991 297.543 398.578 301.205C393.49 305.431 390.242 309.45 389.885 311.948L389.566 314.108L391.368 312.888C403.948 304.342 417.392 303.684 421.222 303.684C422.255 303.684 423.25 303.722 424.189 303.797C418.049 307.516 415.627 315.724 415.552 316.738L415.401 318.522L416.96 317.658C423.569 314.052 430.328 313.507 433.764 313.507C434.309 313.507 434.816 313.526 435.285 313.545C432.769 314.785 430.404 316.663 428.92 317.959C426.141 320.382 422.931 323.913 422.48 325.922L422.086 327.631L423.738 327.03C429.99 324.776 435.961 324.006 440.749 323.387C443.81 322.992 446.213 322.692 447.884 322.091C447.809 322.804 447.527 323.631 447.039 324.532C444.467 329.378 436.637 335.783 431.511 337.21L426.892 338.487L431.662 339.088C433.258 339.295 434.872 339.389 436.468 339.389C441.388 339.389 445.481 338.431 448.447 337.736C448.879 337.642 449.273 337.548 449.668 337.454C447.771 339.107 445.556 341.38 443.472 343.878C441.068 346.751 437.031 352.123 436.956 355.71L436.919 358.039L438.59 356.405C440.749 354.302 445.819 352.837 449.574 352.386C443.753 355.166 439.923 359.41 438.158 365.045L437.745 366.341L439.097 366.303C439.472 366.284 439.867 366.284 440.261 366.284C443.077 366.284 446.175 366.604 449.442 366.923C452.221 367.205 455.094 367.486 457.91 367.599C450.682 373.027 438.346 379.601 425.052 382.813Z" fill="#131313"/>
<path d="M429.974 376.164C427.777 376.784 425.562 380.353 423.553 384.128C423.346 384.165 423.158 384.222 422.952 384.259C416.812 385.518 410.954 388.635 405.565 392.899C407.837 389.255 413.601 382.907 417.187 381.461C415.554 381.461 405.847 385.311 401.04 384.729C405.359 383.282 407.48 375.976 413.244 372.032C412.193 372.126 396.515 377.122 392.084 375.695C394.882 375.018 403.143 367.712 403.049 362.998C399.2 365.496 382.564 368.295 381.513 364.632C390.751 362.604 394.581 355.016 395.069 348.386C394.112 348.386 383.822 350.79 379.973 357.626C379.204 355.504 377.946 347.522 379.786 342.714C377.57 343.765 371.224 352.236 361.329 355.41C363.826 351.654 368.257 343.578 369.027 337.042C368.069 338.187 359.695 345.888 355.471 349.344C353.048 336.178 357.63 328.064 362.268 321.227C364.314 320.495 366.098 320.081 366.811 320.194C362.774 322.88 357.292 338.845 357.292 344.047C361.516 338.281 372.763 330.205 373.927 328.571C375.073 332.327 372.388 342.413 370.942 345.306C375.749 339.727 384.592 338.187 386.226 338.375C382.189 340.685 382.564 347.71 382.564 349.926C385.738 344.93 396.027 344.629 398.036 345.212C399.669 348.874 396.121 360.406 392.459 362.529C399.763 361.27 408.813 356.274 409.283 355.41C409.771 360.801 405.528 369.929 403.03 371.469C408.795 369.835 422.745 364.745 424.191 362.622C424.679 367.337 417.563 375.901 413.902 378.981C422.764 375.507 428.059 376.277 429.974 376.164Z" fill="#999999"/>
<path d="M427.683 375.206C425.411 375.206 422.069 375.394 417.6 376.69C421.205 372.727 425.58 366.604 425.167 362.509L424.904 359.88L423.42 362.058C423.345 362.171 422.388 363.336 414.915 366.303C412.08 367.43 408.794 368.613 406.015 369.534C408.418 365.777 410.653 359.41 410.277 355.297L409.996 352.179L408.512 354.865C407.78 355.598 401.546 359.11 395.388 360.856C396.852 358.64 397.829 355.804 398.185 354.715C399.237 351.428 399.969 347.089 398.955 344.798L398.767 344.385L398.336 344.253C397.566 344.028 396.327 344.009 395.651 344.009C391.708 344.009 386.657 344.948 383.559 347.427C383.634 344.61 384.141 340.666 386.732 339.182L389.267 337.736L386.375 337.398C386.244 337.379 386.112 337.379 385.943 337.379C383.897 337.379 377.964 338.525 373.232 341.943C374.565 337.567 375.786 331.256 374.866 328.27L374.283 326.392L373.157 327.988C372.819 328.458 370.998 329.979 369.064 331.576C365.834 334.261 361.647 337.717 358.643 340.948C359.169 338.337 360.164 334.881 361.441 331.519C363.487 326.091 365.74 322.053 367.355 320.983L369.345 319.649L366.98 319.236C366.848 319.217 366.698 319.198 366.51 319.198C365.102 319.198 362.192 320.081 359.432 321.321L359.225 321.415L359.075 321.584C345.65 337.961 339.923 357.288 337.501 370.623L336.656 375.206L339.247 371.318C340.881 368.858 342.721 367.092 344.167 366.059C343.641 367.862 343.115 370.848 342.721 375.901C342.27 381.592 342.252 387.452 342.477 389.349L343.247 395.378L344.373 389.405C345.725 382.23 351.095 377.159 354.362 374.999C352.353 380.239 352.128 388.935 352.466 391.02L353.555 397.575L354.362 390.983C354.888 386.719 359.263 383.282 362.023 381.761C360.802 386.343 360.502 394.551 360.934 396.805L361.666 400.768L362.793 396.899C364.614 390.701 370.472 387.376 373.833 386.381C371.955 391.17 372.631 399.622 373.476 401.951L374.452 404.693L375.297 401.895C376.706 397.256 382.301 393.837 385.568 392.56C384.066 396.166 383.765 402.064 383.991 403.585L384.31 405.67L385.681 404.074C387.596 401.839 390.656 399.942 392.966 398.721C391.839 401.162 391.182 404.374 390.825 407.079L390.318 410.722L392.534 407.792C399.237 398.946 409.977 387.846 423.12 385.16C423.27 385.123 423.402 385.104 423.552 385.066L424.171 384.935L424.378 384.54C427.063 378.436 431.982 375.074 431.982 375.074C431.982 375.074 428.114 375.206 427.683 375.206ZM422.932 383.282C422.876 383.301 422.838 383.301 422.782 383.32C410.54 385.836 400.401 395.19 393.454 403.642C393.51 403.397 393.566 403.153 393.642 402.909L393.773 396.26C391.726 397.218 388.478 398.946 385.925 401.2C386.094 398.101 386.882 393.143 388.347 391.79L390.168 390.119H387.69C386.131 390.119 383.052 391.415 380.386 393.18C378.546 394.401 376.33 396.223 374.809 398.571C374.377 394.608 374.49 388.165 376.424 385.705L377.644 384.146H375.673C373.119 384.146 366.341 386.757 362.736 392.56C362.849 388.334 363.506 382.381 364.595 380.502L365.703 378.605L363.562 379.075C361.872 379.451 357.085 382.08 354.381 386.062C354.606 381.742 355.451 375.863 357.385 373.497L358.925 371.637L356.521 371.938C354.287 372.22 347.715 376.633 344.298 383.714C344.336 381.441 344.448 378.737 344.674 376.07C345.293 368.031 346.345 365.214 346.852 364.801L349.386 362.829L346.176 363.092C344.786 363.204 342.458 364.669 340.205 367.092C342.946 354.339 348.654 337.492 360.464 322.992C361.816 322.391 363.13 321.922 364.22 321.602C360.277 327.143 356.371 339.727 356.371 344.047V346.977L358.117 344.61C360.783 340.985 366.529 336.215 370.34 333.059C371.598 332.007 372.575 331.2 373.307 330.58C373.42 334.731 371.448 342.262 370.153 344.873L366.698 351.785L371.73 345.944C375.016 342.131 380.329 340.29 383.634 339.633C381.606 342.657 381.662 347.202 381.681 349.418C381.681 349.625 381.681 349.794 381.681 349.944V353.25L383.446 350.451C385.699 346.92 392.215 345.962 395.707 345.962C396.439 345.962 397.002 346 397.397 346.056C397.829 347.69 397.453 350.846 396.402 354.17C395.238 357.851 393.491 360.875 392.064 361.702L387.427 364.387L392.703 363.486C397.021 362.753 401.584 360.8 403.931 359.711C404.306 359.523 406.672 358.415 408.418 357.344C407.986 362.566 404.419 369.552 402.635 370.661L396.721 374.304L403.386 372.407C406.541 371.525 411.591 369.759 415.685 368.125C419.534 366.604 421.768 365.514 423.101 364.744C421.881 369.102 416.586 375.544 413.375 378.249L408.907 382.005L414.333 379.883C420.078 377.629 424.265 377.215 427.044 377.159C425.542 378.68 424.19 380.934 422.932 383.282Z" fill="#666666"/>
<path d="M394.805 396.88C392.552 398.439 392.402 402.89 391.801 407.267C383.239 418.573 377.118 431.664 374.79 441.112C370.171 459.856 364.407 488.423 339.886 497.082C339.416 496.65 338.947 496.161 338.496 495.654C336.731 484.385 334.422 468.158 334.271 460.175C336.581 459.03 353.123 464.796 356.84 455.949C360.558 447.103 365.627 423.382 371.392 420.489C371.711 420.996 370.303 425.241 371.767 429.655C372.8 425.034 385.042 410.741 386.638 406.384C386.187 406.966 383.296 409.464 382.413 410.159C382.226 409.201 380.367 403.097 381.643 398.364C381.381 398.552 376.123 403.435 374.79 410.028C373.438 408.356 368.951 400.918 370.246 392.26C369.42 392.636 364.088 398.796 363.262 407.398C361.459 405.802 357.178 396.749 358.511 388.804C357.817 389.499 353.836 394.758 354.85 402.778C351.902 398.928 349.011 388.278 350.363 382.268C349.011 383.094 345.049 391.753 343.303 398.683C338.759 391.621 340.223 375.093 341.575 371.112C341.125 371.468 339.303 372.764 337.67 375.582C337.895 374.023 338.158 372.426 338.44 370.83C341.312 366.529 344.767 364.181 346.213 364.068C343.622 366.097 342.946 385.517 343.415 389.274C345.237 379.563 354.287 373.215 356.596 372.915C353.423 376.765 353.048 388.598 353.423 390.908C354.193 384.653 361.985 380.427 363.712 380.033C361.985 383.019 361.403 394.082 361.891 396.674C364.294 388.504 373.138 385.123 375.635 385.123C372.837 388.673 373.42 398.965 374.377 401.67C376.292 395.321 385.342 391.095 387.652 391.095C385.342 393.218 384.666 401.576 384.967 403.51C388.44 399.453 394.13 397.068 394.805 396.88Z" fill="#3A3A3A"/>
<path d="M385.905 401.201C386.074 398.101 386.863 393.143 388.327 391.791L390.148 390.119H387.67C386.112 390.119 383.032 391.415 380.366 393.181C378.526 394.401 376.31 396.223 374.79 398.571C374.358 394.608 374.47 388.166 376.404 385.705L377.625 384.147H375.653C373.1 384.147 366.322 386.757 362.717 392.561C362.829 388.335 363.486 382.381 364.575 380.503L365.683 378.606L363.543 379.075C361.853 379.451 357.065 382.081 354.361 386.062C354.587 381.742 355.432 375.864 357.365 373.497L358.905 371.638L356.502 371.938C354.267 372.22 347.696 376.634 344.279 383.715C344.316 381.442 344.429 378.737 344.654 376.07C345.274 368.032 346.325 365.214 346.832 364.801L349.367 362.829L346.156 363.092C344.222 363.242 340.523 365.984 337.651 370.286L337.538 370.455L337.5 370.642C336.411 376.596 335.735 382.606 335.473 388.541C334.984 399.717 334.083 411.192 330.872 419.419C327.868 427.12 322.911 431.796 315.288 434.106L314.443 434.369L314.612 435.233C314.631 435.346 317.147 447.554 321.39 461.265C327.117 479.765 333.126 492.048 339.228 497.796L339.66 498.19L340.204 498.002C350.756 494.284 358.83 486.714 364.876 474.901C370.002 464.89 372.781 453.414 375.015 444.211C375.259 443.234 375.484 442.295 375.71 441.356C378.244 431.082 384.685 418.236 392.552 407.868L392.702 407.661L392.74 407.417C393.472 402.121 395.65 395.472 395.65 395.472C395.087 395.622 389.735 397.82 385.905 401.201ZM390.899 406.891C382.957 417.428 376.442 430.425 373.87 440.887C373.644 441.807 373.4 442.765 373.175 443.741C368.669 462.317 362.491 487.71 340.148 495.974C327.361 483.259 318.086 442.126 316.696 435.684C324.451 433.111 329.539 428.152 332.675 420.133C335.998 411.643 336.918 399.98 337.406 388.635C337.669 382.851 338.327 376.991 339.378 371.187C340.993 368.821 342.776 367.093 344.185 366.078C343.659 367.881 343.133 370.868 342.739 375.92C342.288 381.611 342.269 387.471 342.495 389.368L343.265 395.397L344.391 389.424C345.743 382.25 351.113 377.178 354.38 375.019C352.371 380.259 352.146 388.955 352.484 391.039L353.573 397.594L354.38 391.002C354.906 386.738 359.281 383.301 362.041 381.78C360.82 386.363 360.52 394.57 360.952 396.824L361.684 400.787L362.81 396.918C364.632 390.72 370.49 387.396 373.851 386.4C371.973 391.19 372.649 399.642 373.494 401.971L374.47 404.713L375.315 401.914C376.724 397.275 382.319 393.857 385.586 392.58C384.084 396.186 383.783 402.083 384.009 403.605L384.328 405.689L385.698 404.093C387.614 401.858 390.674 399.961 392.984 398.74C391.913 401.144 391.275 404.224 390.899 406.891Z" fill="#131313"/>
<path d="M153.513 550.704C144.538 557.634 110.704 540.693 93.1293 561.597L89.8435 553.277L70.3164 503.768C79.6669 498.509 73.452 461.189 111.53 443.685L153.1 549.671L153.513 550.704Z" fill="#4D4D4D"/>
<path d="M153.512 550.703C144.537 557.634 110.702 540.692 93.1277 561.597L89.8419 553.276C88.6778 545.425 88.7529 536.354 92.6959 529.104C101.633 518.999 119.809 526.794 128.183 515.262C128.183 515.262 144.875 536.805 153.098 549.67L153.512 550.703Z" fill="#3A3A3A"/>
<path d="M135.506 550.76C128.578 550.027 120.748 549.22 113.163 550.234C104.882 551.342 98.4047 554.479 93.4666 559.794L71.5174 504.143C74.4277 501.927 75.7608 496.987 77.5633 490.338C81.2246 476.722 86.7823 456.137 111.961 444.567L111.154 442.82C85.1488 454.766 79.4596 475.876 75.7044 489.831C73.9583 496.292 72.5876 501.401 69.8651 502.922L69.1328 503.336L92.8282 563.456L93.8609 562.217C104.601 549.445 121.612 551.229 135.3 552.676C143.768 553.558 150.471 554.272 154.094 551.474L152.912 549.952C149.907 552.281 143.242 551.567 135.506 550.76Z" fill="#131313"/>
<path d="M71.724 485.718C65.2838 481.68 56.628 481.097 53.5488 488.404C47.8784 485.812 39.3165 488.497 38.4528 495.616C30.0787 496.104 26.7178 501.025 25.948 508.256C25.1782 515.468 28.5766 522.624 36.7254 522.098C39.9925 524.596 48.836 538.701 51.0516 547.078C53.2671 555.455 57.7734 570.349 63.8381 574.594C69.9027 578.82 79.5161 579.59 88.2657 576.04C98.1607 572.021 104.62 556.619 99.813 534.1C94.9875 511.599 78.1642 489.756 71.724 485.718Z" fill="#1A1A1A"/>
<path d="M36.2385 495.334C33.7601 501.551 36.1822 508.707 39.8435 511.036C43.4861 513.365 36.5765 520.69 29.5918 518.755C29.7796 520.953 43.1669 527.226 49.7573 511.562C53.6251 512.426 60.6662 507.749 61.605 503.486C64.7406 504.35 83.6105 494.264 73.6029 486.826C75.8935 493.325 61.5674 502.19 56.5542 500.368C49.4756 495.522 54.0194 488.798 54.0194 487.822C52.6676 486.77 51.9165 486.732 51.5222 487.521C49.4944 491.991 51.8977 500.18 53.1182 503.335C54.4325 506.716 44.2559 509.703 42.1718 508.162C37.3839 503.786 38.1912 495.41 38.1725 495.053C38.3414 494.076 36.2385 495.334 36.2385 495.334Z" fill="#0D0D0D"/>
<path d="M87.7971 576.19C78.6719 579.533 68.7581 578.519 62.6184 574.162C58.7693 571.42 55.6337 564.527 53.3242 557.69C65.1344 571.739 88.2289 569.166 92.1906 549.708C95.5328 533.274 87.8722 502.434 76.0432 488.216C83.7602 495.785 96.8847 515.036 100.734 534.588C105.146 557.183 98.1239 572.415 87.7971 576.19Z" fill="#0D0D0D"/>
<path d="M87.1776 502.472C81.9578 494.301 75.9495 487.239 72.2318 484.911C69.0587 482.92 65.5288 481.812 62.3368 481.812C58.131 481.812 54.864 483.708 53.0615 487.183C51.7659 486.732 50.3577 486.488 48.912 486.488C44.0114 486.488 38.7353 489.324 37.6276 494.733C33.7597 495.09 30.7368 496.461 28.6526 498.79C26.6436 501.025 25.4419 504.087 25.0101 508.181C24.5219 512.82 25.6484 517.065 28.1269 519.826C30.0608 521.986 32.7646 523.132 35.9189 523.132C36.0879 523.132 36.2381 523.132 36.4071 523.132C39.5239 525.911 47.9732 539.209 50.1324 547.379C54.188 562.724 58.6192 572.152 63.2944 575.42C66.8619 577.918 71.6873 579.29 76.8695 579.29C80.8125 579.29 84.8869 578.482 88.6421 576.961C93.9933 574.782 98.1991 569.579 100.471 562.329C102.931 554.46 103.043 544.637 100.753 533.95C98.631 523.996 93.8055 512.82 87.1776 502.472ZM98.631 561.71C96.528 568.415 92.7165 573.185 87.9098 575.139C84.3987 576.566 80.5684 577.317 76.8695 577.317C72.0816 577.317 67.6505 576.059 64.4022 573.786C60.1588 570.819 55.8779 561.503 51.9912 546.816C49.7757 538.401 40.7819 523.958 37.3271 521.329L37.0455 521.103L36.6888 521.122C33.7221 521.31 31.3188 520.408 29.5726 518.474C27.4885 516.164 26.5121 512.37 26.944 508.332C27.7514 500.706 31.4502 496.969 38.5476 496.555L39.355 496.518L39.4488 495.729C40.0684 490.695 44.8 488.385 48.9495 488.385C50.4704 488.385 51.9349 488.686 53.1929 489.268L54.0942 489.681L54.4697 488.761C56.2346 484.591 59.7458 483.708 62.3744 483.708C65.172 483.708 68.4015 484.723 71.2367 486.507C77.076 490.169 94.012 511.449 98.875 534.269C101.072 544.675 100.997 554.159 98.631 561.71Z" fill="#060606"/>
<path d="M40.8008 506.003C38.2098 501.345 39.2988 496.011 39.8057 493.964L38.0408 493.344C37.1395 495.898 36.2383 502.077 39.1298 506.942C43.0727 513.591 49.4566 511.543 49.4566 511.543C45.4198 510.924 42.5095 509.064 40.8008 506.003Z" fill="#060606"/>
<path d="M53.8687 495.842C53.0989 492.123 54.3757 488.066 55.7276 486.564L54.2255 485.812C52.085 487.447 50.9772 492.048 51.9911 496.236C54.0941 505.008 61.1914 503.636 61.1914 503.636C55.9529 502.359 54.3569 498.209 53.8687 495.842Z" fill="#060606"/>
<path d="M41.4015 519.657C38.3035 520.916 36.2757 521.911 31.9384 520.465L31.8633 522.324C33.5531 522.775 34.9238 522.963 36.1067 522.982C40.2374 523.019 41.8146 519.488 41.8146 519.488L41.4015 519.657Z" fill="#060606"/>
<path d="M340.955 486.207C340.204 488.874 338.608 491.71 336.28 494.621C320.301 514.718 270.357 539.622 231.171 555.211C225.97 557.277 220.957 559.174 216.244 560.884C217.746 558.649 219.136 556.151 220.413 553.408C236.879 517.892 233.725 442.933 227.51 393.856C224.337 368.745 221.445 352.029 214.198 339.614C208.358 329.603 199.665 322.354 185.658 315.705C211.532 310.671 239.658 306.164 249.046 308.079C267.897 311.93 273.662 321.922 284.815 337.698C295.968 353.475 299.817 401.181 313.655 418.104C327.493 435.026 349.029 457.339 340.955 486.207Z" fill="#4D4D4D"/>
<path d="M340.954 486.207C340.203 488.874 338.607 491.71 336.279 494.621C336.41 475.914 332.73 454.653 328.468 448.68C322.121 439.834 308.847 432.904 301.073 438.256C287.705 429.166 259.822 435.026 247.13 440.416C247.411 439.965 284.044 380.746 282.504 369.627C280.964 358.471 274.487 329.04 259.409 326.917C255.767 326.41 243.299 327.424 237.535 331.763C233.611 334.712 224.974 338.074 214.215 339.633C208.376 329.622 199.683 322.372 185.676 315.723C211.549 310.69 239.676 306.182 249.064 308.098C267.915 311.948 273.679 321.94 284.832 337.717C295.985 353.494 299.834 401.2 313.672 418.122C327.491 435.026 349.027 457.339 340.954 486.207Z" fill="#3A3A3A"/>
<path d="M317.991 421.86C316.733 420.339 315.531 418.911 314.386 417.503C307.101 408.6 302.613 390.889 298.257 373.779C294.446 358.791 290.428 344.892 285.584 337.154C278.449 325.791 267.089 310.784 249.214 307.14C247.693 306.821 245.647 306.671 243.131 306.671C232.541 306.671 213.127 309.394 185.451 314.766L182.578 315.329L185.226 316.588C215.999 331.2 220.769 348.442 226.533 394.007C233.912 452.212 235.414 530.701 215.436 560.377L213.784 562.818L216.563 561.823C242.455 552.451 271.276 539.454 293.62 527.076C306.894 519.714 317.672 512.727 325.67 506.266C334.814 498.885 340.259 492.236 341.874 486.507C345.235 474.525 343.921 462.636 337.856 450.183C332.655 439.44 324.863 430.087 317.991 421.86ZM340.015 485.944C333.876 507.9 266.207 541.444 218.534 559.024C222.872 551.681 226.308 541.67 228.767 529.217C231.189 516.972 232.691 502.265 233.236 485.512C234.118 458.278 232.372 424.828 228.429 393.763C225.406 369.816 222.684 354.621 217.032 342.957C211.456 331.444 202.875 323.312 188.643 316.118C214.704 311.122 233.029 308.605 243.131 308.605C245.515 308.605 247.431 308.756 248.82 309.037C265.944 312.531 278.111 328.364 283.988 338.281C288.475 345.831 292.606 359.448 296.38 374.267C300.773 391.584 305.317 409.502 312.884 418.742C314.048 420.17 315.231 421.597 316.508 423.119C330.214 439.534 347.282 459.987 340.015 485.944Z" fill="#131313"/>
<path d="M228.298 526.532C226.421 536.824 223.83 545.99 220.394 553.409C219.136 556.151 217.746 558.649 216.225 560.884C207.832 563.927 200.359 566.331 194.426 567.927C193.056 568.303 191.76 568.622 190.558 568.904C165.999 574.632 147.618 561.372 134.775 543.022C129.517 535.51 125.18 527.152 121.725 518.888C121.594 518.568 121.462 518.23 121.312 517.892C121.237 517.723 121.181 517.554 121.106 517.385C109.727 488.405 107.681 431.176 108.263 398.082C108.845 364.425 126.138 335.952 135.77 326.336C135.77 326.336 150.96 322.786 170.374 318.767C175.256 317.752 180.419 316.719 185.658 315.705C199.646 322.354 208.339 329.604 214.197 339.614C221.464 352.048 224.336 368.745 227.51 393.857C232.41 432.679 235.396 487.653 228.298 526.532Z" fill="#CCCCCC"/>
<path d="M110.76 468.402C114.984 472.346 117.294 469.66 118.064 468.684C120.655 471.858 131.338 473.586 136.521 467.425C138.83 470.017 142.285 470.017 143.449 469.454C147.11 474.356 156.817 476.384 164.497 471.858C171.613 475.032 181.714 467.237 183.63 463.387C190.351 466.467 203.157 464.533 207.194 471.651C217.971 466.261 222.665 457.602 222.665 457.227C222.665 456.851 179.011 449.15 179.011 449.15L111.417 454.823L110.76 468.402Z" fill="#999999"/>
<path d="M228.299 526.532C226.421 536.825 223.83 545.99 220.394 553.409C219.136 556.151 217.746 558.649 216.226 560.884C207.833 563.927 200.36 566.331 194.427 567.928C193.056 568.303 191.76 568.623 190.559 568.904C166 574.633 147.618 561.373 134.775 543.023C129.142 532.486 122.833 520.729 121.313 517.893C121.087 517.479 120.975 517.254 120.975 517.254C121.012 517.292 121.068 517.329 121.106 517.386C148.369 551.306 192.868 533.914 222.497 503.111C224.318 508.896 227.003 520.785 228.299 526.532Z" fill="#999999"/>
<path d="M197.994 340.404C189.057 345.306 173.472 347.616 155.016 341.85L170.356 318.786C175.237 317.772 180.401 316.739 185.639 315.725C199.628 322.373 208.321 329.623 214.179 339.634C209.166 340.348 203.683 340.686 197.994 340.404Z" fill="#999999"/>
<path d="M217.032 342.939C211.118 330.75 201.861 322.335 186.052 314.841L185.77 314.71L185.451 314.766C159.653 319.781 135.77 325.359 135.525 325.416L135.263 325.472L135.075 325.66C124.635 336.103 107.868 364.989 107.286 398.083C106.93 418.705 107.681 441.469 109.333 460.533C111.605 486.733 115.473 506.511 120.824 519.282C126.907 533.801 134.624 546.046 143.149 554.724C153.926 565.674 166.055 571.233 179.199 571.233C182.954 571.233 186.84 570.763 190.765 569.862C197.224 568.359 206.123 565.561 216.544 561.804L216.845 561.692L217.014 561.429C222.064 553.935 226.007 543.098 228.749 529.199C231.171 516.953 232.673 502.247 233.217 485.494C234.1 458.26 232.354 424.809 228.411 393.744C225.406 369.797 222.703 354.621 217.032 342.939ZM215.605 560.095C205.391 563.777 196.66 566.5 190.352 567.984C186.578 568.867 182.841 569.317 179.236 569.317C148.481 569.317 130.569 537.501 122.626 518.55C108.507 484.818 108.995 412.319 109.239 398.139C109.783 365.834 126.025 337.643 136.258 327.237C138.943 326.618 161.343 321.434 185.526 316.72C216.037 331.313 220.787 348.592 226.552 393.988C233.874 452.024 235.414 530.232 215.605 560.095Z" fill="#666666"/>
<path d="M150.566 457.339C149.421 460.025 144.032 465.228 137.686 459.649C135.001 465.81 125.951 470.806 118.065 464.645C107.87 469.078 99.9837 460.983 100.753 449.263C96.5289 450.221 83.6297 450.615 74.4107 435.609C73.04 433.374 71.8947 431.007 71.0122 428.453C65.9427 413.84 69.3975 393.687 86.9155 365.026C107.494 331.369 120.374 328.477 135.752 327.895C135.752 327.895 129.406 334.28 127.603 336.684C114.009 354.828 107.757 392.485 107.757 392.485C118.497 395.453 126.608 400.656 132.729 406.872C151.768 426.18 151.449 455.311 150.566 457.339Z" fill="#4D4D4D"/>
<path d="M150.566 457.339C149.421 460.025 144.032 465.227 137.685 459.649C135.001 465.81 125.95 470.806 118.065 464.645C107.869 469.078 99.9832 460.983 100.753 449.263C96.5284 450.221 83.6292 450.615 74.4102 435.608C73.0395 433.373 71.8942 431.007 71.0117 428.452C81.8831 446.483 96.2843 438.613 107.362 433.749C104.79 435.158 102.612 438.369 101.466 444.267C100.321 450.164 105.578 454.578 112.112 454.916C116.544 455.142 119.172 451.329 118.834 443.328C120.806 444.68 122.233 449.92 123.397 451.46C132.24 460.307 139.3 448.004 139.544 440.942C139.788 434.031 142.999 425.166 132.747 406.872C151.768 426.18 151.448 455.311 150.566 457.339Z" fill="#3A3A3A"/>
<path d="M119.415 352.442C106.084 363.223 97.5037 383.451 93.7109 390.964C96.5837 390.006 107.23 390.776 108.506 392.448C109.802 385.029 111.21 368.482 119.415 352.442Z" fill="#3A3A3A"/>
<path d="M136.24 327.218C137.554 326.918 143.638 325.509 152.35 323.594L151.786 321.753C142.079 323.875 135.677 325.378 135.545 325.415L135.282 325.472L135.094 325.66C125.2 335.558 109.597 362.059 107.531 392.974L109.446 393.256C111.399 363.017 126.533 337.098 136.24 327.218Z" fill="#666666"/>
<path d="M126.007 400.336C121.294 397.181 115.98 394.683 110.141 392.692C98.7625 388.823 93.7305 390.983 93.7305 390.983C115.886 393.894 131.902 403.379 141.328 419.193C151.88 436.886 150.153 455.762 149.702 456.983C149.157 458.241 147.336 460.457 144.726 461.039C142.605 461.509 140.464 460.814 138.342 458.936L137.347 458.072L136.822 459.274C135.395 462.542 132.128 465.247 128.541 466.167C126.138 466.768 122.495 466.881 118.684 463.894L118.233 463.537L117.708 463.763C113.783 465.472 110.028 465.209 107.062 463.181C104.602 461.509 102.912 458.88 102.161 455.386C101.767 453.583 101.692 451.648 101.748 449.32L101.804 447.836L100.565 448.324C99.0254 448.681 85.2062 451.292 75.2549 435.102C70.4294 427.27 68.871 418.217 70.467 407.436C72.2319 395.509 78.0525 381.404 87.7597 365.496C108 332.365 120.449 329.397 135.826 328.834L135.751 326.918C128.654 327.181 121.031 327.895 112.788 333.229C104.264 338.751 95.7771 348.705 86.1262 364.501C76.2688 380.615 70.3731 394.965 68.5706 407.154C66.9371 418.236 68.6457 427.983 73.6214 436.097C77.7333 442.765 82.9531 447.216 89.1867 449.32C93.8056 450.878 97.711 450.691 99.7764 450.409C99.6638 456.626 101.936 461.922 105.954 464.739C109.333 467.125 113.577 467.463 117.952 465.735C120.749 467.782 123.491 468.421 125.8 468.421C127.002 468.421 128.091 468.252 129.011 468.008C132.747 467.068 136.183 464.42 138.023 461.133C140.896 463.237 143.45 463.274 145.139 462.88C148.463 462.129 150.735 459.368 151.467 457.696C152.331 455.687 153.495 436.585 143.6 419.212C139.225 411.587 133.31 405.238 126.007 400.336Z" fill="#131313"/>
<path d="M99.7956 451.949L101.711 451.874C101.316 442.915 105.015 435.459 107.832 433.524C107.832 433.524 103.063 433.675 100.716 442.784C100.002 445.564 99.6454 448.719 99.7956 451.949Z" fill="#131313"/>
<path d="M118.834 443.31C121.087 445.563 122.138 450.935 121.312 456.062C120.674 460.007 118.965 463.068 116.881 464.12L117.838 465.754C120.505 464.402 122.476 460.983 123.208 456.363C123.509 454.541 123.678 452.419 123.396 450.372C122.589 444.361 118.834 443.31 118.834 443.31Z" fill="#131313"/>
<path d="M134.7 441.018L133.367 442.407C136.784 445.694 140.258 453.301 136.86 459.18L138.531 460.138C140.859 456.137 140.333 451.93 139.488 449.113C138.38 445.469 136.296 442.539 134.7 441.018Z" fill="black"/>
<path d="M286.467 380.202C280.008 418.761 263.654 435.797 247.883 447.329C229.876 460.495 219.418 466.186 180.965 458.222C179.294 463.988 169.417 471.426 162.883 468.101C159.673 471.426 148.144 471.182 144.802 465.791C134.757 466.467 131.171 459.161 131.94 449.226C132.053 447.742 132.26 446.221 132.56 444.643C134.87 432.453 143.262 413.089 159.222 404.825C175.182 396.561 204.998 399.623 211.908 402.515C218.254 364.82 239.208 330.468 257.684 327.2L259.223 326.918L259.918 327.594L269.794 346.207L286.467 380.202Z" fill="#4D4D4D"/>
<path d="M286.392 380.089C279.933 418.648 263.635 435.815 247.863 447.347C229.857 460.513 219.399 466.204 180.945 458.24C179.274 464.007 169.398 471.444 162.864 468.12C159.653 471.444 148.125 471.2 144.783 465.81C134.737 466.486 131.151 459.18 131.921 449.244C132.034 449.188 132.165 449.131 132.278 449.075C132.559 457.827 141.027 457.245 140.933 454.935C140.84 452.625 142.849 443.196 148.707 441.806C145.609 444.06 143.731 452.531 144.294 456.663C146.698 464.551 155.842 460.325 155.842 458.579C155.842 456.851 156.33 450.784 163.446 446.37C160.461 448.962 159.409 456.174 159.991 459.555C163.54 465.997 175.951 457.827 175.951 453.207C175.951 448.587 180.757 443.102 188.456 439.646C235.377 450.427 238.644 425.034 239.808 415.793C265.193 420.019 291.536 369.44 267.109 330.186C267.109 330.186 271.277 332.214 279.219 348.742C288.513 368.087 286.392 380.089 286.392 380.089Z" fill="#3A3A3A"/>
<path d="M247.3 446.577C229.744 459.424 219.586 465.265 181.133 457.32L180.269 457.133L180.025 457.997C179.068 461.302 175.2 465.152 171.013 466.955C168.947 467.838 165.943 468.627 163.296 467.275L162.657 466.955L162.169 467.463C160.78 468.909 157.269 469.641 153.607 469.247C149.871 468.852 146.885 467.387 145.609 465.303L145.308 464.814L144.726 464.852C140.802 465.115 137.779 464.101 135.789 461.828C132.86 458.522 132.052 452.493 133.498 444.83C135.488 434.294 143.243 414.197 159.653 405.689C166.375 402.196 176.777 400.336 188.944 400.468C197.618 400.543 205.673 402.027 209.691 402.703C210.499 402.834 212.733 403.529 212.733 403.529L212.846 402.703C215.831 384.973 222.741 366.435 231.828 351.86C240.747 337.548 250.792 328.458 259.373 326.936C259.373 326.936 252.538 325.96 244.277 333.322C239.358 337.699 234.682 343.652 230.195 350.846C221.182 365.327 214.273 383.62 211.156 401.256C207.044 399.923 198.632 398.646 188.963 398.571C180.138 398.496 167.746 399.359 158.771 404.017C151.504 407.774 144.989 414.291 139.938 422.818C135.995 429.467 132.954 437.374 131.602 444.511C130.006 452.888 130.963 459.33 134.343 463.143C136.671 465.772 140.013 467.012 144.294 466.824C146.022 469.172 149.289 470.749 153.401 471.181C154.114 471.257 154.809 471.294 155.504 471.294C158.602 471.294 161.399 470.562 163.033 469.284C165.549 470.317 168.553 470.13 171.783 468.74C176.176 466.843 180.138 463.011 181.584 459.386C200.04 463.143 212.245 463.838 222.29 461.678C232.317 459.537 239.752 454.503 248.445 448.136C255.317 443.102 264.198 435.853 271.934 424.321C275.708 418.686 279.031 412.582 281.529 405.764C287.499 389.461 286.467 379.789 286.467 379.789C280.045 418.066 263.072 435.026 247.3 446.577Z" fill="#131313"/>
<path d="M208.357 402.459C213.033 403.322 228.279 408.187 231.602 410.272C231.602 410.272 225.369 404.543 208.695 400.562L208.357 402.459Z" fill="#131313"/>
<path d="M181.057 454.409C180.343 456.907 179.818 458.861 178.879 460.495L180.512 461.359C181.432 460.1 182.108 457.696 182.897 454.935C184.08 450.803 185.563 445.657 187.91 444.474C187.91 444.492 183.967 444.267 181.057 454.409Z" fill="#131313"/>
<path d="M161.08 458.616C160.817 453.188 161.925 448.136 163.746 446.295C163.746 446.295 158.545 448.399 159.146 458.71C159.277 461.095 159.822 466.899 162.582 469.19L163.802 467.706C162.319 466.467 161.286 462.992 161.08 458.616Z" fill="#131313"/>
<path d="M148.726 441.807C148.726 441.807 143.6 443.929 142.774 455.123C142.342 460.964 143.112 465.603 144.933 467.557L146.341 466.242C144.952 464.758 144.294 460.344 144.689 455.273C145.139 449.77 146.641 444.737 148.726 441.807Z" fill="#131313"/>
<path d="M333.839 543.247C315.081 574.688 272.685 578.444 250.773 575.853C228.862 573.261 208.077 570.951 192.23 586.521L191.028 573.974L184.438 505.158C194.821 498.809 202.613 478.619 211.55 466.504C216.451 459.874 229.312 447.478 247.394 439.984C255.88 436.472 265.512 434.012 276.008 433.749C282.674 433.58 289.696 434.275 296.981 436.134C298.427 436.51 299.873 436.904 301.337 437.374L324.282 431.345C351.582 461.715 352.596 511.788 333.839 543.247Z" fill="#4D4D4D"/>
<path d="M333.838 543.247C315.081 574.688 272.684 578.444 250.773 575.852C228.861 573.26 208.076 570.95 192.229 586.52L191.027 573.974C194.764 566.78 198.594 553.107 204.621 548.431C215.004 543.228 236.916 548.43 267.502 549.877C298.07 551.323 321.915 534.588 328.656 516.689C335.378 498.809 328.374 443.984 301.055 438.256C299.816 437.411 298.445 436.697 296.981 436.096C298.426 436.472 299.872 436.866 301.337 437.336L324.281 431.307C351.581 461.715 352.595 511.787 333.838 543.247Z" fill="#3A3A3A"/>
<path d="M323.831 428.94L322.31 430.105C323.418 431.514 325.784 434.5 326.817 435.815C351.845 467.481 349.967 514.285 333.013 542.74C314.612 573.617 272.723 577.468 250.886 574.876C240.278 573.617 229.312 572.321 219.117 573.392C208.603 574.5 200.022 578.125 192.981 584.454L185.433 505.627C192.117 501.232 197.712 491.409 203.12 481.905C206.087 476.684 209.166 471.294 212.301 467.049C216.244 461.696 227.191 450.596 243.169 442.895C261.889 433.861 281.904 432.265 301.018 438.256C301.018 438.256 292.456 430.894 269.287 433.223C260.162 434.143 251.111 436.923 242.343 441.167C227.078 448.53 215.794 459.104 210.762 465.922C207.551 470.261 204.453 475.707 201.468 480.966C196.041 490.507 190.427 500.368 183.931 504.331L183.424 504.65L191.46 588.624L192.906 587.215C208.584 571.814 229.031 574.237 250.68 576.81C257.251 577.58 274.619 578.801 293.789 573.242C302.37 570.762 310.05 567.231 316.602 562.78C324.132 557.653 330.215 551.248 334.702 543.754C339.396 535.866 342.889 526.869 345.067 516.99C347.226 507.186 347.996 497.044 347.32 486.845C346.024 467.049 339.378 448.793 328.45 434.8C327.324 433.354 325.089 430.368 323.831 428.94Z" fill="#131313"/>
<path d="M195.552 586.258C185.639 589.545 175.011 588.117 168.552 583.215C164.516 580.154 161.38 572.622 159.127 565.203C157.775 560.752 156.742 556.338 156.01 552.92C154.057 543.811 145.082 528.128 141.59 525.254C132.54 525.311 129.179 517.422 130.475 509.741C131.751 502.059 135.769 496.95 145.082 496.95C146.472 489.362 156.123 486.996 162.244 490.132C166.093 482.469 175.65 483.634 182.559 488.348C183.498 488.987 184.625 489.982 185.883 491.297C193.919 499.692 207.381 520.841 210.836 541.97C214.835 566.424 206.762 582.558 195.552 586.258Z" fill="#1A1A1A"/>
<path d="M142.868 497.607C139.977 504.219 142.361 511.976 146.21 514.605C150.059 517.235 142.361 524.86 134.926 522.55C135.057 524.916 149.214 532.11 156.856 515.488C160.987 516.558 168.723 511.769 169.868 507.224C173.21 508.257 193.845 498.058 183.33 489.719C185.565 496.781 169.868 505.815 164.554 503.693C157.119 498.246 162.207 491.165 162.264 490.114C160.837 488.949 160.029 488.874 159.579 489.719C157.232 494.471 159.56 503.336 160.762 506.773C162.057 510.454 151.017 513.309 148.839 511.581C143.844 506.717 144.99 497.739 144.99 497.345C145.178 496.33 142.868 497.607 142.868 497.607Z" fill="#0D0D0D"/>
<path d="M195.552 586.258C185.639 589.545 175.011 588.117 168.553 583.215C164.516 580.154 161.38 572.622 159.127 565.203C171.331 580.717 196.247 578.726 201.167 557.954C205.316 540.393 198.125 506.998 185.883 491.315C193.919 499.711 207.381 520.859 210.836 541.989C214.836 566.424 206.762 582.558 195.552 586.258Z" fill="#0D0D0D"/>
<path d="M198.614 507.299C193.3 498.208 187.067 490.282 183.105 487.578C179.462 485.08 175.238 483.652 171.539 483.652C167.277 483.652 163.878 485.512 161.832 488.892C160.179 488.198 158.302 487.841 156.368 487.841C153.533 487.841 150.791 488.63 148.632 490.057C146.416 491.522 144.933 493.569 144.295 496.011C139.976 496.142 136.559 497.419 134.081 499.767C131.715 502.021 130.232 505.233 129.499 509.571C128.673 514.549 129.706 519.188 132.316 522.287C134.437 524.785 137.498 526.137 141.197 526.212C144.483 529.33 153.12 544.186 155.035 553.127C158.621 569.824 162.958 580.21 167.953 583.985C172.215 587.216 178.11 589 184.588 589C188.4 589 192.174 588.38 195.835 587.178C201.881 585.187 206.819 579.872 209.767 572.246C212.959 563.964 213.654 553.446 211.757 541.82C210.03 531.058 205.355 518.793 198.614 507.299ZM208.002 571.552C205.261 578.632 200.736 583.534 195.253 585.356C191.798 586.502 188.212 587.084 184.607 587.084C178.561 587.084 173.06 585.45 169.135 582.464C164.592 579.008 160.386 568.734 156.931 552.732C154.96 543.585 145.872 527.564 142.192 524.522L141.929 524.296H141.497C138.211 524.296 135.62 523.207 133.799 521.047C131.583 518.418 130.682 514.248 131.414 509.891C132.766 501.721 137.122 497.908 145.083 497.908H145.891L146.041 497.119C146.961 492.029 151.899 489.756 156.387 489.756C158.358 489.756 160.236 490.188 161.832 490.996L162.695 491.428L163.127 490.564C165.211 486.432 168.854 485.568 171.558 485.568C174.881 485.568 178.693 486.883 182.035 489.155C188.306 493.456 205.843 517.347 209.898 542.139C211.738 553.408 211.081 563.588 208.002 571.552Z" fill="#060606"/>
<path d="M146.81 508.106C144.332 502.978 146.097 496.48 146.547 495.259L144.82 494.508C143.806 497.062 142.698 503.41 145.083 508.951C148.125 516.032 156.255 514.83 156.255 514.83C151.692 513.891 148.519 511.637 146.81 508.106Z" fill="#060606"/>
<path d="M162.019 497.983C161.418 493.982 162.901 489.982 164.46 488.498L163.221 487.446C160.817 489.024 159.522 493.776 160.123 498.265C161.399 507.749 169.774 506.998 169.774 506.998C163.934 505.27 162.413 500.612 162.019 497.983Z" fill="#060606"/>
<path d="M146.961 522.982C143.431 524.165 141.215 524.991 136.709 523.32L136.221 525.123C138.286 526.005 140.07 526.212 141.553 526.174C145.74 526.024 147.449 522.812 147.449 522.812L146.961 522.982Z" fill="#060606"/>
<path d="M145.101 60.3835L52.0098 193.002C36.313 178.484 26.1552 156.659 19.8464 134.816C11.7352 106.756 9.95145 78.6395 10.8527 65.7739C12.4487 42.7473 13.0307 13.8608 24.9535 8.62063C35.3742 4.03784 71.9124 12.2831 103.362 28.304C120.43 36.9813 135.995 47.9499 145.101 60.3835Z" fill="#4D4D4D"/>
<path d="M145.101 60.3832L52.0091 193.002C36.3123 178.484 26.1545 156.659 19.8457 134.816C30.717 145.897 46.902 149.484 48.5355 134.928C48.5167 135.21 86.9513 106.361 89.3547 92.6505C92.509 88.8189 103.418 73.3802 106.554 65.7924C109.182 59.4441 113.275 43.4607 103.362 28.3037C120.429 36.9809 135.994 47.9496 145.101 60.3832Z" fill="#3A3A3A"/>
<path d="M118.177 35.5728C107.625 28.924 95.007 22.7447 81.6948 17.6924C69.6781 13.1284 57.3798 9.63497 47.0342 7.81313C39.6552 6.51718 29.779 5.44661 24.5593 7.738C19.4522 9.99183 15.8847 16.3589 13.6692 27.2148C11.754 36.5494 11.0405 47.8373 10.3458 58.7496C10.1956 61.1537 10.0454 63.4451 9.89518 65.7177C9.0127 78.4706 10.6838 101.986 16.448 125.782C19.7714 139.531 24.1274 151.983 29.3659 162.801C35.5433 175.535 42.941 185.941 51.3527 193.735L52.667 192.326C33.3652 174.484 23.3388 146.048 18.3256 125.331C12.5989 101.704 10.9279 78.433 11.8103 65.8304C11.9605 63.5578 12.1295 61.1725 12.261 58.8623C13.5941 37.8266 15.1149 13.9924 25.3291 9.5035C29.0655 7.86948 36.6511 7.9446 46.6962 9.7101C56.9292 11.5132 69.0961 14.9878 81.0001 19.4955C110.009 30.5017 133.085 45.6023 144.313 60.9471L145.871 59.8202C139.732 51.4247 130.419 43.2733 118.177 35.5728Z" fill="#131313"/>
<path d="M96.3583 91.6934L59.5197 150.65C52.7227 141.691 47.7846 132.225 44.236 122.777C36.5941 102.455 35.4112 82.2461 36.1623 67.5399C36.7631 55.5007 38.6783 47.1427 39.3917 45.4336C56.8347 45.8656 94.1052 70.1318 96.3583 91.6934Z" fill="#FFCCCC"/>
<path d="M96.3589 91.6934L59.5203 150.65C52.7233 141.691 47.7852 132.225 44.2366 122.777C43.3165 109.686 42.6782 98.6239 49.9257 95.4685C52.6858 94.6046 53.1552 100.408 56.5161 103.263C56.4786 102.305 52.0662 92.3507 45.9452 90.4726C48.724 85.27 56.0092 84.4248 68.9459 89.6649C68.514 88.9512 63.5008 79.2598 57.8117 79.241C59.9709 75.8227 67.425 72.6861 83.61 78.4334C82.4458 75.8415 65.247 61.9617 61.2852 60.0083C45.1378 52.0073 36.6698 46.4103 36.1816 67.5399C36.7825 55.5007 38.6976 47.1427 39.4111 45.4336C56.8353 45.8656 94.1058 70.1318 96.3589 91.6934Z" fill="#FF9999"/>
<path d="M74.146 59.877C68.2691 55.482 61.9041 51.7068 55.7267 48.9459C49.4368 46.1286 43.8039 44.5885 39.4103 44.4758L38.7532 44.457L38.4903 45.0581C37.4389 47.556 34.0779 62.8257 35.2045 83.3919C35.8429 95.0179 37.8144 106.193 41.0626 116.617C45.0619 129.408 50.9952 141.071 58.7121 151.232L60.2518 150.068C42.9027 127.21 38.096 101.122 37.1197 83.2792C36.1058 64.6476 38.8658 50.1292 40.03 46.4291C48.4604 46.9362 61.5661 52.8901 72.9632 61.4171C86.219 71.3339 94.3866 82.4152 95.3818 91.7874L97.2969 91.5808C96.283 81.664 87.8338 70.1131 74.146 59.877Z" fill="#131313"/>
<path d="M31.2441 45.8836C34.4548 45.5831 43.3922 46.6349 45.007 47.142L45.5703 45.4141C37.3088 43.01 31.2441 45.8836 31.2441 45.8836Z" fill="#131313"/>
<path d="M66.7122 78.508C72.1948 82.9405 76.288 96.1442 75.537 98.398C62.3374 88.6127 53.8131 89.1761 52.9681 90.2655C60.3847 94.4538 63.8583 108.183 62.2811 111.545C55.578 110.888 51.0718 103.638 50.3207 100.689C47.1663 101.629 46.2275 115.058 51.635 123.34C57.0425 131.623 57.1928 140.507 57.0613 142.235L91.1211 93.3081C85.7136 82.5273 70.674 77.043 66.7122 78.508Z" fill="#4D4D4D"/>
<path d="M78.8035 80.4613C73.8466 77.907 68.7207 76.7237 66.3737 77.6065L64.7778 78.1887L66.0921 79.2593C68.3264 81.0623 70.6734 84.8563 72.551 89.6269C73.6776 92.5005 74.316 94.9609 74.5601 96.5198C68.0823 91.9746 63.0316 90.0964 59.8584 89.3264C56.1596 88.4248 53.0803 88.5751 52.2166 89.6832L51.5406 90.566L52.517 91.1106C55.5399 92.8198 58.3188 96.6325 60.1213 101.553C61.5107 105.329 61.9238 108.784 61.6234 110.494C55.8967 109.423 51.9162 102.981 51.259 100.464L51.0149 99.5061L50.0573 99.7879C49.081 100.07 48.3112 100.99 47.7479 102.53C46.1519 106.869 46.3397 116.992 50.8459 123.885C56.6102 132.713 56.122 142.085 56.122 142.179L58.0372 142.31C58.0372 142.216 58.6568 132.337 52.4607 122.833C48.4614 116.692 48.0671 107.244 49.5692 103.187C49.6818 102.868 49.8132 102.605 49.9259 102.38C50.6018 103.92 51.7847 105.854 53.3807 107.639C55.202 109.648 58.2249 112.128 62.2054 112.522L62.8814 112.597L63.163 111.977C64.9092 108.277 61.7173 95.9939 55.2208 90.6786C56.2722 90.6599 57.8306 90.7913 59.8772 91.336C63.0691 92.1812 68.2701 94.2284 74.9732 99.2056L76.0434 99.9945L76.4565 98.7173C77.001 97.0645 75.743 92.5005 74.3535 88.9319C73.3772 86.4152 71.4808 82.1892 68.8709 79.2593C68.8897 79.2593 68.9085 79.2593 68.9273 79.2593C71.049 79.4095 74.316 80.3298 77.9398 82.1892C81.2256 83.8796 87.1964 87.636 90.2756 93.7589L92.003 92.8949C88.6609 86.2649 82.2958 82.2644 78.8035 80.4613Z" fill="#131313"/>
<path d="M330.309 220.819C325.934 222.284 321.221 223.167 316.208 223.279L47.4473 179.668C55.0516 136.807 92.3596 45.0016 186.165 48.8331C279.97 52.6646 337.894 145.41 342.626 160.398C344.222 165.431 344.635 170.746 344.503 175.592C344.222 185.19 341.724 192.928 341.724 192.928C349.085 191.125 364.124 186.673 367.091 181.677C367.842 188.345 353.966 212.912 330.309 220.819Z" fill="#4D4D4D"/>
<path d="M330.307 220.818C334.401 214.132 337.386 206.45 341.216 203.107C338.4 204.835 327.96 205.267 320.469 196.646C329.894 194.036 341.554 182.109 349.027 170.352C348.745 179.949 341.742 192.946 341.742 192.946C349.102 191.143 364.142 186.692 367.108 181.696C367.841 188.345 353.965 212.911 330.307 220.818Z" fill="#3A3A3A"/>
<path d="M367.71 178.747L366.245 181.226C363.955 185.095 352.708 189.134 343.094 191.632C343.583 189.791 344.352 186.523 344.897 182.447C345.648 176.644 346.042 168.041 343.545 160.134C340.879 151.72 324.431 124.524 298.464 99.7693C283.217 85.2509 266.901 73.531 249.965 64.9477C229.387 54.5237 207.944 48.7953 186.22 47.8937C164.177 46.9922 143.768 51.3308 125.555 60.7969C109.952 68.9107 95.8701 80.8184 83.7407 96.1632C73.6768 108.897 65.1149 123.716 58.2616 140.263C52.8541 153.298 48.6858 167.253 46.5078 179.517L48.4042 179.855C56.6844 133.276 96.1141 46.1282 186.145 49.8095C235.489 51.8192 273.754 78.8463 297.149 101.14C311.813 115.114 322.347 128.75 328.599 137.746C336.035 148.414 340.541 156.96 341.724 160.698C346.305 175.197 340.879 192.495 340.822 192.665L340.297 194.299L341.968 193.885C346.493 192.777 360.03 189.171 365.832 184.476C364.818 188.514 361.439 195.35 355.111 202.581C348.821 209.775 335.396 221.927 316.188 222.302L316.226 224.218C336.166 223.805 350.06 211.277 356.557 203.84C364.33 194.956 368.498 185.546 368.048 181.583L367.71 178.747Z" fill="#131313"/>
<path d="M155.408 17.2041C152.292 27.8534 154.226 44.2125 161.36 57.8857C152.442 55.9887 139.824 48.7577 134.473 43.8932C133.891 54.5049 138.041 67.4269 150.696 78.1138C138.754 80.6681 125.742 89.1199 126.099 99.1307C132.22 95.6936 145.926 96.6515 151.766 101.497C151.766 101.497 175.724 80.2549 178.39 76.5736L211.586 52.1572C178.165 44.8135 161.68 32.286 155.408 17.2041Z" fill="#4D4D4D"/>
<path d="M172.795 38.3899C182.314 44.6255 195.307 49.5651 211.38 53.0961L211.793 51.2179C181.282 44.5128 163.125 33.2624 156.291 16.8283L155.239 14.3115L154.469 16.9222C151.409 27.4025 153.136 43.0102 159.558 56.4393C151.033 54.0352 139.937 47.5742 135.093 43.1793L133.59 41.827L133.478 43.8366C133.177 49.2458 133.947 57.5474 139.355 66.5064C141.852 70.6572 145.063 74.4699 148.949 77.907C143.955 77.9821 136.106 81.87 131.018 86.866C127 90.7914 124.972 95.0549 125.104 99.1681L125.16 100.746L126.531 99.9757C132.501 96.6325 145.832 97.8534 151.108 102.248C151.108 102.248 148.273 97.1772 139.073 96.2569C134.51 95.8061 130.173 96.3696 127.075 97.5904C127.526 93.7401 130.117 90.4345 132.351 88.237C137.665 83.0344 144.856 79.541 151.108 79.7288C158.187 84.8751 164.083 85.739 164.083 85.739C145.983 76.5547 135.374 61.7734 135.374 45.9214C141.251 50.6169 152.31 56.8149 160.741 58.7307C165.923 68.4034 172.494 71.2582 172.494 71.2582C158.394 58.0733 152.704 35.0092 155.69 20.1151C159.22 27.1396 164.965 33.2624 172.795 38.3899Z" fill="#131313"/>
<path d="M387.763 113.142C376.629 148.527 354.06 191.913 334.946 197.003L329.464 191.669L218.91 65.6425C222.234 61.1912 225.651 56.7211 229.838 52.7769C276.815 8.50797 372.066 -3.77538 389.678 2.49777C390.054 2.62924 390.429 2.79828 390.786 2.9861C408.473 12.0577 398.672 78.4705 387.763 113.142Z" fill="#4D4D4D"/>
<path d="M387.762 113.142C376.628 148.527 354.059 191.913 334.945 197.003L320.77 196.665C346.005 183.199 361.589 152.678 374.694 115.189C390.673 69.5118 392.963 18.3499 390.804 2.98633C408.472 12.058 398.671 78.4707 387.762 113.142Z" fill="#3A3A3A"/>
<path d="M390.016 1.59618C384.947 -0.206877 374.169 -0.507387 360.444 0.788564C345.311 2.21599 328.018 5.44647 311.777 9.89778C292.043 15.307 274.3 22.2563 259.016 30.5391C249.421 35.7417 240.991 41.4326 233.724 47.4803C220.844 58.2048 218.91 65.6612 218.91 65.6612C242.174 34.6335 287.386 18.5562 312.265 11.7384C346.231 2.42259 379.558 -0.094185 389.34 3.39925C397.32 6.23531 400.794 21.7491 399.123 47.0484C397.752 67.6521 392.927 93.4772 386.824 112.841C380.966 131.435 372.461 150.781 363.505 165.938C358.604 174.221 353.703 181.001 348.972 186.072C343.865 191.537 339.058 194.918 334.683 196.083C334.683 196.083 340.842 197.097 349.535 188.288C355.6 182.146 360.97 174.014 365.157 166.933C374.207 151.663 382.769 132.168 388.664 113.442C394.804 93.9467 399.667 67.9338 401.038 47.1986C402.296 28.6233 401.376 5.65307 390.016 1.59618Z" fill="#131313"/>
<path d="M318.048 129.088C317.935 129.238 317.804 129.388 317.691 129.539C317.823 129.407 317.935 129.257 318.048 129.088Z" fill="#1A1A1A"/>
<path d="M373.493 41.0766C373.155 43.8751 372.798 46.6172 372.385 49.3218C366.583 88.1628 353.797 117.594 342.55 135.174C334.007 148.528 326.346 155.045 323.304 153.655C315.963 150.312 328.111 122.552 331.904 119.266C329.463 119.284 322.535 123.379 318.047 129.107C321.277 124.731 325.332 113.556 324.882 106.625C324.262 108.504 310.987 117.801 298.651 119.172C307.476 116.993 313.804 102.399 314.405 89.4212C311.907 96.2766 280.852 107.527 279.894 104.747C278.937 101.986 286.128 84.444 291.911 82.9226C277.284 81.1383 265.587 95.4501 261.738 89.9846C257.87 84.5003 272.759 67.4276 293.826 55.3884C314.93 43.3492 347.188 34.2212 373.493 41.0766Z" fill="#FFCCCC"/>
<path d="M270.845 84.0488C291.649 74.9584 300.192 76.0665 304.36 77.0056C302.989 78.3204 299.253 89.5144 293.451 93.4773C308.078 88.3311 317.222 80.4803 318.236 77.0808C320.658 90.3596 321.09 91.4113 316.734 100.633C322.517 98.849 325.69 91.8809 326.103 89.721C329.539 97.6657 330.327 108.522 329.201 111.79C334.383 103.92 337.275 107.601 343.414 107.827C340.504 113.593 329.708 132.901 331.679 137.859C332.787 140.676 337.744 138.479 342.569 135.192C334.026 148.546 326.366 155.063 323.324 153.673C315.983 150.33 328.131 122.57 331.923 119.284C329.483 119.302 322.554 123.397 318.067 129.125C321.296 124.749 325.352 113.574 324.901 106.643C324.282 108.522 311.007 117.819 298.671 119.19C307.496 117.011 313.823 102.418 314.424 89.4392C311.927 96.2946 280.871 107.545 279.914 104.765C278.956 102.004 286.147 84.462 291.93 82.9407C277.304 81.1564 265.606 95.4682 261.757 90.0027C257.889 84.5184 272.779 67.4457 293.846 55.4065C314.931 43.3861 347.17 34.2393 373.494 41.0947C373.156 43.8932 372.311 50.0536 371.916 52.7394C349.686 45.2079 321.709 51.6501 305.186 59.7263C287.218 68.4787 270.845 84.0488 270.845 84.0488Z" fill="#FF9999"/>
<path d="M360.144 37.9771C349.254 37.2259 336.955 38.5594 324.601 41.865C313.542 44.8138 302.745 49.2087 293.357 54.5616C285.04 59.3134 277.06 65.2297 270.901 71.2211C264.968 77.0059 261.213 82.3212 260.349 86.209C259.955 87.9745 260.161 89.4395 260.95 90.5477C261.663 91.5619 262.64 92.1065 263.86 92.2005C266.095 92.3507 268.873 90.9421 272.366 89.139C276.947 86.7913 282.524 83.9176 288.738 83.7486C286.636 85.6644 284.72 88.707 283.331 91.3177C280.665 96.3137 278.243 103 278.975 105.066C279.125 105.498 279.557 106.043 280.759 106.137C283.969 106.362 292.437 103.563 299.14 100.671C303.29 98.8868 309.73 95.8066 313.166 92.6137C312.133 101.347 308.416 110.4 303.515 115.302C300.267 118.551 296.887 120.599 296.887 120.599C304.135 119.791 313.035 115.922 316.602 113.95C319.268 112.466 322.085 110.644 323.868 109.123C323.549 113.856 321.709 119.753 319.719 124.092C318.893 125.895 316.527 130.722 316.414 130.891C316.414 130.891 326.403 122.477 329.313 121.087C325.333 127.435 319.043 142.724 320.132 150.218C320.451 152.415 321.371 153.88 322.892 154.575C323.211 154.725 323.568 154.801 323.944 154.838C329.464 155.214 340.26 142.63 349.629 124.9C355.3 114.175 360.219 102.155 364.274 89.1766C369.025 74.0008 372.423 57.8672 374.414 41.2452L374.507 40.4188L373.7 40.2122C369.475 39.0289 364.913 38.2964 360.144 37.9771ZM347.958 123.942C337.331 144.076 327.436 153.11 324.112 152.866C323.962 152.847 323.831 152.828 323.718 152.772C322.855 152.378 322.291 151.401 322.066 149.898C321.559 146.367 322.892 140.151 325.765 132.826C328.337 126.233 331.247 121.106 332.543 119.979L334.496 118.27L331.905 118.288C329.858 118.307 325.84 120.43 322.103 123.585C324.394 118.176 326.159 111.283 325.859 106.55L325.539 101.554L324 106.306C323.38 107.602 314.424 114.119 304.51 116.993C306.745 115.02 308.791 112.222 310.519 108.747C313.316 103.132 315.1 96.0883 315.419 89.4395L315.72 83.1288L313.56 89.0639C312.678 91.4868 306.895 95.2431 298.446 98.868C291.123 102.023 283.444 104.352 280.946 104.183C280.89 104.183 280.852 104.183 280.815 104.165C280.721 102.793 282.129 97.7787 285.096 92.1817C287.612 87.4674 290.259 84.3308 292.212 83.8237L297.056 82.5466L292.081 81.9455C291.705 81.908 291.33 81.8704 290.935 81.8329C283.387 81.307 276.816 84.6877 271.54 87.3923C268.423 88.9888 265.757 90.3598 264.048 90.2471C263.41 90.2096 262.94 89.9466 262.565 89.402C262.114 88.7446 262.001 87.8055 262.283 86.5847C263.053 83.11 266.714 78.0014 272.291 72.5546C278.336 66.6759 286.166 60.8723 294.352 56.1956C310.143 47.1803 335.679 38.165 360.031 39.8741C364.368 40.1746 368.537 40.8132 372.461 41.7899C367.729 80.274 356.539 107.696 347.958 123.942Z" fill="#131313"/>
<path d="M362.303 249.705C357.027 256.279 342.663 266.083 326.159 259.34C327.511 267.717 346.888 277.183 349.216 277.145C347.264 285.691 336.505 290.725 319.869 288.79C303.234 286.855 281.604 292.866 271.427 300.641C261.589 308.154 215.418 337.153 181.208 331.275C173.003 339.67 161.324 346.657 143.224 345.117C117.82 342.957 110.667 326.748 108.808 315.179C94.8572 308.868 83.5164 301.318 75.3676 294.65C68.1764 288.752 63.4636 283.55 61.5672 280.432C57.4177 273.595 27.0568 266.646 18.739 269.933C19.2272 262.833 29.1222 253.687 35.0179 252.165C14.4393 248.803 6.25297 244.371 1.85938 238.473C11.9609 237.44 26.3997 223.786 29.6855 218.039C15.0214 218.358 3.53044 214.489 2.17857 211.69C12.5993 211.446 24.447 192.739 32.4268 192.533C20.0346 184.212 20.5603 176.662 20.7669 173.469C28.6904 179.555 44.819 176.812 47.3537 173.657C49.8885 170.483 53.3809 151.588 68.3454 143.493C83.2911 135.417 116.206 132.694 132.146 172.586C142.868 147.306 175.932 120.974 212.771 131.642C249.609 142.31 260.875 169.976 292.682 192.044C315.213 207.69 327.737 211.69 336.036 212.968C339.453 213.493 342.157 213.55 344.56 213.775C352.803 214.545 362.622 225.645 363.148 237.44C356.501 233.308 342.25 233.083 341.049 233.778C346.644 242.061 357.928 248.822 362.303 249.705Z" fill="#CCCCCC"/>
<path d="M104 239.206L102.93 237.61C107.887 234.267 112.806 224.331 115.491 212.292C118.251 199.915 118.007 188.326 114.852 182.034C114.852 182.034 119.284 185.734 119.34 195.839C119.378 200.948 118.702 206.714 117.368 212.724C114.552 225.402 109.426 235.563 104 239.206Z" fill="#666666"/>
<path d="M362.246 249.687C356.97 256.26 342.606 266.064 326.102 259.322C327.454 267.698 346.831 277.164 349.159 277.127C347.207 285.673 336.448 290.706 319.812 288.772C303.177 286.837 281.547 292.847 271.37 300.623C261.531 308.136 215.361 337.135 181.151 331.256C172.946 339.652 161.267 346.639 143.167 345.099C117.763 342.939 110.61 326.73 108.751 315.16C94.8001 308.85 83.4594 301.299 75.3105 294.632C86.3884 300.247 101.578 304.905 109.183 304.567C110.966 326.091 128.804 339.351 148.744 339.07C168.684 338.788 187.535 311.554 200.922 308.342C203.589 320.569 222.984 315.442 236.803 303.422C237.029 305.619 234.569 311.629 228.185 316.569C249.102 311.348 269.474 281.015 281.378 277.991C280.007 279.306 276.365 285.353 275.613 290.706C277.566 288.528 301.337 279.249 310.312 281.559C319.268 283.851 328.13 284.095 336.11 278.479C327.173 279.4 318.235 270.459 317.503 264.224C318.442 265.933 324.319 270.102 326.947 269.802C325.201 268.619 318.029 260.881 319.211 249.405C322.572 255.039 338.457 258.082 342.494 255.565C339.602 255.453 335.922 253.18 335.903 252.016C336.917 252.767 347.131 254.157 350.417 249.743C344.559 250.87 337.556 244.803 336.392 239.413C336.617 240.202 341.536 244.39 345.198 244.465C340.992 242.625 332.148 228.519 333.031 221.345C333.275 223.486 338.081 226.228 343.433 228.332C342.982 227.918 341.104 224.312 341.086 223.26C341.405 224.143 350.624 228.933 352.933 227.562C352.483 226.134 344.634 216.8 336.016 212.949C339.433 213.475 342.137 213.531 344.54 213.757C352.783 214.527 362.603 225.627 363.129 237.422C356.482 233.29 342.231 233.065 341.029 233.76C346.587 242.042 357.871 248.804 362.246 249.687Z" fill="#999999"/>
<path d="M28.0703 192.909L29.1218 194.487C31.5439 193.022 36.482 192.871 38.9229 194.205C38.9229 194.205 34.1725 189.322 28.0703 192.909Z" fill="#666666"/>
<path d="M27.3555 217.137L27.4681 218.978C28.4069 218.959 29.2331 218.997 30.0029 218.846C36.1802 217.625 37.1753 211.935 37.1753 211.935C34.9034 215.954 31.7115 217.081 27.3555 217.137Z" fill="#666666"/>
<path d="M30.4549 250.363L30.3047 252.147C32.2011 252.692 34.1726 253.049 36.2567 253.18C47.6538 253.838 54.1691 249.574 54.1691 249.574C44.0488 251.377 38.5098 251.884 30.4549 250.363Z" fill="#666666"/>
<path d="M60.196 271.586C60.196 271.586 57.8678 275.737 61.2663 281.653C62.2989 283.456 63.6321 284.921 64.8149 286.048L65.8289 284.545C63.0124 281.822 59.8393 276.807 60.196 271.586Z" fill="#666666"/>
<path d="M341.217 232.802C339.79 231.262 337.875 228.933 337.649 227.862C337.649 227.862 337.18 231.224 342.493 237.272L344.014 236.201C343.413 235.45 342.512 234.211 341.217 232.802Z" fill="#666666"/>
<path d="M362.434 248.747C358.491 247.959 348.408 242.023 342.681 234.454C343.77 234.398 345.498 234.379 347.751 234.548C350.774 234.755 358.247 235.544 362.603 238.23L364.142 239.187L364.067 237.366C363.805 231.693 361.401 225.664 357.439 220.838C353.647 216.198 348.84 213.193 344.597 212.799C343.846 212.724 343.095 212.667 342.287 212.611C334.195 212.048 321.953 211.184 293.169 191.218C281.134 182.861 272.102 173.751 263.353 164.943C249.289 150.762 236.015 137.371 212.958 130.684C208.677 129.445 204.302 128.656 199.946 128.355C181.301 127.06 166.374 134.497 157.155 140.958C146.303 148.565 137.29 159.101 132.089 170.126C127.583 159.665 121.575 151.57 114.196 146.048C107.568 141.09 100.001 138.272 91.7207 137.69C83.3841 137.108 74.6721 138.911 67.8 142.63C56.2527 148.865 51.4648 161.092 48.6109 168.398C47.7847 170.521 47.0713 172.361 46.5267 173.019C45.3063 174.54 38.7535 176.512 31.6373 176.024C28.6144 175.817 24.371 175.066 21.273 172.681L19.846 171.591L19.7145 173.376C19.4892 176.587 18.9823 183.894 29.9475 192.007C26.4551 193.247 22.5873 196.74 18.5317 200.403C12.9927 205.418 7.24724 210.583 2.04628 210.714L0.544193 210.752L1.20135 212.104C2.66589 215.147 11.9976 218.114 22.4371 218.828C24.202 218.959 25.9857 219.016 27.7695 219.016C23.4322 224.988 10.8147 236.558 1.6332 237.497L-0.0566406 237.666L0.957266 239.018C5.82026 245.517 14.7577 249.499 31.4684 252.523C25.5351 255.734 18.1186 263.341 17.668 269.839L17.5553 271.361L18.9635 270.797C20.766 270.084 23.9016 269.858 27.9948 270.14C34.0219 270.553 41.4572 272.037 47.8786 274.084C54.6756 276.263 59.3132 278.742 60.6276 280.883C62.599 284.132 67.9127 290.124 76.9064 297.148C83.3841 302.219 93.88 309.432 107.831 315.799C108.394 319.067 109.295 322.185 110.497 325.002C112.881 330.58 116.449 335.144 121.105 338.562C126.813 342.77 134.192 345.268 143.017 346.019C143.336 346.038 143.655 346.075 143.974 346.094C156.31 346.958 166.75 344.028 175.837 337.154C177.865 335.614 179.724 333.961 181.433 332.252C183.029 332.515 184.681 332.702 186.352 332.815C220.093 335.163 262.414 308.586 271.896 301.355C282.016 293.617 301.956 288.396 317.277 289.467C318.085 289.523 318.873 289.598 319.643 289.692C320.638 289.805 321.633 289.898 322.61 289.974C337.518 291.007 348.014 286.161 350.042 277.315L350.305 276.131L349.084 276.15C348.014 276.075 342.832 273.859 337.556 270.44C332.355 267.079 328.9 263.754 327.567 260.899C330.101 261.763 332.693 262.289 335.284 262.477C348.652 263.416 358.96 255.246 362.941 250.287L363.936 249.048L362.434 248.747ZM335.471 260.561C332.448 260.355 329.407 259.641 326.478 258.439L324.901 257.8L325.163 259.491C326.478 267.698 342.982 276.357 347.976 277.859C345.648 285.109 336.147 289.016 322.816 288.095C321.878 288.039 320.901 287.945 319.944 287.832C319.155 287.739 318.329 287.663 317.503 287.607C301.768 286.518 281.265 291.908 270.826 299.89C261.456 307.046 219.717 333.266 186.577 330.974C185.413 330.899 184.268 330.768 183.16 330.618C187.234 326.204 190.426 321.527 193.168 317.489C196.266 312.925 198.707 309.338 200.96 308.38C200.96 308.38 198.012 306.614 191.572 316.419C183.611 328.552 171.106 346.545 143.299 344.197C109.089 341.267 108.582 312.531 109.239 303.797L109.258 303.59C109.258 303.59 106.948 306.99 107.568 313.545C94.3494 307.384 84.3793 300.529 78.1644 295.665C69.3772 288.79 64.1575 282.874 62.355 279.907C60.2333 276.413 52.7979 273.615 48.5546 272.262C41.9829 270.159 34.3786 268.656 28.2201 268.224C24.7465 267.98 21.9489 268.093 19.8835 268.544C20.5407 265.82 22.531 262.646 25.4976 259.585C28.6707 256.316 32.4823 253.762 35.2048 253.048L39.6359 251.903L35.1109 251.17C18.0435 248.391 8.693 244.841 3.58591 239.112C9.35016 237.854 15.5275 233.421 18.8508 230.736C23.9392 226.641 28.5956 221.72 30.4544 218.49L31.2994 217.006L29.5907 217.044C27.2625 217.1 24.9155 217.044 22.6061 216.875C13.2931 216.217 6.81539 214.02 4.18675 212.348C9.42527 211.202 14.7201 206.432 19.846 201.793C24.2208 197.83 28.3891 194.073 31.6561 193.51C31.9002 193.472 32.8953 191.669 32.8953 191.669C22.7938 184.889 21.5921 178.729 21.5921 175.16C24.8404 177.057 28.6895 177.714 31.5247 177.902C38.3592 178.372 46.0761 176.644 48.0476 174.183C48.7611 173.282 49.4558 171.516 50.4322 169.056C53.1922 161.994 57.8299 150.18 68.7576 144.264C75.3104 140.714 83.647 139.005 91.6456 139.568C103.963 140.432 120.842 146.893 131.207 172.869L132.07 175.028L132.99 172.887C142.435 150.612 169.078 128.093 199.852 130.234C204.077 130.534 208.32 131.285 212.47 132.488C235.038 139.024 248.163 152.246 262.038 166.239C270.844 175.122 279.932 184.288 292.118 192.74C321.314 213.005 333.875 213.888 342.193 214.47C342.982 214.527 343.733 214.583 344.465 214.639C348.202 214.996 352.52 217.738 355.994 221.983C359.298 226.021 361.439 230.905 362.04 235.656C357.308 233.44 350.736 232.745 347.92 232.557C347.3 232.52 341.78 232.144 340.56 232.858L339.659 233.365L340.241 234.229C342.775 238.004 346.812 241.911 351.563 245.235C354.773 247.47 358.115 249.292 360.575 250.156C356.257 254.889 347.094 261.369 335.471 260.561Z" fill="#666666"/>
<path d="M56.0449 171.535C60.232 163.214 77.2243 149.748 88.0205 158.857C81.862 140.563 62.7667 146.949 56.0449 171.535Z" fill="#1A1A1A"/>
<path d="M100.245 172.943C82.6703 163.627 62.8804 169.769 54.2809 181.019C45.6815 192.269 44.63 228.349 25.2344 236.839C46.5827 245.854 88.8852 248.784 102.554 234.998C116.261 221.193 117.819 182.259 100.245 172.943Z" fill="#1A1A1A"/>
<path d="M100.695 172.098C95.7192 169.449 90.368 167.909 84.8103 167.534C72.4369 166.67 60.1573 171.741 53.5106 180.456C50.3187 184.644 48.2345 191.781 45.8124 200.064C41.6253 214.432 36.8562 230.716 24.8396 235.975L22.793 236.876L24.8583 237.74C33.9084 241.553 46.4132 244.258 59.1622 245.14C68.5127 245.798 77.3374 245.403 84.6788 244.014C93.0717 242.436 99.3242 239.619 103.23 235.674C107.304 231.561 110.571 224.988 112.411 217.193C114.195 209.643 114.552 201.435 113.425 194.091C111.829 183.404 107.304 175.591 100.695 172.098ZM101.896 234.322C95.0057 241.271 79.1023 244.596 59.3124 243.206C47.6525 242.398 36.2366 240.051 27.5809 236.745C32.4439 234.003 36.5183 229.27 39.9543 222.339C43.2964 215.597 45.6246 207.633 47.6712 200.59C49.9431 192.833 52.0836 185.508 55.0502 181.601C61.3027 173.394 72.9438 168.623 84.6788 169.431C89.9549 169.806 95.0432 171.271 99.7936 173.788C105.858 177 110.027 184.306 111.547 194.373C113.819 209.305 109.67 226.471 101.896 234.322Z" fill="#060606"/>
<path d="M55.8755 196.609C57.5654 191.969 64.3811 176.925 81.0167 178.24C81.0167 178.24 71.7601 174.652 63.4986 181.865C55.669 188.72 55.8755 196.609 55.8755 196.609Z" fill="#060606"/>
<path d="M97.8393 185.001C87.7753 178.164 71.8157 182.221 65.9576 191.65C60.0994 201.078 61.1133 219.653 69.3936 228.143C77.6738 236.632 97.445 234.923 103.003 232.801L103.359 233.214C110.964 215.221 110.175 193.377 97.8393 185.001Z" fill="white"/>
<path d="M108.719 214.705C109.458 204.213 102.77 195.194 93.7817 194.561C84.7929 193.927 76.9071 201.919 76.1681 212.411C75.4291 222.903 82.1169 231.922 91.1057 232.555C100.094 233.189 107.98 225.197 108.719 214.705Z" fill="#FCEE21"/>
<path d="M76.4531 210.074C76.4531 210.074 92.563 194.392 107.734 207.314C106.138 200.909 100.637 192.908 90.3474 194.673C78.2744 196.739 76.4531 210.074 76.4531 210.074Z" fill="#FBB03B"/>
<path d="M109.33 213.005C109.311 208.084 107.716 203.426 104.843 199.877C101.989 196.364 98.121 194.242 93.9527 193.923C93.4269 193.885 92.8824 193.867 92.3379 193.885C87.8317 194.036 83.6071 196.214 80.4339 200.046C77.2608 203.858 75.5334 208.854 75.5709 214.113C75.5897 219.034 77.1857 223.692 80.0584 227.242C82.9123 230.754 86.7802 232.876 90.9485 233.196C91.0048 233.196 91.0612 233.196 91.0987 233.215C91.5869 233.252 92.0751 233.252 92.5445 233.233C97.0507 233.083 101.275 230.904 104.448 227.073C107.64 223.241 109.368 218.264 109.33 213.005ZM91.0424 231.919C82.9123 231.28 76.735 223.617 76.6787 214.076C76.6599 209.155 78.2747 204.478 81.2413 200.91C84.2079 197.341 88.1509 195.294 92.3567 195.162C92.8073 195.144 93.258 195.162 93.7086 195.181C93.7649 195.181 93.8025 195.181 93.8588 195.2C101.989 195.839 108.166 203.502 108.222 213.043C108.241 217.964 106.626 222.64 103.66 226.209C100.693 229.777 96.7503 231.825 92.5445 231.956C92.0375 231.975 91.5306 231.956 91.0424 231.919Z" fill="#7E581E"/>
<path d="M84.3021 217.099C84.3021 217.099 78.9322 216.085 80.0024 220.687C81.0726 225.288 85.9732 230.904 94.46 230.284C105.895 229.439 111.189 212.178 103.491 213.737C102.064 218.658 84.3021 217.099 84.3021 217.099Z" fill="#FEFCD3"/>
<path d="M106.116 214.21C106.461 206.635 101.232 200.242 94.4363 199.932C87.6405 199.622 81.8515 205.512 81.5062 213.087C81.1608 220.662 86.3899 227.054 93.1856 227.364C99.9814 227.674 105.77 221.785 106.116 214.21Z" fill="#1A1A1A"/>
<path d="M88.6201 205.68C88.6389 208.384 86.6862 210.638 84.2641 210.713C81.842 210.788 79.8705 208.666 79.8517 205.961C79.8329 203.257 81.7856 201.003 84.2077 200.928C86.6299 200.853 88.6013 202.994 88.6201 205.68Z" fill="white"/>
<path d="M99.9991 222.696C99.9991 224.48 98.7223 225.964 97.1076 226.02C95.5116 226.077 94.1973 224.668 94.1973 222.884C94.1973 221.099 95.474 219.616 97.0888 219.559C98.6847 219.503 99.9991 220.912 99.9991 222.696Z" fill="white"/>
<path d="M98.3845 184.193C93.5403 180.906 87.5883 179.704 80.8852 180.193C74.1446 180.681 68.0987 183.705 64.5125 189.865C61.7336 194.655 59.9124 201.773 60.5132 209.079C61.1328 216.705 64.7002 224.687 68.7183 228.8C73.2621 233.458 80.7162 234.942 86.4429 235.355C86.687 235.374 86.9499 235.393 87.194 235.393C93.897 235.768 100.412 234.81 103.36 233.683L103.135 233.101L104.261 233.571C108.167 224.368 109.857 214.357 109.049 205.398C108.167 195.819 104.393 188.269 98.3845 184.193ZM102.759 232.143L102.665 231.88C99.9617 232.913 93.6529 233.815 87.2878 233.458C81.824 233.157 74.4075 231.862 70.089 227.448C66.3901 223.654 63.9304 217.343 63.3484 210.15C62.7851 203.238 64.719 197.115 67.4416 192.739C70.1641 188.363 74.5952 184.775 80.6787 183.479C88.0577 181.902 94.8546 184.926 97.5959 186.785C103.116 190.541 106.346 196.552 107.153 205.567C107.885 214 106.327 223.41 102.759 232.143Z" fill="black"/>
<path d="M70.3145 236.257C74.2762 232.933 79.9278 231.336 87.4382 230.698C94.0662 230.134 104.111 230.491 114.213 235.299C114.213 235.299 96.4507 237.234 90.4799 237.365C85.1288 237.497 70.3145 236.257 70.3145 236.257Z" fill="#1A1A1A"/>
<path d="M70.2031 236.313C70.2031 236.313 74.5216 230.885 87.5522 229.157C94.1614 228.274 104.225 228.95 114.327 233.758L113.501 235.486C95.7386 227.035 76.2302 231.937 70.2031 236.313Z" fill="black"/>
<path d="M65.847 177.413C65.847 177.413 62.9179 184.494 66.9172 188.194L69.4332 185.226C68.5319 184.663 64.8143 183.066 65.847 177.413Z" fill="black"/>
<path d="M58.8433 182.991C58.8433 182.991 57.3224 190.673 63.4998 193.81C63.6124 193.866 65.5839 189.602 65.5839 189.602C64.6075 189.621 59.1813 189.396 58.8433 182.991Z" fill="black"/>
<path d="M53.9044 194.054C53.9044 194.054 53.4538 201.585 62.1095 201.585L62.8793 196.646C60.7952 197.566 55.9322 197.341 53.9044 194.054Z" fill="black"/>
<path d="M166.205 177.808C153.062 189.434 151.616 221.626 158.451 233.759C163.764 243.188 174.279 252.804 211.793 256.767C249.308 260.73 281.678 235.994 293.713 223.523C273.135 220.161 248.275 178.315 221.332 166.802C194.388 155.288 179.348 166.182 166.205 177.808Z" fill="#1A1A1A"/>
<path d="M259.654 196.59C247.544 184.306 235.001 171.591 221.689 165.9C215.08 163.083 208.771 161.43 202.932 161.036C186.484 159.89 175.444 168.323 165.549 177.075C159.447 182.466 155.184 192.833 153.851 205.473C152.668 216.818 154.133 228.087 157.588 234.21C159.897 238.304 163.69 243.601 172.59 248.146C181.602 252.747 194.37 255.865 211.663 257.687C212.583 257.781 213.503 257.856 214.423 257.931C230.533 259.058 247.131 255.245 263.766 246.587C280.439 237.91 291.423 227.223 294.39 224.143L295.667 222.828L293.846 222.527C283.631 220.893 271.99 209.098 259.654 196.59ZM214.573 256.034C213.672 255.978 212.771 255.884 211.888 255.79C174.505 251.846 164.31 242.192 159.296 233.271C156.029 227.467 154.659 216.63 155.804 205.68C157.081 193.491 161.099 183.593 166.863 178.521C176.458 170.051 187.122 161.862 202.838 162.951C208.452 163.346 214.554 164.923 220.976 167.666C233.931 173.206 246.342 185.771 258.321 197.942C270.188 209.981 281.435 221.382 291.818 224.086C284.645 231.092 253.721 258.758 214.573 256.034Z" fill="#060606"/>
<path d="M173.528 191.706C165.379 203.52 166.525 232.2 168.214 233.477C174.354 238.154 196.754 240.389 211.136 228.763C220.393 221.288 224.261 200.759 213.577 188.25C202.875 175.723 182.672 178.427 173.528 191.706Z" fill="white"/>
<path d="M212.004 217.235C212.795 206.289 204.976 196.804 194.54 196.05C184.104 195.296 175.003 203.558 174.213 214.504C173.422 225.45 181.241 234.935 191.677 235.689C202.113 236.443 211.214 228.181 212.004 217.235Z" fill="#FCEE21"/>
<path d="M174.504 212.122C174.504 212.122 193.073 195.876 210.798 209.493C208.883 202.806 202.424 194.392 190.52 196.139C176.494 198.186 174.504 212.122 174.504 212.122Z" fill="#FBB03B"/>
<path d="M212.695 215.446C212.62 210.3 210.742 205.435 207.381 201.717C204.039 198.017 199.533 195.782 194.689 195.406C194.069 195.35 193.431 195.35 192.811 195.35C187.572 195.462 182.691 197.716 179.029 201.679C175.387 205.642 173.415 210.845 173.49 216.31C173.565 221.456 175.443 226.321 178.804 230.04C182.146 233.74 186.652 235.975 191.497 236.35C191.553 236.35 191.628 236.35 191.684 236.369C192.248 236.407 192.811 236.426 193.374 236.407C198.613 236.294 203.494 234.04 207.156 230.077C210.798 226.114 212.77 220.931 212.695 215.446ZM191.609 235.036C182.165 234.303 174.917 226.246 174.786 216.291C174.711 211.164 176.551 206.281 179.968 202.581C183.385 198.881 187.948 196.777 192.83 196.664C193.355 196.646 193.881 196.664 194.407 196.702C194.463 196.702 194.52 196.702 194.576 196.721C204.02 197.453 211.268 205.511 211.399 215.465C211.474 220.592 209.634 225.476 206.217 229.176C202.8 232.876 198.237 234.979 193.355 235.092C192.792 235.092 192.191 235.073 191.609 235.036Z" fill="#7E581E"/>
<path d="M183.141 219.823C183.141 219.823 176.907 218.715 178.184 223.523C179.461 228.35 185.206 234.247 195.045 233.665C208.32 232.876 214.328 214.902 205.391 216.461C203.776 221.607 183.141 219.823 183.141 219.823Z" fill="#FEFCD3"/>
<path d="M201.612 227.428C207.962 222.76 209.307 213.798 204.615 207.412C199.924 201.026 190.972 199.634 184.622 204.303C178.271 208.971 176.926 217.933 181.618 224.319C186.31 230.704 195.261 232.097 201.612 227.428Z" fill="#1A1A1A"/>
<path d="M187.685 209.436C187.722 212.254 185.469 214.602 182.672 214.658C179.855 214.714 177.546 212.479 177.508 209.662C177.471 206.845 179.724 204.497 182.521 204.44C185.338 204.384 187.647 206.619 187.685 209.436Z" fill="white"/>
<path d="M201.956 225.476C201.974 227.336 200.491 228.895 198.632 228.932C196.773 228.97 195.253 227.486 195.215 225.626C195.196 223.767 196.68 222.208 198.538 222.171C200.397 222.133 201.918 223.617 201.956 225.476Z" fill="white"/>
<path d="M197.504 179.273C192.848 178.954 188.098 179.855 183.76 181.883C179.292 183.987 175.48 187.199 172.739 191.162C167.97 198.073 165.942 208.122 165.491 214.62C164.778 224.856 167.313 233.984 167.632 234.247C170.279 236.257 175.367 237.703 181.244 238.116C186.746 238.492 200.715 238.436 211.755 229.514C216.618 225.589 220.111 218.151 220.843 210.113C221.632 201.473 219.322 193.491 214.309 187.631C210.084 182.691 204.132 179.724 197.504 179.273ZM218.365 210.169C217.67 217.719 215.004 224.387 210.516 227.993C200.002 236.482 186.614 236.539 181.357 236.182C175.987 235.806 171.199 234.492 168.852 232.764C167.65 230.51 163.576 206.882 175.067 192.683C180.681 185.753 187.084 181.996 196.04 182.053C202.161 182.09 207.831 185.602 211.699 190.129C216.374 195.594 219.116 202.055 218.365 210.169Z" fill="black"/>
<path d="M163.521 242.305C167.427 237.046 183.049 233.252 190.033 233.477C197.018 233.703 209.41 235.787 212.508 237.29C209.598 243.206 170.074 246.042 163.521 242.305Z" fill="#1A1A1A"/>
<path opacity="0.09" d="M69.7342 241.817C69.1146 249.255 78.465 256.11 90.5944 257.124C102.742 258.138 113.069 252.917 113.689 245.479C114.309 238.042 104.958 231.186 92.8287 230.172C80.6994 229.158 70.3538 234.361 69.7342 241.817Z" fill="url(#paint0_radial_653_1005)"/>
<path opacity="0.09" d="M175.218 245.479C173.866 252.823 182.484 260.561 194.463 262.777C206.442 264.993 217.257 260.824 218.609 253.48C219.961 246.136 211.343 238.398 199.364 236.182C187.385 233.984 176.57 238.135 175.218 245.479Z" fill="url(#paint1_radial_653_1005)"/>
<path d="M167.726 240.014L166.412 238.605C171.181 234.116 181.189 231.506 192.436 232.388C208.283 233.609 215.774 240.352 215.774 240.352C207.344 236.22 197.374 234.041 187.723 234.192C178.917 234.361 171.444 236.52 167.726 240.014Z" fill="black"/>
<path d="M220.75 184.062C210.686 172.661 199.439 176.192 199.439 176.192C206.443 176.324 214.085 179.855 219.342 185.396C222.684 188.908 226.608 194.862 226.346 203.238C226.364 203.238 231.809 196.571 220.75 184.062Z" fill="#060606"/>
<path d="M210.009 183.8L209.803 185.715C209.897 185.734 212.169 188.476 212.262 188.476C223.171 187.481 224.166 174.296 224.166 174.296C219.548 183.255 212.732 184.1 210.009 183.8Z" fill="black"/>
<path d="M216.919 192.251L216.469 194.111C217.07 194.261 217.858 197.003 218.497 197.059C228.504 197.717 232.898 185.94 232.898 185.94C227.753 192.214 222.083 193.51 216.919 192.251Z" fill="black"/>
<path d="M220.562 203.746L219.68 208.085C228.166 211.465 236.259 202.131 236.259 202.131C230.851 205.286 226.383 206.582 220.562 203.746Z" fill="black"/>
<path d="M189.318 149.466C204.677 146.555 226.138 154.087 231.677 166.821C227.64 141.597 202.011 134.91 189.318 149.466Z" fill="#1A1A1A"/>
<path d="M117.5 298.594C120.523 310.502 124.484 323.762 144.143 323.856C163.801 323.931 174.898 301.186 178.691 292.847C182.484 284.489 183.009 266.026 185.676 260.937L98.5547 277.371C106.666 280.733 114.477 286.686 117.5 298.594Z" fill="#680404"/>
<path d="M164.401 289.761C165.059 280.303 157.802 272.093 148.192 271.423C138.581 270.754 130.257 277.878 129.599 287.336C128.94 296.795 136.197 305.005 145.807 305.674C155.418 306.344 163.742 299.219 164.401 289.761Z" fill="#4C0303"/>
<path d="M173.227 303.29C167.425 312.812 157.868 323.893 144.143 323.837C142.904 323.837 141.721 323.781 140.594 323.668C126.137 322.297 121.499 312.774 118.664 302.97C123.17 294.969 136.764 292.396 144.462 298.932C146.115 296.115 155.015 293.448 162.487 294.406C167.82 295.101 172.439 297.636 173.227 303.29Z" fill="#F29EA8"/>
<path d="M173.228 303.29C167.427 312.813 157.87 323.894 144.144 323.837C142.905 323.837 141.722 323.781 140.596 323.668C140.014 323.424 139.45 323.143 138.943 322.842C160.479 325.359 168.027 302.651 162.489 294.406C167.821 295.101 172.44 297.637 173.228 303.29Z" fill="#DD8593"/>
<path d="M161.155 293.298C154.658 292.847 147.054 294.857 144.313 297.58C141.759 295.683 138.586 294.556 135.075 294.312C131.695 294.068 128.147 294.706 125.086 296.115C121.857 297.599 119.341 299.796 117.82 302.501L117.613 302.858L117.726 303.252C118.984 307.61 120.918 313.15 124.748 317.376C128.766 321.827 134.23 324.232 141.421 324.72C142.285 324.776 143.186 324.814 144.106 324.814C150.509 324.833 156.611 322.522 162.225 317.921C166.45 314.465 170.412 309.713 174.017 303.816L174.186 303.515L174.148 303.177C173.378 297.336 168.759 293.842 161.155 293.298ZM144.144 322.879C143.261 322.879 142.398 322.842 141.59 322.785C127.264 321.79 122.57 312.775 119.716 303.102C122.476 298.613 128.672 295.796 134.962 296.228C138.417 296.472 141.478 297.655 143.843 299.665L144.707 300.397L145.289 299.421C146.472 297.43 153.757 294.725 161.024 295.232C164.779 295.495 171.144 296.866 172.214 303.102C164.122 316.268 154.677 322.917 144.144 322.879Z" fill="#CC6072"/>
<path d="M181.846 274.14C180.888 280.676 179.78 288.076 177.809 292.415C168.609 312.681 157.268 322.917 144.143 322.86C126.118 322.785 121.819 311.704 118.42 298.331C115.792 287.983 109.408 280.827 98.9119 276.432L98.1797 278.216C108.093 282.367 114.102 289.091 116.58 298.82C118.214 305.243 119.997 311.404 123.847 316.249C127.921 321.395 133.704 324.175 141.458 324.701C142.341 324.757 143.242 324.795 144.162 324.795C152.874 324.833 160.948 320.569 168.12 312.117C174.317 304.811 178.278 296.096 179.593 293.223C181.677 288.621 182.803 281.09 183.78 274.422C184.606 268.844 185.376 263.566 186.54 261.35L184.831 260.448C183.498 262.965 182.728 268.149 181.846 274.14Z" fill="#666666"/>
<path d="M143.711 305.074C143.862 301.6 145.045 299.177 147.223 297.806L146.152 296.266C145.307 296.792 144.575 297.449 143.974 298.219C141.89 300.867 143.711 305.074 143.711 305.074Z" fill="#CC6072"/>
<path d="M125.931 282.911C111.267 289.053 100.658 286.142 94.1428 279.268C88.5851 273.408 86.0315 264.655 86.5197 256.241C87.59 238.004 96.4898 234.754 113.276 231.881L119.378 256.523L125.931 282.911Z" fill="#CCCCCC"/>
<path d="M125.93 282.911C111.266 289.053 100.658 286.141 94.1426 279.267C101.428 283.343 111.567 281.221 114.552 279.042C113.764 277.577 112.111 269.876 113.407 260.316L119.396 256.522L125.93 282.911Z" fill="#999999"/>
<path d="M98.0676 281.521C90.9514 276.469 86.9146 266.872 87.5342 256.448C88.0412 247.939 90.2379 242.624 94.6503 239.206C98.8186 235.975 104.714 234.473 113.483 232.97L113.164 231.073C104.076 232.632 97.9549 234.21 93.4674 237.684C88.5669 241.478 86.1448 247.226 85.6003 256.335C84.9431 267.416 89.2991 277.671 96.941 283.099C99.7762 285.109 103.757 286.949 109.052 287.325C113.727 287.644 119.453 286.837 126.307 283.944L125.556 282.179C114.647 286.762 105.127 286.536 98.0676 281.521Z" fill="#666666"/>
<path d="M191.198 257.537C189.677 260.129 184.533 271.511 175.689 278.591C166.846 285.691 139.602 291.25 129.575 285.672C125.876 283.606 123.398 280.563 121.896 277.051C119.342 271.06 119.567 263.641 121.145 257.199L144.502 231.824C160.293 229.27 176.985 245.554 177.36 251.376C178.055 250.494 181.059 254.588 186.786 256.579C188.1 257.048 189.583 257.387 191.198 257.537Z" fill="#CCCCCC"/>
<path d="M191.197 257.537C189.676 260.129 184.531 271.51 175.688 278.591C166.844 285.691 139.6 291.25 129.574 285.672C125.875 283.606 123.397 280.563 121.895 277.051C128.635 287.475 149.721 283.024 161.719 279.699C174.298 276.206 183.63 264.129 184.306 257.969C185.376 257.8 186.165 257.274 186.766 256.598C188.099 257.048 189.582 257.386 191.197 257.537Z" fill="#999999"/>
<path d="M175.088 277.859C170.957 281.165 162.264 284.339 152.913 285.954C142.924 287.682 134.381 287.25 130.044 284.846C120.525 279.531 119.68 267.21 122.083 257.424L120.224 256.974C118.816 262.74 118.628 268.562 119.736 273.408C121.107 279.399 124.261 283.813 129.124 286.536C131.396 287.795 134.569 288.565 138.418 288.847C142.662 289.147 147.712 288.828 153.251 287.87C163.052 286.179 171.877 282.93 176.308 279.38C182.673 274.272 188.306 264.599 191.611 258.42L189.808 257.687C186.541 263.735 181.115 273.032 175.088 277.859Z" fill="#666666"/>
<path d="M170.393 239.299C164.065 234.247 156.874 231.223 150.227 230.679C148.199 230.509 144.257 230.585 142.379 231.543L144.501 232.782C146.303 232.5 148.35 232.425 150.302 232.594C156.499 233.158 163.239 236.031 169.21 240.802C174.261 244.821 176.664 248.596 176.795 250.4L176.964 252.954C176.964 252.954 180.25 249.817 174.43 242.981C173.303 241.685 171.895 240.501 170.393 239.299Z" fill="#666666"/>
<path d="M184.324 257.95C187.535 257.18 192.079 258.758 193.844 262.683C193.844 262.683 193.355 258.251 190.99 257.067C187.666 255.396 184.324 257.95 184.324 257.95Z" fill="#666666"/>
<path d="M119.454 228.011C109.315 227.917 96.9229 230.434 95.9653 236.782C95.0077 243.15 101.467 249.066 103.551 250.944C105.635 252.822 111.531 262.307 118.421 263.058C125.312 263.828 130.081 254.813 134.099 252.578C138.118 250.343 146.51 246.342 147.412 239.919C148.332 233.364 137.592 228.199 119.454 228.011Z" fill="#6F0000"/>
<path d="M120.316 230.434C128.596 230.472 140.82 232.876 141.834 235.505C142.847 238.135 142.265 240.445 140.726 240.351C134.943 237.985 131.488 240.858 130.192 244.295C128.897 247.732 126.644 258.626 120.035 259.377C114.665 259.997 111.717 256.222 111.229 252.86C110.759 249.479 109.163 242.943 104.469 241.14C99.7752 239.337 98.6487 240.858 98.6487 240.858C98.6299 237.459 99.7752 234.454 103.85 232.744C107.868 230.998 113.838 230.397 120.316 230.434Z" fill="#891111"/>
<path d="M125.362 237.108C125.399 235.158 121.781 233.509 117.281 233.425C112.782 233.341 109.105 234.853 109.068 236.803C109.032 238.752 112.65 240.401 117.149 240.486C121.649 240.57 125.326 239.058 125.362 237.108Z" fill="#9E2626"/>
<path d="M124.861 227.26C123.134 227.148 121.312 227.073 119.472 227.054C110.948 226.979 96.1899 228.894 95.0258 236.651C94.3311 241.253 96.9973 246.305 102.93 251.658C103.344 252.034 104.038 252.879 104.827 253.837C107.756 257.405 112.638 263.397 118.346 264.017C118.458 264.035 118.59 264.035 118.702 264.054C123.603 264.392 127.433 260.354 130.513 257.124C131.996 255.565 133.385 254.1 134.587 253.442C134.925 253.255 135.3 253.048 135.695 252.841C140.107 250.437 147.505 246.437 148.387 240.07C148.65 238.192 148.106 236.407 146.791 234.773C143.506 230.735 135.526 228.012 124.861 227.26ZM146.472 239.807C145.721 245.216 138.868 248.935 134.756 251.151C134.362 251.376 133.986 251.564 133.629 251.771C132.165 252.578 130.681 254.156 129.086 255.809C126.138 258.908 122.796 262.42 118.796 262.157C118.702 262.157 118.608 262.138 118.515 262.138C113.595 261.594 109.014 255.997 106.273 252.654C105.409 251.583 104.714 250.738 104.188 250.268C98.7622 245.385 96.3025 240.896 96.9034 236.971C97.7107 231.618 108.845 228.913 119.435 229.007C121.237 229.026 123.021 229.101 124.711 229.214C134.85 229.927 142.341 232.388 145.27 235.994C146.247 237.177 146.641 238.454 146.472 239.807Z" fill="#2D0101"/>
<path d="M98.1992 244.915C100.02 247.732 102.443 249.929 103.569 250.944C104.527 251.808 106.254 254.231 108.526 256.691C109.465 246.004 101.203 239.149 98.1992 244.915Z" fill="#420303"/>
<path d="M108.47 252.935C107.776 246.868 103.833 242.943 100.547 243.037C102.481 246.68 106.123 249.197 108.47 252.935Z" fill="#300202"/>
<path d="M101.523 241.873C99.7768 241.76 98.2935 242.68 97.3547 244.464L97.0918 244.953L97.3922 245.422C99.3262 248.409 101.936 250.756 102.912 251.658C103.325 252.034 104.02 252.879 104.809 253.837C105.635 254.851 106.668 256.109 107.813 257.349L109.277 258.945L109.465 256.767C109.878 252.09 108.62 247.507 106.067 244.54C104.696 242.943 103.081 241.985 101.523 241.873ZM106.292 252.635C105.428 251.564 104.734 250.719 104.208 250.249C103.25 249.385 101.091 247.432 99.3449 244.896C99.8894 244.108 100.565 243.751 101.392 243.807C102.424 243.882 103.588 244.615 104.621 245.817C106.405 247.902 107.475 250.944 107.625 254.231C107.137 253.649 106.705 253.104 106.292 252.635Z" fill="#2D0101"/>
<path d="M130.588 255.621C131.827 254.325 132.991 253.198 134.099 252.597C135.789 251.658 138.38 249.949 140.821 247.996C142.023 241.215 133.667 238.454 130.588 255.621Z" fill="#420303"/>
<path d="M140.464 244.146C139.112 240.802 134.324 241.065 131.508 250.7C134.888 248.86 138.643 247.489 140.464 244.146Z" fill="#300202"/>
<path d="M138.267 241.779C135.32 241.572 131.508 245.066 129.649 255.452L129.086 258.57L131.283 256.297C132.56 254.964 133.611 253.969 134.569 253.443C136.127 252.579 138.756 250.888 141.422 248.747L141.703 248.522L141.76 248.165C142.117 246.212 141.76 244.409 140.821 243.188C140.164 242.343 139.263 241.854 138.267 241.779ZM139.92 247.47C137.441 249.423 135.076 250.963 133.63 251.752C133.16 252.015 132.672 252.353 132.184 252.766C134.024 245.479 136.784 243.601 138.136 243.695C138.699 243.732 139.094 244.089 139.3 244.371C139.863 245.085 140.07 246.212 139.92 247.47Z" fill="#2D0101"/>
</g>
<defs>
<radialGradient id="paint0_radial_653_1005" cx="0" cy="0" r="1" gradientUnits="userSpaceOnUse" gradientTransform="translate(91.7212 243.636) rotate(-175.251) scale(22.0543 13.5225)">
<stop stop-color="#FFC5E4"/>
<stop offset="0.9519" stop-color="#0C0A0B"/>
<stop offset="1"/>
</radialGradient>
<radialGradient id="paint1_radial_653_1005" cx="0" cy="0" r="1" gradientUnits="userSpaceOnUse" gradientTransform="translate(196.916 249.483) rotate(-169.558) scale(22.0548 13.5222)">
<stop stop-color="#FFC5E4"/>
<stop offset="0.9519" stop-color="#0C0A0B"/>
<stop offset="1"/>
</radialGradient>
<clipPath id="clip0_653_1005">
<rect width="509" height="589" fill="white"/>
</clipPath>
</defs>
</svg>
