<svg width="350" height="350" viewBox="0 0 602 602" fill="none" xmlns="http://www.w3.org/2000/svg">
<g clip-path="url(#clip0_650_825)">
<path d="M568.337 308.531C568.337 308.026 568.337 307.52 568.337 307.015C568.337 306.307 568.337 305.498 568.337 304.791C568.337 303.679 568.235 302.466 568.235 301.354C568.235 300.343 568.134 299.332 568.134 298.321C568.134 297.815 568.033 297.209 568.033 296.703C568.033 296.501 568.033 296.299 568.033 295.996C568.033 295.086 567.932 294.277 567.831 293.367C567.831 293.064 567.831 292.862 567.73 292.559C567.73 291.851 567.629 291.244 567.629 290.537C567.528 289.728 567.528 288.919 567.427 288.111C567.427 287.908 567.427 287.807 567.427 287.605C567.326 286.898 567.326 286.089 567.225 285.381C567.225 284.876 567.123 284.471 567.123 283.966C566.921 281.944 566.719 279.922 566.416 277.9C566.315 276.889 566.113 275.879 566.011 274.868C565.91 274.16 565.809 273.452 565.708 272.644C565.506 271.228 565.304 269.813 565.001 268.297C564.899 267.791 564.798 267.286 564.798 266.881C564.697 266.174 564.596 265.567 564.495 264.86C564.394 264.354 564.293 263.849 564.192 263.343C564.091 263.04 564.091 262.636 563.99 262.332C563.889 261.625 563.686 260.917 563.585 260.209C563.484 259.805 563.383 259.401 563.383 258.996C563.282 258.39 563.181 257.783 562.979 257.177C562.979 256.873 562.878 256.671 562.777 256.368C562.574 255.559 562.473 254.852 562.271 254.144C561.665 251.212 560.957 248.281 560.148 245.349C559.946 244.54 559.744 243.63 559.542 242.822C559.339 242.215 559.238 241.609 559.036 241.002C558.834 240.294 558.632 239.587 558.43 238.879C558.227 238.171 558.025 237.565 557.823 236.857C557.823 236.756 557.823 236.756 557.722 236.655C557.52 235.947 557.318 235.24 557.115 234.431C556.913 233.622 556.61 232.814 556.408 232.106C556.206 231.297 555.902 230.59 555.7 229.882C555.498 229.376 555.397 228.871 555.195 228.366C555.195 228.264 555.094 228.062 555.094 227.961C554.79 227.152 554.588 226.344 554.285 225.535C552.971 221.693 551.656 217.953 550.14 214.213C549.837 213.404 549.534 212.595 549.23 211.787C549.23 211.685 549.129 211.584 549.129 211.483C548.725 210.573 548.422 209.765 548.017 208.855C547.714 208.046 547.411 207.339 547.006 206.53C546.905 206.227 546.703 205.822 546.602 205.519C546.4 205.013 546.096 204.407 545.894 203.901C545.793 203.598 545.591 203.194 545.389 202.89C545.086 202.183 544.782 201.475 544.479 200.768C544.075 199.858 543.67 199.049 543.266 198.139C541.143 193.59 538.919 189.142 536.594 184.795C536.189 184.087 535.785 183.38 535.482 182.672C535.482 182.571 535.381 182.47 535.381 182.47C534.976 181.661 534.471 180.853 534.066 180.044C533.561 179.235 533.157 178.426 532.651 177.618C532.651 177.516 532.55 177.415 532.449 177.314C531.944 176.506 531.539 175.798 531.034 174.989C530.427 173.978 529.821 172.866 529.113 171.855C527.698 169.631 526.283 167.306 524.867 165.082C523.755 163.465 522.744 161.847 521.632 160.23C521.228 159.724 520.925 159.118 520.52 158.612C520.116 158.107 519.813 157.5 519.408 156.995C519.307 156.793 519.105 156.591 519.004 156.388C518.6 155.782 518.094 155.175 517.69 154.569C517.589 154.367 517.386 154.164 517.285 153.962C516.881 153.356 516.477 152.749 515.971 152.143C514.354 149.919 512.635 147.695 510.917 145.572C509.906 144.257 508.895 143.044 507.884 141.73C507.277 141.022 506.671 140.214 506.064 139.506C505.458 138.798 504.851 138.091 504.346 137.383C504.245 137.282 504.245 137.282 504.143 137.181C503.537 136.473 502.93 135.766 502.324 135.058C501.818 134.452 501.313 133.946 500.807 133.34C500.403 132.935 500.1 132.531 499.695 132.126C499.291 131.621 498.887 131.217 498.381 130.711C497.775 130.003 497.067 129.296 496.46 128.588C495.753 127.881 495.146 127.173 494.439 126.465C493.124 125.05 491.81 123.736 490.395 122.321C489.687 121.613 489.081 121.006 488.373 120.299C487.666 119.591 486.958 118.985 486.25 118.277C485.543 117.569 484.835 116.963 484.127 116.255C483.42 115.648 482.712 114.941 482.105 114.334L482.004 114.233C481.398 113.627 480.69 113.02 480.084 112.515C479.983 112.414 479.983 112.414 479.881 112.312C479.174 111.706 478.567 111.099 477.86 110.594C477.759 110.493 477.657 110.392 477.556 110.291C476.95 109.684 476.242 109.179 475.535 108.572C474.119 107.359 472.603 106.045 471.087 104.832C469.57 103.619 468.054 102.406 466.537 101.192C465.83 100.586 465.021 99.9793 464.212 99.3728C463.404 98.7662 462.696 98.1597 461.887 97.6542C461.281 97.1487 460.573 96.6433 459.966 96.2389C459.764 96.1378 459.562 95.9356 459.36 95.7335C458.652 95.228 457.945 94.7225 457.237 94.2171C456.428 93.6105 455.62 93.1051 454.912 92.4985C450.161 89.1625 445.308 85.9276 440.355 82.8948C428.83 75.8184 416.598 69.6519 403.962 64.3951C386.776 57.2176 368.782 51.8597 349.979 48.4226C348.968 48.2205 347.957 48.0183 347.047 47.9172C346.036 47.715 345.025 47.6139 344.116 47.4117C342.397 47.1084 340.678 46.9063 338.96 46.603C326.627 44.8844 314.091 43.9746 301.253 43.9746C153.659 43.9746 33.9668 163.667 33.9668 311.261C33.9668 355.539 44.6825 397.289 63.7888 433.986C68.1357 442.376 72.887 450.464 78.0427 458.248C79.458 460.472 80.9743 462.696 82.4907 464.819C82.5918 464.92 82.5918 465.021 82.6929 465.122C83.4006 466.133 84.2093 467.245 84.9169 468.256C85.7257 469.368 86.5344 470.48 87.3431 471.491C88.0508 472.502 88.7584 473.411 89.5671 474.422C89.7693 474.726 89.9715 474.928 90.1737 475.231C90.8813 476.141 91.589 477.051 92.2966 477.96C94.8239 481.094 97.3512 484.127 99.9796 487.16C100.081 487.261 100.182 487.362 100.283 487.463C101.092 488.373 101.799 489.283 102.608 490.091C102.709 490.193 102.81 490.294 102.911 490.395C104.63 492.417 106.449 494.337 108.37 496.258C109.179 497.067 109.988 497.977 110.796 498.785C110.999 498.988 111.201 499.291 111.504 499.493C112.313 500.302 113.223 501.212 114.031 502.02C114.941 502.93 115.851 503.84 116.862 504.75L116.963 504.851C117.873 505.761 118.884 506.67 119.895 507.58C119.996 507.681 120.097 507.782 120.198 507.782C121.007 508.591 121.916 509.299 122.725 510.108C122.826 510.209 123.028 510.31 123.13 510.512C124.039 511.321 124.848 512.129 125.758 512.837C125.96 513.039 126.162 513.241 126.364 513.342C128.285 514.96 130.206 516.679 132.228 518.195C133.239 519.004 134.351 519.913 135.362 520.722C136.474 521.531 137.485 522.441 138.597 523.249C138.698 523.351 138.799 523.351 138.799 523.452C139.81 524.26 140.821 524.968 141.831 525.676C142.842 526.484 143.954 527.192 144.965 528.001C145.066 528.102 145.167 528.102 145.167 528.203C146.178 529.012 147.29 529.719 148.301 530.427C151.637 532.752 154.973 534.976 158.512 537.2C159.624 537.908 160.837 538.615 161.949 539.323C164.274 540.738 166.599 542.154 169.025 543.468C170.238 544.175 171.35 544.782 172.563 545.49C173.17 545.793 173.776 546.197 174.383 546.501C174.989 546.804 175.596 547.107 176.203 547.511C176.708 547.815 177.315 548.118 177.82 548.32C178.022 548.421 178.123 548.522 178.325 548.623C178.831 548.927 179.336 549.129 179.842 549.432C181.156 550.14 182.571 550.847 183.987 551.454C185.099 551.959 186.11 552.465 187.222 552.97C187.828 553.274 188.435 553.577 189.041 553.88C189.648 554.184 190.254 554.487 190.861 554.689C191.467 554.992 192.074 555.296 192.782 555.498C193.995 556.003 195.309 556.61 196.522 557.115C197.128 557.418 197.735 557.621 198.443 557.924C199.757 558.429 200.97 558.935 202.284 559.44C202.891 559.744 203.598 559.946 204.205 560.249C205.519 560.754 206.732 561.26 208.046 561.765C208.653 561.968 209.361 562.271 209.967 562.473C210.574 562.675 211.281 562.978 211.888 563.181C212.494 563.383 213.202 563.686 213.809 563.888C215.123 564.293 216.437 564.798 217.751 565.202C218.358 565.405 218.863 565.607 219.47 565.708C220.885 566.112 222.3 566.618 223.716 567.022C224.322 567.224 224.929 567.426 225.535 567.629C225.737 567.73 225.94 567.73 226.142 567.831C227.153 568.134 228.265 568.437 229.276 568.741C229.579 568.842 229.882 568.943 230.185 568.943C230.691 569.044 231.196 569.246 231.702 569.347C232.409 569.549 233.117 569.752 233.825 569.954C234.229 570.055 234.735 570.156 235.139 570.257C235.745 570.459 236.352 570.56 236.959 570.661C237.363 570.763 237.767 570.864 238.172 570.965C239.081 571.167 239.991 571.369 240.8 571.571C241.811 571.773 242.822 571.976 243.833 572.279C246.259 572.784 248.685 573.29 251.111 573.795C251.92 573.997 252.83 574.099 253.639 574.301C253.841 574.301 254.043 574.402 254.144 574.402C255.054 574.604 255.863 574.705 256.772 574.806C258.693 575.109 260.715 575.413 262.636 575.716C263.242 575.817 263.748 575.918 264.354 575.918C266.073 576.12 267.791 576.323 269.51 576.525C270.015 576.626 270.42 576.626 270.925 576.727C271.835 576.828 272.644 576.929 273.554 577.03C273.756 577.03 273.958 577.03 274.261 577.131C275.07 577.232 275.98 577.333 276.789 577.333C277.698 577.435 278.709 577.536 279.619 577.536C280.226 577.536 280.832 577.637 281.439 577.637C282.45 577.738 283.461 577.738 284.37 577.839C285.179 577.94 286.089 577.94 286.898 577.94C287.201 577.94 287.605 577.94 287.909 577.94C288.818 577.94 289.728 578.041 290.638 578.041C291.75 578.041 292.963 578.142 294.075 578.142C295.086 578.142 296.198 578.142 297.209 578.243C297.411 578.243 297.613 578.243 297.917 578.243C298.928 578.243 300.04 578.243 301.051 578.243C448.644 578.243 568.337 458.551 568.337 310.957C568.337 310.553 568.337 309.542 568.337 308.531ZM209.765 347.35C190.052 347.35 173.979 331.378 173.979 311.564C173.979 291.851 189.951 275.777 209.765 275.777C229.579 275.777 245.551 291.75 245.551 311.564C245.551 331.378 229.478 347.35 209.765 347.35ZM301.051 438.636C281.338 438.636 265.264 422.663 265.264 402.849C265.264 383.137 281.237 367.063 301.051 367.063C320.763 367.063 336.837 383.036 336.837 402.849C336.837 422.562 320.763 438.636 301.051 438.636ZM301.051 256.166C281.338 256.166 265.264 240.193 265.264 220.379C265.264 200.666 281.237 184.593 301.051 184.593C320.763 184.593 336.837 200.565 336.837 220.379C336.837 240.092 320.763 256.166 301.051 256.166ZM392.235 347.35C372.522 347.35 356.449 331.378 356.449 311.564C356.449 291.851 372.421 275.777 392.235 275.777C411.948 275.777 428.022 291.75 428.022 311.564C428.022 331.378 412.049 347.35 392.235 347.35Z" fill="#AF2D27"/>
<path d="M301.051 0C134.755 0 0 134.755 0 301.051C0 467.346 134.755 602.101 301.051 602.101C467.346 602.101 602.101 467.346 602.101 301.051C602 134.755 467.245 0 301.051 0ZM209.765 336.837C190.052 336.837 173.979 320.864 173.979 301.051C173.979 281.338 189.951 265.264 209.765 265.264C229.579 265.264 245.551 281.237 245.551 301.051C245.551 320.763 229.478 336.837 209.765 336.837ZM301.051 428.021C281.338 428.021 265.264 412.049 265.264 392.235C265.264 372.522 281.237 356.449 301.051 356.449C320.763 356.449 336.837 372.421 336.837 392.235C336.837 412.049 320.763 428.021 301.051 428.021ZM301.051 245.551C281.338 245.551 265.264 229.579 265.264 209.765C265.264 190.052 281.237 173.979 301.051 173.979C320.763 173.979 336.837 189.951 336.837 209.765C336.837 229.478 320.763 245.551 301.051 245.551ZM392.235 336.837C372.522 336.837 356.449 320.864 356.449 301.051C356.449 281.338 372.421 265.264 392.235 265.264C411.948 265.264 428.021 281.237 428.021 301.051C428.021 320.763 412.049 336.837 392.235 336.837Z" fill="#CF473C"/>
<path d="M301.05 26.2842C149.312 26.2842 26.2832 149.313 26.2832 301.051C26.2832 452.789 149.312 575.717 300.949 575.717C452.586 575.717 575.615 452.688 575.615 301.051C575.615 149.414 452.687 26.2842 301.05 26.2842ZM209.764 336.837C190.051 336.837 173.978 320.865 173.978 301.051C173.978 281.338 189.95 265.265 209.764 265.265C229.578 265.265 245.551 281.237 245.551 301.051C245.551 320.764 229.477 336.837 209.764 336.837ZM301.05 428.022C281.337 428.022 265.264 412.049 265.264 392.236C265.264 372.523 281.236 356.449 301.05 356.449C320.763 356.449 336.836 372.422 336.836 392.236C336.836 412.049 320.763 428.022 301.05 428.022ZM301.05 245.552C281.337 245.552 265.264 229.579 265.264 209.765C265.264 190.052 281.236 173.979 301.05 173.979C320.763 173.979 336.836 189.951 336.836 209.765C336.836 229.478 320.763 245.552 301.05 245.552ZM392.234 336.837C372.522 336.837 356.448 320.865 356.448 301.051C356.448 281.338 372.421 265.265 392.234 265.265C411.947 265.265 428.021 281.237 428.021 301.051C428.021 320.764 412.048 336.837 392.234 336.837Z" fill="#AF2D27"/>
<path d="M568.337 297.917C568.337 297.411 568.337 296.906 568.337 296.4C568.337 295.693 568.337 294.884 568.337 294.176C568.337 293.064 568.235 291.851 568.235 290.739C568.235 289.728 568.134 288.718 568.134 287.707C568.134 287.201 568.033 286.595 568.033 286.089C568.033 285.887 568.033 285.685 568.033 285.381C568.033 284.472 567.932 283.663 567.831 282.753C567.831 282.45 567.831 282.248 567.73 281.944C567.73 281.237 567.629 280.63 567.629 279.923C567.528 279.114 567.528 278.305 567.427 277.496C567.427 277.294 567.427 277.193 567.427 276.991C567.326 276.283 567.326 275.475 567.225 274.767C567.225 274.261 567.123 273.857 567.123 273.352C566.921 271.33 566.719 269.308 566.416 267.286C566.315 266.275 566.113 265.264 566.011 264.253C565.91 263.546 565.809 262.838 565.708 262.029C565.506 260.614 565.304 259.199 565.001 257.682C564.899 257.177 564.798 256.672 564.798 256.267C564.697 255.56 564.596 254.953 564.495 254.245C564.394 253.74 564.293 253.234 564.192 252.729C564.091 252.426 564.091 252.021 563.99 251.718C563.889 251.01 563.686 250.303 563.585 249.595C563.484 249.191 563.383 248.786 563.383 248.382C563.282 247.775 563.181 247.169 562.979 246.562C562.979 246.259 562.878 246.057 562.777 245.754C562.574 244.945 562.473 244.237 562.271 243.53C561.665 240.598 560.957 237.666 560.148 234.735C559.946 233.926 559.744 233.016 559.542 232.207C559.339 231.601 559.238 230.994 559.036 230.388C558.834 229.68 558.632 228.972 558.43 228.265C558.227 227.557 558.025 226.951 557.823 226.243C557.823 226.142 557.823 226.142 557.722 226.041C557.52 225.333 557.318 224.625 557.115 223.817C556.913 223.008 556.61 222.199 556.408 221.492C556.206 220.683 555.902 219.975 555.7 219.268C555.498 218.762 555.397 218.257 555.195 217.751C555.195 217.65 555.094 217.448 555.094 217.347C554.79 216.538 554.588 215.729 554.285 214.921C552.971 211.079 551.656 207.339 550.14 203.598C549.837 202.79 549.534 201.981 549.23 201.172C549.23 201.071 549.129 200.97 549.129 200.869C548.725 199.959 548.422 199.15 548.017 198.241C547.714 197.432 547.411 196.724 547.006 195.916C546.905 195.612 546.703 195.208 546.602 194.905C546.4 194.399 546.096 193.793 545.894 193.287C545.793 192.984 545.591 192.579 545.389 192.276C545.086 191.569 544.782 190.861 544.479 190.153C544.075 189.243 543.67 188.435 543.266 187.525C541.143 182.976 538.919 178.528 536.594 174.181C536.189 173.473 535.785 172.766 535.482 172.058C535.482 171.957 535.381 171.856 535.381 171.856C534.976 171.047 534.471 170.238 534.066 169.43C533.561 168.621 533.157 167.812 532.651 167.003C532.651 166.902 532.55 166.801 532.449 166.7C531.944 165.891 531.539 165.184 531.034 164.375C530.427 163.364 529.821 162.252 529.113 161.241C527.698 159.017 526.283 156.692 524.867 154.468C523.755 152.851 522.744 151.233 521.632 149.616C521.228 149.11 520.925 148.504 520.52 147.998C520.116 147.493 519.813 146.886 519.408 146.381C519.307 146.178 519.105 145.976 519.004 145.774C518.6 145.168 518.094 144.561 517.69 143.954C517.589 143.752 517.386 143.55 517.285 143.348C516.881 142.741 516.477 142.135 515.971 141.528C514.354 139.304 512.635 137.08 510.917 134.957C509.906 133.643 508.895 132.43 507.884 131.116C507.277 130.408 506.671 129.599 506.064 128.892C505.458 128.184 504.851 127.477 504.346 126.769C504.245 126.668 504.245 126.668 504.143 126.567C503.537 125.859 502.93 125.151 502.324 124.444C501.818 123.837 501.313 123.332 500.807 122.725C500.403 122.321 500.1 121.917 499.695 121.512C499.291 121.007 498.887 120.602 498.381 120.097C497.775 119.389 497.067 118.682 496.46 117.974C495.753 117.266 495.146 116.559 494.439 115.851C493.124 114.436 491.81 113.122 490.395 111.706C489.687 110.999 489.081 110.392 488.373 109.684C487.666 108.977 486.958 108.37 486.25 107.663C485.543 106.955 484.835 106.348 484.127 105.641C483.42 105.034 482.712 104.327 482.105 103.72L482.004 103.619C481.398 103.012 480.69 102.406 480.084 101.9C479.983 101.799 479.983 101.799 479.881 101.698C479.174 101.092 478.567 100.485 477.86 99.9797C477.759 99.8786 477.657 99.7775 477.556 99.6764C476.95 99.0698 476.242 98.5644 475.535 97.9578C474.119 96.7447 472.603 95.4305 471.087 94.2174C469.57 93.0043 468.054 91.7912 466.537 90.5781C465.83 89.9716 465.021 89.3651 464.212 88.7585C463.404 88.152 462.696 87.5454 461.887 87.0399C461.281 86.5345 460.573 86.029 459.966 85.6247C459.764 85.5236 459.562 85.3214 459.36 85.1192C458.652 84.6137 457.945 84.1083 457.237 83.6028C456.428 82.9963 455.62 82.4908 454.912 81.8843C450.161 78.5483 445.308 75.3133 440.355 72.2806C428.83 65.2042 416.598 59.0376 403.962 53.7808C386.776 46.6033 368.782 41.2455 349.979 37.8084C348.968 37.6062 347.957 37.404 347.047 37.3029C346.036 37.1007 345.025 36.9996 344.116 36.7975C342.397 36.4942 340.678 36.292 338.96 35.9887C326.627 34.2702 314.091 33.3604 301.253 33.3604C153.659 33.3604 33.9668 153.053 33.9668 300.646C33.9668 344.924 44.6825 386.675 63.7888 423.371C68.1357 431.762 72.887 439.849 78.0427 447.633C79.458 449.857 80.9743 452.081 82.4907 454.204C82.5918 454.305 82.5918 454.407 82.6929 454.508C83.4006 455.519 84.2093 456.631 84.9169 457.641C85.7257 458.753 86.5344 459.865 87.3431 460.876C88.0508 461.887 88.7584 462.797 89.5671 463.808C89.7693 464.111 89.9715 464.313 90.1737 464.617C90.8813 465.527 91.589 466.436 92.2966 467.346C94.8239 470.48 97.3512 473.513 99.9796 476.546C100.081 476.647 100.182 476.748 100.283 476.849C101.092 477.759 101.799 478.668 102.608 479.477C102.709 479.578 102.81 479.679 102.911 479.78C104.63 481.802 106.449 483.723 108.37 485.644C109.179 486.453 109.988 487.362 110.796 488.171C110.999 488.373 111.201 488.677 111.504 488.879C112.313 489.687 113.223 490.597 114.031 491.406C114.941 492.316 115.851 493.226 116.862 494.135L116.963 494.237C117.873 495.146 118.884 496.056 119.895 496.966C119.996 497.067 120.097 497.168 120.198 497.168C121.007 497.977 121.916 498.685 122.725 499.493C122.826 499.594 123.028 499.696 123.13 499.898C124.039 500.706 124.848 501.515 125.758 502.223C125.96 502.425 126.162 502.627 126.364 502.728C128.285 504.346 130.206 506.064 132.228 507.581C133.239 508.389 134.351 509.299 135.362 510.108C136.474 510.917 137.485 511.827 138.597 512.635C138.698 512.736 138.799 512.736 138.799 512.837C139.81 513.646 140.821 514.354 141.831 515.061C142.842 515.87 143.954 516.578 144.965 517.387C145.066 517.488 145.167 517.488 145.167 517.589C146.178 518.397 147.29 519.105 148.301 519.813C151.637 522.138 154.973 524.362 158.512 526.586C159.624 527.294 160.837 528.001 161.949 528.709C164.274 530.124 166.599 531.539 169.025 532.854C170.238 533.561 171.35 534.168 172.563 534.875C173.17 535.179 173.776 535.583 174.383 535.886C174.989 536.19 175.596 536.493 176.203 536.897C176.708 537.2 177.315 537.504 177.82 537.706C178.022 537.807 178.123 537.908 178.325 538.009C178.831 538.312 179.336 538.515 179.842 538.818C181.156 539.526 182.571 540.233 183.987 540.84C185.099 541.345 186.11 541.851 187.222 542.356C187.828 542.659 188.435 542.963 189.041 543.266C189.648 543.569 190.254 543.873 190.861 544.075C191.467 544.378 192.074 544.681 192.782 544.883C193.995 545.389 195.309 545.995 196.522 546.501C197.128 546.804 197.735 547.006 198.443 547.31C199.757 547.815 200.97 548.321 202.284 548.826C202.891 549.129 203.598 549.331 204.205 549.635C205.519 550.14 206.732 550.646 208.046 551.151C208.653 551.353 209.361 551.657 209.967 551.859C210.574 552.061 211.281 552.364 211.888 552.566C212.494 552.769 213.202 553.072 213.809 553.274C215.123 553.678 216.437 554.184 217.751 554.588C218.358 554.79 218.863 554.993 219.47 555.094C220.885 555.498 222.3 556.004 223.716 556.408C224.322 556.61 224.929 556.812 225.535 557.014C225.737 557.115 225.94 557.115 226.142 557.217C227.153 557.52 228.265 557.823 229.276 558.126C229.579 558.227 229.882 558.329 230.185 558.329C230.691 558.43 231.196 558.632 231.702 558.733C232.409 558.935 233.117 559.137 233.825 559.339C234.229 559.441 234.735 559.542 235.139 559.643C235.745 559.845 236.352 559.946 236.959 560.047C237.363 560.148 237.767 560.249 238.172 560.35C239.081 560.553 239.991 560.755 240.8 560.957C241.811 561.159 242.822 561.361 243.833 561.665C246.259 562.17 248.685 562.675 251.111 563.181C251.92 563.383 252.83 563.484 253.639 563.686C253.841 563.686 254.043 563.788 254.144 563.788C255.054 563.99 255.863 564.091 256.772 564.192C258.693 564.495 260.715 564.798 262.636 565.102C263.242 565.203 263.748 565.304 264.354 565.304C266.073 565.506 267.791 565.708 269.51 565.91C270.015 566.012 270.42 566.012 270.925 566.113C271.835 566.214 272.644 566.315 273.554 566.416C273.756 566.416 273.958 566.416 274.261 566.517C275.07 566.618 275.98 566.719 276.789 566.719C277.698 566.82 278.709 566.921 279.619 566.921C280.226 566.921 280.832 567.022 281.439 567.022C282.45 567.124 283.461 567.124 284.37 567.225C285.179 567.326 286.089 567.326 286.898 567.326C287.201 567.326 287.605 567.326 287.909 567.326C288.818 567.326 289.728 567.427 290.638 567.427C291.75 567.427 292.963 567.528 294.075 567.528C295.086 567.528 296.198 567.528 297.209 567.629C297.411 567.629 297.613 567.629 297.917 567.629C298.928 567.629 300.04 567.629 301.051 567.629C448.644 567.629 568.337 447.937 568.337 300.343C568.337 299.939 568.337 298.928 568.337 297.917ZM209.765 336.837C190.052 336.837 173.979 320.865 173.979 301.051C173.979 281.338 189.951 265.264 209.765 265.264C229.579 265.264 245.551 281.237 245.551 301.051C245.551 320.764 229.478 336.837 209.765 336.837ZM301.051 428.022C281.338 428.022 265.264 412.049 265.264 392.235C265.264 372.522 281.237 356.449 301.051 356.449C320.763 356.449 336.837 372.421 336.837 392.235C336.837 412.049 320.763 428.022 301.051 428.022ZM301.051 245.551C281.338 245.551 265.264 229.579 265.264 209.765C265.264 190.052 281.237 173.979 301.051 173.979C320.763 173.979 336.837 189.951 336.837 209.765C336.837 229.478 320.763 245.551 301.051 245.551ZM392.235 336.837C372.522 336.837 356.449 320.865 356.449 301.051C356.449 281.338 372.421 265.264 392.235 265.264C411.948 265.264 428.022 281.237 428.022 301.051C428.022 320.764 412.049 336.837 392.235 336.837Z" fill="#CF473C"/>
<path opacity="0.15" d="M368.479 159.118C368.479 306.712 248.787 426.404 101.193 426.404C100.182 426.404 99.0703 426.404 98.0594 426.404C97.8572 426.404 97.655 426.404 97.4528 426.404C96.4419 426.404 95.3299 426.404 94.319 426.303C93.207 426.303 91.9939 426.202 90.8819 426.202C89.972 426.202 89.0622 426.101 88.1524 426.101C87.8491 426.101 87.4447 426.101 87.1415 426C86.3327 426 85.4229 425.899 84.6142 425.899C83.6033 425.798 82.5924 425.798 81.6825 425.697C81.076 425.697 80.4694 425.595 79.8629 425.595C78.9531 425.494 77.9421 425.494 77.0323 425.393C76.1225 425.292 75.3138 425.191 74.505 425.191C74.3028 425.191 74.1007 425.191 73.7974 425.09C72.8876 424.989 72.0788 424.888 71.169 424.787C70.6636 424.787 70.2592 424.686 69.7537 424.585C68.0352 424.382 66.3166 424.18 64.5981 423.978C64.2948 423.978 63.9915 423.877 63.6882 423.877C44.4809 386.978 33.6641 345.228 33.6641 301.051C33.6641 153.457 153.356 33.7646 300.95 33.7646C313.789 33.7646 326.324 34.6745 338.657 36.393C340.275 39.4258 341.791 42.5596 343.307 45.6934C343.712 46.6033 344.116 47.412 344.52 48.3218C344.824 49.0295 345.127 49.7371 345.43 50.4447C345.633 50.748 345.734 51.1524 345.835 51.4557C346.037 51.9611 346.34 52.5677 346.542 53.0731C346.744 53.3764 346.846 53.7808 346.947 54.084C347.25 54.8928 347.654 55.6004 347.958 56.4091C348.362 57.319 348.665 58.1277 349.07 59.0375C349.07 59.1386 349.171 59.2397 349.171 59.3408C349.474 60.1495 349.777 60.9583 350.081 61.767C351.496 65.5074 352.911 69.2478 354.225 73.0893C354.529 73.898 354.731 74.7067 355.034 75.5154C355.034 75.6165 355.135 75.8187 355.135 75.9198C355.337 76.4253 355.438 76.9307 355.641 77.4362C355.843 78.1438 356.146 78.9526 356.348 79.6602C356.651 80.4689 356.854 81.2777 357.056 81.9853C357.258 82.6929 357.46 83.4006 357.662 84.2093C357.662 84.3104 357.662 84.3104 357.763 84.4115C357.966 85.1191 358.168 85.7257 358.37 86.4333C358.572 87.141 358.774 87.8486 358.977 88.5563C359.179 89.1628 359.28 89.7694 359.482 90.3759C359.684 91.1846 359.886 91.9934 360.089 92.9032C360.796 95.8348 361.504 98.7665 362.211 101.698C362.414 102.507 362.515 103.215 362.717 103.922C362.818 104.225 362.818 104.428 362.919 104.731C363.02 105.337 363.222 105.944 363.324 106.551C363.425 106.955 363.526 107.359 363.526 107.764C363.627 108.471 363.829 109.179 363.93 109.887C364.031 110.19 364.031 110.594 364.132 110.897C364.233 111.403 364.334 111.908 364.436 112.414C364.537 113.02 364.638 113.728 364.739 114.436C364.84 114.941 364.941 115.447 364.941 115.851C365.143 117.266 365.345 118.682 365.649 120.198C365.75 120.906 365.851 121.613 365.952 122.422C366.053 123.433 366.255 124.444 366.356 125.455C366.66 127.476 366.862 129.498 367.064 131.52C367.064 132.026 367.165 132.43 367.165 132.935C367.266 133.643 367.266 134.452 367.367 135.159C367.367 135.362 367.367 135.463 367.367 135.665C367.468 136.474 367.468 137.282 367.569 138.091C367.67 138.799 367.67 139.405 367.67 140.113C367.67 140.416 367.67 140.618 367.772 140.922C367.873 141.831 367.873 142.64 367.974 143.55C367.974 143.752 367.974 143.954 367.974 144.258C367.974 144.763 368.075 145.37 368.075 145.875C368.075 146.886 368.176 147.897 368.176 148.908C368.176 150.02 368.277 151.233 368.277 152.345C368.277 153.053 368.277 153.861 368.277 154.569C368.277 155.074 368.277 155.58 368.277 156.085C368.479 156.995 368.479 158.006 368.479 159.118Z" fill="white"/>
<path opacity="0.32" d="M301.051 54.8923C445.107 54.8923 562.575 168.924 568.135 311.564C568.236 308.025 568.337 304.487 568.337 300.949C568.337 153.355 448.645 33.6631 301.051 33.6631C153.458 33.6631 33.6641 153.355 33.6641 301.05C33.6641 304.588 33.7652 308.127 33.8662 311.665C39.5274 168.924 156.895 54.8923 301.051 54.8923Z" fill="white"/>
</g>
<defs>
<clipPath id="clip0_650_825">
<rect width="602" height="602" fill="white"/>
</clipPath>
</defs>
</svg>
