<svg width="48" height="48" viewBox="0 0 48 48" fill="none" xmlns="http://www.w3.org/2000/svg">
<path d="M8.43125 37.1094C10.925 35.3677 13.399 34.0318 15.8531 33.1016C18.3073 32.1714 20.9396 31.7063 23.75 31.7063C26.5604 31.7063 29.2026 32.1714 31.6766 33.1016C34.1505 34.0318 36.6344 35.3677 39.1281 37.1094C40.8698 34.9719 42.1068 32.8146 42.8391 30.6375C43.5714 28.4604 43.9375 26.1646 43.9375 23.75C43.9375 18.0104 42.0078 13.2109 38.1484 9.35156C34.2891 5.49219 29.4896 3.5625 23.75 3.5625C18.0104 3.5625 13.2109 5.49219 9.35156 9.35156C5.49219 13.2109 3.5625 18.0104 3.5625 23.75C3.5625 26.1646 3.93854 28.4604 4.69062 30.6375C5.44271 32.8146 6.68958 34.9719 8.43125 37.1094ZM23.75 25.5312C21.4542 25.5312 19.5245 24.7495 17.9609 23.1859C16.3974 21.6224 15.6156 19.6927 15.6156 17.3969C15.6156 15.101 16.3974 13.1714 17.9609 11.6078C19.5245 10.0443 21.4542 9.2625 23.75 9.2625C26.0458 9.2625 27.9755 10.0443 29.5391 11.6078C31.1026 13.1714 31.8844 15.101 31.8844 17.3969C31.8844 19.6927 31.1026 21.6224 29.5391 23.1859C27.9755 24.7495 26.0458 25.5312 23.75 25.5312ZM23.75 47.5C20.5042 47.5 17.4365 46.8766 14.5469 45.6297C11.6573 44.3828 9.13385 42.6807 6.97656 40.5234C4.81927 38.3661 3.11719 35.8427 1.87031 32.9531C0.623437 30.0635 0 26.9958 0 23.75C0 20.4646 0.623437 17.387 1.87031 14.5172C3.11719 11.6474 4.81927 9.13385 6.97656 6.97656C9.13385 4.81927 11.6573 3.11719 14.5469 1.87031C17.4365 0.623437 20.5042 0 23.75 0C27.0354 0 30.113 0.623437 32.9828 1.87031C35.8526 3.11719 38.3661 4.81927 40.5234 6.97656C42.6807 9.13385 44.3828 11.6474 45.6297 14.5172C46.8766 17.387 47.5 20.4646 47.5 23.75C47.5 26.9958 46.8766 30.0635 45.6297 32.9531C44.3828 35.8427 42.6807 38.3661 40.5234 40.5234C38.3661 42.6807 35.8526 44.3828 32.9828 45.6297C30.113 46.8766 27.0354 47.5 23.75 47.5ZM23.75 43.9375C25.9271 43.9375 28.0547 43.6208 30.1328 42.9875C32.2109 42.3542 34.2594 41.2458 36.2781 39.6625C34.2594 38.2375 32.201 37.149 30.1031 36.3969C28.0052 35.6448 25.8875 35.2687 23.75 35.2687C21.6125 35.2687 19.4948 35.6448 17.3969 36.3969C15.299 37.149 13.2406 38.2375 11.2219 39.6625C13.2406 41.2458 15.2891 42.3542 17.3672 42.9875C19.4453 43.6208 21.5729 43.9375 23.75 43.9375ZM23.75 21.9688C25.0958 21.9688 26.1943 21.5432 27.0453 20.6922C27.8964 19.8411 28.3219 18.7427 28.3219 17.3969C28.3219 16.051 27.8964 14.9526 27.0453 14.1016C26.1943 13.2505 25.0958 12.825 23.75 12.825C22.4042 12.825 21.3057 13.2505 20.4547 14.1016C19.6036 14.9526 19.1781 16.051 19.1781 17.3969C19.1781 18.7427 19.6036 19.8411 20.4547 20.6922C21.3057 21.5432 22.4042 21.9688 23.75 21.9688Z" fill="#252525"/>
</svg>
