<svg width="283" height="179" viewBox="0 0 283 179" fill="none" xmlns="http://www.w3.org/2000/svg">
<path d="M49.5902 105.12L38.7902 128.43H57.4202L49.5902 105.12ZM65.7902 153L60.1202 136.44H35.0102L26.9102 153.99L18.4502 151.56L45.4502 94.68H55.4402L75.3302 153H65.7902Z" fill="#252525"/>
<path d="M83.4421 153V108H91.9921V153H83.4421ZM112.602 153L92.8021 130.59L113.772 106.92L119.712 111.96L102.972 129.96L122.862 153H112.602Z" fill="#252525"/>
<path d="M124.469 160.56V152.73H179.819L178.289 160.56H124.469Z" fill="#252525"/>
<path d="M189.78 115.74V108H213L221.64 107.01V153H213V115.56L206.43 115.65L201.75 130.59C199.05 139.32 194.37 147.87 186.45 154.53L180.69 148.23C186.63 143.55 192.03 135 194.1 128.34L197.97 115.65L189.78 115.74Z" fill="#252525"/>
<path d="M239.411 140.49C239.411 144.18 241.751 146.52 246.251 146.52C250.121 146.52 253.721 144.81 255.611 143.37V131.13C248.051 131.85 239.411 134.37 239.411 140.49ZM236.351 116.37L236.441 108.27C236.441 108.27 241.211 106.83 246.521 106.83C258.671 106.83 264.251 113.13 264.251 125.1V153.45H262.721L256.601 150.3C253.811 152.37 249.311 154.17 244.721 154.17C235.991 154.17 230.771 149.4 230.771 141.66C230.771 130.23 242.831 125.73 255.611 124.83C255.521 118.08 251.651 114.84 245.621 114.84C241.031 114.84 236.351 116.37 236.351 116.37Z" fill="#252525"/>
<path d="M149.112 75.7129L151.698 66.0632L161.521 68.6954L158.935 78.345L149.112 75.7129ZM166.117 26.5074C163.161 25.7154 159.694 25.4387 157.265 25.8127L159.268 18.3364C161.547 17.829 165.037 18.0187 168.514 18.9504C179.729 21.9553 184.699 30.182 182.579 38.0929C179.178 50.7852 165.73 49.511 163.494 57.8566L162.538 61.4209L153.864 57.9785L154.679 54.9358C157.311 45.1123 171.288 46.1552 173.827 36.6795C175.015 32.2459 172.637 28.2544 166.117 26.5074Z" fill="#EB5757"/>
<path fill-rule="evenodd" clip-rule="evenodd" d="M55.4402 94.68H45.4502L18.4502 151.56L26.9102 153.99L35.0102 136.44H60.1202L65.7902 153H75.3302L55.4402 94.68ZM49.5902 105.12L38.7902 128.43H57.4202L49.5902 105.12ZM83.4421 153H91.9921V108H83.4421V153ZM73.8134 92.7891L72.4767 88.8697C69.9905 81.5801 63.1421 76.68 55.4402 76.68H45.4502C38.4995 76.68 32.1698 80.6819 29.1892 86.9612L2.18921 143.841C-0.0775182 148.616 -0.130716 154.147 2.04372 158.965C4.21817 163.783 8.40044 167.401 13.4809 168.86L21.9409 171.29C30.4796 173.743 39.5306 169.599 43.2535 161.533L46.5272 154.44H47.2574L48.7607 158.831C51.253 166.11 58.0963 171 65.7902 171H75.3302C76.7071 171 78.0639 170.842 79.3778 170.539C80.6839 170.841 82.0444 171 83.4421 171H91.9921C95.8255 171 99.379 169.802 102.298 167.759C104.486 169.286 106.991 170.311 109.632 170.753C112.877 175.469 118.312 178.56 124.469 178.56H178.289C184.074 178.56 189.314 175.808 192.631 171.44C194.552 170.738 196.383 169.696 198.035 168.307C198.917 167.565 199.768 166.808 200.59 166.038C203.819 169.113 208.189 171 213 171H221.64C224.577 171 227.349 170.297 229.798 169.049C234.632 171.29 239.824 172.17 244.721 172.17C248.807 172.17 252.763 171.468 256.39 170.3C258.409 171.058 260.553 171.45 262.721 171.45H264.251C274.193 171.45 282.251 163.391 282.251 153.45V125.1C282.251 116.645 280.305 106.786 273.001 99.0875C265.525 91.2076 255.542 88.83 246.521 88.83C242.346 88.83 238.616 89.3842 236.063 89.8792C234.747 90.1345 233.643 90.394 232.828 90.6016C232.418 90.706 232.076 90.7987 231.809 90.8732C231.676 90.9105 231.561 90.9434 231.466 90.9711C231.418 90.985 231.375 90.9976 231.337 91.0087L231.285 91.0245L231.261 91.0316L231.245 91.0365C231.244 91.0368 231.243 91.0371 231.522 91.9649C231.521 91.9642 231.52 91.9635 231.518 91.9628L231.239 91.0381C230.967 91.1203 230.698 91.2086 230.431 91.3028C227.164 89.4741 223.375 88.6933 219.591 89.127L211.972 90H189.78C179.839 90 171.78 98.0589 171.78 108V115.74C171.78 119.653 173.054 123.434 175.372 126.529C173.783 129.489 171.477 132.573 169.55 134.091C169.288 134.298 169.033 134.511 168.784 134.73H130.869L127.137 130.407L132.893 124.218C136.241 120.618 137.971 115.806 137.681 110.898C137.391 105.991 135.106 101.415 131.358 98.2348L125.418 93.1948C118.628 87.434 108.784 87.5694 102.172 93.1532C99.2769 91.1641 95.7705 90 91.9921 90H83.4421C79.9006 90 76.5979 91.0228 73.8134 92.7891ZM119.712 111.96L113.772 106.92L92.8021 130.59L112.602 153H122.862L102.972 129.96L119.712 111.96ZM124.469 152.73V160.56H178.289L179.819 152.73H124.469ZM213 153H221.64V107.01L213 108H189.78V115.74L197.97 115.65L194.1 128.34C193.571 130.041 192.825 131.866 191.908 133.718C191.255 135.038 190.514 136.373 189.703 137.686C188.002 140.444 185.991 143.109 183.829 145.36C182.899 146.328 181.941 147.22 180.966 148.009C180.874 148.084 180.782 148.157 180.69 148.23L186.45 154.53C186.612 154.394 186.772 154.257 186.931 154.12C187.728 153.43 188.491 152.722 189.222 151.996C191.43 149.801 193.344 147.446 195 144.981C195.203 144.678 195.403 144.374 195.598 144.068C196.394 142.825 197.126 141.556 197.799 140.267C199.421 137.165 200.704 133.949 201.714 130.706C201.718 130.693 201.722 130.679 201.726 130.666C201.734 130.641 201.742 130.615 201.75 130.59L206.43 115.65L213 115.56V153ZM239.64 107.521C237.698 107.891 236.441 108.27 236.441 108.27L236.351 116.37C236.351 116.37 237.271 116.069 238.695 115.735C238.989 115.665 239.306 115.595 239.64 115.525C240.982 115.244 242.613 114.978 244.294 114.88C244.735 114.854 245.178 114.84 245.621 114.84C245.927 114.84 246.227 114.848 246.521 114.865C248.644 114.985 250.467 115.54 251.911 116.543C253.009 117.306 253.889 118.328 254.515 119.614C254.985 120.581 255.311 121.697 255.48 122.965C255.558 123.554 255.603 124.175 255.611 124.83C255.413 124.844 255.214 124.859 255.016 124.875C254.242 124.936 253.471 125.011 252.707 125.1C250.485 125.359 248.313 125.737 246.251 126.254C246.04 126.307 245.83 126.361 245.621 126.417C243.715 126.927 241.911 127.559 240.261 128.329C240.261 128.329 240.261 128.329 240.261 128.329C240.052 128.427 239.844 128.527 239.64 128.629C239.476 128.711 239.313 128.795 239.153 128.88C236.614 130.221 234.505 131.928 233.038 134.062C232.039 135.515 231.338 137.165 231 139.033C230.915 139.504 230.853 139.99 230.815 140.49C230.786 140.872 230.771 141.262 230.771 141.66C230.771 142.601 230.849 143.499 231 144.349C231.73 148.453 234.188 151.458 238.028 153C238.538 153.205 239.073 153.384 239.632 153.537C241.158 153.953 242.86 154.17 244.721 154.17C245.233 154.17 245.744 154.148 246.251 154.105C247.505 154 248.737 153.771 249.916 153.45C252.538 152.736 254.891 151.569 256.601 150.3L262.721 153.45H264.251V125.1C264.251 124.971 264.251 124.843 264.25 124.715C264.207 120.519 263.463 117.036 261.975 114.292C260.357 111.311 257.86 109.203 254.427 108.005C253.393 107.644 252.274 107.365 251.068 107.17C249.67 106.944 248.155 106.83 246.521 106.83C246.219 106.83 245.919 106.835 245.621 106.843C243.371 106.91 241.266 107.212 239.64 107.521ZM239.64 138.831C239.49 139.352 239.411 139.905 239.411 140.49C239.411 140.897 239.44 141.287 239.497 141.66C239.533 141.899 239.581 142.13 239.64 142.354C239.735 142.713 239.86 143.052 240.014 143.37C240.811 145.016 242.392 146.099 244.721 146.42C245.2 146.486 245.71 146.52 246.251 146.52C248.615 146.52 250.878 145.882 252.712 145.058C253.881 144.532 254.876 143.931 255.611 143.37V131.13C254.783 131.209 253.942 131.309 253.1 131.434C251.175 131.719 249.25 132.129 247.476 132.693C247.059 132.825 246.65 132.967 246.251 133.117C242.973 134.352 240.399 136.188 239.64 138.831ZM144.453 93.0995C134.851 90.5266 129.152 80.6565 131.725 71.0541L134.311 61.4045C134.678 60.0337 135.203 58.723 135.868 57.495C135.905 56.1102 136.105 54.7103 136.477 53.3197L137.292 50.2771C138.677 45.1097 141.263 41.129 144.105 38.0933C144.023 38.0057 143.942 37.9172 143.862 37.8278C139.803 33.2996 138.304 27.028 139.878 21.1539L141.882 13.6776C143.617 7.19991 148.81 2.22419 155.356 0.766669C161.384 -0.575589 167.974 0.170628 173.173 1.56374C182.056 3.944 190.068 8.84654 195.324 16.4044C200.686 24.1135 202.417 33.6017 199.966 42.7517C196.322 56.3506 186.611 62.3457 181.493 65.2541C180.718 65.6945 180.272 65.9417 179.908 66.1423C179.784 66.5978 179.643 67.0466 179.485 67.4876C179.615 69.4111 179.434 71.3882 178.908 73.3542L176.322 83.0038C175.087 87.615 172.07 91.5465 167.935 93.9335C163.801 96.3204 158.888 96.9673 154.277 95.7317L144.453 93.0995ZM168.362 52.0439C169.294 51.4493 170.299 50.8897 171.333 50.3144C175.573 47.9555 180.285 45.3331 182.326 38.9567C182.415 38.6762 182.5 38.3883 182.579 38.0929C184.699 30.182 179.729 21.9553 168.514 18.9504C168.398 18.9193 168.282 18.889 168.166 18.8595C164.805 18.0068 161.471 17.8459 159.268 18.3364L157.265 25.8127C158.324 25.6497 159.579 25.6103 160.904 25.6833C162.619 25.7777 164.449 26.0605 166.117 26.5074C166.234 26.5387 166.349 26.5708 166.464 26.6035C169.066 27.3496 170.978 28.4646 172.242 29.8257C173.81 31.5155 174.376 33.5848 174.017 35.7986C173.969 36.0899 173.906 36.3837 173.827 36.6795C172.882 40.2057 170.353 42.2753 167.414 43.9903C166.44 44.5588 165.421 45.0884 164.4 45.6191C162.307 46.7063 160.205 47.7984 158.462 49.2407C157.768 49.8142 157.131 50.4431 156.574 51.1491C155.739 52.2073 155.083 53.4386 154.684 54.9162C154.683 54.9227 154.681 54.9293 154.679 54.9358L153.864 57.9785L162.538 61.4209L163.494 57.8566C163.541 57.6801 163.593 57.5078 163.65 57.3396C164.009 56.2847 164.557 55.3904 165.245 54.6016C165.27 54.5729 165.295 54.5442 165.32 54.5158C166.162 53.5735 167.205 52.7817 168.362 52.0439ZM161.521 68.6954L158.935 78.345L149.112 75.7129L151.698 66.0632L161.521 68.6954Z" fill="white"/>
</svg>
