<svg width="365" height="103" viewBox="0 0 365 103" fill="none" xmlns="http://www.w3.org/2000/svg">
<g clip-path="url(#clip0_660_532)" filter="url(#filter0_dd_660_532)">
<g opacity="0.3">
<path d="M54.2673 73.8848C54.2673 73.7995 54.1819 73.7995 54.0966 73.7995C54.0966 73.8848 54.0966 73.9702 54.0966 74.0555L54.0112 73.9702C49.5734 69.1056 38.7349 72.9461 35.5772 73.0314C34.9798 73.0314 34.7238 72.7754 34.9798 72.2633C43.6848 55.8775 50.0001 35.7366 47.5252 22.6792C47.5252 22.5085 47.4398 22.3378 47.4398 22.1671C47.4398 22.0818 47.4398 22.0818 47.4398 21.9964C47.4398 21.9111 47.4398 21.8257 47.3545 21.8257C47.4398 21.7404 47.4398 21.655 47.5252 21.5697C49.4881 18.7534 51.707 16.6198 49.6588 15.2543C49.4881 15.0837 49.232 14.9983 48.976 14.8276C48.8053 14.7423 48.6346 14.6569 48.464 14.6569C48.2933 14.5716 48.1226 14.5716 47.9519 14.4862C47.0131 14.2302 45.9037 14.0595 44.7942 13.9742C44.7089 13.9742 44.7089 13.9742 44.6235 13.9742C44.4528 13.9742 44.3675 13.9742 44.1968 13.9742C44.1115 13.9742 43.9408 13.9742 43.8554 13.9742H43.7701C42.6606 13.0354 41.3805 11.6699 39.759 10.9019C40.1857 11.1579 41.0391 11.7553 41.8926 12.6941C40.8684 11.8406 39.5883 11.1579 38.2228 10.5605C38.2228 10.4751 38.2228 10.4751 38.2228 10.3898C38.2228 10.3045 38.1375 10.1338 38.1375 10.0484C38.0521 9.87774 38.0521 9.7924 37.9668 9.62171C37.9668 9.53637 37.8814 9.45103 37.8814 9.36568C37.7961 9.195 37.7108 9.02431 37.7108 8.85363C37.7108 8.76828 37.6254 8.68294 37.6254 8.5976C37.5401 8.42691 37.4547 8.25623 37.3694 8.08554C37.284 8.0002 37.284 7.91486 37.284 7.82951C37.1987 7.65883 37.1134 7.48814 36.9427 7.23211C36.9427 7.23211 36.9427 7.14677 36.8573 7.14677C36.772 6.97608 36.6013 6.8054 36.516 6.54937C35.9186 5.78129 35.3212 5.09854 34.8091 4.67183C32.7609 3.221 31.5661 6.12266 29.6032 8.93897L29.5179 9.02431C21.581 9.62171 7.41407 17.6439 9.29161 33.5177C10.3157 42.564 17.6552 43.4175 22.5197 39.9184C25.9335 37.5288 28.6644 33.603 30.1153 32.4936C30.1153 32.4936 30.1153 32.4936 30.2006 32.4936C30.2859 32.4936 30.2859 32.4082 30.3713 32.4082H30.4566C30.542 32.4082 30.542 32.4082 30.542 32.3229C30.542 32.3229 30.542 32.3229 30.6273 32.3229H30.7127C30.7127 32.3229 30.7127 32.3229 30.798 32.3229C30.8833 32.3229 30.8833 32.3229 30.9687 32.3229C30.9687 32.3229 31.054 32.3229 31.054 32.4082L31.1394 32.4936V32.5789C31.1394 32.5789 31.1394 32.6643 31.2247 32.7496V32.8349C31.2247 32.9203 31.2247 33.0056 31.3101 33.0056V33.091C31.3101 33.1763 31.3101 33.347 31.3101 33.4324L31.1394 33.5177C31.1394 33.603 30.9687 33.6884 30.9687 33.8591C30.9687 33.9444 30.9687 33.9444 30.9687 34.0298C30.9687 34.1151 31.1394 34.2858 31.1394 34.3711C31.1394 34.4565 31.2247 34.5418 31.2247 34.5418C31.2247 34.6271 31.2247 34.7978 31.2247 34.9685C31.2247 35.0539 31.2247 35.1392 31.2247 35.1392C31.2247 35.3952 31.2247 35.5659 31.1394 35.8219C30.1153 47.0872 22.2637 58.8645 16.8018 67.9108C13.0467 74.1409 5.2805 87.2836 15.0096 91.9775C21.0689 94.8792 28.7498 95.1352 35.4065 95.1352C35.9186 95.1352 36.3453 95.1352 36.8573 95.1352C37.1134 95.1352 37.4547 95.1352 37.7108 95.1352C38.0521 95.1352 38.3082 95.1352 38.6495 95.1352C43.3434 95.1352 48.72 95.0498 52.3044 91.9775C55.1207 89.5879 57.5956 77.5546 54.2673 73.8848Z" fill="#736357"/>
<path d="M39.418 10.8166C39.418 10.8166 39.5033 10.8166 39.5033 10.9019L39.418 10.8166Z" fill="#736357"/>
</g>
<path d="M48.976 69.6179C52.3044 73.2023 49.8295 85.321 47.0985 87.6253C43.002 91.1243 36.6013 90.7829 31.6514 90.7829C24.6533 90.7829 16.3751 90.6976 9.97437 87.6253C0.245297 83.0168 7.92615 69.874 11.6812 63.6439C17.1432 54.5976 24.9947 42.8203 26.1042 31.6404C26.9576 23.1915 23.1172 31.7257 17.3992 35.7368C12.4493 39.1506 5.28052 38.2971 4.17107 29.3361C2.29352 13.121 16.9725 5.09879 24.824 4.9281C51.963 4.16002 44.0261 41.1134 29.7739 67.9111C28.1524 71.0688 43.4287 63.6439 48.976 69.6179Z" fill="#85C794"/>
<path opacity="0.3" d="M49.1462 69.6176C49.1462 69.5323 49.0608 69.5323 48.9755 69.5323C48.8048 74.1408 49.4876 84.2966 37.9663 84.7233C5.8774 85.9181 6.21877 79.5174 5.53603 78.664C5.10931 82.419 6.13343 85.7474 10.1445 87.7103C16.5452 90.7826 24.8235 90.9533 31.8216 90.868C36.8568 90.868 43.1722 91.2094 47.2687 87.7103C49.9996 85.3207 52.4746 73.2874 49.1462 69.6176Z" fill="#85C794"/>
<path opacity="0.3" d="M24.9944 28.3117C26.0185 27.5437 26.4453 28.1411 26.1039 31.6401C26.0185 32.3229 25.9332 33.0056 25.8479 33.6883C28.7495 30.2746 32.6753 26.0075 34.2115 20.1188C29.6883 23.5325 23.9703 29.0798 24.9944 28.3117Z" fill="#85C794"/>
<path opacity="0.3" d="M34.2979 6.54938C34.2979 6.54938 34.3832 6.54938 34.3832 6.63472L34.2979 6.54938Z" fill="#85C794"/>
<path opacity="0.3" d="M29.9447 67.9108C38.6497 51.525 44.965 31.3841 42.4901 18.3267C42.4901 18.156 42.4047 17.9853 42.4047 17.8146C42.4047 17.7293 42.4047 17.7293 42.4047 17.6439C42.3194 17.1319 42.1487 16.6198 41.978 16.1077C41.8073 15.5957 41.6367 15.0836 41.466 14.6569C41.466 14.6569 41.466 14.5716 41.3806 14.5716C41.2099 14.0595 40.9539 13.6328 40.7832 13.2061C40.7832 13.2061 40.7832 13.1207 40.6979 13.1207C40.4419 12.694 40.2712 12.2673 40.0151 11.8406V11.4992C39.8445 11.1579 39.5884 11.0725 39.4177 10.2191C38.2229 9.36567 36.6868 7.57347 34.8092 6.6347C35.5773 7.06141 37.1988 8.34155 38.5643 10.7311V10.8165C38.479 10.8165 38.3083 10.9018 38.2229 10.9018C38.1376 10.9018 38.0523 10.9872 37.8816 10.9872C37.7109 10.9872 37.6255 11.0725 37.4549 11.0725C37.3695 11.0725 37.2842 11.1579 37.1988 11.1579C37.1135 11.1579 37.1135 11.1579 37.0281 11.1579C36.8575 10.4751 36.0894 10.2191 35.4066 9.70704C34.6385 9.19498 34.2972 8.51224 33.5291 8.76827C33.5291 8.68292 33.5291 8.51224 33.5291 8.42689C33.5291 8.34155 33.5291 8.17087 33.4437 8.08552C33.4437 8.00018 33.4437 7.8295 33.3584 7.74415C33.3584 7.57347 33.2731 7.48812 33.2731 7.31744C33.1024 7.06141 33.017 6.97607 33.017 6.80538C32.9317 6.6347 32.9317 6.54935 32.8463 6.37867C32.8463 6.29333 32.761 6.20798 32.761 6.12264C32.761 6.0373 32.6757 5.95195 32.6757 5.95195C30.5421 5.18387 28.0671 4.8425 25.2508 4.92784C24.9948 5.26921 24.8241 5.61058 24.5681 5.95195C23.6293 7.31744 22.5199 8.42689 22.5199 9.36567C22.5199 9.45101 22.4345 9.62169 22.3492 9.70704C22.3492 9.79238 22.2638 9.96307 22.2638 10.0484C22.2638 10.1338 22.2638 10.2191 22.2638 10.3898C22.2638 10.4751 22.2638 10.5605 22.3492 10.6458C22.3492 10.6458 22.3492 10.6458 22.3492 10.7311C22.3492 10.8165 22.4345 10.9018 22.4345 10.9872V11.0725C22.4345 11.1579 22.5199 11.2432 22.6052 11.3285C22.6052 11.3285 22.6052 11.4139 22.6906 11.4139C22.7759 11.4992 22.8612 11.5846 22.8612 11.6699C22.8612 11.6699 22.8612 11.7553 22.9466 11.7553C23.0319 11.8406 23.2026 11.9259 23.288 12.0113C24.7388 13.0354 27.7258 13.8035 30.1154 13.2061C30.3714 13.8035 31.2248 13.9742 31.9076 14.4862C32.6757 14.9983 33.017 15.7664 33.7851 15.5957C34.0411 18.0706 35.9187 20.8016 37.3695 21.8257C37.4549 21.9111 37.6255 21.9964 37.7109 22.0817C37.7962 22.0817 37.7962 22.1671 37.8816 22.1671C37.9669 22.1671 37.9669 22.2524 38.0523 22.2524C38.1376 22.2524 38.2229 22.2524 38.3083 22.3378H38.3936C38.479 22.3378 38.5643 22.3378 38.6497 22.3378H38.735C38.8203 22.3378 38.9057 22.3378 38.991 22.3378C38.991 22.3378 38.991 22.3378 39.0764 22.3378C39.1617 22.3378 39.2471 22.2524 39.3324 22.2524C39.4177 22.2524 39.5031 22.1671 39.5884 22.0817C40.0151 21.8257 40.4419 21.399 40.8686 20.8869C40.9539 30.2746 36.8575 45.7217 22.0078 70.6418C22.8612 73.4581 33.9558 68.7642 34.4679 68.3375C31.3102 68.7642 29.3473 69.191 29.9447 67.9108Z" fill="#85C794"/>
<path d="M24.4824 15.9371C24.4824 15.9371 25.6772 16.1078 26.7013 14.8276" stroke="black" stroke-width="0.853428" stroke-miterlimit="10" stroke-linecap="round" stroke-linejoin="round"/>
<path d="M24.6533 16.6198C24.6533 16.6198 25.9335 17.2172 27.555 16.3638" stroke="black" stroke-width="0.853428" stroke-miterlimit="10" stroke-linecap="round" stroke-linejoin="round"/>
<path d="M25.7628 17.6439C26.1895 19.6068 24.824 21.5696 22.8611 21.9964C20.8982 22.4231 18.9353 21.0576 18.594 19.0947C18.1673 17.1318 19.5327 15.1689 21.4956 14.7422C23.4585 14.3155 25.4214 15.5956 25.7628 17.6439Z" fill="white"/>
<path d="M23.5436 17.7292C23.7996 18.924 22.9462 20.1188 21.666 20.3748C20.3859 20.6309 19.1911 19.8628 18.9351 18.5826C18.679 17.3878 19.5325 16.193 20.8126 15.937C22.0928 15.7663 23.2876 16.5344 23.5436 17.7292Z" fill="#406148"/>
<path d="M13.8993 12.8647C13.8993 12.8647 13.1312 12.1819 13.3872 10.9018" stroke="black" stroke-width="0.853428" stroke-miterlimit="10" stroke-linecap="round" stroke-linejoin="round"/>
<path d="M13.4729 13.1207C13.4729 13.1207 12.4488 12.6939 12.1074 11.1578" stroke="black" stroke-width="0.853428" stroke-miterlimit="10" stroke-linecap="round" stroke-linejoin="round"/>
<path d="M17.4837 14.3155C17.7397 15.681 16.8863 17.0465 15.4355 17.3025C14.07 17.5586 12.7045 16.7051 12.4485 15.2543C12.1924 13.8888 13.0459 12.5233 14.4967 12.2673C15.8622 12.0966 17.2276 12.9501 17.4837 14.3155Z" fill="white"/>
<path d="M15.4357 14.4009C15.6064 15.169 15.0944 15.8518 14.3263 16.0224C13.5582 16.1931 12.7901 15.6811 12.7048 14.913C12.5341 14.1449 13.0461 13.4622 13.8142 13.2915C14.5823 13.2061 15.3504 13.7182 15.4357 14.4009Z" fill="#406148"/>
<path d="M32.7614 10.3045C30.7985 13.1208 25.3366 12.182 23.2883 10.7312C21.2401 9.28036 22.6056 7.5735 24.5685 4.75719C26.5314 1.94088 27.7262 -0.875435 29.7744 0.490049C31.7373 1.94088 34.7243 7.48816 32.7614 10.3045Z" fill="#FF3D70"/>
<g opacity="0.5">
<path d="M29.7742 0.575378C30.7984 2.70895 31.3104 5.26923 30.201 6.89075C28.6648 9.10966 24.9097 8.93897 22.4348 8.17089C22.008 9.195 22.1787 10.0484 23.2882 10.7312C25.3364 12.182 30.8837 13.1208 32.7612 10.3045C34.7241 7.57349 31.8225 2.11155 29.7742 0.575378Z" fill="#FF3D70"/>
</g>
<path d="M34.3827 11.4139C32.4198 14.2302 35.2362 19.0094 37.3697 20.4603C39.4179 21.9111 40.6127 20.0335 42.4903 17.2172C44.4532 14.4009 46.6721 12.2673 44.6239 10.9019C42.4903 9.45103 36.2603 8.59761 34.3827 11.4139Z" fill="#FF3D70"/>
<g opacity="0.5">
<path d="M37.7964 12.2673C38.9059 10.6458 41.5515 10.2191 43.9411 10.4751C41.3808 9.28033 36.1749 8.85362 34.3827 11.4139C32.4198 14.2302 35.2362 19.0094 37.3697 20.4602C38.3085 21.143 39.1619 21.0576 39.8447 20.5456C37.9671 18.5827 36.0896 14.6569 37.7964 12.2673Z" fill="#FF3D70"/>
</g>
<path d="M35.7473 12.3528C33.3577 15.5958 33.1016 14.0596 31.8215 13.2062C30.6267 12.3528 28.6638 12.3528 31.2241 9.28042C33.699 6.37876 33.8697 7.57356 35.1499 8.42699C36.43 9.19507 37.9662 9.36576 35.7473 12.3528Z" fill="#FF3D70"/>
<g opacity="0.3">
<path d="M33.6141 11.4994C32.4193 10.6459 30.5418 10.6459 32.9314 7.65894C32.5046 7.91496 31.9926 8.42702 31.3098 9.19511C28.7496 12.2674 30.6271 12.2674 31.9072 13.1209C33.102 13.9743 33.4434 15.4251 35.6623 12.3528C34.8089 12.8648 34.3822 12.0968 33.6141 11.4994Z" fill="#FF3D70"/>
</g>
<path opacity="0.3" d="M203.489 62.6939C203.489 62.6085 203.489 62.4378 203.489 62.3525C203.489 62.0111 203.489 61.7551 203.489 61.4137C203.489 61.3284 203.489 61.1577 203.489 61.0723C203.489 60.8163 203.489 60.4749 203.404 60.2189C203.404 60.1336 203.404 59.9629 203.404 59.8775C203.404 59.5362 203.319 59.1948 203.319 58.9388C203.319 58.8534 203.319 58.7681 203.319 58.6827C203.233 58.3414 203.233 57.9147 203.148 57.5733C203.148 57.5733 203.063 57.4879 202.977 57.4879C202.721 56.2078 202.721 54.9277 201.868 53.6475V53.8182H201.953C201.1 51.2579 199.99 48.8683 198.454 46.6494C194.187 40.4194 185.738 41.3582 180.617 36.835C180.361 36.6643 180.191 36.4083 179.935 36.1523C180.532 35.6402 180.873 34.7014 180.703 33.6773C180.703 33.4213 180.617 33.2506 180.532 33.0799C180.532 32.9946 180.447 32.9946 180.447 32.9092C180.361 32.8239 180.361 32.7385 180.276 32.6532C180.276 32.5679 180.191 32.5679 180.191 32.4825C180.105 32.3972 180.02 32.3118 180.02 32.2265C179.423 31.7144 178.654 31.7144 177.972 32.0558C177.801 30.7757 178.057 29.5809 179.508 29.4102C185.055 29.0688 198.027 33.4213 200.161 23.8629C200.588 21.9 200.844 18.657 200.161 15.4993C200.246 15.414 200.246 15.3286 200.332 15.2433L200.161 15.414C199.563 12.427 198.113 9.69598 195.126 8.67187C192.48 7.7331 183.86 6.28227 172.254 7.1357C167.901 7.47707 164.402 6.79433 162.098 13.6218C161.159 16.3527 160.05 22.5827 159.452 29.4102C158.343 29.6662 157.404 30.605 157.404 32.0558C157.404 32.1411 157.404 32.2265 157.489 32.2265C157.489 32.3972 157.575 32.5679 157.66 32.7385C158.002 33.5066 158.428 33.9333 159.026 34.0187C158.94 37.4324 159.111 40.7608 159.111 43.8331C159.111 44.2598 159.111 44.6865 159.964 45.1132C159.964 45.54 159.879 45.9667 159.964 46.308H159.879C159.964 46.7348 159.964 47.0761 160.05 47.4175V47.5028C160.135 47.8442 160.22 48.1856 160.22 48.527C160.22 48.6123 160.22 48.6976 160.306 48.6976C160.391 48.9537 160.476 49.295 160.562 49.5511C160.562 49.6364 160.647 49.7218 160.647 49.8924C160.733 50.1485 160.818 50.4045 160.903 50.5752C160.989 50.7459 160.989 50.9166 161.074 51.0019C161.159 51.1726 161.159 51.3433 161.245 51.514C161.415 51.8553 161.501 52.1114 161.671 52.3674C163.549 55.9518 167.475 54.5863 170.547 54.3303C173.363 54.1596 178.313 55.4397 181.556 57.8293C181.727 58 181.898 58.0853 182.068 58.256C182.41 58.5974 182.751 58.8534 183.092 59.2801C183.178 59.4508 183.348 59.5362 183.434 59.7069C184.543 61.0723 185.226 62.7792 185.141 64.6567C185.055 67.4731 183.348 70.204 180.532 70.46C175.326 70.8014 168.669 64.0593 163.463 66.5343C160.22 68.0704 155.697 74.9832 155.697 80.2745C155.697 80.2745 155.697 80.2745 155.697 80.3598C155.697 80.9572 155.868 81.5546 156.039 82.152L156.124 82.2374C156.209 82.4934 156.295 82.6641 156.38 82.9201C156.38 83.0054 156.465 83.0054 156.465 83.0908C156.551 83.3468 156.636 83.6028 156.807 83.7735L156.892 83.8589C156.977 84.0295 157.148 84.2002 157.233 84.3709C157.233 84.4563 157.319 84.4563 157.404 84.5416C157.575 84.7123 157.745 84.9683 157.916 85.139C166.963 93.0759 182.068 95.2948 191.712 87.5286C198.795 81.8106 203.319 73.2764 203.575 63.6326C203.489 63.5473 203.489 63.1206 203.489 62.6939Z" fill="#736357"/>
<path d="M198.368 59.7071C198.112 69.3508 193.589 77.8851 186.505 83.6031C176.862 91.3692 161.756 89.1503 152.71 81.2135C147.674 76.7756 153.99 64.7423 158.428 62.6087C163.634 60.1338 170.12 66.8759 175.326 66.5345C178.142 66.3638 179.849 63.6328 179.934 60.7312C180.19 53.4771 170.034 50.0633 165.34 50.4047C162.268 50.5754 158.342 52.0262 156.465 48.4418C151.686 39.3102 154.843 15.5849 156.892 9.44017C159.196 2.61275 162.695 3.29549 167.047 2.95412C178.654 2.10069 187.359 3.55152 189.919 4.49029C195.893 6.62386 195.722 15.8409 194.954 19.6813C192.821 29.2397 179.934 24.8019 174.301 25.2286C171.485 25.3993 172.936 29.5811 173.96 30.9466C178.739 37.4326 188.554 35.4697 193.333 42.3825C196.917 47.5884 198.539 53.6477 198.368 59.7071Z" fill="#FF3D70"/>
<g opacity="0.5">
<path d="M154.245 39.5662C154.586 43.0652 155.269 46.1376 156.464 48.3565C158.342 51.9409 162.267 50.5754 165.34 50.3194C168.839 50.0633 175.581 52.1116 178.226 55.696C168.924 37.6033 158.939 56.9761 154.245 39.5662Z" fill="#FF3D70"/>
<path d="M196.831 49.2953C196.916 50.4901 197.002 51.6849 196.916 52.8797C196.66 62.6088 192.137 71.2284 185.054 77.0317C175.41 84.8832 160.304 82.579 151.258 74.5568C151.172 74.4714 151.087 74.3861 151.002 74.3007C150.49 77.0317 150.831 79.592 152.709 81.1281C161.755 89.065 176.861 91.2839 186.504 83.5177C193.588 77.7998 198.111 69.2655 198.367 59.6218C198.452 56.2081 197.94 52.709 196.831 49.2953Z" fill="#FF3D70"/>
<path opacity="0.5" d="M173.874 30.7759C173.617 30.4345 173.276 29.8371 173.105 29.2397C172.337 29.4104 171.655 30.0078 171.313 30.8612C171.228 30.7759 171.228 30.6905 171.143 30.6052C170.204 29.069 167.985 29.8371 167.387 31.3733C167.387 31.2879 167.387 31.2026 167.302 31.1172C166.875 29.4957 164.827 29.4104 163.718 30.4345C163.718 30.3492 163.718 30.2638 163.632 30.2638C163.632 30.1785 163.547 30.0931 163.547 30.0078C162.864 28.813 161.157 28.8983 160.133 29.8371C159.707 28.2156 157.658 28.1302 156.549 29.1544C156.549 28.9837 156.549 28.8983 156.549 28.7276C156.549 28.6423 156.549 28.557 156.549 28.557C156.549 28.4716 156.464 28.3863 156.464 28.3009C156.208 27.1061 155.098 26.7648 154.074 27.0208C153.989 28.557 153.903 30.0078 153.903 31.544C154.586 31.6293 155.354 31.2879 155.866 30.6905C155.866 30.7759 155.866 30.8612 155.866 30.8612C155.866 30.8612 155.866 31.1172 155.866 31.2026C155.866 31.3733 155.952 31.6293 156.037 31.8C156.634 33.5068 158.512 33.4215 159.536 32.312C159.536 32.3974 159.621 32.4827 159.621 32.5681C160.219 34.2749 162.096 34.1896 163.12 32.9948C163.12 33.0801 163.206 33.1655 163.206 33.2508C163.974 35.299 166.619 34.787 167.302 32.7388C167.387 32.9948 167.473 33.2508 167.558 33.5068C167.644 33.6775 167.729 33.8482 167.9 33.9336C169.094 35.3844 171.057 34.531 171.484 32.9094C171.569 33.0801 171.655 33.2508 171.825 33.4215C173.02 34.8723 174.812 34.1042 175.324 32.5681C174.812 31.9707 174.3 31.4586 173.874 30.7759Z" fill="#FF3D70"/>
</g>
<path d="M181.726 12.3418C181.726 12.3418 180.531 12.1711 179.849 10.6349" stroke="black" stroke-width="0.853428" stroke-miterlimit="10" stroke-linecap="round" stroke-linejoin="round"/>
<path d="M181.384 12.9392C181.384 12.9392 180.019 13.1952 178.653 11.9151" stroke="black" stroke-width="0.853428" stroke-miterlimit="10" stroke-linecap="round" stroke-linejoin="round"/>
<path d="M180.104 13.622C179.165 15.4142 179.933 17.6331 181.725 18.5718C183.518 19.5106 185.737 18.7425 186.675 16.865C187.614 15.0728 186.846 12.8539 185.054 11.9151C183.176 11.0617 180.957 11.8298 180.104 13.622Z" fill="white"/>
<path d="M182.152 14.3901C181.639 15.4995 182.066 16.865 183.261 17.4624C184.37 18.0598 185.821 17.5478 186.333 16.4383C186.845 15.3288 186.419 13.9634 185.224 13.366C184.114 12.7686 182.749 13.2806 182.152 14.3901Z" fill="#8C213E"/>
<path d="M192.735 12.1712C192.735 12.1712 193.674 11.7445 193.759 10.379" stroke="black" stroke-width="0.853428" stroke-miterlimit="10" stroke-linecap="round" stroke-linejoin="round"/>
<path d="M193.162 12.5125C193.162 12.5125 194.272 12.3419 195.04 10.9764" stroke="black" stroke-width="0.853428" stroke-miterlimit="10" stroke-linecap="round" stroke-linejoin="round"/>
<path d="M188.979 12.6832C188.381 13.9634 188.894 15.4995 190.174 16.0969C191.454 16.6943 192.99 16.1823 193.587 14.9021C194.185 13.622 193.673 12.0858 192.393 11.4884C191.112 10.891 189.576 11.4031 188.979 12.6832Z" fill="white"/>
<path d="M190.856 13.2807C190.515 13.9634 190.771 14.8168 191.539 15.1582C192.222 15.4996 193.075 15.2435 193.417 14.5608C193.758 13.8781 193.502 13.0246 192.734 12.6833C192.051 12.3419 191.198 12.5979 190.856 13.2807Z" fill="#8C213E"/>
<path d="M156.549 27.5328C157.147 23.5217 151.002 24.8018 152.368 28.4716C153.221 30.6051 156.208 29.9224 156.549 27.5328Z" fill="#FFC4C4"/>
<g opacity="0.5">
<path d="M156.293 26.5087C155.952 28.813 153.136 29.5811 152.282 27.7035C152.282 27.9595 152.368 28.2156 152.453 28.4716C153.306 30.6905 156.208 29.9224 156.635 27.5328C156.72 26.8501 156.635 26.2527 156.379 25.9113C156.293 26.082 156.293 26.338 156.293 26.5087Z" fill="#FFC4C4"/>
</g>
<path opacity="0.5" d="M154.245 26.4233C155.525 25.6553 154.16 24.8018 153.306 25.8259C152.794 26.5087 153.477 26.8501 154.245 26.4233Z" fill="white"/>
<path d="M160.219 29.069C160.817 25.0579 154.672 26.338 156.037 30.0077C156.891 32.2267 159.878 31.4586 160.219 29.069Z" fill="#FFC4C4"/>
<g opacity="0.5">
<path d="M159.963 28.1302C159.622 30.4344 156.806 31.2025 155.952 29.325C155.952 29.581 156.037 29.837 156.123 30.0931C156.976 32.312 159.878 31.5439 160.305 29.1543C160.39 28.4715 160.305 27.8741 160.049 27.5328C159.963 27.6181 159.963 27.8741 159.963 28.1302Z" fill="#FFC4C4"/>
</g>
<path opacity="0.5" d="M157.915 28.045C159.195 27.2769 157.83 26.4235 156.976 27.4476C156.464 28.045 157.147 28.4717 157.915 28.045Z" fill="white"/>
<path d="M163.804 29.837C164.402 25.8259 158.257 27.1061 159.622 30.7758C160.476 32.9094 163.463 32.1413 163.804 29.837Z" fill="#FFC4C4"/>
<g opacity="0.5">
<path d="M163.548 28.8129C163.207 31.1172 160.391 31.8853 159.537 30.0077C159.537 30.2637 159.622 30.5198 159.708 30.7758C160.561 32.9947 163.463 32.2266 163.89 29.837C163.975 29.1543 163.89 28.5569 163.634 28.2155C163.548 28.3862 163.548 28.5569 163.548 28.8129Z" fill="#FFC4C4"/>
</g>
<path opacity="0.5" d="M161.5 28.7276C162.78 27.9595 161.415 27.1061 160.561 28.1302C160.049 28.8129 160.732 29.1543 161.5 28.7276Z" fill="white"/>
<path d="M171.571 29.9224C170.888 25.9113 165.426 29.069 167.901 32.1413C169.437 33.9335 171.997 32.2267 171.571 29.9224Z" fill="#FFC4C4"/>
<g opacity="0.5">
<path d="M170.974 29.069C171.4 31.3732 169.011 32.9947 167.475 31.4586C167.56 31.7146 167.731 31.8853 167.901 32.1413C169.352 33.9335 171.912 32.312 171.571 29.9224C171.486 29.2396 171.144 28.7276 170.803 28.4716C170.888 28.6422 170.974 28.8129 170.974 29.069Z" fill="#FFC4C4"/>
</g>
<path opacity="0.5" d="M169.011 29.581C169.949 28.4715 168.413 28.0448 167.901 29.325C167.645 30.093 168.413 30.2637 169.011 29.581Z" fill="white"/>
<path d="M175.496 29.325C174.813 25.3139 169.351 28.4716 171.826 31.5439C173.277 33.3361 175.922 31.7146 175.496 29.325Z" fill="#FFC4C4"/>
<g opacity="0.5">
<path d="M174.897 28.5569C175.324 30.8612 172.935 32.4827 171.398 30.9465C171.484 31.2026 171.654 31.3732 171.825 31.6293C173.276 33.4215 175.836 31.8 175.495 29.4104C175.41 28.7276 175.068 28.2156 174.727 27.9595C174.812 28.0449 174.897 28.3009 174.897 28.5569Z" fill="#FFC4C4"/>
</g>
<path opacity="0.5" d="M172.935 29.069C173.874 27.9595 172.338 27.5328 171.826 28.8129C171.57 29.581 172.338 29.7517 172.935 29.069Z" fill="white"/>
<path d="M167.389 30.5198C167.987 26.5087 161.842 27.7888 163.207 31.4586C164.061 33.5921 167.048 32.9094 167.389 30.5198Z" fill="#FFC4C4"/>
<g opacity="0.5">
<path d="M167.133 29.4957C166.792 31.8 163.975 32.5681 163.122 30.6905C163.122 30.9465 163.207 31.2026 163.293 31.4586C164.146 33.6775 167.048 32.9094 167.475 30.5198C167.56 29.8371 167.475 29.2397 167.219 28.8983C167.219 29.069 167.133 29.325 167.133 29.4957Z" fill="#FFC4C4"/>
</g>
<path opacity="0.5" d="M165.085 29.4103C166.365 28.6423 165 27.7888 164.146 28.8129C163.634 29.4957 164.317 29.8371 165.085 29.4103Z" fill="white"/>
<path opacity="0.3" d="M129.561 54.3483C129.646 54.1776 129.817 54.007 129.902 53.8363C129.987 53.7509 129.987 53.5802 130.073 53.4949C130.158 53.3242 130.243 53.1535 130.329 52.9828C130.414 52.8122 130.414 52.7268 130.499 52.5561C130.585 52.3854 130.585 52.2148 130.67 52.0441C130.67 51.8734 130.755 51.7027 130.755 51.532C130.755 51.3613 130.841 51.1907 130.841 51.02C130.841 50.8493 130.841 50.6786 130.926 50.5079C130.926 50.3372 130.926 50.1665 130.926 50.0812C130.926 49.9105 130.926 49.6545 130.926 49.3984C130.926 49.3131 130.926 49.1424 130.926 49.0571C130.67 45.814 129.134 42.571 126.744 41.6323C124.44 40.7788 121.794 40.1814 119.319 39.8401C116.076 39.4133 115.052 40.1814 114.284 36.8531C113.431 33.1833 113.687 28.4895 110.956 25.5025C106.518 20.5526 96.9597 24.5637 95.8502 30.1963C95.3381 32.7566 96.5329 37.8772 94.3994 39.584C92.9485 40.7788 88.34 40.4375 86.3771 41.0349C84.6703 41.5469 82.8781 41.9736 81.5126 43.1684C78.3549 45.9847 78.7816 50.9346 81.0006 54.4337V54.519C81.0859 54.6897 81.2566 54.8604 81.3419 55.0311C81.3419 55.0311 81.3419 55.1164 81.4273 55.1164C81.5126 55.2871 81.6833 55.4578 81.7686 55.5431C81.7686 55.5431 81.7686 55.6285 81.854 55.6285C82.0247 55.7992 82.11 55.9699 82.2807 56.1405C82.6221 56.4819 82.8781 56.7379 83.2195 56.994C83.3048 56.994 83.3048 57.0793 83.3902 57.0793C83.4755 57.1646 83.6462 57.25 83.7315 57.3353C83.8169 57.3353 83.8169 57.4207 83.9022 57.4207C83.9876 57.506 84.1582 57.5913 84.2436 57.5913C84.3289 57.5913 84.4143 57.6767 84.4143 57.6767C84.4996 57.762 84.6703 57.7621 84.7556 57.8474C84.841 57.8474 84.9263 57.9327 84.9263 57.9327C85.0117 58.0181 85.1824 58.0181 85.2677 58.1034C85.353 58.1034 85.353 58.1888 85.4384 58.1888C85.6091 58.2741 85.7798 58.2741 86.0358 58.3594C89.0228 58.9568 93.8873 57.506 95.4235 60.5783C96.7036 63.1386 96.1916 66.467 96.789 69.454C96.8743 69.71 96.8743 69.8807 96.9597 70.1367C96.9597 70.1367 96.9597 70.1368 96.9597 70.2221C97.045 70.3928 97.045 70.6488 97.1303 70.8195C97.1303 70.9048 97.2157 70.9902 97.2157 71.0755C97.301 71.2462 97.301 71.3316 97.3864 71.5022C97.4717 71.7583 97.6424 71.9289 97.7277 72.185C100.715 76.9642 110.529 75.172 112.236 70.8195C113.687 67.0644 114.284 62.8826 114.37 58.8715C118.807 58.0181 123.843 58.7008 127.768 56.2259C128.024 56.0552 128.28 55.8845 128.536 55.6285C128.622 55.5431 128.707 55.4578 128.793 55.3724C128.963 55.2017 129.134 55.0311 129.219 54.8604C129.39 54.6044 129.475 54.4337 129.561 54.3483Z" fill="#736357"/>
<path d="M124.526 53.4948C129.306 50.5078 127.513 40.6934 123.161 38.9865C120.857 38.1331 118.211 37.5357 115.736 37.1943C112.493 36.7676 111.469 37.5357 110.701 34.2073C109.847 30.5376 110.103 25.8438 107.372 22.8568C102.935 17.9069 93.3762 21.918 92.2667 27.5506C91.7547 30.1109 92.9495 35.2315 90.8159 36.9383C89.3651 38.1331 84.7566 37.7917 82.7937 38.3891C81.0868 38.9012 79.2946 39.3279 77.9292 40.5227C72.9793 44.9605 76.9904 54.5189 82.623 55.6284C85.61 56.2258 90.4745 54.775 92.0107 57.8473C93.7176 61.261 92.1814 65.8695 94.4003 69.3686C97.3873 74.1478 107.202 72.3556 108.909 68.0031C110.359 64.248 110.957 60.0662 111.042 56.0551C115.565 55.287 120.601 55.8844 124.526 53.4948Z" fill="#F5A231"/>
<g opacity="0.4">
<path d="M124.355 39.6693C126.147 42.2296 127.683 52.2147 108.823 54.6043C110.103 67.4911 98.9229 75.0012 93.4609 66.6376C93.6316 67.5764 93.973 68.5152 94.485 69.3686C97.472 74.1478 107.286 72.3556 108.993 68.0031C110.444 64.248 111.042 60.0662 111.127 56.0551C115.565 55.2017 120.6 55.8844 124.526 53.4095C128.793 50.7639 127.769 42.4856 124.355 39.6693Z" fill="#F5A231"/>
</g>
<path opacity="0.4" d="M75.9658 47.8622C76.7339 51.5319 79.4649 55.031 82.7079 55.6284C85.6949 56.2258 90.5594 54.775 92.0956 57.8473C92.437 58.53 93.1197 52.8974 90.0474 53.3241C83.988 53.1534 78.7821 53.9215 75.9658 47.8622Z" fill="#F5A231"/>
<path d="M109.164 38.4745C110.529 40.0107 110.444 42.315 108.993 43.6804C107.542 45.0459 105.153 44.9606 103.787 43.4244C102.422 41.8882 102.507 39.584 103.958 38.2185C105.409 36.853 107.799 36.9384 109.164 38.4745Z" fill="white"/>
<path d="M108.993 38.9013C109.847 39.8401 109.761 41.2909 108.822 42.1443C107.884 42.9977 106.433 42.9977 105.579 42.059C104.726 41.1202 104.811 39.6694 105.75 38.8159C106.774 37.8772 108.225 37.9625 108.993 38.9013Z" fill="#99651F"/>
<path d="M93.8008 37.8771C92.2646 39.4986 92.4353 42.0589 94.0568 43.5097C95.6783 44.9606 98.2386 44.8752 99.6894 43.2537C101.226 41.6322 101.055 39.0719 99.4334 37.6211C97.8119 36.0849 95.2516 36.2556 93.8008 37.8771Z" fill="white"/>
<path d="M95.7632 38.3039C94.8245 39.328 94.9098 40.8642 95.9339 41.803C96.958 42.7417 98.5796 42.6564 99.433 41.7176C100.372 40.6935 100.286 39.1574 99.2623 38.2186C98.2382 37.2798 96.702 37.3651 95.7632 38.3039Z" fill="#99651F"/>
<g opacity="0.3">
<path d="M226.941 40.3438C227.026 40.6852 227.112 41.0265 227.197 41.3679C227.197 41.4533 227.282 41.5386 227.282 41.624C227.368 41.88 227.453 42.136 227.538 42.392C227.624 42.5627 227.624 42.6481 227.709 42.8187C227.794 42.9894 227.794 43.0748 227.88 43.2455C227.965 43.5015 228.136 43.6722 228.221 43.9282C228.306 44.0135 228.306 44.0989 228.392 44.1842C228.562 44.4403 228.648 44.6109 228.819 44.867C228.904 44.9523 228.904 44.9523 228.989 45.0377C229.16 45.2084 229.331 45.4644 229.501 45.635L229.587 45.7204C229.757 45.8911 230.013 46.0618 230.184 46.2325C230.184 46.2325 230.269 46.2325 230.269 46.3178C230.525 46.4885 230.781 46.5738 231.037 46.6592C241.108 50.4996 270.722 50.0729 276.184 45.123C276.44 44.9523 276.61 44.6963 276.781 44.5256C276.781 44.4403 276.867 44.4402 276.867 44.3549C277.037 44.0989 277.208 43.9282 277.379 43.6722L277.464 43.5868C277.549 43.4161 277.72 43.1601 277.805 42.9041C277.805 42.8188 277.805 42.8187 277.891 42.7334C277.976 42.4774 278.061 42.2213 278.147 41.9653C278.147 41.88 278.147 41.88 278.232 41.7946C278.317 41.5386 278.403 41.2826 278.403 41.0265C278.488 40.7705 278.488 40.4291 278.488 40.1731C278.488 40.0878 278.488 40.0878 278.488 40.0024C278.488 39.7464 278.488 39.405 278.488 39.149V39.0637C278.488 38.8076 278.403 38.4663 278.403 38.2102V38.1249C278.317 37.8689 278.317 37.5275 278.232 37.2715V37.1861C278.061 36.5887 277.891 35.9913 277.635 35.3939C277.635 35.3939 277.635 35.3939 277.635 35.3086C276.952 33.8577 276.013 32.4923 274.818 31.4681C273.88 30.7001 272.77 30.1027 271.661 29.8466C265.004 28.5665 231.635 28.7372 229.843 31.9802C227.368 33.5164 226.685 36.9301 227.197 40.0878C226.856 40.2585 226.856 40.2585 226.941 40.3438Z" fill="#736357"/>
<path d="M278.317 61.2528C278.317 60.9115 278.232 60.6554 278.232 60.3141V60.2287C278.147 59.9727 278.147 59.6313 278.061 59.3753V59.2899C277.891 58.6925 277.72 58.0951 277.464 57.4977C277.464 57.4977 277.464 57.4978 277.464 57.4124C276.781 55.9616 275.842 54.5961 274.648 53.572C273.709 52.8039 272.599 52.2065 271.49 51.9505C264.833 50.6703 231.464 50.841 229.672 54.084C227.197 55.6202 226.514 59.0339 227.026 62.1916V62.2769C227.112 62.6183 227.197 62.9597 227.282 63.3011C227.282 63.3864 227.368 63.4717 227.368 63.5571C227.453 63.8131 227.538 64.0691 227.624 64.3252C227.709 64.4958 227.709 64.5812 227.794 64.7519C227.88 64.9226 227.88 65.0079 227.965 65.1786C228.05 65.4346 228.221 65.6053 228.306 65.8613C228.392 65.9467 228.392 66.032 228.477 66.1174C228.648 66.3734 228.733 66.5441 228.904 66.8001C228.989 66.8855 228.989 66.8854 229.075 66.9708C229.245 67.1415 229.416 67.3975 229.587 67.5682L229.672 67.6535C229.843 67.8242 230.099 67.9949 230.269 68.1656C230.269 68.1656 230.355 68.1656 230.355 68.2509C230.611 68.4216 230.867 68.507 231.123 68.5923C241.193 72.4327 270.807 72.006 276.269 67.0561C276.525 66.8855 276.696 66.6294 276.867 66.4587C276.867 66.3734 276.952 66.3734 276.952 66.2881C277.123 66.032 277.293 65.8613 277.464 65.6053L277.549 65.52C277.635 65.3493 277.805 65.0932 277.891 64.8372C277.891 64.7519 277.891 64.7519 277.976 64.6666C278.061 64.4105 278.147 64.1545 278.232 63.8984C278.232 63.8131 278.232 63.8131 278.317 63.7278C278.403 63.4717 278.488 63.2157 278.488 62.9597C278.573 62.7037 278.573 62.3623 278.573 62.1063C278.573 62.0209 278.573 62.0209 278.573 61.9356C278.317 61.8502 278.317 61.5942 278.317 61.2528Z" fill="#736357"/>
</g>
<path d="M267.991 25.6649C273.623 26.7743 277.634 36.3327 272.684 40.7706C267.222 45.7205 237.523 46.0618 227.538 42.3067C223.186 40.5999 221.393 30.7855 226.173 27.7985C227.965 24.5554 261.248 24.2994 267.991 25.6649Z" fill="#FF3D70"/>
<g opacity="0.5">
<path d="M271.147 27.2865C271.83 30.4442 271.233 33.7726 268.843 35.9061C263.125 40.7707 233.426 39.5759 223.697 34.9674C223.612 34.882 223.526 34.882 223.355 34.7967C223.526 38.125 225.148 41.4534 227.537 42.3068C237.608 46.1473 267.222 45.7206 272.684 40.7707C276.609 37.1863 274.903 30.4442 271.147 27.2865Z" fill="#FF3D70"/>
</g>
<path d="M267.991 47.854C273.623 48.9635 277.634 58.5219 272.684 62.9597C267.222 67.9096 237.523 68.251 227.538 64.4959C223.186 62.789 221.393 52.9746 226.173 49.9876C227.965 46.7446 261.248 46.4885 267.991 47.854Z" fill="#FF3D70"/>
<g opacity="0.5">
<path d="M271.147 49.4756C271.83 52.6333 271.233 55.9617 268.843 58.0953C263.125 62.9598 233.426 61.765 223.697 57.1565C223.612 57.0712 223.526 57.0712 223.355 56.9858C223.526 60.3142 225.148 63.6426 227.537 64.496C237.608 68.3364 267.222 67.9097 272.684 62.9598C276.609 59.3754 274.903 52.6333 271.147 49.4756Z" fill="#FF3D70"/>
</g>
<path d="M241.703 28.908C240.252 30.2735 240.167 32.6631 241.533 34.1139C242.898 35.5647 245.202 35.6501 246.738 34.2846C248.189 32.9191 248.275 30.5295 246.909 29.0787C245.458 27.5425 243.154 27.4572 241.703 28.908Z" fill="white"/>
<path d="M241.703 29.3347C240.765 30.1881 240.765 31.6389 241.618 32.5777C242.472 33.5165 243.922 33.6018 244.861 32.7484C245.8 31.8949 245.8 30.4441 244.946 29.5054C244.093 28.4812 242.642 28.4812 241.703 29.3347Z" fill="#8C213E"/>
<path d="M257.067 29.5053C258.433 31.2122 258.177 33.7724 256.384 35.1379C254.677 36.5034 252.117 36.162 250.752 34.4552C249.386 32.7483 249.642 30.1881 251.434 28.8226C253.141 27.4571 255.702 27.7131 257.067 29.5053Z" fill="white"/>
<path d="M255.019 29.8466C255.872 30.9561 255.616 32.4922 254.592 33.3457C253.482 34.1991 251.946 34.0284 251.093 33.0043C250.239 31.8948 250.495 30.3587 251.52 29.5052C252.629 28.5665 254.165 28.7371 255.019 29.8466Z" fill="#8C213E"/>
<g clip-path="url(#clip1_660_532)">
<g opacity="0.3">
<path d="M327.206 63.9817C328.113 63.1494 328.76 62.125 329.343 61.1006C335.949 48.8079 340.741 33.6982 338.863 23.9024C338.863 23.7744 338.799 23.6463 338.799 23.5183C338.799 23.4543 338.799 23.4543 338.799 23.3902C338.799 23.3262 338.799 23.2622 338.734 23.2622C338.799 23.1982 338.799 23.1341 338.863 23.0701C340.353 20.9573 342.037 19.3567 340.482 18.3323C340.353 18.2043 340.159 18.1402 339.964 18.0122C339.835 17.9482 339.705 17.8841 339.576 17.8841C339.446 17.8201 339.317 17.8201 339.187 17.7561C338.475 17.564 337.633 17.436 336.791 17.372C336.726 17.372 336.726 17.372 336.661 17.372C336.532 17.372 336.467 17.372 336.338 17.372C336.273 17.372 336.143 17.372 336.079 17.372H336.014C335.172 16.6677 334.2 15.6433 332.97 15.0671C333.294 15.2591 333.941 15.7073 334.589 16.4116C333.812 15.7713 332.84 15.2591 331.804 14.811C331.804 14.747 331.804 14.747 331.804 14.6829C331.804 14.6189 331.74 14.4909 331.74 14.4268C331.675 14.2988 331.675 14.2348 331.61 14.1067C331.61 14.0427 331.545 13.9787 331.545 13.9146C331.48 13.7866 331.416 13.6585 331.416 13.5305C331.416 13.4665 331.351 13.4024 331.351 13.3384C331.286 13.2104 331.221 13.0823 331.157 12.9543C330.962 12.8902 330.962 12.8262 330.962 12.7622C330.898 12.6341 330.833 12.5061 330.703 12.314C330.703 12.314 330.703 12.25 330.639 12.25C330.574 12.122 330.444 11.9939 330.38 11.8018C329.926 11.2256 329.473 10.7134 329.084 10.3933C327.53 9.30488 326.623 11.4817 325.134 13.5945L325.069 13.6585C319.046 14.1067 308.296 20.125 309.72 32.0335C310.498 38.8201 316.067 39.4604 319.759 36.8354C322.349 35.0427 324.421 32.0976 325.522 31.2652C325.522 31.2652 325.522 31.2652 325.587 31.2652C325.652 31.2652 325.652 31.2012 325.717 31.2012H325.781C325.846 31.2012 325.846 31.2012 325.846 31.1372C325.846 31.1372 325.846 31.1372 325.911 31.1372H325.976C325.976 31.1372 325.976 31.1372 326.04 31.1372C326.105 31.1372 326.105 31.1372 326.17 31.1372C326.17 31.1372 326.235 31.1372 326.235 31.2012L326.3 31.2652V31.3293C326.3 31.3293 326.3 31.3933 326.364 31.4573V31.5213C326.364 31.5854 326.364 31.6494 326.429 31.6494V31.7134C326.429 31.7774 326.429 31.9055 326.429 31.9695L326.3 32.0335C326.3 32.0976 326.17 32.1616 326.17 32.2896C326.17 32.3537 326.17 32.3537 326.17 32.4177C326.17 32.4817 326.3 32.6098 326.3 32.6738C326.3 32.7378 326.364 32.8018 326.364 32.8018C326.364 32.8659 326.364 32.9939 326.364 33.122C326.364 33.186 326.364 33.25 326.364 33.25C326.364 33.4421 326.364 33.5701 326.3 33.7622C325.522 42.2134 319.564 51.0488 315.42 57.8354C313.8 60.4604 311.275 64.686 310.627 68.5274C309.98 72.561 314.901 75.122 317.945 72.3689L327.206 63.9817Z" fill="#736357"/>
<path d="M333.877 15.0031C333.877 15.0031 333.942 15.0031 333.942 15.0671L333.877 15.0031Z" fill="#736357"/>
</g>
<path d="M314.124 70.0639C312.051 72.1127 308.36 71.0243 307.971 68.0791C307.389 63.7255 310.886 57.8993 312.829 54.634C316.973 47.8474 322.931 39.0121 323.773 30.6249C324.421 24.2865 321.507 30.6889 317.168 33.698C313.411 36.259 307.971 35.6188 307.13 28.8962C305.705 16.7316 316.844 10.7133 322.802 10.5852C343.202 10.073 337.438 37.3474 326.817 57.3871C326.623 57.7072 326.429 58.0273 326.17 58.2834L314.124 70.0639Z" fill="#F5A231"/>
<path opacity="0.3" d="M322.932 28.128C323.709 27.5518 324.033 28 323.774 30.625C323.709 31.1372 323.645 31.6494 323.58 32.1616C325.782 29.6006 328.761 26.3994 329.926 21.9817C326.494 24.5427 322.155 28.7043 322.932 28.128Z" fill="#F5A231"/>
<path opacity="0.3" d="M329.991 11.8018C329.991 11.8018 330.056 11.8018 330.056 11.8658L329.991 11.8018Z" fill="#F5A231"/>
<path opacity="0.3" d="M326.688 57.8354C333.294 45.5427 338.086 30.4329 336.208 20.6372C336.208 20.5091 336.143 20.3811 336.143 20.253C336.143 20.189 336.143 20.189 336.143 20.125C336.078 19.7408 335.949 19.3567 335.819 18.9725C335.69 18.5884 335.56 18.2043 335.431 17.8841C335.431 17.8841 335.431 17.8201 335.366 17.8201C335.237 17.436 335.042 17.1158 334.913 16.7957C334.913 16.7957 334.913 16.7317 334.848 16.7317C334.654 16.4116 334.524 16.0914 334.33 15.7713V15.5152C334.2 15.2591 334.006 15.1951 333.877 14.5549C332.97 13.9146 331.804 12.5701 330.379 11.8658C330.962 12.186 332.193 13.1463 333.229 14.939V15.003C333.164 15.003 333.035 15.0671 332.97 15.0671C332.905 15.0671 332.84 15.1311 332.711 15.1311C332.581 15.1311 332.517 15.1951 332.387 15.1951C332.322 15.1951 332.257 15.2591 332.193 15.2591C332.128 15.2591 332.128 15.2591 332.063 15.2591C331.934 14.7469 331.351 14.5549 330.833 14.1707C330.25 13.7866 329.991 13.2744 329.408 13.4664C329.408 13.4024 329.408 13.2744 329.408 13.2103C329.408 13.1463 329.408 13.0183 329.343 12.9543C329.343 12.8902 329.343 12.7622 329.278 12.6982C329.278 12.5701 329.214 12.5061 329.214 12.378C329.084 12.186 329.019 12.1219 329.019 11.9939C328.955 11.8658 328.955 11.8018 328.89 11.6738C328.89 11.6097 328.825 11.5457 328.825 11.4817C328.825 11.4177 328.76 11.3536 328.76 11.3536C327.141 10.7774 325.263 10.5213 323.126 10.5853C322.932 10.8414 322.802 11.0975 322.608 11.3536C321.896 12.378 321.054 13.2103 321.054 13.9146C321.054 13.9786 320.989 14.1067 320.924 14.1707C320.924 14.2347 320.859 14.3628 320.859 14.4268C320.859 14.4908 320.859 14.5549 320.859 14.6829C320.859 14.7469 320.859 14.811 320.924 14.875C320.924 14.875 320.924 14.875 320.924 14.939C320.924 15.003 320.989 15.0671 320.989 15.1311V15.1951C320.989 15.2591 321.054 15.3232 321.118 15.3872C321.118 15.3872 321.118 15.4512 321.183 15.4512C321.248 15.5152 321.313 15.5793 321.313 15.6433C321.313 15.6433 321.313 15.7073 321.377 15.7073C321.442 15.7713 321.572 15.8353 321.637 15.8994C322.737 16.6677 325.004 17.2439 326.817 16.7957C327.012 17.2439 327.659 17.3719 328.177 17.7561C328.76 18.1402 329.019 18.7164 329.602 18.5884C329.797 20.4451 331.221 22.4939 332.322 23.2622C332.387 23.3262 332.517 23.3902 332.581 23.4543C332.646 23.4543 332.646 23.5183 332.711 23.5183C332.776 23.5183 332.776 23.5823 332.84 23.5823C332.905 23.5823 332.97 23.5823 333.035 23.6463H333.099C333.164 23.6463 333.229 23.6463 333.294 23.6463H333.358C333.423 23.6463 333.488 23.6463 333.553 23.6463C333.553 23.6463 333.553 23.6463 333.617 23.6463C333.682 23.6463 333.747 23.5823 333.812 23.5823C333.877 23.5823 333.941 23.5183 334.006 23.4543C334.33 23.2622 334.654 22.9421 334.977 22.5579C335.042 29.6006 332.452 44.4542 321.118 63.1494" fill="#F5A231"/>
<path d="M328.824 14.6189C327.335 16.7317 323.19 16.0274 321.636 14.939C320.082 13.8506 321.118 12.5701 322.607 10.4573C324.097 8.34451 325.004 6.23171 326.558 7.2561C328.047 8.34451 330.314 12.5061 328.824 14.6189Z" fill="#FF3D70"/>
<g opacity="0.5">
<path d="M326.558 7.32013C327.335 8.92074 327.724 10.8415 326.882 12.0579C325.716 13.7226 322.866 13.5945 320.988 13.0183C320.665 13.7866 320.794 14.4268 321.636 14.939C323.19 16.0274 327.4 16.7317 328.825 14.6189C330.314 12.5701 328.112 8.47257 326.558 7.32013Z" fill="#FF3D70"/>
</g>
<path d="M330.055 15.4513C328.565 17.5641 330.702 21.1494 332.322 22.2378C333.876 23.3263 334.782 21.9177 336.207 19.8049C337.697 17.6921 339.381 16.0915 337.826 15.0671C336.207 13.9787 331.48 13.3385 330.055 15.4513Z" fill="#FF3D70"/>
<g opacity="0.5">
<path d="M332.645 16.0915C333.487 14.875 335.495 14.5549 337.308 14.747C335.365 13.8506 331.415 13.5305 330.055 15.4512C328.565 17.564 330.702 21.1494 332.322 22.2378C333.034 22.75 333.682 22.686 334.2 22.3018C332.775 20.8293 331.35 17.8842 332.645 16.0915Z" fill="#FF3D70"/>
</g>
<path d="M331.092 16.1555C329.278 18.5884 329.084 17.436 328.112 16.7957C327.206 16.1555 325.716 16.1555 327.659 13.8506C329.537 11.6738 329.667 12.5701 330.638 13.2103C331.61 13.7866 332.775 13.9146 331.092 16.1555Z" fill="#FF3D70"/>
<g opacity="0.3">
<path d="M329.473 15.5153C328.566 14.875 327.141 14.875 328.955 12.6342C328.631 12.8262 328.242 13.2104 327.724 13.7866C325.781 16.0915 327.206 16.0915 328.177 16.7317C329.084 17.372 329.343 18.4604 331.027 16.1555C330.379 16.5396 330.056 15.9634 329.473 15.5153Z" fill="#FF3D70"/>
</g>
<path d="M322.025 21.3415C322.608 22.75 321.896 24.3506 320.471 24.9268C319.046 25.503 317.427 24.7988 316.845 23.3262C316.262 21.9177 316.974 20.3171 318.399 19.7408C319.888 19.2287 321.507 19.9329 322.025 21.3415Z" fill="white"/>
<path d="M320.406 21.7256C320.73 22.622 320.277 23.5823 319.37 23.9665C318.463 24.2866 317.427 23.9024 317.103 23.0061C316.78 22.1098 317.233 21.1494 318.14 20.7653C319.046 20.4451 320.082 20.8933 320.406 21.7256Z" fill="#406148"/>
<path d="M315.42 20.061C315.808 21.0213 315.29 22.1738 314.319 22.5579C313.347 22.9421 312.181 22.4299 311.793 21.4695C311.404 20.5091 311.922 19.3567 312.894 18.9725C313.865 18.5884 315.031 19.0366 315.42 20.061Z" fill="white"/>
<path d="M313.93 20.3811C314.124 20.8933 313.865 21.5335 313.282 21.7256C312.699 21.9177 312.116 21.6616 311.922 21.1494C311.728 20.6372 311.987 19.9969 312.57 19.8049C313.088 19.5488 313.736 19.8689 313.93 20.3811Z" fill="#406148"/>
<path d="M322.413 79.0915C319.175 72.8171 306.029 77.1708 309.72 86.9665C310.821 89.7836 313.088 91.0641 315.419 91.0641C318.851 91.1281 322.478 88.5031 323.191 83.9574C323.514 81.7165 323.191 79.9878 322.413 78.7714C322.478 78.8354 322.413 78.9634 322.413 79.0915Z" fill="#CBC6C3"/>
<path d="M321.118 81.3963C323.061 68.7195 303.373 72.689 307.842 84.4054C310.432 91.256 319.952 88.8871 321.118 81.3963Z" fill="#F5A231"/>
<g opacity="0.4">
<path d="M320.406 78.3231C319.305 85.5579 310.432 87.9908 307.453 82.0365C307.518 82.8048 307.712 83.5731 308.036 84.4055C310.626 91.3201 320.146 88.8872 321.312 81.3963C321.636 79.1554 321.312 77.4268 320.535 76.2103C320.535 76.8506 320.47 77.5548 320.406 78.3231Z" fill="#F5A231"/>
</g>
</g>
</g>
<defs>
<filter id="filter0_dd_660_532" x="0" y="0.134766" width="369" height="102.73" filterUnits="userSpaceOnUse" color-interpolation-filters="sRGB">
<feFlood flood-opacity="0" result="BackgroundImageFix"/>
<feColorMatrix in="SourceAlpha" type="matrix" values="0 0 0 0 0 0 0 0 0 0 0 0 0 0 0 0 0 0 127 0" result="hardAlpha"/>
<feOffset dy="4"/>
<feGaussianBlur stdDeviation="2"/>
<feComposite in2="hardAlpha" operator="out"/>
<feColorMatrix type="matrix" values="0 0 0 0 0 0 0 0 0 0 0 0 0 0 0 0 0 0 0.25 0"/>
<feBlend mode="normal" in2="BackgroundImageFix" result="effect1_dropShadow_660_532"/>
<feColorMatrix in="SourceAlpha" type="matrix" values="0 0 0 0 0 0 0 0 0 0 0 0 0 0 0 0 0 0 127 0" result="hardAlpha"/>
<feOffset dy="4"/>
<feGaussianBlur stdDeviation="2"/>
<feComposite in2="hardAlpha" operator="out"/>
<feColorMatrix type="matrix" values="0 0 0 0 0 0 0 0 0 0 0 0 0 0 0 0 0 0 0.25 0"/>
<feBlend mode="normal" in2="effect1_dropShadow_660_532" result="effect2_dropShadow_660_532"/>
<feBlend mode="normal" in="SourceGraphic" in2="effect2_dropShadow_660_532" result="shape"/>
</filter>
<clipPath id="clip0_660_532">
<rect width="361" height="94.7305" fill="white" transform="translate(4 0.134766)"/>
</clipPath>
<clipPath id="clip1_660_532">
<rect width="34" height="84" fill="white" transform="translate(307 7)"/>
</clipPath>
</defs>
</svg>
