<svg width="128" height="106" viewBox="0 0 128 106" fill="none" xmlns="http://www.w3.org/2000/svg">
<path d="M42.1654 106C39.5192 106 37.2038 105.006 35.2192 103.019C33.2346 101.031 32.2423 98.7125 32.2423 96.0625V83.5C32.2423 81.2909 34.0332 79.5 36.2423 79.5H52.75V58.4656C48.5603 58.7969 44.3705 58.2172 40.1808 56.7266C36.5089 55.4202 33.1757 53.4565 30.1813 50.8356C29.3661 50.1221 28.9346 49.0759 28.9346 47.9925V40.0813H22.3239C21.2621 40.0813 20.2438 39.659 19.4935 38.9076L1.90406 21.2927C0.313089 19.6994 0.341181 17.0925 2.11388 15.7042C5.38213 13.1447 9.08519 10.9741 13.2231 9.19219C18.7359 6.81823 24.359 5.63125 30.0923 5.63125C33.4 5.63125 37.1763 6.15573 41.4212 7.20469C45.666 8.25365 49.4423 9.9375 52.75 12.2563V4C52.75 1.79086 54.5409 0 56.75 0H124C126.209 0 128 1.79086 128 4V88.6094C128 93.4677 126.319 97.5807 122.956 100.948C119.593 104.316 115.486 106 110.635 106H42.1654ZM62.6731 79.5H99.1923C101.401 79.5 103.192 81.2909 103.192 83.5V88.6094C103.192 90.8177 103.881 92.612 105.26 93.9922C106.638 95.3724 108.429 96.0625 110.635 96.0625C112.84 96.0625 114.631 95.3724 116.01 93.9922C117.388 92.612 118.077 90.8177 118.077 88.6094V9.9375H62.6731V17.723C62.6731 18.7828 63.0937 19.7994 63.8426 20.5493L101.361 58.1225C102.11 58.8725 102.531 59.889 102.531 60.9489V62.4156C102.531 64.6248 100.74 66.4156 98.5308 66.4156H97.0778C96.0159 66.4156 94.9976 65.9934 94.2473 65.242L74.5808 45.5469L71.7692 48.8594C70.3359 50.5156 68.9026 51.7854 67.4692 52.6688C66.0359 53.5521 64.4372 54.3802 62.6731 55.1531V79.5ZM23.9588 28.9701C24.7092 29.7215 25.7275 30.1438 26.7893 30.1438H34.8577C37.0668 30.1438 38.8577 31.9346 38.8577 34.1438V42.71C38.8577 44.0659 39.534 45.3495 40.7244 45.9986C41.9612 46.673 43.1858 47.2125 44.3981 47.6172C46.2173 48.2245 48.0641 48.5281 49.9385 48.5281C52.6949 48.5281 55.5064 47.7828 58.3731 46.2922C61.2397 44.8016 63.3346 43.2833 64.6577 41.7375L67.4692 38.425L56.0577 26.9969C52.5295 23.4635 48.5603 20.6755 44.15 18.6328C39.7397 16.5901 35.0538 15.5688 30.0923 15.5688C27.1154 15.5688 24.4141 15.9276 21.9885 16.6453C19.5628 17.363 17.0821 18.3292 14.5462 19.5437L23.9588 28.9701ZM42.1654 96.0625H95.5846C94.9231 95.4 94.3718 94.4891 93.9308 93.3297C93.4898 92.1703 93.2692 90.8729 93.2692 89.4375H42.1654V96.0625ZM42.1654 96.0625V89.4375C42.1654 90.8729 42.1654 92.1703 42.1654 93.3297C42.1654 94.4891 42.1654 95.4 42.1654 96.0625Z" fill="#FA855F"/>
</svg>
