<svg width="201" height="267" viewBox="0 0 201 267" fill="none" xmlns="http://www.w3.org/2000/svg">
<g clip-path="url(#clip0_683_880)">
<path d="M172.927 36.6469L152.131 60.6791L129.709 40.9555L145.009 23.5159C148.135 19.9536 153.551 19.6015 157.106 22.7295L172.927 36.6469Z" fill="#2D3E53"/>
<path d="M136.929 78.2461L47.1578 181.98L23.9193 161.537L114.389 58.4178L136.929 78.2461Z" fill="#077CCC"/>
<path d="M20.0304 213.33L0.000446291 236.475L10.2457 204.379L20.0304 213.33Z" fill="#05455B"/>
<path d="M47.1578 181.98L20.0302 213.33L10.2454 204.379L23.9193 161.537L47.1578 181.98Z" fill="#FFF0BE"/>
<path d="M152.131 60.6791L136.929 78.2461L114.389 58.4178L129.709 40.9556L152.131 60.6791Z" fill="#DFF5FF"/>
<path d="M192.222 65.0476L176.921 82.4873L152.13 60.6792L172.927 36.647L191.443 52.9336C194.999 56.0616 195.347 61.4853 192.222 65.0476Z" fill="#233444"/>
<path d="M176.921 82.487L161.602 99.9492L137.996 79.1844L136.929 78.246L152.131 60.6789L176.921 82.487Z" fill="#C1DFEA"/>
<path d="M161.602 99.9497L71.1323 203.069L47.1582 181.98L136.929 78.2464L137.997 79.1848L161.602 99.9497Z" fill="#0D6DA3"/>
<path d="M71.1324 203.069L29.9548 222.408L20.0307 213.33L47.1583 181.98L71.1324 203.069Z" fill="#FFD19C"/>
<path d="M29.9542 222.408L0.000141847 236.475L20.0301 213.33L29.9542 222.408Z" fill="#02354C"/>
</g>
<defs>
<clipPath id="clip0_683_880">
<rect width="157.386" height="240.848" fill="white" transform="translate(45.6934) rotate(10.9363)"/>
</clipPath>
</defs>
</svg>
