<svg width="941" height="646" viewBox="0 0 941 646" fill="none" xmlns="http://www.w3.org/2000/svg">
<rect width="940.11" height="645.32" rx="60" fill="#ECEEEF"/>
<g clip-path="url(#clip0_648_836)">
<path d="M393.768 14H351.018V78.1075H393.768V14Z" fill="#4E4E56"/>
<path d="M393.789 14H372.403V78.1075H393.789V14Z" fill="#444447"/>
<path d="M691.447 351.823H684.814C684.814 339.682 674.972 329.844 662.825 329.844C650.678 329.844 640.836 339.682 640.836 351.823H634.203C624.554 351.823 616.65 359.724 616.65 369.368C616.65 379.012 624.554 386.912 634.203 386.912H691.447C701.096 386.912 709 379.012 709 369.368C709 359.724 701.096 351.823 691.447 351.823Z" fill="#ACEBF4"/>
<path d="M272.797 454.787H266.163C266.163 442.646 256.321 432.808 244.175 432.808C232.028 432.808 222.186 442.646 222.186 454.787H215.552C205.904 454.787 198 462.688 198 472.332C198 481.976 205.904 489.876 215.552 489.876H272.797C282.445 489.876 290.349 481.976 290.349 472.332C290.349 462.688 282.445 454.787 272.797 454.787Z" fill="#ACEBF4"/>
<path d="M626.364 75.546H619.731C619.731 63.4047 609.889 53.5669 597.742 53.5669C585.595 53.5669 575.753 63.4047 575.753 75.546H569.12C559.471 75.546 551.567 83.4464 551.567 93.0905C551.567 102.735 559.471 110.635 569.12 110.635H626.364C636.013 110.635 643.917 102.735 643.917 93.0905C643.917 83.4464 636.013 75.546 626.364 75.546Z" fill="#ACEBF4"/>
<path d="M453.51 46.2905L317.27 95.7596L321.297 635.033H589.73V95.7596L453.51 46.2905Z" fill="#FFAE43"/>
<path d="M453.511 46.2905V635.033H589.73V95.7596L453.511 46.2905Z" fill="#F8990F"/>
<path d="M897 635H59V645H897V635Z" fill="#D17200"/>
<path d="M603.945 635.033H594.469V584.208C594.469 584.014 594.533 583.82 594.663 583.67L598.518 578.804C598.862 578.352 599.551 578.352 599.896 578.804L603.751 583.67C603.88 583.82 603.945 584.014 603.945 584.208V635.033Z" fill="#4E4E56"/>
<path d="M626.127 635.033H616.651V584.208C616.651 584.014 616.716 583.82 616.845 583.67L620.7 578.804C621.045 578.352 621.734 578.352 622.079 578.804L625.934 583.67C626.063 583.82 626.127 584.014 626.127 584.208V635.033Z" fill="#4E4E56"/>
<path d="M648.31 635.033H638.834V584.208C638.834 584.014 638.899 583.82 639.028 583.67L642.883 578.804C643.227 578.352 643.917 578.352 644.261 578.804L648.116 583.67C648.245 583.82 648.31 584.014 648.31 584.208V635.033Z" fill="#4E4E56"/>
<path d="M652.23 603.84H589.752V594.734H652.23C652.488 594.734 652.725 594.842 652.897 595.036L656.106 598.76C656.408 599.104 656.386 599.599 656.106 599.922L652.897 603.517C652.725 603.711 652.488 603.819 652.23 603.819V603.84Z" fill="#3F3F47"/>
<path d="M652.23 623.43H589.752V614.324H652.23C652.488 614.324 652.725 614.432 652.897 614.626L656.106 618.35C656.408 618.694 656.386 619.189 656.106 619.512L652.897 623.107C652.725 623.301 652.488 623.409 652.23 623.409V623.43Z" fill="#3F3F47"/>
<path d="M303.077 635.033H312.553V584.208C312.553 584.014 312.489 583.82 312.359 583.67L308.504 578.804C308.16 578.352 307.471 578.352 307.126 578.804L303.271 583.67C303.142 583.82 303.077 584.014 303.077 584.208V635.033Z" fill="#4E4E56"/>
<path d="M280.895 635.033H290.371V584.208C290.371 584.014 290.306 583.82 290.177 583.67L286.322 578.804C285.977 578.352 285.288 578.352 284.943 578.804L281.088 583.67C280.959 583.82 280.895 584.014 280.895 584.208V635.033Z" fill="#4E4E56"/>
<path d="M258.712 635.033H268.188V584.208C268.188 584.014 268.123 583.82 267.994 583.67L264.139 578.804C263.795 578.352 263.105 578.352 262.761 578.804L258.906 583.67C258.777 583.82 258.712 584.014 258.712 584.208V635.033Z" fill="#4E4E56"/>
<path d="M254.792 603.84H317.27V594.734H254.792C254.534 594.734 254.297 594.842 254.124 595.036L250.915 598.76C250.614 599.104 250.635 599.599 250.915 599.922L254.124 603.517C254.297 603.711 254.534 603.819 254.792 603.819V603.84Z" fill="#3F3F47"/>
<path d="M254.792 623.43H317.27V614.324H254.792C254.534 614.324 254.297 614.432 254.124 614.626L250.915 618.35C250.614 618.694 250.635 619.189 250.915 619.512L254.124 623.107C254.297 623.301 254.534 623.409 254.792 623.409V623.43Z" fill="#3F3F47"/>
<path d="M550.189 548.645H490.791V635.054H550.189V548.645Z" fill="#FEFEF7"/>
<path d="M517.303 555.017H497.446V574.865H517.303V555.017Z" fill="#DADADA"/>
<path d="M517.303 574.865H497.446L517.303 555.017V574.865Z" fill="#C6C6C6"/>
<path d="M543.513 555.017H523.656V574.865H543.513V555.017Z" fill="#DADADA"/>
<path d="M543.513 574.865H523.656L543.513 555.017V574.865Z" fill="#C6C6C6"/>
<path d="M517.303 581.926H497.446V601.774H517.303V581.926Z" fill="#DADADA"/>
<path d="M517.303 601.774H497.446L517.303 581.926V601.774Z" fill="#C6C6C6"/>
<path d="M543.513 581.926H523.656V601.774H543.513V581.926Z" fill="#DADADA"/>
<path d="M543.513 601.774H523.656L543.513 581.926V601.774Z" fill="#C6C6C6"/>
<path d="M517.303 608.813H497.446V628.661H517.303V608.813Z" fill="#DADADA"/>
<path d="M517.303 628.661H497.446L517.303 608.813V628.661Z" fill="#C6C6C6"/>
<path d="M543.513 608.813H523.656V628.661H543.513V608.813Z" fill="#DADADA"/>
<path d="M543.513 628.661H523.656L543.513 608.813V628.661Z" fill="#C6C6C6"/>
<path d="M435.873 614.432C436.066 614.066 436.196 613.678 436.196 613.226C436.196 611.741 434.99 610.535 433.504 610.535C433.46 610.535 433.439 610.535 433.396 610.535C433.525 610.213 433.611 609.868 433.611 609.502C433.611 608.081 432.47 606.94 431.048 606.94C430.036 606.94 429.175 607.543 428.765 608.404C428.356 607.543 427.495 606.94 426.483 606.94C425.47 606.94 424.609 607.543 424.2 608.404C423.791 607.543 422.929 606.94 421.917 606.94C420.495 606.94 419.354 608.081 419.354 609.502C419.354 609.868 419.44 610.213 419.569 610.535C419.526 610.535 419.505 610.535 419.462 610.535C417.976 610.535 416.77 611.741 416.77 613.226C416.77 613.657 416.899 614.066 417.093 614.432C415.757 614.69 414.745 615.788 414.745 617.187C414.745 618.759 416.037 620.05 417.609 620.05C418.536 620.05 419.311 619.598 419.828 618.931C420.345 619.598 421.141 620.05 422.046 620.05C422.951 620.05 423.747 619.598 424.264 618.931C424.781 619.598 425.578 620.05 426.483 620.05C427.387 620.05 428.184 619.598 428.701 618.931C429.218 619.598 430.015 620.05 430.919 620.05C431.824 620.05 432.621 619.598 433.137 618.931C433.654 619.598 434.451 620.05 435.356 620.05C436.928 620.05 438.22 618.759 438.22 617.187C438.22 615.788 437.186 614.669 435.873 614.432Z" fill="#589419"/>
<path d="M435.872 614.432C436.066 614.066 436.195 613.678 436.195 613.226C436.195 611.741 434.989 610.535 433.503 610.535C433.46 610.535 433.439 610.535 433.396 610.535C433.525 610.212 433.611 609.868 433.611 609.502C433.611 608.081 432.47 606.94 431.048 606.94C430.036 606.94 429.175 607.543 428.765 608.404C428.356 607.543 427.495 606.94 426.482 606.94V620.029C427.408 620.029 428.184 619.577 428.701 618.909C429.218 619.577 430.014 620.029 430.919 620.029C431.824 620.029 432.62 619.577 433.137 618.909C433.654 619.577 434.451 620.029 435.356 620.029C436.928 620.029 438.22 618.737 438.22 617.166C438.22 615.767 437.186 614.647 435.872 614.41V614.432Z" fill="#508216"/>
<path d="M426.633 618.888H415.068C414.788 618.888 414.551 619.146 414.594 619.426L416.683 635.055H436.604L438.693 619.426C438.737 619.146 438.5 618.888 438.22 618.888H426.654H426.633Z" fill="#7C3422"/>
<path d="M438.198 618.888H426.482V635.055H436.562L438.672 619.426C438.715 619.146 438.478 618.888 438.198 618.888Z" fill="#6D2C1F"/>
<path d="M841.284 614.491C841.478 614.125 841.607 613.738 841.607 613.286C841.607 611.8 840.401 610.595 838.915 610.595C838.872 610.595 838.85 610.595 838.807 610.595C838.936 610.272 839.022 609.928 839.022 609.562C839.022 608.141 837.881 607 836.459 607C835.447 607 834.586 607.603 834.177 608.464C833.767 607.603 832.906 607 831.894 607C830.881 607 830.02 607.603 829.611 608.464C829.202 607.603 828.34 607 827.328 607C825.907 607 824.765 608.141 824.765 609.562C824.765 609.928 824.851 610.272 824.98 610.595C824.937 610.595 824.916 610.595 824.873 610.595C823.387 610.595 822.181 611.8 822.181 613.286C822.181 613.716 822.31 614.125 822.504 614.491C821.168 614.75 820.156 615.848 820.156 617.247C820.156 618.818 821.448 620.11 823.021 620.11C823.947 620.11 824.722 619.658 825.239 618.991C825.756 619.658 826.553 620.11 827.457 620.11C828.362 620.11 829.159 619.658 829.675 618.991C830.192 619.658 830.989 620.11 831.894 620.11C832.798 620.11 833.595 619.658 834.112 618.991C834.629 619.658 835.426 620.11 836.33 620.11C837.235 620.11 838.032 619.658 838.549 618.991C839.065 619.658 839.862 620.11 840.767 620.11C842.339 620.11 843.631 618.818 843.631 617.247C843.631 615.848 842.597 614.728 841.284 614.491Z" fill="#589419"/>
<path d="M841.284 614.491C841.477 614.125 841.607 613.738 841.607 613.286C841.607 611.8 840.401 610.595 838.915 610.595C838.871 610.595 838.85 610.595 838.807 610.595C838.936 610.272 839.022 609.928 839.022 609.562C839.022 608.141 837.881 607 836.459 607C835.447 607 834.586 607.603 834.176 608.464C833.767 607.603 832.906 607 831.894 607V620.088C832.82 620.088 833.595 619.636 834.112 618.969C834.629 619.636 835.426 620.088 836.33 620.088C837.235 620.088 838.032 619.636 838.548 618.969C839.065 619.636 839.862 620.088 840.767 620.088C842.339 620.088 843.631 618.797 843.631 617.225C843.631 615.826 842.597 614.707 841.284 614.47V614.491Z" fill="#508216"/>
<path d="M832.044 618.947H820.479C820.199 618.947 819.962 619.206 820.005 619.485L822.094 635.114H842.016L844.105 619.485C844.148 619.206 843.911 618.947 843.631 618.947H832.066H832.044Z" fill="#7C3422"/>
<path d="M843.609 618.947H831.894V635.114H841.973L844.083 619.485C844.126 619.206 843.889 618.947 843.609 618.947Z" fill="#6D2C1F"/>
<path d="M141.284 614.491C141.478 614.125 141.607 613.738 141.607 613.286C141.607 611.8 140.401 610.595 138.915 610.595C138.872 610.595 138.85 610.595 138.807 610.595C138.936 610.272 139.022 609.928 139.022 609.562C139.022 608.141 137.881 607 136.459 607C135.447 607 134.586 607.603 134.177 608.464C133.767 607.603 132.906 607 131.894 607C130.881 607 130.02 607.603 129.611 608.464C129.202 607.603 128.34 607 127.328 607C125.907 607 124.765 608.141 124.765 609.562C124.765 609.928 124.851 610.272 124.98 610.595C124.937 610.595 124.916 610.595 124.873 610.595C123.387 610.595 122.181 611.8 122.181 613.286C122.181 613.716 122.31 614.125 122.504 614.491C121.168 614.75 120.156 615.848 120.156 617.247C120.156 618.818 121.448 620.11 123.021 620.11C123.947 620.11 124.722 619.658 125.239 618.991C125.756 619.658 126.553 620.11 127.457 620.11C128.362 620.11 129.159 619.658 129.675 618.991C130.192 619.658 130.989 620.11 131.894 620.11C132.798 620.11 133.595 619.658 134.112 618.991C134.629 619.658 135.426 620.11 136.33 620.11C137.235 620.11 138.032 619.658 138.549 618.991C139.065 619.658 139.862 620.11 140.767 620.11C142.339 620.11 143.631 618.818 143.631 617.247C143.631 615.848 142.597 614.728 141.284 614.491Z" fill="#589419"/>
<path d="M141.284 614.491C141.477 614.125 141.607 613.738 141.607 613.286C141.607 611.8 140.401 610.595 138.915 610.595C138.871 610.595 138.85 610.595 138.807 610.595C138.936 610.272 139.022 609.928 139.022 609.562C139.022 608.141 137.881 607 136.459 607C135.447 607 134.586 607.603 134.176 608.464C133.767 607.603 132.906 607 131.894 607V620.088C132.82 620.088 133.595 619.636 134.112 618.969C134.629 619.636 135.426 620.088 136.33 620.088C137.235 620.088 138.032 619.636 138.548 618.969C139.065 619.636 139.862 620.088 140.767 620.088C142.339 620.088 143.631 618.797 143.631 617.225C143.631 615.826 142.597 614.707 141.284 614.47V614.491Z" fill="#508216"/>
<path d="M132.044 618.947H120.479C120.199 618.947 119.962 619.206 120.005 619.485L122.094 635.114H142.016L144.105 619.485C144.148 619.206 143.911 618.947 143.631 618.947H132.066H132.044Z" fill="#7C3422"/>
<path d="M143.609 618.947H131.894V635.114H141.973L144.083 619.485C144.126 619.206 143.889 618.947 143.609 618.947Z" fill="#6D2C1F"/>
<path d="M395.168 614.432C395.362 614.066 395.492 613.678 395.492 613.226C395.492 611.741 394.285 610.535 392.799 610.535C392.756 610.535 392.735 610.535 392.692 610.535C392.821 610.213 392.907 609.868 392.907 609.502C392.907 608.081 391.766 606.94 390.344 606.94C389.332 606.94 388.471 607.543 388.061 608.404C387.652 607.543 386.791 606.94 385.778 606.94C384.766 606.94 383.905 607.543 383.496 608.404C383.086 607.543 382.225 606.94 381.213 606.94C379.791 606.94 378.65 608.081 378.65 609.502C378.65 609.868 378.736 610.213 378.865 610.535C378.822 610.535 378.801 610.535 378.758 610.535C377.272 610.535 376.065 611.741 376.065 613.226C376.065 613.657 376.195 614.066 376.389 614.432C375.053 614.69 374.041 615.788 374.041 617.187C374.041 618.759 375.333 620.05 376.905 620.05C377.831 620.05 378.607 619.598 379.124 618.931C379.641 619.598 380.437 620.05 381.342 620.05C382.246 620.05 383.043 619.598 383.56 618.931C384.077 619.598 384.874 620.05 385.778 620.05C386.683 620.05 387.48 619.598 387.997 618.931C388.514 619.598 389.311 620.05 390.215 620.05C391.12 620.05 391.916 619.598 392.433 618.931C392.95 619.598 393.747 620.05 394.652 620.05C396.224 620.05 397.516 618.759 397.516 617.187C397.516 615.788 396.482 614.669 395.168 614.432Z" fill="#589419"/>
<path d="M395.168 614.432C395.362 614.066 395.491 613.678 395.491 613.226C395.491 611.741 394.285 610.535 392.799 610.535C392.756 610.535 392.735 610.535 392.692 610.535C392.821 610.212 392.907 609.868 392.907 609.502C392.907 608.081 391.765 606.94 390.344 606.94C389.332 606.94 388.47 607.543 388.061 608.404C387.652 607.543 386.791 606.94 385.778 606.94V620.029C386.704 620.029 387.48 619.577 387.997 618.909C388.513 619.577 389.31 620.029 390.215 620.029C391.119 620.029 391.916 619.577 392.433 618.909C392.95 619.577 393.747 620.029 394.651 620.029C396.224 620.029 397.516 618.737 397.516 617.166C397.516 615.767 396.482 614.647 395.168 614.41V614.432Z" fill="#508216"/>
<path d="M385.929 618.888H374.364C374.084 618.888 373.847 619.146 373.89 619.426L375.979 635.055H395.9L397.989 619.426C398.032 619.146 397.796 618.888 397.516 618.888H385.95H385.929Z" fill="#7C3422"/>
<path d="M397.494 618.888H385.778V635.055H395.857L397.968 619.426C398.011 619.146 397.774 618.888 397.494 618.888Z" fill="#6D2C1F"/>
<path d="M354.464 614.432C354.658 614.066 354.787 613.678 354.787 613.226C354.787 611.741 353.581 610.535 352.095 610.535C352.052 610.535 352.031 610.535 351.988 610.535C352.117 610.213 352.203 609.868 352.203 609.502C352.203 608.081 351.062 606.94 349.64 606.94C348.628 606.94 347.766 607.543 347.357 608.404C346.948 607.543 346.087 606.94 345.074 606.94C344.062 606.94 343.201 607.543 342.792 608.404C342.382 607.543 341.521 606.94 340.509 606.94C339.087 606.94 337.946 608.081 337.946 609.502C337.946 609.868 338.032 610.213 338.161 610.535C338.118 610.535 338.097 610.535 338.053 610.535C336.567 610.535 335.361 611.741 335.361 613.226C335.361 613.657 335.491 614.066 335.684 614.432C334.349 614.69 333.337 615.788 333.337 617.187C333.337 618.759 334.629 620.05 336.201 620.05C337.127 620.05 337.903 619.598 338.42 618.931C338.936 619.598 339.733 620.05 340.638 620.05C341.542 620.05 342.339 619.598 342.856 618.931C343.373 619.598 344.17 620.05 345.074 620.05C345.979 620.05 346.776 619.598 347.293 618.931C347.81 619.598 348.606 620.05 349.511 620.05C350.415 620.05 351.212 619.598 351.729 618.931C352.246 619.598 353.043 620.05 353.947 620.05C355.52 620.05 356.812 618.759 356.812 617.187C356.812 615.788 355.778 614.669 354.464 614.432Z" fill="#589419"/>
<path d="M354.464 614.432C354.658 614.066 354.787 613.678 354.787 613.226C354.787 611.741 353.581 610.535 352.095 610.535C352.052 610.535 352.031 610.535 351.987 610.535C352.117 610.212 352.203 609.868 352.203 609.502C352.203 608.081 351.061 606.94 349.64 606.94C348.628 606.94 347.766 607.543 347.357 608.404C346.948 607.543 346.086 606.94 345.074 606.94V620.029C346 620.029 346.776 619.577 347.292 618.909C347.809 619.577 348.606 620.029 349.511 620.029C350.415 620.029 351.212 619.577 351.729 618.909C352.246 619.577 353.043 620.029 353.947 620.029C355.519 620.029 356.812 618.737 356.812 617.166C356.812 615.767 355.778 614.647 354.464 614.41V614.432Z" fill="#508216"/>
<path d="M345.225 618.888H333.66C333.38 618.888 333.143 619.146 333.186 619.426L335.275 635.055H355.196L357.285 619.426C357.328 619.146 357.091 618.888 356.811 618.888H345.246H345.225Z" fill="#7C3422"/>
<path d="M356.769 618.888H345.053V635.055H355.132L357.242 619.426C357.286 619.146 357.049 618.888 356.769 618.888Z" fill="#6D2C1F"/>
<path d="M393.768 323.149H346.107V391.153H393.768V323.149Z" fill="#FEFEF7"/>
<path d="M388.965 327.993H350.932V344.634H388.965V327.993Z" fill="#ACEBF4"/>
<path d="M388.944 344.634H350.932L388.944 327.993V344.634Z" fill="#7CE1E8"/>
<path d="M388.965 348.831H350.932V365.471H388.965V348.831Z" fill="#ACEBF4"/>
<path d="M388.944 365.471H350.932L388.944 348.831V365.471Z" fill="#7CE1E8"/>
<path d="M388.965 369.648H350.932V386.288H388.965V369.648Z" fill="#ACEBF4"/>
<path d="M388.944 386.288H350.932L388.944 369.648V386.288Z" fill="#7CE1E8"/>
<path d="M372.512 324.742H367.364V389.582H372.512V324.742Z" fill="#FEFEF7"/>
<path d="M398.98 391.153H340.917V401.443H398.98V391.153Z" fill="#616168"/>
<path d="M398.98 391.153H369.948V401.443H398.98V391.153Z" fill="#4E4E56"/>
<path d="M477.331 323.149H429.67V391.153H477.331V323.149Z" fill="#FEFEF7"/>
<path d="M472.528 327.993H434.494V344.634H472.528V327.993Z" fill="#ACEBF4"/>
<path d="M472.528 344.634H434.494L472.528 327.993V344.634Z" fill="#7CE1E8"/>
<path d="M472.528 348.831H434.494V365.471H472.528V348.831Z" fill="#ACEBF4"/>
<path d="M472.528 365.471H434.494L472.528 348.831V365.471Z" fill="#7CE1E8"/>
<path d="M472.528 369.648H434.494V386.288H472.528V369.648Z" fill="#ACEBF4"/>
<path d="M472.528 386.288H434.494L472.528 369.648V386.288Z" fill="#7CE1E8"/>
<path d="M456.074 324.742H450.927V389.582H456.074V324.742Z" fill="#FEFEF7"/>
<path d="M482.542 391.153H424.479V401.443H482.542V391.153Z" fill="#616168"/>
<path d="M482.542 391.153H453.511V401.443H482.542V391.153Z" fill="#4E4E56"/>
<path d="M560.893 323.149H513.232V391.153H560.893V323.149Z" fill="#FEFEF7"/>
<path d="M556.09 327.993H518.057V344.634H556.09V327.993Z" fill="#ACEBF4"/>
<path d="M556.09 344.634H518.057L556.09 327.993V344.634Z" fill="#7CE1E8"/>
<path d="M556.09 348.831H518.057V365.471H556.09V348.831Z" fill="#ACEBF4"/>
<path d="M556.09 365.471H518.057L556.09 348.831V365.471Z" fill="#7CE1E8"/>
<path d="M556.09 369.648H518.057V386.288H556.09V369.648Z" fill="#ACEBF4"/>
<path d="M556.09 386.288H518.057L556.09 369.648V386.288Z" fill="#7CE1E8"/>
<path d="M539.637 324.742H534.489V389.582H539.637V324.742Z" fill="#FEFEF7"/>
<path d="M566.105 391.153H508.042V401.443H566.105V391.153Z" fill="#616168"/>
<path d="M566.105 391.153H537.073V401.443H566.105V391.153Z" fill="#4E4E56"/>
<path d="M393.768 427.319H346.107V495.323H393.768V427.319Z" fill="#FEFEF7"/>
<path d="M388.965 432.184H350.932V448.824H388.965V432.184Z" fill="#ACEBF4"/>
<path d="M388.944 448.824H350.932L388.944 432.184V448.824Z" fill="#7CE1E8"/>
<path d="M388.965 453H350.932V469.641H388.965V453Z" fill="#ACEBF4"/>
<path d="M388.944 469.641H350.932L388.944 453V469.641Z" fill="#7CE1E8"/>
<path d="M388.965 473.839H350.932V490.479H388.965V473.839Z" fill="#ACEBF4"/>
<path d="M388.944 490.479H350.932L388.944 473.839V490.479Z" fill="#7CE1E8"/>
<path d="M372.512 428.912H367.364V493.751H372.512V428.912Z" fill="#FEFEF7"/>
<path d="M398.98 495.323H340.917V505.591H398.98V495.323Z" fill="#616168"/>
<path d="M398.98 495.323H369.948V505.613H398.98V495.323Z" fill="#4E4E56"/>
<path d="M393.768 536.805H346.107V584.681H393.768V536.805Z" fill="#FEFEF7"/>
<path d="M388.965 542.058H350.932V558.698H388.965V542.058Z" fill="#ACEBF4"/>
<path d="M388.944 558.698H350.932L388.944 542.058V558.698Z" fill="#7CE1E8"/>
<path d="M388.965 562.875H350.932V579.515H388.965V562.875Z" fill="#ACEBF4"/>
<path d="M388.944 579.515H350.932L388.944 562.875V579.515Z" fill="#7CE1E8"/>
<path d="M372.512 537.925H367.364V583.584H372.512V537.925Z" fill="#FEFEF7"/>
<path d="M398.98 584.466H340.917V594.734H398.98V584.466Z" fill="#616168"/>
<path d="M398.98 584.466H369.948V594.756H398.98V584.466Z" fill="#4E4E56"/>
<path d="M477.395 536.805H429.734V584.681H477.395V536.805Z" fill="#FEFEF7"/>
<path d="M472.592 542.058H434.559V558.698H472.592V542.058Z" fill="#ACEBF4"/>
<path d="M472.592 558.698H434.559L472.592 542.058V558.698Z" fill="#7CE1E8"/>
<path d="M472.592 562.875H434.559V579.515H472.592V562.875Z" fill="#ACEBF4"/>
<path d="M472.592 579.515H434.559L472.592 562.875V579.515Z" fill="#7CE1E8"/>
<path d="M456.138 537.925H450.991V583.584H456.138V537.925Z" fill="#FEFEF7"/>
<path d="M482.607 584.466H424.544V594.734H482.607V584.466Z" fill="#616168"/>
<path d="M482.607 584.466H453.575V594.756H482.607V584.466Z" fill="#4E4E56"/>
<path d="M477.331 427.319H429.67V495.323H477.331V427.319Z" fill="#FEFEF7"/>
<path d="M472.528 432.184H434.494V448.824H472.528V432.184Z" fill="#ACEBF4"/>
<path d="M472.528 448.824H434.494L472.528 432.184V448.824Z" fill="#7CE1E8"/>
<path d="M472.528 453H434.494V469.641H472.528V453Z" fill="#ACEBF4"/>
<path d="M472.528 469.641H434.494L472.528 453V469.641Z" fill="#7CE1E8"/>
<path d="M472.528 473.839H434.494V490.479H472.528V473.839Z" fill="#ACEBF4"/>
<path d="M472.528 490.479H434.494L472.528 473.839V490.479Z" fill="#7CE1E8"/>
<path d="M456.074 428.912H450.927V493.751H456.074V428.912Z" fill="#FEFEF7"/>
<path d="M482.542 495.323H424.479V505.591H482.542V495.323Z" fill="#616168"/>
<path d="M482.542 495.323H453.511V505.613H482.542V495.323Z" fill="#4E4E56"/>
<path d="M560.893 427.319H513.232V495.323H560.893V427.319Z" fill="#FEFEF7"/>
<path d="M556.09 432.184H518.057V448.824H556.09V432.184Z" fill="#ACEBF4"/>
<path d="M556.09 448.824H518.057L556.09 432.184V448.824Z" fill="#7CE1E8"/>
<path d="M556.09 453H518.057V469.641H556.09V453Z" fill="#ACEBF4"/>
<path d="M556.09 469.641H518.057L556.09 453V469.641Z" fill="#7CE1E8"/>
<path d="M556.09 473.839H518.057V490.479H556.09V473.839Z" fill="#ACEBF4"/>
<path d="M556.09 490.479H518.057L556.09 473.839V490.479Z" fill="#7CE1E8"/>
<path d="M539.637 428.912H534.489V493.751H539.637V428.912Z" fill="#FEFEF7"/>
<path d="M566.105 495.323H508.042V505.591H566.105V495.323Z" fill="#616168"/>
<path d="M566.105 495.323H537.073V505.613H566.105V495.323Z" fill="#4E4E56"/>
<path d="M589.859 416.555H319.682V420.15H589.859V416.555Z" fill="#FEFEF7"/>
<path d="M589.859 523.265H320.479V526.86H589.859V523.265Z" fill="#FEFEF7"/>
<path d="M589.859 313.118H318.906V316.713H589.859V313.118Z" fill="#FEFEF7"/>
<path d="M589.127 214.718H318.175V218.313H589.127V214.718Z" fill="#FEFEF7"/>
<path d="M589.859 110.118H317.27V113.713H589.859V110.118Z" fill="#FEFEF7"/>
<path d="M453.511 34.666V46.2906L596.04 100.001V88.1391L453.511 34.666Z" fill="#4E4E56"/>
<path d="M453.511 34.666V46.2906L310.96 100.001V88.1391L453.511 34.666Z" fill="#616168"/>
<path d="M409.189 223.824H361.528V291.828H409.189V223.824Z" fill="#FEFEF7"/>
<path d="M383 229.292H366.353V245.932H383V229.292Z" fill="#ACEBF4"/>
<path d="M383 245.932H366.353L383 229.292V245.932Z" fill="#7CE1E8"/>
<path d="M404.386 229.292H387.738V245.932H404.386V229.292Z" fill="#ACEBF4"/>
<path d="M383 249.505H366.353V266.146H383V249.505Z" fill="#ACEBF4"/>
<path d="M404.386 249.505H387.738V266.146H404.386V249.505Z" fill="#ACEBF4"/>
<path d="M383 269.719H366.353V286.36H383V269.719Z" fill="#ACEBF4"/>
<path d="M404.386 269.719H387.738V286.36H404.386V269.719Z" fill="#ACEBF4"/>
<path d="M404.386 245.932H387.738L404.386 229.292V245.932Z" fill="#7CE1E8"/>
<path d="M383 266.146H366.353L383 249.505V266.146Z" fill="#7CE1E8"/>
<path d="M404.386 266.146H387.738L404.386 249.505V266.146Z" fill="#7CE1E8"/>
<path d="M383 286.36H366.353L383 269.719V286.36Z" fill="#7CE1E8"/>
<path d="M404.386 286.36H387.738L404.386 269.719V286.36Z" fill="#7CE1E8"/>
<path d="M434.796 223.824H409.188V291.828H434.796V223.824Z" fill="#D17200"/>
<path d="M361.528 223.824H335.921V291.828H361.528V223.824Z" fill="#D17200"/>
<path d="M432.556 226.256H411.429V229.27H432.556V226.256Z" fill="#FEFEF7"/>
<path d="M432.556 230.885H411.429V233.899H432.556V230.885Z" fill="#FEFEF7"/>
<path d="M432.556 235.513H411.429V238.527H432.556V235.513Z" fill="#FEFEF7"/>
<path d="M432.556 240.141H411.429V243.155H432.556V240.141Z" fill="#FEFEF7"/>
<path d="M432.556 244.748H411.429V247.762H432.556V244.748Z" fill="#FEFEF7"/>
<path d="M432.556 249.376H411.429V252.39H432.556V249.376Z" fill="#FEFEF7"/>
<path d="M432.556 254.005H411.429V257.019H432.556V254.005Z" fill="#FEFEF7"/>
<path d="M432.556 258.633H411.429V261.647H432.556V258.633Z" fill="#FEFEF7"/>
<path d="M432.556 263.261H411.429V266.275H432.556V263.261Z" fill="#FEFEF7"/>
<path d="M432.556 267.89H411.429V270.903H432.556V267.89Z" fill="#FEFEF7"/>
<path d="M432.556 272.518H411.429V275.532H432.556V272.518Z" fill="#FEFEF7"/>
<path d="M432.556 277.146H411.429V280.16H432.556V277.146Z" fill="#FEFEF7"/>
<path d="M432.556 281.774H411.429V284.788H432.556V281.774Z" fill="#FEFEF7"/>
<path d="M432.556 286.381H411.429V289.395H432.556V286.381Z" fill="#FEFEF7"/>
<path d="M359.289 226.256H338.161V229.27H359.289V226.256Z" fill="#FEFEF7"/>
<path d="M359.289 230.885H338.161V233.899H359.289V230.885Z" fill="#FEFEF7"/>
<path d="M359.289 235.513H338.161V238.527H359.289V235.513Z" fill="#FEFEF7"/>
<path d="M359.289 240.141H338.161V243.155H359.289V240.141Z" fill="#FEFEF7"/>
<path d="M359.289 244.748H338.161V247.762H359.289V244.748Z" fill="#FEFEF7"/>
<path d="M359.289 249.376H338.161V252.39H359.289V249.376Z" fill="#FEFEF7"/>
<path d="M359.289 254.005H338.161V257.019H359.289V254.005Z" fill="#FEFEF7"/>
<path d="M359.289 258.633H338.161V261.647H359.289V258.633Z" fill="#FEFEF7"/>
<path d="M359.289 263.261H338.161V266.275H359.289V263.261Z" fill="#FEFEF7"/>
<path d="M359.289 267.89H338.161V270.903H359.289V267.89Z" fill="#FEFEF7"/>
<path d="M359.289 272.518H338.161V275.532H359.289V272.518Z" fill="#FEFEF7"/>
<path d="M359.289 277.146H338.161V280.16H359.289V277.146Z" fill="#FEFEF7"/>
<path d="M359.289 281.774H338.161V284.788H359.289V281.774Z" fill="#FEFEF7"/>
<path d="M359.289 286.381H338.161V289.395H359.289V286.381Z" fill="#FEFEF7"/>
<path d="M545.602 223.824H497.941V291.828H545.602V223.824Z" fill="#FEFEF7"/>
<path d="M519.413 229.292H502.766V245.932H519.413V229.292Z" fill="#ACEBF4"/>
<path d="M519.413 245.932H502.766L519.413 229.292V245.932Z" fill="#7CE1E8"/>
<path d="M540.778 229.292H524.13V245.932H540.778V229.292Z" fill="#ACEBF4"/>
<path d="M519.413 249.505H502.766V266.146H519.413V249.505Z" fill="#ACEBF4"/>
<path d="M540.778 249.505H524.13V266.146H540.778V249.505Z" fill="#ACEBF4"/>
<path d="M519.413 269.719H502.766V286.36H519.413V269.719Z" fill="#ACEBF4"/>
<path d="M540.778 269.719H524.13V286.36H540.778V269.719Z" fill="#ACEBF4"/>
<path d="M540.778 245.932H524.13L540.778 229.292V245.932Z" fill="#7CE1E8"/>
<path d="M519.413 266.146H502.766L519.413 249.505V266.146Z" fill="#7CE1E8"/>
<path d="M540.778 266.146H524.13L540.778 249.505V266.146Z" fill="#7CE1E8"/>
<path d="M519.413 286.36H502.766L519.413 269.719V286.36Z" fill="#7CE1E8"/>
<path d="M540.778 286.36H524.13L540.778 269.719V286.36Z" fill="#7CE1E8"/>
<path d="M571.209 223.824H545.602V291.828H571.209V223.824Z" fill="#D17200"/>
<path d="M497.941 223.824H472.334V291.828H497.941V223.824Z" fill="#D17200"/>
<path d="M568.969 226.256H547.842V229.27H568.969V226.256Z" fill="#FEFEF7"/>
<path d="M568.969 230.885H547.842V233.899H568.969V230.885Z" fill="#FEFEF7"/>
<path d="M568.969 235.513H547.842V238.527H568.969V235.513Z" fill="#FEFEF7"/>
<path d="M568.969 240.141H547.842V243.155H568.969V240.141Z" fill="#FEFEF7"/>
<path d="M568.969 244.748H547.842V247.762H568.969V244.748Z" fill="#FEFEF7"/>
<path d="M568.969 249.376H547.842V252.39H568.969V249.376Z" fill="#FEFEF7"/>
<path d="M568.969 254.005H547.842V257.019H568.969V254.005Z" fill="#FEFEF7"/>
<path d="M568.969 258.633H547.842V261.647H568.969V258.633Z" fill="#FEFEF7"/>
<path d="M568.969 263.261H547.842V266.275H568.969V263.261Z" fill="#FEFEF7"/>
<path d="M568.969 267.89H547.842V270.903H568.969V267.89Z" fill="#FEFEF7"/>
<path d="M568.969 272.518H547.842V275.532H568.969V272.518Z" fill="#FEFEF7"/>
<path d="M568.969 277.146H547.842V280.16H568.969V277.146Z" fill="#FEFEF7"/>
<path d="M568.969 281.774H547.842V284.788H568.969V281.774Z" fill="#FEFEF7"/>
<path d="M568.969 286.381H547.842V289.395H568.969V286.381Z" fill="#FEFEF7"/>
<path d="M495.702 226.256H474.574V229.27H495.702V226.256Z" fill="#FEFEF7"/>
<path d="M495.702 230.885H474.574V233.899H495.702V230.885Z" fill="#FEFEF7"/>
<path d="M495.702 235.513H474.574V238.527H495.702V235.513Z" fill="#FEFEF7"/>
<path d="M495.702 240.141H474.574V243.155H495.702V240.141Z" fill="#FEFEF7"/>
<path d="M495.702 244.748H474.574V247.762H495.702V244.748Z" fill="#FEFEF7"/>
<path d="M495.702 249.376H474.574V252.39H495.702V249.376Z" fill="#FEFEF7"/>
<path d="M495.702 254.005H474.574V257.019H495.702V254.005Z" fill="#FEFEF7"/>
<path d="M495.702 258.633H474.574V261.647H495.702V258.633Z" fill="#FEFEF7"/>
<path d="M495.702 263.261H474.574V266.275H495.702V263.261Z" fill="#FEFEF7"/>
<path d="M495.702 267.89H474.574V270.903H495.702V267.89Z" fill="#FEFEF7"/>
<path d="M495.702 272.518H474.574V275.532H495.702V272.518Z" fill="#FEFEF7"/>
<path d="M495.702 277.146H474.574V280.16H495.702V277.146Z" fill="#FEFEF7"/>
<path d="M495.702 281.774H474.574V284.788H495.702V281.774Z" fill="#FEFEF7"/>
<path d="M495.702 286.381H474.574V289.395H495.702V286.381Z" fill="#FEFEF7"/>
<path d="M393.833 130.935H346.173V198.939H393.833V130.935Z" fill="#FEFEF7"/>
<path d="M389.031 135.8H350.997V152.441H389.031V135.8Z" fill="#ACEBF4"/>
<path d="M367.645 157.37H350.997V193.449H367.645V157.37Z" fill="#ACEBF4"/>
<path d="M389.009 157.37H372.361V193.449H389.009V157.37Z" fill="#ACEBF4"/>
<path d="M389.009 152.441H350.997L389.009 135.8V152.441Z" fill="#7CE1E8"/>
<path d="M367.645 193.428H350.997L367.645 157.37V193.428Z" fill="#7CE1E8"/>
<path d="M389.009 193.428H372.361L389.009 157.37V193.428Z" fill="#7CE1E8"/>
<path d="M398.894 122.625H341.09V130.935H398.894V122.625Z" fill="#616168"/>
<path d="M477.395 130.935H429.734V198.939H477.395V130.935Z" fill="#FEFEF7"/>
<path d="M472.592 135.8H434.559V152.441H472.592V135.8Z" fill="#ACEBF4"/>
<path d="M451.206 157.37H434.559V193.449H451.206V157.37Z" fill="#ACEBF4"/>
<path d="M472.592 157.37H455.944V193.449H472.592V157.37Z" fill="#ACEBF4"/>
<path d="M472.592 152.441H434.559L472.592 135.8V152.441Z" fill="#7CE1E8"/>
<path d="M451.206 193.428H434.559L451.206 157.37V193.428Z" fill="#7CE1E8"/>
<path d="M472.592 193.428H455.944L472.592 157.37V193.428Z" fill="#7CE1E8"/>
<path d="M482.477 122.625H424.651V130.935H482.477V122.625Z" fill="#616168"/>
<path d="M560.957 130.935H513.297V198.939H560.957V130.935Z" fill="#FEFEF7"/>
<path d="M556.155 135.8H518.121V152.441H556.155V135.8Z" fill="#ACEBF4"/>
<path d="M534.769 157.37H518.121V193.449H534.769V157.37Z" fill="#ACEBF4"/>
<path d="M556.155 157.37H539.507V193.449H556.155V157.37Z" fill="#ACEBF4"/>
<path d="M556.155 152.441H518.121L556.155 135.8V152.441Z" fill="#7CE1E8"/>
<path d="M534.769 193.428H518.121L534.769 157.37V193.428Z" fill="#7CE1E8"/>
<path d="M556.155 193.428H539.507L556.155 157.37V193.428Z" fill="#7CE1E8"/>
<path d="M566.04 122.625H508.235V130.935H566.04V122.625Z" fill="#616168"/>
</g>
<defs>
<clipPath id="clip0_648_836">
<rect width="830" height="631" fill="white" transform="translate(59 14)"/>
</clipPath>
</defs>
</svg>
