<svg width="941" height="646" viewBox="0 0 941 646" fill="none" xmlns="http://www.w3.org/2000/svg">
<g clip-path="url(#clip0_682_532)">
<rect width="940.11" height="645.32" rx="60" fill="#DFF5FF"/>
<path d="M943.996 -139.998H-4V807.998H943.996V-139.998Z" fill="#E2EFF5"/>
<g clip-path="url(#clip1_682_532)">
<path d="M738.958 84.6992L749.54 108.428L727.199 118.244L719.592 100.87C718.039 97.3204 719.651 93.1823 723.195 91.625L738.958 84.6992Z" fill="#2D3E53"/>
<path d="M757.274 125.772L802.952 228.196L779.796 238.369L734.816 135.64L757.274 125.772Z" fill="#CC0966"/>
<path d="M816.756 259.147L826.948 282L806.753 263.312L816.756 259.147Z" fill="#6D0836"/>
<path d="M802.952 228.195L816.756 259.147L806.753 263.312L779.796 238.369L802.952 228.195Z" fill="#FFF0BE"/>
<path d="M749.54 108.428L757.275 125.772L734.817 135.64L727.199 118.243L749.54 108.428Z" fill="#DFF5FF"/>
<path d="M766.635 80.1999L774.242 97.5731L749.54 108.426L738.958 84.6977L757.406 76.5928C760.949 75.0369 765.08 76.652 766.635 80.2013V80.1999Z" fill="#233444"/>
<path d="M774.242 97.5747L781.858 114.97L758.339 125.304L757.275 125.772L749.54 108.428L774.242 97.5747Z" fill="#C1DFEA"/>
<path d="M781.858 114.97L826.838 217.699L802.952 228.196L757.274 125.772L758.338 125.304L781.858 114.97Z" fill="#A00E46"/>
<path d="M826.839 217.699L826.902 254.922L816.756 259.147L802.952 228.195L826.839 217.699Z" fill="#FFD19C"/>
<path d="M826.901 254.922L826.947 282L816.756 259.147L826.901 254.922Z" fill="#560023"/>
</g>
<g clip-path="url(#clip2_682_532)">
<path d="M879.313 279.862L881.986 301.477L861.671 303.876L859.827 288.084C859.451 284.858 861.757 281.935 864.979 281.554L879.313 279.862Z" fill="#2D3E53"/>
<path d="M883.941 317.276L895.482 410.577L874.425 413.063L863.519 319.688L883.941 317.276Z" fill="#CC0966"/>
<path d="M898.969 438.772L901.544 459.589L889.929 439.662L898.969 438.772Z" fill="#6D0836"/>
<path d="M895.481 410.576L898.969 438.772L889.93 439.661L874.425 413.063L895.481 410.576Z" fill="#FFF0BE"/>
<path d="M881.987 301.476L883.941 317.276L863.519 319.688L861.672 303.875L881.987 301.476Z" fill="#DFF5FF"/>
<path d="M902.604 283.032L904.449 298.823L881.987 301.476L879.314 279.861L896.089 277.88C899.31 277.5 902.227 279.807 902.604 283.033L902.604 283.032Z" fill="#233444"/>
<path d="M904.449 298.824L906.295 314.635L884.909 317.161L883.941 317.275L881.987 301.476L904.449 298.824Z" fill="#C1DFEA"/>
<path d="M906.295 314.635L917.202 408.011L895.482 410.577L883.941 317.276L884.908 317.161L906.295 314.635Z" fill="#A00E46"/>
<path d="M917.202 408.011L908.138 437.869L898.97 438.772L895.482 410.577L917.202 408.011Z" fill="#FFD19C"/>
<path d="M908.138 437.869L901.544 459.589L898.969 438.772L908.138 437.869Z" fill="#560023"/>
</g>
<g clip-path="url(#clip3_682_532)">
<path d="M368.989 254.699L358.407 278.428L380.748 288.244L388.355 270.87C389.908 267.32 388.296 263.182 384.753 261.625L368.989 254.699Z" fill="#2D3E53"/>
<path d="M350.673 295.772L304.995 398.196L328.152 408.369L373.131 305.64L350.673 295.772Z" fill="#CC0966"/>
<path d="M291.191 429.147L281 452L301.194 433.312L291.191 429.147Z" fill="#6D0836"/>
<path d="M304.995 398.195L291.191 429.147L301.194 433.312L328.151 408.369L304.995 398.195Z" fill="#FFF0BE"/>
<path d="M358.407 278.428L350.672 295.772L373.131 305.64L380.748 288.243L358.407 278.428Z" fill="#DFF5FF"/>
<path d="M341.313 250.2L333.706 267.573L358.407 278.426L368.989 254.698L350.541 246.593C346.998 245.037 342.867 246.652 341.313 250.201V250.2Z" fill="#233444"/>
<path d="M333.705 267.575L326.089 284.97L349.609 295.304L350.673 295.772L358.407 278.428L333.705 267.575Z" fill="#C1DFEA"/>
<path d="M326.089 284.97L281.109 387.699L304.995 398.196L350.673 295.772L349.609 295.304L326.089 284.97Z" fill="#A00E46"/>
<path d="M281.109 387.699L281.046 424.922L291.191 429.147L304.995 398.195L281.109 387.699Z" fill="#FFD19C"/>
<path d="M281.046 424.922L281 452L291.191 429.147L281.046 424.922Z" fill="#560023"/>
</g>
<g clip-path="url(#clip4_682_532)">
<path d="M497.758 408.088L494.472 433.86L518.696 436.813L520.966 417.982C521.429 414.136 518.691 410.639 514.849 410.17L497.758 408.088Z" fill="#2D3E53"/>
<path d="M492.07 452.699L477.888 563.946L502.995 567.005L516.42 455.667L492.07 452.699Z" fill="#CC0966"/>
<path d="M473.603 597.565L470.439 622.386L484.382 598.666L473.603 597.565Z" fill="#6D0836"/>
<path d="M477.889 563.946L473.603 597.564L484.382 598.665L502.996 567.005L477.889 563.946Z" fill="#FFF0BE"/>
<path d="M494.472 433.86L492.071 452.698L516.421 455.667L518.695 436.812L494.472 433.86Z" fill="#DFF5FF"/>
<path d="M469.959 411.766L467.688 430.595L494.471 433.859L497.757 408.087L477.755 405.649C473.913 405.182 470.424 407.92 469.96 411.767L469.959 411.766Z" fill="#233444"/>
<path d="M467.69 430.596L465.417 449.449L490.917 452.558L492.071 452.699L494.472 433.86L467.69 430.596Z" fill="#C1DFEA"/>
<path d="M465.416 449.45L451.99 560.788L477.889 563.946L492.071 452.699L490.917 452.558L465.416 449.45Z" fill="#A00E46"/>
<path d="M451.99 560.788L462.67 596.446L473.603 597.564L477.889 563.946L451.99 560.788Z" fill="#FFD19C"/>
<path d="M462.67 596.446L470.439 622.385L473.603 597.564L462.67 596.446Z" fill="#560023"/>
</g>
<g clip-path="url(#clip5_682_532)">
<path d="M65.3919 290.164L70.5273 301.901L81.5248 297.017L77.7176 288.475C76.9397 286.73 74.8958 285.943 73.1515 286.718L65.3919 290.164Z" fill="#2D3E53"/>
<path d="M74.2812 310.48L96.4478 361.145L107.846 356.082L85.3362 305.571L74.2812 310.48Z" fill="#CC0966"/>
<path d="M103.146 376.455L108.092 387.759L107.986 374.192L103.146 376.455Z" fill="#6D0836"/>
<path d="M96.4477 361.145L103.146 376.455L107.986 374.192L107.846 356.082L96.4477 361.145Z" fill="#FFF0BE"/>
<path d="M70.5271 301.901L74.2809 310.48L85.3359 305.571L81.5241 297.017L70.5271 301.901Z" fill="#DFF5FF"/>
<path d="M54.5604 298.759L58.3671 307.301L70.5264 301.901L65.391 290.164L56.3102 294.197C54.5664 294.972 53.7833 297.014 54.5608 298.759L54.5604 298.759Z" fill="#233444"/>
<path d="M58.3681 307.301L62.1799 315.854L73.7574 310.713L74.2812 310.48L70.5275 301.901L58.3681 307.301Z" fill="#C1DFEA"/>
<path d="M62.1799 315.855L84.6894 366.366L96.4478 361.145L74.2812 310.481L73.7574 310.713L62.1799 315.855Z" fill="#A00E46"/>
<path d="M84.6887 366.366L98.2364 378.751L103.146 376.456L96.4471 361.145L84.6887 366.366Z" fill="#FFD19C"/>
<path d="M98.2373 378.75L108.092 387.759L103.147 376.455L98.2373 378.75Z" fill="#560023"/>
</g>
<g clip-path="url(#clip6_682_532)">
<path d="M767.362 472.166L759.862 488.983L775.696 495.94L781.088 483.626C782.189 481.111 781.046 478.178 778.535 477.074L767.362 472.166Z" fill="#2D3E53"/>
<path d="M754.38 501.275L722.007 573.867L738.418 581.077L770.297 508.269L754.38 501.275Z" fill="#CC0966"/>
<path d="M712.224 595.804L705.001 612L719.313 598.755L712.224 595.804Z" fill="#6D0836"/>
<path d="M722.007 573.867L712.224 595.804L719.313 598.755L738.419 581.077L722.007 573.867Z" fill="#FFF0BE"/>
<path d="M759.862 488.983L754.381 501.275L770.297 508.269L775.696 495.939L759.862 488.983Z" fill="#DFF5FF"/>
<path d="M747.747 468.977L742.355 481.29L759.862 488.982L767.362 472.165L754.287 466.42C751.776 465.318 748.849 466.462 747.747 468.978V468.977Z" fill="#233444"/>
<path d="M742.355 481.291L736.957 493.619L753.626 500.944L754.381 501.275L759.862 488.983L742.355 481.291Z" fill="#C1DFEA"/>
<path d="M736.957 493.62L705.077 566.428L722.006 573.867L754.38 501.275L753.626 500.944L736.957 493.62Z" fill="#A00E46"/>
<path d="M705.078 566.428L705.033 592.809L712.223 595.804L722.007 573.867L705.078 566.428Z" fill="#FFD19C"/>
<path d="M705.033 592.809L705.001 612L712.224 595.804L705.033 592.809Z" fill="#560023"/>
</g>
<g clip-path="url(#clip7_682_532)">
<path d="M240.795 73.1292L227.23 96.6855L205.2 83.7604L215.219 66.6322C217.266 63.1335 221.757 61.959 225.251 64.0089L240.795 73.1292Z" fill="#2D3E53"/>
<path d="M217.314 113.905L158.759 215.585L135.927 202.188L195.168 100.911L217.314 113.905Z" fill="#077CCC"/>
<path d="M141.065 246.314L128 269L131.396 240.385L141.065 246.314Z" fill="#05455B"/>
<path d="M158.759 215.585L141.065 246.314L131.396 240.385L135.927 202.188L158.759 215.585Z" fill="#FFF0BE"/>
<path d="M227.23 96.6858L217.314 113.905L195.169 100.911L205.2 83.7607L227.23 96.6858Z" fill="#DFF5FF"/>
<path d="M261.606 93.8486L251.587 110.977L227.229 96.6856L240.794 73.1294L258.987 83.8019C262.48 85.8518 263.653 90.3499 261.606 93.8486Z" fill="#233444"/>
<path d="M251.588 110.977L241.556 128.127L218.363 114.52L217.314 113.905L227.23 96.6855L251.588 110.977Z" fill="#C1DFEA"/>
<path d="M241.555 128.127L182.314 229.405L158.759 215.585L217.314 113.905L218.363 114.52L241.555 128.127Z" fill="#0D6DA3"/>
<path d="M182.314 229.405L150.873 252.327L141.065 246.314L158.759 215.585L182.314 229.405Z" fill="#FFD19C"/>
<path d="M150.872 252.327L128 269L141.065 246.313L150.872 252.327Z" fill="#02354C"/>
</g>
<g clip-path="url(#clip8_682_532)">
<path d="M586.377 259.032L595.44 284.66L571.291 292.98L564.803 274.227C563.478 270.396 565.508 266.222 569.338 264.902L586.377 259.032Z" fill="#2D3E53"/>
<path d="M602.064 303.393L641.181 414.016L616.153 422.638L577.788 311.756L602.064 303.393Z" fill="#077CCC"/>
<path d="M653.005 447.445L661.732 472.127L642.211 450.931L653.005 447.445Z" fill="#05455B"/>
<path d="M641.182 414.016L653.005 447.445L642.211 450.931L616.153 422.638L641.182 414.016Z" fill="#FFF0BE"/>
<path d="M595.44 284.66L602.065 303.393L577.788 311.756L571.291 292.98L595.44 284.66Z" fill="#DFF5FF"/>
<path d="M615.651 256.709L622.14 275.461L595.439 284.66L586.376 259.032L606.318 252.161C610.147 250.842 614.326 252.878 615.651 256.709Z" fill="#233444"/>
<path d="M622.14 275.461L628.637 294.238L603.214 302.997L602.064 303.393L595.44 284.66L622.14 275.461Z" fill="#C1DFEA"/>
<path d="M628.637 294.237L667.002 405.119L641.182 414.015L602.064 303.393L603.214 302.997L628.637 294.237Z" fill="#0D6DA3"/>
<path d="M667.002 405.119L663.952 443.91L653.005 447.445L641.182 414.015L667.002 405.119Z" fill="#FFD19C"/>
<path d="M663.952 443.91L661.732 472.127L653.004 447.445L663.952 443.91Z" fill="#02354C"/>
</g>
<g clip-path="url(#clip9_682_532)">
<path d="M720.055 213.134L715.349 226.31L703.005 221.788L706.505 212.193C707.221 210.233 709.387 209.226 711.345 209.943L720.055 213.134Z" fill="#2D3E53"/>
<path d="M711.909 235.941L691.594 292.815L678.8 288.128L699.5 231.395L711.909 235.941Z" fill="#077CCC"/>
<path d="M685.455 310.003L680.923 322.692L680.014 307.888L685.455 310.003Z" fill="#05455B"/>
<path d="M691.594 292.815L685.456 310.003L680.015 307.888L678.801 288.128L691.594 292.815Z" fill="#FFF0BE"/>
<path d="M715.348 226.31L711.908 235.942L699.499 231.395L703.004 221.788L715.348 226.31Z" fill="#DFF5FF"/>
<path d="M732.497 221.715L728.997 231.31L715.348 226.31L720.054 213.134L730.248 216.868C732.206 217.585 733.213 219.755 732.497 221.715Z" fill="#233444"/>
<path d="M728.997 231.31L725.492 240.917L712.497 236.156L711.909 235.941L715.349 226.31L728.997 231.31Z" fill="#C1DFEA"/>
<path d="M725.492 240.917L704.793 297.65L691.594 292.815L711.909 235.941L712.496 236.156L725.492 240.917Z" fill="#0D6DA3"/>
<path d="M704.792 297.65L690.975 312.147L685.456 310.003L691.594 292.815L704.792 297.65Z" fill="#FFD19C"/>
<path d="M690.975 312.147L680.923 322.692L685.456 310.002L690.975 312.147Z" fill="#02354C"/>
</g>
<g clip-path="url(#clip10_682_532)">
<path d="M158.026 455.432L164.847 474.721L146.671 480.983L141.788 466.869C140.79 463.986 142.319 460.843 145.201 459.85L158.026 455.432Z" fill="#2D3E53"/>
<path d="M169.834 488.821L199.277 572.083L180.438 578.573L151.562 495.116L169.834 488.821Z" fill="#077CCC"/>
<path d="M208.176 597.244L214.744 615.822L200.052 599.868L208.176 597.244Z" fill="#05455B"/>
<path d="M199.277 572.083L208.176 597.244L200.052 599.868L180.439 578.573L199.277 572.083Z" fill="#FFF0BE"/>
<path d="M164.847 474.721L169.833 488.821L151.561 495.115L146.671 480.983L164.847 474.721Z" fill="#DFF5FF"/>
<path d="M180.061 453.683L184.944 467.797L164.848 474.721L158.027 455.432L173.036 450.26C175.918 449.267 179.063 450.8 180.061 453.683Z" fill="#233444"/>
<path d="M184.945 467.798L189.835 481.93L170.699 488.523L169.834 488.821L164.848 474.721L184.945 467.798Z" fill="#C1DFEA"/>
<path d="M189.834 481.93L218.711 565.387L199.277 572.083L169.834 488.821L170.699 488.523L189.834 481.93Z" fill="#0D6DA3"/>
<path d="M218.71 565.387L216.415 594.584L208.175 597.244L199.276 572.083L218.71 565.387Z" fill="#FFD19C"/>
<path d="M216.415 594.584L214.744 615.822L208.175 597.245L216.415 594.584Z" fill="#02354C"/>
</g>
<g clip-path="url(#clip11_682_532)">
<path d="M597.613 55.0644L596.232 75.4772L577.063 74.0236L578.172 59.1295C578.399 56.0871 581.048 53.8077 584.087 54.0383L597.613 55.0644Z" fill="#2D3E53"/>
<path d="M595.222 90.3989L589.257 178.512L569.389 177.005L575.951 88.9369L595.222 90.3989Z" fill="#077CCC"/>
<path d="M587.457 205.139L586.125 224.799L578.958 204.328L587.457 205.139Z" fill="#05455B"/>
<path d="M589.258 178.511L587.456 205.139L578.958 204.328L569.39 177.004L589.258 178.511Z" fill="#FFF0BE"/>
<path d="M596.232 75.477L595.222 90.3985L575.952 88.9365L577.063 74.0234L596.232 75.477Z" fill="#DFF5FF"/>
<path d="M618.536 62.1907L617.426 77.0848L596.232 75.4773L597.613 55.0644L613.443 56.2641C616.483 56.4948 618.763 59.1483 618.536 62.1907Z" fill="#233444"/>
<path d="M617.426 77.0847L616.316 91.9979L596.134 90.4675L595.222 90.3987L596.232 75.4771L617.426 77.0847Z" fill="#C1DFEA"/>
<path d="M616.316 91.9981L609.754 180.066L589.258 178.512L595.222 90.3989L596.135 90.4677L616.316 91.9981Z" fill="#0D6DA3"/>
<path d="M609.754 180.065L596.075 205.962L587.456 205.139L589.257 178.511L609.754 180.065Z" fill="#FFD19C"/>
<path d="M596.075 205.962L586.125 224.799L587.456 205.139L596.075 205.962Z" fill="#02354C"/>
</g>
<g clip-path="url(#clip12_682_532)">
<path d="M392.926 459.108L383.194 477.105L366.358 467.823L373.552 454.734C375.021 452.061 378.377 451.087 381.047 452.559L392.926 459.108Z" fill="#2D3E53"/>
<path d="M376.08 490.26L334.071 567.943L316.622 558.323L359.156 480.929L376.08 490.26Z" fill="#077CCC"/>
<path d="M321.376 591.42L312.003 608.752L313.982 587.153L321.376 591.42Z" fill="#05455B"/>
<path d="M334.071 567.943L321.377 591.419L313.982 587.153L316.622 558.323L334.071 567.943Z" fill="#FFF0BE"/>
<path d="M383.195 477.105L376.081 490.26L359.157 480.929L366.359 467.823L383.195 477.105Z" fill="#DFF5FF"/>
<path d="M409.002 474.278L401.808 487.367L383.194 477.105L392.926 459.108L406.829 466.772C409.498 468.244 410.471 471.604 409.002 474.278Z" fill="#233444"/>
<path d="M401.808 487.367L394.606 500.473L376.882 490.701L376.08 490.26L383.194 477.105L401.808 487.367Z" fill="#C1DFEA"/>
<path d="M394.606 500.473L352.071 577.867L334.071 567.943L376.08 490.26L376.882 490.702L394.606 500.473Z" fill="#0D6DA3"/>
<path d="M352.072 577.867L328.876 595.746L321.376 591.42L334.071 567.943L352.072 577.867Z" fill="#FFD19C"/>
<path d="M328.876 595.746L312.003 608.752L321.376 591.42L328.876 595.746Z" fill="#02354C"/>
</g>
<g clip-path="url(#clip13_682_532)">
<path d="M439.026 119.432L445.847 138.721L427.671 144.983L422.788 130.869C421.79 127.986 423.319 124.843 426.201 123.85L439.026 119.432Z" fill="#2D3E53"/>
<path d="M450.834 152.821L480.277 236.083L461.438 242.573L432.562 159.116L450.834 152.821Z" fill="#077CCC"/>
<path d="M489.176 261.244L495.744 279.822L481.052 263.868L489.176 261.244Z" fill="#05455B"/>
<path d="M480.277 236.083L489.176 261.244L481.052 263.868L461.439 242.573L480.277 236.083Z" fill="#FFF0BE"/>
<path d="M445.847 138.721L450.833 152.821L432.561 159.115L427.671 144.983L445.847 138.721Z" fill="#DFF5FF"/>
<path d="M461.061 117.683L465.944 131.797L445.848 138.721L439.027 119.432L454.036 114.26C456.918 113.267 460.063 114.8 461.061 117.683Z" fill="#233444"/>
<path d="M465.945 131.798L470.835 145.93L451.699 152.523L450.834 152.821L445.848 138.721L465.945 131.798Z" fill="#C1DFEA"/>
<path d="M470.834 145.93L499.711 229.387L480.277 236.083L450.834 152.821L451.699 152.523L470.834 145.93Z" fill="#0D6DA3"/>
<path d="M499.71 229.387L497.415 258.584L489.175 261.244L480.276 236.083L499.71 229.387Z" fill="#FFD19C"/>
<path d="M497.415 258.584L495.744 279.822L489.175 261.245L497.415 258.584Z" fill="#02354C"/>
</g>
</g>
<defs>
<clipPath id="clip0_682_532">
<rect width="940.11" height="645.32" rx="60" fill="white"/>
</clipPath>
<clipPath id="clip1_682_532">
<rect width="107.948" height="206" fill="white" transform="translate(719 76)"/>
</clipPath>
<clipPath id="clip2_682_532">
<rect width="90.4914" height="172.688" fill="white" transform="translate(865.442 268) rotate(16.9839)"/>
</clipPath>
<clipPath id="clip3_682_532">
<rect width="107.948" height="206" fill="white" transform="matrix(-1 0 0 1 388.947 246)"/>
</clipPath>
<clipPath id="clip4_682_532">
<rect width="107.948" height="206" fill="white" transform="matrix(-0.957469 0.288536 0.288536 0.957469 514.356 394)"/>
</clipPath>
<clipPath id="clip5_682_532">
<rect width="53.2302" height="101.581" fill="white" transform="matrix(-0.673456 0.739227 0.739227 0.673456 68.8486 280)"/>
</clipPath>
<clipPath id="clip6_682_532">
<rect width="76.5066" height="146" fill="white" transform="matrix(-1 0 0 1 781.507 466)"/>
</clipPath>
<clipPath id="clip7_682_532">
<rect width="134.614" height="206" fill="white" transform="translate(128 63)"/>
</clipPath>
<clipPath id="clip8_682_532">
<rect width="134.614" height="206" fill="white" transform="translate(505.297 338.098) rotate(-49.4109)"/>
</clipPath>
<clipPath id="clip9_682_532">
<rect width="69.2864" height="106.029" fill="white" transform="translate(662 218.365) rotate(-10.2806)"/>
</clipPath>
<clipPath id="clip10_682_532">
<rect width="101.32" height="155.05" fill="white" transform="translate(97 514.942) rotate(-49.4109)"/>
</clipPath>
<clipPath id="clip11_682_532">
<rect width="101.32" height="155.05" fill="white" transform="translate(518 85.5171) rotate(-26.064)"/>
</clipPath>
<clipPath id="clip12_682_532">
<rect width="101.32" height="155.05" fill="white" transform="translate(307.855 453.757) rotate(-1.53274)"/>
</clipPath>
<clipPath id="clip13_682_532">
<rect width="101.32" height="155.05" fill="white" transform="translate(378 178.942) rotate(-49.4109)"/>
</clipPath>
</defs>
</svg>
