<svg width="941" height="646" viewBox="0 0 941 646" fill="none" xmlns="http://www.w3.org/2000/svg">
<g clip-path="url(#clip0_659_532)">
<rect width="940.11" height="645.32" rx="60" fill="#ECEEEF"/>
<path d="M943.996 -139.998H-4V807.998H943.996V-139.998Z" fill="#E3FFFA"/>
<path d="M163.53 119.127C183.798 123.166 203.971 128.929 224.524 131.205C245.626 133.537 266.918 133.631 288.002 131.072C328.86 126.104 367.994 112.624 406.937 99.9397C432.59 91.5784 458.698 82.0794 485.526 78.3064C511.008 74.723 536.301 74.9126 561.783 78.496C611.534 85.4733 659.351 103.523 709.557 107.581C769.47 112.415 827.601 93.626 887.287 93.2468C906.247 93.1331 925.169 94.2517 943.996 96.2804V-38.4488C899.042 -29.6703 854.524 -15.9054 809.589 -8.30252C767.214 -1.13567 726.45 -1.05983 684.131 -8.8334C642.268 -16.5311 601.22 -28.5328 559.091 -34.7327C531.371 -38.809 503.064 -40.231 475.174 -37.0078C448.972 -33.9743 423.432 -26.8074 398.33 -18.977C349.394 -3.71421 298.809 15.5301 246.65 12.7809C198.264 10.2403 152.742 -10.4829 104.432 -14.5024C83.5569 -16.2278 62.5304 -15.3746 42.3381 -9.42115C25.786 -4.54845 10.4664 2.90279 -4 11.9277V121.213C48.7086 102.916 107.788 108.036 163.53 119.127Z" fill="#F5FFFD"/>
<path d="M131.43 284.78C164.818 286.505 198.188 290.6 231.007 297.028C277.383 306.129 322.849 319.571 370.325 308.612C397.95 302.223 423.982 290.942 451.075 282.827C477.05 275.053 504.144 270.408 531.314 271.678C582.278 274.029 630.095 292.515 680.282 299.512C738.394 307.626 793.359 288.591 850.864 285.121C882.034 283.244 913.223 286.922 943.995 293.217V115.24C936.734 114.444 929.453 113.78 922.172 113.287C876.271 110.235 832.246 117.326 786.893 123.184C744.385 128.664 703.583 128.038 661.587 119.279C624.578 111.562 588.061 99.8447 550.349 96.0148C523.957 93.3225 496.427 93.531 470.642 100.451C444.856 107.372 419.545 115.809 394.177 124.038C345.734 139.755 295.699 154.203 244.222 151.719C193.372 149.273 144.74 131.47 93.8134 128.304C60.3492 126.218 26.6195 129.043 -3.96289 140.988V297.976C39.2657 284.059 87.5756 282.524 131.468 284.78H131.43Z" fill="#F5FFFD"/>
<path d="M181.163 476.124C199.421 478.096 217.604 480.902 235.521 484.959C254.898 489.339 273.82 495.577 293.557 498.307C332.254 503.635 370.61 497.928 408.17 488.41C463.722 474.323 517.948 455.989 575.794 454.415C630.854 452.917 685.155 462.757 738.85 473.83C753.98 476.958 769.299 481.262 784.79 482.021C798.422 482.684 812.054 481.926 825.535 479.727C852.988 475.271 879.874 467.687 907.517 464.312C919.519 462.852 931.729 462.245 943.996 462.378V312.633C924.809 308.594 905.451 305.542 885.96 304.233C840.608 301.181 797.133 312.879 752.463 318.302C711.87 323.231 673.173 318.908 633.546 309.58C595.873 300.707 557.877 289.559 518.801 290.488C461.561 291.853 412.17 322.833 356.239 330.209C302.411 337.3 250.992 318.51 198.454 310.547C154.941 303.949 110.309 300.821 66.3792 304.48C43.0585 306.414 18.695 310.187 -4 317.979V502.763C53.2969 476.409 118.728 469.393 181.163 476.143V476.124Z" fill="#F5FFFD"/>
<path d="M139.508 743.041C215.044 745.999 290.504 749.07 366.117 746.359C426.125 744.217 484.275 733.959 543.449 724.65C600.954 715.606 658.63 709.804 716.515 719.152C776.39 728.821 833.934 747.952 894.795 751.668C911.214 752.673 927.615 752.957 943.977 752.635V650.706C912.504 651.332 881.049 651.654 849.614 649.189C802.422 645.511 756.274 635.576 709.974 626.153C668.49 617.697 626.285 609.753 583.739 612.312C554.237 614.095 526.29 621.053 498.571 631.102C472.027 640.714 445.331 651.484 417.271 655.731C360.732 664.3 303.701 648.64 247.484 643.653C164.63 636.297 71.2709 632.163 -4 672.358V750.056C41.9968 737.505 92.7904 741.202 139.508 743.041Z" fill="#F5FFFD"/>
<path d="M180.802 620.466C221.377 621.717 262.046 625.149 302.203 631.007C349.394 637.89 395.201 644.45 441.824 630.628C469.695 622.381 496.314 610.114 524.432 602.738C551.128 595.723 578.771 592.272 606.396 592.955C661.588 594.32 715.131 608.711 769.129 618.702C799.503 624.315 829.687 629.187 860.573 630.951C888.406 632.524 916.163 632.278 943.996 631.614V481.736C925.7 481.414 907.878 482.722 889.828 486.173C871.133 489.756 852.647 494.42 833.858 497.454C815.467 500.43 796.602 502.573 777.983 500.393C758.549 498.117 739.419 493.169 720.231 489.32C683.316 481.926 646.079 475.195 608.406 473.602C580.421 472.427 552.208 473.526 524.584 478.456C495.48 483.632 467.078 492.183 438.581 499.956C387.124 513.987 335.079 525.116 281.707 515.485C255.296 510.726 229.833 502.175 203.251 498.004C177.503 493.946 151.32 492.031 125.25 492.922C80.3906 494.439 36.0434 503.748 -4 523.789V651.048C52.5195 623.822 118.728 618.551 180.802 620.485V620.466Z" fill="#F5FFFD"/>
<path d="M709.984 690.775C713.164 680.455 695.194 676.465 687.934 671.53C681.649 667.165 676.624 662.395 675.514 654.55C674.839 648.58 677.539 640.81 674.674 635.29C670.744 627.925 660.214 626.35 655.354 619.36C650.524 612.685 654.559 606.115 655.084 599.11C655.549 591.175 649.954 587.395 646.084 580.975C640.444 571.495 649.579 570.64 656.779 574.63C662.689 578.08 670.399 585.205 671.764 592.09C673.114 598.66 667.789 604.99 670.069 611.185C672.679 617.68 684.244 620.455 688.999 625.87C694.069 631.255 694.399 636.625 694.519 643.9C694.444 648.025 694.099 652.78 695.929 656.8C698.089 661.105 702.964 663.34 706.054 667.27C712.519 674.8 713.854 681.04 712.804 689.965" fill="#298275"/>
<path d="M651.59 579.07C654.905 581.77 658.175 584.71 660.215 588.52C662.375 592.54 662.615 596.995 662.15 601.45C661.745 605.395 660.845 609.475 661.49 613.435C662.135 617.395 664.91 620.77 668.165 623.23C671.12 625.465 674.84 626.635 677.645 629.08C681.23 632.185 681.275 637.015 681.425 641.425C681.575 645.475 681.515 649.615 682.445 653.59C683.375 657.565 685.64 661.255 688.865 663.955C692.93 667.36 697.64 669.94 701.84 673.195C706.355 676.705 710.105 680.86 712.655 686.005C713.195 687.085 714.815 686.14 714.275 685.06C709.91 676.24 702.185 671.02 694.31 665.605C690.185 662.77 686.405 659.8 684.77 654.88C683.45 650.89 683.48 646.63 683.345 642.475C683.21 638.32 683.345 633.655 680.99 630.07C679.04 627.1 675.815 625.63 672.815 623.965C668.96 621.85 664.94 618.865 663.65 614.44C662.48 610.435 663.56 606.055 663.98 602.005C664.475 597.235 664.31 592.555 662.15 588.19C659.99 583.825 656.525 580.69 652.925 577.765C651.995 577.015 650.66 578.335 651.605 579.085L651.59 579.07Z" fill="#3CA08F"/>
<path d="M708.08 690.581C707.57 682.061 709.085 670.586 705.755 662.546C702.125 654.851 692.255 653.861 689.24 645.821C686.3 639.041 689.75 633.131 692.225 626.966C694.115 621.476 696.53 614.366 695.225 608.426C693.485 600.611 685.655 596.651 681.155 590.276C677.66 584.786 676.61 577.886 680.345 571.646C682.625 567.401 694.355 557.186 694.385 568.271C694.52 575.861 687.98 577.526 693.2 585.431C697.715 592.121 705.26 596.426 707.945 604.166C712.565 617.816 697.265 631.721 704.33 643.946C706.805 648.221 711.08 650.816 713.255 655.436C715.4 659.426 716.57 663.146 716.84 667.571C717.635 675.431 717.47 683.366 715.715 691.061" fill="#4FAF9F"/>
<path d="M714.049 689.905C714.049 679.465 715.324 668.935 715.309 658.18C715.249 651.85 713.599 645.625 712.594 639.355C711.454 630.88 715.339 627.16 718.714 619.99C722.044 612.19 723.619 606.715 718.744 599.41C714.244 593.035 711.934 586.21 712.414 578.275C712.939 571.285 716.344 559.36 724.819 558.22C735.154 556.33 726.454 569.515 725.119 573.715C720.574 587.605 733.579 598.525 732.859 612.82C732.349 620.125 729.559 626.32 725.824 632.545C721.789 639.115 720.919 645.82 721.069 653.41C721.114 659.425 722.104 665.38 721.834 671.41C721.549 677.125 718.339 681.745 717.724 687.16" fill="#298275"/>
<path d="M689.3 567.865C684.56 573.85 680.03 583.21 686.15 589.855C688.43 592.33 691.504 593.89 693.994 596.155C697.354 599.215 699.56 603.1 700.07 607.645C701.045 616.165 697.58 624.49 696.98 632.92C696.695 636.91 697.205 640.765 698.84 644.44C700.475 648.115 702.785 651.01 705.05 654.085C707.915 657.985 710.165 661.915 711.425 666.625C713.06 672.775 713.225 679.21 712.55 685.51C712.415 686.71 714.305 686.695 714.425 685.51C715.415 676.21 714.68 665.92 709.775 657.715C705.755 651.01 699.47 645.37 698.84 637.12C698.21 628.87 701.54 620.68 702.035 612.4C702.26 608.545 701.825 604.645 700.16 601.135C698.585 597.82 695.96 595.165 693.05 592.975C690.14 590.785 686.57 588.775 685.46 585.04C683.795 579.385 687.245 573.475 690.635 569.185C691.37 568.255 690.065 566.92 689.315 567.865H689.3Z" fill="#298275"/>
<path d="M723.934 562.165C720.274 568.78 718.054 576.31 718.294 583.915C718.414 587.695 719.179 591.46 720.664 594.94C722.224 598.63 724.024 601.945 724.324 606.025C724.834 612.82 721.789 619.105 719.494 625.33C718.219 628.78 717.079 632.32 716.629 635.98C716.074 640.42 716.059 644.905 716.224 649.39C716.584 659.665 717.739 670.045 714.799 680.065C714.454 681.22 716.269 681.715 716.614 680.56C721.564 663.655 714.799 645.745 720.214 628.99C722.239 622.75 725.419 616.78 726.139 610.18C726.499 606.85 726.139 603.46 725.059 600.28C723.799 596.53 721.699 593.245 720.844 589.33C718.909 580.42 721.219 570.97 725.569 563.125C726.154 562.075 724.534 561.115 723.949 562.18L723.934 562.165Z" fill="#3CA08F"/>
<path d="M711.154 689.125C711.454 678.34 716.689 665.365 723.739 656.395C733.744 643.765 745.879 635.125 741.019 617.365C739.054 611.155 735.754 603.43 739.174 597.22C743.194 590.335 752.899 588.475 754.564 579.52C755.464 573.445 751.399 568.945 754.189 562.765C759.244 552.01 764.659 563.08 765.979 569.335C767.329 575.905 766.114 581.995 762.994 588.19C759.304 595.375 749.449 599.77 748.999 608.02C748.789 614.995 752.974 621.385 753.064 628.345C753.169 635.305 748.849 642.52 745.729 648.415C738.064 663.115 719.614 664.225 721.084 683.455" fill="#4FAF9F"/>
<path d="M757.925 566.53C759.35 571.675 759.14 577.51 757.43 582.565C756.035 586.66 753.155 589.735 750.11 592.69C747.065 595.645 744.17 598.495 743.12 602.8C742.16 606.775 742.67 610.93 743.42 614.89C744.275 619.375 745.58 623.8 745.985 628.36C746.39 632.92 745.55 637.6 743.345 641.725C739.07 649.75 730.985 654.655 724.655 660.865C721.205 664.255 718.385 668.245 716.825 672.85C715.265 677.455 715.07 682.405 715.49 687.235C715.595 688.435 717.47 688.435 717.365 687.235C716.99 682.72 717.095 678.175 718.475 673.825C719.93 669.25 722.78 665.305 726.2 661.99C732.44 655.945 740.18 651.07 744.59 643.36C746.69 639.67 747.965 635.44 747.995 631.18C748.025 626.92 746.96 622.39 746.015 618.085C745.07 613.78 744.005 609.19 744.65 604.735C745.355 599.875 748.46 596.92 751.805 593.65C755.15 590.38 757.91 587.155 759.32 582.805C761.045 577.495 761.24 571.405 759.74 566.035C759.41 564.88 757.61 565.36 757.925 566.53Z" fill="#298275"/>
<path d="M709.984 690.775C713.179 680.77 726.214 676.51 735.154 672.49C747.784 666.67 761.254 653.83 760.999 638.965C761.059 629.47 760.924 627.25 768.799 621.4C777.574 614.545 774.439 609.985 771.679 600.97C770.494 596.92 769.084 584.035 775.984 582.985C782.569 581.95 777.109 596.53 778.939 600.535C781.924 607.96 784.969 611.245 782.629 619.615C779.974 628 771.589 630.73 768.589 638.815C766.144 645.61 766.534 651.91 762.829 658.78C758.839 665.98 755.104 672.535 747.409 676.165C742.204 679.015 737.149 679.315 731.554 680.92C725.959 682.525 720.589 687.91 715.714 691.06" fill="#298275"/>
<path d="M775.008 587.725C775.113 590.32 774.753 592.885 774.663 595.48C774.573 598.075 774.918 600.58 775.458 603.085C776.508 608.125 778.128 613.495 775.788 618.43C774.048 622.09 770.883 624.805 768.423 627.94C765.663 631.465 764.463 635.515 763.173 639.76C760.443 648.67 758.118 658.165 751.593 665.17C746.388 670.765 739.098 674.38 731.928 676.78C724.758 679.18 715.743 680.785 712.533 688.195C712.053 689.29 713.673 690.25 714.153 689.14C717.198 682.075 726.348 680.665 732.843 678.445C739.878 676.03 747.003 672.505 752.268 667.165C758.628 660.73 761.403 652.105 763.953 643.63C765.408 638.815 766.503 633.55 769.578 629.47C771.903 626.395 774.873 623.815 776.823 620.455C779.403 616.015 779.073 611.065 778.053 606.205C777.423 603.22 776.613 600.235 776.523 597.175C776.433 594.115 777.018 590.875 776.883 587.71C776.838 586.51 774.963 586.495 775.008 587.71V587.725Z" fill="#3CA08F"/>
<path d="M126.245 478.676C126.245 483.506 122.33 487.421 117.5 487.421C112.67 487.421 108.755 483.506 108.755 478.676C108.755 473.846 112.67 469.931 117.5 469.931C122.33 469.931 126.245 473.846 126.245 478.676Z" fill="#72B7AA"/>
<path d="M465.395 434.59C465.395 437.215 463.265 439.345 460.64 439.345C458.015 439.345 455.885 437.215 455.885 434.59C455.885 431.965 458.015 429.835 460.64 429.835C463.265 429.835 465.395 431.965 465.395 434.59Z" fill="#72B7AA"/>
<path d="M458.39 413.35C460.875 413.35 462.89 411.335 462.89 408.85C462.89 406.365 460.875 404.35 458.39 404.35C455.904 404.35 453.89 406.365 453.89 408.85C453.89 411.335 455.904 413.35 458.39 413.35Z" fill="#72B7AA"/>
<path d="M402.89 178.345C402.89 182.215 399.755 185.35 395.885 185.35C392.015 185.35 388.88 182.215 388.88 178.345C388.88 174.475 392.015 171.34 395.885 171.34C399.755 171.34 402.89 174.475 402.89 178.345Z" fill="#72B7AA"/>
<path d="M655.895 454.345C655.895 458.215 652.76 461.35 648.89 461.35C645.02 461.35 641.885 458.215 641.885 454.345C641.885 450.475 645.02 447.34 648.89 447.34C652.76 447.34 655.895 450.475 655.895 454.345Z" fill="#72B7AA"/>
<path d="M417.889 183.1C417.889 185.44 415.984 187.345 413.644 187.345C411.304 187.345 409.399 185.44 409.399 183.1C409.399 180.76 411.304 178.855 413.644 178.855C415.984 178.855 417.889 180.76 417.889 183.1Z" fill="#72B7AA"/>
<path d="M572.39 40.6002C572.39 45.7152 568.25 49.8552 563.135 49.8552C558.02 49.8552 553.88 45.7152 553.88 40.6002C553.88 35.4852 558.02 31.3452 563.135 31.3452C568.25 31.3452 572.39 35.4852 572.39 40.6002Z" fill="#72B7AA"/>
<path d="M585.635 56.3501C588.534 56.3501 590.885 53.9996 590.885 51.1001C590.885 48.2006 588.534 45.8501 585.635 45.8501C582.735 45.8501 580.385 48.2006 580.385 51.1001C580.385 53.9996 582.735 56.3501 585.635 56.3501Z" fill="#72B7AA"/>
<path d="M581.39 34.3452C583.875 34.3452 585.89 32.3305 585.89 29.8452C585.89 27.3599 583.875 25.3452 581.39 25.3452C578.904 25.3452 576.89 27.3599 576.89 29.8452C576.89 32.3305 578.904 34.3452 581.39 34.3452Z" fill="#72B7AA"/>
<path d="M318.395 37.855C320.88 37.855 322.895 35.8403 322.895 33.355C322.895 30.8697 320.88 28.855 318.395 28.855C315.909 28.855 313.895 30.8697 313.895 33.355C313.895 35.8403 315.909 37.855 318.395 37.855Z" fill="#72B7AA"/>
<path d="M725.885 340.84C725.885 344.155 723.2 346.84 719.885 346.84C716.57 346.84 713.885 344.155 713.885 340.84C713.885 337.525 716.57 334.84 719.885 334.84C723.2 334.84 725.885 337.525 725.885 340.84Z" fill="#72B7AA"/>
<path d="M732.395 359.35C734.051 359.35 735.395 358.007 735.395 356.35C735.395 354.693 734.051 353.35 732.395 353.35C730.738 353.35 729.395 354.693 729.395 356.35C729.395 358.007 730.738 359.35 732.395 359.35Z" fill="#72B7AA"/>
<path d="M216.89 46.3452C218.547 46.3452 219.89 45.0021 219.89 43.3452C219.89 41.6884 218.547 40.3452 216.89 40.3452C215.233 40.3452 213.89 41.6884 213.89 43.3452C213.89 45.0021 215.233 46.3452 216.89 46.3452Z" fill="#72B7AA"/>
<path d="M439.895 586.09C439.895 589.54 437.09 592.345 433.64 592.345C430.19 592.345 427.385 589.54 427.385 586.09C427.385 582.64 430.19 579.835 433.64 579.835C437.09 579.835 439.895 582.64 439.895 586.09Z" fill="#72B7AA"/>
<path d="M448.4 575.59C448.4 577.39 446.945 578.845 445.145 578.845C443.345 578.845 441.89 577.39 441.89 575.59C441.89 573.79 443.345 572.335 445.145 572.335C446.945 572.335 448.4 573.79 448.4 575.59Z" fill="#72B7AA"/>
<path d="M205.145 568.345C208.872 568.345 211.895 565.323 211.895 561.595C211.895 557.867 208.872 554.845 205.145 554.845C201.417 554.845 198.395 557.867 198.395 561.595C198.395 565.323 201.417 568.345 205.145 568.345Z" fill="#72B7AA"/>
<path d="M206.899 328.105C206.899 331 204.544 333.355 201.649 333.355C198.754 333.355 196.399 331 196.399 328.105C196.399 325.21 198.754 322.855 201.649 322.855C204.544 322.855 206.899 325.21 206.899 328.105Z" fill="#72B7AA"/>
<path d="M215.389 315.85C215.389 317.785 213.829 319.345 211.894 319.345C209.959 319.345 208.399 317.785 208.399 315.85C208.399 313.915 209.959 312.355 211.894 312.355C213.829 312.355 215.389 313.93 215.389 315.85Z" fill="#72B7AA"/>
<path d="M423.139 298.435C427.489 324.805 443.854 338.305 469.084 344.635C497.629 351.16 522.109 361.555 544.534 380.785C563.284 397.24 581.824 421.615 587.284 446.515C590.374 459.235 589.069 468.64 584.059 479.86C580.534 487.585 571.849 496.045 573.859 505.63C580.414 533.665 606.139 496.51 607.639 483.79C610.639 462.97 608.524 429.055 599.359 410.605C580.849 377.02 554.584 344.5 517.939 331.87C490.144 321.28 449.599 318.415 436.054 287.41C430.519 290.155 426.274 292.72 422.209 296.59" fill="#8F8FDB"/>
<path d="M560.285 389.411C564.29 389.411 564.29 383.186 560.285 383.186C556.28 383.186 556.28 389.411 560.285 389.411Z" fill="#5050AA"/>
<path d="M574.326 407.605C578.331 407.605 578.331 401.38 574.326 401.38C570.321 401.38 570.321 407.605 574.326 407.605Z" fill="#5050AA"/>
<path d="M587.66 431.77C591.665 431.77 591.665 425.545 587.66 425.545C583.655 425.545 583.655 431.77 587.66 431.77Z" fill="#5050AA"/>
<path d="M594.694 460.615C598.699 460.615 598.699 454.39 594.694 454.39C590.689 454.39 590.689 460.615 594.694 460.615Z" fill="#5050AA"/>
<path d="M590.359 486.565C594.364 486.565 594.364 480.34 590.359 480.34C586.354 480.34 586.354 486.565 590.359 486.565Z" fill="#5050AA"/>
<path d="M580.444 508.06C584.449 508.06 584.449 501.835 580.444 501.835C576.439 501.835 576.439 508.06 580.444 508.06Z" fill="#5050AA"/>
<path d="M574.325 401.649C574.325 401.649 574.354 401.62 574.325 401.62C574.295 401.62 574.295 401.649 574.325 401.649Z" fill="#5050AA"/>
<path d="M540.846 373.885C544.851 373.885 544.851 367.66 540.846 367.66C536.841 367.66 536.841 373.885 540.846 373.885Z" fill="#5050AA"/>
<path d="M522.484 362.635C526.489 362.635 526.489 356.41 522.484 356.41C518.479 356.41 518.479 362.635 522.484 362.635Z" fill="#5050AA"/>
<path d="M505.099 354.715C509.104 354.715 509.104 348.49 505.099 348.49C501.094 348.49 501.094 354.715 505.099 354.715Z" fill="#5050AA"/>
<path d="M489.08 349.556C493.085 349.556 493.085 343.331 489.08 343.331C485.075 343.331 485.075 349.556 489.08 349.556Z" fill="#5050AA"/>
<path d="M448.55 301.765C430.13 321.115 429.2 342.31 439.34 366.265C451.325 392.98 457.775 418.78 455.93 448.27C454.085 473.155 445.79 502.63 429.215 521.98C420.92 532.12 412.625 536.725 400.655 539.485C392.36 541.33 380.39 539.485 373.94 546.85C355.52 568.96 400.655 567.115 411.725 560.665C430.16 550.525 455.96 528.415 465.17 509.98C480.83 474.97 490.97 434.425 478.985 397.57C470.69 369.01 448.58 334.915 465.17 305.425C459.635 302.665 455.03 300.82 449.51 299.89" fill="#8F8FDB"/>
<path d="M420.905 301.765C387.74 312.82 356.405 350.605 319.55 345.07C286.385 340.465 246.755 264.91 211.745 314.665C199.76 330.325 198.845 367.18 218.195 379.165C227.405 384.7 241.235 382.855 243.995 369.955C246.755 359.815 234.785 351.52 239.39 342.31C252.29 315.595 279.005 371.8 287.3 377.32C301.115 386.53 327.845 385.615 342.59 381.925C363.785 376.39 384.98 359.815 401.555 346.915C409.85 340.465 442.1 309.145 422.75 303.61" fill="#8F8FDB"/>
<path d="M482.645 309.145C501.995 347.845 540.695 355.21 582.155 349.69C598.745 346.93 644.81 337.705 647.57 364.435C649.415 383.785 619.925 397.6 628.22 418.795C635.585 439.075 672.455 433.54 662.315 463.945C654.95 484.21 614.405 491.59 615.32 512.785C616.235 542.275 654.02 528.445 666.92 519.235C685.355 506.335 694.565 486.985 695.48 464.875C696.395 454.735 696.395 444.61 691.79 435.385C686.255 423.4 675.2 421.57 667.835 412.345C648.485 390.235 677.975 379.18 678.89 357.055C679.805 333.1 652.175 324.805 633.74 321.115C610.7 316.51 595.97 324.805 573.845 326.65C547.13 329.41 511.19 317.44 496.445 293.485" fill="#8F8FDB"/>
<path d="M392.345 138.685C406.16 101.83 458.69 73.2704 495.545 93.5354C536.09 115.645 539.78 168.175 526.88 205.945C523.19 217 499.235 254.785 505.685 262.15C515.825 273.205 551.75 262.15 562.82 256.615C595.985 240.955 629.165 183.82 607.97 147.88C594.155 124.84 574.805 119.32 575.72 89.8304C576.65 70.4804 585.86 45.6104 602.435 33.6254C619.94 22.5704 644.825 29.0204 632.84 52.9754C622.7 71.4104 597.83 81.5354 612.575 105.49C623.63 123.925 636.53 136.81 640.22 159.85C642.98 178.27 641.135 196.705 639.29 215.14C636.53 253.84 590.45 298.99 551.75 303.595C542.54 304.51 531.47 303.595 523.19 301.75C516.74 300.835 502.925 293.455 497.39 295.3C472.505 304.51 505.685 344.14 514.895 352.42C548.99 382.825 565.58 422.455 546.23 467.605C537.02 489.715 520.43 506.305 502.925 523.81C491.87 534.865 473.435 564.355 490.025 579.1C502.925 591.085 504.77 574.495 516.74 573.565C527.795 572.65 530.555 585.55 525.95 593.845C518.585 608.575 486.335 613.18 472.505 608.575C450.395 602.125 450.395 572.65 455 554.215C460.535 532.105 476.195 519.205 486.32 499.855C502.91 469.45 507.515 438.115 497.375 404.95C487.235 371.785 453.14 349.66 453.14 313.735C440.24 332.17 421.82 345.07 419.045 369.025C416.285 387.46 424.58 408.655 427.34 427.075C434.705 472.225 408.905 505.405 364.685 515.53C324.14 524.74 273.47 492.49 283.595 446.425C286.355 433.525 307.55 400.36 325.055 411.415C342.56 423.4 310.31 448.27 315.845 464.86C327.425 505.345 381.74 481.27 388.685 451.045C391.79 437.53 391.415 419.515 388.685 405.895C381.605 370.615 392.06 340.45 417.425 314.005C418.82 312.55 420.485 311.185 421.73 310.21C407.9 318.49 398.615 325.525 381.275 324.805C362.72 324.04 350.795 320.395 339.08 305.455C327.95 291.265 322.715 277.105 324.335 258.46C325.985 239.515 333.29 223.435 328.76 204.145C320.42 168.67 269.165 162.955 260.57 201.34C258.095 212.365 250.025 237.25 234.74 231.745C215.195 224.695 229.28 198.655 237.485 189.355C261.92 161.665 298.46 142.585 331.49 170.05C360.92 194.515 359.66 226.75 360.05 262.135C360.53 305.98 429.47 296.695 413.39 260.44C404.66 240.745 392.36 225.22 387.92 203.425C383.585 182.125 384.155 159.01 392.3 138.655L392.345 138.685Z" fill="#ADADF7"/>
<path d="M242.615 228.865C246.62 228.865 246.62 222.64 242.615 222.64C238.61 222.64 238.61 228.865 242.615 228.865Z" fill="#8080D6"/>
<path d="M249.515 216.431C253.52 216.431 253.52 210.206 249.515 210.206C245.51 210.206 245.51 216.431 249.515 216.431Z" fill="#8080D6"/>
<path d="M257.119 197.08C261.124 197.08 261.124 190.855 257.119 190.855C253.114 190.855 253.114 197.08 257.119 197.08Z" fill="#8080D6"/>
<path d="M268.865 183.25C272.87 183.25 272.87 177.025 268.865 177.025C264.86 177.025 264.86 183.25 268.865 183.25Z" fill="#8080D6"/>
<path d="M291.68 172.885C295.685 172.885 295.685 166.66 291.68 166.66C287.675 166.66 287.675 172.885 291.68 172.885Z" fill="#8080D6"/>
<path d="M313.79 179.8C317.795 179.8 317.795 173.575 313.79 173.575C309.785 173.575 309.785 179.8 313.79 179.8Z" fill="#8080D6"/>
<path d="M329 193.615C333.005 193.615 333.005 187.39 329 187.39C324.995 187.39 324.995 193.615 329 193.615Z" fill="#8080D6"/>
<path d="M335.211 210.205C339.216 210.205 339.216 203.98 335.211 203.98C331.206 203.98 331.206 210.205 335.211 210.205Z" fill="#8080D6"/>
<path d="M333.14 233.005C337.145 233.005 337.145 226.78 333.14 226.78C329.135 226.78 329.135 233.005 333.14 233.005Z" fill="#8080D6"/>
<path d="M330.379 254.425C334.384 254.425 334.384 248.2 330.379 248.2C326.374 248.2 326.374 254.425 330.379 254.425Z" fill="#8080D6"/>
<path d="M331.069 273.776C335.074 273.776 335.074 267.551 331.069 267.551C327.064 267.551 327.064 273.776 331.069 273.776Z" fill="#8080D6"/>
<path d="M335.9 293.815C339.905 293.815 339.905 287.59 335.9 287.59C331.895 287.59 331.895 293.815 335.9 293.815Z" fill="#8080D6"/>
<path d="M343.504 306.265C347.509 306.265 347.509 300.04 343.504 300.04C339.499 300.04 339.499 306.265 343.504 306.265Z" fill="#8080D6"/>
<path d="M359.405 317.32C363.41 317.32 363.41 311.095 359.405 311.095C355.4 311.095 355.4 317.32 359.405 317.32Z" fill="#8080D6"/>
<path d="M375.29 323.545C379.295 323.545 379.295 317.32 375.29 317.32C371.285 317.32 371.285 323.545 375.29 323.545Z" fill="#8080D6"/>
<path d="M515.586 296.59C519.591 296.59 519.591 290.365 515.586 290.365C511.581 290.365 511.581 296.59 515.586 296.59Z" fill="#8080D6"/>
<path d="M537.694 298.661C541.699 298.661 541.699 292.436 537.694 292.436C533.689 292.436 533.689 298.661 537.694 298.661Z" fill="#8080D6"/>
<path d="M561.184 294.52C565.189 294.52 565.189 288.295 561.184 288.295C557.179 288.295 557.179 294.52 561.184 294.52Z" fill="#8080D6"/>
<path d="M587.451 284.14C591.456 284.14 591.456 277.915 587.451 277.915C583.446 277.915 583.446 284.14 587.451 284.14Z" fill="#8080D6"/>
<path d="M608.18 267.565C612.185 267.565 612.185 261.34 608.18 261.34C604.175 261.34 604.175 267.565 608.18 267.565Z" fill="#8080D6"/>
<path d="M624.08 244.06C628.085 244.06 628.085 237.835 624.08 237.835C620.075 237.835 620.075 244.06 624.08 244.06Z" fill="#8080D6"/>
<path d="M632.375 222.64C636.38 222.64 636.38 216.415 632.375 216.415C628.37 216.415 628.37 222.64 632.375 222.64Z" fill="#8080D6"/>
<path d="M636.515 194.306C640.52 194.306 640.52 188.081 636.515 188.081C632.51 188.081 632.51 194.306 636.515 194.306Z" fill="#8080D6"/>
<path d="M635.136 161.14C639.141 161.14 639.141 154.915 635.136 154.915C631.131 154.915 631.131 161.14 635.136 161.14Z" fill="#8080D6"/>
<path d="M620.629 130.735C624.634 130.735 624.634 124.51 620.629 124.51C616.624 124.51 616.624 130.735 620.629 130.735Z" fill="#8080D6"/>
<path d="M604.04 107.92C608.045 107.92 608.045 101.695 604.04 101.695C600.035 101.695 600.035 107.92 604.04 107.92Z" fill="#8080D6"/>
<path d="M602.66 85.8105C606.665 85.8105 606.665 79.5854 602.66 79.5854C598.655 79.5854 598.655 85.8105 602.66 85.8105Z" fill="#8080D6"/>
<path d="M615.785 65.7699C619.79 65.7699 619.79 59.5449 615.785 59.5449C611.78 59.5449 611.78 65.7699 615.785 65.7699Z" fill="#8080D6"/>
<path d="M627.53 51.265C631.535 51.265 631.535 45.04 627.53 45.04C623.525 45.04 623.525 51.265 627.53 51.265Z" fill="#8080D6"/>
<path d="M239.15 371.92C243.155 371.92 243.155 365.695 239.15 365.695C235.145 365.695 235.145 371.92 239.15 371.92Z" fill="#5050AA"/>
<path d="M233.629 358.09C237.634 358.09 237.634 351.865 233.629 351.865C229.624 351.865 229.624 358.09 233.629 358.09Z" fill="#5050AA"/>
<path d="M237.08 340.81C241.085 340.81 241.085 334.585 237.08 334.585C233.075 334.585 233.075 340.81 237.08 340.81Z" fill="#5050AA"/>
<path d="M252.29 331.825C256.295 331.825 256.295 325.6 252.29 325.6C248.285 325.6 248.285 331.825 252.29 331.825Z" fill="#5050AA"/>
<path d="M266.795 341.5C270.8 341.5 270.8 335.275 266.795 335.275C262.79 335.275 262.79 341.5 266.795 341.5Z" fill="#5050AA"/>
<path d="M278.54 356.02C282.545 356.02 282.545 349.795 278.54 349.795C274.535 349.795 274.535 356.02 278.54 356.02Z" fill="#5050AA"/>
<path d="M286.836 369.145C290.841 369.145 290.841 362.92 286.836 362.92C282.831 362.92 282.831 369.145 286.836 369.145Z" fill="#5050AA"/>
<path d="M298.58 379.51C302.585 379.51 302.585 373.285 298.58 373.285C294.575 373.285 294.575 379.51 298.58 379.51Z" fill="#5050AA"/>
<path d="M313.79 381.595C317.795 381.595 317.795 375.37 313.79 375.37C309.785 375.37 309.785 381.595 313.79 381.595Z" fill="#5050AA"/>
<path d="M329.689 380.2C333.694 380.2 333.694 373.975 329.689 373.975C325.684 373.975 325.684 380.2 329.689 380.2Z" fill="#5050AA"/>
<path d="M349.04 376.06C353.045 376.06 353.045 369.835 349.04 369.835C345.035 369.835 345.035 376.06 349.04 376.06Z" fill="#5050AA"/>
<path d="M370.461 366.385C374.466 366.385 374.466 360.16 370.461 360.16C366.456 360.16 366.456 366.385 370.461 366.385Z" fill="#5050AA"/>
<path d="M383.586 356.71C387.591 356.71 387.591 350.485 383.586 350.485C379.581 350.485 379.581 356.71 383.586 356.71Z" fill="#5050AA"/>
<path d="M499.684 327.685C503.689 327.685 503.689 321.46 499.684 321.46C495.679 321.46 495.679 327.685 499.684 327.685Z" fill="#5050AA"/>
<path d="M515.586 339.431C519.591 339.431 519.591 333.206 515.586 333.206C511.581 333.206 511.581 339.431 515.586 339.431Z" fill="#5050AA"/>
<path d="M534.244 345.656C538.249 345.656 538.249 339.431 534.244 339.431C530.239 339.431 530.239 345.656 534.244 345.656Z" fill="#5050AA"/>
<path d="M552.905 348.415C556.91 348.415 556.91 342.19 552.905 342.19C548.9 342.19 548.9 348.415 552.905 348.415Z" fill="#5050AA"/>
<path d="M574.326 346.345C578.331 346.345 578.331 340.12 574.326 340.12C570.321 340.12 570.321 346.345 574.326 346.345Z" fill="#5050AA"/>
<path d="M597.125 344.965C601.13 344.965 601.13 338.74 597.125 338.74C593.12 338.74 593.12 344.965 597.125 344.965Z" fill="#5050AA"/>
<path d="M626.15 344.276C630.155 344.276 630.155 338.051 626.15 338.051C622.145 338.051 622.145 344.276 626.15 344.276Z" fill="#5050AA"/>
<path d="M645.5 351.175C649.505 351.175 649.505 344.95 645.5 344.95C641.495 344.95 641.495 351.175 645.5 351.175Z" fill="#5050AA"/>
<path d="M654.484 365.005C658.489 365.005 658.489 358.78 654.484 358.78C650.479 358.78 650.479 365.005 654.484 365.005Z" fill="#5050AA"/>
<path d="M648.951 383.665C652.956 383.665 652.956 377.44 648.951 377.44C644.946 377.44 644.946 383.665 648.951 383.665Z" fill="#5050AA"/>
<path d="M640.67 398.86C644.675 398.86 644.675 392.635 640.67 392.635C636.665 392.635 636.665 398.86 640.67 398.86Z" fill="#5050AA"/>
<path d="M635.826 413.38C639.831 413.38 639.831 407.155 635.826 407.155C631.821 407.155 631.821 413.38 635.826 413.38Z" fill="#5050AA"/>
<path d="M642.05 425.815C646.055 425.815 646.055 419.59 642.05 419.59C638.045 419.59 638.045 425.815 642.05 425.815Z" fill="#5050AA"/>
<path d="M657.244 436.18C661.249 436.18 661.249 429.955 657.244 429.955C653.239 429.955 653.239 436.18 657.244 436.18Z" fill="#5050AA"/>
<path d="M670.386 447.925C674.391 447.925 674.391 441.7 670.386 441.7C666.381 441.7 666.381 447.925 670.386 447.925Z" fill="#5050AA"/>
<path d="M671.076 464.515C675.081 464.515 675.081 458.29 671.076 458.29C667.071 458.29 667.071 464.515 671.076 464.515Z" fill="#5050AA"/>
<path d="M664.16 480.415C668.165 480.415 668.165 474.19 664.16 474.19C660.155 474.19 660.155 480.415 664.16 480.415Z" fill="#5050AA"/>
<path d="M653.105 490.781C657.11 490.781 657.11 484.556 653.105 484.556C649.1 484.556 649.1 490.781 653.105 490.781Z" fill="#5050AA"/>
<path d="M642.05 500.455C646.055 500.455 646.055 494.23 642.05 494.23C638.045 494.23 638.045 500.455 642.05 500.455Z" fill="#5050AA"/>
<path d="M628.91 508.06C632.915 508.06 632.915 501.835 628.91 501.835C624.905 501.835 624.905 508.06 628.91 508.06Z" fill="#5050AA"/>
<path d="M382.895 551.59C386.9 551.59 386.9 545.365 382.895 545.365C378.89 545.365 378.89 551.59 382.895 551.59Z" fill="#5050AA"/>
<path d="M402.934 547.45C406.939 547.45 406.939 541.225 402.934 541.225C398.929 541.225 398.929 547.45 402.934 547.45Z" fill="#5050AA"/>
<path d="M430.58 532.93C434.585 532.93 434.585 526.705 430.58 526.705C426.575 526.705 426.575 532.93 430.58 532.93Z" fill="#5050AA"/>
<path d="M443.705 512.89C447.71 512.89 447.71 506.665 443.705 506.665C439.7 506.665 439.7 512.89 443.705 512.89Z" fill="#5050AA"/>
<path d="M454.761 491.47C458.766 491.47 458.766 485.245 454.761 485.245C450.756 485.245 450.756 491.47 454.761 491.47Z" fill="#5050AA"/>
<path d="M460.984 467.276C464.989 467.276 464.989 461.051 460.984 461.051C456.979 461.051 456.979 467.276 460.984 467.276Z" fill="#5050AA"/>
<path d="M461.675 442.406C465.68 442.406 465.68 436.181 461.675 436.181C457.67 436.181 457.67 442.406 461.675 442.406Z" fill="#5050AA"/>
<path d="M459.605 420.985C463.61 420.985 463.61 414.76 459.605 414.76C455.6 414.76 455.6 420.985 459.605 420.985Z" fill="#5050AA"/>
<path d="M455.465 402.325C459.47 402.325 459.47 396.1 455.465 396.1C451.46 396.1 451.46 402.325 455.465 402.325Z" fill="#5050AA"/>
<path d="M449.93 386.425C453.935 386.425 453.935 380.2 449.93 380.2C445.925 380.2 445.925 386.425 449.93 386.425Z" fill="#5050AA"/>
<path d="M443.705 370.526C447.71 370.526 447.71 364.301 443.705 364.301C439.7 364.301 439.7 370.526 443.705 370.526Z" fill="#5050AA"/>
<path d="M438.875 349.105C442.88 349.105 442.88 342.88 438.875 342.88C434.87 342.88 434.87 349.105 438.875 349.105Z" fill="#5050AA"/>
<path d="M307.564 420.281C311.569 420.281 311.569 414.056 307.564 414.056C303.559 414.056 303.559 420.281 307.564 420.281Z" fill="#8080D6"/>
<path d="M295.819 436.87C299.824 436.87 299.824 430.646 295.819 430.646C291.814 430.646 291.814 436.87 295.819 436.87Z" fill="#8080D6"/>
<path d="M290.99 452.08C294.995 452.08 294.995 445.855 290.99 445.855C286.985 445.855 286.985 452.08 290.99 452.08Z" fill="#8080D6"/>
<path d="M289.596 467.276C293.601 467.276 293.601 461.051 289.596 461.051C285.591 461.051 285.591 467.276 289.596 467.276Z" fill="#8080D6"/>
<path d="M295.129 483.865C299.134 483.865 299.134 477.64 295.129 477.64C291.124 477.64 291.124 483.865 295.129 483.865Z" fill="#8080D6"/>
<path d="M304.805 497.68C308.81 497.68 308.81 491.455 304.805 491.455C300.8 491.455 300.8 497.68 304.805 497.68Z" fill="#8080D6"/>
<path d="M323.465 510.13C327.47 510.13 327.47 503.905 323.465 503.905C319.46 503.905 319.46 510.13 323.465 510.13Z" fill="#8080D6"/>
<path d="M337.28 514.27C341.285 514.27 341.285 508.045 337.28 508.045C333.275 508.045 333.275 514.27 337.28 514.27Z" fill="#8080D6"/>
<path d="M354.559 514.27C358.564 514.27 358.564 508.045 354.559 508.045C350.554 508.045 350.554 514.27 354.559 514.27Z" fill="#8080D6"/>
<path d="M381.515 505.975C385.52 505.975 385.52 499.75 381.515 499.75C377.51 499.75 377.51 505.975 381.515 505.975Z" fill="#8080D6"/>
<path d="M403.625 490.09C407.63 490.09 407.63 483.865 403.625 483.865C399.62 483.865 399.62 490.09 403.625 490.09Z" fill="#8080D6"/>
<path d="M416.765 473.5C420.77 473.5 420.77 467.275 416.765 467.275C412.76 467.275 412.76 473.5 416.765 473.5Z" fill="#8080D6"/>
<path d="M420.215 451.39C424.22 451.39 424.22 445.165 420.215 445.165C416.21 445.165 416.21 451.39 420.215 451.39Z" fill="#8080D6"/>
<path d="M419.525 429.955C423.53 429.955 423.53 423.73 419.525 423.73C415.52 423.73 415.52 429.955 419.525 429.955Z" fill="#8080D6"/>
<path d="M414.68 412C418.685 412 418.685 405.775 414.68 405.775C410.675 405.775 410.675 412 414.68 412Z" fill="#8080D6"/>
<path d="M410.54 388.495C414.545 388.495 414.545 382.271 410.54 382.271C406.535 382.271 406.535 388.495 410.54 388.495Z" fill="#8080D6"/>
<path d="M415.369 362.245C419.374 362.245 419.374 356.021 415.369 356.021C411.364 356.021 411.364 362.245 415.369 362.245Z" fill="#8080D6"/>
<path d="M424.355 342.19C428.36 342.19 428.36 335.965 424.355 335.965C420.35 335.965 420.35 342.19 424.355 342.19Z" fill="#8080D6"/>
<path d="M436.115 327.685C440.12 327.685 440.12 321.46 436.115 321.46C432.11 321.46 432.11 327.685 436.115 327.685Z" fill="#8080D6"/>
<path d="M519.724 599.276C523.729 599.276 523.729 593.051 519.724 593.051C515.719 593.051 515.719 599.276 519.724 599.276Z" fill="#8080D6"/>
<path d="M509.359 605.485C513.364 605.485 513.364 599.26 509.359 599.26C505.354 599.26 505.354 605.485 509.359 605.485Z" fill="#8080D6"/>
<path d="M493.461 608.245C497.466 608.245 497.466 602.021 493.461 602.021C489.456 602.021 489.456 608.245 493.461 608.245Z" fill="#8080D6"/>
<path d="M478.955 606.175C482.96 606.175 482.96 599.95 478.955 599.95C474.95 599.95 474.95 606.175 478.955 606.175Z" fill="#8080D6"/>
<path d="M467.211 598.585C471.216 598.585 471.216 592.36 467.211 592.36C463.206 592.36 463.206 598.585 467.211 598.585Z" fill="#8080D6"/>
<path d="M462.365 579.925C466.37 579.925 466.37 573.7 462.365 573.7C458.36 573.7 458.36 579.925 462.365 579.925Z" fill="#8080D6"/>
<path d="M462.365 564.715C466.37 564.715 466.37 558.49 462.365 558.49C458.36 558.49 458.36 564.715 462.365 564.715Z" fill="#8080D6"/>
<path d="M467.9 546.055C471.905 546.055 471.905 539.83 467.9 539.83C463.895 539.83 463.895 546.055 467.9 546.055Z" fill="#8080D6"/>
<path d="M479.645 525.325C483.65 525.325 483.65 519.1 479.645 519.1C475.64 519.1 475.64 525.325 479.645 525.325Z" fill="#8080D6"/>
<path d="M492.77 501.835C496.775 501.835 496.775 495.61 492.77 495.61C488.765 495.61 488.765 501.835 492.77 501.835Z" fill="#8080D6"/>
<path d="M501.754 481.795C505.759 481.795 505.759 475.57 501.754 475.57C497.749 475.57 497.749 481.795 501.754 481.795Z" fill="#8080D6"/>
<path d="M507.29 450.7C511.295 450.7 511.295 444.475 507.29 444.475C503.285 444.475 503.285 450.7 507.29 450.7Z" fill="#8080D6"/>
<path d="M506.599 412C510.604 412 510.604 405.775 506.599 405.775C502.594 405.775 502.594 412 506.599 412Z" fill="#8080D6"/>
<path d="M497.615 386.425C501.62 386.425 501.62 380.2 497.615 380.2C493.61 380.2 493.61 386.425 497.615 386.425Z" fill="#8080D6"/>
<path d="M482.405 365.695C486.41 365.695 486.41 359.47 482.405 359.47C478.4 359.47 478.4 365.695 482.405 365.695Z" fill="#8080D6"/>
<path d="M461.675 330.445C465.68 330.445 465.68 324.22 461.675 324.22C457.67 324.22 457.67 330.445 461.675 330.445Z" fill="#8080D6"/>
<path d="M472.73 345.656C476.735 345.656 476.735 339.431 472.73 339.431C468.725 339.431 468.725 345.656 472.73 345.656Z" fill="#8080D6"/>
<path d="M421.594 125.545C426.034 125.545 426.049 118.63 421.594 118.63C417.139 118.63 417.139 125.545 421.594 125.545Z" fill="#8080D6"/>
<path d="M436.805 118.63C441.245 118.63 441.26 111.715 436.805 111.715C432.35 111.715 432.35 118.63 436.805 118.63Z" fill="#8080D6"/>
<path d="M434.029 131.77C438.469 131.77 438.484 124.855 434.029 124.855C429.574 124.855 429.574 131.77 434.029 131.77Z" fill="#8080D6"/>
<path d="M435.005 175.766C435.095 175.316 435.2 174.866 435.335 174.431C435.395 174.236 435.455 174.041 435.53 173.861C435.56 173.786 435.725 173.336 435.68 173.471C435.83 173.111 436.025 172.751 436.22 172.421C436.31 172.271 436.4 172.121 436.49 171.986C436.535 171.911 436.82 171.521 436.67 171.731C436.88 171.461 437.12 171.191 437.375 170.951C437.48 170.846 437.6 170.741 437.72 170.636C437.78 170.591 437.84 170.531 437.9 170.486C437.765 170.591 437.795 170.561 437.9 170.486C438.155 170.306 438.425 170.126 438.71 169.976C438.845 169.901 438.965 169.841 439.1 169.781C439.28 169.691 439.04 169.811 439.01 169.811C439.1 169.781 439.19 169.736 439.28 169.706C439.565 169.601 439.865 169.526 440.165 169.451C440.225 169.451 440.645 169.361 440.42 169.391C440.21 169.421 440.66 169.361 440.75 169.361C441.05 169.346 441.365 169.346 441.665 169.361C441.725 169.361 442.145 169.406 441.92 169.376C441.71 169.346 442.16 169.421 442.25 169.436C442.55 169.496 442.85 169.571 443.15 169.676C443.285 169.721 443.42 169.766 443.555 169.826C443.735 169.901 443.495 169.796 443.48 169.796C443.585 169.841 443.705 169.901 443.81 169.946C444.08 170.081 444.335 170.231 444.575 170.381C444.695 170.456 444.83 170.546 444.95 170.636C445.115 170.741 444.92 170.606 444.905 170.591C445.01 170.666 445.1 170.756 445.205 170.831C446.39 171.851 447.11 173.006 447.59 174.386C447.89 175.271 448.775 175.856 449.72 175.586C450.575 175.346 451.235 174.341 450.92 173.456C449.765 170.081 447.26 167.216 443.735 166.226C440.495 165.311 436.955 166.286 434.66 168.761C433.1 170.441 432.155 172.601 431.69 174.836C431.495 175.751 431.96 176.696 432.89 176.966C433.745 177.206 434.825 176.681 435.02 175.766H435.005Z" fill="#232323"/>
<path d="M467.089 176.23C467.179 175.78 467.284 175.33 467.419 174.895C467.479 174.7 467.539 174.505 467.614 174.325C467.644 174.235 467.689 174.145 467.719 174.055C467.869 173.605 467.659 174.265 467.584 174.355C467.794 174.04 467.929 173.635 468.124 173.305C468.214 173.155 468.304 173.005 468.394 172.87C468.439 172.795 468.499 172.735 468.544 172.66C468.784 172.27 468.349 172.9 468.304 172.96C468.544 172.705 468.754 172.435 469.009 172.18C469.114 172.075 469.234 171.97 469.354 171.865C469.849 171.4 468.784 172.24 469.189 171.985C469.459 171.805 469.714 171.625 469.999 171.475C470.119 171.4 470.269 171.355 470.389 171.28C470.659 171.115 469.849 171.505 469.894 171.49C469.984 171.475 470.074 171.415 470.164 171.385C470.464 171.295 470.749 171.205 471.049 171.13C471.214 171.1 471.754 171.01 471.079 171.1C470.404 171.19 471.004 171.1 471.184 171.1C471.484 171.085 471.799 171.085 472.099 171.1C472.264 171.1 472.819 171.175 472.129 171.1C471.439 171.025 472.069 171.1 472.234 171.13C472.534 171.19 472.834 171.265 473.134 171.37C473.269 171.415 473.404 171.475 473.539 171.52C473.854 171.61 472.999 171.28 473.044 171.31C473.149 171.37 473.269 171.415 473.374 171.46C473.644 171.595 473.899 171.745 474.139 171.895C474.259 171.97 474.379 172.075 474.514 172.15C474.799 172.3 474.079 171.805 474.109 171.835C474.199 171.925 474.304 172 474.409 172.075C474.679 172.315 474.949 172.57 475.189 172.84C475.309 172.975 475.429 173.125 475.549 173.26C474.814 172.48 475.309 172.945 475.489 173.215C475.714 173.545 475.909 173.875 476.089 174.235C476.134 174.34 476.194 174.445 476.239 174.55C476.449 174.955 476.119 174.28 476.104 174.205C476.164 174.43 476.284 174.655 476.359 174.88C476.944 176.59 478.759 177.895 480.604 177.295C482.299 176.74 483.649 174.88 483.019 173.05C481.669 169.09 478.744 165.775 474.634 164.62C470.824 163.54 466.579 164.695 463.879 167.605C462.109 169.51 460.984 171.91 460.474 174.445C460.114 176.215 460.984 178.27 462.889 178.69C464.614 179.08 466.744 178.165 467.134 176.275L467.089 176.23Z" fill="#232323"/>
<path d="M441.635 191.89L470.66 193.27C470.66 193.27 468.59 211.24 456.155 209.86C443.72 208.48 441.65 191.89 441.65 191.89H441.635Z" fill="white"/>
<path d="M445.879 201.656C445.654 201.836 445.414 201.986 445.189 202.151C447.364 205.841 450.784 209.261 456.139 209.861C462.679 210.581 466.324 205.976 468.349 201.431C462.259 196.496 453.214 195.896 445.879 201.656Z" fill="#D67B7B"/>
<path d="M473.45 76.1499L500.525 36.2949L504.665 85.0299L473.45 76.1499Z" fill="#72B7AA"/>
<path d="M461.87 90.8497L447.95 51.8047L529.31 78.5497L507.2 106.825L461.87 90.8497Z" fill="#298275"/>
<path d="M427.31 162.52C414.155 156.97 403.085 148.09 391.88 139.45C391.535 140.53 391.265 141.7 390.98 143.08C401.9 151.51 412.76 160.09 425.57 165.505C427.595 166.36 429.365 163.39 427.31 162.52Z" fill="#8080D6"/>
<path d="M524.15 211.15C499.55 202.645 478.115 191.155 455.87 177.73C453.95 176.575 452.225 179.56 454.13 180.715C476.585 194.26 498.125 205.765 522.86 214.345C523.325 213.295 523.76 212.23 524.15 211.15Z" fill="#8080D6"/>
<path d="M450.109 160.105C445.069 159.91 439.879 159.88 434.884 160.51C430.504 161.065 425.734 162.295 423.349 166.375C420.889 170.575 423.349 175.195 426.379 178.45C426.529 178.705 426.709 178.945 426.949 179.17C431.344 183.505 437.299 189.25 444.079 188.155C452.299 186.85 455.629 177.67 456.919 170.5C457.954 164.74 456.469 160.33 450.094 160.09L450.109 160.105Z" fill="#222222"/>
</g>
<defs>
<clipPath id="clip0_659_532">
<rect width="940.11" height="645.32" rx="60" fill="white"/>
</clipPath>
</defs>
</svg>
