<svg width="208" height="283" viewBox="0 0 208 283" fill="none" xmlns="http://www.w3.org/2000/svg">
<g clip-path="url(#clip0_683_868)">
<path d="M180.553 44.9563L158.839 68.3987L180.968 88.672L196.703 71.4511C199.917 67.933 199.677 62.4761 196.168 59.2604L180.553 44.9563Z" fill="#2D3E53"/>
<path d="M142.967 85.5338L49.2376 186.722L72.1755 207.734L165.212 105.913L142.967 85.5338Z" fill="#CC0966"/>
<path d="M20.9122 217.3L-0.000269704 239.877L30.9122 226.109L20.9122 217.3Z" fill="#6D0836"/>
<path d="M49.2376 186.722L20.9123 217.3L30.9123 226.109L72.1755 207.734L49.2376 186.722Z" fill="#FFF0BE"/>
<path d="M158.838 68.3985L142.967 85.5337L165.213 105.913L180.969 88.6703L158.838 68.3985Z" fill="#DFF5FF"/>
<path d="M150.105 28.7626L134.37 45.982L158.839 68.397L180.553 44.9546L162.279 28.215C158.769 25.0008 153.319 25.2466 150.104 28.7642L150.105 28.7626Z" fill="#233444"/>
<path d="M134.37 45.9837L118.616 63.2255L141.913 84.5681L142.967 85.5338L158.838 68.3987L134.37 45.9837Z" fill="#C1DFEA"/>
<path d="M118.616 63.2253L25.5775 165.045L49.2376 186.722L142.967 85.5337L141.913 84.568L118.616 63.2253Z" fill="#A00E46"/>
<path d="M25.5771 165.046L10.7705 208.365L20.9119 217.301L49.2372 186.722L25.5771 165.046Z" fill="#FFD19C"/>
<path d="M10.7702 208.365L-0.000775614 239.878L20.9117 217.301L10.7702 208.365Z" fill="#560023"/>
</g>
<defs>
<clipPath id="clip0_683_868">
<rect width="132.763" height="253.356" fill="white" transform="matrix(-0.9468 -0.321823 -0.321823 0.9468 207.235 42.7261)"/>
</clipPath>
</defs>
</svg>
