<svg width="100" height="99" viewBox="0 0 100 99" fill="none" xmlns="http://www.w3.org/2000/svg">
<path d="M49.9997 0C40.2754 0 30.7696 2.88358 22.6842 8.28608C14.5987 13.6886 8.29693 21.3674 4.57562 30.3514C0.854311 39.3354 -0.119353 49.2212 1.77775 58.7586C3.67486 68.296 8.35753 77.0567 15.2336 83.9328C22.1097 90.8088 30.8704 95.4915 40.4078 97.3886C49.9452 99.2857 59.8309 98.3121 68.815 94.5908C77.799 90.8694 85.4778 84.5676 90.8803 76.4822C96.2828 68.3968 99.1664 58.8909 99.1664 49.1667C99.1664 42.71 97.8946 36.3166 95.4238 30.3514C92.9529 24.3862 89.3313 18.9661 84.7658 14.4006C80.2002 9.83504 74.7801 6.21345 68.815 3.74259C62.8498 1.27173 56.4564 0 49.9997 0ZM71.1414 37.4158L48.6722 66.9158C48.2142 67.5108 47.626 67.993 46.9527 68.3254C46.2794 68.6578 45.5389 68.8315 44.788 68.8333C44.0412 68.8374 43.3033 68.6712 42.6303 68.3475C41.9573 68.0238 41.3669 67.551 40.9039 66.965L28.9072 51.6742C28.5101 51.1641 28.2174 50.5808 28.0457 49.9576C27.8741 49.3344 27.8268 48.6835 27.9067 48.042C27.9866 47.4006 28.1921 46.7811 28.5114 46.2191C28.8307 45.657 29.2575 45.1633 29.7676 44.7663C30.7978 43.9643 32.1043 43.6044 33.3998 43.7658C34.0412 43.8457 34.6607 44.0511 35.2227 44.3704C35.7848 44.6897 36.2784 45.1166 36.6755 45.6267L44.6897 55.8533L63.2747 31.27C63.6686 30.7535 64.1603 30.3196 64.7218 29.9931C65.2834 29.6666 65.9037 29.4539 66.5475 29.3671C67.1912 29.2804 67.8457 29.3213 68.4737 29.4875C69.1016 29.6537 69.6907 29.942 70.2072 30.3358C70.7237 30.7297 71.1576 31.2214 71.4841 31.783C71.8106 32.3445 72.0233 32.9649 72.11 33.6086C72.1968 34.2524 72.1559 34.9069 71.9897 35.5348C71.8235 36.1628 71.5352 36.7518 71.1414 37.2683V37.4158Z" fill="#46E54B"/>
</svg>
