<svg width="410" height="342" viewBox="0 0 410 342" fill="none" xmlns="http://www.w3.org/2000/svg">
<path d="M175.091 159.206C173.399 154.868 168.533 141.585 164.723 131.285C160.914 120.985 147.217 88.9084 143.794 80.0006C138.003 64.9164 137.948 64.4437 130.848 48.3211C123.744 32.1947 115.698 22.3817 95.7093 24.919C75.721 27.4562 72.3173 47.6515 70.5064 60.9839C68.6996 74.3158 64.9874 110.536 63.545 122.872C62.0985 135.209 59.8994 182.472 61.2611 190.189C62.6269 197.904 76.1883 194.014 85.2492 193.397C95.4274 192.705 94.8515 185.613 96.1306 178.068C97.4097 170.523 96.8273 155.079 98.7071 146.511C100.587 137.943 109.696 138.329 118.174 137.354C126.652 136.38 129.759 148.907 132.276 156.255C134.793 163.604 139.233 175.264 141.242 180.28C143.251 185.3 149.254 187.711 154.273 185.701C159.293 183.692 172.318 180.762 176.73 177.633C181.142 174.5 176.783 163.549 175.091 159.206ZM82.3069 59.8626C86.2439 58.8135 88.0529 67.3144 88.0529 67.3144L79.2769 68.8022C79.2769 68.8022 78.3698 60.9117 82.3069 59.8626ZM78.9774 78.621C83.16 77.6612 85.4203 86.9463 85.4203 86.9463L74.9805 88.5035C74.9805 88.5035 74.7902 79.577 78.9728 78.6173L78.9774 78.621ZM87.8164 107.79L81.5638 108.391C81.5638 108.391 80.8525 100.121 84.0051 99.519C87.1577 98.9171 87.8206 107.789 87.8206 107.789L87.8164 107.79ZM73.032 116.169C77.0234 115.593 77.1745 125.238 77.1745 125.238L70.7878 125.732C70.7878 125.732 69.0406 116.746 73.0279 116.17L73.032 116.169ZM70.333 139.388C73.954 138.732 74.8863 148.888 74.8863 148.888L67.22 149.652C67.22 149.652 66.7124 140.048 70.3334 139.392L70.333 139.388ZM65.9414 174.85C65.9414 174.85 65.3661 164.657 69.0005 164.118C72.6354 163.582 74.09 174.153 74.09 174.153L65.9372 174.851L65.9414 174.85ZM77.8177 186.849C77.8177 186.849 77.4588 178.538 81.5797 178.064C85.7005 177.591 86.7775 185.936 86.7775 185.936L77.8177 186.849ZM81.1792 162.121C81.1792 162.121 80.1852 152.451 84.4263 151.963C88.6673 151.476 90.1432 161.208 90.1432 161.208L81.1834 162.12L81.1792 162.121ZM96.4777 134.353L86.7196 135.593C86.7196 135.593 85.6451 124.747 90.7862 124.27C96.3341 123.749 96.4777 134.353 96.4777 134.353ZM85.0808 49.7552C85.0808 49.7552 84.7141 42.3992 89.0537 41.7827C93.3975 41.1657 94.4068 48.9225 94.4068 48.9225L85.0767 49.7556L85.0808 49.7552ZM107.745 127.567C107.745 127.567 106.216 118.438 109.985 118.004C113.753 117.571 115.237 126.349 115.237 126.349L107.74 127.568L107.745 127.567ZM121.947 108.933C122.085 112.257 114.898 112.839 109.002 113.584C103.594 114.265 95.4076 117.773 95.3467 108.949C95.2859 100.125 95.4882 70.7532 104.202 69.7514C111.744 68.8845 121.645 101.632 121.947 108.933ZM108.579 50.7508C113.066 50.3527 113.791 58.7429 113.791 58.7429L105.693 59.9134C105.693 59.9134 104.089 51.1494 108.575 50.7513L108.579 50.7508ZM115.169 41.6415L105.527 42.8676C105.527 42.8676 104.308 35.3701 109.736 34.8679C115.164 34.3616 115.169 41.6415 115.169 41.6415ZM159.682 144.505L149.18 146.549C149.18 146.549 148.423 136.851 152.53 136.262C156.638 135.672 159.682 144.505 159.682 144.505ZM141.356 105.45C146.404 104.752 148.087 113.145 148.087 113.145L137.62 114.466C137.62 114.466 136.307 106.148 141.355 105.446L141.356 105.45ZM127.205 63.2883C131.719 63.1265 132.951 70.7401 132.951 70.7401L123.572 72.1753C123.572 72.1753 122.687 63.4464 127.205 63.2883ZM128.905 87.434C133.499 86.906 134.536 91.7987 134.536 91.7987L125.524 93.3136C125.524 93.3136 125.606 87.8175 128.906 87.4382L128.905 87.434ZM130.409 131.646C130.409 131.646 129.204 124.269 133.061 123.586C136.919 122.903 139.301 130.145 139.301 130.145L130.409 131.646ZM139.585 159.583C139.585 159.583 139.51 153.743 142.4 152.936C145.289 152.125 148.232 157.992 148.232 157.992L139.585 159.583ZM147.644 175.717C147.644 175.717 147.258 170.275 149.715 169.87C152.172 169.47 154.079 174.62 154.079 174.62L147.644 175.717ZM161.514 167.678C161.514 167.678 160.574 161.581 164.288 160.679C168.002 159.773 170.054 166.222 170.054 166.222L161.514 167.682L161.514 167.678Z" fill="#3B425A"/>
<path d="M347.534 164.896C321.356 161.898 287.614 176.214 274.061 223.846C259.769 274.083 279.202 314.196 305.677 326.596C337.082 341.3 385.282 329.28 395.418 261.029C405.553 192.777 369.535 167.418 347.534 164.9L347.534 164.896ZM324.984 186.918C325.612 186.064 327.285 186.106 327.83 187.16C328.524 188.509 327.672 200.84 324.282 200.985C320.893 201.13 324.361 187.774 324.984 186.918ZM305.984 275.188C307.897 276.588 303.327 290.849 300.795 290.178C298.264 289.508 299.644 284.213 300.704 280.786C301.768 277.36 303.415 273.313 305.98 275.188L305.984 275.188ZM302.016 219.212C302.071 221.063 300.304 232.146 297.264 231.63C294.224 231.115 296.906 220.991 298.042 218.538C299.178 216.085 301.98 218.004 302.016 219.212ZM287.086 211.565C288.337 211.274 289.478 211.637 289.808 212.531C290.326 213.944 288.162 220.815 285.853 220.254C283.544 219.693 285.834 211.857 287.086 211.565ZM282.955 235.214C283.583 234.36 285.256 234.402 285.801 235.456C286.494 236.805 285.643 249.136 282.253 249.281C278.864 249.425 282.332 236.069 282.955 235.214ZM281.024 272.097C278.254 271.809 279.223 263.126 281.677 262.983C282.578 262.933 283.194 263.393 283.572 264.135C284.844 266.641 283.383 272.336 281.024 272.093L281.024 272.097ZM296.256 203.567C294.038 202.471 296.71 195.228 297.846 192.775C298.981 190.322 301.747 191.032 302.169 192.789C302.646 194.77 298.469 204.666 296.252 203.566L296.256 203.567ZM285.09 290.642C282.558 289.972 284.173 284.717 284.92 281.715C285.669 278.718 287.937 275.255 290.033 278.493C291.582 280.89 287.618 291.308 285.086 290.638L285.09 290.642ZM294.281 266.231C291.984 265.6 294.86 254.307 296.147 253.805C297.435 253.304 298.564 253.733 298.835 254.981C299.259 256.945 296.578 266.862 294.281 266.231ZM307.14 213.109C305.215 212.579 306.351 207.281 306.552 206.046C306.759 204.777 308.003 196.949 310.466 200.542C310.71 200.901 310.858 201.599 310.914 202.493C311.145 206.346 309.672 213.805 307.144 213.11L307.14 213.109ZM312.191 182.166C313.101 179.971 316.484 177.768 318.342 180.386C319.907 182.59 317.452 191.296 313.442 190.857C309.868 190.467 311.338 184.222 312.19 182.17L312.191 182.166ZM306.279 237.046C306.701 235.809 308.558 229.529 310.312 232.413C312.082 235.325 309.019 243.725 306.353 243.273C304.135 242.897 305.897 238.175 306.283 237.047L306.279 237.046ZM297.417 312.935C294.07 311.406 295.494 304.434 296.828 300.812C298.162 297.191 301.675 296.343 302.598 299.387C303.332 301.797 300.76 314.463 297.413 312.934L297.417 312.935ZM311.233 265.504C307.659 265.114 309.129 258.869 309.981 256.817C310.891 254.622 314.274 252.419 316.132 255.037C317.697 257.241 315.242 265.947 311.232 265.508L311.233 265.504ZM320.195 225.424C317.413 225.206 318.95 213.178 321.439 212.83C322.354 212.701 322.947 213.297 323.281 214.298C324.406 217.672 322.564 225.61 320.195 225.429L320.195 225.424ZM378.156 246.56C378.211 248.411 376.445 259.495 373.404 258.979C370.364 258.463 373.046 248.339 374.182 245.886C375.318 243.433 378.12 245.352 378.156 246.56ZM379.666 204.255C380.271 203.659 382.007 203.78 382.628 204.584C383.419 205.612 383.187 214.61 379.682 214.541C376.177 214.467 379.065 204.852 379.666 204.255ZM371.333 194.667C372.469 192.214 375.271 194.133 375.308 195.342C375.362 197.192 373.596 208.276 370.555 207.76C367.515 207.244 370.198 197.12 371.333 194.667ZM361.837 256.657C362.261 258.625 359.58 268.537 357.283 267.906C354.986 267.275 357.862 255.982 359.15 255.481C360.437 254.98 361.566 255.408 361.837 256.657ZM364.41 213.148C365.387 215.646 362.961 228.772 358.72 226.851C354.479 224.929 357.655 217.535 358.719 214.108C359.783 210.682 363.407 210.577 364.409 213.152L364.41 213.148ZM353.564 177.907C354.077 177.402 355.558 177.505 356.085 178.187C356.758 179.063 356.563 186.726 353.576 186.664C350.59 186.602 353.05 178.417 353.564 177.907ZM350.116 208.085C347.13 208.023 349.59 199.834 350.103 199.329C350.616 198.823 352.097 198.926 352.625 199.609C353.297 200.485 353.102 208.147 350.116 208.085ZM344.557 217.776C345.161 217.18 346.897 217.301 347.515 218.104C348.305 219.132 348.074 228.131 344.568 228.061C341.064 227.987 343.952 218.372 344.552 217.775L344.557 217.776ZM345.558 183.555C345.813 183.848 345.984 184.415 346.07 185.128C346.432 188.208 345.223 194.111 342.687 193.469C340.755 192.981 341.703 188.79 341.86 187.813C342.022 186.808 342.99 180.605 345.562 183.556L345.558 183.555ZM336.412 202.84C337.313 202.789 337.929 203.249 338.307 203.991C339.579 206.497 338.118 212.192 335.759 211.949C332.989 211.661 333.959 202.978 336.412 202.835L336.412 202.84ZM335.154 172.655C336.29 170.202 339.056 170.912 339.477 172.669C339.954 174.65 335.778 184.546 333.56 183.446C331.342 182.35 334.014 175.107 335.15 172.654L335.154 172.655ZM315.178 314.5C310.937 312.578 314.114 305.184 315.177 301.758C316.241 298.332 319.865 298.227 320.867 300.801C321.845 303.3 319.419 316.426 315.178 314.504L315.178 314.5ZM319.227 289.216C315.84 287.922 316.907 283.053 317.816 279.117C318.725 275.182 323.795 273.638 325.422 276.801C326.574 279.041 322.613 290.51 319.227 289.216ZM327.515 253.111C322.334 245.379 328.337 231.251 336.572 233.727C341.353 235.165 343.975 241.113 342.201 247.306C340.43 253.499 332.692 260.843 327.511 253.111L327.515 253.111ZM333.673 291.908C334.967 288.521 336.529 287.825 337.694 289.466C339.439 291.925 337.074 301.625 334.308 300.914C331.542 300.204 332.375 295.295 333.673 291.908ZM332.658 322.694C330.36 322.063 333.237 310.769 334.524 310.268C335.811 309.767 336.941 310.196 337.211 311.444C337.636 313.408 334.955 323.325 332.658 322.694ZM340.957 280.16C338.66 279.529 341.536 268.236 342.824 267.735C344.111 267.234 345.24 267.662 345.511 268.911C345.935 270.879 343.254 280.791 340.957 280.16ZM359.912 188.64C360.669 186.047 363.511 186.334 364.193 188.008C364.96 189.895 362.31 200.303 359.953 199.548C357.597 198.793 359.158 191.234 359.916 188.641L359.912 188.64ZM354.27 248.464C350.766 248.39 353.654 238.776 354.254 238.179C354.859 237.583 356.595 237.704 357.212 238.507C358.003 239.535 357.772 248.533 354.266 248.464L354.27 248.464ZM347.376 309.985C344.685 309.528 347.515 297.016 350.586 297.698C351.116 297.818 351.482 298.257 351.706 298.909C352.826 302.138 350.491 310.513 347.376 309.985ZM354.534 281.143C355.443 278.948 358.827 276.745 360.685 279.363C362.25 281.567 359.795 290.273 355.785 289.834C352.211 289.444 353.681 283.2 354.533 281.147L354.534 281.143ZM352.025 321.949C350.032 321.247 352.28 315.008 354.112 315.335C354.786 315.458 355.162 315.907 355.308 316.52C355.807 318.595 353.724 322.542 352.026 321.945L352.025 321.949ZM365.315 249.25C362.545 248.962 363.515 240.279 365.968 240.137C366.87 240.086 367.486 240.547 367.864 241.288C369.136 243.794 367.675 249.489 365.316 249.246L365.315 249.25ZM370.921 224.594C371.83 222.399 375.214 220.196 377.072 222.814C378.637 225.018 376.182 233.725 372.172 233.286C368.598 232.895 370.068 226.651 370.92 224.598L370.921 224.594ZM362.83 308.885C358.589 306.964 361.765 299.569 362.829 296.143C363.892 292.717 367.516 292.612 368.519 295.187C369.496 297.685 367.07 310.811 362.829 308.89L362.83 308.885ZM373.616 284.626C370.834 284.408 372.371 272.38 374.86 272.031C375.774 271.903 376.368 272.499 376.701 273.499C377.826 276.874 375.984 284.812 373.615 284.63L373.616 284.626ZM386.219 230.445C386.824 229.849 388.56 229.97 389.177 230.773C389.968 231.801 389.737 240.799 386.231 240.729C382.726 240.656 385.615 231.041 386.215 230.444L386.219 230.445ZM383.106 270.128C379.532 269.738 381.002 263.494 381.854 261.441C382.764 259.246 386.147 257.043 388.005 259.661C389.57 261.865 387.115 270.571 383.105 270.132L383.106 270.128Z" fill="#E263F6"/>
<path d="M111.734 228.307C111.488 224.868 146.772 171.274 146.031 166.339C145.289 161.404 116.794 143.867 113.005 144.522C109.216 145.177 83.2706 191.766 78.7265 190.749C74.8275 189.875 44.66 149.045 40.8434 149.319C37.0269 149.593 12.0384 175.575 10.7301 178.738C9.42203 181.905 57.3994 230.288 57.9446 232.551C58.4898 234.815 10.5615 293.926 10.4227 297.388C10.2888 300.854 43.039 324.222 45.3558 324.444C47.6722 324.66 81.4294 271.175 84.0992 270.984C86.769 270.792 128.036 316.589 131.472 316.342C134.908 316.095 160.356 285.858 159.647 281.304C158.937 276.75 111.972 231.746 111.725 228.307L111.734 228.307ZM123.017 158.303C124.448 157.971 132.498 163.354 132.81 164.697C133.043 165.685 132.102 167.316 130.756 168.008C129.41 168.699 121.747 162.562 121.1 161.392C120.449 160.222 121.587 158.636 123.017 158.299L123.017 158.303ZM117.394 165.894C118.824 165.557 126.874 170.945 127.187 172.288C127.415 173.276 126.479 174.907 125.132 175.599C123.786 176.29 116.124 170.153 115.472 168.983C114.821 167.813 115.959 166.227 117.389 165.89L117.394 165.894ZM109.949 175.089C111.379 174.752 119.429 180.14 119.742 181.483C119.971 182.471 119.034 184.102 117.688 184.793C116.342 185.485 108.679 179.348 108.028 178.178C107.376 177.008 108.514 175.422 109.944 175.085L109.949 175.089ZM103.226 184.052C104.656 183.715 112.707 189.103 113.019 190.445C113.248 191.434 112.311 193.065 110.965 193.756C109.619 194.448 101.956 188.311 101.309 187.141C100.662 185.97 101.796 184.384 103.226 184.047L103.226 184.052ZM97.8106 193.286C99.2407 192.949 107.291 198.337 107.604 199.68C107.832 200.668 106.896 202.299 105.549 202.99C104.203 203.682 96.5404 197.545 95.8936 196.375C95.2423 195.205 96.3801 193.618 97.8102 193.281L97.8106 193.286ZM92.1652 201.892C93.5954 201.555 101.646 206.943 101.958 208.286C102.187 209.274 101.25 210.905 99.904 211.596C98.5579 212.288 90.8951 206.151 90.2438 204.981C89.5925 203.811 90.7303 202.225 92.1605 201.888L92.1652 201.892ZM68.0495 205.47C67.5835 206.694 61.0143 213.721 59.6107 213.236C58.2071 212.751 57.0674 211.301 57.154 210.313C57.269 208.966 64.3234 202.615 65.7599 202.742C67.196 202.864 68.52 204.247 68.0539 205.47L68.0495 205.47ZM23.5888 175.278C22.1852 174.793 21.0455 173.342 21.1321 172.354C21.2471 171.007 28.3015 164.657 29.738 164.783C31.1741 164.906 32.4981 166.289 32.032 167.512C31.566 168.735 24.9969 175.762 23.5933 175.277L23.5888 175.278ZM30.1078 181.853C28.7042 181.367 27.5645 179.917 27.6511 178.929C27.7661 177.582 34.8206 171.232 36.257 171.358C37.6931 171.48 39.0171 172.863 38.5511 174.086C38.085 175.309 31.5159 182.337 30.1123 181.852L30.1078 181.853ZM38.616 189.731C37.2124 189.246 36.0727 187.796 36.1594 186.807C36.2743 185.461 43.3288 179.11 44.7652 179.237C46.2013 179.359 47.5253 180.742 47.0593 181.965C46.5932 183.188 40.0241 190.216 38.6205 189.731L38.616 189.731ZM46.3902 197.482C44.9866 196.997 43.8469 195.547 43.9335 194.558C44.0484 193.212 51.1029 186.861 52.5393 186.988C53.9754 187.11 55.2994 188.493 54.8334 189.716C54.3674 190.939 47.7983 197.966 46.3947 197.481L46.3902 197.482ZM52.9358 205.681C51.5322 205.196 50.3925 203.746 50.4791 202.758C50.594 201.411 57.6485 195.06 59.0849 195.187C60.521 195.309 61.845 196.692 61.379 197.915C60.913 199.138 54.3439 206.166 52.9403 205.681L52.9358 205.681ZM35.8365 308.063C34.3442 308.413 25.9627 302.801 25.6329 301.406C25.3925 300.378 26.369 298.676 27.7715 297.954C29.1739 297.231 37.1523 303.625 37.8295 304.842C38.5068 306.06 37.3197 307.713 35.832 308.063L35.8365 308.063ZM41.6942 300.158C40.202 300.509 31.8205 294.897 31.4906 293.501C31.2502 292.473 32.2267 290.771 33.6292 290.049C35.0317 289.326 43.0101 295.72 43.6873 296.937C44.3646 298.155 43.1775 299.808 41.6897 300.158L41.6942 300.158ZM49.4446 290.581C47.9524 290.931 39.5708 285.319 39.241 283.924C39.0006 282.895 39.9771 281.194 41.3796 280.472C42.7821 279.749 50.7604 286.143 51.4377 287.36C52.1149 288.578 50.9278 290.231 49.4401 290.581L49.4446 290.581ZM56.4469 281.246C54.9547 281.597 46.5732 275.985 46.2434 274.589C46.003 273.561 46.9795 271.86 48.3819 271.137C49.7844 270.415 57.7628 276.808 58.44 278.026C59.1173 279.243 57.9302 280.897 56.4425 281.247L56.4469 281.246ZM62.087 271.627C60.5948 271.977 52.2133 266.365 51.8835 264.97C51.6431 263.941 52.6196 262.24 54.022 261.518C55.4245 260.795 63.4029 267.189 64.0801 268.406C64.7574 269.624 63.5703 271.277 62.0826 271.627L62.087 271.627ZM67.9632 262.662C66.471 263.012 58.0895 257.4 57.7597 256.004C57.5193 254.976 58.4958 253.275 59.8982 252.553C61.3007 251.83 69.2791 258.223 69.9563 259.441C70.6336 260.659 69.4465 262.312 67.9588 262.662L67.9632 262.662ZM75.4468 254.825C74.7272 254.71 74.0538 254.425 73.3686 254.163C72.6914 253.887 71.9912 253.667 71.3374 253.34C70.0729 252.597 68.7389 251.954 67.6413 250.965C66.4363 250.11 65.4784 248.998 64.479 247.934C64.0113 247.377 63.6162 246.766 63.1827 246.184C62.7317 245.608 62.3717 244.985 62.0333 244.347C60.5664 241.852 59.631 239.108 59.044 236.325C58.4432 233.538 58.2279 230.665 58.5301 227.787C58.8575 224.821 59.6435 222.223 60.6056 219.568C61.6009 216.937 62.929 214.363 64.7571 212.105C66.5714 209.844 68.9119 207.95 71.5419 206.702C74.1639 205.469 77.0088 204.706 79.8274 204.58C80.6216 204.478 81.506 204.504 82.3895 204.581C83.273 204.657 84.1654 204.669 84.9404 204.866C86.503 205.182 87.6874 205.498 87.8202 205.655C87.9531 205.812 87.151 205.929 85.9655 205.973C85.3764 205.984 84.6885 205.997 83.9647 206.013C83.239 206.065 82.4855 206.106 81.7524 206.118C78.0129 206.274 74.2356 207.158 71.0885 209.168C67.9705 211.208 65.5505 214.189 64.0215 217.601C63.2149 219.286 62.6089 221.069 62.114 222.893C61.6067 224.732 61.1924 226.55 61.1128 228.39C60.9102 232.09 61.4842 235.884 62.8024 239.38C63.9415 242.453 65.7124 245.295 68.0511 247.515C70.3862 249.749 73.315 251.283 76.4494 252.045C79.582 252.906 82.9369 252.724 86.1906 252.323C87.8044 251.973 89.4772 251.817 91.0003 251.207C91.7682 250.927 92.584 250.751 93.3102 250.393L95.4837 249.308C98.2572 247.676 100.581 245.356 101.937 242.487C103.312 239.631 103.738 236.343 103.404 233.131C102.715 226.733 99.2766 220.356 93.7685 217.137C90.6054 215.287 86.8234 214.599 83.2213 215.164C81.4251 215.482 79.6943 216.084 78.1043 216.955C76.5099 217.827 75.1387 219.047 73.9717 220.415C69.2763 225.884 70.2164 235.216 75.4609 239.968C76.7768 241.112 78.3044 242.008 79.9918 242.432C80.4062 242.56 80.8487 242.577 81.2734 242.659L81.9156 242.762L82.5818 242.759L83.9196 242.767C84.3577 242.722 84.7883 242.637 85.2206 242.574C88.7001 242.059 91.6611 239.652 92.9756 236.511C94.283 233.335 93.6543 229.596 91.3047 227.223C90.1184 226.128 88.5056 225.049 86.9439 224.558C85.3713 224.04 83.8413 224.113 82.6545 224.893C82.6974 224.925 82.7361 224.963 82.7745 224.997C81.9328 225.503 81.1563 226.478 80.7306 227.572C80.3 228.662 80.1872 229.787 80.2579 230.521C80.32 231.323 80.5458 231.897 81.0022 232.234C81.6827 232.744 82.2706 232.905 82.8171 232.802C83.3875 232.721 83.953 232.194 84.3298 231.671C84.7433 231.159 84.8208 230.482 84.8771 230.577C84.7923 230.462 84.886 230.45 85.0528 230.515C85.1308 230.41 85.2971 230.908 85.1667 231.476C85.055 232.051 84.75 232.758 84.2098 233.324C83.6792 233.898 82.8554 234.277 82.0475 234.25C81.7541 234.239 81.4507 234.216 81.164 234.111C80.8622 234.047 80.5828 233.918 80.3021 233.771C79.7264 233.529 79.1925 233.053 78.8447 232.475C78.1304 231.305 78.0076 229.845 78.1916 228.457C78.3795 227.06 78.9373 225.673 79.8388 224.495C80.7458 223.331 82.0791 222.397 83.5831 222.086C85.9153 221.581 88.2322 222.37 90.1419 223.445C90.6214 223.726 91.0963 224.007 91.5438 224.344L92.8638 225.421C93.2621 225.825 93.619 226.282 93.9923 226.715C94.3787 227.142 94.5981 227.689 94.9077 228.176C97.0961 232.318 96.123 237.642 93.028 241.068C91.5153 242.825 89.45 244.1 87.2312 244.742C85.0096 245.406 82.6898 245.581 80.3961 245.178C78.1039 244.798 75.881 243.813 74.0677 242.325C72.2752 240.814 70.8816 238.9 69.9032 236.811C67.9189 232.628 67.6362 227.687 69.1911 223.255C70.8186 218.767 74.4892 215.331 78.7854 213.522C83.1185 211.787 88.1056 211.7 92.4784 213.405C94.6559 214.258 96.6764 215.496 98.4389 217.027C99.2545 217.852 100.147 218.622 100.818 219.565C101.171 220.022 101.545 220.468 101.881 220.939L102.792 222.406C105.173 226.344 106.42 230.919 106.394 235.575C106.459 236.742 106.214 237.904 106.077 239.067C105.867 240.223 105.503 241.362 105.138 242.483C104.205 244.659 103.012 246.794 101.289 248.446C97.9566 251.893 93.4857 253.778 89.0893 254.756C84.7064 255.796 79.991 255.968 75.4379 254.825L75.4468 254.825ZM96.5611 258.045C97.0575 256.743 104.041 249.275 105.532 249.79C107.023 250.305 108.233 251.849 108.142 252.901C108.02 254.334 100.521 261.081 98.9938 260.948C97.4669 260.814 96.0603 259.347 96.5567 258.045L96.5611 258.045ZM103.658 266.079C104.154 264.777 111.137 257.309 112.629 257.824C114.12 258.339 115.329 259.883 115.238 260.935C115.116 262.368 107.617 269.115 106.09 268.982C104.563 268.848 103.157 267.381 103.653 266.079L103.658 266.079ZM110.614 274.794C111.11 273.492 118.094 266.025 119.585 266.539C121.076 267.054 122.286 268.598 122.195 269.65C122.072 271.083 114.574 277.831 113.047 277.697C111.52 277.563 110.113 276.096 110.61 274.794L110.614 274.794ZM121.315 285.93C119.788 285.797 118.381 284.33 118.878 283.028C119.374 281.726 126.357 274.258 127.849 274.773C129.34 275.288 130.549 276.832 130.458 277.884C130.336 279.317 122.837 286.064 121.31 285.931L121.315 285.93ZM127.917 291.4C128.413 290.098 135.396 282.63 136.888 283.145C138.379 283.66 139.588 285.204 139.497 286.256C139.375 287.689 131.876 294.436 130.349 294.303C128.822 294.169 127.416 292.702 127.912 291.4L127.917 291.4ZM137.281 301.29C135.754 301.156 134.347 299.689 134.843 298.387C135.34 297.085 142.323 289.618 143.814 290.132C145.306 290.647 146.515 292.192 146.424 293.243C146.302 294.676 138.803 301.424 137.276 301.29L137.281 301.29Z" fill="#F179AF"/>
<path d="M195.909 131.846C196.848 132.92 198.04 133.772 199.076 133.126C200.177 132.538 201.111 131.318 201.917 130.117C203.54 127.657 204.828 124.923 206.2 122.203C206.543 121.52 206.89 120.837 207.263 120.153L207.548 119.64L207.932 119.003C208.258 118.511 208.608 118.026 209.007 117.69C209.396 117.344 209.846 117.152 210.379 117.234C210.612 117.324 210.809 117.439 211.013 117.563C211.198 117.744 211.389 117.909 211.55 118.155C211.879 118.583 212.203 119.196 212.433 119.647L212.945 120.705C214.234 123.525 215.328 126.365 216.548 129.127C216.938 130.003 217.338 130.873 217.765 131.695L218.087 132.286L218.226 132.504C218.31 132.619 218.396 132.742 218.53 132.787C218.675 132.766 218.755 132.615 218.839 132.511L219.308 131.754C219.786 130.952 220.241 130.106 220.687 129.254C222.493 125.827 224.091 122.297 226.11 118.803L226.534 118.112C226.776 117.762 227.029 117.388 227.297 117.061C227.854 116.386 228.443 115.971 229.168 115.991C229.902 115.958 230.454 116.458 230.974 117.123C231.236 117.472 231.46 117.826 231.658 118.189L231.812 118.454L231.902 118.624L232.085 118.965C233.02 120.773 233.801 122.569 234.589 124.369L236.903 129.752C237.288 130.641 237.682 131.526 238.083 132.383L238.388 133.019L238.593 133.425C238.619 133.461 238.639 133.506 238.678 133.527C238.732 133.533 238.772 133.483 238.8 133.453L239.068 133.169L239.567 132.592C240.231 131.79 240.869 130.91 241.501 130.02C242.761 128.228 243.975 126.368 245.222 124.507C245.846 123.575 246.478 122.639 247.144 121.708C247.479 121.242 247.818 120.773 248.187 120.307C248.384 120.052 248.522 119.879 248.798 119.558C249.162 119.167 249.544 118.736 249.959 118.452C250.373 118.138 250.806 117.953 251.249 117.932C251.475 117.899 251.725 117.852 251.942 117.974C252.154 118.066 252.373 118.091 252.562 118.239C252.962 118.453 253.309 118.866 253.621 119.297C253.923 119.739 254.254 120.294 254.342 120.481C254.916 121.551 255.377 122.583 255.841 123.627C257.388 127.158 258.752 130.717 260.317 134.094C260.708 134.933 261.117 135.757 261.547 136.508C261.736 136.845 262.051 137.314 262.139 137.429C262.179 137.484 262.156 137.461 262.172 137.471C262.172 137.471 262.172 137.471 262.189 137.469L262.225 137.452L262.379 137.348C262.716 137.126 263.071 136.851 263.425 136.581C264.133 136.016 264.836 135.416 265.537 134.795C271.026 129.834 276.263 124.403 281.435 119.015C280.043 113.293 277.621 108.671 274.868 104.994C273.317 107.088 271.715 109.152 269.989 111.159C269.516 111.688 269.04 112.218 268.523 112.725C267.987 113.223 267.555 113.732 266.594 114.239C266.158 114.411 265.646 114.55 265.21 114.29C264.764 114.112 264.42 113.707 264.104 113.348C263.575 112.694 263.227 112.104 262.851 111.464C261.431 108.944 260.293 106.347 259.143 103.745C258.14 101.466 257.165 99.1654 256.1 96.9592C255.841 96.4337 255.538 95.8233 255.288 95.3997C255.157 95.1872 255.04 94.9637 254.837 94.8269C254.583 94.7725 254.434 95.0789 254.29 95.2388L253.928 95.7601L253.433 96.5182C250.836 100.694 248.584 105.191 245.779 109.46C245.424 109.995 245.052 110.528 244.655 111.053C244.445 111.315 244.25 111.578 244.019 111.837C243.899 111.966 243.804 112.098 243.668 112.225C243.53 112.361 243.305 112.604 243.117 112.742C242.367 113.424 241.285 113.733 240.459 113.172C239.665 112.702 239.058 111.515 238.834 111.048C237.717 108.601 237.057 106.185 236.345 103.755L234.347 96.5133L233.82 94.7387C233.655 94.1947 233.38 93.4152 233.38 93.4152C233.311 93.2476 233.25 93.0769 233.127 92.9451C232.947 92.8656 232.838 93.1219 232.736 93.2363L232.468 93.6676L231.834 94.7626L230.604 97.0242L228.159 101.633C227.327 103.172 226.478 104.709 225.523 106.225C225.041 106.98 224.547 107.734 223.962 108.473C223.667 108.843 223.348 109.214 222.983 109.575C222.664 109.862 221.934 110.513 221.23 110.642C220.506 110.874 219.732 110.634 219.122 110.202C218.967 110.088 218.819 109.987 218.677 109.832L218.323 109.443C218.166 109.231 217.986 109.009 217.859 108.801C217.314 107.949 216.927 107.11 216.571 106.267C215.873 104.586 215.328 102.902 214.816 101.217C214.308 99.533 213.846 97.8457 213.392 96.1677L212.796 93.9776C212.74 93.8032 212.711 93.6906 212.645 93.5654C212.468 93.5367 212.402 93.8231 212.316 93.9477L211.644 95.2947L210.904 96.8437C209.921 98.9279 208.938 101.042 207.824 103.132C207.267 104.177 206.677 105.218 206.005 106.242C205.312 107.263 204.602 108.286 203.474 109.227C202.922 109.681 202.159 110.173 201.093 110.277C200.019 110.372 199.061 109.901 198.446 109.41C197.181 108.391 196.576 107.254 195.956 106.149C195.926 106.192 195.889 106.221 195.855 106.26C195.362 105.287 194.909 104.214 194.532 103.188C193.604 110.635 192.663 118.097 191.805 124.972C192.131 125.652 192.463 126.342 192.828 127.039C193.707 128.707 194.679 130.449 195.903 131.858L195.909 131.846Z" fill="#C56E07"/>
<path d="M192.84 157.015C193.779 158.089 194.971 158.94 196.007 158.295C197.108 157.707 198.042 156.487 198.848 155.286C200.47 152.826 201.759 150.092 203.13 147.372C203.473 146.688 203.821 146.006 204.193 145.322L204.479 144.809L204.863 144.172C205.189 143.676 205.538 143.195 205.938 142.859C206.327 142.513 206.777 142.321 207.31 142.403C207.543 142.493 207.74 142.608 207.944 142.732C208.129 142.913 208.32 143.078 208.481 143.323C208.809 143.752 209.134 144.365 209.364 144.815L209.876 145.874C211.165 148.694 212.258 151.534 213.478 154.295C213.869 155.172 214.269 156.041 214.695 156.863L215.018 157.455L215.157 157.673C215.24 157.787 215.327 157.911 215.46 157.955C215.606 157.934 215.686 157.784 215.769 157.68L216.238 156.923C216.717 156.121 217.171 155.274 217.618 154.422C219.423 150.996 221.022 147.466 223.041 143.972L223.464 143.281C223.706 142.931 223.959 142.556 224.228 142.23C224.784 141.555 225.374 141.139 226.098 141.16C226.833 141.126 227.385 141.627 227.905 142.292C228.167 142.637 228.391 142.994 228.589 143.357L228.743 143.623L228.833 143.793L229.016 144.133C229.951 145.942 230.732 147.738 231.52 149.538L233.833 154.921C234.219 155.81 234.612 156.695 235.014 157.552L235.319 158.188L235.524 158.594C235.549 158.63 235.569 158.674 235.609 158.696C235.663 158.702 235.702 158.652 235.731 158.622L235.999 158.337L236.498 157.76C237.161 156.959 237.8 156.078 238.432 155.189C239.692 153.397 240.905 151.537 242.152 149.676C242.776 148.744 243.409 147.808 244.075 146.876C244.41 146.411 244.749 145.942 245.118 145.476C245.315 145.221 245.453 145.048 245.729 144.727C246.093 144.336 246.474 143.905 246.889 143.621C247.303 143.307 247.736 143.121 248.18 143.101C248.406 143.068 248.655 143.021 248.872 143.143C249.084 143.234 249.304 143.26 249.493 143.407C249.893 143.621 250.24 144.035 250.552 144.466C250.854 144.908 251.185 145.463 251.272 145.649C251.847 146.719 252.308 147.751 252.772 148.796C254.319 152.326 255.683 155.886 257.248 159.263C257.639 160.102 258.048 160.926 258.478 161.677C258.666 162.014 258.982 162.483 259.07 162.598C259.11 162.653 259.087 162.629 259.103 162.64C259.103 162.64 259.103 162.64 259.12 162.637L259.155 162.62L259.31 162.516C259.646 162.295 260.001 162.02 260.356 161.75C261.064 161.184 261.767 160.585 262.468 159.964C268.041 154.929 273.351 149.409 278.6 143.942C279.421 143.083 280.545 142.074 281.444 141.345C283.032 133.407 282.975 126.628 281.862 120.896C278.9 124.265 275.901 127.626 272.782 130.935C270.907 132.917 268.996 134.886 266.973 136.779C265.948 137.724 264.93 138.653 263.723 139.506C263.004 139.99 261.842 140.596 260.981 139.897C260.587 139.599 260.189 139.15 259.957 138.829C259.729 138.517 259.533 138.209 259.338 137.897C257.563 134.811 256.315 131.634 254.955 128.487C254.287 126.91 253.624 125.339 252.927 123.801C252.573 123.037 252.211 122.277 251.825 121.578C251.718 121.381 251.657 121.289 251.551 121.155C251.469 121.024 251.285 120.94 251.161 121.073C251.033 121.163 250.931 121.282 250.83 121.396C250.68 121.568 250.347 121.979 250.123 122.281C249.623 122.938 249.132 123.629 248.653 124.33L245.782 128.588C244.819 130.019 243.848 131.449 242.8 132.858C242.274 133.562 241.727 134.26 241.111 134.945C240.938 135.139 240.843 135.233 240.558 135.52C240.288 135.749 240.02 135.996 239.737 136.19C239.16 136.611 238.557 136.739 237.907 136.652C237.444 136.406 237.06 136.097 236.736 135.589L236.288 134.807L235.997 134.231C235.667 133.559 235.369 132.895 235.072 132.23L233.359 128.24C232.231 125.594 231.131 122.917 229.877 120.416L229.463 119.629C229.39 119.499 229.348 119.431 229.289 119.353C229.235 119.28 229.178 119.189 229.084 119.166C228.986 119.175 228.921 119.265 228.859 119.333C228.8 119.406 228.745 119.488 228.694 119.566L228.238 120.312C227.894 120.894 227.56 121.499 227.234 122.108C225.923 124.554 224.696 127.084 223.391 129.598C222.733 130.858 222.072 132.114 221.297 133.374C221.175 133.557 221.146 133.629 220.945 133.917C220.761 134.165 220.591 134.435 220.397 134.665C220.001 135.111 219.589 135.555 219.115 135.698C218.885 135.798 218.629 135.756 218.355 135.838C218.09 135.807 217.859 135.697 217.634 135.574C217.175 135.362 216.786 134.876 216.426 134.389C216.244 134.146 216.106 133.882 215.946 133.632C215.797 133.388 215.747 133.278 215.646 133.098L215.146 132.112C214.827 131.454 214.532 130.798 214.246 130.143C213.674 128.834 213.14 127.525 212.605 126.224C212.07 124.923 211.543 123.623 210.991 122.363L210.569 121.428L210.186 120.632C210.129 120.537 210.084 120.423 209.985 120.369C209.87 120.381 209.817 120.514 209.757 120.595L209.412 121.19L208.922 122.083L206.99 125.814C205.647 128.327 204.371 130.878 202.315 133.263C201.777 133.852 201.193 134.441 200.355 134.932C199.921 135.168 199.434 135.385 198.843 135.477C198.261 135.574 197.605 135.507 197.093 135.322C196.031 134.952 195.345 134.336 194.758 133.743C194.181 133.139 193.698 132.512 193.275 131.88C193.249 131.923 193.216 131.961 193.186 132C192.503 130.963 191.873 129.794 191.348 128.696C190.231 137.722 189.297 145.441 188.807 150.288C189.112 150.924 189.421 151.564 189.758 152.212C190.638 153.88 191.609 155.622 192.834 157.031L192.84 157.015Z" fill="#C56E07"/>
<path d="M272.464 37.9492C272.146 38.1941 271.797 38.4145 271.418 38.5348C271.04 38.6804 270.604 38.6345 270.274 38.4033C269.926 38.2079 269.658 37.8787 269.401 37.551C269.166 37.2215 269.01 36.9725 268.843 36.6718C267.587 34.364 266.746 31.965 265.862 29.5655C264.995 27.1679 264.191 24.7396 263.312 22.3742C263.115 21.8558 262.918 21.3416 262.706 20.8426L262.551 20.4802L262.469 20.3112C262.419 20.2004 262.359 20.0969 262.299 19.9976C262.202 19.8226 261.989 19.5167 261.774 19.744C261.6 19.9088 261.472 20.1084 261.353 20.3047L261.024 20.8635L260.622 21.5819L259.848 23.0557L258.338 26.0666C257.333 28.0853 256.331 30.121 255.192 32.1286C254.611 33.133 254.034 34.1296 253.245 35.1102C253.134 35.2402 253.068 35.3377 252.911 35.5002L252.414 35.9851C252.061 36.2764 251.681 36.5142 251.272 36.6394C250.403 36.8546 249.554 36.4127 248.991 35.6842L248.572 35.1277L248.313 34.7114C248.151 34.4407 248.014 34.1729 247.873 33.9046C247.607 33.3698 247.357 32.8329 247.133 32.2988C246.676 31.2296 246.271 30.1537 245.877 29.0834C245.095 26.935 244.385 24.7822 243.655 22.6524C243.29 21.5854 242.921 20.5263 242.531 19.4901L242.233 18.7207L242.01 18.1783C241.94 18.0231 241.869 17.868 241.772 17.7308C241.728 17.6711 241.655 17.5787 241.568 17.636C241.492 17.6776 241.446 17.7521 241.392 17.8174C241.292 17.9571 241.222 18.0919 241.121 18.2777C240.607 19.2354 240.122 20.2425 239.64 21.2542C238.531 23.5969 237.45 25.9849 236.246 28.3462C235.64 29.5284 235.013 30.7041 234.271 31.8665C233.906 32.4463 233.495 33.0251 233 33.5984C232.866 33.7426 232.758 33.8814 232.598 34.0269C232.463 34.1458 232.201 34.4181 231.973 34.5348C231.507 34.8594 230.981 35.0551 230.43 35.0927C229.891 35.0685 229.337 34.9208 228.904 34.5601C228.669 34.4113 228.495 34.1687 228.29 33.9771C228.193 33.8735 228.115 33.751 228.031 33.6364L227.848 33.3675C227.431 32.681 227.166 32.0246 226.914 31.3697C226.426 30.0616 226.073 28.7818 225.728 27.5029C225.041 24.9704 224.484 22.3942 223.642 20.1128C223.53 19.8395 223.424 19.5584 223.301 19.3132C223.245 19.1807 223.183 19.0643 223.119 18.9563L223.033 18.7951L223.004 18.7539C222.944 18.6546 222.83 18.5828 222.72 18.6289C222.667 18.6522 222.625 18.6894 222.587 18.727L222.404 18.9328C222.318 19.0196 222.237 19.1405 222.149 19.248C221.812 19.6966 221.48 20.2047 221.171 20.7446C219.91 22.902 218.801 25.2783 217.538 27.6117C216.903 28.7824 216.239 29.9538 215.452 31.1068C214.624 32.2384 213.826 33.4448 212.171 34.3553C211.764 34.5732 211.244 34.7487 210.681 34.7889C210.12 34.8463 209.525 34.7233 209.047 34.5339C208.081 34.133 207.473 33.5338 206.942 32.9645C205.896 31.7981 205.229 30.5789 204.585 29.3537C204.551 29.3918 204.514 29.4212 204.481 29.4551C204.297 29.077 204.112 28.6776 203.932 28.2746C202.938 34.1763 202.004 40.7361 201.139 47.4592C202.327 50.0535 203.72 53.0702 205.562 55.643C206.345 56.6908 207.359 57.8031 208.379 57.9203C209.352 58.0447 210.393 57.0637 211.176 56.0236C212.785 53.8726 213.967 51.2946 215.248 48.7742C215.89 47.5036 216.528 46.2283 217.324 44.9629C217.756 44.3151 218.112 43.7385 218.858 43.0555C219.684 42.264 220.969 42.0504 221.884 42.7479C222.31 43.0616 222.762 43.5924 222.936 43.9023C223.169 44.2525 223.352 44.597 223.522 44.9443C223.859 45.6341 224.137 46.3215 224.39 47.0059C224.896 48.3749 225.327 49.7435 225.76 51.0956C226.192 52.4518 226.626 53.7956 227.126 55.0672C227.377 55.701 227.651 56.3164 227.954 56.8596C228.099 57.1283 228.272 57.3834 228.419 57.5642C228.504 57.6664 228.561 57.715 228.657 57.7554C228.746 57.7908 228.851 57.7861 228.933 57.7325C229.036 57.673 229.028 57.6762 229.269 57.4392C229.656 57.0342 230.042 56.4904 230.392 55.9257C231.106 54.7937 231.741 53.5433 232.36 52.2869C233.592 49.7566 234.699 47.1405 235.959 44.5126C236.307 43.8258 236.487 43.3591 237.299 42.0661C237.652 41.548 238.038 41.0461 238.468 40.8141C238.869 40.5704 239.39 40.5041 239.89 40.5701C240.795 40.7749 241.491 41.9556 242.075 43.1275L242.588 44.2495L243.018 45.2609L246.186 53.2206C246.726 54.5177 247.288 55.8007 247.914 56.9733C248.069 57.2642 248.231 57.5432 248.394 57.8056C248.539 58.0366 248.797 58.3856 248.733 58.2899C248.762 58.3269 248.82 58.3377 248.849 58.2991C248.743 58.4255 249.347 57.7723 249.679 57.2938C250.063 56.7707 250.43 56.2038 250.792 55.6152C251.514 54.4463 252.194 53.2095 252.875 51.9644L254.926 48.1881C255.276 47.552 255.631 46.9164 256.015 46.2799C256.44 45.6146 256.627 45.1613 257.69 43.872C258.255 43.1975 258.898 42.8345 259.586 42.8043C259.964 42.6924 260.307 42.8872 260.619 42.9861L261.078 43.2363C261.22 43.3534 261.353 43.5074 261.493 43.6411C261.773 43.9127 261.991 44.3201 262.233 44.6629C262.346 44.8482 262.453 45.0454 262.556 45.2504L262.741 45.6079C262.953 46.0355 263.152 46.4575 263.339 46.8781C264.083 48.5558 264.731 50.2225 265.381 51.8768L267.332 56.7978C268.001 58.3955 268.694 60.038 269.5 61.3615L269.783 61.7889C269.783 61.7889 269.817 61.8181 269.839 61.808C269.853 61.8011 269.856 61.8058 269.875 61.7911C269.933 61.7558 270.135 61.6109 270.274 61.4967C270.573 61.2664 270.887 60.9915 271.188 60.7111C272.418 59.5796 273.605 58.2792 274.767 56.9802C277.089 54.3567 279.327 51.6227 281.518 48.8582C281.994 48.2617 282.601 47.5837 283.184 46.9743C282.393 41.2455 280.791 35.5202 278.244 30.1946C277.249 31.8404 276.217 33.4695 275.062 35.0382C274.291 36.0502 273.537 37.0517 272.47 37.9289L272.464 37.9492Z" fill="#C56E07"/>
<path d="M265.332 88.5634C265.067 88.2389 264.892 87.9709 264.703 87.672C264.334 87.0876 264.019 86.4969 263.718 85.8993C263.12 84.7089 262.586 83.5049 262.074 82.2991L259.466 75.933C258.631 73.9885 257.517 71.1466 257.078 71.2053C256.868 71.2778 256.747 71.4866 256.619 71.6525L256.303 72.1288L255.869 72.8351C255.297 73.7944 254.75 74.7943 254.201 75.8026C253.104 77.8149 252.029 79.8591 250.823 81.8756C250.212 82.8809 249.58 83.8837 248.774 84.8624C248.68 84.986 248.562 85.1068 248.451 85.2285L248.283 85.4109L248.021 85.6454C247.847 85.8019 247.674 85.9584 247.472 86.0738C247.279 86.2114 247.078 86.3226 246.86 86.39C245.99 86.7605 245.035 86.3357 244.413 85.6424C244.253 85.498 244.073 85.242 243.962 85.1075C243.856 84.9693 243.775 84.8381 243.681 84.7013C243.498 84.4324 243.348 84.1631 243.19 83.897C242.89 83.3626 242.62 82.8233 242.367 82.2858C241.86 81.211 241.404 80.1335 240.965 79.058L238.45 72.6143L237.808 71.0366L237.477 70.2633L237.198 69.6557C237.123 69.5084 237.047 69.3611 236.945 69.2317C236.837 69.0386 236.641 69.2093 236.575 69.3446C236.519 69.4223 236.472 69.505 236.429 69.5842L236.134 70.1467L235.277 71.8968L233.615 75.5035C232.48 77.9273 231.394 80.3609 229.868 82.744C229.468 83.3408 229.063 83.9329 228.488 84.5179C228.342 84.6524 228.177 84.814 227.928 85.0081C227.676 85.1472 227.444 85.339 227.173 85.4339C226.644 85.6545 226.057 85.7173 225.509 85.5493C224.954 85.4057 224.479 85.0403 224.075 84.6156C223.691 84.1851 223.526 83.9098 223.306 83.5527C222.917 82.8861 222.631 82.2315 222.361 81.5788C221.328 78.9856 220.653 76.4167 219.806 73.95C219.391 72.7386 218.937 71.5017 218.38 70.5681C218.312 70.4678 218.243 70.3339 218.176 70.259C218.151 70.2225 218.151 70.2225 218.121 70.1938C218.083 70.1559 218.033 70.1165 217.978 70.1228C217.925 70.1083 217.871 70.1399 217.83 70.1687C217.807 70.1829 217.788 70.2059 217.788 70.2059C217.719 70.2568 217.625 70.3804 217.544 70.4636C216.849 71.2786 216.201 72.4266 215.588 73.5535L213.756 77.0693C213.132 78.2579 212.495 79.4534 211.762 80.642C211.013 81.8247 210.237 83.0169 208.986 84.104C208.363 84.629 207.54 85.1813 206.411 85.3121C205.249 85.4473 204.188 84.9557 203.511 84.4494C202.112 83.3979 201.315 82.1763 200.546 80.9746C200.516 81.0174 200.483 81.0513 200.449 81.0853C199.388 79.3165 198.363 77.1317 197.91 75.7353C197.894 75.6915 197.882 75.644 197.866 75.6001C197.067 82.5535 196.103 90.5046 195.096 98.6481C195.379 99.4705 195.678 100.307 196.005 101.156C196.713 102.959 197.503 104.857 198.595 106.432C199.168 107.254 199.932 108.03 200.672 108.09C201.367 108.187 202.188 107.513 202.837 106.76C204.162 105.21 205.178 103.281 206.153 101.373C207.122 99.4464 208.01 97.4646 208.927 95.4738L209.628 93.9789L209.992 93.2309L210.178 92.8532L210.478 92.2911C210.876 91.5261 211.342 90.8024 211.83 90.3166C212.309 89.8381 212.837 89.5585 213.483 89.7504C213.804 90.0982 214.145 90.3852 214.423 91.0011C214.689 91.6114 214.898 92.3916 215.097 93.0699L215.895 95.9175C216.397 97.7271 216.912 99.538 217.476 101.313C217.945 102.787 218.448 104.256 219.056 105.62C219.356 106.297 219.687 106.965 220.062 107.508C220.157 107.624 220.25 107.765 220.339 107.868C220.411 107.939 220.399 107.938 220.461 107.983C220.546 108.047 220.658 108.094 220.763 108.055C220.812 108.036 220.864 108.016 220.906 107.979C220.957 107.943 220.961 107.939 221.097 107.816C221.317 107.619 221.553 107.36 221.773 107.087C222.219 106.538 222.654 105.928 223.06 105.286C223.883 104.011 224.644 102.653 225.388 101.29C226.888 98.5463 228.266 95.7345 229.849 92.9253C230.064 92.555 230.202 92.3021 230.611 91.6685C230.948 91.1443 231.402 90.4865 231.846 90.0922C232.069 89.8322 232.306 89.7501 232.537 89.5961C232.775 89.5394 233.007 89.4905 233.275 89.4625C233.578 89.3839 233.831 89.5263 234.039 89.6552C234.255 89.781 234.476 89.8735 234.657 90.1254C235.047 90.5315 235.344 91.2 235.613 91.8569C235.747 92.1496 235.897 92.5995 235.966 92.8008L236.164 93.3822C236.419 94.1594 236.646 94.9248 236.869 95.6899C237.753 98.7489 238.541 101.793 239.442 104.774C239.893 106.254 240.365 107.741 240.928 109.092C241.066 109.431 241.217 109.755 241.368 110.054C241.585 110.465 241.503 110.3 241.546 110.364C241.578 110.414 241.644 110.388 241.67 110.349C241.57 110.455 241.952 110.049 242.133 109.827C242.355 109.545 242.575 109.268 242.791 108.961C243.225 108.364 243.643 107.727 244.053 107.081C244.874 105.785 245.663 104.439 246.445 103.084C248.022 100.366 249.503 97.604 251.253 94.8392L251.68 94.1909C251.836 93.9652 251.933 93.8208 252.276 93.3603C252.88 92.6316 253.543 91.8717 254.289 91.739C254.639 91.691 255.087 91.5535 255.442 91.754C255.621 91.8122 255.797 91.883 255.965 91.9947C256.139 92.0861 256.309 92.1854 256.451 92.3698C256.77 92.6628 257.035 93.0629 257.299 93.4713C257.436 93.6677 257.559 93.8793 257.669 94.0894L257.864 94.4437C258.828 96.2895 259.586 98.0991 260.368 99.9157C261.916 103.513 263.353 107.207 265.106 110.484C265.325 110.879 265.557 111.275 265.784 111.6L265.946 111.837C265.946 111.837 265.96 111.859 265.971 111.869C265.994 111.888 266.021 111.875 266.048 111.861C266.007 111.886 266.23 111.743 266.38 111.605C266.543 111.468 266.709 111.336 266.874 111.179C268.208 109.954 269.498 108.489 270.749 107.032C271.744 105.865 272.709 104.666 273.675 103.462C267.134 95.5805 259.419 92.61 259.419 92.61C259.419 92.61 262.02 91.3168 265.518 88.7655C265.455 88.6952 265.387 88.6286 265.328 88.5588L265.332 88.5634Z" fill="#C56E07"/>
<path d="M280.581 144.027C277.046 148.07 273.455 152.119 269.71 156.087C267.836 158.068 265.925 160.038 263.901 161.931C262.877 162.876 261.859 163.805 260.652 164.658C259.932 165.142 258.771 165.748 257.91 165.048C257.516 164.751 257.118 164.302 256.886 163.981C256.657 163.669 256.462 163.361 256.267 163.049C254.492 159.963 253.244 156.786 251.883 153.639C251.216 152.062 250.552 150.49 249.855 148.952C249.502 148.189 249.14 147.429 248.754 146.73C248.647 146.532 248.586 146.441 248.479 146.307C248.398 146.176 248.214 146.092 248.09 146.225C247.962 146.315 247.86 146.433 247.759 146.548C247.609 146.72 247.276 147.131 247.052 147.433C246.552 148.09 246.061 148.781 245.581 149.482L242.71 153.74C241.748 155.171 240.777 156.601 239.729 158.01C239.203 158.714 238.656 159.412 238.04 160.097C237.866 160.291 237.771 160.385 237.486 160.672C237.216 160.901 236.949 161.148 236.666 161.342C236.088 161.763 235.485 161.891 234.836 161.804C234.373 161.558 233.988 161.249 233.664 160.741L233.217 159.958L232.926 159.383C232.596 158.711 232.298 158.046 232.001 157.382L230.288 153.392C229.159 150.745 228.06 148.069 226.806 145.568L226.392 144.781C226.319 144.651 226.276 144.583 226.218 144.505C226.163 144.431 226.107 144.341 226.013 144.317C225.915 144.327 225.85 144.416 225.788 144.485C225.729 144.558 225.673 144.64 225.622 144.718L225.167 145.464C224.823 146.046 224.489 146.65 224.162 147.26C222.852 149.705 221.625 152.236 220.319 154.75C219.662 156.01 219.001 157.266 218.226 158.525C218.104 158.709 218.075 158.781 217.874 159.069C217.69 159.317 217.52 159.587 217.326 159.817C216.93 160.263 216.518 160.707 216.044 160.85C215.814 160.949 215.558 160.907 215.284 160.989C215.019 160.959 214.788 160.848 214.562 160.726C214.104 160.513 213.714 160.028 213.354 159.541C213.172 159.297 213.035 159.034 212.874 158.784C212.726 158.54 212.676 158.429 212.575 158.25L212.075 157.26C211.756 156.601 211.462 155.946 211.176 155.291C210.604 153.982 210.069 152.673 209.534 151.372C208.999 150.071 208.472 148.771 207.92 147.51L207.498 146.575L207.115 145.779C207.058 145.685 207.013 145.57 206.914 145.517C206.799 145.529 206.746 145.661 206.686 145.743L206.341 146.337L205.852 147.231L203.919 150.962C202.576 153.475 201.3 156.025 199.245 158.411C198.706 159 198.122 159.588 197.284 160.08C196.85 160.316 196.363 160.533 195.773 160.625C195.19 160.722 194.534 160.655 194.022 160.47C192.96 160.1 192.275 159.483 191.687 158.891C191.11 158.287 190.628 157.66 190.205 157.027C190.179 157.071 190.145 157.109 190.115 157.147C189.518 156.238 188.95 155.224 188.47 154.248C187.784 167.962 209.459 170.991 215.794 171.719C222.129 172.447 271.8 180.046 280.912 143.628C280.8 143.762 280.693 143.897 280.581 144.027Z" fill="#C56E07"/>
<path d="M207.131 29.6043C207.832 30.7394 208.676 31.9077 209.68 32.4221C210.608 32.9741 211.635 32.2267 212.498 31.2547C214.196 29.24 215.407 26.6695 216.672 24.1808C217.3 22.9212 217.92 21.6524 218.603 20.3865C218.949 19.7541 219.307 19.1231 219.711 18.4932C219.919 18.181 220.136 17.8656 220.378 17.5531C220.497 17.3987 220.64 17.243 220.772 17.0859C220.934 16.9155 221.176 16.7122 221.382 16.53C221.839 16.2086 222.348 15.9773 222.893 15.9559C223.448 15.9483 223.956 16.2041 224.372 16.5712C224.775 16.9032 225.162 17.5232 225.321 17.8187C225.519 18.1776 225.68 18.5322 225.824 18.8849C226.402 20.2914 226.784 21.6797 227.163 23.0592C227.923 25.8058 228.527 28.6269 229.533 31.0574C230.177 32.4715 230.36 32.5261 230.708 32.2762C230.708 32.2762 230.986 32.0058 231.162 31.7949C231.354 31.5523 231.545 31.3097 231.728 31.0366C232.1 30.5038 232.449 29.9179 232.786 29.3223C234.133 26.927 235.303 24.3476 236.498 21.771C237.096 20.4786 237.694 19.182 238.353 17.8755L238.607 17.3838C238.713 17.1902 238.733 17.1252 238.911 16.8222C239.214 16.2606 239.561 15.7291 239.935 15.2175C240.328 14.7922 240.726 14.3673 241.167 14.292C241.578 14.1922 242.202 14.0917 242.557 14.4097C243.393 14.7664 244.012 16.1104 244.513 17.2728C244.803 17.9657 245.06 18.6465 245.31 19.3263L246.734 23.3802C247.665 26.0625 248.565 28.758 249.641 31.2721C250.091 32.4371 251.079 34.0715 250.868 33.6439C250.905 33.6482 250.911 33.6362 250.946 33.5857C251.304 33.1773 251.684 32.6118 252.033 32.0596C253.451 29.7733 254.691 27.2061 255.965 24.6723C256.76 23.0916 257.544 21.5012 258.451 19.8956L258.802 19.289L258.998 18.9713C259.103 18.7901 259.234 18.6034 259.359 18.4287C259.842 17.6987 260.404 17.0449 261.006 16.7024C261.31 16.5777 261.612 16.5157 261.952 16.4792C262.042 16.4643 262.131 16.4578 262.217 16.4383L262.472 16.518C262.63 16.5739 262.779 16.6247 262.927 16.6921C263.538 16.8589 263.997 17.6175 264.424 18.322C264.603 18.7038 264.831 19.1333 264.972 19.473L265.242 20.1258L265.728 21.4167L266.598 23.9702L268.231 29.0227C268.778 30.6905 269.335 32.3509 269.965 33.9231C270.279 34.7027 270.622 35.4815 270.987 36.1033L271.092 36.2876C271.092 36.2876 271.114 36.3195 271.129 36.3338C271.159 36.3666 271.206 36.3553 271.242 36.3384C271.278 36.3173 271.24 36.3508 271.342 36.2701C271.474 36.1802 271.616 36.0411 271.751 35.9305C272.028 35.6684 272.313 35.3902 272.587 35.0856C273.139 34.4812 273.682 33.8209 274.204 33.1458C275.251 31.7914 276.246 30.3641 277.207 28.9117C277.273 28.8143 277.348 28.7094 277.418 28.6083C271.338 16.9698 260.549 7.52508 243.562 4.71151C218.801 0.613699 213.125 1.75108 210.443 4.84148C208.332 7.27494 206.359 14.7194 204.57 24.5082C205.314 26.2237 206.146 27.9745 207.11 29.6061L207.131 29.6043Z" fill="#C56E07"/>
<path d="M274.155 60.842C273.289 61.7928 272.421 62.7349 271.348 63.5904C270.758 64.0436 269.778 64.6745 268.965 64.2198C268.556 64.0551 268.24 63.6953 267.939 63.3499C267.659 63.0152 267.498 62.7657 267.306 62.4663C265.902 60.1708 264.945 57.788 263.942 55.4042C263.078 53.3094 262.253 51.2064 261.372 49.1516L260.694 47.6327L260.338 46.8944L260.169 46.5725L260.088 46.433C259.971 46.2514 259.87 46.0298 259.66 45.9594C259.437 45.9968 259.314 46.2222 259.182 46.3835C259.138 46.4373 258.735 47.0589 258.476 47.487L257.642 48.9288L256.02 51.8974C254.934 53.8941 253.862 55.9092 252.585 57.8799C252.264 58.3723 251.922 58.8623 251.543 59.3481C251.355 59.5912 251.151 59.8324 250.922 60.0707C250.681 60.3076 250.291 60.6998 249.906 60.9076C249.143 61.4417 248.124 61.3917 247.408 60.8263L246.899 60.3561C246.756 60.2095 246.561 59.935 246.476 59.8369C246.292 59.5721 246.108 59.3032 245.954 59.0418C244.726 56.9304 243.912 54.8035 243.052 52.6755L240.579 46.3417L239.927 44.8132L239.718 44.3649L239.6 44.1497C239.533 44.037 239.388 43.8018 239.243 43.97C239.129 44.0871 239.049 44.2333 238.97 44.3713L238.664 44.9495L238.238 45.8038L237.411 47.5572L235.77 51.1285C234.63 53.5182 233.56 55.9159 231.905 58.2548C231.678 58.548 231.46 58.838 231.183 59.1296C231.053 59.2784 230.912 59.4093 230.725 59.5726C230.529 59.777 230.262 59.906 230.022 60.059C229.041 60.6605 227.73 60.4804 226.909 59.6634C226.441 59.2358 226.213 58.886 226.01 58.5686C225.787 58.2364 225.623 57.9108 225.459 57.5853C225.135 56.9346 224.88 56.2963 224.639 55.6552C223.688 53.1093 223.014 50.5699 222.164 48.1701C221.751 47.0093 221.25 45.746 220.715 45.0249C220.669 44.9483 220.548 44.8754 220.442 44.9179C220.398 44.9339 220.333 44.9894 220.328 44.9972C220.172 45.1473 219.997 45.35 219.829 45.5701C218.464 47.4339 217.349 49.8978 216.113 52.2092C215.495 53.3817 214.851 54.5638 214.112 55.7308C213.353 56.8913 212.566 58.0738 211.249 59.1197C210.587 59.615 209.67 60.1356 208.517 60.1206C207.345 60.0867 206.461 59.5524 205.809 59.0448C204.512 57.9799 203.738 56.7819 202.993 55.5913C202.963 55.6341 202.929 55.6681 202.896 55.7021C202.021 54.2151 201.185 52.4638 200.676 51.1156C199.916 57.2542 199.212 63.4539 198.577 69.3423C198.482 70.2094 198.382 71.1096 198.281 72.0264C199.55 74.798 201.065 78.2153 203.13 81.0405C203.928 82.0985 205.007 83.1677 206.014 83.1784C207.024 83.1559 208.037 82.0918 208.823 81.0269C210.419 78.7989 211.602 76.1831 212.912 73.6282C213.572 72.3429 214.222 71.0438 215.082 69.7731C215.552 69.1508 215.901 68.4935 217.005 67.839C217.502 67.6062 218.076 67.4789 218.611 67.6496C219.158 67.7798 219.592 68.1741 219.98 68.5968C220.626 69.4104 220.902 70.0387 221.24 70.7581C221.55 71.4575 221.815 72.1517 222.059 72.8435C222.55 74.2318 222.975 75.6124 223.419 76.9783C223.859 78.3438 224.307 79.7019 224.844 80.9566C225.108 81.5794 225.408 82.1852 225.738 82.6432C225.947 82.9067 225.935 82.9011 226.044 82.9725C226.127 83.024 226.233 83.0488 226.329 83.0178C226.431 82.9707 226.48 82.947 226.594 82.8299C226.782 82.6582 226.986 82.4211 227.174 82.1697C227.56 81.6637 227.928 81.0927 228.274 80.4939C228.97 79.3009 229.6 78.0206 230.214 76.7342C231.448 74.1454 232.547 71.4947 233.9 68.8187C234.015 68.5882 234.388 67.9001 234.73 67.3723C235.089 66.8464 235.475 66.3362 235.907 66.0876C236.311 65.8232 236.83 65.7652 237.344 65.8243L237.992 66.1507C238.183 66.3533 238.404 66.4712 238.57 66.7507C238.94 67.2217 239.248 67.8244 239.546 68.4173L240.056 69.5346L240.904 71.5814C241.991 74.2942 242.99 77.0053 244.119 79.6053C244.682 80.8883 245.283 82.1967 245.959 83.228C246.03 83.3371 246.153 83.515 246.179 83.539C246.172 83.5298 246.19 83.5529 246.199 83.5539C246.218 83.5687 246.241 83.584 246.263 83.5781C246.355 83.5088 246.181 83.7073 246.723 83.0806C248.304 81.0568 249.662 78.4149 251.038 75.9096C251.726 74.6359 252.412 73.3493 253.157 72.0612L253.734 71.0899L254.043 70.6002C254.169 70.4172 254.204 70.3289 254.457 69.9925C254.872 69.4142 255.332 68.8495 255.84 68.4877C256.352 68.0887 256.874 68.0395 257.491 68.0473C257.849 68.1432 258.15 68.266 258.46 68.457C258.62 68.53 258.745 68.7208 258.886 68.8462C259.031 68.9722 259.159 69.1381 259.276 69.328C259.525 69.6843 259.766 70.0313 259.974 70.4543L260.333 71.1636C260.751 72.0266 261.112 72.8704 261.464 73.7175C262.164 75.407 262.811 77.0904 263.467 78.7622C264.124 80.4299 264.782 82.0893 265.484 83.6908C265.838 84.4877 266.205 85.2735 266.602 85.9913C266.795 86.3538 267.001 86.6841 267.203 86.9762C267.274 87.081 267.252 87.0533 267.275 87.0728C267.292 87.0788 267.309 87.0766 267.331 87.0665C267.574 86.9222 267.944 86.6664 268.261 86.4298C268.923 85.9345 269.589 85.3641 270.243 84.7882C271.211 83.9331 272.159 83.0338 273.099 82.1211C278.339 76.5519 283.191 68.7956 283.694 58.9052C283.859 55.6431 283.766 52.2842 283.406 48.9072C280.488 52.9577 277.53 57.0163 274.15 60.8498L274.155 60.842Z" fill="#C56E07"/>
<g clip-path="url(#clip0_603_2631)">
<path d="M198.292 170.747C188.413 175.403 184.29 230.647 182.774 243.844C181.257 257.041 179.615 313.904 179.687 321.042C179.755 328.18 190.879 328.124 203.171 329.537C207.56 330.041 211.461 330.934 220.727 331.554C229.994 332.174 233.836 298.738 235.688 286.474C237.542 274.205 248.088 186.277 246.466 177.176C244.844 168.076 208.159 166.09 198.286 170.752L198.292 170.747ZM208.328 190.471C213.559 191.37 213.641 199.697 213.136 200.236C212.63 200.774 201.785 199.674 201.27 199.019C200.682 198.276 203.097 189.572 208.328 190.471ZM202.966 221.65C208.346 222.567 209.111 230.083 208.555 231.06C208 232.037 196.666 231.326 195.742 230.331C194.251 228.721 197.585 220.739 202.966 221.65ZM199.362 292.998C198.789 294.12 187.91 293.315 187.607 292.092C187.278 290.773 188.355 284.305 194.058 284.961C199.761 285.616 199.934 291.877 199.362 292.998ZM207.097 261.793C206.23 262.881 194.687 261.409 193.635 260.247C192.653 259.166 195.587 252.3 201.256 253.249C206.93 254.2 207.958 260.705 207.091 261.793L207.097 261.793ZM221.008 236.205C226.052 236.188 227.212 242.86 226.49 243.965C225.768 245.07 216.08 244.255 215.156 243.259C214.167 242.188 215.964 236.222 221.008 236.205ZM219.252 317.271C218.564 318.081 208.539 316.338 207.76 315.354C206.985 314.375 208.282 306.944 214.849 307.851C221.416 308.752 220.316 316.012 219.252 317.271ZM225.852 281.776C225.146 282.736 214.272 281.932 213.382 280.642C212.778 279.767 213.755 272.215 220.649 272.861C227.543 273.506 226.551 280.821 225.852 281.776ZM232.641 214.958C231.953 215.769 221.988 214.775 221.324 214.103C220.445 213.212 221.781 204.943 227.634 205.615C233.486 206.288 233.325 214.142 232.636 214.958L232.641 214.958ZM229.41 181.16C234.743 181.176 234.126 189.13 233.638 189.518C233.15 189.907 224.188 189.175 224.188 189.175C223.685 188.375 224.073 181.137 229.41 181.16Z" fill="#63379B"/>
<path d="M236.522 151.515C242.576 143.156 245.212 126.216 227.178 120.582C209.15 114.943 198.594 131.134 198.552 141.356C198.489 157.393 224.891 167.562 236.522 151.515Z" fill="#63379B"/>
</g>
<defs>
<clipPath id="clip0_603_2631">
<rect width="58" height="211" fill="white" transform="translate(197.157 116.656) rotate(6.55413)"/>
</clipPath>
</defs>
</svg>
