<svg width="59" height="59" viewBox="0 0 59 59" fill="none" xmlns="http://www.w3.org/2000/svg">
<path d="M0.000729674 29.4993C0.000729674 21.7777 -0.000912093 14.0561 0.000729674 6.33452C0.000729674 2.47701 2.47651 0 6.33467 0C21.7771 0 37.2212 0 52.6637 0C56.5268 0 58.9993 2.47045 58.9993 6.33288C58.9993 21.8368 59.0009 37.3423 58.9993 52.8462C58.9993 55.7697 57.3099 58.0661 54.6108 58.7835C54.0641 58.9279 53.4796 58.9887 52.9132 58.9903C37.3066 59.0018 21.7 59.0018 6.09333 58.9969C2.56517 58.9969 0.00893851 56.4378 0.00565498 52.9119C-0.000912093 45.1082 0.00401321 37.3046 0.00401321 29.5025L0.000729674 29.4993ZM3.93276 29.4369C3.93276 37.2011 3.93276 44.9638 3.93276 52.728C3.93276 54.3252 4.66663 55.0655 6.25422 55.0655C21.741 55.0655 37.2262 55.0655 52.7129 55.0655C54.3416 55.0655 55.0656 54.3383 55.0656 52.6985C55.0656 37.2323 55.0656 21.7678 55.0656 6.30169C55.0656 4.6684 54.3367 3.93466 52.7129 3.93466C37.2262 3.93466 21.741 3.93466 6.25422 3.93466C4.67648 3.93466 3.93276 4.68318 3.93276 6.2705C3.93276 13.9937 3.93276 21.7153 3.93276 29.4385V29.4369Z" fill="#6A6A6A"/>
<path d="M17.6792 31.4658C20.219 31.4658 22.7589 31.4641 25.2987 31.4658C26.7566 31.4658 27.5315 32.2422 27.5315 33.7048C27.5331 38.7638 27.5331 43.8229 27.5315 48.882C27.5315 50.3544 26.7664 51.1292 25.3069 51.1292C20.2272 51.1308 15.1476 51.1325 10.068 51.1292C8.65443 51.1292 7.86802 50.338 7.86802 48.9198C7.86638 43.8393 7.86638 38.7606 7.86802 33.6801C7.86802 32.2488 8.6413 31.4674 10.0598 31.4658C12.5996 31.4625 15.1394 31.4658 17.6792 31.4658ZM11.8263 47.1535H23.5502V35.4316H11.8263V47.1535Z" fill="#6A6A6A"/>
<path d="M51.6737 38.8935C51.4323 39.3482 51.2616 39.8653 50.9349 40.2461C50.027 41.2999 49.06 42.3045 48.1012 43.3124C47.8434 43.5833 47.7252 43.8328 47.7892 44.23C48.0027 45.5416 48.157 46.863 48.3507 48.1778C48.4722 49.0035 48.2358 49.6863 47.5577 50.1689C46.8781 50.6548 46.1442 50.6548 45.4152 50.2625C44.1724 49.5961 42.9411 48.9066 41.6851 48.2648C41.4816 48.1597 41.1319 48.1614 40.9266 48.2664C39.7052 48.8869 38.5034 49.5452 37.3033 50.205C36.5382 50.6253 35.7781 50.6893 35.0508 50.1706C34.3267 49.6535 34.1281 48.9296 34.2676 48.0596C34.4745 46.7678 34.6518 45.4693 34.793 44.1693C34.8209 43.9132 34.7043 43.5701 34.532 43.3748C33.6224 42.3489 32.6833 41.3476 31.7377 40.3561C31.1335 39.7241 30.8774 39.0068 31.1713 38.1696C31.4569 37.3538 32.0939 36.9828 32.9345 36.8482C34.2266 36.643 35.5137 36.4001 36.7927 36.1276C37.0472 36.0734 37.346 35.8633 37.4773 35.6401C38.1701 34.4582 38.8235 33.255 39.472 32.0469C39.8693 31.3065 40.4686 30.9274 41.3026 30.9274C42.135 30.9274 42.7392 31.3016 43.1365 32.0419C43.7768 33.2304 44.4482 34.4008 45.082 35.5925C45.2609 35.929 45.4711 36.0981 45.8667 36.1604C47.1998 36.3689 48.5247 36.6266 49.8497 36.8794C50.9037 37.0813 51.5472 37.8315 51.6786 38.8952L51.6737 38.8935ZM43.9935 44.8587C43.056 42.7888 44.2348 41.4411 45.6434 40.2395C44.6469 39.9244 43.5994 39.8357 42.8886 39.3006C42.1793 38.7671 41.805 37.7872 41.191 36.8646C40.5573 39.0133 39.2274 40.1706 36.8846 40.0179C37.584 40.8584 38.3556 41.4625 38.6627 42.2487C38.9664 43.0252 38.8006 43.9854 38.8383 44.7914C39.582 44.5041 40.4259 43.9247 41.2698 43.9247C42.1333 43.9247 42.9969 44.491 43.9918 44.8571L43.9935 44.8587Z" fill="#6A6A6A"/>
<path d="M17.7006 7.86767C23.1299 7.86767 27.543 12.2964 27.5315 17.7314C27.52 23.1286 23.1003 27.5328 17.6973 27.5328C12.2696 27.5328 7.85489 23.1007 7.86638 17.6674C7.87787 12.2702 12.2959 7.86767 17.7006 7.86767ZM17.6874 23.5981C20.9332 23.603 23.5912 20.9553 23.5962 17.7117C23.6011 14.4665 20.9529 11.8073 17.7104 11.8023C14.4663 11.7974 11.805 14.4451 11.8001 17.6887C11.7951 20.934 14.4449 23.5932 17.6874 23.5997V23.5981Z" fill="#6A6A6A"/>
<path d="M41.3026 27.5327C38.7644 27.5327 36.2246 27.536 33.6865 27.5327C31.869 27.5295 30.9743 26.1014 31.7836 24.4812C34.33 19.3778 36.8879 14.2793 39.4294 9.17266C39.8283 8.36997 40.4358 7.96288 41.3256 7.97109C42.1892 7.9793 42.7786 8.38474 43.166 9.16281C45.7091 14.2695 48.2686 19.368 50.8134 24.473C51.6228 26.0981 50.7329 27.5278 48.9204 27.5327C46.3822 27.5377 43.8424 27.5327 41.3043 27.5327H41.3026ZM36.6285 23.5718H45.9685C44.4138 20.4628 42.8869 17.4113 41.2993 14.2334C39.715 17.4031 38.1931 20.4431 36.6285 23.5718Z" fill="#6A6A6A"/>
</svg>
