<svg width="556" height="299" viewBox="0 0 556 299" fill="none" xmlns="http://www.w3.org/2000/svg">
<g clip-path="url(#clip0_472_748)">
<path d="M270.395 80.9653C274.055 80.7487 277.677 81.2669 281.317 81.4426C283.647 81.5538 285.987 81.6358 288.308 81.8583C292.016 82.2126 295.752 82.0369 299.456 82.6517C301.487 82.9884 303.627 82.6313 305.694 82.965C308.849 83.4745 312.06 83.2197 315.215 83.8141C316.774 84.1069 318.397 83.9576 319.997 84.1449C324.112 84.628 328.245 84.953 332.371 85.3453C335.45 85.6381 338.532 85.887 341.603 86.2442C345.674 86.7214 349.759 87.02 353.828 87.5851C355.997 87.8838 358.216 88.1414 360.426 88.3141C363.775 88.5747 367.089 89.2452 370.435 89.5672C372.451 89.7634 374.45 90.065 376.458 90.3138C378.894 90.6183 381.33 90.8906 383.746 91.3737C385.349 91.6928 387.001 91.7543 388.633 92.0149C391.78 92.5185 394.944 92.9108 398.09 93.4407C399.807 93.7306 401.598 93.9736 403.315 94.2547C406.843 94.8344 410.439 95.0686 413.911 96.0201C415.117 96.351 416.464 96.19 417.65 96.5589C420.31 97.3874 423.08 97.4255 425.775 97.9613C430.151 98.8338 434.542 99.6272 438.898 100.593C444.507 101.838 450.204 102.754 455.681 104.49C456.897 104.874 458.206 104.645 459.4 105.436C460.431 106.115 461.531 105.334 461.983 104.092C463.824 99.0329 466.169 94.2078 468.784 89.5058C470.645 86.1593 472.626 82.886 474.561 79.5863C476.668 75.9939 479.022 72.583 481.353 69.1428C490.402 55.792 501.027 43.8436 513.096 33.1395C516.683 29.9599 520.42 26.9677 524.318 24.2067C531.7 18.9806 539.41 14.2902 548.002 11.2219C551.069 10.1269 554.935 10.8735 555.73 13.8657C556.279 15.9357 555.938 17.9442 555.158 19.9673C554.142 22.5964 552.284 24.6313 550.696 26.8593C547.538 31.295 544.617 35.8829 541.682 40.462C536.64 48.3319 532.266 56.562 528.266 65.0029C526.234 69.2921 524.467 73.6868 522.645 78.0609C521.409 81.0297 520.317 84.0454 519.296 87.0815C518.11 90.6037 517.197 94.2195 516.178 97.7973C514.878 102.365 513.907 106.999 512.991 111.661C512.43 114.509 511.978 117.39 511.473 120.242C510.971 123.082 511.013 126.057 510.737 128.964C510.208 134.55 510.434 140.145 510.505 145.731C510.54 148.601 511.077 151.461 511.347 154.328C511.738 158.482 512.609 162.563 513.581 166.598C514.391 169.962 515.239 173.326 516.469 176.611C517.49 179.34 518.527 182.112 519.709 184.736C521.43 188.548 523.478 192.26 525.738 195.829C528.286 199.849 531.38 203.497 533.766 207.617C534.887 209.549 536.023 211.496 535.976 213.85C535.941 215.697 534.711 217.079 532.836 217.205C530.22 217.381 527.778 216.836 525.354 215.727C523.625 214.933 521.697 214.523 519.894 213.824C515.985 212.304 512.102 210.741 508.479 208.597C506.903 207.664 505.271 206.823 503.719 205.854C491.15 197.993 481.027 187.672 473.008 175.288C470.31 171.121 467.76 166.87 465.72 162.306C464.977 160.646 464.255 158.869 463.028 157.352C458.071 161.893 452.996 166.305 447.677 170.431C444.19 173.136 440.659 175.783 437.055 178.344C433.574 180.818 430.101 183.307 426.535 185.655C424.031 187.306 421.378 188.729 418.851 190.348C415.704 192.366 412.487 194.263 409.232 196.099C403.594 199.281 398.067 202.669 392.129 205.292C389.094 206.633 386.352 208.559 383.229 209.693C380.194 210.793 377.353 212.328 374.368 213.548C370.728 215.036 367.215 216.869 363.52 218.248C361.039 219.173 358.506 220.016 356.07 221.008C352.275 222.554 348.468 224.056 344.579 225.333C340.528 226.662 336.531 228.144 332.421 229.303C326.73 230.91 321.08 232.655 315.394 234.289C313.789 234.752 312.136 235.062 310.405 235.724C316.601 239.641 322.891 243.011 329.43 245.956C331.274 246.785 333.196 247.417 335.001 248.416C336.736 249.376 338.981 249.364 340.936 249.994C343.816 250.919 346.88 251.332 349.536 252.884C350.76 253.601 352.046 254.263 353.009 255.352C354.529 257.073 354.47 259.673 352.756 261.213C351.33 262.496 349.604 263.216 347.74 263.784C344.174 264.873 340.505 265.379 336.853 265.968C334.083 266.413 331.256 266.349 328.444 266.349C326.249 266.349 324.044 266.48 321.855 266.357C317.96 266.138 314.076 265.748 310.202 265.274C307.989 265.002 305.755 264.8 303.601 264.293C301.837 263.878 300.029 263.717 298.265 263.324C296.518 262.935 294.646 262.821 292.882 262.343C288.846 261.251 284.728 260.513 280.736 259.196C276.527 257.808 272.262 256.587 268.103 255.024C264.466 253.657 260.906 252.119 257.363 250.527C254.959 249.446 252.637 248.223 250.301 247.01C248.951 246.311 247.442 247.007 246.065 247.186C243.579 247.511 241.076 247.739 238.595 247.874C235.064 248.067 231.566 248.495 228.052 248.793C226.024 248.966 223.984 249.039 221.947 249.113C221.19 249.139 220.92 249.177 221.286 250.09C222.742 253.718 223.972 257.436 225.484 261.038C229.496 270.582 234.181 279.735 241.671 287.151C243.82 289.279 245.948 291.428 247.457 294.09C247.847 294.778 248.111 295.492 248.114 296.3C248.12 297.656 247.336 298.71 245.992 298.798C244.237 298.915 242.511 299.161 240.703 298.818C232.748 297.313 225.073 294.977 217.694 291.662C198.275 282.943 183.881 268.84 173.331 250.606C173.161 250.31 172.935 250.035 172.833 249.719C172.425 248.451 171.582 248.237 170.294 248.184C167.708 248.082 165.139 247.631 162.559 247.341C159.871 247.04 157.173 246.791 154.488 246.454C151.623 246.094 148.761 245.696 145.908 245.245C142.533 244.712 139.157 244.162 135.799 243.523C132.541 242.906 129.321 242.086 126.057 241.5C122.6 240.877 119.248 239.846 115.822 239.097C112.065 238.277 108.408 236.994 104.725 235.867C100.715 234.64 96.6733 233.499 92.7343 232.07C88.3286 230.474 84.0315 228.583 79.6757 226.849C72.1322 223.846 64.8559 220.236 57.8085 216.268C44.5034 208.779 32.2548 199.791 21.0483 189.403C15.175 183.96 9.24888 178.546 4.75218 171.891C1.92853 167.714 -0.0174925 163.09 0.000118558 157.812C0.0206648 152.029 2.42752 147.257 5.64741 142.689C9.20779 137.642 13.6282 133.438 18.3039 129.47C22.3222 126.06 26.4637 122.815 30.9252 119.984C36.2115 116.629 41.4038 113.095 47.0893 110.434C50.5997 108.791 54.0075 106.961 57.5825 105.427C63.2944 102.977 68.9945 100.523 74.8766 98.5029C77.6651 97.5455 80.5474 96.8165 83.2947 95.8035C89.7316 93.429 96.368 91.7982 102.99 90.1411C108.021 88.8821 113.104 87.7754 118.262 86.9995C121.164 86.5633 124.05 85.7816 126.97 85.3131C130.211 84.7949 133.463 84.3323 136.697 83.8229C139.122 83.4423 141.57 83.2607 143.991 82.8274C147.021 82.2828 150.126 82.1628 153.202 81.8612C157.091 81.4806 160.983 81.0971 164.875 80.7253C165.36 80.6784 165.853 80.7048 166.343 80.7048C167.376 80.7048 168.11 80.3036 168.753 79.4253C176.874 68.2908 186.053 58.0903 196.109 48.6569C201.873 43.2492 207.849 38.0934 214.163 33.3327C216.948 31.2306 219.731 29.1108 222.654 27.2078C225.948 25.0675 229.176 22.8365 232.587 20.8544C237.216 18.1667 241.774 15.3589 246.617 13.0781C249.993 11.4854 253.415 9.9805 256.893 8.58979C259.767 7.44209 262.711 6.46712 265.581 5.31649C269.218 3.85844 273.066 2.94204 276.902 2.12518C281.02 1.24976 285.138 0.321644 289.4 0.184037C291.038 0.131336 292.682 -0.0326211 294.331 0.0112961C295.682 0.0493577 296.897 0.544158 298 1.21756C299.87 2.3594 300.225 4.64895 298.987 7.04683C298.106 8.75375 296.865 10.2001 295.494 11.5264C289.359 17.4581 284.425 24.3444 279.479 31.2423C275.852 36.3015 272.916 41.7707 269.588 47.0027C267.36 50.5014 265.74 54.3779 263.779 58.0523C260.656 63.902 258.097 70.0036 255.446 76.0671C254.988 77.1153 254.545 78.1488 254.172 79.235C253.882 80.0811 254.196 80.1309 254.856 80.1075C258.663 79.9728 262.45 80.4676 266.251 80.491C266.35 80.6755 266.468 80.693 266.606 80.5291C266.779 80.5408 266.955 80.5496 267.128 80.5613C267.251 80.7165 267.372 80.7253 267.489 80.5554C268.2 80.5232 268.925 80.4003 269.556 80.8775C269.808 81.1469 270.104 81.0327 270.395 80.9741V80.9653ZM195.539 249.455C188.935 249.344 182.34 248.946 175.73 248.562C175.73 248.82 175.694 248.931 175.735 249.001C180.91 257.998 187.136 266.15 194.817 273.211C201.738 279.571 209.44 284.706 217.958 288.641C221.718 290.377 225.548 291.967 229.567 293.036C234.216 294.631 238.994 295.703 243.843 296.467C244.31 296.54 244.888 296.66 245.217 296.209C245.634 295.638 245.088 295.226 244.806 294.807C243.13 292.324 240.896 290.345 238.783 288.26C236.171 285.684 233.94 282.797 231.947 279.746C226.165 270.887 222.173 261.19 218.718 251.247C217.908 248.913 218.53 248.899 215.619 249.364C215.14 249.44 214.644 249.394 214.154 249.397C207.949 249.417 201.744 249.438 195.536 249.458L195.539 249.455ZM534.221 21.3024L534.206 21.2819C533.505 21.3843 532.95 21.7942 532.375 22.1543C524.491 27.0848 517.311 32.9258 510.546 39.2616C502.882 46.4406 495.893 54.249 489.518 62.5816C479.445 75.7509 470.856 89.8044 464.414 105.114C463.988 106.127 464.202 106.484 465.197 106.745C468.356 107.576 471.487 108.501 474.646 109.333C478.84 110.437 483.128 111.245 487.05 113.195C489.568 114.448 491.499 116.327 491.843 119.235C492.116 121.551 491.309 123.735 490.302 125.814C487.334 131.939 482.841 136.954 478.379 141.981C474.561 146.282 470.422 150.278 466.319 154.307C465.676 154.937 465.488 155.428 465.896 156.318C468.99 163.052 472.559 169.502 476.721 175.651C481.558 182.795 487.188 189.207 493.686 194.875C499.333 199.799 505.447 204.036 512.219 207.295C515.659 209.157 519.237 210.714 522.938 211.964C525.741 212.913 528.471 214.198 531.5 214.33C533.176 214.403 533.385 214.084 532.871 212.445C532.269 210.524 531.298 208.776 530.124 207.163C525.369 200.622 520.857 193.947 517.493 186.551C515.113 181.316 513.179 175.935 511.626 170.404C510.197 165.313 509.322 160.11 508.503 154.901C508.069 152.14 507.81 149.321 507.813 146.528C507.819 142.716 507.291 138.918 507.663 135.098C507.854 133.133 507.696 131.136 507.869 129.169C508.174 125.699 508.629 122.242 508.99 118.775C509.495 113.906 510.596 109.131 511.503 104.335C512.081 101.273 512.982 98.2189 513.901 95.2091C515.145 91.1336 516.551 87.1049 517.778 83.0265C518.518 80.5642 519.592 78.2395 520.467 75.8329C521.905 71.8774 523.657 68.0508 525.492 64.2651C527.699 59.7094 529.842 55.1157 532.26 50.6742C534.617 46.3439 537.271 42.1718 539.827 37.947C542.736 33.1395 545.959 28.537 549.296 24.0194C550.949 21.7825 552.616 19.6072 553.215 16.814C553.722 14.4396 552.19 12.9669 549.874 13.649C547.67 14.299 545.571 15.2213 543.47 16.1289C540.329 17.4845 537.535 19.4725 534.512 21.0447C534.415 21.1296 534.318 21.2174 534.221 21.3024ZM296.222 3.47197C294.455 2.61412 292.591 2.72245 290.698 2.83956C282.928 3.32558 275.447 5.18767 268.041 7.43623C262.772 9.03774 257.709 11.1663 252.675 13.3914C248.924 15.0515 245.243 16.8287 241.645 18.7844C236.479 21.5922 231.548 24.7747 226.62 27.9807C220.65 31.8659 214.999 36.1434 209.49 40.6259C205.789 43.6386 202.228 46.8095 198.733 50.0623C193.091 55.3089 187.714 60.7986 182.68 66.6249C179.026 71.0986 175.371 75.5723 171.717 80.046C171.796 80.166 171.876 80.2831 171.955 80.4032C174.588 79.7766 177.265 80.0226 179.921 79.8908C186.105 79.5893 192.302 79.4048 198.492 79.276C206.461 79.1091 214.433 79.2848 222.405 79.2028C231.439 79.1091 240.459 79.5366 249.485 79.8088C250.48 79.8381 251.026 79.6332 251.416 78.5704C252.898 74.5388 254.533 70.5657 256.412 66.6922C258.913 61.5334 261.493 56.4185 264.09 51.3066C266.664 46.2415 269.755 41.4896 272.576 36.5768C274.475 33.2654 276.676 30.1239 278.948 27.0379C283.677 20.6143 288.414 14.2053 294.287 8.73325C295.285 7.80221 296.04 6.65158 296.571 5.37798C296.867 4.66359 297.073 3.97263 296.222 3.47197ZM265.429 203.19C264.575 201.937 263.462 200.915 262.455 199.799C262.118 199.428 261.701 198.956 262.177 198.388C262.576 197.911 263.075 197.92 263.638 198.09C264.751 198.426 265.611 199.12 266.4 199.925C269.876 203.471 273.386 206.984 277.099 210.284C278.763 211.765 280.319 213.384 282.194 214.623C282.456 215.179 282.993 215.463 283.43 215.832C290.583 221.899 298.089 227.502 305.846 232.781C306.756 233.402 307.531 233.475 308.511 233.223C320.575 230.132 332.506 226.604 344.265 222.496C374.885 211.801 403.902 197.899 430.671 179.516C449.154 166.823 465.896 152.181 480.539 135.203C481.931 133.59 483.416 132.032 484.382 130.097C486.134 127.904 487.781 125.591 488.594 122.915C489.521 119.855 489.172 117.668 486.128 116.035C484.746 115.063 483.155 114.536 481.561 114.132C471.302 111.529 461.176 108.443 450.853 106.083C439.112 103.398 427.304 101.082 415.44 99.0211C406.508 97.4694 397.559 96.0465 388.589 94.7524C379.795 93.4847 370.984 92.3575 362.143 91.4557C356.757 90.9053 351.4 90.0855 346.02 89.4736C341.162 88.9202 336.293 88.4371 331.423 88.0097C326.213 87.5529 321.009 87.0054 315.799 86.5838C310.774 86.1768 305.749 85.726 300.718 85.3951C296.313 85.1053 291.904 84.8125 287.498 84.5109C283.184 84.2123 278.866 83.9517 274.551 83.6794C267.888 83.2549 261.205 83.1231 254.533 82.7776C248.246 82.4527 241.944 82.2389 235.648 82.2067C221.668 82.1365 207.691 81.8934 193.71 82.3502C187.805 82.5434 181.899 82.6722 175.997 82.9533C170.147 83.2315 164.312 83.6238 158.477 84.1274C149.489 84.9003 140.545 86.0012 131.628 87.3655C118.129 89.4326 104.815 92.334 91.6864 96.0641C87.2983 97.3113 82.9719 98.7664 78.6307 100.169C74.7622 101.419 71.0961 103.237 67.2628 104.523C63.1506 105.899 59.3114 107.831 55.3547 109.514C50.5264 111.57 46.0003 114.263 41.4185 116.837C37.6057 118.977 33.9954 121.39 30.344 123.752C27.0654 125.875 24.004 128.308 21.0336 130.835C17.6552 133.71 14.224 136.538 11.4297 140.022C8.23624 143.243 5.95854 147.046 4.23265 151.204C3.03216 154.052 2.41577 156.951 2.9353 160.087C3.93326 166.103 7.10913 170.972 11.0364 175.384C19.6365 185.043 29.3578 193.502 39.7425 201.187C56.3967 213.516 74.7915 222.557 94.2723 229.508C108.608 234.623 123.328 238.335 138.268 241.111C145.389 242.434 152.568 243.564 159.803 244.223C165.269 244.724 170.713 245.585 176.187 245.822C181.01 246.033 185.821 246.545 190.655 246.483C192.953 246.454 195.251 246.542 197.547 246.574C206.484 246.7 215.422 246.527 224.348 246.155C229.575 245.939 234.794 245.435 240.013 245.008C241.712 244.87 243.4 244.572 245.296 244.32C244.944 244.059 244.8 243.933 244.642 243.84C235.249 238.315 226.605 231.824 218.941 224.065C218.636 223.755 218.36 223.395 217.873 223.348C217.744 223.093 217.673 222.78 217.48 222.59C215.193 220.32 213.262 217.741 211.104 215.367C210.444 214.641 210.635 214.383 211.316 214.002C212.46 213.358 213.632 213.753 214.905 215.378C220.177 222.092 226.447 227.781 233.233 232.898C243.755 240.833 255.288 247.002 267.583 251.742C272.376 253.589 277.219 255.281 282.227 256.54C285.097 257.264 287.889 258.35 290.8 259C298.306 260.677 305.837 262.194 313.539 262.651C316.692 263.304 319.915 263.26 323.099 263.4C329.043 263.667 334.995 263.476 340.883 262.545C344.139 262.03 347.441 261.5 350.247 259.527C351.573 258.593 351.653 257.987 350.499 256.874C349.169 255.598 347.455 254.986 345.776 254.339C342.771 253.179 339.58 252.641 336.528 251.642C325.309 247.974 315.115 242.288 305.327 235.832C299.151 231.759 293.166 227.42 287.428 222.742C282.03 218.341 276.606 213.979 271.672 209.048C269.652 207.031 267.134 205.535 265.42 203.193L265.429 203.19Z" fill="#2A3F4C"/>
<path d="M270.394 80.9644C270.104 81.0229 269.807 81.1371 269.555 80.8677C269.904 80.3027 270.139 80.7067 270.394 80.9644Z" fill="#708895"/>
<path d="M266.605 80.5205C266.467 80.6874 266.35 80.6669 266.25 80.4824C266.367 80.4941 266.484 80.5088 266.605 80.5205Z" fill="#708895"/>
<path d="M267.489 80.5469C267.372 80.7167 267.252 80.7079 267.129 80.5527C267.249 80.5527 267.369 80.5498 267.489 80.5469Z" fill="#708895"/>
<path d="M282.192 214.622C280.317 213.384 278.764 211.764 277.097 210.283C273.384 206.983 269.873 203.47 266.398 199.924C265.608 199.116 264.749 198.425 263.636 198.089C263.073 197.919 262.574 197.91 262.174 198.387C261.699 198.955 262.119 199.427 262.453 199.799C263.46 200.914 264.575 201.939 265.427 203.189C265.101 203.531 264.769 203.233 264.484 203.145C261.81 202.322 259.095 201.898 256.283 202.024C254.155 202.12 253.339 202.963 253.698 205.054C253.809 205.713 254.076 206.366 254.384 206.966C255.84 209.794 257.819 212.253 259.955 214.59C262.515 217.392 265.118 220.144 267.992 222.644C270.921 225.197 273.842 227.756 276.909 230.145C278.952 231.738 281.142 233.19 282.97 235.003C284.397 236.417 285.941 237.72 287.382 239.11C289.29 240.955 291.453 242.589 293.402 244.43C293.998 244.992 294.367 245.92 295.048 246.245C297.226 247.282 298.409 249.39 300.247 250.81C301.972 252.145 303.616 253.711 305.14 255.365C306.114 256.422 307.291 257.43 308.45 258.34C310.203 259.719 311.888 261.165 313.549 262.644C305.847 262.187 298.315 260.671 290.81 258.993C287.898 258.343 285.107 257.257 282.236 256.534C277.229 255.275 272.386 253.582 267.593 251.735C255.297 246.995 243.765 240.829 233.242 232.892C226.459 227.774 220.187 222.085 214.915 215.372C213.638 213.747 212.47 213.354 211.325 213.995C210.644 214.379 210.453 214.634 211.114 215.36C213.271 217.737 215.203 220.317 217.489 222.583C217.683 222.773 217.753 223.086 217.882 223.341C213.104 222.48 208.478 221.052 203.849 219.629C195.866 217.172 188.043 214.268 180.271 211.226C177.028 209.955 173.699 208.875 170.614 207.218C170.67 206.415 170.403 205.71 170.042 204.998C168.345 201.652 166.669 198.297 165.026 194.927C164.77 194.403 164.163 193.782 164.706 193.205C165.545 192.306 166.255 191.202 167.688 191.033C169.038 190.872 170.371 190.564 171.712 190.339C176.555 189.525 181.401 188.731 186.238 187.897C186.846 187.792 187.544 187.666 187.791 186.96C188.064 186.175 187.368 185.833 186.946 185.408C184.122 182.574 181.292 179.746 178.434 176.947C177.838 176.364 177.623 175.916 178.078 175.088C179.461 172.57 180.594 169.929 181.58 167.232C182.264 165.362 182.901 163.47 183.464 161.558C183.726 160.674 183.644 159.72 182.493 159.468C181.486 159.245 180.99 159.881 180.732 160.78C180.503 161.573 180.23 162.355 179.972 163.139C175.777 175.946 168.68 186.781 157.987 195.146C155.968 196.724 154.001 198.42 151.574 199.397C151.063 199.254 150.529 199.163 150.044 198.961C138.318 194.054 126.613 189.094 114.869 184.231C100.924 178.461 86.8441 173.035 72.5762 168.111C59.5528 163.617 46.3738 159.623 32.9512 156.473C25.8275 154.801 18.6569 153.349 11.407 152.312C9.01187 151.97 6.62557 151.572 4.23633 151.2C5.95928 147.042 8.23992 143.239 11.4334 140.018C12.2846 140.144 12.9274 139.626 13.6172 139.286C15.8714 138.174 18.1021 137.014 20.3593 135.908C26.8725 132.711 33.3915 129.525 39.9105 126.34C42.3027 125.171 44.692 123.997 47.0988 122.861C51.3724 120.847 55.6402 118.821 59.952 116.889C60.8208 116.499 61.719 115.785 62.4733 115.694C64.5044 115.448 66.0953 114.274 67.9239 113.648C71.6663 112.368 75.2032 110.544 78.9455 109.232C82.0715 108.135 85.1623 106.943 88.2824 105.83C94.3582 103.658 100.472 101.588 106.712 99.9337C111.711 98.6074 116.683 97.1845 121.755 96.1129C127.077 94.9886 132.416 93.9932 137.775 93.0709C140.041 92.6815 142.36 92.1487 144.576 92.0286C146.739 91.9115 148.785 91.0537 151.057 91.3464C152.598 91.5426 154.292 90.6906 155.994 90.8985C156.475 90.957 156.977 90.9512 157.459 90.8839C161.95 90.2456 166.49 90.1987 170.999 90.1051C177.289 89.9733 183.588 89.8679 189.893 90.2485C193.239 90.4505 196.611 90.5735 199.975 90.673C201.569 90.7199 203.195 90.7433 204.777 90.9629C209.467 91.6129 214.205 91.7534 218.907 92.2599C221.044 92.4912 223.183 92.8455 225.329 93.0504C230.97 93.5921 236.591 94.3972 242.186 95.299C242.911 95.4161 244.094 95.0413 244.59 96.1276C243.301 96.9649 241.945 97.6705 240.844 98.8182C238.188 101.591 238.64 105.186 242.259 106.644C245.902 108.114 249.626 107.657 252.961 105.461C254.097 104.715 254.593 103.497 254.578 102.056C254.56 99.8957 253.155 98.5342 251.907 97.0586C252.347 97.0645 252.799 97.0088 253.225 97.0879C257.607 97.9018 261.995 98.707 266.366 99.5853C267.722 99.8576 269.21 99.6058 270.41 100.537C270.179 100.707 269.961 100.897 269.718 101.046C267.669 102.276 267.425 104.17 269.104 105.863C270.243 107.01 271.667 107.569 273.222 107.886C275.491 108.348 277.784 108.176 280.064 108.158C282.618 108.137 285.057 107.531 287.382 106.451C288.359 105.997 289.096 105.359 289.495 104.355C294.144 105.049 298.732 106.079 303.375 106.823C309.795 107.851 316.232 108.609 322.715 109.092C324.758 109.244 326.807 109.174 328.832 109.376C334.415 109.932 340.021 109.522 345.616 109.815C347.799 109.929 350.077 109.713 352.314 109.636C352.428 109.789 352.552 109.938 352.66 110.093C355.977 114.828 361.169 116.101 366.365 113.627C368.513 112.605 369.863 110.731 371.657 109.338C378.249 109.127 384.83 109.686 391.419 109.634C391.566 109.634 391.713 109.634 391.86 109.642C397.384 110.029 402.91 110.398 408.432 110.808C410.659 110.972 412.884 111.179 415.1 111.446C419.576 111.982 424.05 112.541 428.517 113.144C433.61 113.832 438.696 114.552 443.78 115.314C448.429 116.01 453.07 116.786 457.713 117.527C463.41 118.435 469.096 119.442 474.814 120.212C479.258 120.812 483.208 119.691 486.146 116.037C489.19 117.67 489.539 119.857 488.612 122.917C487.802 125.593 486.155 127.906 484.4 130.099C479.184 131.373 473.989 132.722 468.876 134.374C452.257 139.737 436.284 146.7 420.436 153.949C412.206 157.714 404.085 161.728 395.954 165.704C378.155 174.411 360.57 183.552 342.584 191.882C336.584 194.66 330.541 197.345 324.315 199.591C316.669 202.346 308.967 204.951 301.312 207.677C294.931 209.949 288.576 212.306 282.213 214.625L282.192 214.622ZM231.373 129.505V129.493C231.34 129.838 231.381 130.155 231.584 130.465C232.573 131.973 233.389 133.563 234.091 135.231C236.888 141.872 237.152 148.562 234.704 155.357C234.396 156.212 233.926 157.05 234.017 158.016C233.371 158.531 232.749 159.076 232.074 159.55C231.223 160.15 230.416 160.771 231.214 161.898C232.024 163.046 232.884 162.437 233.729 161.857C237.029 159.594 239.814 156.821 241.801 153.355C244.871 148.003 245.731 142.419 243.005 136.64C240.237 130.769 235.182 127.484 229.485 124.981C228.672 124.624 227.836 124.668 227.41 125.684C226.982 126.703 227.592 127.241 228.361 127.672C229.262 128.175 230.427 128.199 231.07 129.168C231.17 129.279 231.273 129.39 231.373 129.502V129.505ZM198.795 157.597C198.692 157.705 198.592 157.814 198.49 157.922C197.929 158.382 197.395 158.876 196.802 159.289C195.93 159.898 195.196 160.551 196.004 161.652C196.77 162.697 197.615 162.211 198.41 161.629C202.018 158.982 205.109 155.919 207.154 151.838C209.315 147.531 210.078 143.142 208.578 138.514C206.247 131.326 200.659 127.476 194.081 124.688C193.253 124.337 192.461 124.489 192.132 125.379C191.8 126.272 192.153 127.042 193.095 127.361C194.128 127.713 195.044 128.225 195.857 128.942C195.954 129.689 196.412 130.266 196.77 130.895C200.538 137.512 202.229 144.451 200.336 152.049C199.869 153.917 198.939 155.653 198.801 157.603V157.594L198.795 157.597ZM212.872 128.945C212.89 129.461 213.189 129.847 213.456 130.257C218.464 137.943 219.878 146.138 217.157 154.994C216.843 156.016 215.872 156.965 216.424 158.203C215.578 158.853 214.733 159.503 213.885 160.147C213.157 160.698 212.898 161.386 213.441 162.167C213.967 162.92 214.648 163.028 215.461 162.495C218.728 160.361 221.455 157.691 223.55 154.406C224.674 152.643 225.411 150.743 226.025 148.717C226.612 146.773 226.976 144.864 226.829 142.908C226.524 138.862 224.921 135.319 222.174 132.307C219.194 129.039 215.528 126.785 211.431 125.201C210.659 124.902 209.993 125.23 209.626 126.018C209.23 126.867 209.614 127.429 210.348 127.798C211.173 128.213 212.03 128.565 212.872 128.945ZM115.359 148.846C115.268 154.034 117.235 158.308 121.274 161.468C127.282 166.17 134.864 165.066 139.721 160.083C142.378 157.357 144.036 153.946 144.515 149.97C145.251 143.816 143.611 138.631 139.002 134.45C134.981 130.805 128.433 130.283 123.883 133.17C118.118 136.83 115.6 142.229 115.359 148.852V148.846ZM269.225 118.707C269.225 115.041 267.66 112.965 264.065 112.187C260.542 111.422 257.337 112.614 254.258 114.16C252.321 115.132 251.807 117.047 253.061 118.806C255.62 122.393 259.345 123.813 263.574 124.264C267.014 124.63 269.492 122.197 269.225 118.707ZM139.404 122.305C143.93 122.733 144.688 119.052 143.173 116.122C142.771 115.343 142.269 114.634 141.676 113.976C138.565 110.524 134.644 108.577 130.05 108.266C126.407 108.02 123.229 110.052 123.384 114.204C123.478 116.731 125.048 118.484 127.267 119.427C131.133 121.07 135.281 121.679 139.404 122.302V122.305Z" fill="#5F7383"/>
<path d="M4.22982 151.203C6.61906 151.575 9.00537 151.973 11.4005 152.316C18.6504 153.352 25.821 154.807 32.9447 156.476C46.3673 159.626 59.5463 163.62 72.5697 168.114C86.8376 173.039 100.921 178.464 114.863 184.235C126.609 189.095 138.312 194.058 150.038 198.965C150.525 199.167 151.057 199.26 151.567 199.401C151.464 199.852 151.042 199.948 150.719 200.142C147.822 201.866 144.813 203.377 141.717 204.709C131.863 208.951 121.514 211.264 110.903 212.553C106.424 213.097 101.93 213.495 97.4278 213.715C95.1853 213.823 92.934 213.759 90.6886 213.738C89.6554 213.73 88.7367 213.902 88.7602 215.155C88.7807 216.37 89.6906 216.616 90.7209 216.59C92.479 216.543 94.2372 216.514 95.9925 216.449C99.1038 216.335 102.25 216.435 105.312 215.981C107.152 215.709 108.341 216.326 109.662 217.269C114.267 220.56 118.905 223.81 123.536 227.063C124.076 227.44 124.584 228.032 125.368 227.616C126.131 227.209 125.987 226.474 125.987 225.804C125.981 221.86 125.964 217.913 125.961 213.97C125.961 213.466 125.77 212.86 126.527 212.661C127.921 212.295 129.222 212.002 130.707 212.67C136.228 215.147 141.811 217.48 147.379 219.849C148.06 220.138 148.788 220.759 149.542 220.051C150.196 219.436 149.8 218.663 149.656 217.978C148.858 214.218 148.051 210.459 147.179 206.717C146.953 205.745 147.203 205.321 148.083 204.797C149.175 204.144 150.108 204.551 151.145 204.647C155.025 205.008 158.82 205.906 162.671 206.439C165.31 206.802 167.91 207.525 170.617 207.227C173.701 208.884 177.027 209.967 180.273 211.235C188.046 214.277 195.868 217.181 203.852 219.638C208.477 221.061 213.106 222.49 217.885 223.35C218.369 223.397 218.645 223.76 218.953 224.068C226.617 231.823 235.258 238.317 244.654 243.842C244.815 243.936 244.956 244.062 245.308 244.322C243.409 244.574 241.724 244.873 240.025 245.01C234.806 245.435 229.587 245.941 224.36 246.158C215.431 246.527 206.496 246.7 197.559 246.577C195.26 246.544 192.962 246.46 190.667 246.486C185.833 246.547 181.022 246.035 176.199 245.824C170.725 245.587 165.28 244.723 159.815 244.226C152.58 243.564 145.403 242.437 138.28 241.113C123.337 238.338 108.62 234.625 94.2842 229.51C74.8034 222.56 56.4086 213.519 39.7543 201.19C29.3726 193.504 19.6483 185.046 11.0483 175.387C7.12098 170.975 3.94511 166.106 2.94715 160.089C2.42762 156.953 3.04401 154.055 4.2445 151.206L4.22982 151.203Z" fill="#BBD4E1"/>
<path d="M486.125 116.038C483.187 119.691 479.236 120.813 474.792 120.213C469.075 119.443 463.392 118.435 457.692 117.528C453.049 116.787 448.411 116.014 443.759 115.314C438.678 114.55 433.588 113.833 428.496 113.145C424.028 112.542 419.555 111.983 415.079 111.447C412.863 111.18 410.638 110.975 408.41 110.808C402.889 110.399 397.362 110.027 391.838 109.643C391.692 109.634 391.545 109.632 391.398 109.634C384.809 109.687 378.228 109.128 371.635 109.339C372.363 108.241 373.074 107.061 371.665 106.036C366.866 102.543 361.735 100.415 355.715 102.681C353.969 103.337 352.513 104.37 352.04 106.329C351.77 107.453 352.072 108.545 352.296 109.637C350.062 109.716 347.781 109.93 345.597 109.816C340.003 109.52 334.397 109.93 328.814 109.377C326.786 109.175 324.74 109.245 322.697 109.093C316.213 108.61 309.776 107.851 303.357 106.824C298.714 106.08 294.126 105.049 289.477 104.356C289.18 103.237 288.508 102.429 287.372 102.174C281.784 100.918 276.216 99.3959 270.392 100.541C269.192 99.6096 267.704 99.8614 266.347 99.5891C261.977 98.7108 257.592 97.9056 253.207 97.0917C252.781 97.0126 252.329 97.0683 251.889 97.0624C249.564 95.8532 247.131 95.4872 244.568 96.1343C244.072 95.0481 242.892 95.4228 242.164 95.3057C236.567 94.4039 230.949 93.5988 225.308 93.0572C223.162 92.8522 221.022 92.495 218.886 92.2666C214.18 91.7601 209.446 91.6196 204.756 90.9696C203.174 90.75 201.547 90.7266 199.954 90.6798C196.59 90.5802 193.22 90.4573 189.871 90.2552C183.566 89.8775 177.268 89.983 170.977 90.1118C166.469 90.2055 161.928 90.2523 157.437 90.8906C156.956 90.9579 156.454 90.9638 155.973 90.9052C154.273 90.6973 152.58 91.5493 151.036 91.3532C148.764 91.0633 146.721 91.9212 144.555 92.0353C142.336 92.1554 140.02 92.6883 137.754 93.0777C132.397 93.9999 127.055 94.9954 121.734 96.1196C116.662 97.1912 111.69 98.6141 106.691 99.9404C100.451 101.595 94.3369 103.665 88.2611 105.837C85.141 106.953 82.0502 108.144 78.9243 109.239C75.1819 110.551 71.645 112.375 67.9026 113.654C66.074 114.281 64.4832 115.455 62.452 115.701C61.6977 115.792 60.7995 116.506 59.9307 116.895C55.6189 118.828 51.3511 120.854 47.0775 122.868C44.6707 124.004 42.2814 125.178 39.8893 126.346C33.3702 129.532 26.8512 132.717 20.338 135.914C18.0808 137.024 15.8501 138.181 13.5959 139.293C12.9061 139.633 12.2662 140.151 11.4121 140.025C14.2064 136.541 17.6376 133.713 21.016 130.838C23.9864 128.311 27.0478 125.878 30.3264 123.755C33.9778 121.393 37.5881 118.98 41.4009 116.84C45.9856 114.266 50.5088 111.573 55.3371 109.517C59.2908 107.834 63.133 105.904 67.2452 104.525C71.0785 103.24 74.7446 101.422 78.6131 100.172C82.9543 98.7693 87.2837 97.3142 91.6688 96.0669C104.798 92.3369 118.112 89.4355 131.611 87.3684C140.528 86.0011 149.468 84.9032 158.459 84.1303C164.294 83.6267 170.129 83.2343 175.979 82.9562C181.882 82.6751 187.787 82.5463 193.693 82.3531C207.673 81.8963 221.653 82.1393 235.631 82.2096C241.927 82.2418 248.229 82.4555 254.516 82.7805C261.187 83.126 267.868 83.2578 274.534 83.6823C278.848 83.9575 283.166 84.2181 287.481 84.5138C291.886 84.8183 296.292 85.1081 300.701 85.398C305.732 85.7288 310.754 86.1797 315.782 86.5867C320.992 87.0083 326.196 87.5558 331.406 88.0125C336.278 88.44 341.145 88.9231 346.002 89.4764C351.383 90.0883 356.739 90.9111 362.125 91.4586C370.966 92.3603 379.778 93.4875 388.571 94.7553C397.541 96.0465 406.494 97.4723 415.422 99.024C427.286 101.085 439.098 103.401 450.835 106.086C461.159 108.446 471.288 111.532 481.543 114.134C483.137 114.539 484.731 115.066 486.111 116.038H486.125Z" fill="#708895"/>
<path d="M282.191 214.624C288.558 212.305 294.91 209.951 301.291 207.676C308.949 204.95 316.648 202.344 324.294 199.589C330.516 197.347 336.56 194.662 342.562 191.88C360.549 183.551 378.134 174.41 395.933 165.703C404.066 161.724 412.185 157.713 420.415 153.948C436.262 146.698 452.235 139.733 468.854 134.372C473.967 132.721 479.163 131.374 484.379 130.098C483.413 132.036 481.925 133.593 480.536 135.204C465.893 152.185 449.15 166.824 430.668 179.516C403.899 197.9 374.882 211.801 344.262 222.497C332.503 226.604 320.572 230.132 308.508 233.224C307.528 233.476 306.753 233.403 305.843 232.782C298.085 227.503 290.58 221.899 283.427 215.833C282.99 215.461 282.453 215.177 282.191 214.624Z" fill="#BBD4E1"/>
<path d="M512.221 207.298C505.447 204.039 499.336 199.803 493.688 194.878C487.187 189.21 481.557 182.798 476.723 175.654C472.561 169.506 468.992 163.056 465.898 156.322C465.49 155.432 465.678 154.94 466.321 154.31C470.424 150.282 474.563 146.285 478.381 141.984C482.843 136.957 487.337 131.945 490.304 125.817C491.311 123.738 492.118 121.554 491.845 119.238C491.502 116.331 489.57 114.451 487.052 113.198C483.133 111.248 478.842 110.44 474.648 109.336C471.49 108.505 468.358 107.582 465.199 106.748C464.204 106.485 463.987 106.13 464.416 105.117C470.858 89.8077 479.444 75.7542 489.52 62.5849C495.896 54.2523 502.884 46.4439 510.548 39.2649C517.314 32.9291 524.493 27.0881 532.377 22.1576C532.952 21.7975 533.507 21.3876 534.209 21.2852C534.176 21.6687 534.188 22.064 534.1 22.4358C533.401 25.3841 532.148 28.1245 530.912 30.8737C529.236 34.6009 526.903 37.9971 525.394 41.8033C522.465 49.1872 518.934 56.2462 514.575 62.9187C510.601 69.0056 507.545 75.5932 504.895 82.3476C502.588 88.2267 500.8 94.2726 499.383 100.43C497.762 107.474 496.77 114.615 496.43 121.815C496.104 128.698 496.442 135.581 497.519 142.421C498.878 151.055 501.279 159.349 505.168 167.196C506.313 169.506 507.628 171.737 508.675 174.088C511.431 180.28 511.91 186.923 512.189 193.558C512.38 198.131 512.224 202.716 512.224 207.298H512.221Z" fill="#5F7383"/>
<path d="M182.68 66.6278C187.711 60.8014 193.091 55.3118 198.732 50.0651C202.228 46.8123 205.788 43.6415 209.49 40.6288C214.996 36.1434 220.649 31.8659 226.619 27.9836C231.548 24.7776 236.479 21.5951 241.645 18.7873C245.243 16.8315 248.924 15.0544 252.675 13.3943C257.709 11.1662 262.772 9.0377 268.041 7.43912C275.443 5.19056 282.928 3.32847 290.697 2.84245C292.591 2.72534 294.454 2.61701 296.221 3.47486C293.495 4.7426 290.68 5.82004 288.088 7.38349C280.316 12.0709 273.506 17.9675 266.893 24.0984C263.224 27.5005 259.687 31.0461 256.1 34.536C251.871 38.6467 247.641 42.7573 243.423 46.8826C242.552 47.7346 241.595 48.49 240.714 49.3186C237.6 52.2581 234.371 55.0659 231.028 57.7389C226.308 61.51 221.371 64.9414 215.733 67.2778C211.157 69.175 206.519 69.7606 201.617 68.7505C195.38 67.4651 189.102 66.3936 182.686 66.6307L182.68 66.6278Z" fill="#5F7383"/>
<path d="M512.222 207.298C512.222 202.719 512.377 198.131 512.186 193.558C511.908 186.924 511.429 180.28 508.673 174.088C507.625 171.737 506.31 169.506 505.166 167.196C501.276 159.349 498.875 151.055 497.516 142.421C496.439 135.581 496.102 128.698 496.428 121.815C496.768 114.615 497.76 107.474 499.38 100.43C500.798 94.27 502.586 88.2241 504.893 82.348C507.543 75.5935 510.599 69.0059 514.573 62.919C518.932 56.2465 522.463 49.1875 525.392 41.8036C526.903 37.9974 529.234 34.6012 530.91 30.8741C532.146 28.1249 533.399 25.3844 534.098 22.4361C534.186 22.0643 534.171 21.669 534.206 21.2855L534.221 21.303C534.318 21.2181 534.415 21.1303 534.512 21.0454C537.535 19.4761 540.329 17.4852 543.47 16.1296C545.571 15.222 547.67 14.2968 549.874 13.6497C552.187 12.9676 553.722 14.4403 553.214 16.8147C552.616 19.6078 550.951 21.7832 549.296 24.0201C545.959 28.5347 542.736 33.1402 539.827 37.9477C537.271 42.1696 534.617 46.3417 532.26 50.6749C529.842 55.1164 527.699 59.7101 525.492 64.2658C523.657 68.0514 521.908 71.8781 520.467 75.8336C519.592 78.2373 518.518 80.562 517.778 83.0272C516.554 87.1086 515.145 91.1343 513.901 95.2098C512.982 98.2196 512.081 101.276 511.503 104.336C510.599 109.132 509.498 113.904 508.99 118.776C508.632 122.242 508.174 125.7 507.869 129.17C507.696 131.137 507.854 133.134 507.663 135.098C507.294 138.919 507.822 142.719 507.813 146.529C507.807 149.322 508.068 152.141 508.503 154.902C509.322 160.111 510.193 165.313 511.626 170.405C513.179 175.936 515.113 181.314 517.493 186.552C520.857 193.947 525.368 200.623 530.123 207.164C531.297 208.78 532.269 210.525 532.871 212.445C533.384 214.088 533.176 214.404 531.5 214.331C528.471 214.199 525.741 212.914 522.938 211.965C519.24 210.715 515.659 209.157 512.219 207.295L512.222 207.298Z" fill="#4F6676"/>
<path d="M182.68 66.6285C189.096 66.3914 195.377 67.4629 201.612 68.7483C206.513 69.7584 211.151 69.1728 215.727 67.2756C221.365 64.9392 226.305 61.5107 231.022 57.7368C234.365 55.0637 237.594 52.2559 240.708 49.3164C241.589 48.4849 242.546 47.7324 243.417 46.8804C247.635 42.7581 251.865 38.6445 256.095 34.5338C259.684 31.0468 263.218 27.4983 266.887 24.0962C273.5 17.9653 280.31 12.0658 288.082 7.38129C290.674 5.81783 293.489 4.7404 296.216 3.47266C297.067 3.97331 296.861 4.66428 296.565 5.37866C296.034 6.65226 295.282 7.80289 294.281 8.73394C288.408 14.206 283.671 20.615 278.942 27.0386C276.67 30.1245 274.469 33.2661 272.57 36.5774C269.749 41.4903 266.658 46.2422 264.084 51.3073C261.486 56.4163 258.906 61.5341 256.406 66.6929C254.527 70.5664 252.892 74.5395 251.41 78.5711C251.02 79.6339 250.474 79.8388 249.479 79.8095C240.453 79.5373 231.433 79.1098 222.399 79.2035C214.43 79.2855 206.455 79.1098 198.486 79.2767C192.295 79.4084 186.099 79.59 179.915 79.8915C177.258 80.0203 174.582 79.7773 171.949 80.4039C171.869 80.2838 171.79 80.1667 171.711 80.0467C175.365 75.573 179.02 71.0993 182.674 66.6256L182.68 66.6285Z" fill="#4F6676"/>
<path d="M313.546 262.648C311.885 261.167 310.203 259.72 308.448 258.344C307.288 257.434 306.111 256.426 305.137 255.37C303.613 253.715 301.97 252.146 300.244 250.814C298.406 249.394 297.226 247.286 295.046 246.249C294.365 245.924 293.995 244.999 293.399 244.434C291.45 242.593 289.29 240.959 287.379 239.114C285.941 237.724 284.394 236.421 282.967 235.007C281.139 233.194 278.949 231.745 276.906 230.149C273.839 227.757 270.918 225.198 267.989 222.648C265.116 220.145 262.512 217.393 259.953 214.594C257.816 212.257 255.837 209.798 254.382 206.97C254.073 206.37 253.806 205.717 253.695 205.058C253.337 202.968 254.153 202.124 256.281 202.028C259.095 201.902 261.808 202.326 264.482 203.149C264.766 203.237 265.095 203.538 265.424 203.193C267.138 205.538 269.656 207.031 271.676 209.049C276.61 213.979 282.034 218.341 287.432 222.742C293.17 227.421 299.155 231.76 305.33 235.832C315.119 242.288 325.313 247.977 336.531 251.642C339.584 252.641 342.775 253.18 345.78 254.339C347.462 254.989 349.173 255.598 350.503 256.874C351.659 257.987 351.577 258.593 350.251 259.527C347.444 261.5 344.142 262.03 340.887 262.546C334.999 263.477 329.047 263.667 323.103 263.401C319.915 263.257 316.695 263.304 313.543 262.651L313.546 262.648Z" fill="#4F6676"/>
<path d="M229.564 293.032C225.543 291.963 221.715 290.374 217.955 288.637C209.438 284.702 201.736 279.57 194.814 273.208C187.133 266.149 180.905 257.998 175.733 248.998C175.692 248.927 175.727 248.816 175.727 248.559C182.337 248.942 188.932 249.34 195.536 249.452C195.454 250.192 196.006 250.573 196.438 251.03C199.367 254.142 202.422 257.146 205.187 260.396C209.238 265.162 213.365 269.858 217.635 274.42C222.611 279.731 226.453 285.724 229.523 292.259C229.635 292.499 229.887 292.76 229.564 293.032Z" fill="#5F7383"/>
<path d="M229.565 293.033C229.887 292.758 229.635 292.497 229.523 292.26C226.45 285.725 222.608 279.732 217.636 274.421C213.365 269.862 209.238 265.163 205.188 260.397C202.426 257.144 199.367 254.143 196.438 251.031C196.01 250.574 195.458 250.196 195.537 249.453C201.742 249.432 207.947 249.415 214.155 249.391C214.642 249.391 215.141 249.435 215.619 249.359C218.531 248.893 217.909 248.908 218.719 251.242C222.174 261.184 226.166 270.881 231.948 279.741C233.938 282.792 236.169 285.678 238.784 288.255C240.897 290.34 243.131 292.319 244.807 294.802C245.089 295.22 245.635 295.633 245.218 296.204C244.889 296.655 244.311 296.535 243.844 296.462C238.995 295.697 234.217 294.626 229.567 293.03L229.565 293.033Z" fill="#4F6676"/>
<path d="M170.607 207.228C167.903 207.527 165.3 206.803 162.661 206.44C158.807 205.91 155.015 205.012 151.135 204.649C150.102 204.552 149.165 204.148 148.073 204.798C147.193 205.325 146.943 205.747 147.169 206.719C148.041 210.46 148.848 214.22 149.647 217.979C149.79 218.661 150.187 219.437 149.532 220.052C148.781 220.76 148.053 220.14 147.369 219.85C141.801 217.484 136.215 215.148 130.697 212.671C129.209 212.003 127.909 212.296 126.517 212.662C125.763 212.861 125.951 213.467 125.951 213.971C125.954 217.914 125.971 221.861 125.977 225.805C125.977 226.475 126.124 227.21 125.358 227.617C124.574 228.033 124.066 227.445 123.526 227.064C118.895 223.808 114.26 220.558 109.652 217.27C108.331 216.328 107.142 215.71 105.302 215.982C102.24 216.436 99.0939 216.336 95.9826 216.451C94.2274 216.515 92.4692 216.544 90.711 216.591C89.6808 216.617 88.7709 216.372 88.7503 215.156C88.7298 213.903 89.6456 213.731 90.6788 213.739C92.9242 213.76 95.1755 213.827 97.4179 213.716C101.923 213.496 106.417 213.095 110.893 212.554C121.504 211.265 131.854 208.95 141.707 204.71C144.804 203.378 147.812 201.864 150.709 200.143C151.032 199.952 151.455 199.856 151.557 199.402C153.988 198.424 155.954 196.729 157.971 195.151C168.667 186.789 175.761 175.95 179.955 163.144C180.214 162.359 180.487 161.578 180.716 160.784C180.974 159.885 181.467 159.25 182.477 159.472C183.624 159.727 183.706 160.679 183.448 161.563C182.888 163.475 182.248 165.366 181.564 167.237C180.578 169.933 179.442 172.574 178.062 175.092C177.607 175.921 177.821 176.369 178.417 176.951C181.276 179.75 184.106 182.579 186.929 185.413C187.349 185.834 188.048 186.18 187.775 186.965C187.528 187.67 186.829 187.796 186.222 187.901C181.382 188.733 176.539 189.529 171.696 190.343C170.354 190.569 169.022 190.879 167.672 191.037C166.236 191.207 165.529 192.308 164.689 193.21C164.149 193.789 164.754 194.41 165.009 194.931C166.653 198.301 168.329 201.656 170.026 205.003C170.387 205.714 170.654 206.42 170.598 207.222L170.607 207.228ZM123.656 224.323C123.703 224.359 123.749 224.394 123.799 224.426C123.77 224.376 123.741 224.329 123.711 224.28V213.359C119.552 214.752 115.358 215.104 111.017 215.552C111.871 216.161 112.534 216.641 113.206 217.106C116.687 219.513 120.174 221.917 123.658 224.321L123.656 224.323ZM152.232 202.593C157.26 203.387 162.285 204.18 167.534 205.009C165.817 201.539 164.211 198.304 162.564 194.975C159.394 197.941 155.954 200.307 152.232 202.59V202.593ZM147.21 217.387C146.459 213.836 145.749 210.51 145.056 207.181C144.845 206.174 144.328 206.853 144.011 207.02C141.892 208.124 139.702 209.067 137.445 209.84C136.016 210.329 134.557 210.735 132.866 211.254C137.744 213.338 142.373 215.32 147.213 217.39L147.21 217.387ZM184.373 185.943C181.781 183.369 179.48 181.121 177.231 178.819C176.597 178.169 176.327 178.225 175.919 179.01C174.238 182.222 172.033 185.064 169.609 187.749C169.421 187.957 168.948 188.077 169.23 188.563C174.164 187.708 179.098 186.853 184.373 185.94V185.943Z" fill="#2A3F4C"/>
<path d="M115.364 148.846C115.605 142.223 118.123 136.825 123.888 133.165C128.435 130.278 134.986 130.799 139.007 134.444C143.618 138.625 145.259 143.81 144.52 149.965C144.044 153.941 142.383 157.354 139.726 160.077C134.869 165.06 127.29 166.164 121.279 161.462C117.24 158.303 115.273 154.028 115.364 148.84V148.846ZM141.091 153.37C142.447 148.65 142.773 144.276 140.434 140.063C137.634 135.021 132.961 133.004 128.118 134.128C119.283 136.178 114.322 149.329 120.554 157.34C121.704 158.821 123.072 159.931 124.924 160.859C124.76 160.08 124.317 159.89 124.044 159.565C123.735 159.196 123.319 158.9 123.078 158.496C120.448 154.102 120.668 149.698 123.166 145.347C124.578 142.885 126.656 141.207 129.444 140.455C130.075 140.285 130.454 140.256 130.795 141.023C131.455 142.507 133.604 143.029 134.76 141.91C135.55 141.146 135.975 141.491 136.556 141.945C139.245 144.033 140.642 146.759 140.71 150.175C140.73 151.156 140.422 152.193 141.088 153.373L141.091 153.37ZM125.139 150.398C125.097 152.509 125.256 154.274 126.386 155.811C126.747 156.3 127.199 156.558 127.76 156.368C128.282 156.192 128.567 155.806 128.634 155.176C128.796 153.7 129.192 152.28 129.204 150.746C129.218 148.875 130.178 147.119 130.501 145.245C130.627 144.513 130.806 143.781 130.164 143.444C129.453 143.073 128.558 143.073 127.854 143.693C127.563 143.951 127.24 144.214 127.061 144.542C126.028 146.466 124.854 148.357 125.139 150.395V150.398Z" fill="#282A2B"/>
<path d="M352.301 109.634C352.078 108.542 351.776 107.45 352.046 106.326C352.519 104.367 353.974 103.334 355.721 102.678C361.741 100.415 366.872 102.54 371.671 106.033C373.079 107.058 372.366 108.238 371.641 109.336C369.851 110.726 368.498 112.6 366.349 113.625C361.154 116.099 355.961 114.825 352.645 110.091C352.536 109.936 352.413 109.786 352.298 109.634H352.301Z" fill="#4F6676"/>
<path d="M269.226 118.707C269.493 122.2 267.016 124.633 263.576 124.264C259.343 123.813 255.618 122.393 253.062 118.807C251.806 117.047 252.319 115.135 254.259 114.16C257.338 112.614 260.544 111.423 264.066 112.187C267.662 112.966 269.226 115.041 269.226 118.707Z" fill="#4F6676"/>
<path d="M244.579 96.1308C247.141 95.4867 249.575 95.8498 251.899 97.059C253.147 98.5346 254.55 99.8931 254.57 102.057C254.582 103.497 254.086 104.715 252.953 105.462C249.619 107.658 245.894 108.114 242.251 106.645C238.632 105.184 238.18 101.591 240.837 98.8186C241.937 97.6709 243.293 96.9682 244.582 96.1279L244.579 96.1308Z" fill="#4F6676"/>
<path d="M195.853 128.947C195.043 128.229 194.124 127.717 193.091 127.366C192.152 127.046 191.799 126.276 192.128 125.383C192.457 124.493 193.249 124.341 194.077 124.693C200.655 127.48 206.243 131.327 208.574 138.518C210.074 143.147 209.311 147.535 207.15 151.842C205.105 155.923 202.014 158.983 198.407 161.633C197.611 162.215 196.766 162.701 196 161.656C195.193 160.552 195.926 159.899 196.798 159.293C197.391 158.881 197.925 158.383 198.486 157.923C198.589 157.815 198.688 157.707 198.791 157.598V157.607C200.147 156.86 201.081 155.657 202.031 154.506C205.43 150.387 207.332 145.767 206.1 140.365C205.46 137.56 203.969 135.174 201.808 133.157C199.997 131.465 198.087 129.995 195.844 128.947H195.853Z" fill="#2A3F4C"/>
<path d="M231.069 129.175C230.426 128.206 229.261 128.18 228.36 127.679C227.588 127.249 226.977 126.71 227.409 125.691C227.837 124.675 228.674 124.631 229.484 124.988C235.184 127.495 240.235 130.78 243.003 136.647C245.73 142.426 244.87 148.01 241.8 153.362C239.813 156.828 237.027 159.601 233.728 161.864C232.883 162.444 232.023 163.05 231.213 161.905C230.414 160.778 231.221 160.157 232.073 159.557C232.748 159.083 233.37 158.535 234.016 158.02C238.689 154.07 241.747 149.403 241.729 142.959C241.715 137.241 235.865 131.119 231.371 129.497V129.509C231.271 129.398 231.169 129.286 231.069 129.175Z" fill="#2A3F4C"/>
<path d="M212.874 128.95C212.031 128.569 211.174 128.215 210.35 127.802C209.616 127.433 209.231 126.871 209.627 126.022C209.994 125.234 210.661 124.906 211.433 125.205C215.53 126.789 219.193 129.043 222.175 132.311C224.923 135.323 226.528 138.866 226.831 142.912C226.977 144.868 226.616 146.777 226.026 148.721C225.413 150.747 224.676 152.647 223.552 154.41C221.456 157.698 218.729 160.365 215.463 162.499C214.647 163.032 213.966 162.927 213.443 162.171C212.9 161.393 213.159 160.705 213.886 160.151C214.738 159.507 215.58 158.854 216.425 158.207C219.378 155.637 221.855 152.738 223.121 148.941C224.063 146.109 224.347 143.275 223.499 140.383C221.867 134.811 217.746 131.535 212.877 128.95H212.874Z" fill="#2A3F4C"/>
<path d="M270.397 100.537C276.221 99.3924 281.789 100.915 287.377 102.171C288.513 102.426 289.188 103.237 289.482 104.352C289.083 105.356 288.346 105.995 287.368 106.448C285.044 107.529 282.608 108.135 280.051 108.155C277.77 108.173 275.475 108.349 273.209 107.883C271.653 107.564 270.227 107.008 269.091 105.86C267.412 104.165 267.659 102.273 269.705 101.044C269.948 100.897 270.168 100.707 270.397 100.534V100.537Z" fill="#4F6676"/>
<path d="M212.874 128.949C217.744 131.534 221.864 134.811 223.496 140.382C224.345 143.278 224.06 146.109 223.118 148.94C221.853 152.738 219.375 155.636 216.423 158.207C215.871 156.968 216.845 156.02 217.156 154.998C219.877 146.141 218.463 137.943 213.455 130.261C213.188 129.851 212.892 129.465 212.871 128.949H212.874Z" fill="#708895"/>
<path d="M195.854 128.945C198.096 129.993 200.007 131.463 201.818 133.156C203.978 135.173 205.469 137.559 206.109 140.364C207.339 145.769 205.44 150.386 202.041 154.505C201.09 155.656 200.156 156.859 198.8 157.606C198.935 155.656 199.869 153.92 200.336 152.052C202.229 144.454 200.538 137.515 196.769 130.898C196.411 130.269 195.953 129.692 195.856 128.945H195.854Z" fill="#708895"/>
<path d="M231.374 129.496C235.868 131.118 241.718 137.237 241.733 142.958C241.75 149.402 238.692 154.069 234.019 158.019C233.928 157.053 234.398 156.218 234.706 155.363C237.151 148.568 236.889 141.878 234.092 135.238C233.391 133.569 232.575 131.979 231.586 130.471C231.383 130.161 231.339 129.845 231.374 129.499V129.496Z" fill="#708895"/>
<path d="M139.407 122.306C135.283 121.679 131.138 121.07 127.27 119.431C125.048 118.488 123.48 116.737 123.386 114.208C123.231 110.053 126.41 108.024 130.052 108.27C134.646 108.577 138.564 110.524 141.678 113.979C142.271 114.635 142.773 115.346 143.175 116.125C144.69 119.056 143.933 122.736 139.407 122.309V122.306ZM130.507 110.475C127.745 110.46 126.275 111.259 125.776 112.691C125.25 114.193 125.793 115.768 127.319 116.904C127.898 117.334 128.558 117.753 129.242 117.932C132.538 118.795 135.829 119.735 139.222 120.142C141.605 120.426 142.283 119.343 141.235 117.176C141.13 116.957 141.027 116.731 140.883 116.538C138.159 112.796 134.387 110.943 130.507 110.475Z" fill="#2A3F4C"/>
<path d="M152.236 202.594C155.958 200.31 159.398 197.944 162.568 194.979C164.218 198.305 165.82 201.543 167.537 205.012C162.289 204.184 157.261 203.39 152.236 202.597V202.594Z" fill="white"/>
<path d="M147.21 217.384C142.37 215.314 137.742 213.335 132.863 211.247C134.557 210.729 136.016 210.322 137.442 209.833C139.699 209.06 141.889 208.117 144.008 207.014C144.325 206.847 144.842 206.168 145.053 207.175C145.749 210.504 146.456 213.83 147.208 217.381L147.21 217.384Z" fill="white"/>
<path d="M184.373 185.939C179.099 186.853 174.162 187.708 169.231 188.563C168.952 188.074 169.424 187.957 169.609 187.749C172.031 185.061 174.238 182.218 175.92 179.009C176.331 178.227 176.598 178.169 177.232 178.819C179.477 181.12 181.781 183.366 184.373 185.942V185.939Z" fill="white"/>
<path d="M123.659 224.323C120.175 221.919 116.691 219.516 113.207 217.109C112.532 216.643 111.872 216.16 111.018 215.554C115.359 215.103 119.553 214.755 123.712 213.361V224.282L123.659 224.326V224.323Z" fill="white"/>
<path d="M123.712 224.279C123.741 224.329 123.771 224.376 123.8 224.426C123.753 224.391 123.706 224.355 123.656 224.323L123.709 224.279H123.712Z" fill="#708895"/>
<path d="M141.092 153.371C140.426 152.194 140.731 151.155 140.713 150.174C140.646 146.757 139.249 144.031 136.56 141.944C135.979 141.493 135.553 141.148 134.764 141.909C133.607 143.027 131.459 142.509 130.798 141.022C130.458 140.255 130.079 140.284 129.448 140.454C126.66 141.206 124.585 142.884 123.17 145.346C120.672 149.697 120.452 154.1 123.082 158.495C123.322 158.899 123.739 159.195 124.047 159.563C124.32 159.888 124.761 160.079 124.928 160.858C123.079 159.929 121.711 158.82 120.557 157.338C114.326 149.331 119.289 136.179 128.121 134.127C132.962 133.002 137.637 135.02 140.437 140.061C142.777 144.274 142.451 148.649 141.095 153.368L141.092 153.371Z" fill="white"/>
<path d="M125.138 150.4C124.856 148.362 126.028 146.47 127.061 144.547C127.24 144.216 127.563 143.953 127.853 143.698C128.558 143.077 129.453 143.077 130.163 143.449C130.809 143.786 130.627 144.518 130.501 145.25C130.178 147.123 129.218 148.883 129.203 150.751C129.192 152.282 128.796 153.702 128.634 155.181C128.567 155.81 128.279 156.197 127.759 156.372C127.199 156.563 126.744 156.305 126.386 155.816C125.256 154.276 125.097 152.514 125.138 150.403V150.4Z" fill="white"/>
<path d="M130.507 110.475C134.387 110.943 138.159 112.797 140.883 116.538C141.023 116.734 141.129 116.96 141.235 117.177C142.283 119.343 141.605 120.426 139.221 120.142C135.831 119.735 132.541 118.796 129.242 117.932C128.555 117.753 127.897 117.335 127.319 116.904C125.793 115.768 125.25 114.193 125.775 112.691C126.274 111.259 127.745 110.46 130.507 110.475Z" fill="#708895"/>
</g>
<defs>
<clipPath id="clip0_472_748">
<rect width="556" height="299" fill="white"/>
</clipPath>
</defs>
</svg>
