<svg width="496" height="327" viewBox="0 0 496 327" fill="none" xmlns="http://www.w3.org/2000/svg">
<g clip-path="url(#clip0_424_1569)">
<path d="M171.395 187.649C173.123 198.364 183 204.219 189.913 230.907C194.949 250.348 191.241 255.726 192.907 263.852C193.702 267.733 197.166 273.425 196.738 279.758C195.689 295.29 188.679 299.077 185.098 303.515C189.666 310.264 203.555 318.215 212.999 317.383C224.603 319.537 241.764 316.213 233.924 293.53C235.9 285.27 238.924 261.068 238.184 255.912C238.308 247.796 235.344 193.892 235.344 193.892L171.395 187.649Z" fill="#A49791"/>
<path d="M195.838 261.726C194.977 253.929 197.689 243.235 194.109 230.476C191.116 219.809 187.211 209.096 179.295 195.159C178.113 193.078 177.047 190.716 176.649 188.158L171.391 187.645C173.119 198.359 182.996 204.214 189.909 230.902C194.945 250.343 191.237 255.721 192.904 263.847C193.698 267.728 197.162 273.42 196.734 279.753C195.685 295.285 188.675 299.072 185.094 303.51C185.903 304.669 186.83 305.741 187.858 306.712C192.318 303.703 199.012 291.767 199.795 281.321C200.259 275.239 196.655 269.129 195.838 261.726Z" fill="#C9C2BE"/>
<path d="M238.184 255.912C238.308 247.796 235.344 193.893 235.344 193.893L192.322 189.693C210.17 217.294 232.773 259.692 221.888 283.298C236.021 306.869 211.589 317.073 200.431 314.81C204.746 316.644 209.227 317.715 212.999 317.383C224.603 319.537 241.764 316.213 233.924 293.53C235.9 285.271 238.924 261.068 238.184 255.912Z" fill="#827875"/>
<path d="M218.985 318.311C216.971 318.309 214.961 318.123 212.98 317.756C212.532 317.795 212.063 317.814 211.588 317.814C202.027 317.814 189.11 310.104 184.791 303.723L184.638 303.495L184.81 303.284C185.496 302.432 186.307 301.604 187.166 300.726C190.891 296.924 195.525 292.192 196.368 279.73C196.651 275.539 195.221 271.695 193.959 268.304C193.367 266.715 192.809 265.215 192.544 263.924C191.919 260.876 192.04 258.199 192.179 255.101C192.417 249.799 192.718 243.2 189.554 231.001C185.549 215.541 180.655 207.273 176.717 200.63C173.951 195.957 171.763 192.266 171.029 187.705L170.953 187.232L171.43 187.278L235.696 193.551L235.713 193.869C235.743 194.407 238.679 247.878 238.554 255.913C239.314 261.176 236.212 285.455 234.309 293.508C237.086 301.598 236.931 307.891 233.844 312.213C231.04 316.15 225.762 318.311 218.985 318.311ZM213.016 317.011L213.066 317.021C215.018 317.384 217 317.569 218.985 317.571C222.761 317.571 229.649 316.82 233.241 311.782C236.193 307.647 236.305 301.55 233.573 293.645L233.539 293.544L233.564 293.439C235.638 284.77 238.527 260.908 237.816 255.959C237.93 248.216 235.236 198.685 234.985 194.224L171.838 188.06C172.624 192.266 174.72 195.807 177.35 200.246C181.099 206.574 186.234 215.248 190.266 230.809C193.454 243.119 193.155 249.779 192.914 255.131C192.779 258.181 192.658 260.814 193.264 263.771C193.516 265.007 194.067 266.481 194.648 268.043C195.872 271.332 197.396 275.426 197.102 279.776C196.241 292.512 191.304 297.555 187.69 301.239C186.918 302.028 186.184 302.775 185.556 303.527C189.923 309.721 202.352 317.067 211.579 317.067C212.049 317.067 212.513 317.048 212.957 317.009L213.016 317.011Z" fill="#413C3B"/>
<path d="M233.908 294.654C233.369 292.817 231.077 289.616 231.061 289.584C231.061 289.584 234.04 292.487 234.619 294.444L233.908 294.654Z" fill="#413C3B"/>
<path d="M181.842 308.414C181.564 305.133 185.473 298.92 190.606 299.846C195.108 300.654 198.427 310.087 195.93 312.593C192.381 316.149 182.162 312.192 181.842 308.414Z" fill="#D0D0CA"/>
<path d="M192.197 300.464C192.11 300.441 190.695 299.862 190.608 299.846C185.474 298.919 181.565 305.133 181.844 308.415C181.903 309.116 182.307 309.821 182.943 310.485C181.971 306.859 185.617 300.262 192.197 300.464Z" fill="#D4D4CA"/>
<path d="M191.483 300.117C193.923 302.106 194.019 307.814 192.197 309.794C190.758 311.357 187.819 312.715 185.617 312.392C188.674 313.922 193.992 314.538 195.932 312.594C198.269 310.253 195.524 301.878 191.483 300.117Z" fill="#A2A19A"/>
<path d="M191.824 314.352C187.522 314.352 181.73 311.488 181.472 308.447C181.313 306.562 182.416 303.926 184.161 302.033C186.032 300 188.389 299.071 190.672 299.474C193.402 299.969 195.606 303.309 196.576 306.402C197.278 308.63 197.545 311.493 196.194 312.847C195.215 313.835 193.704 314.352 191.824 314.352ZM189.574 300.127C187.866 300.127 186.138 300.984 184.707 302.537C183.089 304.288 182.067 306.696 182.21 308.389C182.417 310.832 187.538 313.618 191.824 313.618C193.502 313.618 194.832 313.175 195.669 312.338C196.59 311.414 196.669 309.176 195.87 306.634C194.995 303.849 192.953 300.651 190.541 300.215C190.222 300.157 189.899 300.128 189.574 300.127Z" fill="#4A4943"/>
<path d="M199.526 315.95C198.178 310.958 204.679 302.217 208.864 303.025C214.064 304.027 216.579 315.049 214.295 317.944C212.011 320.839 200.586 319.892 199.526 315.95Z" fill="#D0D0CA"/>
<path d="M209.712 303.33C209.018 302.97 207.332 303.061 206.626 303.359C202.732 305.028 198.409 311.788 199.527 315.95C199.636 316.325 199.826 316.673 200.084 316.966C200.126 311.989 204.531 305.118 209.712 303.33Z" fill="#D4D4CA"/>
<path d="M209.398 303.167C212.304 306.717 212.689 312.854 209.248 315.58C206.879 317.459 203.585 318.311 200.932 317.735C204.303 320.102 212.409 320.329 214.294 317.941C216.498 315.148 214.232 304.789 209.398 303.167Z" fill="#A2A19A"/>
<path d="M208.53 319.997C204.406 319.997 199.866 318.639 199.169 316.046C198.36 313.037 200.227 309.164 202.073 306.756C204.3 303.858 206.938 302.272 208.933 302.655C211.143 303.081 213.136 305.267 214.398 308.653C215.806 312.423 215.881 316.517 214.586 318.167C213.67 319.331 211.463 319.997 208.53 319.997ZM208.304 303.341C206.657 303.341 204.495 304.822 202.661 307.21C200.369 310.199 199.276 313.592 199.885 315.855C200.456 317.984 204.729 319.256 208.53 319.256C211.154 319.256 213.249 318.665 214.004 317.712C215.138 316.274 215.008 312.41 213.704 308.916C212.533 305.778 210.737 303.761 208.792 303.385C208.631 303.355 208.467 303.34 208.304 303.341Z" fill="#4A4943"/>
<path d="M432.994 266.533C432.994 266.533 445.586 269.83 448.179 280.463C450.772 291.095 450.401 297.696 450.308 300.002C453.115 312.576 468.177 315.313 475.585 314.468C483.178 313.593 495.049 308.878 495.604 301.851C496.16 294.824 487.684 287.736 484.474 269.673C482.888 260.749 485.448 254.643 483.363 249.148C478.913 237.434 456.512 231.581 453.919 197.928C431.697 214.204 410.602 234.729 410.602 234.729L432.994 266.533Z" fill="#A49791"/>
<path d="M428.723 260.467L432.994 266.534C432.994 266.534 445.586 269.831 448.179 280.463C450.772 291.095 450.401 297.697 450.308 300.003C450.992 303.15 452.612 306.017 454.955 308.23C456.968 287.581 453.857 263.822 428.723 260.467Z" fill="#C9C2BE"/>
<path d="M484.474 269.677C482.888 260.753 485.449 254.647 483.363 249.151C478.913 237.438 456.512 231.585 453.919 197.932C449.634 201.07 445.393 204.365 441.336 207.642C443.358 233.866 465.853 245.571 471.269 254.33C474.934 260.254 472.339 268.751 474.849 276.275C476.332 280.718 483.368 289.47 482.997 297.479C482.552 307.129 474.473 309.504 466.361 313.886C469.797 314.633 473.121 314.753 475.591 314.472C483.183 313.597 495.054 308.882 495.61 301.855C496.165 294.828 487.684 287.741 484.474 269.677Z" fill="#827875"/>
<path d="M472.949 314.978C465.641 314.978 452.573 311.84 449.947 300.082L449.937 300.035L449.947 299.766C450.05 297.317 450.32 290.808 447.82 280.557C445.31 270.267 433.024 266.93 432.9 266.898L432.765 266.863L432.687 266.753L410.117 234.685L410.342 234.464C410.554 234.26 431.712 213.73 453.701 197.634L454.241 197.241L454.292 197.904C456.02 220.338 466.4 230.144 474.741 238.025C478.754 241.817 482.22 245.09 483.713 249.024C484.82 251.94 484.657 254.981 484.46 258.502C484.285 261.713 484.085 265.351 484.843 269.615C486.582 279.409 489.832 285.856 492.438 291.037C494.562 295.254 496.238 298.585 495.977 301.882C495.399 309.187 483.496 313.931 475.632 314.838C474.741 314.936 473.845 314.982 472.949 314.978ZM450.681 299.969C453.229 311.231 465.871 314.24 472.949 314.24C473.816 314.244 474.683 314.199 475.545 314.106C483.465 313.193 494.715 308.417 495.23 301.827C495.476 298.73 493.92 295.646 491.768 291.371C489.137 286.147 485.863 279.647 484.105 269.747C483.333 265.4 483.534 261.715 483.711 258.465C483.9 255.027 484.063 252.058 483.012 249.288C481.58 245.518 478.17 242.293 474.223 238.565C466.314 231.093 455.509 220.886 453.593 198.628C433.073 213.733 413.407 232.54 411.087 234.775L433.221 266.213C434.594 266.617 446.07 270.252 448.538 280.375C451.064 290.729 450.79 297.311 450.688 299.79L450.681 299.969Z" fill="#413C3B"/>
<path d="M442.858 308.78C441.948 306.375 445.93 299.168 451.563 299.168C456.238 299.168 460.336 308.342 458.035 310.588C455.735 312.834 444.279 312.532 442.858 308.78Z" fill="#D0D0CA"/>
<path d="M453.202 299.535C454.846 301.789 455.005 305.517 453.858 307.336C452.432 309.599 448.458 311.158 445.672 311.021C449.627 312.514 456.341 312.25 458.04 310.587C460.063 308.61 457.121 301.261 453.202 299.535Z" fill="#A2A19A"/>
<path d="M452.341 299.255C452.086 299.199 451.825 299.17 451.563 299.168C445.928 299.168 441.948 306.375 442.858 308.78C443.062 309.271 443.395 309.698 443.821 310.017C444.437 305.166 448.132 300.835 452.341 299.255Z" fill="#D4D4CA"/>
<path d="M451.902 312.38C447.881 312.38 443.419 311.309 442.513 308.917C442.036 307.655 442.695 305.392 444.154 303.284C445.086 301.937 447.673 298.806 451.57 298.806C454.447 298.806 457.001 301.902 458.256 304.973C459.094 307.021 459.547 309.643 458.304 310.86C457.326 311.805 454.934 312.38 451.902 312.38ZM451.566 299.545C448.025 299.545 445.633 302.454 444.763 303.705C443.48 305.562 442.824 307.645 443.207 308.656C443.984 310.706 448.26 311.641 451.903 311.641C454.662 311.641 456.969 311.126 457.783 310.331C458.577 309.552 458.492 307.511 457.569 305.252C456.447 302.497 454.086 299.538 451.566 299.538V299.545Z" fill="#4A4943"/>
<path d="M460.851 314.28C458.303 310.645 464.372 299.335 470.339 300.228C476.137 301.091 479.995 312.555 477.216 315.389C474.437 318.223 463.151 317.562 460.851 314.28Z" fill="#D0D0CA"/>
<path d="M469.322 300.195C463.709 300.606 458.447 310.85 460.851 314.28C461.201 314.779 461.763 315.214 462.469 315.588C461.113 309.884 465.345 302.313 469.322 300.195Z" fill="#D4D4CA"/>
<path d="M471.008 300.378C473.925 303.878 474.006 308.927 472.413 311.805C470.989 314.376 467.568 316.248 464.467 316.382C468.759 317.657 475.215 317.436 477.224 315.386C479.887 312.664 476.428 301.968 471.008 300.378Z" fill="#A2A19A"/>
<path d="M470.334 317.547C466.526 317.547 462.022 316.605 460.542 314.492C459.404 312.867 459.769 309.703 461.476 306.432C463.07 303.375 466.17 299.808 469.662 299.808C469.905 299.807 470.148 299.825 470.389 299.861C473.962 300.392 476.56 304.535 477.7 307.919C478.839 311.304 478.754 314.344 477.477 315.648C476.299 316.855 473.696 317.547 470.334 317.547ZM469.659 300.548C466.499 300.548 463.628 303.901 462.13 306.774C460.574 309.756 460.179 312.688 461.147 314.067C462.26 315.656 466.121 316.807 470.331 316.807C473.444 316.807 475.917 316.181 476.938 315.131C478.006 314.041 478.026 311.238 476.989 308.155C475.91 304.968 473.512 301.075 470.272 300.593C470.071 300.564 469.869 300.549 469.666 300.548H469.659Z" fill="#4A4943"/>
<path d="M149.852 173.528C161.611 178.332 165.407 196.436 188.549 195.899C194.482 213.465 221.511 232.88 237.438 232.511C253.363 238.797 280.399 248.043 280.399 248.043C290.029 251.741 347.928 265.178 377.434 241.386C373.916 266.718 392.627 268.313 392.518 281.373C392.373 298.95 373.823 303.604 373.237 317.441C376.57 319.906 410.829 329.029 426.816 315.1C434.637 308.282 426.855 298.157 428.545 290.327C430.458 281.451 435.227 277.166 434.471 268.569C433.729 260.156 424.434 245.573 430.89 233.868C440.273 216.857 469.655 198.488 462.495 156.7C467.432 176.855 485.383 195.967 492.802 186.469C496.414 181.847 484.84 175.564 480.889 165.451C475.804 152.432 469.288 129.307 462.109 118.369C422.698 58.3517 349.726 40.6268 267.32 63.6793C259.172 57.7041 251.332 60.2622 251.332 60.2622C245.634 57.3352 226.888 47.0409 206.864 56.6418L149.852 173.528Z" fill="#A49791"/>
<path d="M262.043 72.9957C263.526 67.4177 271.393 68.6873 275.59 71.7624C283.03 62.3459 328.902 52.0664 375.217 63.2143C407.251 70.9249 436.597 88.4156 458.046 112.505C417.81 57.2216 346.973 41.4018 267.319 63.6842C259.171 57.709 251.332 60.2671 251.332 60.2671C245.634 57.3401 226.888 47.0458 206.863 56.6467L207.074 60.5512C231.696 52.1485 249.939 62.3917 262.043 72.9957Z" fill="#C9C2BE"/>
<path d="M394.229 275.903C389.746 262.843 378.057 264.807 379.291 237.318C378.921 238.799 378.18 240.092 377.44 241.386C373.922 266.718 392.633 268.313 392.524 281.373C392.378 298.95 373.829 303.604 373.242 317.441C373.904 317.931 375.785 318.682 378.501 319.46C379.965 315.238 383.368 306.605 383.368 306.605C391.456 298.153 398.602 288.657 394.229 275.903Z" fill="#C9C2BE"/>
<path d="M413.521 195.246C370.438 240.118 296.849 232.242 283.431 206.489C270.16 213.176 243.493 213.522 236.826 199.591C225.407 213.274 205.592 199.961 214.848 185.724C203.927 184.743 193.005 184.369 190.868 177.865C187.21 166.726 226.453 140.916 206.112 58.1729L149.85 173.519C161.609 178.323 165.406 196.427 188.547 195.89C194.48 213.456 221.509 232.871 237.436 232.502C253.361 238.788 280.397 248.033 280.397 248.033C289.722 251.615 344.309 264.324 374.544 243.527C387.255 235.654 406.144 215.314 413.521 195.246Z" fill="#827875"/>
<path d="M462.993 137.466C461.645 128.081 457.272 119.345 451.263 110.781C469.196 196.275 424.325 208.486 419.471 228.184C415.584 243.969 424.349 250.749 423.979 267.761C423.803 275.797 417.942 282.436 416.788 289.179C414.95 299.9 414.008 309.139 403.547 313.683C397.935 315.924 381.325 318.675 375.213 318.387C383.459 321.547 412.483 327.591 426.818 315.1C434.639 308.282 426.857 298.158 428.547 290.327C430.46 281.452 435.229 277.167 434.473 268.57C433.731 260.157 424.436 245.574 430.892 233.869C440.275 216.857 469.657 198.489 462.497 156.7C466.113 171.462 476.711 185.665 485.037 188.475C488.081 189.502 490.397 189.303 491.879 187.423C482.159 183.509 467.067 165.695 462.993 137.466Z" fill="#827875"/>
<path d="M401.269 323.03C388.14 323.03 375.205 319.357 373.022 317.743L372.864 317.625L372.874 317.429C373.151 310.852 377.353 306.363 381.8 301.61C386.852 296.209 392.078 290.625 392.155 281.375C392.197 276.27 389.295 272.973 385.935 269.155C380.886 263.418 375.177 256.931 376.956 242.241C365.568 251.066 349.133 255.54 328.087 255.54C306.244 255.54 286.107 250.629 280.273 248.389C280.016 248.301 253.138 239.099 237.377 232.881C237.25 232.881 237.12 232.881 236.992 232.881C220.431 232.881 194.169 213.099 188.293 196.269C188.045 196.269 187.821 196.269 187.554 196.269C173.194 196.269 166.385 188.973 160.367 182.536C157.006 178.94 153.832 175.542 149.715 173.859L149.35 173.71L206.59 56.3591L206.706 56.3038C212.257 53.6319 218.342 52.251 224.504 52.2648C236.675 52.2648 246.695 57.4442 250.975 59.6563L251.379 59.8636C251.854 59.729 253.402 59.3466 255.606 59.3466C258.513 59.3466 262.906 60.0319 267.402 63.2726C290.477 56.833 312.907 53.568 334.071 53.568C361.442 53.568 386.283 58.9764 407.902 69.6436C430.15 80.6219 448.496 96.9466 462.428 118.164C467.504 125.892 472.213 139.571 476.369 151.649C478.104 156.692 479.74 161.452 481.25 165.31C482.98 169.734 486.153 173.374 488.952 176.588C492.502 180.66 495.307 183.877 493.11 186.686C491.736 188.446 489.971 189.337 487.865 189.337C479.788 189.337 468.631 176.209 463.569 161.574C466.655 189.982 452.603 206.888 441.186 220.618C437.276 225.331 433.574 229.774 431.226 234.035C426.825 242.015 429.941 251.563 432.44 259.235C433.559 262.665 434.616 265.906 434.847 268.525C435.312 273.813 433.696 277.562 431.985 281.531C430.843 284.178 429.664 286.916 428.915 290.392C428.296 293.262 428.976 296.413 429.694 299.751C430.884 305.271 432.113 310.974 427.068 315.369C421.242 320.458 412.562 323.03 401.269 323.03ZM373.627 317.254C375.864 318.628 388.169 322.289 401.269 322.289C412.378 322.289 420.894 319.778 426.578 314.825C431.298 310.715 430.166 305.47 428.969 299.918C428.265 296.65 427.537 293.272 428.188 290.247C428.953 286.701 430.148 283.929 431.304 281.248C433.049 277.199 434.557 273.708 434.108 268.6C433.884 266.065 432.839 262.863 431.733 259.473C429.186 251.664 426.016 241.949 430.572 233.688C432.953 229.37 436.674 224.893 440.611 220.155C452.575 205.763 467.463 187.842 462.134 156.76L462.86 156.609C466.743 172.459 479.358 188.607 487.856 188.607C489.722 188.607 491.29 187.812 492.517 186.24C494.338 183.91 491.708 180.895 488.384 177.085C485.546 173.827 482.326 170.135 480.55 165.59C479.037 161.719 477.396 156.951 475.66 151.903C471.518 139.87 466.824 126.233 461.8 118.581C434.193 76.5411 390.022 54.3193 334.061 54.3193C312.913 54.3193 290.49 57.5923 267.419 64.0455L267.245 64.0939L267.1 63.9876C262.716 60.7738 258.426 60.0992 255.597 60.0992C253.098 60.0992 251.463 60.6189 251.447 60.6243L251.3 60.6728L250.626 60.3254C246.394 58.1389 236.487 53.016 224.496 53.016C218.489 53.0024 212.556 54.3387 207.137 56.9259L150.354 173.339C154.445 175.127 157.585 178.489 160.905 182.044C166.815 188.372 173.513 195.54 187.552 195.54C187.881 195.526 188.208 195.54 188.545 195.529H188.814L188.901 195.787C194.519 212.441 220.587 232.153 236.987 232.153C237.135 232.153 237.282 232.153 237.429 232.153H237.505L237.575 232.18C253.31 238.392 280.25 247.614 280.52 247.707C285.472 249.608 305.915 254.813 328.081 254.813C349.4 254.813 365.927 250.203 377.202 241.111L377.931 240.524L377.796 241.451C375.715 256.447 381.437 262.945 386.481 268.68C389.797 272.449 392.929 276.007 392.885 281.393C392.805 290.934 387.479 296.625 382.33 302.127C378.038 306.713 373.97 311.061 373.623 317.254H373.627Z" fill="#413C3B"/>
<path d="M377.202 242.047L376.789 241.432C399.836 226.033 413.387 196.05 413.521 195.748C413.521 195.748 411.808 201.341 407.465 208.463C401.239 218.673 390.885 232.904 377.202 242.047Z" fill="#413C3B"/>
<path d="M462.191 156.99C461.644 154.347 461.201 150.797 460.69 146.693C459.422 136.501 457.841 123.816 453.604 116.856C453.604 116.856 457.046 122.464 458.018 126.206C459.686 132.629 460.618 140.116 461.425 146.602C461.935 150.693 462.376 154.226 462.915 156.834L462.191 156.99Z" fill="#413C3B"/>
<path d="M187.22 196.278H187.211V195.538H187.22C196.254 195.538 206.367 191.573 206.472 191.532C203.233 193.26 199.764 194.518 196.169 195.27C193.332 195.849 190.219 196.278 187.22 196.278Z" fill="#413C3B"/>
<path d="M262.042 70.7148C261.967 70.63 254.357 62.2057 250.379 60.1916L250.713 59.5332C252.009 60.1889 253.641 61.4612 255.276 62.9072C258.817 66.0388 262.042 70.7148 262.042 70.7148Z" fill="#413C3B"/>
<path d="M274.463 70.2948C274.402 70.2409 268.413 64.8245 266.895 63.8322L267.299 63.2129C268.866 64.2442 274.463 70.2948 274.463 70.2948Z" fill="#413C3B"/>
<path d="M56.8751 121.744C43.7435 138.762 35.4444 139.011 35.4444 139.011C18.9284 149.117 22.7254 171.986 59.298 171.986C66.7679 175.065 72.8503 181.971 82.5072 183.417C94.9241 185.277 110.038 183.889 124.845 170.936C138.611 169.765 145.444 176.329 164.291 172.238C187.765 167.141 207.139 146.24 209.659 104.553C212.251 95.3079 210.862 79.2511 210.862 74.3207C210.338 61.747 206.449 49.2043 193.738 46.2099C192.503 27.0148 174.756 13.1163 141.763 32.6857C132.504 32.3154 120.606 25.2645 118.054 23.0713C114.76 32.8082 56.8751 121.744 56.8751 121.744Z" fill="#A49791"/>
<path d="M91.8894 153.739C73.1029 145.082 55.7253 149.793 37.0116 149.343C37.1141 149.849 35.9599 150.254 36.0812 150.743C38.3734 155.748 48.5561 155.186 56.0597 155.377C64.2159 155.578 77.6846 163.648 83.744 165.573C96.3363 170.016 110.41 161.875 120.04 152.259C110.408 155.958 100.038 158.176 91.8894 153.739Z" fill="#C9C2BE"/>
<path d="M193.741 46.2099C192.506 27.0148 174.759 13.1163 141.766 32.6857C132.507 32.3154 120.609 25.2645 118.057 23.0713C117.861 23.6135 117.636 24.1448 117.383 24.6627C122.574 30.7496 132.006 33.853 139.556 34.8197C139.556 34.8197 137.987 37.0062 138.514 38.5895C155.967 25.5123 170.643 23.3473 181.971 30.4076C190.701 35.8483 192.822 48.8879 193.006 59.0246C194.158 55.3302 194.127 46.3015 193.741 46.2099Z" fill="#C9C2BE"/>
<path d="M210.868 74.3204C210.399 63.054 207.228 51.8185 197.421 47.4482C202.949 52.5052 205.279 63.5063 204.784 76.7155C204.442 85.8506 196.609 103.831 196.609 103.831C198.235 141.291 168.375 165.585 138.861 155.034C118.549 164.301 111.202 178.763 87.1988 176.913C76.3459 176.077 57.3342 164.507 46.8481 161.048C46.6027 167.183 25.7167 163.73 26.8682 148.959C23.1764 159.544 32.3169 171.991 59.2974 171.991C66.7672 175.07 72.8496 181.976 82.5065 183.422C94.9235 185.282 110.037 183.894 124.845 170.941C138.61 169.77 145.443 176.326 164.291 172.243C187.764 167.146 207.139 146.245 209.659 104.558C212.26 95.3075 210.868 79.2507 210.868 74.3204Z" fill="#827875"/>
<path d="M91.1784 184.453C88.2587 184.445 85.3437 184.22 82.4573 183.78C76.3695 182.869 71.7285 179.845 67.2412 176.914C64.5445 175.164 61.992 173.495 59.2293 172.346C41.2544 172.331 28.917 166.622 26.2176 157.067C24.338 150.411 27.8855 143.199 35.2516 138.686L35.3338 138.635H35.4322C35.5131 138.635 43.7543 138.137 56.5825 121.512C57.1434 120.648 114.462 32.5295 117.706 22.9461L117.882 22.4277L118.299 22.7845C120.815 24.9468 132.592 31.8927 141.671 32.306C152.276 26.0306 161.867 22.8491 170.177 22.8491C183.717 22.8491 193.077 31.89 194.091 45.9084C204.794 48.5621 210.564 58.1118 211.24 74.2992C211.24 75.313 211.299 76.8142 211.374 78.5537C211.644 85.5279 212.108 97.1915 210.04 104.61C207.769 142.008 191.129 166.786 164.383 172.593C160.145 173.513 156.234 173.961 152.426 173.961C147.514 173.961 143.489 173.217 139.596 172.498C135.863 171.808 132.335 171.158 128.197 171.158C127.142 171.158 126.071 171.201 125.011 171.293C114.98 180.032 103.597 184.453 91.1784 184.453ZM35.5603 139.372C28.5327 143.706 25.1457 150.567 26.9309 156.875C29.5373 166.104 41.6387 171.615 59.3021 171.615L59.4437 171.643C62.2981 172.82 64.895 174.511 67.6457 176.303C72.0669 179.182 76.6392 182.162 82.5665 183.051C85.4169 183.483 88.2954 183.704 91.1784 183.713C103.448 183.713 114.704 179.32 124.618 170.653L124.709 170.574L124.831 170.563C125.951 170.467 127.084 170.419 128.201 170.419C132.408 170.419 135.967 171.077 139.735 171.765C143.594 172.479 147.587 173.215 152.43 173.215C156.184 173.215 160.044 172.774 164.229 171.869C190.637 166.136 207.066 141.589 209.307 104.524L209.32 104.447C211.368 97.143 210.911 85.5225 210.638 78.5806C210.567 76.763 210.503 75.3265 210.503 74.314C209.837 58.3798 204.166 49.0387 193.66 46.5641L193.39 46.5008L193.371 46.2315C192.488 32.4784 183.384 23.591 170.18 23.591C161.98 23.591 152.485 26.7577 141.957 33.0008L141.863 33.0573H141.754C132.45 32.687 121.208 25.9633 118.226 23.6812C113.464 35.4323 59.5138 118.368 57.1852 121.946C44.7076 138.117 36.6067 139.29 35.5603 139.372Z" fill="#413C3B"/>
<path d="M59.8038 172.607C58.4365 171.994 57.2931 170.895 56.085 169.732C54.4212 168.133 52.7007 166.478 50.2871 166.06C50.2871 166.06 53.4679 165.758 56.6028 169.2C57.6882 170.392 58.8613 171.372 60.1085 171.931L59.8038 172.607Z" fill="#413C3B"/>
<path d="M124.172 172.007L123.688 171.447C125.753 169.669 127.785 168.081 129.651 166.695C134.64 163.002 138.86 161.458 138.86 161.458C138.79 161.498 131.703 165.524 124.172 172.007Z" fill="#413C3B"/>
<path d="M193.002 59.0217C193.011 58.941 193.961 50.8183 193.3 45.3346L194.036 45.2471C194.282 47.2909 194.306 49.6901 194.244 51.9102C194.151 54.3256 193.734 56.7176 193.002 59.0217Z" fill="#413C3B"/>
<path d="M138.723 36.5722C138.723 36.5722 138.879 33.7301 142.814 31.6445L143.161 32.2975C139.518 34.2296 138.729 36.5493 138.723 36.5722Z" fill="#413C3B"/>
<path d="M171.95 80.6538C180.371 80.6538 187.197 70.3328 187.197 57.6013C187.197 44.8698 180.371 34.5488 171.95 34.5488C163.529 34.5488 156.703 44.8698 156.703 57.6013C156.703 70.3328 163.529 80.6538 171.95 80.6538Z" fill="#827875"/>
<path d="M171.579 85.3236C180 85.3236 186.826 74.9279 186.826 62.1042C186.826 49.2805 180 38.8848 171.579 38.8848C163.158 38.8848 156.332 49.2805 156.332 62.1042C156.332 74.9279 163.158 85.3236 171.579 85.3236Z" fill="black"/>
<path d="M171.579 86.4331C180 86.4331 186.826 76.1121 186.826 63.3806C186.826 50.6491 180 40.3281 171.579 40.3281C163.158 40.3281 156.332 50.6491 156.332 63.3806C156.332 76.1121 163.158 86.4331 171.579 86.4331Z" fill="white"/>
<path d="M157.248 69.4672C158.371 80.6541 165.639 86.4314 171.581 86.4314C179.195 86.4314 185.778 78.7706 186.827 63.3789C182.784 78.2832 166.211 82.9241 157.248 69.4672Z" fill="#C9C9C9"/>
<path d="M171.581 86.8018C162.969 86.8018 155.963 76.3001 155.963 63.375C155.963 50.4499 162.974 39.9482 171.581 39.9482C180.187 39.9482 187.197 50.4499 187.197 63.375C187.197 76.3001 180.191 86.8018 171.581 86.8018ZM171.581 40.6982C163.377 40.6982 156.704 50.874 156.704 63.3804C156.704 75.8868 163.377 86.0626 171.581 86.0626C179.784 86.0626 186.456 75.8881 186.456 63.3804C186.456 50.8726 179.783 40.6982 171.581 40.6982Z" fill="black"/>
<path d="M172.356 52.8828C168.009 52.623 164.157 57.5749 163.75 63.9473C163.343 70.3196 166.536 75.693 170.88 75.9542C175.224 76.2153 179.077 71.2594 179.486 64.8897C179.896 58.5201 176.699 53.1427 172.356 52.8828Z" fill="#59281A"/>
<path d="M169.374 68.8223C167.019 68.168 165.26 66.687 163.727 64.8721C163.671 70.8284 166.754 75.7049 170.887 75.954C175.18 76.2125 178.988 71.3764 179.471 65.1104C176.971 68.3403 173.158 69.4147 169.374 68.8223Z" fill="#A63E20"/>
<path d="M171.207 76.3336C171.091 76.3336 170.974 76.3336 170.858 76.3228C169.171 76.2218 167.598 75.3979 166.309 73.9398C164.224 71.585 163.129 67.8407 163.379 63.9228C163.801 57.3525 167.799 52.2538 172.378 52.5123C174.064 52.6133 175.637 53.4373 176.927 54.8954C179.012 57.2516 180.105 60.9958 179.856 64.9137C179.444 71.317 175.646 76.3336 171.207 76.3336ZM172.028 53.2421C167.983 53.2421 164.503 57.9543 164.119 63.9699C163.88 67.6953 164.906 71.2403 166.863 73.451C168.02 74.757 169.417 75.4948 170.908 75.585C175.088 75.8395 178.728 71.033 179.123 64.8666C179.361 61.1412 178.335 57.5962 176.378 55.3855C175.223 54.0782 173.826 53.3404 172.34 53.2515C172.232 53.2448 172.13 53.2421 172.028 53.2421Z" fill="#160A06"/>
<path d="M173.056 58.9573C170.211 58.7863 167.678 62.2088 167.393 66.5993C167.109 70.9898 169.191 74.6882 172.036 74.8579C174.881 75.0275 177.413 71.6064 177.699 67.2173C177.984 62.8281 175.9 59.1283 173.056 58.9573Z" fill="black"/>
<path d="M172.581 59.0345C170.95 58.7652 169.415 59.977 169.157 61.7367C168.898 63.4964 170.009 65.1484 171.642 65.4176C173.274 65.6869 174.805 64.4752 175.066 62.7155C175.328 60.9558 174.213 59.3038 172.581 59.0345Z" fill="white"/>
<path d="M169.73 69.8747C168.978 69.7508 168.274 70.3069 168.152 71.1174C168.031 71.9279 168.546 72.6872 169.297 72.8125C170.048 72.9377 170.753 72.3803 170.873 71.5698C170.993 70.7593 170.48 69.9999 169.73 69.8747Z" fill="white"/>
<path d="M180.969 40.2291C179.273 37.1324 176.759 35.331 173.688 35.0065C169.984 34.6134 165.757 36.47 162.926 39.7376C162.926 39.7376 166.729 33.2751 173.768 34.2714C179.9 35.1358 180.969 40.2291 180.969 40.2291Z" fill="#413C3B"/>
<path d="M62.3831 90.9928C61.2343 118.716 53.3869 131.518 46.4079 138.291C39.1416 145.343 34.03 143.415 35.8813 149.627C37.4306 154.827 53.24 150.368 64.852 154.232C75.3152 157.715 79.3656 164.733 98.1859 161.999C139.85 155.958 155.839 99.2581 141.399 79.1973C113.436 86.0314 62.3831 90.9928 62.3831 90.9928Z" fill="#A49791"/>
<path d="M141.701 78.9748L141.554 78.7715L141.311 78.8307C113.696 85.5881 62.863 90.5751 62.3492 90.6249L62.0283 90.6559L62.0149 90.9776C61.1303 112.315 56.2844 127.348 47.2383 136.889L47.663 137.515C56.8642 127.888 61.8099 112.767 62.7403 91.3237C67.1143 90.8888 114.679 86.062 141.243 79.6035C148.161 89.4778 147.849 108.402 140.463 125.768C138.015 131.526 135.001 136.703 131.52 141.227L132.043 141.765C135.588 137.171 138.65 131.913 141.145 126.06C148.68 108.352 148.909 88.9891 141.701 78.9748Z" fill="#413C3B"/>
<path d="M36.2362 149.522C35.2021 146.051 36.3953 145.4 39.2768 143.826C41.1645 142.793 43.7587 141.378 46.6657 138.556C47.0082 138.223 47.3305 137.868 47.6622 137.521L47.2374 136.895C46.8774 137.274 46.5228 137.662 46.1493 138.025C43.3178 140.777 40.7748 142.164 38.9208 143.177C36.0529 144.744 34.3216 145.689 35.527 149.732C35.6065 149.988 35.7213 150.231 35.8681 150.455L36.5639 150.16C36.4197 149.967 36.309 149.752 36.2362 149.522Z" fill="#413C3B"/>
<path d="M98.1891 161.999C139.853 155.958 155.842 99.2581 141.402 79.1973C120.968 84.1963 88.2086 88.191 72.0473 89.9803C73.312 96.7485 75.5368 116.175 62.834 129.265C63.7778 133.665 64.6313 145.399 65.172 154.35C75.402 157.86 79.5589 164.698 98.1891 161.999Z" fill="#860000"/>
<path d="M116.68 104.124C116.067 104.005 110.984 105.592 110.284 105.544C89.3992 107.244 70.4993 122.216 64.3711 142.737C64.6785 146.613 64.9495 150.71 65.1693 154.347C75.3965 157.864 79.5589 164.702 98.1864 162.002C114.213 159.679 126.434 149.856 134.592 137.509C134.595 120.902 131.65 106.99 116.68 104.124Z" fill="#490000"/>
<path d="M90.3405 162.985C82.005 162.985 77.3842 160.592 72.4911 158.06C70.1989 156.876 67.8379 155.651 65.0509 154.694L64.8163 154.614L64.8014 154.366C64.2621 145.357 63.4099 133.7 62.4715 129.338L62.4297 129.144L62.5645 129.009C74.9693 116.219 73.0722 97.5041 71.678 90.0506L71.6052 89.6588L72.0016 89.6144C89.2362 87.7066 121.158 83.7698 141.307 78.8434L141.55 78.7842L141.697 78.9875C148.905 89.0018 148.676 108.365 141.141 126.075C132.472 146.448 116.834 159.681 98.2351 162.376C95.6218 162.769 92.9833 162.972 90.3405 162.985ZM65.5309 154.074C68.268 155.038 70.5899 156.241 72.8376 157.404C77.6472 159.893 82.1898 162.251 90.3459 162.251C92.9547 162.235 95.5589 162.03 98.138 161.638C116.476 158.979 131.905 145.91 140.468 125.779C147.857 108.411 148.166 89.4891 141.247 79.6149C121.196 84.4901 89.7567 88.3851 72.4816 90.3037C73.8799 98.0884 75.5249 116.57 63.236 129.379C64.1583 133.88 64.9848 145.203 65.5242 154.074H65.5309Z" fill="#413C3B"/>
<path d="M98.19 161.999C110.97 160.146 121.328 153.517 129.14 144.656C121.016 127.747 100.64 128.661 92.264 130.44C68.1744 113.62 50.8022 138.431 46.8516 152.225C52.2962 152.293 58.8829 152.244 64.8561 154.231C75.3166 157.715 79.367 164.726 98.19 161.999Z" fill="#FCB1B1"/>
<path d="M92.2574 130.44C85.0626 125.417 78.4691 124.112 72.6523 125.108C83.2652 125.512 87.4424 129.862 82.8041 137.375C93.4345 126.438 108.141 134.756 110.405 143.675C113.182 154.615 88.5494 162.575 72.8573 157.832C78.9073 160.965 84.8253 163.935 98.1834 162.005C110.963 160.153 121.321 153.523 129.133 144.663C121.014 127.747 100.637 128.661 92.2574 130.44Z" fill="#F27C7C"/>
<path d="M90.3432 162.984C82.009 162.984 77.3882 160.592 72.4977 158.059C70.1233 156.83 67.668 155.557 64.7393 154.583C59.172 152.73 53.1435 152.664 47.8175 152.606L46.3613 152.59L46.4962 152.124C49.5596 141.415 60.3653 124.427 76.3068 124.427C81.5654 124.427 86.9588 126.312 92.3401 130.046C95.3436 129.445 98.3998 129.146 101.463 129.152C109.17 129.152 123.055 131.146 129.47 144.501L129.576 144.722L129.414 144.906C120.862 154.614 110.08 160.659 98.2391 162.369C95.6255 162.764 92.9866 162.97 90.3432 162.984ZM47.3416 151.862H47.8243C53.2002 151.92 59.2934 151.986 64.9699 153.881C67.9552 154.875 70.4361 156.159 72.8362 157.402C77.6444 159.891 82.187 162.249 90.3405 162.249C92.9483 162.233 95.5516 162.028 98.1299 161.636C109.726 159.956 120.283 154.067 128.693 144.599C122.407 131.809 108.95 129.894 101.456 129.894C98.3912 129.886 95.3334 130.192 92.3306 130.806L92.1729 130.84L92.038 130.748C86.7377 127.045 81.4414 125.169 76.2974 125.169C61.0004 125.165 50.5223 141.34 47.3416 151.862Z" fill="#793E3E"/>
<path d="M82.8066 137.375C83.7193 135.426 85.1443 133.76 86.9299 132.556C88.8528 131.25 91.0144 130.335 93.2914 129.863L93.437 130.588C86.822 131.912 82.8457 137.321 82.8066 137.375Z" fill="#793E3E"/>
<path d="M35.9652 149.918C34.9364 147.69 34.482 127.752 40.2233 127.76C45.2446 127.76 47.1929 147.64 53.7392 152.385C49.3907 151.982 37.6547 153.578 35.9652 149.918Z" fill="white"/>
<path d="M40.7289 127.833C40.1383 135.803 40.7667 144.333 43.6697 152.365C47.4086 152.49 51.5292 152.179 53.7405 152.384C47.4167 147.802 45.3834 129.111 40.7289 127.833Z" fill="#BCBCBB"/>
<path d="M55.0499 152.877L53.7016 152.753C53.1852 152.705 52.5352 152.683 51.6561 152.683C50.8471 152.683 49.9491 152.702 48.9999 152.723C47.936 152.744 46.8102 152.767 45.6816 152.767C41.3237 152.767 36.7218 152.448 35.6256 150.074C34.6548 147.971 34.3258 134.039 37.4297 129.197C38.1969 127.999 39.1353 127.391 40.2181 127.391C43.0105 127.391 44.7634 132.438 46.7913 138.277C48.6682 143.678 50.7945 149.798 53.9537 152.087L55.0499 152.877ZM40.2181 128.13C39.3902 128.13 38.6823 128.609 38.0499 129.595C35.0013 134.35 35.5231 148.09 36.2971 149.763C37.2342 151.794 42.095 152.028 45.6802 152.028C46.8034 152.028 47.9239 152.005 48.9837 151.982C50.3738 151.952 51.702 151.929 52.6579 151.955C49.7887 149.163 47.8335 143.535 46.0901 138.518C44.2388 133.179 42.486 128.132 40.2235 128.13H40.2181Z" fill="#5E5E5E"/>
<path d="M79.9454 141.304C75.7076 140.92 72.8787 149.921 74.7098 158.776C79.2281 161.035 84.1024 162.936 92.3934 162.562C84.2844 155.959 84.8818 141.751 79.9454 141.304Z" fill="white"/>
<path d="M92.3917 162.562C84.5565 156.183 84.8477 142.707 80.4251 141.398C78.4929 147.021 79.2022 154.94 81.5577 161.5C84.5093 162.307 87.9611 162.763 92.3917 162.562Z" fill="#BCBCBB"/>
<path d="M90.3467 162.979C82.9119 162.979 78.2925 160.979 74.5468 159.106L74.385 159.026L74.3499 158.851C73.0622 152.624 74.0128 145.791 76.6084 142.612C77.5913 141.41 78.7657 140.821 79.9793 140.936C82.5586 141.169 83.6805 144.541 85.103 148.812C86.5929 153.292 88.4469 158.867 92.6322 162.276L93.3845 162.888L92.4151 162.931C91.7005 162.963 91.011 162.979 90.3467 162.979ZM75.0375 158.525C78.6781 160.337 83.1789 162.238 90.3454 162.238C90.7049 162.238 91.0708 162.234 91.4429 162.225C87.5934 158.662 85.8297 153.356 84.3965 149.045C83.0616 145.032 82.0072 141.862 79.9118 141.672C78.9302 141.583 78.0134 142.059 77.1801 143.079C75.0847 145.651 73.6865 151.765 75.0375 158.525Z" fill="#5E5E5E"/>
<path d="M131.519 141.232C122.832 152.526 111.225 159.734 98.1325 161.633C95.5542 162.024 92.951 162.229 90.3431 162.245C82.1896 162.245 77.647 159.892 72.8388 157.398C70.4387 156.156 67.9578 154.871 64.9725 153.877C59.5441 152.071 53.343 152.064 47.8714 152.059C42.3634 152.059 37.9138 152.041 36.5668 150.156L35.8711 150.451C37.3394 152.779 42.0411 152.792 47.8714 152.798C53.285 152.798 59.4227 152.81 64.7393 154.579C67.6679 155.554 70.1232 156.826 72.4977 158.055C77.3881 160.588 82.0089 162.98 90.3431 162.98C92.9866 162.964 95.6255 162.757 98.239 162.36C111.495 160.438 123.246 153.161 132.042 141.76L131.519 141.232Z" fill="#413C3B"/>
<path d="M138.313 50.7982C124.802 19.572 88.0043 -2.9487 57.7581 4.51017C51.8321 -1.89988 43.3766 -0.775671 35.3566 8.76333C10.4189 17.5147 -6.98157 52.4314 3.50589 67.9334C9.77842 77.2005 35.4186 75.2684 38.7518 75.2684C47.4554 84.8828 79.5528 110.462 105.972 106.518C132.392 102.573 151.645 81.6125 138.313 50.7982Z" fill="#A49791"/>
<path d="M92.7712 32.6045C92.7712 32.6045 87.8902 33.7341 84.0568 39.3363C80.2235 44.9386 80.7992 49.9376 84.4923 51.0497C84.0514 48.5226 85.0384 45.8527 89.9154 46.5098C92.8777 41.1337 92.7712 32.6045 92.7712 32.6045Z" fill="#827875"/>
<path d="M138.308 50.6825C136.265 45.9954 133.747 41.5292 130.794 37.3535C145.087 68.0816 125.568 89.1967 100.044 92.16C77.0205 94.8285 40.5261 79.1891 36.7049 49.5691C35.4995 69.226 6.89017 72.0763 0.392467 55.6856C0.384377 60.4181 0.291341 63.0799 3.49367 67.8137C9.77024 77.0848 35.4105 75.15 38.7436 75.15C47.4472 84.7658 79.5447 110.344 105.964 106.399C132.384 102.454 151.642 81.5009 138.308 50.6825Z" fill="#827875"/>
<path d="M52.8159 7.29329C52.2604 7.75509 47.5857 10.5246 44.0517 16.738C71.5068 -3.80211 106.219 14.6323 129.75 35.9224C112.716 12.7999 82.9623 -1.82161 57.7482 4.39591C51.8222 -2.01414 43.3654 -0.889924 35.3413 8.64908C19.7557 14.1194 7.12171 29.8166 2.39844 44.6038C5.87314 31.8847 44.6679 -1.02995 52.8159 7.29329Z" fill="#C9C2BE"/>
<path d="M100.292 107.182C75.6618 107.182 47.7064 85.5346 38.5835 75.5244C38.2491 75.5244 37.7623 75.5459 37.1475 75.5661C35.7277 75.6159 33.5824 75.69 31.0691 75.69C16.0148 75.69 6.63566 73.1117 3.19332 68.0251C-0.683186 62.299 -1.0378 53.7658 2.19419 43.9979C6.67746 30.4508 18.5955 14.1799 35.1303 8.33265C39.739 2.87987 44.6295 0 49.2745 0C52.431 0 55.4014 1.37598 57.8784 3.98389C61.8023 3.04679 65.8239 2.57856 69.8584 2.58906C97.2502 2.58906 126.824 23.2019 138.649 50.5359C144.414 63.8649 144.475 76.2743 138.824 86.4273C132.865 97.1309 120.908 104.545 106.018 106.768C104.122 107.047 102.208 107.185 100.292 107.182ZM38.7439 74.7826H38.9084L39.0176 74.9051C47.9612 84.7847 75.8047 106.441 100.289 106.442C102.169 106.446 104.047 106.311 105.907 106.038C120.567 103.849 132.334 96.5708 138.174 86.0691C143.702 76.1235 143.637 63.9389 137.966 50.8307C126.25 23.7512 96.9765 3.32956 69.8557 3.32956C65.8077 3.31861 61.7733 3.79737 57.8406 4.75537L57.6289 4.80653L57.4806 4.64631C55.0846 2.05456 52.3232 0.741849 49.2718 0.741849C44.8304 0.741849 40.1125 3.55844 35.6292 8.8887L35.5645 8.96545L35.4688 8.99911C19.1227 14.736 7.32871 30.8291 2.89264 44.2335C-0.266547 53.7779 0.0611028 62.0809 3.80143 67.6145C7.05095 72.4156 16.4759 74.9535 31.0637 74.9535C33.5649 74.9535 35.702 74.8795 37.1165 74.8297C37.854 74.8027 38.4095 74.7826 38.7439 74.7826Z" fill="#413C3B"/>
<path d="M44.0547 16.737C44.0547 16.737 45.8399 12.644 49.711 9.18788C52.138 7.02696 55.1408 4.93605 58.5333 3.83203L58.7625 4.53619C50.1991 7.32182 44.1208 16.6427 44.0547 16.737Z" fill="#413C3B"/>
<path d="M38.9128 75.8749C37.0103 72.7904 36.2862 69.4474 36.1311 66.4503C35.8615 61.3436 37.9811 57.4297 37.9811 57.4297C37.9474 57.5293 34.5832 67.4426 39.5438 75.4858L38.9128 75.8749Z" fill="#413C3B"/>
<path d="M105.058 24.1405C105.058 24.1405 94.6217 19.3111 86.6125 24.1405C82.403 26.5909 79.4137 29.5085 77.793 35.0286C83.1864 26.9841 94.0824 22.4334 105.058 24.1405Z" fill="#C9C2BE"/>
<path d="M77.793 35.0283C77.793 35.0283 78.5872 30.4063 81.3796 27.6099C83.3657 25.6199 85.4813 24.0662 88.0971 23.0403C90.7938 21.9847 93.6037 21.5943 96.2101 21.6078C100.093 21.6266 105.058 24.1349 105.058 24.1349C102.043 22.6297 94.8442 21.1877 88.3681 23.731C83.4372 25.6684 79.8789 29.4705 77.793 35.0283Z" fill="#413C3B"/>
<path d="M41.6735 6.02392C38.7193 3.4739 25.109 14.9678 29.7109 19.6061C34.4032 24.3385 45.6498 9.4585 41.6735 6.02392Z" fill="#726967"/>
<path d="M31.1509 17.6472C32.9037 19.0542 39.0212 16.7371 42.2249 9.95812C42.6941 8.28324 42.6105 6.83455 41.6734 6.02404C39.5861 4.2226 32.1864 9.42765 29.6421 14.2759C29.4398 15.5698 30.0034 16.729 31.1509 17.6472Z" fill="#564F4D"/>
<path d="M32.0701 20.9264C31.5841 20.9281 31.1029 20.8302 30.6562 20.639C30.2096 20.4477 29.8069 20.167 29.4732 19.8143C28.2947 18.6295 28.0803 16.9654 28.8907 14.9673C30.7204 10.4678 37.3853 5.29102 40.6038 5.29102C41.1431 5.29102 41.5908 5.43373 41.9157 5.71512C43.0672 6.71413 43.1293 8.69463 42.1207 11.2352C40.2748 15.8977 35.5691 20.9264 32.0701 20.9264ZM40.5741 6.07191C37.6428 6.07191 31.2597 11.0615 29.5325 15.2487C28.8098 16.999 28.9581 18.3925 29.9491 19.3955C30.2185 19.6837 30.5443 19.9133 30.9065 20.0701C31.2686 20.227 31.6592 20.3076 32.0539 20.307C35.2522 20.307 39.7503 15.382 41.4614 10.9996C41.9616 9.72191 42.6412 7.36442 41.4303 6.32502C41.2348 6.15673 40.9463 6.07191 40.5741 6.07191Z" fill="#413C3B"/>
<path d="M106.031 33.3578C103.334 26.832 80.7671 33.518 84.9335 42.7824C89.3265 52.5543 108.319 38.8833 106.031 33.3578Z" fill="#726967"/>
<path d="M89.6685 43.5332C95.5729 44.6036 106.829 36.5725 105.249 32.2399C101.046 28.2721 85.5331 32.7434 84.4922 39.7661C85.4347 41.9216 87.2684 43.097 89.6685 43.5332Z" fill="#564F4D"/>
<path d="M90.4277 46.5807C87.6851 46.5807 85.668 45.3192 84.596 42.9361C83.7331 41.0162 83.9084 39.0316 85.1017 37.1885C87.8267 32.9838 95.0458 30.3799 100.172 30.3799C103.408 30.3799 105.617 31.3883 106.375 33.2167C106.878 34.4284 106.509 36.0252 105.296 37.8226C102.528 41.9654 95.7361 46.5807 90.4277 46.5807ZM100.171 31.1244C95.2224 31.1244 88.2298 33.7202 85.7219 37.587C84.6567 39.2296 84.5084 40.926 85.2702 42.6291C86.2275 44.7577 87.9669 45.8362 90.4263 45.8375C95.3559 45.8375 102.022 41.3945 104.685 37.4079C105.424 36.3039 106.198 34.73 105.687 33.4954C104.831 31.4287 101.863 31.1244 100.171 31.1244Z" fill="#413C3B"/>
<path d="M81.0155 47.8555C80.5098 44.9285 82.0092 41.0321 85.5567 36.5527L86.1379 37.0118C81.8312 42.4498 81.3701 45.8332 81.7409 47.7128C81.8591 48.3416 82.1164 48.9362 82.4941 49.453C82.8717 49.9699 83.3602 50.396 83.9239 50.7003C83.9239 50.7003 81.358 49.8387 81.0155 47.8555Z" fill="#413C3B"/>
<path d="M249.474 81.2541C249.09 68.3115 238.875 62.4454 226.621 63.9008C216.144 65.1462 204.938 77.1248 195.586 83.411L195.771 103.256C224.48 119.764 250.22 106.217 249.474 81.2541Z" fill="#A49791"/>
<path d="M245.959 70.4879C241.208 64.6743 233.102 63.1327 226.627 63.9014C218.867 64.8237 210.708 71.6323 203.198 77.6559C202.297 78.3789 196.472 82.7236 195.592 83.4116C204.48 80.3311 217.79 68.2933 227.443 66.6467C233.546 65.6059 239.362 66.7086 245.959 70.4879Z" fill="#C9C2BE"/>
<path d="M241.701 96.4231C230.483 111.09 209.388 107.517 196.609 103.838C205.868 109.552 216.605 111.48 224.973 110.338C239.744 108.318 249.941 96.8135 249.48 81.2563C249.345 76.8402 248.071 73.2481 245.959 70.4854C249.494 77.4205 247.421 88.9413 241.701 96.4231Z" fill="#827875"/>
<path d="M220.134 111.109C214.68 111.109 208.898 109.942 203.089 107.629C200.527 106.608 195.776 103.257 195.776 103.257C210.23 111.569 225.34 112.663 236.197 106.181C244.721 101.092 249.428 92.0108 249.108 81.2654C248.949 75.88 247.014 71.445 243.514 68.4332C239.454 64.9394 233.472 63.4584 226.669 64.2689C219.478 65.1238 212.003 71.27 204.775 77.194C201.625 79.7831 195.385 83.53 195.385 83.53C198.206 81.633 201.168 79.2001 204.304 76.6231C211.615 70.6184 219.175 64.4076 226.582 63.5271C233.593 62.695 239.779 64.2352 243.997 67.8664C247.659 71.0182 249.683 75.6416 249.849 81.2371C250.176 92.2572 245.338 101.578 236.576 106.81C231.769 109.687 226.147 111.109 220.134 111.109Z" fill="#413C3B"/>
<path d="M240.59 79.9965C235.157 75.3745 229.701 78.6744 224.171 84.0033C218.171 89.7927 211.615 98.2277 199.758 99.3815C209.692 103.446 221.38 103.771 230.035 100.799C239.691 97.4778 246.424 84.9525 240.59 79.9965Z" fill="#FCB1B1"/>
<path d="M239.14 78.9432C234.186 75.9745 229.209 79.1424 224.173 83.9974C218.173 89.7868 211.617 98.2218 199.76 99.3756C209.694 103.44 221.382 103.765 230.037 100.793C234.607 99.2248 238.519 95.5937 240.756 91.6758C233.988 103.578 218.805 102.785 210.579 102.276C221.261 102.347 228.647 76.3339 239.14 78.9432Z" fill="#F27C7C"/>
<path d="M217.324 103.133C211.202 103.133 205.079 101.952 199.618 99.7184L198.236 99.153L199.72 99.0075C209.759 98.0301 215.892 91.8153 221.303 86.3329C222.191 85.4308 223.055 84.5543 223.91 83.7317C226.959 80.7926 230.992 77.4199 235.151 77.4199C237.134 77.4199 239.043 78.19 240.827 79.7087C242.768 81.3594 243.517 83.9552 242.934 87.0195C241.808 92.957 236.312 99.0278 230.152 101.143C226.364 102.445 221.927 103.133 217.324 103.133ZM201.258 99.5623C206.405 101.44 211.844 102.397 217.324 102.39C221.845 102.39 226.2 101.716 229.916 100.44C235.849 98.4044 241.13 92.5746 242.211 86.8781C242.585 84.903 242.567 82.1524 240.351 80.2675C238.681 78.8471 236.98 78.1564 235.156 78.1564C232.116 78.1564 228.809 80.0413 224.429 84.2595C223.58 85.0781 222.72 85.9505 221.834 86.8472C216.6 92.1559 210.702 98.1324 201.258 99.5623Z" fill="#413C3B"/>
<path d="M370.495 317.244C369.772 313.909 375.993 304.496 382.563 306.39C388.838 308.199 389.799 321.086 386.837 322.466C383.875 323.846 371.23 320.665 370.495 317.244Z" fill="#D0D0CA"/>
<path d="M381.613 306.2C375.411 305.399 369.807 314.071 370.495 317.241C370.613 317.787 371.034 318.327 371.675 318.844C371.663 313.175 377.079 307.609 381.613 306.2Z" fill="#D4D4CA"/>
<path d="M383.249 306.646C385.363 308.8 385.689 314.573 383.504 317.521C381.268 320.539 375.33 320.299 374.002 320.242C378.174 322.205 384.797 323.417 386.837 322.465C389.687 321.131 388.903 309.162 383.249 306.646Z" fill="#A2A19A"/>
<path d="M384.691 323.166C380.2 323.166 370.825 320.521 370.129 317.322C369.771 315.669 370.926 312.774 372.938 310.284C375.257 307.416 378.122 305.771 380.799 305.771C381.429 305.773 382.056 305.863 382.661 306.04C386.403 307.117 388.421 311.997 388.761 316.353C388.956 318.857 388.61 322.051 386.989 322.807C386.474 323.043 385.7 323.166 384.691 323.166ZM380.803 306.51C378.352 306.51 375.695 308.055 373.522 310.748C371.669 313.037 370.555 315.739 370.859 317.166C371.424 319.775 380.144 322.426 384.694 322.426C385.58 322.426 386.268 322.324 386.683 322.132C387.702 321.656 388.255 319.304 388.031 316.404C387.71 312.303 385.866 307.725 382.465 306.745C381.925 306.589 381.365 306.51 380.803 306.51Z" fill="#4A4943"/>
<path d="M392.348 323.608C391.329 319.941 394.286 308.86 401.354 309.177C407.748 309.463 411.926 321.276 410.216 324.873C408.79 327.874 393.222 326.752 392.348 323.608Z" fill="#D0D0CA"/>
<path d="M401.677 309.209C401.569 309.197 401.463 309.182 401.354 309.177C394.286 308.86 391.329 319.941 392.348 323.608C392.51 324.191 393.184 324.703 394.172 325.134C392.534 319.467 397.363 309.916 401.677 309.209Z" fill="#D4D4CA"/>
<path d="M402.417 309.338C404.879 310.568 407.088 317.971 405.249 321.724C403.651 324.987 397.334 325.523 395.945 325.733C400.876 327.052 409.196 327.024 410.22 324.868C411.829 321.481 408.202 310.781 402.417 309.338Z" fill="#A2A19A"/>
<path d="M403.416 327C399.051 327 392.621 325.978 391.99 323.708C391.262 321.091 392.412 315.587 395.037 312.138C396.775 309.856 398.937 308.688 401.375 308.808C403.889 308.92 406.338 310.747 408.267 313.95C410.595 317.817 411.622 322.788 410.56 325.032C409.706 326.808 405.279 327 403.416 327ZM401.058 309.541C398.993 309.541 397.166 310.564 395.628 312.586C392.962 316.087 392.122 321.394 392.703 323.51C393.108 324.975 398.116 326.26 403.416 326.26C406.896 326.26 409.435 325.654 409.881 324.714C410.837 322.703 409.805 317.949 407.627 314.331C406.586 312.602 404.391 309.683 401.336 309.546C401.242 309.542 401.149 309.541 401.058 309.541Z" fill="#4A4943"/>
<path d="M312.868 282.684C308.239 272.884 289.355 261.412 277.258 255.808C280.776 249.522 296.944 217.471 276.825 198.364L236.826 199.596C236.826 199.596 227.999 246.933 237.813 262.471C247.628 278.01 272.628 289.345 271.522 308.082C279.855 316.742 299.546 316.095 305.348 301.056C307.256 295.719 317.498 292.485 312.868 282.684Z" fill="#A49791"/>
<path d="M241.609 260.338C231.607 242.506 237.35 216.886 236.467 201.654C234.912 210.916 229.223 248.871 237.815 262.466C247.63 277.997 272.629 289.339 271.524 308.076C273.312 309.934 275.63 311.351 278.214 312.301C275.466 285.703 249.757 272.912 241.609 260.338Z" fill="#C9C2BE"/>
<path d="M312.867 282.684C308.238 272.884 289.354 261.412 277.257 255.808C280.261 250.439 292.493 226.275 283.459 207.433C282.572 205.58 279.414 201.129 276.564 198.632C285.679 218.897 278.201 246.895 261.758 256.025C268.365 261.276 287.615 269.316 293.547 277.443C301.51 288.348 297.918 295.484 294.674 311.997C299.258 310.095 303.222 306.532 305.336 301.05C307.255 295.718 317.497 292.484 312.867 282.684Z" fill="#827875"/>
<path d="M285.994 314.066C280.255 314.066 274.782 312.005 271.25 308.333L271.138 308.216L271.147 308.056C271.84 296.357 261.978 287.376 252.432 278.69C246.871 273.628 241.122 268.396 237.5 262.668C230.624 251.783 232.727 225.938 234.707 210.887C235.203 207.083 236.035 203.33 237.19 199.671C237.101 200.142 228.501 247.041 238.127 262.277C241.695 267.923 247.407 273.123 252.931 278.152C262.558 286.915 272.51 295.975 271.895 307.944C276.172 312.289 283.646 314.272 290.567 312.878C297.432 311.498 302.556 307.253 304.995 300.925C305.646 299.112 307.187 297.568 308.819 295.933C312.119 292.628 315.533 289.201 312.531 282.85C307.615 272.444 287.205 260.836 277.099 256.152L276.736 255.985L276.931 255.636C280.389 249.459 296.617 217.68 276.567 198.641C276.567 198.641 282.81 203.858 285.197 210.639C291.558 228.67 280.866 250.021 277.766 255.65C288.073 260.478 308.247 272.061 313.194 282.535C316.421 289.363 312.655 293.131 309.338 296.455C307.767 298.029 306.282 299.517 305.684 301.184C303.145 307.764 297.827 312.172 290.705 313.604C289.154 313.913 287.576 314.068 285.994 314.066Z" fill="#413C3B"/>
<path d="M277.689 256.419C274.122 254.783 270.502 254.76 270.467 254.76C270.467 254.76 274.279 254.04 277.999 255.747L277.689 256.419Z" fill="#413C3B"/>
<path d="M271.887 316.389C270.164 314.968 268.832 306.403 271.527 304.741C276.706 301.547 286.763 310.73 285.59 314.166C284.417 317.602 274.804 318.792 271.887 316.389Z" fill="#D0D0CA"/>
<path d="M273.433 304.111C272.758 304.175 272.107 304.39 271.528 304.741C268.831 306.403 270.164 314.974 271.888 316.389C272.341 316.762 273.406 317.164 274.126 317.369C271.471 314.462 270.168 305.917 273.433 304.111Z" fill="#D4D4CA"/>
<path d="M274.125 304.083C277.689 305.858 281.324 309.638 280.035 313.5C278.994 315.577 276.859 316.56 274.655 317.473C278.657 318.155 284.677 316.845 285.59 314.17C286.588 311.244 279.464 304.166 274.125 304.083Z" fill="#A2A19A"/>
<path d="M276.917 318.022C274.576 318.022 272.706 317.543 271.651 316.676C270.401 315.646 269.431 311.618 269.653 308.384C269.788 306.39 270.37 305.018 271.332 304.428C272.145 303.939 273.08 303.69 274.028 303.709C277.766 303.709 282.388 307.028 284.68 310.238C285.836 311.853 286.284 313.288 285.942 314.29C285.115 316.714 280.674 318.022 276.917 318.022ZM274.026 304.447C273.215 304.429 272.417 304.641 271.721 305.057C270.981 305.512 270.508 306.711 270.391 308.433C270.176 311.561 271.181 315.328 272.123 316.108C273.032 316.856 274.779 317.286 276.917 317.286C280.467 317.286 284.55 316.074 285.24 314.054C285.499 313.295 285.074 312.062 284.076 310.671C281.932 307.675 277.479 304.447 274.026 304.447Z" fill="#4A4943"/>
<path d="M290.158 313.808C287.211 311.788 285.684 302.344 290.832 298.707C295.797 295.206 305.636 296.491 306.204 300.125C307.071 305.669 293.25 315.926 290.158 313.808Z" fill="#D0D0CA"/>
<path d="M291.781 298.138C291.455 298.308 291.14 298.498 290.837 298.707C285.685 302.342 287.212 311.79 290.163 313.808C290.599 314.107 291.249 314.155 292.039 314.01C288.453 309.348 289.354 303.271 291.781 298.138Z" fill="#D4D4CA"/>
<path d="M306.207 300.128C305.739 297.121 298.925 295.724 293.773 297.314C296.567 297.583 299.748 298.208 300.529 301.699C301.347 305.366 297.562 310.39 295.683 312.548C300.328 309.537 306.735 303.517 306.207 300.128Z" fill="#A2A19A"/>
<path d="M291.252 314.463C290.792 314.481 290.337 314.359 289.947 314.114C288.31 312.992 287.103 309.785 287.08 306.489C287.055 302.958 288.347 300.012 290.621 298.411C292.54 297.058 295.37 296.281 298.388 296.281C302.163 296.281 306.183 297.585 306.572 300.074C306.908 302.228 305.224 304.735 303.749 306.453C300.151 310.642 294.196 314.463 291.252 314.463ZM298.388 297.016C295.52 297.016 292.845 297.742 291.049 299.009C288.975 300.474 287.798 303.198 287.821 306.484C287.842 309.507 288.937 312.525 290.366 313.504C290.633 313.664 290.942 313.74 291.252 313.723C293.968 313.723 299.767 309.954 303.187 305.966C305.127 303.705 306.069 301.651 305.84 300.176C305.565 298.378 302.355 297.016 298.388 297.016Z" fill="#4A4943"/>
</g>
<defs>
<clipPath id="clip0_424_1569">
<rect width="496" height="327" fill="white"/>
</clipPath>
</defs>
</svg>
