<svg width="307" height="433" viewBox="0 0 307 433" fill="none" xmlns="http://www.w3.org/2000/svg">
<g clip-path="url(#clip0_501_609)">
<path d="M304.3 414.302C302.704 419.687 295.351 414.198 286.999 414.198C278.646 414.198 268.206 415.738 264.924 417.982C263.97 418.64 260.494 420.136 256.005 421.826C246.161 425.551 231.469 430.278 227.949 429.321C227.591 429.231 227.353 429.066 227.233 428.842C224.071 422.589 240.732 416.681 249.711 412.103C249.755 412.089 249.8 412.059 249.845 412.029C249.785 412.059 249.711 412.089 249.636 412.118C249.069 412.373 248.324 412.627 247.444 412.896C237.778 415.798 211.617 419.119 209.812 416.352C209.768 416.292 209.753 416.232 209.738 416.172C208.261 410.847 220.462 406.988 228.009 405.492C229.098 405.282 230.082 405.118 230.917 404.998C229.113 405.073 224.191 405.013 221.566 404.056C220.447 403.652 219.746 403.069 219.88 402.261C221.103 397.13 241.865 396.337 256.945 396.771C260.643 396.876 264.014 397.055 266.654 397.28C268.936 397.459 270.681 397.669 271.651 397.863C271.875 386.644 259.271 320.603 257.929 315.966C250.471 314.62 250.919 307.589 250.501 305.196C247.712 294.964 233.796 285.017 227.979 281.218C226.443 280.216 225.473 279.647 225.414 279.617L227.86 280.29L228.218 280.395L239.374 283.447L249.517 286.214C249.517 286.214 254.484 294.142 258.018 299.721C261.553 301.621 264.715 304.313 265.029 312.885C264.178 333.213 281.54 394.064 282.539 401.139C292.264 403.233 305.881 408.917 304.3 414.302Z" fill="#E48533"/>
<path d="M269.086 407.197C269.086 407.197 266.968 409.725 260.703 410.503C254.439 411.296 246.787 414.901 241.999 417.563C238.256 419.643 227.069 423.532 227.949 429.336C227.591 429.246 227.353 429.081 227.233 428.857C224.071 422.604 240.732 416.696 249.711 412.119C252.932 410.997 256.065 409.994 257.004 409.994C259.152 409.994 269.086 407.197 269.086 407.197Z" fill="#F3A168"/>
<path d="M266.461 402.53C266.461 402.53 263.806 405.387 255.886 405.238C247.966 405.088 235.258 406.704 225.802 408.08C216.883 409.366 211.796 412.163 210.156 416.621C210.111 416.561 209.753 416.262 209.723 416.187C208.247 410.862 222.55 406.434 230.097 404.954L255.96 404.071L266.461 402.53Z" fill="#F3A168"/>
<path d="M267.311 398.476C255.126 396.456 234.334 398.775 227.622 400.241C223.237 401.198 221.939 402.963 221.551 404.07C220.433 403.666 219.732 403.083 219.866 402.275C221.089 397.145 241.851 396.352 256.93 396.786C260.629 396.89 264 397.07 266.64 397.294C266.894 397.668 267.117 398.072 267.311 398.476Z" fill="#F3A168"/>
<path d="M276.752 399.927C273.56 400.63 267.609 397.234 257.004 397.16C256.989 397.04 256.96 396.92 256.93 396.786C263.821 396.98 269.518 397.444 271.636 397.863C271.86 386.644 259.256 320.603 257.914 315.966C250.456 314.619 250.904 307.589 250.486 305.196C247.697 294.964 233.781 285.017 227.964 281.217L227.845 280.275L227.83 280.155C227.83 280.155 227.964 280.23 228.203 280.365C230.977 281.935 248.219 292.122 251.292 303.176C252.052 307.021 252.53 316.773 261.822 313.497C262.061 315.173 261.389 316.384 259.957 316.624C259.957 316.624 263.179 332.913 266.938 351.387C270.905 370.893 274.932 392.822 276.752 399.927Z" fill="#F3A168"/>
<path d="M304.301 414.302C302.705 419.687 295.352 414.197 286.999 414.197C278.647 414.197 268.206 415.738 264.925 417.982C263.97 418.64 260.495 420.136 256.005 421.826C263.478 416.097 276.573 409.844 281.376 410.966C286.88 412.253 293.219 411.131 292.712 408.438C292.205 405.746 278.9 403.562 278.9 403.562C278.9 403.562 280.69 401.303 278.125 389.92C275.485 378.267 261.778 321.635 262.881 315.741C263.925 310.147 260.957 304.882 255.886 301.247C255.334 300.843 254.872 300.334 254.529 299.751C251.143 294.216 246.534 287.635 242 283.641L249.517 286.184C249.517 286.184 254.484 294.111 258.019 299.691C261.554 301.591 264.716 304.283 265.029 312.854C264.179 333.183 281.54 394.033 282.54 401.109C292.264 403.233 305.882 408.917 304.301 414.302Z" fill="#BA6D31"/>
<path d="M229.127 429.829C228.635 429.829 228.218 429.784 227.875 429.694C227.382 429.575 227.054 429.335 226.905 429.021C226.413 428.034 226.338 427.017 226.696 425.97C228.158 421.766 236.481 417.907 243.819 414.512C244.207 414.332 244.595 414.153 244.982 413.973C240.657 415.035 234.78 416.022 229.62 416.681C225.876 417.159 213.407 418.625 210.2 417.114C209.738 416.905 209.469 416.621 209.38 416.277C209.081 415.2 209.275 414.123 209.961 413.076C212.422 409.321 220.909 406.629 226.995 405.327C224.28 405.178 220.984 404.729 219.895 403.472C219.567 403.098 219.433 402.665 219.507 402.201V402.171C219.97 400.271 222.639 398.85 227.696 397.863C231.753 397.07 237.197 396.562 243.894 396.382C255.334 396.053 267.34 396.756 271.263 397.414C271.173 385.358 259.211 322.428 257.601 316.28C251.098 314.979 250.546 309.414 250.247 306.422C250.203 305.974 250.158 305.585 250.113 305.271C248.308 298.659 241.641 292.122 236.376 287.814C230.634 283.117 225.25 279.961 225.205 279.931L222.744 278.495L249.74 285.87L249.815 285.989C249.86 286.064 254.782 293.902 258.272 299.422C261.553 301.202 265.058 303.879 265.386 312.854V312.869V312.884C264.76 327.753 273.843 364.072 279.272 385.777C281.137 393.226 282.509 398.701 282.852 400.81C287.073 401.737 291.622 403.233 295.351 404.923C298.498 406.344 302.585 408.603 304.136 411.236C304.777 412.313 304.942 413.375 304.643 414.392C304.151 416.082 303.047 416.935 301.302 417.025C299.796 417.099 297.902 416.606 295.724 416.037C293.099 415.349 290.116 414.571 286.984 414.571C279.049 414.571 268.384 416.067 265.118 418.296C263.492 419.418 255.184 422.694 247.339 425.312C242.059 427.077 233.184 429.829 229.127 429.829ZM249.71 411.744L249.994 412.343C248.249 413.24 246.265 414.212 244.132 415.215C236.928 418.55 228.755 422.335 227.397 426.239C227.099 427.092 227.159 427.899 227.561 428.707C227.621 428.827 227.785 428.931 228.054 428.991C233.14 430.323 261.762 419.702 264.7 417.698C268.176 415.319 278.974 413.838 286.984 413.838C290.205 413.838 293.233 414.631 295.918 415.334C300.601 416.561 303.092 417.069 303.927 414.212C304.166 413.405 304.017 412.552 303.495 411.655C301.019 407.481 290.802 403.323 282.434 401.513L282.181 401.453L282.151 401.199C281.883 399.344 280.496 393.734 278.557 385.986C273.127 364.251 264.029 327.888 264.656 312.899C264.342 304.253 261.121 301.815 257.854 300.065L257.765 300.02L257.705 299.93C254.454 294.785 249.919 287.575 249.278 286.543L227.77 280.679C229.888 282.04 233.304 284.359 236.854 287.261C244.654 293.633 249.367 299.646 250.859 305.121L250.874 305.151C250.934 305.48 250.978 305.899 251.023 306.378C251.321 309.414 251.828 314.5 258.003 315.622L258.227 315.667L258.287 315.891C258.988 318.329 262.567 336.578 265.744 354.409C268.146 367.901 272.158 391.491 272.024 397.908L272.009 398.357L271.576 398.267C268.235 397.594 255.796 396.831 243.938 397.175C229.605 397.579 220.984 399.478 220.253 402.395C220.223 402.635 220.283 402.829 220.462 403.039C221.789 404.549 228.068 404.804 230.917 404.699L230.977 405.327C225.801 406.03 213.496 409.142 210.603 413.539C210.036 414.407 209.872 415.259 210.111 416.127C210.14 416.247 210.29 416.366 210.528 416.486C212.542 417.428 219.82 417.234 229.53 415.977C238.584 414.781 246.892 413.061 249.71 411.744Z" fill="#885B2D"/>
<path d="M258.839 316.4C258.257 316.4 257.616 316.31 256.93 316.13L257.109 315.412C258.63 315.801 259.823 315.727 260.673 315.173C261.628 314.56 261.807 313.528 261.807 313.513C261.807 313.513 262.314 314.979 261.091 315.786C260.48 316.205 259.719 316.4 258.839 316.4Z" fill="#885B2D"/>
<path d="M227.383 405.926L227.1 405.327C229.143 404.37 236.093 403.891 244.133 403.981C258.258 404.146 266.461 402.53 266.461 402.53C263.791 404.221 253.798 404.49 244.148 404.729C236.526 404.924 229.292 405.028 227.383 405.926Z" fill="#60461D"/>
<path d="M246.95 413.808L246.562 413.165C249.352 411.535 256.004 409.515 259.777 409.051C263.685 408.573 269.07 407.182 269.07 407.182C266.773 408.513 263.447 409.126 259.912 409.784C255.676 410.592 250.843 411.505 246.95 413.808Z" fill="#60461D"/>
<path d="M230.454 422.604L229.574 423.203C233.169 423.996 234.168 427.062 234.138 427.227C234.153 427.227 234.66 423.203 230.454 422.604Z" fill="#885B2D"/>
<path d="M237.749 417.742L236.869 418.341C240.464 419.133 241.463 422.2 241.433 422.364C241.433 422.364 241.955 418.341 237.749 417.742Z" fill="#885B2D"/>
<path d="M245.37 414.317L244.49 414.916C248.085 415.709 249.084 418.775 249.054 418.94C249.054 418.925 249.561 414.916 245.37 414.317Z" fill="#885B2D"/>
<path d="M253.798 410.607L252.918 411.206C256.513 411.999 257.512 415.065 257.482 415.23C257.497 415.23 258.004 411.221 253.798 410.607Z" fill="#885B2D"/>
<path d="M253.305 404.07L252.111 404.384C255.706 405.177 257.033 408.528 257.004 408.692C256.989 408.692 257.511 404.684 253.305 404.07Z" fill="#885B2D"/>
<path d="M242.328 404.07L241.135 404.384C244.804 405.925 246.415 410.936 246.385 411.101C246.385 411.101 246.534 404.684 242.328 404.07Z" fill="#885B2D"/>
<path d="M232.736 404.699L231.543 405.013C235.212 406.554 236.823 411.565 236.793 411.73C236.793 411.73 236.942 405.298 232.736 404.699Z" fill="#885B2D"/>
<path d="M232.736 397.669L231.543 397.983C235.212 399.524 236.823 404.535 236.793 404.699C236.793 404.699 236.942 398.267 232.736 397.669Z" fill="#885B2D"/>
<path d="M243.058 396.86L241.865 397.174C245.534 398.715 247.145 403.726 247.115 403.891C247.115 403.891 247.265 397.474 243.058 396.86Z" fill="#885B2D"/>
<path d="M253.127 396.682L251.934 396.996C255.603 398.536 257.214 403.548 257.184 403.712C257.184 403.712 257.333 397.295 253.127 396.682Z" fill="#885B2D"/>
<path d="M223.088 406.987L221.895 407.301C225.564 408.842 227.175 413.853 227.145 414.018C227.145 414.018 227.294 407.586 223.088 406.987Z" fill="#885B2D"/>
<path d="M215.703 409.411L214.51 409.725C218.179 411.266 219.79 416.277 219.76 416.442C219.76 416.442 219.909 410.009 215.703 409.411Z" fill="#885B2D"/>
<path d="M271.695 397.16L271.232 398.117C274.215 398.88 276.706 399.778 276.766 399.942C276.751 399.927 275.975 398.132 271.695 397.16Z" fill="#885B2D"/>
<path d="M271.232 390.429V391.236C274.737 390.145 277.02 392.568 277.064 392.732C277.064 392.732 276.214 389.142 271.232 390.429Z" fill="#885B2D"/>
<path d="M270.16 381.589L269.697 382.546C273.202 381.454 275.171 384.206 275.231 384.371C275.216 384.356 274.903 380.945 270.16 381.589Z" fill="#885B2D"/>
<path d="M268.937 372.883L268.475 373.84C271.98 372.748 273.948 375.501 274.008 375.665C273.993 375.665 273.68 372.255 268.937 372.883Z" fill="#885B2D"/>
<path d="M265.803 356.279L265.654 357.326C268.652 355.202 271.367 357.191 271.471 357.326C271.471 357.341 270.114 354.2 265.803 356.279Z" fill="#885B2D"/>
<path d="M264.178 347.603L264.029 348.65C267.027 346.526 269.742 348.516 269.846 348.65C269.846 348.665 268.489 345.524 264.178 347.603Z" fill="#885B2D"/>
<path d="M262.895 339.526L262.746 340.573C265.744 338.449 268.459 340.438 268.563 340.573C268.563 340.573 267.206 337.431 262.895 339.526Z" fill="#885B2D"/>
<path d="M261.27 330.326L261.121 331.373C264.119 329.249 266.834 331.238 266.938 331.373C266.938 331.388 265.581 328.247 261.27 330.326Z" fill="#885B2D"/>
<path d="M259.643 322.832L259.494 323.879C262.492 321.755 265.207 323.744 265.311 323.879C265.326 323.894 263.969 320.752 259.643 322.832Z" fill="#885B2D"/>
<path d="M251.247 308.861L251.098 309.908C254.096 307.784 256.81 309.773 256.915 309.908C256.93 309.923 255.572 306.782 251.247 308.861Z" fill="#885B2D"/>
<path d="M249.248 302.189L249.472 303.221C251.545 300.185 254.797 301.112 254.931 301.202C254.931 301.202 252.574 298.734 249.248 302.189Z" fill="#885B2D"/>
<path d="M243.043 293.11L243.267 294.142C245.34 291.105 248.591 292.033 248.726 292.122C248.726 292.137 246.369 289.669 243.043 293.11Z" fill="#885B2D"/>
<path d="M267.4 364.79L266.938 365.747C270.443 364.656 272.411 367.408 272.471 367.572C272.456 367.572 272.143 364.162 267.4 364.79Z" fill="#885B2D"/>
<path d="M253.738 255.398C253.738 255.398 285.508 255.398 287.745 263.252C288.416 266.393 280.735 264.418 276.857 264.314C302.75 274.186 314.771 283.071 279.542 275.084C285.806 277.671 309.268 295.532 306.389 304.597C305.599 306.496 298.245 295.921 279.795 288.546C284.523 291.643 297.246 308.89 294.86 310.789C293.368 311.986 265.894 287.484 253.783 289.623C249.204 283.565 253.738 255.398 253.738 255.398Z" fill="#1C2A24"/>
<path d="M294.71 311.208C293.89 311.208 292.07 309.967 286.82 306.242C277.542 299.631 262.001 288.561 253.842 289.997L253.618 290.042L253.484 289.863C248.875 283.76 253.201 256.521 253.38 255.369L253.425 255.055H253.738C253.812 255.055 261.792 255.07 269.951 256.042C281.018 257.358 287.133 259.767 288.102 263.177V263.207C288.222 263.79 288.117 264.269 287.789 264.643C286.715 265.825 283.479 265.421 280.347 265.047C280.033 265.002 279.72 264.972 279.422 264.942C285.761 267.425 291.145 269.819 295.113 271.913C301.571 275.308 302.003 276.729 301.78 277.492C301.481 278.509 299.662 278.809 295.903 278.465C292.667 278.165 288.088 277.373 282.256 276.116C286.029 278.33 291.682 282.503 296.649 287.185C302.153 292.361 308.372 299.631 306.747 304.761L306.732 304.791C306.612 305.075 306.403 305.18 306.254 305.225C305.583 305.39 304.614 304.582 302.481 302.832C298.856 299.825 292.309 294.425 281.957 289.908C284.225 292.077 287.088 295.532 289.311 298.584C290.742 300.528 295.396 307.095 295.515 309.937C295.545 310.49 295.396 310.894 295.083 311.134C294.978 311.164 294.859 311.208 294.71 311.208ZM255.334 289.115C264.059 289.115 278.437 299.346 287.237 305.629C290.683 308.082 293.934 310.401 294.65 310.461C294.755 310.326 294.77 310.101 294.77 309.922C294.591 305.988 283.867 291.613 279.616 288.816L279.929 288.202C291.742 292.929 299.035 298.958 302.958 302.203C304.345 303.355 305.658 304.432 306.045 304.447C307.194 300.723 303.674 294.769 296.142 287.679C290.101 281.995 282.644 276.655 279.422 275.338L279.616 274.725C299.393 279.212 300.944 277.612 301.049 277.238C301.079 277.118 301.228 275.952 294.755 272.541C290.325 270.208 284.09 267.485 276.707 264.673L274.664 263.895L276.856 263.955C277.871 263.985 279.109 264.134 280.421 264.284C283.091 264.598 286.417 265.002 287.222 264.119C287.327 264 287.461 263.805 287.372 263.357C286.492 260.305 280.436 258.031 269.846 256.76C262.657 255.907 255.602 255.803 254.051 255.788C253.574 258.869 249.979 283.356 253.932 289.22C254.379 289.145 254.856 289.115 255.334 289.115Z" fill="#29292A"/>
<path d="M277.975 264.763C273.859 264.045 269.623 263.85 269.578 263.85C269.578 263.85 273.948 263.312 278.11 264.03L277.975 264.763Z" fill="#29292A"/>
<path d="M282.391 276.102C276.872 274.486 269.623 273.753 269.549 273.738C269.549 273.738 274.038 273.259 282.585 275.399L282.391 276.102Z" fill="#29292A"/>
<path d="M283.316 290.461C269.952 284.867 267.103 280.095 267.103 280.095C267.103 280.095 267.103 280.08 267.088 280.08C267.684 280.813 278.931 288.367 283.524 289.743L283.316 290.461Z" fill="#29292A"/>
<path d="M250.934 246.484C250.934 249.042 250.74 251.465 250.308 253.739C250.308 257.927 243.447 284.852 243.447 284.852C243.447 284.852 242.522 284.717 240.896 284.433C231.366 282.773 197.821 276.102 187.366 263.312C173.882 258.54 164.933 243.732 164.933 243.732C164.933 243.732 138.369 237.883 113.759 199.739C114.207 205.124 115.474 210.06 117.458 214.847C111.194 211.152 103.259 193.531 101.379 181.565C99.7836 187.249 99.9626 193.501 100.067 198.198C96.89 195.162 94.9809 186.351 94.3843 177.361C93.8622 169.478 94.3544 161.475 95.8907 157.063C92.9077 160.802 91.4609 164.736 91.0134 168.177C86.1958 138.021 144.902 86.0703 142.173 53.4461C140.174 54.4782 136.162 56.0937 131.329 57.1408C126.855 58.1131 121.679 58.5918 116.742 57.6793C111.537 56.707 106.615 54.1641 103.095 48.9735C94.8914 47.7769 75.9043 44.8301 75.9043 44.8301L89.2236 34.6584C89.2236 34.6584 94.1904 31.8612 100.261 21.0911C104.989 12.6845 114.788 1.19649 131.076 0.418658C135.64 0.194282 140.726 0.822534 146.334 2.58762C152.897 1.54054 165.873 7.07513 168.811 11.7122C164.232 10.5604 157.923 9.87235 157.923 9.87235C165.082 12.2208 178.103 20.8967 179.297 33.1625C174.822 28.0767 170.049 25.4291 165.769 22.6468C172.093 29.4977 181.086 43.9326 180.087 52.8178C176.209 43.7381 172.63 40.2528 168.752 37.9642C184.979 64.635 127.317 117.199 142.322 137.168C146.349 140.758 147.378 144.558 159.907 145.754C203.728 141.431 250.86 208.116 250.934 246.484Z" fill="#F2F2F3"/>
<path d="M240.897 284.433C231.918 282.862 205.712 278.121 193.989 266.872C193.273 266.184 192.616 265.481 192.02 264.748C178.536 259.976 161.503 242.639 161.503 242.639C161.503 242.639 138.37 237.883 113.76 199.739C114.207 205.124 115.475 210.06 117.459 214.847C111.194 211.152 103.259 193.531 101.38 181.564C99.7841 187.249 99.9631 193.501 100.067 198.198C96.8905 195.162 94.9814 186.351 94.3848 177.361C94.9814 172.5 96.0254 167.264 97.86 164.527C97.0546 173.756 98.9637 181.4 98.9637 181.4C98.9637 181.4 100.142 158.573 107.122 153.383C105.467 181.445 118.741 197.001 127.526 204.152C130.316 206.425 134.477 204.346 134.358 200.741C133.373 172.156 144.545 160.219 161.101 166.651C164.277 190.046 193.586 229.102 217.033 257.134C226.757 268.772 235.468 278.51 240.897 284.433Z" fill="#E4E3E7"/>
<path d="M250.935 246.484C231.351 228.13 208.964 160.234 184.607 156.135C173.048 158.394 160.743 161.445 153.031 159.501C129.928 153.652 123.141 133.413 126.632 126.009C135.133 107.969 150.302 77.6035 147.781 47.7915C147.587 48.3001 147.036 49.3472 145.41 51.1571C140.398 54.1339 135.67 56.0635 131.33 57.1555C125.781 58.5466 120.859 58.5615 116.743 57.694C109.225 56.0934 104.453 51.4713 103.662 46.6996C107.928 50.125 121.053 53.1167 130.688 50.8281C147.558 46.8491 157.267 29.6021 152.316 23.7235C155.135 24.3368 162.368 26.1767 165.232 29.3628C162.547 23.6188 156.924 19.7146 149.899 14.4194C149.899 14.4194 157.954 16.2593 163.412 18.5479C156.701 12.1008 150.526 11.6521 143.784 8.06208C143.784 8.06208 150.914 10.4405 150.914 7.86762C150.66 4.29257 137.296 1.33081 131.061 0.433306C135.625 0.20893 140.712 0.837182 146.32 2.60227C152.882 1.55518 165.859 7.08978 168.797 11.7269C164.218 10.5751 157.909 9.887 157.909 9.887C165.068 12.2355 178.089 20.9113 179.282 33.1772C174.808 28.0913 170.035 25.4437 165.754 22.6614C172.078 29.5124 181.072 43.9472 180.073 52.8325C176.195 43.7528 172.615 40.2675 168.737 37.9788C184.98 64.6346 127.318 117.198 142.322 137.168C146.349 140.758 147.379 144.557 159.907 145.754C203.728 141.431 250.86 208.115 250.935 246.484Z" fill="#E4E3E7"/>
<path d="M243.716 285.286L243.388 285.241C243.283 285.226 232.261 283.551 219.881 280.066C212.603 278.016 206.293 275.758 201.118 273.334C194.674 270.328 189.961 267.067 187.127 263.641C180.132 261.128 174.39 255.923 170.795 251.989C167.305 248.159 165.112 244.764 164.68 244.061C163.621 243.792 157.207 242.026 148.363 236.357C142.695 232.722 137.146 228.22 131.866 222.969C125.587 216.732 119.681 209.417 114.266 201.22C114.788 205.842 115.952 210.27 117.801 214.697L118.234 215.73L117.264 215.161C111.06 211.511 103.632 195.177 101.305 183.345C100.216 188.386 100.321 193.786 100.41 197.839L100.44 199.066L99.7987 198.453C95.8461 194.683 94.5187 183.629 94.1309 179.052C93.4895 171.363 93.8177 163.809 94.9512 158.948C92.5648 162.523 91.6848 165.888 91.3716 168.222L91.0435 170.78L90.6407 168.237C89.5221 161.266 91.5804 152.86 97.0841 141.805C101.917 132.112 108.927 121.492 115.683 111.23C129.033 90.9917 142.814 70.065 141.83 54.0296C138.593 55.6002 131.777 58.0684 124.379 58.4722C120.009 58.7116 116.056 58.203 112.656 56.9315C108.614 55.4207 105.332 52.8628 102.871 49.3027C94.6679 48.1061 76.0238 45.2191 75.8299 45.1892L74.9648 45.0546L89.0299 34.3145C89.0746 34.2845 93.9967 31.4125 99.918 20.8968C104.721 12.4154 118.816 -6.41719 146.379 2.21379C152.897 1.2415 166.022 6.5966 169.14 11.5179L169.647 12.3107L168.737 12.0863C166.186 11.4431 163.084 10.9495 160.847 10.6354C163.919 12.0414 167.693 14.345 171.123 17.5312C174.658 20.822 179.013 26.1921 179.7 33.1327L179.819 34.2845L179.058 33.417C175.374 29.2286 171.541 26.7455 167.827 24.3821C174.002 31.8314 181.43 44.6058 180.505 52.8628L180.341 54.2689L179.789 52.9676C176.209 44.6058 172.898 41.1355 169.826 39.0563C172.943 45.2191 172.794 53.1321 169.348 63.214C166.112 72.6827 160.459 82.8843 154.985 92.7419C145.037 110.647 135.64 127.565 142.635 136.929C143.381 137.602 144.037 138.275 144.664 138.933C147.363 141.76 149.914 144.423 159.952 145.395C169.527 144.468 179.655 146.816 190.051 152.411C199.343 157.407 208.844 165.066 217.525 174.564C228.413 186.501 237.779 201.011 243.924 215.445C250.174 230.164 252.59 243.792 250.711 253.814C250.681 258.107 244.118 283.88 243.835 284.987L243.716 285.286ZM113.252 198.288L114.058 199.545C126.721 219.17 139.891 230.045 148.721 235.699C158.281 241.832 164.933 243.358 164.993 243.373L165.142 243.403L165.232 243.537C165.247 243.567 167.499 247.262 171.362 251.495C174.912 255.384 180.58 260.53 187.47 262.968L187.575 262.998L187.634 263.073C192.586 269.131 203.803 274.755 220.06 279.333C231.187 282.459 241.21 284.134 243.149 284.433C243.924 281.337 249.92 257.583 249.905 253.739V253.664C251.77 243.777 249.369 230.299 243.164 215.7C237.063 201.34 227.741 186.905 216.913 175.028C198.269 154.595 178.029 144.318 159.922 146.098H159.892H159.862C149.526 145.111 146.871 142.344 144.067 139.412C143.441 138.754 142.799 138.081 142.054 137.423L142.009 137.363C134.685 127.625 144.201 110.482 154.284 92.323C159.743 82.4954 165.381 72.3386 168.603 62.9149C172.212 52.3543 172.152 44.2319 168.424 38.0989L167.648 36.8275L168.931 37.5903C172.272 39.5648 175.881 42.6014 179.774 51.1725C179.714 46.5205 177.388 41.0457 175.329 37.0967C172.674 32.0109 168.901 26.5511 165.485 22.8563L163.442 20.6425L165.963 22.2879C166.604 22.7068 167.245 23.1106 167.917 23.5444C171.481 25.8181 175.165 28.1666 178.76 31.9959C176.851 20.119 163.949 12.2209 157.789 10.2016L154.359 9.07969L157.953 9.48356C158.013 9.48356 163.457 10.0969 167.887 11.0991C166.216 9.16944 162.86 7.03039 158.788 5.35505C154.001 3.38055 149.362 2.46809 146.394 2.94675L146.304 2.96171L146.215 2.9318C119.129 -5.59448 105.273 12.909 100.559 21.2558C94.6679 31.7267 89.8353 34.7034 89.4028 34.9427L76.8143 44.5909C80.6326 45.1742 96.0251 47.5526 103.14 48.5997L103.304 48.6296L103.393 48.7642C113.327 63.4235 135.133 56.6623 141.994 53.1321L142.486 52.8778L142.531 53.4313C143.903 69.7957 129.868 91.0665 116.31 111.649C109.553 121.896 102.573 132.501 97.7553 142.149C93.0272 151.618 90.8496 159.337 91.1329 165.634C91.7892 163.106 93.0719 159.995 95.5926 156.839L96.9499 155.133L96.234 157.198C92.9675 166.591 94.5187 190.555 99.6645 197.211C99.575 192.724 99.5302 186.815 101.022 181.475L101.484 179.83L101.753 181.52C102.662 187.294 105.049 194.638 108.121 201.16C110.97 207.203 114.028 211.721 116.653 213.83C114.863 209.223 113.789 204.616 113.386 199.784L113.252 198.288Z" fill="#8B8C90"/>
<path d="M139.638 55.0019L139.369 54.2988C144.366 52.3542 146.364 49.8861 147.14 48.1808C147.99 46.341 147.677 44.9349 147.662 44.9199C147.662 44.9199 148.766 46.3709 147.841 48.4351C147.006 50.29 144.903 52.9376 139.638 55.0019Z" fill="#8B8C90"/>
<path d="M5.89258 109.151C5.89258 109.151 9.66613 110.946 13.5441 107.46C19.8532 97.3633 95.727 57.7685 109.762 55.1957C109.598 52.922 109.106 50.768 110.448 48.5243C111.94 32.3842 19.1224 86.8626 5.89258 109.151Z" fill="#C59B31"/>
<path d="M8.33851 109.989C6.83208 109.989 5.81784 109.525 5.72835 109.48L5.35547 109.3L5.56428 108.941C12.1717 97.8124 37.3784 79.9222 56.9472 68.0004C68.5065 60.955 79.857 54.837 88.9404 50.7833C95.9207 47.657 105.034 44.2016 108.882 45.4581C110.299 45.9218 110.955 46.9839 110.821 48.5395L110.806 48.6293L110.761 48.7041C109.687 50.4841 109.866 52.2343 110.03 54.0741C110.06 54.4331 110.105 54.7921 110.12 55.1511L110.15 55.4802L109.822 55.54C103.378 56.7218 81.975 66.5195 58.9309 78.8153C39.3025 89.3161 17.1683 102.39 13.8571 107.655L13.8273 107.7L13.7826 107.73C11.7988 109.525 9.83003 109.989 8.33851 109.989ZM6.44428 108.956C7.45851 109.285 10.3073 109.839 13.2605 107.206C16.7358 101.791 38.9296 88.6579 58.5879 78.1721C77.5302 68.0602 101.32 56.5572 109.359 54.8819C109.344 54.6276 109.315 54.3883 109.285 54.1489C109.106 52.2941 108.927 50.3645 110.075 48.4049C110.165 47.2382 109.702 46.5351 108.643 46.1911C105.78 45.2487 99.0678 47.0886 89.2387 51.4863C80.1851 55.5401 68.8645 61.6281 57.335 68.6585C32.0239 84.0806 12.1568 99.8318 6.44428 108.956Z" fill="#9A6F3A"/>
<path d="M203.98 173.606C203.98 173.606 231.186 195.117 243.968 223.582C256.751 252.048 259.569 264.105 255.214 265.9C250.352 248.189 207.232 197.061 203.98 173.606Z" fill="#003C3F"/>
<path d="M254.961 266.394L254.842 265.99C252.784 258.481 243.536 244.554 233.767 229.82C220.507 209.836 205.473 187.174 203.593 173.667L203.459 172.739L204.19 173.323C204.264 173.382 211.11 178.812 219.433 187.668C227.115 195.835 237.66 208.684 244.282 223.433C254.931 247.157 258.869 259.797 257.034 264.419C256.677 265.302 256.11 265.915 255.334 266.244L254.961 266.394ZM204.503 174.504C206.904 187.952 221.491 209.941 234.393 229.387C244.013 243.896 253.127 257.613 255.439 265.332C255.841 265.062 256.14 264.658 256.363 264.12C258.093 259.767 254.037 246.918 243.611 223.717C237.033 209.058 226.533 196.284 218.896 188.161C212.214 181.056 206.502 176.165 204.503 174.504Z" fill="#002E2E"/>
<path d="M257.646 278.704C255.319 274.232 251.62 268.114 248.041 262.43C242.805 254.098 237.839 246.663 237.839 246.663L192.586 185.738L202.042 183.3C202.042 183.3 208.307 189.089 216.212 197.615C225.429 207.562 236.884 221.249 243.208 233.814C254.961 257.164 263.224 274.546 257.646 278.704Z" fill="#00535E"/>
<path d="M257.646 278.704C255.32 274.231 251.621 268.113 248.041 262.429L244.506 253.619C244.611 253.694 248.876 256.865 249.95 255.279C252.113 252.048 226.668 213.351 210.365 199.619C211.976 198.422 213.96 197.794 216.197 197.645C225.415 207.592 236.87 221.279 243.194 233.844C254.962 257.164 263.225 274.546 257.646 278.704Z" fill="#003C3F"/>
<path d="M257.512 279.272L257.303 278.883C251.665 268.083 237.839 247.396 237.511 246.887L191.93 185.528L202.132 182.896L202.281 183.03C202.355 183.105 209.738 189.941 218.479 199.559C226.548 208.444 237.436 221.563 243.536 233.649C255.931 258.256 263.642 274.71 257.87 278.988L257.512 279.272ZM193.197 185.977L238.122 246.454V246.469C238.256 246.678 251.919 267.096 257.736 278.121C259.779 276.131 259.391 271.359 256.557 263.596C253.649 255.623 248.414 245.048 242.85 234.008C236.795 221.997 225.951 208.923 217.912 200.083C209.888 191.242 202.997 184.75 201.908 183.733L193.197 185.977Z" fill="#002E2E"/>
<path d="M258.407 287.799C257.9 288.337 257.274 288.786 256.513 289.115C243.119 281.397 215.392 233.59 203.892 213.037C200.671 207.278 198.717 203.643 198.717 203.643C198.717 203.643 210.351 198.707 210.037 199.47C209.724 200.233 210.798 203.643 210.798 203.643C210.798 203.643 270.31 274.905 258.407 287.799Z" fill="#00535E"/>
<path d="M258.409 287.799C253.74 280.948 244.045 266.424 240.898 259.797C242.658 262.639 244.478 264.03 245.94 264.479C247.431 264.943 248.788 263.432 248.192 261.996C242.33 247.756 214.066 221.205 203.879 213.022C200.657 207.263 198.703 203.629 198.703 203.629C198.703 203.629 210.337 198.692 210.024 199.455C209.711 200.218 210.784 203.629 210.784 203.629C210.784 203.629 270.311 274.905 258.409 287.799Z" fill="#003C3F"/>
<path d="M256.484 289.519L256.32 289.43C249.161 285.301 237.228 269.625 220.866 242.864C208.696 222.955 198.494 204.002 198.389 203.823L198.195 203.464L198.568 203.299C198.598 203.284 201.327 202.132 204.072 201.041C209.859 198.737 210.038 198.931 210.277 199.156C210.396 199.275 210.426 199.455 210.366 199.619C210.202 200.008 210.635 201.893 211.127 203.464C212.007 204.526 224.923 220.098 237.169 237.524C244.597 248.085 250.324 257.239 254.217 264.763C259.109 274.232 261.093 281.128 260.093 285.286C259.616 287.276 258.453 288.682 256.648 289.459L256.484 289.519ZM199.239 203.823C200.716 206.545 210.277 224.091 221.508 242.475C237.452 268.563 249.563 284.523 256.544 288.682C258.05 287.994 258.975 286.812 259.392 285.107C261.108 277.927 253.232 261.622 236.587 237.943C223.969 220.008 210.664 204.032 210.53 203.883L210.485 203.823L210.471 203.748C210.247 203.045 209.605 200.936 209.635 199.814C208.248 200.143 203.535 201.998 199.239 203.823Z" fill="#002E2E"/>
<path d="M258.347 291.523C250.397 285.884 241.567 278.869 233.99 272.601C223.49 263.925 215.391 256.715 215.391 256.715C215.391 256.715 190.02 230.882 192.571 222.356C195.121 213.83 201.266 215.116 201.266 215.116C201.266 215.116 201.535 215.385 202.042 215.879C206.576 220.426 230.053 244.09 240.643 258.196C252.396 273.843 265.64 290.327 258.347 291.523Z" fill="#00535E"/>
<path d="M258.346 291.523C250.397 285.884 240.195 276.236 232.618 269.983C235.75 271.719 242.909 276.969 246.146 274.351C248.95 272.078 213.452 242.55 195.688 218.706C196.732 214.727 198.492 215.849 202.041 215.879C206.576 220.426 230.052 244.09 240.642 258.196C252.395 273.843 265.64 290.327 258.346 291.523Z" fill="#003C3F"/>
<path d="M258.258 291.927L258.138 291.838C239.36 278.525 215.391 257.209 215.153 257L215.138 256.985C214.094 255.923 189.633 230.897 192.228 222.251C193.585 217.704 195.986 215.909 197.746 215.191C199.685 214.413 201.281 214.727 201.356 214.742L201.46 214.772L201.535 214.847C201.818 215.116 229.307 242.49 240.941 257.972C241.94 259.303 242.954 260.649 243.969 261.981C248.682 268.203 253.127 274.082 256.319 279.078C260.003 284.837 261.375 288.412 260.599 290.342C260.256 291.194 259.525 291.718 258.407 291.897L258.258 291.927ZM215.645 256.446C216.226 256.97 239.837 277.926 258.436 291.135C259.197 290.985 259.689 290.626 259.913 290.058C261.42 286.273 252.247 274.157 243.372 262.429C242.358 261.098 241.344 259.752 240.344 258.421C229.054 243.402 202.788 217.165 201.087 215.46C200.73 215.415 199.447 215.296 197.985 215.894C195.688 216.836 193.943 219.11 192.929 222.461C191.915 225.826 195.509 232.752 203.31 242.49C209.157 249.79 215.376 256.177 215.645 256.446Z" fill="#002E2E"/>
<path d="M259.437 292.302C252.173 292.81 242.538 288.622 232.172 282.04C201.283 262.46 163.965 221.773 163.965 221.773V202.282C163.965 202.282 173.704 209.627 185.562 219.23C188.575 221.668 191.722 224.256 194.884 226.904C216.75 255.938 249.026 281.008 254.142 283.835C259.243 286.662 262.495 292.047 259.437 292.302Z" fill="#00535E"/>
<path d="M259.437 292.302C252.173 292.81 242.538 288.622 232.172 282.04C237.288 283.461 240.912 284.045 242.94 282.594C247.445 279.378 225.892 278.51 174.912 218.901C177.88 217.824 181.52 218.049 185.562 219.23C188.574 221.668 191.722 224.256 194.884 226.904C216.749 255.938 249.026 281.008 254.142 283.835C259.243 286.663 262.494 292.048 259.437 292.302Z" fill="#003C3F"/>
<path d="M258.213 292.721C251.651 292.721 242.895 289.28 232.127 282.474C222.998 276.7 212.394 268.503 200.611 258.107C180.565 240.411 163.845 222.237 163.681 222.057L163.576 221.953V201.564L164.173 202.013C164.322 202.133 179.685 213.711 195.107 226.65L195.137 226.68L195.167 226.709C206.86 242.251 221.119 256.088 231.023 264.958C242.821 275.519 252.009 282.265 254.305 283.536C258.154 285.66 261.375 289.55 260.958 291.554C260.868 291.943 260.57 292.616 259.466 292.706C259.049 292.706 258.646 292.721 258.213 292.721ZM164.322 221.639C165.724 223.164 181.892 240.576 201.103 257.539C212.856 267.905 223.416 276.087 232.514 281.831C243.835 288.996 252.889 292.392 259.392 291.928C260.033 291.868 260.167 291.584 260.212 291.36C260.495 290.013 257.99 286.393 253.933 284.165C251.143 282.624 241.449 275.279 230.516 265.482C220.597 256.596 206.308 242.73 194.585 227.173C180.908 215.7 167.29 205.304 164.307 203.045V221.639H164.322Z" fill="#002E2E"/>
<path d="M204.369 202.581C207.427 205.049 217.495 219.633 215.406 222.475C210.634 228.907 203.698 221.727 196.315 216.791C217.688 249.595 179.849 231.675 170.556 214.622C172.659 219.155 173.152 222.176 172.525 223.911C170.556 229.356 157.595 222.356 148.005 210.479C145.887 207.861 143.948 204.989 142.307 201.982C135.834 189.986 134.387 175.521 147.691 163.629C161.786 150.615 180.893 155.477 184.577 156.12L206.01 173.621L206.114 173.711C206.114 173.711 213.975 178.273 216.063 183.434C218.151 188.595 216.51 190.689 210.619 189.268C219.448 200.083 222.357 215.579 204.369 202.581Z" fill="#F2F2F3"/>
<path d="M183.831 190.21C183.831 190.21 186.71 196.507 184.099 199.215C181.907 201.489 179.013 202.341 175.434 200.89C178.163 203.448 183.637 204.824 187.246 201.279C190.17 198.661 189.096 193.815 183.831 190.21Z" fill="#E4E3E7"/>
<path d="M153.775 198.467C153.775 198.467 158.891 204.331 164.082 202.506C169.287 200.681 168.885 195.431 168.885 195.431C168.885 195.431 172.419 205.273 165.394 206.964C162.963 207.113 157.788 206.485 153.775 198.467Z" fill="#E4E3E7"/>
<path d="M204.369 202.581C207.426 205.049 217.494 219.634 215.406 222.476C210.633 228.908 203.698 221.728 196.315 216.792C217.688 249.595 179.848 231.675 170.556 214.623C172.182 218.138 172.793 221.354 172.525 223.912C170.556 229.357 157.595 222.356 148.004 210.479C145.886 207.861 143.947 204.989 142.307 201.983C149.257 210.599 156.864 218.706 162.338 216.014C167.245 213.605 165.485 206.859 165.41 206.65C165.694 207.009 183.622 227.786 191.542 222.416C195.345 219.619 186.083 202.791 185.934 202.506C186.128 202.746 198.88 218.751 206.129 215.685C210.35 212.349 201.803 200.292 192.019 193.023C201.252 199.201 207.143 200.532 210.38 197.884C213.601 195.237 208.515 187.428 203.25 184.347C211.528 186.381 211.588 184.945 212.304 184.122C213.765 182.462 212.542 179.53 205.905 173.592C205.95 173.592 205.995 173.607 206.039 173.622L206.144 173.711C206.144 173.711 214.004 178.274 216.092 183.434C218.18 188.595 216.54 190.689 210.648 189.268C219.448 200.083 222.357 215.58 204.369 202.581Z" fill="#E4E3E7"/>
<path d="M198.865 235.504C195.24 235.504 189.632 233.066 183.83 228.982C179.147 225.677 175.12 221.847 172.345 218.108C173.926 222.924 172.882 224.899 171.57 225.677C169.407 226.948 165.276 225.751 160.234 222.386C155.133 218.975 149.883 213.845 145.871 208.31C142.157 203.209 137.653 195.251 137.175 186.291C136.728 177.571 140.173 169.852 147.452 163.36C154.805 156.569 164.575 154.968 171.45 154.445C179.818 153.817 184.591 156.135 184.591 156.135C184.531 156.12 178.819 154.864 171.465 155.193C164.709 155.507 155.148 157.272 147.944 163.914C129.643 180.248 140.815 200.098 146.467 207.876C150.435 213.336 155.611 218.407 160.652 221.773C165.38 224.929 169.318 226.14 171.197 225.033C173.106 223.912 172.763 220.277 170.227 214.802L170.779 214.578C176.924 223.792 191.78 234.756 198.865 234.756H198.88C200.416 234.756 201.475 234.263 201.982 233.305C202.937 231.525 202.668 227.262 196.001 217.016L195.002 215.49L196.523 216.507C197.836 217.375 199.133 218.332 200.386 219.245C206.292 223.553 211.393 227.277 215.107 222.281C215.883 221.219 214.496 217.524 211.498 212.618C208.992 208.519 205.681 204.152 204.13 202.91L204.577 202.312C212.81 208.25 215.585 207.502 216.494 206.515C218.642 204.226 215.704 196.134 210.334 189.537L209.633 188.67L210.707 188.924C213.496 189.597 215.301 189.477 216.077 188.565C216.823 187.697 216.703 186.022 215.719 183.599C213.705 178.618 205.964 173.666 205.89 173.622C205.89 173.622 213.183 176.853 216.42 183.315C217.747 185.962 217.613 187.937 216.659 189.059C215.779 190.076 214.108 190.36 211.572 189.881C216.39 196.119 219.656 204.241 217.061 207.024C215.898 208.265 213.183 208.759 206.934 204.795C208.545 206.769 210.484 209.522 212.139 212.214C214.481 216.043 217.002 220.965 215.704 222.715C213.825 225.243 211.438 225.991 208.41 224.974C205.77 224.091 202.937 222.027 199.939 219.843C199.178 219.289 198.402 218.721 197.627 218.168C202.4 225.796 204.085 231.002 202.653 233.664C201.997 234.891 200.729 235.504 198.894 235.519C198.88 235.504 198.865 235.504 198.865 235.504Z" fill="#8B8C90"/>
<path d="M171.585 217.016C167.647 211.616 165.44 207.009 165.41 206.964L166.081 206.635C166.096 206.68 168.289 211.227 172.182 216.567L171.585 217.016Z" fill="#8B8C90"/>
<path d="M164.842 207.263C156.236 207.263 153.775 198.467 153.775 198.467C155.177 201.055 157.266 203.643 159.756 205.154C162.202 206.634 164.738 206.889 166.468 206.246C169.272 205.213 170.122 201.369 168.885 195.431C168.885 195.431 172.777 204.346 166.722 206.949C166.17 207.188 165.514 207.263 164.842 207.263Z" fill="#8B8C90"/>
<path d="M182.026 203.823C178.029 203.823 175.434 200.891 175.434 200.891C177.835 202.447 180.296 203.195 182.578 203.045C184.606 202.926 186.277 202.103 187.291 200.727C188.887 198.588 188.932 194.534 183.846 190.211C183.846 190.211 192.034 194.923 187.888 201.175C186.769 202.836 184.592 203.823 182.026 203.823Z" fill="#8B8C90"/>
<path d="M197.105 218.706C192.764 212.05 185.426 203.06 185.352 202.97L185.933 202.491C186.008 202.581 193.361 211.601 197.731 218.287L197.105 218.706Z" fill="#8B8C90"/>
<path d="M205.592 204.361C200.118 198.677 192.109 193.082 192.02 193.022C192.02 193.022 199.074 196.224 206.129 203.837L205.592 204.361Z" fill="#8B8C90"/>
<path d="M211.647 191.213C209.007 186.92 203.294 184.362 203.234 184.347C203.234 184.347 208.38 185.439 212.288 190.898L211.647 191.213Z" fill="#8B8C90"/>
<path d="M211.976 321.814C207.114 334.439 164.859 396.172 157.535 404.145C170.616 408.812 181.922 422.214 162.502 417.084C156.432 415.289 157.237 415.438 149.556 415.887C144.142 416.201 133.462 419.432 125.602 422.349C122.336 423.561 119.561 424.727 117.846 425.61C113.774 427.704 108.151 430.935 104.318 432.162C102.677 432.685 101.35 432.835 100.634 432.341C97.1438 429.679 106.779 422.424 114.744 418.52C116.31 417.757 117.801 417.129 119.129 416.68C110.806 414.137 97.3824 421.437 89.8055 423.381C87.4041 423.994 85.5994 424.084 84.7194 423.142C83.3919 418.49 92.5051 414.346 101.081 411.564C103.14 410.906 105.168 410.308 107.018 409.829C99.0977 410.472 94.3099 410.203 91.8787 409.425C83.4814 406.747 102.931 398.176 117.98 401.228C119.919 401.497 126.601 403.113 133.089 403.531C133.119 403.531 133.134 403.531 133.164 403.531C137.639 403.816 142.009 403.516 144.679 401.811C158.102 394.93 202.997 322.831 204.847 318.643C201.923 312.36 204.19 307.424 206.129 304.881C204.996 298.673 199.149 288.157 195.659 282.264C194.108 279.646 193.004 277.941 193.004 277.941C193.004 277.941 199.417 272.092 203.43 268.397C203.43 268.397 204.25 270.701 205.413 274.186C207.964 281.77 212.215 294.919 213.453 301.829C219.285 309.683 217.718 320.692 211.976 321.814Z" fill="#E48533"/>
<path d="M133.119 403.546C129.778 404.534 117.19 403.143 112.954 402.604C106.853 401.841 98.4113 403.98 94.9659 405.611C92.5347 406.762 91.6398 408.333 91.5354 409.44C84.2419 406.553 102.931 398.191 117.995 401.243C119.949 401.497 126.616 403.128 133.119 403.546Z" fill="#F3A168"/>
<path d="M103.064 429.439C102.243 431.564 103.347 431.788 104.332 432.162C102.691 432.685 101.363 432.835 100.648 432.341C97.1574 429.679 106.793 422.424 114.757 418.52C120.261 416.171 126.525 413.928 131.731 413.18C131.313 413.359 105.197 424.907 103.064 429.439Z" fill="#F3A168"/>
<path d="M88.7751 423.636C86.3737 424.249 85.6131 424.084 84.7331 423.157C83.4056 418.505 92.5188 414.361 101.095 411.579C110.775 408.991 122.498 406.553 132.357 406.538C132.357 406.538 88.4917 412.776 87.1195 421.481C87.1941 422.917 86.687 423.815 88.7751 423.636Z" fill="#F3A168"/>
<path d="M206.948 318.582C204.129 325.508 170.287 377.429 159.16 390.323C148.033 403.217 145.542 403.396 140.68 404.548C138.532 405.057 133.64 404.249 130.791 403.336C135.266 403.621 142.007 403.546 144.677 401.841C158.101 394.96 202.996 322.86 204.845 318.672C201.922 312.39 204.189 307.453 206.128 304.91C204.994 298.703 199.147 288.187 195.657 282.293L198.596 281.665C198.596 281.665 207.381 300.378 208.052 305.344C204.234 309.862 205.173 315.695 206.948 318.582Z" fill="#F3A168"/>
<path d="M211.976 321.814C207.113 334.439 164.858 396.172 157.535 404.145C170.616 408.812 181.921 422.214 162.502 417.084C156.431 415.289 157.237 415.438 149.555 415.887C144.141 416.201 133.462 419.432 125.602 422.349C137.101 415.872 149.183 412.611 153.791 413.179C159.921 413.942 166.604 415.483 163.919 411.444C161.234 407.406 159.743 407.42 151.107 405.416C158.206 402.439 206.278 328.709 210.007 320.378C215.406 316.144 214.332 308.157 211.394 302.772C211.841 294.889 200.655 276.924 200.655 276.924L205.443 274.201C207.993 281.785 212.244 294.933 213.482 301.844C219.284 309.682 217.718 320.692 211.976 321.814Z" fill="#BA6D31"/>
<path d="M101.826 432.999C101.26 432.999 100.797 432.895 100.439 432.655L100.424 432.64C99.7233 432.102 99.4399 431.369 99.5742 430.486C100.022 427.809 104.422 424.413 107.002 422.633C110.507 420.21 114.549 418.026 117.845 416.755C112.073 415.693 104.094 418.684 97.5905 421.122C91.2813 423.486 86.2996 425.356 84.4651 423.396L84.4054 423.336L84.3756 423.246C84.0922 422.229 84.2413 421.197 84.823 420.165C87.1946 415.977 96.4122 412.536 103.467 410.442C97.2325 410.771 90.8786 410.532 89.6854 408.408C89.4468 407.989 89.3125 407.316 89.9539 406.448C92.6386 402.739 106.898 398.595 118.069 400.854C118.606 400.929 119.471 401.093 120.575 401.318C126.123 402.409 139.114 404.952 144.514 401.512L144.544 401.497C151.569 397.892 167.066 376.412 178.834 359.03C191.571 340.213 203.116 321.455 204.473 318.658C201.43 311.926 204.264 306.825 205.771 304.806C204.055 295.951 192.839 278.33 192.735 278.15L192.571 277.881L192.809 277.672C192.869 277.612 199.268 271.778 203.235 268.128L203.653 267.739L203.846 268.278C203.936 268.517 212.065 291.628 213.87 301.68C215.659 304.133 216.867 307.02 217.33 310.027C217.762 312.824 217.539 315.576 216.689 317.76C215.779 320.123 214.213 321.649 212.289 322.113C210.021 327.782 200.237 343.728 186.023 364.909C173.941 382.919 162.203 399.388 158.221 403.965C162.069 405.416 165.977 407.675 168.99 410.203C172.181 412.88 173.733 415.319 173.24 416.904C172.599 418.983 168.975 419.148 162.442 417.428L161.89 417.263C156.938 415.797 156.938 415.797 151.375 416.141C150.838 416.171 150.256 416.216 149.615 416.246C141.904 416.695 123.722 423.022 118.054 425.924C117.129 426.403 116.13 426.941 115.056 427.495C110.164 430.112 104.735 432.999 101.826 432.999ZM100.872 432.042C102.706 433.239 109.627 429.559 114.683 426.866C115.742 426.298 116.757 425.76 117.681 425.281C123.394 422.349 141.74 415.977 149.54 415.513C150.182 415.468 150.763 415.438 151.3 415.408C156.998 415.064 156.998 415.064 162.069 416.56L162.606 416.725C170.839 418.909 172.256 417.428 172.48 416.695C172.868 415.453 171.316 413.194 168.468 410.801C165.38 408.198 161.338 405.91 157.401 404.504L156.864 404.309L157.251 403.89C160.816 400.016 172.897 383.083 185.367 364.505C199.715 343.129 209.529 327.124 211.617 321.679L211.692 321.485L211.901 321.44C213.661 321.096 215.107 319.705 215.958 317.506C217.39 313.811 217.121 307.394 213.183 302.054L213.124 301.979L213.109 301.889C211.498 292.78 204.533 272.586 203.295 269.041C199.76 272.287 194.659 276.954 193.51 277.986C195.002 280.334 204.98 296.355 206.516 304.806L206.546 304.971L206.442 305.105C205.055 306.93 202.146 311.881 205.204 318.478L205.278 318.628L205.204 318.777C204.234 320.961 192.436 340.168 179.43 359.404C167.617 376.846 152.046 398.416 144.887 402.11C139.234 405.7 126.526 403.202 120.426 402.006C119.337 401.796 118.472 401.617 117.95 401.557H117.92C111.089 400.181 104.302 401.318 100.857 402.125C95.8901 403.292 91.7437 405.192 90.5356 406.837C90.0434 407.51 90.2522 407.869 90.3267 408.004C90.6698 408.632 92.9817 410.756 107.077 409.604L107.121 410.143C101.528 411.639 88.2088 415.633 85.4644 420.494C85.002 421.317 84.8678 422.11 85.0617 422.902C86.6427 424.383 91.8332 422.439 97.322 420.374C104.377 417.727 113.177 414.421 119.247 416.276L120.291 416.59L119.262 416.979C112.61 419.223 100.961 426.627 100.305 430.546C100.216 431.219 100.395 431.668 100.872 432.042Z" fill="#885B2D"/>
<path d="M115.697 418.505L115.398 417.816C125.6 413.419 131.731 413.194 131.731 413.194C131.656 413.209 122.826 415.348 115.697 418.505Z" fill="#885B2D"/>
<path d="M102.273 411.594L102.02 410.891C118.322 406.538 132.357 406.538 132.357 406.538C131.835 406.718 109.656 408.946 102.273 411.594Z" fill="#885B2D"/>
<path d="M113.193 400.569L112.148 400.734C115.042 403.008 113.908 406.194 113.804 406.328C113.804 406.328 116.414 404.129 113.193 400.569Z" fill="#885B2D"/>
<path d="M106.704 400.794L105.66 400.959C108.554 403.232 107.42 406.418 107.316 406.553C107.316 406.538 109.926 404.339 106.704 400.794Z" fill="#885B2D"/>
<path d="M97.1573 402.844L96.1133 403.008C99.0068 405.282 97.8733 408.468 97.7689 408.603C97.7689 408.588 100.379 406.389 97.1573 402.844Z" fill="#885B2D"/>
<path d="M124.005 401.826L122.961 401.991C125.854 404.264 124.721 407.451 124.617 407.585C124.617 407.57 127.227 405.371 124.005 401.826Z" fill="#885B2D"/>
<path d="M123.29 407.57L122.246 407.735C125.14 410.009 124.006 413.195 123.902 413.329C123.902 413.329 126.512 411.115 123.29 407.57Z" fill="#885B2D"/>
<path d="M116.443 408.153L115.398 408.318C118.292 410.592 117.158 413.778 117.054 413.912C117.054 413.897 119.664 411.698 116.443 408.153Z" fill="#885B2D"/>
<path d="M109.538 409.515L108.494 409.679C111.388 411.953 110.254 415.139 110.15 415.274C110.15 415.274 112.76 413.075 109.538 409.515Z" fill="#885B2D"/>
<path d="M91.505 415.618L90.4609 415.783C93.3545 418.056 92.2209 421.243 92.1165 421.377C92.1165 421.377 94.7267 419.178 91.505 415.618Z" fill="#885B2D"/>
<path d="M100.142 411.908L99.0977 412.073C101.991 414.346 100.858 417.533 100.753 417.667C100.753 417.652 103.363 415.453 100.142 411.908Z" fill="#885B2D"/>
<path d="M105.495 424.278L104.615 424.877C108.21 425.669 108.553 429.035 108.523 429.2C108.538 429.2 109.94 426.088 105.495 424.278Z" fill="#885B2D"/>
<path d="M112.013 420.135L111.133 420.733C114.727 421.526 115.07 424.892 115.041 425.056C115.056 425.056 116.458 421.945 112.013 420.135Z" fill="#885B2D"/>
<path d="M119.353 416.68L118.473 417.278C122.067 418.071 122.41 421.436 122.38 421.601C122.38 421.601 123.782 418.475 119.353 416.68Z" fill="#885B2D"/>
<path d="M126.288 414.212L125.408 414.81C129.003 415.603 129.346 418.969 129.316 419.133C129.331 419.133 130.733 416.022 126.288 414.212Z" fill="#885B2D"/>
<path d="M145.603 401.213L144.723 401.811C148.317 402.604 148.66 405.97 148.63 406.134C148.63 406.119 150.032 403.008 145.603 401.213Z" fill="#885B2D"/>
<path d="M159.191 387.437L158.311 388.035C161.905 388.828 162.248 392.193 162.218 392.358C162.233 392.343 163.635 389.232 159.191 387.437Z" fill="#885B2D"/>
<path d="M152.464 394.736L151.584 395.335C155.179 396.127 155.522 399.493 155.492 399.658C155.507 399.658 156.909 396.531 152.464 394.736Z" fill="#885B2D"/>
<path d="M171.511 371.071L170.631 371.67C174.225 372.462 174.568 375.828 174.539 375.993C174.554 375.993 175.956 372.866 171.511 371.071Z" fill="#885B2D"/>
<path d="M183.771 352.419L182.891 353.017C186.485 353.81 186.828 357.176 186.798 357.34C186.813 357.34 188.215 354.214 183.771 352.419Z" fill="#885B2D"/>
<path d="M187.901 345.822L187.021 346.421C190.616 347.213 190.959 350.579 190.929 350.744C190.929 350.744 192.331 347.617 187.901 345.822Z" fill="#885B2D"/>
<path d="M192.9 339.076L192.02 339.675C195.614 340.467 195.957 343.833 195.927 343.997C195.927 343.997 197.329 340.886 192.9 339.076Z" fill="#885B2D"/>
<path d="M197.03 331.836L196.15 332.434C199.745 333.227 200.088 336.593 200.058 336.757C200.073 336.757 201.475 333.646 197.03 331.836Z" fill="#885B2D"/>
<path d="M201.4 325.074L200.52 325.673C204.114 326.465 204.457 329.831 204.427 329.996C204.427 329.996 205.829 326.869 201.4 325.074Z" fill="#885B2D"/>
<path d="M204.607 307.663L204.234 308.65C207.635 307.244 209.842 309.802 209.902 309.952C209.902 309.952 209.276 306.601 204.607 307.663Z" fill="#885B2D"/>
<path d="M205.205 300.648L205.07 301.695C208.053 299.541 210.783 301.515 210.887 301.65C210.887 301.65 209.5 298.524 205.205 300.648Z" fill="#885B2D"/>
<path d="M200.953 290.895L200.818 291.942C203.801 289.788 206.531 291.762 206.635 291.897C206.635 291.897 205.248 288.771 200.953 290.895Z" fill="#885B2D"/>
<path d="M208.873 316.174L209.201 315.157C205.89 316.758 203.534 314.334 203.459 314.17C203.459 314.17 204.279 317.506 208.873 316.174Z" fill="#885B2D"/>
<path d="M178.028 360.87L177.148 361.468C180.743 362.261 181.086 365.627 181.056 365.791C181.056 365.791 182.458 362.68 178.028 360.87Z" fill="#885B2D"/>
<path d="M165.232 379.015L164.352 379.613C167.946 380.406 168.289 383.771 168.259 383.936C168.274 383.936 169.676 380.81 165.232 379.015Z" fill="#885B2D"/>
<path d="M204.219 318.09L204.935 317.865C204.935 317.88 205.412 319.331 206.859 320.468C206.844 320.468 205.009 320.318 204.219 318.09Z" fill="#885B2D"/>
<path d="M159.921 224.734C159.921 224.734 156.789 254.502 183.338 272.452C190.795 276.79 195.568 281.875 197.209 284.119C198.85 286.363 208.246 285.017 207.65 280.679C207.053 276.341 205.77 273.947 207.679 267.665" fill="#E4E3E7"/>
<path d="M200.579 285.555C198.953 285.555 197.506 285.181 196.895 284.328C195.21 282.025 190.422 276.999 183.143 272.765L183.128 272.75C177.028 268.622 172.001 263.536 168.168 257.613C165.111 252.871 162.799 247.605 161.322 241.936C158.801 232.303 160.308 224.749 160.308 224.749C160.293 224.824 159.562 232.258 162.053 241.772C164.35 250.537 169.943 262.908 183.546 272.107C190.929 276.4 195.806 281.516 197.521 283.864C198.372 285.016 201.936 285.106 204.576 284.029C205.695 283.58 207.544 282.533 207.291 280.693C207.172 279.781 207.007 278.958 206.858 278.165C205.337 270.163 208.052 267.739 208.052 267.739C206.575 272.601 207.052 275.114 207.604 278.016C207.753 278.824 207.917 279.661 208.037 280.589C208.275 282.294 207.112 283.805 204.875 284.717C203.577 285.256 202.011 285.555 200.579 285.555Z" fill="#8B8C90"/>
<path d="M206.8 278.001C206.561 275.997 205.815 273.888 204.622 271.838C201.415 266.334 202.937 263.237 202.937 263.237C202.743 266.049 204.041 268.832 205.293 271.509C206.323 273.708 207.292 275.772 207.531 277.897L206.8 278.001Z" fill="#8B8C90"/>
<path d="M137.414 26.4174C137.176 40.4484 117.875 41.7946 113.997 30.4263C113.595 29.2296 113.356 27.8983 113.326 26.4174C113.505 15.4978 125.229 12.2668 132.254 16.7244C135.207 18.5942 137.325 21.8252 137.414 26.4174Z" fill="#F1F0F0"/>
<path d="M137.415 26.417C137.176 40.4479 117.876 41.7942 113.998 30.4258C116.713 34.2103 124.886 35.6912 130.345 31.7571C135.685 27.9128 134.924 20.8824 132.254 16.709C135.207 18.5937 137.325 21.8247 137.415 26.417Z" fill="#CED1D7"/>
<path d="M125.363 38.4286C119.486 38.4286 113.087 34.6741 112.953 26.432C113.087 18.175 119.292 13.6875 125.169 13.6875H125.363C131.239 13.6875 137.638 18.175 137.772 26.4171C137.638 34.6741 131.254 38.4286 125.363 38.4286ZM125.363 15.1534C119.829 15.1534 113.833 18.6836 113.699 26.4171C113.833 34.1506 119.844 37.6658 125.363 37.6658C130.881 37.6658 136.892 34.1356 137.026 26.4021C136.907 18.6836 130.896 15.1534 125.363 15.1534Z" fill="#231F20"/>
<path d="M127.629 15.2727C126.779 15.2727 126.003 15.2129 125.332 15.1232L125.422 14.4052C129.21 14.8838 134.207 14.4351 136.518 9.60352C136.504 9.60352 136.011 15.4373 127.629 15.2727Z" fill="#231F20"/>
<path d="M137.473 18.5336C134.729 18.5336 132.596 17.4416 132.312 17.2322L132.76 16.6339C133.178 16.9181 136.22 18.3242 139.502 17.5613C142.186 16.948 144.424 15.0782 146.169 12.0117C146.169 12.0117 145.363 17.307 139.472 18.3391C138.786 18.4588 138.115 18.5336 137.473 18.5336Z" fill="#231F20"/>
<path d="M140.784 22.7372C140.158 22.7372 139.606 22.6624 139.114 22.5577C136.891 22.0641 135.638 20.7477 135.594 20.7029L136.116 20.1943C136.131 20.2092 137.294 21.4059 139.308 21.8397C141.977 22.4231 144.931 21.3909 147.869 18.8779C147.869 18.8779 145.93 22.7372 140.784 22.7372Z" fill="#231F20"/>
<path d="M142.037 28.4508C141.366 28.4508 140.74 28.3311 140.158 28.0768C137.473 26.9549 136.713 23.679 136.668 23.5444L137.384 23.3799C137.384 23.4098 138.115 26.4164 140.456 27.3887C142.023 28.0469 143.991 27.643 146.288 26.222C146.288 26.222 145.199 28.1366 142.037 28.4508Z" fill="#231F20"/>
<path d="M126.495 21.66C129.374 21.2113 131.984 23.5298 132.342 26.8506C132.7 30.1714 130.657 33.2378 127.778 33.6866C124.899 34.1353 122.289 31.8168 121.931 28.496C121.573 25.1753 123.617 22.1088 126.495 21.66Z" fill="url(#paint0_radial_501_609)"/>
<path d="M122.2 28.9749C121.932 26.4769 124.602 29.304 127.212 28.8852C129.822 28.4663 131.373 24.981 131.642 27.4791C131.91 29.9771 130.225 32.8342 127.615 33.253C125.004 33.6718 122.469 31.473 122.2 28.9749Z" fill="#67C6F0"/>
<path d="M132.834 26.791C132.491 23.5749 130.075 21.1367 127.226 21.1367C127.092 21.1367 126.958 21.1367 126.823 21.1517C126.689 21.1666 126.57 21.1816 126.436 21.1966C123.303 21.6902 121.066 24.996 121.439 28.5411C121.782 31.7572 124.198 34.1954 127.047 34.1954C127.181 34.1954 127.316 34.1954 127.45 34.1804H127.51C127.614 34.1655 127.733 34.1505 127.838 34.1355C130.97 33.6419 133.207 30.3511 132.834 26.791ZM127.718 33.238C127.614 33.253 127.51 33.268 127.42 33.268C124.929 33.4774 122.752 31.3234 122.438 28.4364C122.11 25.355 123.96 22.5278 126.57 22.109C126.674 22.0941 126.779 22.0791 126.883 22.0791C126.987 22.0641 127.107 22.0641 127.211 22.0641C129.568 22.0641 131.566 24.1434 131.865 26.9106C132.163 29.9921 130.314 32.8192 127.718 33.238Z" fill="#005269"/>
<path d="M123.214 28.5562C122.946 26.103 124.885 27.928 127.003 27.5989C129.121 27.2698 130.627 24.8914 130.896 27.3446C131.164 29.7977 129.658 32.0565 127.54 32.3855C125.407 32.7296 123.483 31.0094 123.214 28.5562Z" fill="#00ACE5"/>
<path d="M123.75 28.4966C123.526 26.4324 124.794 24.5327 126.584 24.2485C128.374 23.9642 129.985 25.4152 130.208 27.4645C130.432 29.5288 129.164 31.4285 127.375 31.7127C125.585 32.0118 123.959 30.5609 123.75 28.4966Z" fill="#231F20"/>
<path d="M123.722 26.2379C123.692 25.4002 124.318 24.6972 125.124 24.6673C125.929 24.6224 126.6 25.2656 126.615 26.1033C126.645 26.9409 126.019 27.644 125.213 27.6739C124.423 27.7038 123.752 27.0606 123.722 26.2379Z" fill="white"/>
<path d="M127.241 29.7828C127.226 29.4387 127.494 29.1396 127.823 29.1246C128.151 29.1097 128.434 29.3789 128.449 29.723C128.464 30.067 128.195 30.3662 127.867 30.3811C127.524 30.3961 127.256 30.1268 127.241 29.7828Z" fill="white"/>
<path d="M108.658 46.1771C88.1344 50.4103 72.19 65.952 50.1901 77.2306C32.7094 86.2057 15.2735 102.136 5.90677 111.889C3.52033 114.372 1.67085 116.451 0.462714 117.917C0.447799 117.932 0.432884 117.947 0.417969 117.962C1.70068 87.2079 73.2937 44.5167 84.1968 37.9948C93.3696 32.5201 97.7099 25.4448 97.8442 25.2354C96.9045 28.0176 96.3974 30.381 96.2781 32.4303C96.0245 36.6486 97.3967 39.4608 99.992 41.6447C102.125 43.4397 105.093 44.8159 108.658 46.1771Z" fill="#F6C332"/>
<path d="M108.658 46.1767C88.1344 50.4099 72.19 65.9516 50.1901 77.2302C32.7094 86.2053 15.2735 102.136 5.90679 111.889C5.84713 111.859 5.77255 111.829 5.71289 111.799C24.8491 84.4551 77.6639 56.0043 85.8822 51.6963C92.2808 48.3456 99.5296 46.3711 100.872 42.6465C103.005 44.4564 105.093 44.8154 108.658 46.1767Z" fill="#C59B31"/>
<path d="M97.8442 25.2354C96.9045 28.0176 96.3378 33.1633 96.2035 35.1976C88.2388 41.0912 74.9195 48.2712 46.8341 67.6573C15.9447 88.973 3.34135 109.72 0.611867 117.843C0.596951 117.858 0.432884 117.962 0.417969 117.977C1.70068 87.2079 73.2937 44.5167 84.1968 37.9948C93.3696 32.5201 97.71 25.4448 97.8442 25.2354Z" fill="#FAE988"/>
<path d="M0 119.084L0.0447457 117.962C0.34305 110.827 4.41491 102.51 12.1708 93.2507C18.48 85.7117 27.265 77.4547 38.3023 68.734C51.1592 58.5623 66.507 48.1363 83.913 37.7402L84.0025 37.6804C93.1306 32.2355 97.471 25.1004 97.5157 25.0405L99.2906 22.0938L98.1869 25.3547C96.0988 31.5474 96.0839 35.8854 98.1272 39.0416C100.066 42.0333 103.78 43.918 108.762 45.8476L109.955 46.3114L108.702 46.5656C95.7259 49.2432 84.45 56.5578 72.5029 64.2913C65.5524 68.7938 58.3633 73.4608 50.3389 77.5743C29.2487 88.4042 7.42778 110.019 0.701015 118.216L0 119.084ZM96.7998 27.3441C94.8459 29.902 90.7591 34.5092 84.3903 38.3086L84.3008 38.3685C66.9246 48.7496 51.6067 59.1606 38.7647 69.3173C27.7721 78.0081 19.0169 86.2203 12.7376 93.7294C5.51863 102.375 1.52135 110.139 0.865083 116.855C8.36744 108.045 29.5321 87.417 50.0257 76.9012C58.0202 72.8026 65.1795 68.1506 72.1151 63.6481C83.749 56.1091 94.7564 48.9739 107.36 46.072C102.811 44.2471 99.4099 42.3474 97.5157 39.4305C95.6066 36.4837 95.3679 32.6095 96.7998 27.3441Z" fill="#9A6F3A"/>
<path d="M82.1836 45.4583C82.1836 45.4583 82.8548 43.2893 84.7938 41.958C89.4026 38.8018 92.2961 42.1226 92.2961 42.1226C90.029 40.8212 87.6426 40.9708 85.2263 42.5713C83.3619 43.7829 82.1836 45.4433 82.1836 45.4583Z" fill="#9A6F3A"/>
<path d="M79.5879 50.3354C79.5879 50.3354 87.493 40.0142 90.5506 43.9033C92.594 46.6706 89.253 48.1515 86.1804 47.6728C84.2862 47.4933 82.377 48.2861 79.5879 50.3354Z" fill="#BE742E"/>
<path d="M77.6934 52.175L79.2893 50.0958C79.5279 49.7966 85.0167 42.6614 88.7604 42.6465C89.6106 42.6465 90.3116 42.9905 90.8486 43.6637C91.8181 44.98 91.6093 45.9373 91.2662 46.5207C90.431 47.9118 88.0594 48.3307 86.1354 48.0315C84.3754 47.867 82.5408 48.6298 79.8113 50.6343L77.6934 52.175ZM88.7754 43.3944C86.5381 43.4094 83.4208 46.4609 81.5415 48.585C83.3462 47.5379 84.7781 47.1639 86.2099 47.2985H86.2249C88.1489 47.5977 90.0432 47.0891 90.6248 46.1318C90.953 45.5783 90.8337 44.9052 90.252 44.1274C89.8642 43.6337 89.3869 43.3944 88.7754 43.3944Z" fill="#9A6F3A"/>
</g>
<defs>
<radialGradient id="paint0_radial_501_609" cx="0" cy="0" r="1" gradientUnits="userSpaceOnUse" gradientTransform="translate(127.133 27.6717) rotate(165.347) scale(9.09212 9.3269)">
<stop stop-color="#0092D4"/>
<stop offset="0.2844" stop-color="#0091D2"/>
<stop offset="0.3869" stop-color="#018CCB"/>
<stop offset="0.46" stop-color="#0285C0"/>
<stop offset="0.519" stop-color="#037AAF"/>
<stop offset="0.5696" stop-color="#056C99"/>
<stop offset="0.6143" stop-color="#075A7D"/>
<stop offset="0.6539" stop-color="#09465E"/>
<stop offset="0.6667" stop-color="#0A3E52"/>
<stop offset="0.949" stop-color="#1F2428"/>
<stop offset="1" stop-color="#231F20"/>
</radialGradient>
<clipPath id="clip0_501_609">
<rect width="307" height="433" fill="white"/>
</clipPath>
</defs>
</svg>
