<svg width="437" height="428" viewBox="0 0 437 428" fill="none" xmlns="http://www.w3.org/2000/svg">
<path d="M59.5974 170.784C55.8245 172.307 48.9492 172.602 39.4488 179.387C31.3008 185.205 28.5962 192.478 26.2324 195.603C21.2436 199.467 5.94754 202.183 1.53828 219.297C-4.5756 243.048 13.8797 252.094 18.0844 265.947C20.789 274.879 18.8685 282.789 20.5163 290.391C22.4936 299.482 29.9485 311.21 37.5397 310.221C46.6764 309.028 49.5061 301.801 49.5061 301.801L59.5974 170.784Z" fill="#C67026"/>
<path d="M21.3691 293.505C24.1533 301.937 30.79 311.108 37.5402 310.233C46.6769 309.04 49.5066 301.812 49.5066 301.812L51.9953 269.481C48.0975 277.891 44.5405 285.823 37.8243 292.539C36.9266 301.562 25.3807 302.471 21.3691 293.505Z" fill="#B25C13"/>
<path d="M19.0951 261.822C15.879 254.322 10.6516 250.015 6.6514 243.196C3.43537 237.719 1.62848 227.843 3.56037 220.525C6.11729 210.797 15.2767 203.058 23.8225 199.422C21.0611 204.024 14.7994 212.388 11.8334 214.388C22.5043 212.309 28.4818 193.353 36.0162 185.671C44.1983 177.33 54.8237 174.239 59.3921 173.193L59.5739 170.784C55.8011 172.307 48.9258 172.602 39.4254 179.387C31.2774 185.205 28.5727 192.478 26.209 195.603C21.2202 199.467 5.9241 202.183 1.51484 219.297C-4.59903 243.048 13.8562 252.094 18.0609 265.947C19.5042 270.709 19.6292 275.175 19.686 279.459C21.3679 273.197 21.7997 268.356 19.0951 261.822Z" fill="#E2945A"/>
<path d="M36.6426 310.586C33.3584 310.586 29.8583 308.381 26.6763 304.278C23.6649 300.392 21.2443 295.233 20.2102 290.46C19.4829 287.107 19.4488 283.755 19.4033 280.209C19.3465 275.698 19.3011 271.039 17.7896 266.038C16.4032 261.447 13.4258 257.39 10.278 253.106C7.11876 248.799 3.85727 244.344 1.86855 238.946C-0.392898 232.798 -0.597452 226.355 1.23217 219.23C4.61866 206.047 14.5168 201.263 21.0625 198.104C23.0853 197.127 24.8354 196.286 25.9945 195.388C26.5741 194.626 27.1764 193.592 27.8809 192.399C30.0856 188.66 33.097 183.535 39.2564 179.149C46.3362 174.092 51.8819 172.637 55.9388 171.569C57.3139 171.205 58.5071 170.898 59.4617 170.512L59.9163 170.33L49.7909 301.881L49.7795 301.926C49.7454 302.006 49.0295 303.813 47.1544 305.79C45.4271 307.608 42.3701 309.915 37.5631 310.54C37.2677 310.563 36.9608 310.586 36.6426 310.586ZM59.2572 171.239C58.348 171.569 57.3025 171.842 56.1093 172.148C52.0978 173.205 46.6089 174.648 39.6314 179.637C33.5857 183.956 30.6083 189.013 28.4264 192.706C27.6991 193.933 27.0854 194.99 26.4718 195.786L26.4491 195.82L26.415 195.842C25.199 196.786 23.4148 197.649 21.3352 198.649C14.8918 201.763 5.14141 206.468 1.8231 219.377C-2.21115 235.037 4.39138 244.038 10.7666 252.742C13.9486 257.083 16.9487 261.175 18.3692 265.857C19.9033 270.925 19.9602 275.641 20.017 280.198C20.0624 283.721 20.0965 287.039 20.8125 290.323C21.8352 295.005 24.199 300.085 27.165 303.892C30.5174 308.21 34.1766 310.336 37.4949 309.904C42.1088 309.301 45.0521 307.097 46.7112 305.358C48.359 303.619 49.0977 301.983 49.2113 301.71L59.2572 171.239Z" fill="#512300"/>
<path d="M11.8477 214.389C15.2114 212.253 22.814 200.707 25.9618 195.445L26.4846 195.763C24.7573 198.639 20.4503 205.412 16.7115 210.173C14.3137 213.56 11.8477 214.389 11.8477 214.389Z" fill="#512300"/>
<path d="M31.7125 373.938C25.4736 373.188 12.0867 376.097 5.54098 385.234C-0.891093 394.211 1.98402 404.132 7.41605 405.621C9.26839 411.917 17.1892 416.03 23.6894 413.473C28.5532 417.78 49.8722 419.644 56.2361 411.973C56.9862 400.007 31.7125 373.938 31.7125 373.938Z" fill="#FFF2F0"/>
<path d="M19.8708 399.041C15.5865 401.985 9.01808 400.916 8.41578 392.939C5.01792 394.303 3.26786 391.336 4.80201 386.348C-0.641387 395.007 2.22236 404.178 7.41574 405.621C9.26809 411.917 17.1889 416.031 23.6891 413.474C28.5529 417.781 49.8719 419.644 56.2358 411.974C56.4517 408.496 54.4744 403.837 51.5652 398.962C46.565 410.826 25.4733 408.78 19.8708 399.041Z" fill="#E3D3D1"/>
<path d="M39.7466 417.531C33.0418 417.531 26.3029 416.042 23.6324 413.837C20.5413 414.996 16.9389 414.758 13.7229 413.178C10.5068 411.599 8.13175 408.951 7.17717 405.882C5.04072 405.223 3.26793 403.314 2.31334 400.61C1.54059 398.428 1.35876 395.916 1.77923 393.348C2.24516 390.461 3.43839 387.677 5.3021 385.075C9.02951 379.881 14.6206 377.063 18.6435 375.62C24.0756 373.665 28.9735 373.336 31.7463 373.665L31.8486 373.677L31.9281 373.756C31.9963 373.824 38.3261 380.381 44.4968 388.314C52.8039 399.007 56.8609 406.985 56.5427 412.03L56.5314 412.133L56.4632 412.212C54.0767 415.099 49.2924 416.951 43.0195 417.44C41.9513 417.485 40.8489 417.531 39.7466 417.531ZM23.7574 413.133L23.8937 413.258C26.7688 415.803 35.3374 417.394 42.9854 416.803C49.0424 416.337 53.6335 414.587 55.9404 411.871C56.1791 407.042 52.0539 399.019 44.0195 388.666C38.2352 381.222 32.3031 375.006 31.5758 374.233C25.7802 373.586 12.416 376.177 5.80212 385.416C2.3588 390.211 1.27921 395.814 2.89291 400.394C3.80204 402.973 5.48392 404.769 7.50673 405.326L7.66582 405.371L7.71128 405.53C8.58632 408.508 10.8705 411.087 13.9956 412.61C17.1207 414.144 20.6209 414.349 23.5869 413.19L23.7574 413.133Z" fill="#7F7F7F"/>
<path d="M7.11952 405.69C5.78992 399.667 6.93769 393.553 10.3469 388.462C12.0629 385.905 14.2789 383.746 16.6767 382.212C19.8359 380.155 22.5406 380.473 22.5406 380.473C18.279 381.212 13.8016 384.405 10.8583 388.803C7.53999 393.746 6.42631 399.701 7.72182 405.553L7.11952 405.69Z" fill="#7F7F7F"/>
<path d="M23.4717 413.69C19.0169 408.928 19.1192 402.78 19.5851 399.53C19.9147 397.201 20.642 394.95 21.5852 393.075C23.5171 389.518 25.4717 389.325 25.4717 389.325C23.0171 390.78 20.8352 395.007 20.1874 399.61C19.7442 402.746 19.6306 408.69 23.9148 413.258L23.4717 413.69Z" fill="#7F7F7F"/>
<path d="M213.741 377.622C213.741 377.622 213.184 388.225 224.593 388.407C227.389 392.895 233.878 394.93 247.787 393.645C262.186 392.316 271.652 388.384 275.232 384.668C279.471 380.258 281.073 372.042 285.005 364.656C294.346 347.132 312.313 330.779 312.688 322.938C313.063 315.086 308.199 310.597 308.199 310.597L248.151 325.575L213.741 377.622Z" fill="#FFF2F0"/>
<path d="M308.211 310.597L282.107 317.108C284.403 323.87 285.983 331.222 281.994 337.711C281.471 338.405 274.937 346.269 270.096 354.019C264.925 362.292 264.152 370.622 259.709 374.338C252.118 380.679 225.696 382.349 220.855 366.883L213.752 377.622C213.752 377.622 213.196 388.225 224.605 388.407C227.401 392.895 233.89 394.93 247.799 393.645C262.198 392.316 271.664 388.384 275.243 384.668C279.482 380.258 281.085 372.042 285.017 364.656C294.358 347.132 312.324 330.779 312.7 322.938C313.075 315.086 308.211 310.597 308.211 310.597Z" fill="#E3D3D1"/>
<path d="M240.333 394.338C231.912 394.338 226.889 392.531 224.423 388.713C220.911 388.622 218.161 387.542 216.252 385.508C213.229 382.258 213.423 377.803 213.434 377.61V377.531L213.479 377.462L247.969 325.313L308.29 310.267L308.415 310.38C308.472 310.426 309.676 311.562 310.858 313.687C311.949 315.642 313.199 318.835 313.006 322.96C312.801 327.245 307.733 333.677 301.324 341.813C295.846 348.768 289.641 356.643 285.289 364.803C283.755 367.689 282.584 370.678 281.448 373.565C279.721 377.985 278.084 382.156 275.459 384.883C272.129 388.338 263.129 392.543 247.822 393.963C245.072 394.213 242.583 394.338 240.333 394.338ZM214.048 377.724C214.036 378.337 214.07 382.269 216.707 385.099C218.525 387.042 221.173 388.054 224.593 388.111H224.764L224.855 388.247C227.798 392.963 234.855 394.543 247.765 393.338C262.902 391.94 271.766 387.826 275.016 384.451C277.55 381.815 279.164 377.701 280.88 373.337C282.016 370.428 283.198 367.428 284.755 364.507C289.13 356.302 295.358 348.393 300.846 341.427C306.938 333.688 312.211 327.006 312.404 322.915C312.733 315.983 308.847 311.664 308.131 310.926L248.367 325.835L214.048 377.724Z" fill="#7F7F7F"/>
<path d="M224.321 388.555C223.241 386.395 222.093 382.895 222.752 378.475C223.411 374.054 225.718 369.668 229.616 365.429C233.241 361.485 238.31 359.69 244.276 360.224C245.605 360.349 246.878 360.565 248.06 360.849C252.583 361.985 254.06 363.735 254.06 363.735C252.935 363.076 248.958 361.258 244.23 360.838C238.378 360.304 233.616 361.997 230.082 365.838C220.468 376.293 223.241 385.02 224.877 388.282L224.321 388.555Z" fill="#7F7F7F"/>
<path d="M98.8926 354.36C150.145 338.098 151.27 301.04 151.27 301.04L199.294 331.325C199.294 331.325 163.066 375.702 146.281 382.68C129.496 389.668 111.529 382.68 111.529 382.68L98.8926 354.36Z" fill="#FFF2F0"/>
<path d="M177.307 317.449C173.319 329.711 169.568 342.109 160.227 350.928C145.045 368.156 128.101 373.315 108.805 376.554L111.532 382.679C111.532 382.679 129.499 389.668 146.283 382.679C163.068 375.69 199.297 331.325 199.297 331.325L177.307 317.449Z" fill="#E3D3D1"/>
<path d="M129.747 386.078C127.088 386.078 124.644 385.873 122.565 385.6C116.019 384.737 111.462 382.975 111.417 382.964L111.303 382.918L98.4844 354.167L98.8139 354.065C125.201 345.701 137.975 331.701 144.054 321.439C150.623 310.336 150.975 301.108 150.986 301.018L150.998 300.483L151.452 300.768L199.761 331.235L199.545 331.507C199.454 331.621 190.352 342.746 179.317 354.576C164.487 370.486 153.407 380.032 146.407 382.953C140.668 385.339 134.804 386.078 129.747 386.078ZM111.746 382.43C112.496 382.703 116.758 384.214 122.656 384.987C128.622 385.771 137.554 385.964 146.157 382.384C152.975 379.543 164.282 369.782 178.851 354.156C188.92 343.349 197.386 333.144 198.829 331.382L151.532 301.552C151.35 303.677 150.316 312.018 144.554 321.734C140.656 328.325 135.372 334.269 128.883 339.383C120.838 345.712 110.894 350.815 99.3026 354.52L111.746 382.43Z" fill="#7F7F7F"/>
<path d="M78.1916 418.088C105.769 418.088 128.125 395.732 128.125 368.154C128.125 340.577 105.769 318.221 78.1916 318.221C50.6139 318.221 28.2578 340.577 28.2578 368.154C28.2578 395.732 50.6139 418.088 78.1916 418.088Z" fill="#F2E93D"/>
<path d="M100.042 323.243C109.986 331.618 114.906 342.948 115.463 354.972C116.77 383.189 96.5306 404.61 66.4158 403.655C52.8243 403.224 39.1534 397.792 31.4258 385.689C38.5283 404.61 56.779 418.076 78.189 418.076C105.77 418.076 128.123 395.723 128.123 368.143C128.123 348.415 116.668 331.346 100.042 323.243Z" fill="#D8CB2A"/>
<path d="M78.1902 418.395C71.4058 418.395 64.826 417.065 58.6326 414.452C52.6551 411.917 47.2799 408.304 42.6661 403.69C38.0522 399.076 34.4271 393.701 31.9043 387.723C29.2792 381.53 27.9609 374.95 27.9609 368.166C27.9609 361.381 29.2905 354.802 31.9043 348.608C34.4385 342.631 38.0522 337.255 42.6661 332.642C47.2799 328.028 52.6551 324.403 58.6326 321.88C64.826 319.255 71.4058 317.937 78.1902 317.937C84.9745 317.937 91.5543 319.266 97.7477 321.88C103.725 324.414 109.1 328.028 113.714 332.642C118.328 337.255 121.953 342.631 124.476 348.608C127.101 354.802 128.419 361.381 128.419 368.166C128.419 374.95 127.09 381.53 124.476 387.723C121.942 393.701 118.328 399.076 113.714 403.69C109.1 408.304 103.725 411.929 97.7477 414.452C91.5543 417.065 84.9745 418.395 78.1902 418.395ZM78.1902 318.527C50.8255 318.527 28.5632 340.79 28.5632 368.154C28.5632 395.519 50.8255 417.781 78.1902 417.781C105.555 417.781 127.817 395.519 127.817 368.154C127.817 340.79 105.555 318.527 78.1902 318.527Z" fill="#726700"/>
<path d="M98.9743 413.725C98.8152 413.611 95.1446 410.781 91.4172 404.293C89.224 400.486 87.4739 396.213 86.2125 391.576C84.6329 385.792 83.826 379.428 83.7919 372.678C83.7351 360.734 86.3602 349.904 91.599 340.461C96.372 331.858 101.94 327.017 104.111 325.335L104.486 325.812C102.349 327.471 96.8606 332.244 92.1332 340.756C86.9511 350.097 84.3488 360.836 84.3942 372.666C84.4624 387.815 88.5194 398.031 91.9172 403.94C95.5878 410.338 99.3039 413.191 99.338 413.225L98.9743 413.725Z" fill="#726700"/>
<path d="M53.1994 411.736C48.0856 407.19 43.9945 401.258 41.0512 394.11C38.2898 387.417 36.6192 379.701 36.2215 371.803C35.3919 355.461 39.8353 339.392 48.4038 327.71L48.8924 328.074C40.4035 339.642 36.0056 355.563 36.8238 371.768C37.6534 388.144 43.7672 402.542 53.5972 411.27L53.1994 411.736Z" fill="#726700"/>
<path d="M129.486 306.505C129.486 306.505 145.146 307.551 152.76 310.278C164.329 314.415 176.818 334.029 190.864 334.722C215.797 338.654 246.661 343.7 246.661 343.7C261.628 341.825 296.879 327.938 317.8 310.585C337.506 294.244 342.995 278.402 342.995 278.402L396.667 190.899C394.042 181.216 389.519 166.852 378.166 152.329C370.053 141.965 362.973 137.181 362.973 137.181L260.662 224.127L168.249 262.39L129.486 306.505Z" fill="#FFF2F0"/>
<path d="M183.136 317.291C181.261 324.882 174.42 326.473 169.67 322.723C176.363 328.621 183.398 334.36 190.875 334.724C192.796 335.03 194.762 335.337 196.728 335.644C197.807 332.939 199.012 330.28 200.217 327.7C193.785 327.36 186.352 322.291 183.136 317.291Z" fill="#E3D3D1"/>
<path d="M300.141 236.696C301.516 245.106 314.619 284.994 288.664 298.426C273.004 306.529 255.299 299.949 250.639 296.778C250.708 302.347 247.355 305.563 246.287 309.495C243.491 320.688 243.662 332.427 238.332 342.337C243.48 343.178 246.662 343.7 246.662 343.7C261.628 341.825 296.88 327.939 317.801 310.586C337.506 294.244 342.995 278.402 342.995 278.402L351.234 264.959C339.188 259.22 327.415 252.742 315.551 246.276C310.21 243.435 303.346 242.06 300.141 236.696Z" fill="#E3D3D1"/>
<path d="M378.167 152.341C373.235 146.034 368.689 141.806 365.871 139.442C378.292 154.625 385.724 177.773 389.429 202.115L396.668 190.899C394.054 181.217 389.52 166.864 378.167 152.341Z" fill="#E3D3D1"/>
<path d="M246.661 344.019L246.616 344.008C246.309 343.962 215.478 338.916 190.841 335.03C182.579 334.609 174.988 327.859 167.647 321.336C162.408 316.677 157.453 312.279 152.669 310.563C145.18 307.881 129.634 306.813 129.475 306.813L128.861 306.767L129.27 306.302L168.079 262.129L168.147 262.107L260.526 223.866L362.973 136.795L363.166 136.92C363.234 136.965 370.382 141.852 378.428 152.136C383.451 158.557 387.678 165.671 390.997 173.296C393.928 180.024 395.735 186.195 396.997 190.808L397.031 190.933L396.963 191.047L343.301 278.528C343.154 278.925 341.699 282.846 338.074 288.517C334.563 294.017 328.233 302.335 318.028 310.813C297.004 328.257 261.753 342.11 246.73 343.996L246.661 344.019ZM130.123 306.256C133.1 306.483 146.146 307.597 152.862 310.006C157.772 311.756 162.76 316.2 168.045 320.893C175.318 327.359 182.829 334.041 190.886 334.439H190.921C215.137 338.257 245.343 343.189 246.673 343.417C254.389 342.439 267.105 338.337 279.879 332.7C294.811 326.098 308.209 318.177 317.607 310.381C327.755 301.96 334.04 293.687 337.529 288.233C341.301 282.323 342.688 278.369 342.699 278.335L342.711 278.3L396.338 190.877C393.463 180.297 388.758 166.398 377.917 152.546C370.655 143.261 364.155 138.431 362.984 137.59L260.821 224.412L168.42 262.652L130.123 306.256Z" fill="#7F7F7F"/>
<path d="M349.178 82.2027C344.03 74.0887 338.723 68.7476 332.427 63.4519C328.097 63.0542 323.768 62.986 319.551 64.6565C316.563 65.9066 314.813 68.6453 314.813 71.5204C314.813 74.3842 313.188 76.7593 311.574 78.998C310.324 80.7481 308.585 80.6231 306.585 80.8731C306.358 80.9072 306.176 80.9981 305.994 81.1117C314.938 89.7257 322.938 96.0555 328.972 109.136C332.859 117.568 330.404 128.261 330.404 128.261C330.404 128.261 347.871 140.557 360.405 137.193C365.076 116.238 357.973 96.0441 349.178 82.2027Z" fill="#C67026"/>
<path d="M349.178 82.2021C344.03 74.0882 338.723 68.7471 332.428 63.4514C328.587 63.0991 327.234 62.94 323.416 63.5878C324.609 64.9742 338.155 72.9177 348.303 92.8616C355.485 106.964 357.792 126.579 353.349 137.67C355.77 137.909 358.167 137.807 360.406 137.204C365.077 116.238 357.974 96.0436 349.178 82.2021Z" fill="#B25C13"/>
<path d="M323.302 94.5773C318.711 89.2476 314.631 84.736 309.017 80.5654C308.267 80.7132 307.449 80.7586 306.585 80.8609C306.358 80.895 306.176 80.9859 305.994 81.0995C314.938 89.7135 322.938 96.0433 328.972 109.123C332.859 117.556 330.404 128.249 330.404 128.249C330.404 128.249 331.563 129.056 333.484 130.215C336.689 110.533 328.12 100.168 323.302 94.5773Z" fill="#E2945A"/>
<path d="M355.735 138.079C350.383 138.079 344.769 136.147 340.575 134.272C334.689 131.636 330.268 128.545 330.223 128.511L330.052 128.397L330.098 128.192C330.12 128.09 332.484 117.499 328.689 109.26C323.529 98.0663 317.018 91.9411 309.483 84.8385C308.279 83.7021 307.029 82.5316 305.779 81.327L305.506 81.0656L305.824 80.8497C306.063 80.6906 306.29 80.5997 306.54 80.5656C306.858 80.5315 307.165 80.4974 307.46 80.4633C309.074 80.3042 310.347 80.1792 311.324 78.8156C313.063 76.4064 314.506 74.1904 314.506 71.5084C314.506 68.4174 316.438 65.6105 319.438 64.3718C323.813 62.6445 328.279 62.7581 332.461 63.1445L332.552 63.1558L332.621 63.2127C338.041 67.7697 343.826 73.2017 349.439 82.0316C354.349 89.7592 358.053 98.3845 360.144 106.953C362.679 117.363 362.872 127.556 360.713 137.261L360.667 137.443L360.485 137.488C358.951 137.897 357.36 138.079 355.735 138.079ZM330.745 128.124C331.598 128.704 335.632 131.386 340.837 133.715C346.155 136.091 353.792 138.568 360.144 136.943C365.588 112.203 354.121 90.5433 348.917 82.3611C343.382 73.6449 337.655 68.2583 332.302 63.7468C328.234 63.3718 323.882 63.2695 319.665 64.94C316.904 66.0878 315.12 68.6674 315.12 71.5198C315.12 74.3836 313.62 76.6791 311.824 79.1792C310.688 80.7702 309.154 80.9179 307.517 81.077C307.222 81.1111 306.926 81.1338 306.62 81.1679C306.585 81.1679 306.551 81.1793 306.517 81.1906C307.665 82.293 308.801 83.3612 309.904 84.3953C317.484 91.532 324.041 97.7027 329.245 108.999C332.848 116.794 331.052 126.59 330.745 128.124Z" fill="#512300"/>
<path d="M320.299 72.8032C323.458 69.4735 330.583 67.8144 339.311 70.1667C339.47 70.0985 339.697 70.144 339.606 70.0531C333.356 63.6437 326.31 58.6549 317.31 51.3478C303.468 40.1201 296.707 30.1311 295.116 19.9034C293.275 8.11885 295.673 0.493555 292.673 0.300366C289.672 0.11854 284.263 5.49375 281.831 15.2214C279.399 24.9491 277.183 44.3021 290.809 63.6665C297.298 72.8941 303.616 78.883 309.435 84.3718C311.776 84.2809 314.889 83.8605 316.719 82.599C320.946 79.7012 317.708 75.5306 320.299 72.8032Z" fill="#FFF2F0"/>
<path d="M291.898 19.7902C293.489 30.0178 298.648 41.1319 312.194 53.0869C318.342 58.519 324.922 63.8146 330.229 69.0876C332.934 68.9625 336.002 69.2694 339.286 70.1558C339.411 70.0421 339.673 70.1217 339.57 70.0194C333.331 63.6214 326.286 58.6326 317.297 51.3482C303.455 40.1205 296.694 30.1315 295.103 19.9038C293.262 8.11927 295.66 0.493971 292.659 0.300781C293.125 1.9713 290.068 8.00563 291.898 19.7902Z" fill="#E3D3D1"/>
<path d="M340.084 70.1101C335.458 65.3145 330.356 61.3029 324.458 56.655C322.242 54.9163 319.958 53.1094 317.503 51.1207C304.059 40.2226 297.048 30.2904 295.423 19.8695C294.616 14.6875 294.627 10.2555 294.639 7.01673C294.65 2.72111 294.661 0.130098 292.695 0.00509324C291.025 -0.0971835 288.82 1.34605 286.809 3.86888C284.525 6.73263 282.649 10.7441 281.547 15.1648C280.377 19.8695 279.149 27.2789 280.013 35.8815C281.013 45.9046 284.57 55.3254 290.582 63.8712C297.161 73.2352 303.559 79.2695 309.219 84.5879C309.23 84.5993 309.787 84.4061 309.889 84.3834C309.855 84.3493 309.628 84.1561 309.571 84.0879C303.957 78.8036 297.605 72.8034 291.082 63.5189C277.615 44.3705 279.706 25.097 282.149 15.3239C284.547 5.74395 289.741 0.630118 292.536 0.630118C292.582 0.630118 292.627 0.630118 292.673 0.630118C294.002 0.709666 294.059 2.76656 294.036 7.02809C294.025 10.2896 294.014 14.7443 294.82 19.9718C296.468 30.5631 303.559 40.609 317.117 51.6094C319.571 53.5981 321.867 55.405 324.083 57.155C329.64 61.5302 334.481 65.3372 338.868 69.7578C338.856 69.7578 339.072 69.9737 339.288 70.1897C339.629 70.1556 340.084 70.1101 340.084 70.1101Z" fill="#7F7F7F"/>
<path d="M366.439 140.102C365.2 145.136 370.121 177.728 363.95 191.661C356.097 209.389 334.585 200.002 327.528 203.832C323.312 206.116 322.414 213.559 318.55 217.173C314.687 220.787 304.47 217.219 299.595 220.662C288.561 228.469 289.867 251.845 285.754 258.197C281.64 264.561 273.901 263.811 270.662 266.425C267.423 269.039 267.548 274.755 261.309 280.255C255.071 285.755 242.854 285.255 234.865 288.369C226.888 291.483 218.274 302.461 210.171 308.449C202.069 314.438 185.352 317.882 183.602 315.563C181.852 313.234 184.181 307.495 180.193 304.677C176.204 301.847 172.045 302.188 166.476 301.097C160.908 300.017 156.419 294.699 152.26 294.699C155.589 289.54 175.477 210.139 175.477 210.139C175.477 210.139 197.455 203.593 209.239 196.854C221.024 190.115 235.24 176.649 247.582 162.626C259.923 148.602 272.719 134.09 292.652 126.897C327.289 114.419 353.802 128.59 366.439 140.102Z" fill="#C67026"/>
<path d="M250.741 165.501C263.083 151.466 273.651 137.67 293.504 130.227C326.506 117.851 353.177 129.704 366.428 140.113C353.938 128.931 327.278 114.43 292.663 126.908C272.719 134.102 259.935 148.602 247.593 162.637C235.252 176.671 221.036 190.138 209.251 196.865C197.466 203.604 175.488 210.15 175.488 210.15C175.488 210.15 197.716 207.093 209.501 200.354C221.286 193.627 238.4 179.524 250.741 165.501Z" fill="#E2945A"/>
<path d="M175.75 210.389C177.807 209.764 198.273 203.491 209.41 197.127C223.842 188.877 239.684 172.103 247.832 162.83C260.151 148.841 272.878 134.363 292.777 127.193C331.71 113.147 358.836 133.477 366.393 140.295C366.541 139.943 366.678 139.738 366.678 139.738C362.109 135.568 352.257 128.136 337.881 124.215C323.289 120.226 308.039 121.045 292.572 126.624C272.526 133.863 259.742 148.387 247.377 162.444C239.241 171.683 223.456 188.411 209.103 196.616C197.489 203.252 175.625 209.809 175.409 209.866L175.238 209.912L175.193 210.082C175.011 210.809 158.669 275.948 153.271 291.494C153.487 291.494 153.703 291.494 153.908 291.494C159.306 275.823 174.591 214.98 175.75 210.389Z" fill="#512300"/>
<path d="M248.224 202.092C261.27 203.035 272.804 193.649 277.157 189.444C282.896 183.887 281.952 181.523 287.055 177.489C292.214 173.421 297.18 176.796 306.59 171.921C320.306 164.807 319.306 152.465 322.806 147.226C326.295 141.988 330.284 142.738 332.284 135.249C333.307 131.396 332.818 126.805 330.897 122.998C319.795 121.146 306.931 121.771 292.68 126.907C272.736 134.101 259.952 148.602 247.61 162.636C241.087 170.046 234.041 177.307 227.109 183.501C228.871 190.387 231.803 200.899 248.224 202.092Z" fill="#212121"/>
<path d="M250.746 165.5C263.088 151.465 273.656 137.669 293.509 130.226C307.68 124.919 320.681 124.066 331.954 125.657C331.681 124.782 331.34 123.919 330.931 123.1C330.715 122.668 327.249 122.566 326.692 122.509C325.17 122.35 323.647 122.225 322.113 122.168C318.897 122.032 315.658 122.123 312.453 122.418C305.748 123.043 299.1 124.566 292.782 126.873C285.395 129.566 278.531 133.408 272.281 138.158C261.519 146.328 253.03 156.783 243.973 166.693C238.689 172.477 233.155 178.068 227.325 183.296C227.245 183.364 227.177 183.432 227.098 183.5C227.393 184.637 227.711 185.875 228.12 187.148C235.996 180.693 244.076 173.08 250.746 165.5Z" fill="#544F4D"/>
<path d="M250.064 202.468C249.45 202.468 248.825 202.445 248.2 202.399C240.859 201.865 235.529 199.49 231.927 195.126C228.79 191.331 227.597 186.66 226.801 183.569L226.756 183.387L226.892 183.262C233.438 177.421 240.518 170.216 247.37 162.432C259.734 148.386 272.519 133.851 292.565 126.612C305.543 121.93 318.453 120.612 330.93 122.68L331.078 122.703L331.146 122.84C333.078 126.692 333.612 131.351 332.555 135.306C331.317 139.931 329.305 141.499 327.18 143.159C325.805 144.227 324.385 145.34 323.032 147.363C322.044 148.841 321.43 150.909 320.703 153.307C319.805 156.307 318.782 159.705 316.737 163.034C314.362 166.898 311.089 169.887 306.702 172.16C301.816 174.694 298.179 175.012 294.974 175.296C291.997 175.558 289.656 175.773 287.213 177.694C284.622 179.739 283.622 181.342 282.463 183.194C281.372 184.933 280.144 186.91 277.337 189.626C274.167 192.751 263.087 202.468 250.064 202.468ZM248.245 201.786C261.814 202.774 273.644 192.41 276.94 189.217C279.69 186.558 280.894 184.615 281.963 182.899C283.144 181.001 284.179 179.353 286.849 177.239C289.429 175.205 291.974 174.978 294.929 174.717C298.077 174.432 301.656 174.114 306.429 171.637C316.066 166.648 318.316 159.171 320.123 153.159C320.862 150.716 321.498 148.602 322.532 147.045C323.941 144.943 325.396 143.795 326.805 142.693C328.942 141.033 330.783 139.59 331.965 135.158C332.965 131.385 332.487 126.953 330.669 123.26C318.339 121.237 305.588 122.555 292.758 127.181C272.86 134.363 260.121 148.829 247.814 162.818C240.995 170.569 233.938 177.751 227.426 183.581C229.097 190.035 231.949 200.604 248.245 201.786Z" fill="black"/>
<path d="M212.626 217.741C216.933 215.684 223.104 214.923 230.207 219.173C237.32 223.423 239.991 226.775 240.684 230.162C241.627 234.742 239.934 235.753 240.684 240.537C241.434 245.322 243.298 250.208 239.559 254.401C235.82 258.595 219.729 265.141 210.194 258.22C200.649 251.299 212.626 217.741 212.626 217.741Z" fill="#212121"/>
<path d="M220.627 261.55C216.479 261.55 212.831 260.504 210.013 258.47C207.763 256.834 206.49 253.652 206.24 248.993C206.047 245.322 206.479 240.731 207.524 235.333C209.308 226.162 212.297 217.73 212.331 217.639L212.377 217.526L212.49 217.469C214.99 216.275 217.638 215.719 220.377 215.787C223.695 215.878 227.059 216.935 230.366 218.912C236.923 222.833 240.196 226.287 240.98 230.094C241.48 232.503 241.264 233.924 241.037 235.424C240.832 236.788 240.628 238.197 240.98 240.481C241.105 241.276 241.264 242.083 241.412 242.879C242.185 246.868 242.992 250.993 239.776 254.607C237.946 256.652 233.014 259.436 227.105 260.777C224.855 261.289 222.673 261.55 220.627 261.55ZM212.865 217.969C212.502 219.026 209.786 226.924 208.127 235.458C205.797 247.436 206.57 255.232 210.365 257.982C215.831 261.948 223.127 261.073 226.98 260.186C232.764 258.868 237.571 256.175 239.332 254.197C242.344 250.822 241.605 247.015 240.821 243.004C240.662 242.208 240.503 241.39 240.378 240.583C240.003 238.208 240.219 236.754 240.435 235.344C240.651 233.89 240.855 232.526 240.378 230.219C239.628 226.583 236.446 223.264 230.048 219.435C222.684 215.037 216.661 216.185 212.865 217.969Z" fill="black"/>
<path d="M146.702 304.234C153.191 299.495 172.783 292.972 184.942 284.199C197.102 275.437 195.943 244.345 187.715 222.276C179.487 200.207 171.669 180.967 149.782 168.808C127.895 156.648 99.4843 157.444 81.6086 161.432C60.8237 166.069 46.5505 176.149 37.1637 194.434C29.5725 209.196 28.2088 220.571 29.6975 231.287C31.3908 243.493 37.0728 246.936 37.7092 250.072C37.2092 255.22 30.8453 260.459 32.4704 275.676C34.425 294.097 44.5731 302.722 50.187 305.529C55.7781 308.336 146.702 304.234 146.702 304.234Z" fill="#C67026"/>
<path d="M51.9002 273.733C60.7073 273.176 67.1621 261.994 66.3212 248.766C65.4802 235.538 57.5936 225.947 48.7978 226.504C41.3543 226.969 35.6609 234.345 34.5586 244.811C36.0814 247.152 37.411 248.641 37.7064 250.073C37.5133 252.061 36.445 254.061 35.3086 256.641C37.6951 266.914 44.4453 274.21 51.9002 273.733Z" fill="#B25C13"/>
<path d="M173.543 277.244C159.168 284.607 145.997 286.13 138.451 304.426C144.895 304.165 146.69 304.233 146.69 304.233C153.179 299.494 172.771 292.971 184.93 284.198C184.964 284.176 184.998 284.142 185.033 284.119C183.964 277.971 183.419 271.709 183.419 265.584C180.578 270.221 177.839 275.096 173.543 277.244Z" fill="#B25C13"/>
<path d="M38.9118 196.593C48.3099 178.308 61.5036 169.421 82.2772 164.785C100.153 160.796 127.972 160.751 149.859 172.91C171.747 185.07 179.474 200.195 187.702 222.276C179.474 200.195 171.656 180.967 149.768 168.808C127.881 156.648 99.471 157.444 81.5953 161.432C60.8218 166.069 46.5485 176.149 37.1618 194.434C29.5706 209.196 28.2069 220.571 29.6956 231.288C31.3888 243.493 37.0709 246.936 37.7072 250.072C37.0709 246.936 32.0025 243.061 30.832 230.787C29.9229 221.446 31.332 211.355 38.9118 196.593Z" fill="#E2945A"/>
<path d="M68.4029 306.813C58.6298 306.813 51.5045 306.54 50.0272 305.801C47.8567 304.722 43.6292 302.085 39.6859 296.631C35.5494 290.914 33.0152 283.869 32.1401 275.698C31.0265 265.232 33.6743 259.425 35.6062 255.186C36.4699 253.288 37.2199 251.652 37.379 250.083C37.1744 249.14 36.4585 248.117 35.5494 246.822C33.5493 243.969 30.5378 239.662 29.3787 231.321C27.6854 219.093 30.0037 207.673 36.879 194.286C41.5837 185.126 47.493 178.012 54.9251 172.558C62.164 167.239 70.8689 163.5 81.5284 161.125C91.7107 158.853 103.313 158.012 114.2 158.75C127.894 159.682 139.917 162.978 149.917 168.535C160.043 174.16 167.725 181.501 174.112 191.649C179.782 200.661 183.748 210.798 187.987 222.15C192.124 233.23 194.465 246.72 194.271 258.22C194.056 271.027 190.794 280.335 185.112 284.437C178.112 289.483 168.85 293.699 160.679 297.426C154.747 300.131 149.622 302.472 146.872 304.472L146.792 304.529H146.701C143.974 304.665 95.8017 306.813 68.4029 306.813ZM106.416 159.08C97.4381 159.08 88.9037 160.114 81.6648 161.728C60.5844 166.432 46.5271 176.876 37.4244 194.57C30.606 207.843 28.3104 219.15 29.981 231.242C31.1174 239.435 34.0834 243.663 36.0494 246.47C37.0153 247.845 37.7767 248.924 37.9926 250.004L38.004 250.049V250.095C37.8449 251.777 37.0722 253.47 36.1744 255.436C34.2766 259.606 31.6629 265.334 32.7538 275.63C33.6061 283.698 36.1062 290.642 40.1859 296.267C44.1974 301.813 48.5953 304.392 50.2999 305.245C55.6979 307.949 143.235 304.063 146.588 303.915C149.395 301.892 154.509 299.563 160.418 296.869C168.566 293.153 177.794 288.948 184.748 283.937C196.647 275.357 195.703 244.606 187.408 222.366C178.509 198.513 170.589 180.717 149.611 169.069C136.474 161.773 120.871 159.08 106.416 159.08Z" fill="#512300"/>
<path d="M100.555 202.592C100.805 200.933 103.759 192.41 112.112 191.705C118.499 191.16 126.749 197.774 130.158 206.092C124.169 198.853 108.464 192.626 100.555 202.592Z" fill="#963F1B"/>
<path d="M100.555 202.592C100.805 200.932 105.18 194.784 112.18 194.375C118.578 194.012 125.658 198.932 130.147 206.08C124.169 198.853 108.464 192.625 100.555 202.592Z" fill="#6B1F05"/>
<path d="M131.191 207.819L129.918 206.274C126.373 202.001 119.02 197.716 111.747 197.716C111.679 197.716 111.622 197.716 111.554 197.716C107.099 197.762 103.383 199.512 100.792 202.774L100.076 203.671L100.247 202.535C100.349 201.819 101.099 199.194 103.042 196.591C104.656 194.432 107.542 191.762 112.077 191.387C118.566 190.841 126.964 197.512 130.43 205.955L131.191 207.819ZM111.747 197.103C118.406 197.103 125.134 200.603 129.077 204.467C125.35 197.08 117.929 191.5 112.133 191.989C105.338 192.569 102.179 198.523 101.19 201.376C103.838 198.614 107.383 197.137 111.543 197.091C111.622 197.103 111.679 197.103 111.747 197.103Z" fill="#3A0C00"/>
<path d="M52.4807 206.081C51.8557 204.399 49.367 198.967 43.3099 200.217C37.2642 201.467 32.7754 208.888 32.1504 217.741C35.0823 209.263 44.435 199.342 52.4807 206.081Z" fill="#963F1B"/>
<path d="M52.4807 206.082C51.8557 204.4 48.4806 201.013 43.4122 202.252C39.1279 203.297 33.9232 209.218 32.1504 217.741C35.0823 209.264 44.435 199.343 52.4807 206.082Z" fill="#6B1F05"/>
<path d="M31.6855 220.025L31.8446 217.718C32.4924 208.491 37.1858 201.172 43.2542 199.922C49.5272 198.627 52.1182 204.229 52.7659 205.979L53.1637 207.059L52.2773 206.32C49.9022 204.331 47.2771 203.718 44.4929 204.49C39.0836 205.99 34.3334 212.343 32.4356 217.843L31.6855 220.025ZM45.027 200.342C44.5042 200.342 43.9588 200.399 43.3792 200.513C40.5268 201.104 37.9585 203.093 35.9584 206.286C34.3447 208.866 33.2083 212.093 32.697 215.559C35.0152 210.479 39.4018 205.252 44.3338 203.888C46.9702 203.161 49.4476 203.581 51.7431 205.138C50.834 203.274 48.7999 200.342 45.027 200.342Z" fill="#3A0C00"/>
<path d="M104.984 211.173C89.4609 218.151 97.6203 250.766 103.746 257.573C108.734 263.119 117.735 263.289 125.724 261.005C133.713 258.721 137.52 252.266 137.52 246.368C137.52 237.049 126.61 201.457 104.984 211.173Z" fill="#B25C13"/>
<path d="M106.381 216.605C91.7672 222.514 97.6197 250.765 103.745 257.584C108.734 263.13 117.734 263.3 125.723 261.016C133.712 258.732 137.519 252.277 137.519 246.379C137.519 237.049 128.712 207.571 106.381 216.605Z" fill="black"/>
<path d="M107.313 218.526C92.7782 223.901 98.2784 250.959 104.301 257.663C109.211 263.118 118.063 263.289 125.916 261.039C133.768 258.789 137.235 252.993 137.235 247.186C137.235 238.004 128.575 210.65 107.313 218.526Z" fill="white"/>
<path d="M101.393 252.743C102.279 254.823 103.279 256.528 104.302 257.664C109.211 263.119 118.064 263.289 125.916 261.039C133.769 258.789 137.235 252.993 137.235 247.186C137.235 245.209 136.837 242.391 135.996 239.266C135.848 253.266 112.904 263.698 101.393 252.743Z" fill="#E2E2E2"/>
<path d="M116.814 262.698C115.837 262.698 114.882 262.641 113.962 262.539C109.746 262.05 106.416 260.47 104.064 257.868C101.973 255.538 99.9499 250.8 98.8021 245.504C97.4952 239.492 97.4043 233.606 98.5635 228.935C99.1998 226.367 100.2 224.185 101.541 222.435C103.018 220.503 104.927 219.094 107.2 218.253C113.575 215.889 119.348 216.469 124.36 219.946C129.485 223.514 132.656 229.367 134.406 233.64C136.724 239.288 137.542 244.47 137.542 247.197C137.542 250.311 136.576 253.231 134.769 255.641C132.769 258.3 129.735 260.277 126.008 261.345C122.826 262.243 119.701 262.698 116.814 262.698ZM107.314 218.526L107.416 218.81C103.234 220.355 100.461 223.81 99.1544 229.071C96.6316 239.276 100.609 253.106 104.518 257.459C108.712 262.13 116.678 263.357 125.826 260.743C132.781 258.754 136.929 253.686 136.929 247.186C136.929 244.515 136.122 239.413 133.838 233.856C132.122 229.662 129.019 223.924 124.008 220.435C119.178 217.071 113.587 216.526 107.405 218.81L107.314 218.526Z" fill="black"/>
<path d="M123.773 257.087C129.042 256.037 132.233 249.767 130.901 243.083C129.57 236.398 124.219 231.831 118.95 232.88C113.681 233.93 110.49 240.2 111.822 246.884C113.153 253.569 118.504 258.137 123.773 257.087Z" fill="#542416"/>
<path d="M130.908 243.093C132.238 249.775 129.045 256.048 123.783 257.093C118.51 258.139 113.158 253.57 111.828 246.888C117.658 258.071 130.158 252.366 130.908 243.093Z" fill="#A74F45"/>
<path d="M122.753 254.439C126.49 254.031 129.147 250.282 128.687 246.064C128.227 241.847 124.825 238.758 121.087 239.165C117.35 239.573 114.693 243.322 115.153 247.54C115.613 251.758 119.015 254.847 122.753 254.439Z" fill="black"/>
<path d="M120.839 239.297C121.02 240.968 119.816 242.479 118.134 242.661C116.463 242.843 114.952 241.638 114.77 239.956C114.588 238.286 115.793 236.774 117.475 236.592C119.145 236.411 120.657 237.615 120.839 239.297Z" fill="white"/>
<path d="M127.09 250.764C127.17 251.469 126.658 252.105 125.942 252.185C125.238 252.264 124.601 251.753 124.522 251.037C124.442 250.332 124.954 249.696 125.67 249.616C126.374 249.548 127.011 250.06 127.09 250.764Z" fill="white"/>
<path d="M122.271 257.559C117.384 257.559 112.759 253.139 111.532 246.957C110.168 240.115 113.475 233.672 118.896 232.592C124.316 231.513 129.839 236.195 131.203 243.036C132.567 249.877 129.26 256.321 123.839 257.4C123.316 257.502 122.794 257.559 122.271 257.559ZM120.475 233.047C119.987 233.047 119.509 233.092 119.021 233.195C113.93 234.206 110.838 240.331 112.134 246.843C113.43 253.354 118.634 257.821 123.725 256.809C128.816 255.798 131.908 249.673 130.612 243.161C129.43 237.263 125.066 233.047 120.475 233.047Z" fill="#200705"/>
<path d="M51.9032 273.735C60.7099 273.177 67.254 263.331 66.5199 251.743C65.7858 240.156 58.0515 231.214 49.2448 231.772C40.4381 232.33 33.8939 242.176 34.6281 253.764C35.3622 265.351 43.0965 274.293 51.9032 273.735Z" fill="black"/>
<path d="M51.9016 273.737C60.4139 273.198 66.7452 263.773 66.0428 252.687C65.3405 241.6 57.8705 233.05 49.3582 233.589C40.8459 234.128 34.5147 243.553 35.217 254.64C35.9194 265.726 43.3893 274.277 51.9016 273.737Z" fill="white"/>
<path d="M35.8223 258.811C37.8792 267.789 44.4931 274.198 51.8911 273.732C59.7096 273.232 65.6871 265.232 66.0621 255.322C63.0279 268.38 44.8908 272.777 35.8223 258.811Z" fill="#E2E2E2"/>
<path d="M51.1433 274.062C42.8021 274.062 35.6086 265.55 34.9154 254.652C34.1995 243.413 40.677 233.822 49.3364 233.276C57.9958 232.731 65.6325 241.424 66.3371 252.663C66.678 258.095 65.3825 263.3 62.6778 267.334C59.9505 271.391 56.1321 273.766 51.9161 274.039C51.6661 274.062 51.4047 274.062 51.1433 274.062ZM50.1205 233.867C49.8705 233.867 49.6319 233.879 49.3819 233.89C41.052 234.413 34.8359 243.72 35.5291 254.618C36.2223 265.516 43.5521 273.96 51.882 273.426C55.9049 273.176 59.5527 270.88 62.1665 266.993C64.8029 263.073 66.0643 257.993 65.7234 252.697C65.0643 242.129 58.1322 233.867 50.1205 233.867Z" fill="black"/>
<path d="M52.8569 265.951C56.9032 265.694 59.909 261.155 59.5706 255.812C59.2321 250.469 55.6775 246.346 51.6312 246.602C47.5849 246.859 44.5791 251.398 44.9176 256.741C45.256 262.083 48.8106 266.207 52.8569 265.951Z" fill="#542416"/>
<path d="M59.5627 255.811C59.9036 261.152 56.8922 265.686 52.8579 265.947C48.8123 266.209 45.2667 262.084 44.9258 256.742C48.8578 264.311 56.8353 263.072 59.5627 255.811Z" fill="#A74F45"/>
<path d="M52.6919 263.65C55.4599 263.464 57.5341 260.78 57.3247 257.656C57.1153 254.531 54.7017 252.148 51.9337 252.333C49.1658 252.519 47.0916 255.202 47.301 258.327C47.5103 261.452 49.9239 263.835 52.6919 263.65Z" fill="black"/>
<path d="M51.7435 252.423C51.8231 253.662 50.8912 254.741 49.6526 254.821C48.4139 254.901 47.3343 253.969 47.2547 252.73C47.1752 251.491 48.107 250.412 49.3457 250.332C50.5844 250.241 51.6526 251.185 51.7435 252.423Z" fill="white"/>
<path d="M55.9936 261.072C56.0277 261.595 55.6299 262.049 55.1072 262.083C54.5844 262.118 54.1299 261.72 54.0958 261.197C54.0617 260.674 54.4594 260.22 54.9822 260.186C55.5049 260.152 55.9595 260.549 55.9936 261.072Z" fill="white"/>
<path d="M52.5055 266.265C48.4599 266.265 44.9597 262.094 44.6188 256.764C44.2665 251.264 47.403 246.571 51.6191 246.309C55.8238 246.048 59.5285 250.298 59.8808 255.798C60.0512 258.446 59.4262 260.992 58.1193 262.958C56.8011 264.958 54.9374 266.128 52.8805 266.253C52.7555 266.253 52.6305 266.265 52.5055 266.265ZM51.9827 246.889C51.8691 246.889 51.7554 246.889 51.6418 246.9C47.778 247.15 44.8915 251.548 45.2211 256.707C45.5506 261.867 48.9599 265.878 52.835 265.628C54.6987 265.515 56.3806 264.435 57.5966 262.605C58.8239 260.742 59.4148 258.332 59.2557 255.821C58.9489 250.809 55.7215 246.889 51.9827 246.889Z" fill="#200705"/>
<path d="M87.2121 321.813C89.4622 327.893 91.3259 337.904 102.61 340.461C113.509 342.927 126.145 336.688 130.418 332.166C141.328 320.631 142.203 308.096 146.692 304.233C143.703 303.733 140.521 303.358 139.703 300.926C138.896 298.494 141.339 285.721 133.668 278.05C125.998 270.379 117.395 273.186 110.656 272.254C103.917 271.322 90.5986 267.708 84.6552 252.799C79.7572 240.503 78.0413 222.548 78.4845 212.956C79.2345 196.49 86.3939 168.602 83.9506 167.795C81.1664 166.886 68.4841 187.626 64.4498 206.036C61.1429 221.116 60.8929 238.776 64.4498 245.696C67.0863 262.333 87.2121 321.813 87.2121 321.813Z" fill="#FFF2F0"/>
<path d="M139.849 301.255C137.474 305.71 133.133 321.54 124.7 330.222C116.461 338.7 104.166 340.086 98.7676 339.165C99.9154 339.7 101.188 340.143 102.609 340.461C113.507 342.927 126.144 336.688 130.417 332.165C141.326 320.631 142.224 307.698 146.713 303.835C143.872 303.357 140.826 303.391 139.849 301.255Z" fill="#E3D3D1"/>
<path d="M146.725 303.834C146.509 303.982 146.021 304.425 146.043 304.425C144.407 306.118 143.248 308.959 141.816 312.471C139.509 318.119 136.634 325.142 130.202 331.949C127.884 334.403 123.542 336.972 118.895 338.642C114.849 340.097 108.758 341.54 102.678 340.154C92.9617 337.949 90.3934 330.29 88.3365 324.142C88.0524 323.278 87.7797 322.471 87.4956 321.71C87.4729 321.653 87.3592 321.289 87.1433 320.664C86.9728 320.698 86.8138 320.732 86.6433 320.755C86.6092 320.755 86.5751 320.766 86.541 320.766C86.7683 321.46 86.9047 321.857 86.9274 321.903V321.914C87.2001 322.664 87.4729 323.471 87.7683 324.335C89.7684 330.301 92.5072 338.472 102.553 340.756C104.337 341.154 106.11 341.324 107.837 341.324C112.156 341.324 116.167 340.279 119.11 339.222C123.849 337.517 128.27 334.892 130.656 332.381C137.168 325.494 140.191 318.107 142.395 312.709C143.93 308.948 145.146 305.982 146.907 304.459L147.487 304.061C147.475 304.061 146.793 303.845 146.725 303.834Z" fill="#7F7F7F"/>
<path d="M93.2578 320.381C94.4397 325.188 96.2352 332.461 103.292 331.166C111.645 329.643 121.986 303.824 121.327 295.051C113.486 299.562 93.2578 320.381 93.2578 320.381Z" fill="#F88482"/>
<path d="M121.34 295.051C116.533 297.801 107.124 306.654 100.521 313.12C102.453 313.336 104.34 313.654 105.874 314.779C109.715 313.086 114.317 317.29 108.67 327.427C115.488 319.631 121.863 301.994 121.34 295.051Z" fill="#E96B6F"/>
<path d="M101.737 331.62C99.2822 331.62 97.3049 330.484 95.8275 328.234C94.3161 325.938 93.5774 322.904 92.9751 320.472L92.9297 320.29L93.0433 320.165C93.8729 319.313 113.385 299.267 121.192 294.789L121.613 294.551L121.647 295.039C121.976 299.369 119.647 307.972 115.976 315.961C113.987 320.29 108.783 330.484 103.351 331.473C102.794 331.575 102.26 331.62 101.737 331.62ZM93.6002 320.472C94.7593 325.166 96.5435 332.086 103.248 330.87C106.817 330.223 111.374 324.552 115.419 315.699C118.908 308.097 121.169 299.949 121.056 295.574C113.362 300.29 95.2366 318.79 93.6002 320.472Z" fill="#7F7F7F"/>
<path d="M63.039 232.674C64.8686 257.038 55.0273 269.687 47.9248 281.903C43.0382 290.301 38.1971 302.858 42.1859 306.597C41.6859 311.836 41.0609 321.314 50.5385 326.302C60.0161 331.291 73.2326 322.939 73.2326 322.939C79.676 324.814 90.1537 326.473 103.745 319.018C119.587 310.325 124.882 292.085 124.7 285.903C97.8472 274.141 74.5963 258.948 63.039 232.674Z" fill="#FFF2F0"/>
<path d="M122.301 286.017C121.063 293.188 113.835 308.211 100.335 315.098C88.4931 321.132 72.5948 320.041 63.0717 316.007C65.39 322.064 57.2987 327.712 50.5371 326.303C60.0148 331.291 73.2312 322.939 73.2312 322.939C79.6746 324.814 90.1523 326.473 103.744 319.018C119.585 310.325 124.881 292.085 124.699 285.903C124.142 285.665 122.938 285.619 122.301 286.017Z" fill="#E3D3D1"/>
<path d="M57.4818 328.189C54.834 328.189 52.4362 327.655 50.402 326.575C46.2087 324.371 43.4927 321.018 42.3335 316.62C41.3221 312.813 41.663 308.893 41.879 306.711C40.0948 304.904 39.9471 301.176 41.4471 295.915C42.6631 291.619 44.9359 286.46 47.6746 281.755C48.4929 280.346 49.3338 278.96 50.2202 277.494C56.7773 266.641 64.2094 254.334 63.0616 232.674C63.0616 232.674 63.8798 235.174 63.7662 239.095C63.3002 257.027 56.675 268.005 50.7429 277.812C49.8565 279.278 49.027 280.653 48.2088 282.062C45.4927 286.721 43.254 291.835 42.0381 296.085C40.5835 301.222 40.7085 304.779 42.4131 306.381L42.5267 306.484L42.5154 306.631C42.0722 311.302 41.1517 321.007 50.7089 326.041C55.5045 328.564 61.3229 327.53 65.3571 326.212C69.7664 324.78 73.062 322.711 73.0961 322.689L73.2097 322.621L73.3461 322.655C77.0962 323.746 88.5058 327.053 103.62 318.757C112.211 314.041 117.257 306.711 119.984 301.381C123.178 295.131 124.507 289.108 124.416 285.915L125.03 285.892C125.132 289.165 123.78 295.301 120.53 301.654C117.768 307.052 112.654 314.495 103.915 319.279C97.8698 322.598 91.79 324.45 85.8466 324.78C80.4032 325.087 76.0962 324.075 73.3006 323.268C72.6643 323.655 69.5619 325.473 65.5503 326.78C62.6639 327.723 59.9592 328.189 57.4818 328.189Z" fill="#7F7F7F"/>
<path d="M73.12 323.222C72.7563 323.063 64.0514 319.336 60.8809 313.654L61.415 313.358C64.4833 318.859 73.2791 322.62 73.37 322.666L73.12 323.222Z" fill="#7F7F7F"/>
<path d="M39.7777 305.619C40.3572 313.506 57.3124 317.563 62.5058 315.461C67.1424 313.586 69.7902 299.79 67.9606 296.801C66.6082 294.574 58.6875 294.392 50.8349 296.801C41.6073 299.619 39.539 302.381 39.7777 305.619Z" fill="#322C29"/>
<path d="M52.5994 302.028C56.0527 301.07 58.663 299.611 58.4297 298.771C58.1965 297.93 55.2079 298.025 51.7546 298.984C48.3014 299.942 45.6911 301.4 45.9243 302.241C46.1576 303.082 49.1462 302.986 52.5994 302.028Z" fill="#544F4D"/>
<path d="M39.9941 306.813C42.0851 313.904 57.5857 317.45 62.5064 315.449C66.6315 313.779 69.1771 302.699 68.4043 298.153C68.4725 304.154 62.5405 309.972 57.938 311.415C54.5515 312.483 45.2443 312.768 39.9941 306.813Z" fill="#1E1917"/>
<path d="M58.8017 316.301C54.5856 316.301 48.699 314.938 44.4375 312.29C41.3692 310.381 39.6532 308.085 39.4714 305.642C39.1759 301.687 42.4488 299.039 50.7445 296.505C58.5517 294.119 66.7224 294.176 68.2225 296.642C69.3362 298.471 68.9384 303.926 67.3361 308.801C66.6202 310.972 65.0519 314.767 62.6314 315.756C61.6881 316.12 60.3586 316.301 58.8017 316.301ZM40.085 305.596C40.2896 308.426 42.7442 310.517 44.7557 311.767C50.29 315.21 59.0744 316.517 62.3927 315.165C63.9951 314.517 65.586 312.119 66.7452 308.585C68.2566 304.017 68.6998 298.573 67.6997 296.937C66.5065 294.982 58.9153 294.619 50.9264 297.073C41.0623 300.096 39.8918 302.96 40.085 305.596Z" fill="black"/>
<path d="M129.258 288.597C127.121 286.153 123.03 285.483 119.553 287.017C119.553 287.017 121.132 285.699 123.314 285.597C127.803 285.358 129.258 288.597 129.258 288.597Z" fill="#7F7F7F"/>
<path d="M144.055 211.434C144.055 211.434 144.952 208.241 147.453 208.582C151.066 209.082 158.18 224.298 159.18 235.639C160.203 247.231 154.691 260.834 159.18 275.993C160.555 280.619 165.919 285.13 172.147 290.892C181.658 299.676 193.091 307.449 201.886 305.301C215.171 302.063 216.546 287.596 216.182 277.687C215.807 267.777 211.228 256.72 211.637 245.583C212.148 231.844 222.478 207.593 214.228 198.024C204.193 186.376 183.818 192.161 175.488 188.535C171.09 183.217 165.896 179.967 158.169 180.524C150.737 181.058 143.236 187.194 140.486 193.126L144.055 211.434Z" fill="#C67026"/>
<path d="M161.601 182.774C171.419 183.638 173.783 192.104 180.215 196.741C184.704 200.241 187.738 201.127 192.204 199.707C183.818 199.798 175.738 188.638 175.499 188.525C171.101 183.206 165.908 179.956 158.18 180.513C151.237 181.013 144.236 186.4 141.111 191.934C146.941 185.479 153.555 182.104 161.601 182.774Z" fill="#E2945A"/>
<path d="M211.634 245.571C212.145 231.832 222.475 207.581 214.225 198.013C208.998 191.955 200.986 190.615 193.315 190.217C197.406 192.262 201.52 195.535 205.566 200.229C213.816 209.797 203.043 229.321 202.531 243.048C202.111 254.185 205.816 263.538 206.191 273.447C206.566 283.357 204.372 292.119 196.758 293.425C190.156 294.562 183.428 293.664 173.303 287.596C166.03 283.232 160.53 280.618 159.166 275.993C160.541 280.618 165.905 285.13 172.132 290.891C181.644 299.676 193.076 307.449 201.872 305.301C215.157 302.062 216.532 287.596 216.168 277.686C215.805 267.765 211.214 256.719 211.634 245.571Z" fill="#B25C13"/>
<path d="M198.783 305.961C195.362 305.961 191.453 304.79 187.135 302.46C182.498 299.96 177.373 296.142 171.929 291.119C171.259 290.494 170.6 289.892 169.952 289.301C164.463 284.278 160.122 280.3 158.884 276.084C156.088 266.652 157.156 257.663 158.111 249.742C158.702 244.765 159.259 240.072 158.872 235.674C158.418 230.526 156.599 223.98 154.02 218.173C151.611 212.752 149.008 209.104 147.417 208.889C145.19 208.582 144.076 211.411 144.065 211.434C144.065 211.434 144.792 207.9 147.497 208.275C149.36 208.536 152.008 212.139 154.577 217.912C157.19 223.776 159.02 230.389 159.486 235.606C159.872 240.06 159.315 244.799 158.713 249.799C157.77 257.663 156.713 266.584 159.474 275.903C160.679 279.948 164.952 283.869 170.373 288.835C171.02 289.426 171.679 290.039 172.361 290.653C180.771 298.415 192.703 307.211 201.828 304.983C211.749 302.563 216.477 293.369 215.886 277.675C215.727 273.323 214.749 268.811 213.727 264.027C212.442 258.027 211.113 251.811 211.34 245.549C211.511 241.003 212.727 235.39 214.022 229.435C215.329 223.4 216.693 217.173 217.034 211.627C217.42 205.4 216.431 201.013 214.011 198.206C207.624 190.797 197.135 190.547 187.896 190.331C182.794 190.206 178.396 190.104 175.384 188.797L175.316 188.763L175.271 188.706C170.339 182.74 165.077 180.308 158.213 180.808C150.542 181.365 143.042 187.626 140.508 193.104C140.508 193.104 140.769 190.626 143.36 187.922C144.508 186.683 145.838 185.513 147.281 184.479C150.758 181.978 154.633 180.467 158.179 180.206C165.247 179.694 170.645 182.183 175.702 188.274C178.6 189.513 182.919 189.615 187.919 189.729C192.385 189.831 197.453 189.956 202.124 190.99C207.51 192.183 211.556 194.422 214.488 197.82C217.022 200.752 218.056 205.286 217.659 211.684C217.318 217.275 215.954 223.537 214.636 229.583C213.352 235.503 212.136 241.094 211.965 245.583C211.738 251.765 213.056 257.936 214.34 263.902C215.374 268.709 216.34 273.255 216.511 277.653C217.113 293.676 212.227 303.074 201.987 305.574C200.953 305.836 199.896 305.961 198.783 305.961Z" fill="#512300"/>
<path d="M186.792 198.878C182.474 196.843 179.133 193.082 176.292 189.889C175.94 189.491 175.599 189.104 175.258 188.729L175.712 188.32C176.053 188.695 176.394 189.082 176.747 189.479C180.588 193.798 185.372 199.173 192.19 199.707C192.202 199.707 189.702 200.207 186.792 198.878Z" fill="#512300"/>
<path d="M183.135 317.29C183.191 321.312 185.748 330.381 190.874 333.483C183.782 339.62 169.157 363.246 151.224 369.917C139.269 373.951 136.906 375.087 131.167 376.099C125.439 377.121 116.609 377.462 108.37 384.542C100.245 391.52 97.5745 400.543 99.4723 408.27C101.37 415.998 106.495 418.6 110.609 418.078C112.984 421.146 121.405 425.351 128.462 422.498C131.28 425.544 139.712 428.817 151.667 425.907C164.634 422.748 175.691 412.225 183.271 406.088C190.851 399.952 223.363 379.599 241.216 355.996C261.513 329.176 253.751 303.414 250.626 296.777C237.75 315.062 203.601 322.892 183.135 317.29Z" fill="#FFF2F0"/>
<path d="M252.546 302.028C252.421 304.483 252.171 326.961 238.296 345.45C222.284 366.792 191.498 384.986 176.384 396.282C174.645 397.498 162.713 406.521 151.19 410.214C139.087 414.101 126.2 409.976 124.189 403.225C120.223 407.839 109.631 406.589 110.131 398.475C108.029 400.748 99.5515 403.157 101.017 394.043C98.8129 398.782 98.3583 403.76 99.472 408.282C101.37 416.01 106.495 418.612 110.609 418.09C112.984 421.158 121.405 425.363 128.462 422.51C131.28 425.556 139.712 428.829 151.667 425.92C164.634 422.76 175.691 412.237 183.271 406.101C190.851 399.964 223.363 379.611 241.216 356.008C257.91 333.939 255.626 312.608 252.546 302.028Z" fill="#E3D3D1"/>
<path d="M142.645 427.35C140.52 427.35 138.486 427.145 136.565 426.748C133.031 425.998 130.065 424.589 128.372 422.873C124.383 424.407 120.36 423.691 117.678 422.816C114.667 421.827 111.86 420.111 110.473 418.418C108.223 418.656 105.939 417.986 104.018 416.52C101.734 414.77 100.052 411.952 99.1659 408.349C97.0976 399.917 100.45 390.928 108.155 384.314C115.28 378.189 122.905 377.053 128.474 376.223C129.406 376.087 130.281 375.95 131.088 375.814C135.395 375.053 137.872 374.189 143.849 372.121C145.781 371.45 148.168 370.621 151.1 369.632C163.816 364.904 174.771 351.699 182.771 342.051C185.749 338.472 188.34 335.346 190.34 333.528C187.385 331.551 185.215 327.63 183.919 323.914C182.396 319.425 183.112 317.289 183.112 317.289C183.169 318.971 183.76 322.153 185.237 325.607C186.328 328.153 188.203 331.528 190.999 333.221L191.363 333.437L191.044 333.71C189.033 335.449 186.351 338.687 183.237 342.438C175.192 352.131 164.18 365.416 151.304 370.2C148.361 371.189 145.975 372.018 144.043 372.689C138.031 374.768 135.542 375.632 131.19 376.405C130.372 376.553 129.485 376.678 128.553 376.825C123.065 377.644 115.542 378.769 108.541 384.78C101.018 391.235 97.7227 399.997 99.7455 408.202C101.666 416.031 106.768 418.259 110.541 417.781L110.712 417.759L110.814 417.895C113.098 420.838 121.349 425.043 128.303 422.225L128.497 422.145L128.644 422.304C131.349 425.225 139.679 428.52 151.554 425.623C162.612 422.929 172.43 414.713 179.601 408.702C180.817 407.69 181.953 406.724 183.033 405.861C184.601 404.588 187.226 402.713 190.556 400.349C203.215 391.326 226.773 374.53 240.921 355.824C261.093 329.153 253.411 303.891 250.581 296.788C250.581 296.788 252.626 300.561 253.376 303.697C256.058 314.937 257.331 335.142 241.41 356.188C227.205 374.973 203.59 391.792 190.908 400.838C187.59 403.201 184.965 405.076 183.408 406.326C182.34 407.19 181.192 408.156 179.976 409.167C172.76 415.213 162.873 423.486 151.679 426.214C148.634 426.975 145.565 427.35 142.645 427.35Z" fill="#7F7F7F"/>
<path d="M191.066 333.722L190.68 333.256C191.725 332.392 192.782 331.642 193.771 331.006C196.748 329.097 199.396 328.756 199.396 328.756C199.35 328.767 195.18 330.335 191.066 333.722Z" fill="#7F7F7F"/>
<path d="M143.269 372.974L143.064 372.395C145.496 371.554 149.997 370.747 153.872 370.406C157.804 370.144 159.315 370.985 159.315 370.985C155.917 370.44 146.985 371.69 143.269 372.974Z" fill="#7F7F7F"/>
<path d="M128.258 422.738C128.179 422.658 126.213 420.84 124.633 417.624C123.179 414.646 121.804 409.885 123.554 404.044C124.758 400.009 127.19 396.771 130.781 394.396C132.202 393.452 133.793 392.68 135.475 392.089C138.747 391.077 140.975 391.498 140.975 391.498C134.497 392.111 126.667 395.771 124.133 404.214C122.44 409.862 123.77 414.476 125.179 417.351C126.701 420.465 128.645 422.26 128.667 422.283L128.258 422.738Z" fill="#7F7F7F"/>
<path d="M110.37 418.271C109.097 416.668 107.608 413.6 107.222 409.793C106.756 405.122 108.085 400.395 111.086 396.145C115.552 389.792 120.904 387.406 125.473 386.474C130.28 385.724 132.314 386.474 132.314 386.474C127.473 386.565 118.45 386.747 111.586 396.497C108.631 400.69 107.37 405.145 107.835 409.736C108.199 413.418 109.631 416.361 110.847 417.896L110.37 418.271Z" fill="#7F7F7F"/>
<path d="M299.898 230.253C299.898 242.572 307.774 261.766 321.672 275.05C335.763 288.517 360.583 293.506 366.447 298.926C369.628 301.87 377.504 315.177 379.663 325.586C381.061 332.314 380.038 345.894 378.913 349.258C375.924 353.372 364.06 357.781 360.458 368.463C356.389 380.52 364.89 388.793 371.992 390.668C375.731 394.6 385.459 394.032 387.891 392.169C392.573 394.419 403.914 397.93 418.574 390.862C432.665 384.066 436.279 373.52 436.654 369.031C437.029 364.542 434.472 359.247 433.915 349.144C433.358 339.041 432.881 304.631 430.301 293.892C426.619 278.619 405.3 266.47 403.368 247.004C401.925 232.435 403.243 212.707 396.277 189.456L299.898 230.253Z" fill="#FFF2F0"/>
<path d="M433.915 349.132C433.359 339.03 432.881 304.619 430.302 293.88C426.62 278.607 405.301 266.459 403.369 246.992C401.925 232.423 403.244 212.695 396.278 189.444L387.777 192.513C389.414 203.172 391.107 212.275 389.414 224.866C388.345 233.798 387.55 242.049 389.505 251.117C393.346 268.97 407.187 279.334 414.142 291.653C421.108 303.972 421.824 340.939 421.642 362.008C421.597 366.701 419.858 371.292 415.574 374.145C405.426 381.679 390.22 384.497 383.016 374.383C379.8 378.793 369.561 380.634 366.708 373.963C364.39 377.656 360.731 377.895 359.424 374.77C359.515 383.372 366.231 389.145 372.015 390.668C375.754 394.6 385.482 394.032 387.914 392.168C392.596 394.418 403.937 397.93 418.597 390.861C432.688 384.066 436.302 373.52 436.677 369.031C437.029 364.531 434.472 359.235 433.915 349.132Z" fill="#E3D3D1"/>
<path d="M401.277 395.35C395.027 395.35 390.368 393.657 387.925 392.509C386.55 393.441 383.515 393.998 380.424 393.884C376.663 393.748 373.538 392.669 371.833 390.93C368.333 389.987 363.685 387.225 361.026 382.282C358.787 378.134 358.492 373.316 360.174 368.361C362.617 361.122 368.89 356.667 373.481 353.406C375.731 351.803 377.674 350.428 378.652 349.11C379.731 345.792 380.777 332.393 379.379 325.643C377.242 315.37 369.481 302.131 366.253 299.142C364.037 297.097 358.855 295.028 352.844 292.631C342.752 288.608 330.184 283.596 321.479 275.266C314.967 269.039 309.444 261.3 305.49 252.856C303.001 247.527 301.171 241.969 300.148 236.697C299.262 231.674 299.921 230.253 299.921 230.253C300.671 241.844 306.876 260.47 321.899 274.823C330.525 283.062 343.025 288.051 353.071 292.062C359.389 294.585 364.367 296.574 366.674 298.688C369.958 301.722 377.833 315.131 379.981 325.518C381.402 332.382 380.322 346.053 379.22 349.349L379.208 349.394L379.186 349.428C378.163 350.826 376.163 352.258 373.845 353.894C369.083 357.281 363.151 361.497 360.764 368.543C359.151 373.338 359.424 377.975 361.583 381.975C364.174 386.793 368.708 389.452 372.094 390.35L372.174 390.373L372.231 390.441C375.742 394.123 385.3 393.771 387.72 391.907L387.868 391.793L388.038 391.873C392.209 393.873 403.539 397.76 418.449 390.566C434.767 382.691 436.245 370.372 436.358 368.986C436.529 366.883 436.04 364.565 435.426 361.633C434.745 358.429 433.904 354.428 433.608 349.133C433.472 346.712 433.347 342.86 433.188 338.382C432.699 323.927 431.96 302.074 429.994 293.926C428.381 287.233 423.335 281.141 418.005 274.687C411.187 266.448 404.141 257.925 403.05 246.992C402.664 243.06 402.471 238.719 402.266 234.117C401.721 221.798 401.05 206.423 395.959 189.467L396.55 189.331C401.652 206.366 402.334 221.741 402.88 234.094C403.084 238.685 403.278 243.026 403.664 246.936C404.732 257.686 411.721 266.13 418.483 274.3C423.869 280.812 428.949 286.949 430.597 293.79C432.574 301.995 433.313 323.882 433.801 338.36C433.949 342.826 434.086 346.689 434.222 349.099C434.517 354.349 435.347 358.315 436.017 361.497C436.642 364.474 437.142 366.827 436.961 369.02C436.87 370.168 436.302 374.316 433.017 379.213C429.744 384.1 424.926 388.1 418.71 391.1C412.107 394.305 406.209 395.35 401.277 395.35Z" fill="#7F7F7F"/>
<path d="M387.721 392.407C381.312 387.952 380.573 382.759 381.084 379.191C381.573 375.77 383.46 372.168 386.392 369.054C387.426 367.952 388.573 366.929 389.778 366.031C393.142 363.565 395.971 363.395 395.971 363.395C394.074 364.02 392.062 365.11 390.164 366.531C386.017 369.633 382.414 374.315 381.698 379.282C380.994 384.168 383.198 388.532 388.073 391.918L387.721 392.407Z" fill="#7F7F7F"/>
<path d="M371.811 390.907C371.743 390.85 370.072 389.6 368.482 387.247C367.016 385.077 365.356 381.509 365.8 376.917C366.288 371.792 368.993 367.383 372.379 364.19C375.936 360.94 378.709 360.599 378.709 360.599C373.118 363.167 367.152 369.224 366.413 376.974C365.606 385.441 372.107 390.373 372.175 390.418L371.811 390.907Z" fill="#7F7F7F"/>
</svg>
