<svg width="563" height="394" viewBox="0 0 563 394" fill="none" xmlns="http://www.w3.org/2000/svg">
<g clip-path="url(#clip0_424_2029)">
<path d="M186.032 196.868C186.065 186.083 186.115 171.332 189.205 159.518C192.113 148.435 193.059 138.347 191.913 130.333C190.7 121.738 187.145 116.213 181.646 114.321L152.64 103.569C152.673 103.503 152.706 103.486 152.706 103.486C152.59 103.586 152.075 103.851 151.61 104.084C148.919 105.411 142.622 108.514 138.469 116.744C133.336 126.898 133.153 141.317 137.937 159.585V159.601C142.971 176.028 149.317 188.157 157.325 196.685C164.402 204.235 171.828 208.084 178.988 211.817C180.151 212.431 181.364 213.045 182.527 213.676C182.759 213.792 182.975 213.858 183.158 213.891C183.59 213.958 183.939 213.792 184.171 213.626C185.899 212.381 185.999 207.304 186.032 196.868Z" fill="#5D8EAD"/>
<path d="M145.628 114.62C145.213 115.682 144.764 116.727 144.416 117.789C144.017 118.851 143.685 119.93 143.336 121.008C142.688 123.182 142.173 125.372 141.757 127.579C141.658 128.126 141.558 128.69 141.475 129.238L141.243 130.914C141.193 131.196 141.176 131.478 141.143 131.743L141.06 132.573L141.01 132.988L140.993 133.203L140.977 133.419L140.927 134.265C140.794 136.505 140.761 138.745 140.877 140.985C141.11 145.449 141.807 149.895 142.954 154.226C143.519 156.383 144.183 158.523 144.947 160.63C145.711 162.738 146.542 164.812 147.472 166.853C148.403 168.893 149.416 170.901 150.496 172.859C151.576 174.833 152.722 176.758 153.918 178.666C155.114 180.558 156.394 182.416 157.706 184.241L158.703 185.602L159.733 186.946L160.779 188.273L161.843 189.584C164.7 193.068 167.757 196.403 171.013 199.523C171.827 200.303 172.658 201.066 173.505 201.812C173.92 202.194 174.352 202.559 174.784 202.924L175.432 203.472L175.764 203.737L176.097 204.003C176.529 204.368 176.977 204.7 177.426 205.048L178.107 205.546C178.339 205.712 178.572 205.878 178.805 206.044C179.735 206.691 180.682 207.305 181.695 207.819L181.297 207.653C181.164 207.603 181.031 207.553 180.898 207.487C180.649 207.371 180.383 207.255 180.134 207.122C179.619 206.873 179.12 206.591 178.622 206.309C178.373 206.16 178.123 206.027 177.891 205.878L177.16 205.43C176.678 205.114 176.196 204.799 175.731 204.484L175.382 204.235L175.033 203.986C174.801 203.82 174.568 203.654 174.336 203.488C173.887 203.14 173.422 202.808 172.973 202.46C172.06 201.763 171.196 201.033 170.315 200.303C166.843 197.333 163.604 194.097 160.58 190.662L159.467 189.368L158.371 188.057L157.291 186.714L156.244 185.353C154.849 183.528 153.536 181.669 152.274 179.745C151.011 177.837 149.831 175.862 148.702 173.871C147.589 171.863 146.542 169.823 145.595 167.732C144.648 165.641 143.784 163.501 143.02 161.344C142.256 159.17 141.591 156.964 141.043 154.74C140.495 152.5 140.063 150.244 139.764 147.954C139.731 147.672 139.681 147.39 139.648 147.091L139.565 146.228L139.482 145.366C139.448 145.084 139.432 144.785 139.415 144.503L139.349 143.64L139.315 143.209L139.299 142.777C139.282 142.196 139.249 141.632 139.249 141.052V139.326C139.266 138.745 139.282 138.181 139.299 137.6L139.315 137.169L139.349 136.738L139.415 135.875C139.432 135.593 139.448 135.294 139.482 135.012L139.581 134.149C139.83 131.859 140.212 129.603 140.761 127.38C141.309 125.156 141.973 122.966 142.788 120.826C143.004 120.295 143.219 119.764 143.435 119.233C143.635 118.702 143.884 118.187 144.117 117.673C144.582 116.644 145.113 115.632 145.628 114.62Z" fill="#83A3B1"/>
<path d="M36.4657 114.255C36.4657 114.255 33.7578 55.5515 105.642 30.2483C177.511 4.9285 280.063 23.3957 349.605 80.3072C421.291 138.944 459.534 228.41 476.546 288.889C476.546 288.889 479.586 298.081 492.444 301.565C505.303 305.049 554.411 327.88 563 356.768C563 356.768 558.847 358.311 550.906 355.573C542.965 352.835 525.322 346.348 512.197 347.343C499.056 348.339 481.081 340.043 481.081 340.043C481.081 340.043 476.097 355.042 462.557 362.774C449.001 370.506 440.229 381.225 438.336 390.101C436.442 398.995 429.215 391.794 430.129 376.993C431.042 362.193 435.079 340.374 444.499 326.536C453.919 312.698 460.78 303.672 458.155 294.961C455.53 286.25 443.818 249.515 363.843 223.001C283.867 196.486 186.016 145.465 147.225 138.596C108.433 131.71 65.7047 132.971 50.105 137.418C34.5053 141.864 36.4657 114.255 36.4657 114.255Z" fill="#5D8EAD"/>
<path d="M261.274 35.9392C261.274 35.9392 302.657 3.68382 345.751 0.531287C383.645 -2.23962 396.969 6.42154 391.935 11.5154C386.885 16.6092 339.604 15.7464 333.059 67.3484C333.042 67.3484 292.672 75.014 261.274 35.9392Z" fill="#5D8EAD"/>
<path d="M45.7696 94.5931C41.1678 93.7303 41.3007 104.051 41.3505 106.639C41.4169 109.41 45.4539 110.571 46.3843 107.635C47.1983 105.046 50.2551 95.4393 45.7696 94.5931Z" fill="#83A3B1"/>
<path d="M253.649 38.8429C249.978 35.5908 245.476 35.0433 240.774 33.8984C235.026 32.5047 229.261 31.1939 223.463 29.9992C213.246 27.892 202.946 26.1166 192.563 24.9386C172.029 22.6323 150.947 22.5493 130.663 26.7969C97.7522 33.6827 64.6424 51.7683 48.4446 82.2649C47.1322 84.7205 50.5047 87.143 52.1161 84.7205C70.972 56.5634 101.025 39.3075 134.068 33.2845C153.622 29.7172 173.691 29.966 193.377 32.289C203.943 33.5334 214.426 35.3751 224.826 37.6317C229.776 38.6936 234.71 39.855 239.628 41.0663C243.98 42.1282 247.901 43.7542 252.32 42.7919C253.948 42.4268 255.061 40.0873 253.649 38.8429Z" fill="#83A3B1"/>
<path d="M281.26 29.6838C279.117 29.5511 277.539 30.6462 275.844 31.8076C274.2 32.9359 272.588 34.0973 270.977 35.2754C268.501 37.1006 271.392 41.4311 274.033 39.7719C275.745 38.71 277.422 37.6149 279.1 36.4866C280.795 35.3418 282.357 34.2965 283.021 32.2888C283.403 31.0776 282.556 29.7668 281.26 29.6838Z" fill="#83A3B1"/>
<path d="M375.023 4.64604C368.544 1.77557 359.789 2.1572 352.811 2.27334C345.319 2.40608 337.81 3.2191 330.467 4.71241C316.462 7.56628 300.613 12.6933 289.798 22.3666C288.286 23.7271 289.947 25.9837 291.741 25.2204C305.431 19.3966 317.841 12.7099 332.659 9.8726C339.903 8.49544 347.262 7.78197 354.639 7.81516C361.3 7.84834 368.162 9.54075 374.757 8.97662C377.199 8.77751 376.8 5.44247 375.023 4.64604Z" fill="#83A3B1"/>
<path d="M491.58 304.236C489.968 303.158 487.509 303.009 485.632 302.677C483.09 302.245 482.293 306.41 484.752 307.124C486.612 307.671 488.855 308.517 490.799 308.252C492.743 308.003 493.091 305.249 491.58 304.236Z" fill="#83A3B1"/>
<path d="M552.318 343.643C540.756 329.49 523.827 315.834 506.001 310.724C503.709 310.06 501.698 313.445 504.041 314.673C512.048 318.904 520.056 322.588 527.432 327.93C535.174 333.555 541.769 340.225 547.899 347.542C550.358 350.446 554.711 346.563 552.318 343.643Z" fill="#83A3B1"/>
<path d="M169.719 113.641C142.058 109.625 117.886 112.711 97.9505 118.784L98.0502 118.253C54.8895 129.453 19.4705 152.848 30.6012 162.505C44.4233 175.297 84.0786 146.792 91.8702 142.063C110.543 138.015 130.579 135.625 147.225 138.579C186.016 145.465 283.867 196.486 363.843 222.984C443.801 249.498 455.53 286.233 458.155 294.961C465.847 234.797 275.278 128.972 169.719 113.641Z" fill="#C8DCDF"/>
<path d="M267.669 184.821C262.868 175.165 256.273 161.957 253.748 150.027C251.372 138.828 247.684 129.387 243.065 122.717C238.115 115.582 232.466 112.23 226.701 113.01L195.951 116.395C195.951 116.329 195.967 116.279 195.967 116.279C195.917 116.428 195.569 116.893 195.253 117.291C193.442 119.68 189.222 125.272 189.189 134.497C189.156 145.879 195.469 158.838 207.945 173.024L207.962 173.041C219.84 185.469 230.954 193.466 241.936 197.515C251.654 201.098 260.011 201.215 268.101 201.331C269.414 201.347 270.776 201.364 272.105 201.414C272.371 201.414 272.587 201.381 272.769 201.314C273.185 201.165 273.417 200.883 273.55 200.617C274.514 198.742 272.321 194.163 267.669 184.821Z" fill="#5D8EAD"/>
<path d="M37.2301 113.807C36.117 114.586 34.8876 114.935 33.7912 115.765C27.9268 120.178 20.5672 122.103 13.9386 125.089C6.86141 128.275 -5.56518 137.683 2.79119 146.062C9.12077 152.417 61.4852 155.138 98.4658 118.652L102.719 116.694" fill="#5D8EAD"/>
<path d="M40.2038 147.987C38.0774 151.139 36.5323 154.69 35.7515 158.407C36.848 159.485 38.2933 160.248 39.7885 160.58C42.646 161.227 45.6197 160.63 48.4273 159.833C65.0736 155.105 79.4605 143.042 87.1855 127.595C71.7354 139.193 54.8399 145.282 40.2038 147.987Z" fill="#FF6666"/>
<path d="M37.8284 148.401C36.3 150.508 33.4758 151.338 33.9077 154.839C34.0739 156.216 34.7716 157.427 35.7684 158.406C36.5492 154.69 38.0942 151.139 40.2207 147.986C39.4067 148.136 38.6093 148.268 37.8284 148.401Z" fill="#44112F"/>
<path d="M44.9888 154.01C45.2878 152.782 45.8194 151.621 46.484 150.542C47.1485 149.464 47.9625 148.468 48.8928 147.589C49.8232 146.709 50.8532 145.946 51.9663 145.349C53.0793 144.735 54.2755 144.27 55.5215 144.038C54.3918 144.586 53.2953 145.166 52.2819 145.863C51.2685 146.544 50.305 147.307 49.4079 148.153C48.5274 148.999 47.7133 149.912 46.9658 150.891C46.2348 151.853 45.5868 152.898 44.9888 154.01Z" fill="#DD4B4B"/>
<path d="M92.8333 78.9633C92.8333 78.9633 105.891 69.572 116.391 81.1866C116.391 81.1866 112.271 73.2721 103.599 72.5752C100.093 72.2766 94.8269 74.1681 92.8333 78.9633Z" fill="#236384"/>
<path d="M103.466 84.6881C98.3988 85.1029 94.2954 88.5541 94.2954 88.5541C94.4449 88.3716 97.8838 84.0908 103.383 83.6925C107.187 83.4271 112.038 84.5719 114.713 88.6536C114.729 88.6536 109.829 84.1571 103.466 84.6881Z" fill="#236384"/>
<path d="M103.583 88.1226C96.6882 89.0518 91.8538 95.4564 92.7841 102.409C93.7144 109.361 100.094 114.272 106.972 113.343C113.866 112.414 118.7 106.009 117.77 99.0569C116.84 92.1048 110.46 87.1935 103.583 88.1226Z" fill="white"/>
<path d="M107.022 113.708C99.9281 114.654 93.3659 109.61 92.4024 102.458C91.4388 95.2904 96.4227 88.7033 103.533 87.7409C110.627 86.7952 117.189 91.8392 118.153 98.9905C119.116 106.158 114.116 112.762 107.022 113.708ZM103.633 88.5042C96.9543 89.4002 92.2528 95.6223 93.1665 102.359C94.0803 109.095 100.244 113.857 106.939 112.961C113.617 112.065 118.319 105.843 117.405 99.1066C116.491 92.3536 110.311 87.6082 103.633 88.5042Z" fill="#236384"/>
<path d="M97.9623 103.801C97.2413 98.4429 100.52 93.5806 105.285 92.941C110.049 92.3014 114.497 96.1267 115.218 101.485C115.939 106.844 112.661 111.706 107.896 112.346C103.131 112.985 98.6834 109.16 97.9623 103.801Z" fill="#2C4252"/>
<path d="M100.596 103.578C100.091 99.8272 102.38 96.4243 105.708 95.9776C109.037 95.5309 112.144 98.2094 112.649 101.96C113.153 105.711 110.864 109.114 107.536 109.561C104.208 110.008 101.101 107.329 100.596 103.578Z" fill="#1A1A1A"/>
<path d="M105.062 99.4543C105.228 100.748 104.447 101.927 103.301 102.076C102.154 102.225 101.075 101.313 100.908 100.018C100.742 98.7242 101.523 97.5462 102.669 97.3969C103.799 97.2475 104.879 98.1601 105.062 99.4543Z" fill="white"/>
<path d="M111.324 106.407C111.44 107.286 110.909 108.082 110.128 108.182C109.347 108.281 108.616 107.668 108.5 106.788C108.383 105.909 108.915 105.112 109.696 105.013C110.477 104.897 111.208 105.527 111.324 106.407Z" fill="white"/>
<path d="M194.806 122.468C194.772 123.596 194.689 124.741 194.706 125.869C194.673 126.997 194.723 128.126 194.756 129.254C194.872 131.511 195.088 133.751 195.437 135.974C195.537 136.521 195.62 137.086 195.719 137.633L196.052 139.276C196.102 139.558 196.185 139.823 196.234 140.089L196.434 140.902L196.533 141.317L196.583 141.516L196.633 141.715L196.866 142.528C197.48 144.685 198.195 146.809 199.042 148.883C200.737 153.031 202.88 156.98 205.372 160.68C206.634 162.538 207.963 164.33 209.375 166.072C210.787 167.814 212.266 169.49 213.828 171.116C215.373 172.742 217.001 174.302 218.662 175.795C220.323 177.305 222.051 178.749 223.812 180.142C225.573 181.536 227.384 182.864 229.228 184.158L230.623 185.104L232.036 186.033L233.464 186.945L234.893 187.841C238.747 190.197 242.734 192.321 246.838 194.196C247.868 194.661 248.898 195.109 249.944 195.54C250.459 195.756 250.991 195.955 251.523 196.171L252.32 196.469L252.719 196.619L253.118 196.768C253.649 196.967 254.181 197.133 254.729 197.315L255.543 197.564C255.809 197.647 256.091 197.714 256.357 197.797C257.454 198.095 258.55 198.361 259.68 198.527L259.248 198.51C259.098 198.494 258.965 198.494 258.816 198.477C258.533 198.444 258.251 198.427 257.969 198.377C257.404 198.311 256.839 198.211 256.274 198.112C255.992 198.062 255.709 197.996 255.443 197.946L254.613 197.763C254.064 197.631 253.5 197.498 252.951 197.332L252.536 197.216L252.121 197.1C251.838 197.017 251.573 196.934 251.307 196.851C250.758 196.685 250.21 196.519 249.679 196.32C248.599 195.955 247.519 195.557 246.456 195.158C242.186 193.499 238.066 191.525 234.079 189.268L232.584 188.405L231.105 187.526L229.643 186.613L228.198 185.684C226.287 184.423 224.41 183.096 222.599 181.702C220.772 180.308 219.011 178.848 217.283 177.322C215.572 175.795 213.911 174.202 212.316 172.543C210.738 170.884 209.209 169.158 207.781 167.35C206.352 165.558 204.989 163.7 203.727 161.758C202.464 159.834 201.318 157.826 200.271 155.785C200.139 155.536 200.006 155.271 199.889 155.022L199.524 154.242L199.158 153.462C199.042 153.197 198.926 152.931 198.809 152.666L198.461 151.869L198.294 151.471L198.145 151.073C197.946 150.542 197.713 150.011 197.514 149.463L196.949 147.837C196.766 147.29 196.6 146.742 196.434 146.195L196.301 145.78L196.185 145.365L195.952 144.535C195.886 144.253 195.802 143.988 195.736 143.706L195.537 142.86C195.022 140.62 194.623 138.363 194.407 136.073C194.191 133.8 194.091 131.511 194.158 129.221C194.174 128.657 194.208 128.076 194.241 127.512C194.257 126.948 194.324 126.384 194.374 125.803C194.49 124.724 194.656 123.596 194.806 122.468Z" fill="#83A3B1"/>
</g>
<defs>
<clipPath id="clip0_424_2029">
<rect width="563" height="394" fill="white" transform="matrix(-1 0 0 1 563 0)"/>
</clipPath>
</defs>
</svg>
