<svg width="201" height="438" viewBox="0 0 201 438" fill="none" xmlns="http://www.w3.org/2000/svg">
<g clip-path="url(#clip0_502_1474)">
<path d="M67.7416 222.796C64.1209 223.378 63.1841 227.021 55.3097 229.792C47.4226 232.562 41.0041 240.001 38.0797 240.583C35.1552 241.165 28.7367 245.251 28.0024 256.194C27.2682 267.137 38.662 264.215 50.0432 262.76C61.4244 261.305 70.4761 257.814 70.4761 257.814C70.4761 257.814 75.1476 249.287 73.6917 236.623L67.7416 222.796Z" fill="#009A00"/>
<path opacity="0.7" d="M56.2473 245.276C53.1203 247.946 50.1959 244.808 50.1959 244.808C50.1959 244.808 49.0185 255.916 52.8165 261.318C53.019 261.609 53.2089 261.938 53.3862 262.279C63.1469 260.647 70.4769 257.826 70.4769 257.826C70.4769 257.826 74.8572 249.818 73.8065 237.8L70.0085 236.636C70.0085 236.623 67.5525 245.58 56.2473 245.276Z" fill="#009A00"/>
<path d="M73.4013 236.661C74.7559 248.376 70.7681 256.624 70.2744 257.586C69.2489 257.965 60.5896 261.128 50.006 262.482C48.7906 262.634 47.5626 262.811 46.36 262.988C39.4857 263.962 32.9912 264.885 30.0288 262.128C28.6869 260.875 28.1172 258.952 28.3071 256.232C29.054 245.112 35.6624 241.393 38.1437 240.887C39.4224 240.634 41.2454 239.204 43.5495 237.395C46.7904 234.852 50.8289 231.689 55.3991 230.083C59.8047 228.527 62.0328 226.743 63.8179 225.301C65.2231 224.162 66.2359 223.34 67.7804 223.1L67.6918 222.518C65.9953 222.796 64.8813 223.694 63.4507 224.845C61.7037 226.262 59.5135 228.021 55.2092 229.539C50.5504 231.183 46.4612 234.371 43.195 236.94C40.9416 238.698 39.1692 240.09 38.0298 240.317C35.4219 240.836 28.4843 244.707 27.7247 256.194C27.5348 259.104 28.1551 261.191 29.6363 262.558C31.2315 264.038 33.7128 264.544 36.6752 264.544C39.587 264.544 42.9671 264.063 46.4486 263.57C47.6513 263.405 48.8793 263.228 50.0946 263.064C61.3872 261.622 70.5022 258.13 70.6035 258.092L70.7048 258.054L70.7554 257.965C70.8061 257.877 75.4522 249.211 73.9964 236.598L73.4013 236.661Z" fill="#004A00"/>
<path d="M161.718 235.928C150.476 223.239 139.5 218.646 139.5 218.646L135.98 252.564C142.399 262.09 160.692 268.896 167.706 268.124C174.707 267.34 165.87 237.395 161.718 235.928Z" fill="#009A00"/>
<path opacity="0.7" d="M169.845 257.017C168.364 257.902 166.807 258.51 165.212 258.687C157.262 259.56 145.425 247.984 143.121 238.888C140.525 229.982 147.324 223.163 147.324 223.163C142.665 219.975 139.5 218.659 139.5 218.659L135.98 252.576C142.399 262.102 160.692 268.909 167.706 268.137C170.478 267.808 170.77 262.912 169.845 257.017Z" fill="#009A00"/>
<path d="M161.882 235.687C150.741 223.138 139.714 218.419 139.613 218.381L139.385 218.912C139.499 218.963 150.425 223.631 161.489 236.117L161.54 236.168L161.616 236.193C164.743 237.294 170.845 256.144 169.921 264.177C169.655 266.454 168.895 267.669 167.655 267.808C161.046 268.542 142.702 262.014 136.208 252.374L135.727 252.703C141.993 261.989 159.097 268.441 166.591 268.441C166.996 268.441 167.376 268.415 167.718 268.377C169.262 268.2 170.199 266.809 170.49 264.228C171.465 255.878 165.249 237.104 161.882 235.687Z" fill="#004A00"/>
<path d="M101.913 325.104L71.1368 325.875C71.1368 325.875 68.6301 354.656 69.9974 368.863C71.3646 383.057 62.9965 383.057 66.6932 404.071C80.505 421.187 93.3547 409.321 93.3547 409.321C93.3547 409.321 98.2161 391.04 97.4439 373.139C97.8237 356.022 106.053 347.47 101.913 325.104Z" fill="#FF0000"/>
<path d="M101.988 325.508L94.8607 325.28L85.8595 325.508C86.252 329.253 88.4548 352.518 84.391 368.686C83.5554 377.478 85.2266 397.403 81.3906 413.255C88.4168 413.849 93.3415 409.308 93.3415 409.308C93.3415 409.308 98.2029 391.027 97.4306 373.126C97.8231 356.136 105.951 347.571 101.988 325.508Z" fill="#FF0000"/>
<path d="M101.634 325.154C104.166 338.817 102.026 347.432 99.9629 355.757C98.659 361.032 97.3044 366.485 97.1525 373.152C97.8994 390.18 93.4558 407.777 93.1013 409.156C92.519 409.662 87.9108 413.457 81.5935 412.989C76.441 412.61 71.529 409.561 66.9588 403.944C64.8826 392.115 66.655 387.093 68.3514 382.222C69.6553 378.516 70.8707 375.024 70.2757 368.838C68.9337 354.833 71.3897 326.191 71.415 325.913L70.8327 325.862C70.8074 326.153 68.3387 354.833 69.6933 368.901C70.2757 374.961 69.073 378.389 67.7943 382.032C66.0599 386.979 64.2749 392.09 66.3891 404.121L66.4018 404.197L66.4524 404.26C71.1365 410.054 76.2131 413.192 81.5429 413.584C81.91 413.609 82.2898 413.622 82.6443 413.622C89.0375 413.622 93.4938 409.586 93.5318 409.536L93.5951 409.472L93.6204 409.396C93.671 409.207 98.4944 390.863 97.7222 373.152C97.8741 366.56 99.216 361.146 100.507 355.908C102.584 347.521 104.736 338.842 102.191 325.053L101.634 325.154Z" fill="#6F0000"/>
<path d="M141.033 325.104H107.699C107.699 325.104 109.51 350.772 113.396 362.158C115.726 368.673 112.713 369.154 115.244 373.632C116.903 376.846 113.396 386.182 121.182 408.549C126.436 413.799 143.957 409.523 143.957 409.523C143.957 409.523 148.046 384.234 142.982 364.397C142.21 357.199 145.324 335.212 141.033 325.104Z" fill="#FF0000"/>
<path d="M134.07 411.029C128.233 398.593 132.057 376.504 130.651 373.341C129.234 370.128 129.449 367.649 129.449 364.005C126.233 347.964 128.132 330.366 128.132 330.366L120.562 325.104H107.699C107.699 325.104 109.51 350.772 113.396 362.158C115.726 368.673 112.713 369.154 115.244 373.632C116.903 376.846 113.396 386.182 121.182 408.549C123.727 411.079 129.158 411.383 134.07 411.029Z" fill="#FF0000"/>
<path d="M143.361 353.694C143.754 343.978 144.235 331.897 141.31 324.977L140.766 325.204C143.64 331.985 143.159 344.004 142.779 353.669C142.602 358.173 142.437 362.069 142.703 364.46C147.463 383.108 144.057 406.891 143.703 409.27C141.804 409.7 126.283 413.103 121.447 408.371C116.155 393.152 116.117 384.12 116.092 378.718C116.079 376.213 116.067 374.568 115.51 373.48C114.294 371.33 114.408 370.153 114.547 368.685C114.687 367.205 114.877 365.371 113.687 362.056C109.851 350.848 108.028 325.331 108.002 325.078L107.42 325.116C107.433 325.369 109.268 350.962 113.129 362.246C114.282 365.447 114.117 367.129 113.965 368.622C113.813 370.14 113.687 371.443 114.99 373.758C115.484 374.707 115.484 376.301 115.497 378.718C115.522 384.17 115.573 393.279 120.903 408.624L120.979 408.738C123.055 410.813 126.916 411.458 130.891 411.458C137.095 411.458 143.576 409.902 144.019 409.788L144.209 409.738L144.235 409.548C144.273 409.295 148.273 383.98 143.26 364.346C143.019 362.056 143.184 358.185 143.361 353.694Z" fill="#6F0000"/>
<path d="M142.892 358.679C135.435 359.805 119.8 359.779 112.66 359.703C112.901 360.576 113.154 361.399 113.407 362.158C115.129 366.952 113.939 368.483 114.217 370.748C124.56 372.025 138.917 370.874 144.234 370.368C143.905 368.344 143.487 366.345 142.993 364.397C142.829 362.98 142.829 361.019 142.892 358.679Z" fill="white"/>
<path d="M129.927 371.266C129.319 368.963 129.446 366.838 129.446 364.004C129.155 362.549 128.902 361.082 128.699 359.627C122.622 359.779 116.432 359.753 112.646 359.716C112.887 360.588 113.14 361.411 113.393 362.17C115.115 366.964 113.925 368.495 114.204 370.76C119.014 371.342 124.699 371.405 129.927 371.266Z" fill="#B5B4B4"/>
<path d="M143.271 364.359C143.132 363.119 143.107 361.373 143.183 358.691L143.196 358.35L142.854 358.4C135.334 359.526 119.23 359.488 112.66 359.425H112.268L112.369 359.792C112.622 360.69 112.875 361.525 113.128 362.259C114.28 365.459 114.116 367.142 113.964 368.635C113.888 369.356 113.825 370.026 113.913 370.785L113.939 371.013L114.167 371.038C117.648 371.469 121.56 371.62 125.434 371.62C133.055 371.62 140.524 371.013 144.246 370.659L144.563 370.634L144.512 370.33C144.158 368.217 143.74 366.193 143.271 364.359ZM114.47 370.482C114.42 369.875 114.483 369.318 114.534 368.685C114.673 367.205 114.85 365.371 113.66 362.056C113.445 361.436 113.23 360.741 113.027 359.994C119.737 360.057 135.03 360.083 142.575 359.007C142.512 361.525 142.55 363.208 142.689 364.447C143.145 366.218 143.537 368.116 143.866 370.09C138.132 370.646 124.51 371.684 114.47 370.482Z" fill="#6F0000"/>
<path d="M108.9 337.767C109.28 341.107 109.761 344.789 110.331 348.394C120.674 350.355 137.398 349.027 143.259 348.47C143.373 344.548 143.424 340.424 143.183 336.565C135.296 338.109 113.585 337.843 108.9 337.767Z" fill="white"/>
<path d="M127.738 349.381C127.523 344.978 127.561 340.93 127.675 337.704C119.699 337.907 111.559 337.793 108.9 337.755C109.28 341.095 109.761 344.776 110.331 348.381C115.294 349.33 121.737 349.52 127.738 349.381Z" fill="#B5B4B4"/>
<path d="M143.462 336.211L143.133 336.274C135.233 337.83 113.243 337.539 108.913 337.463H108.584L108.622 337.792C109.065 341.638 109.546 345.218 110.053 348.432L110.09 348.634L110.293 348.672C114.408 349.456 119.484 349.722 124.51 349.722C132.005 349.722 139.398 349.128 143.297 348.761L143.55 348.735L143.563 348.482C143.652 345.421 143.753 340.854 143.487 336.553L143.462 336.211ZM142.968 348.204C136.36 348.824 120.636 350 110.584 348.141C110.103 345.079 109.647 341.689 109.23 338.058C114.192 338.134 134.891 338.374 142.917 336.907C143.133 340.968 143.057 345.231 142.968 348.204Z" fill="#6F0000"/>
<path d="M115.801 380.514C115.839 383.31 116.003 386.954 116.763 391.66C126.827 392.723 140.12 391.698 145.463 391.192C145.551 387.485 145.501 383.462 145.222 379.351C138.639 380.514 123.789 380.578 115.801 380.514Z" fill="white"/>
<path d="M130.726 392.077C130.65 387.789 130.814 383.69 130.928 380.4C125.434 380.552 119.775 380.552 115.812 380.514C115.85 383.31 116.015 386.954 116.775 391.66C121.117 392.115 126.067 392.178 130.726 392.077Z" fill="#B5B4B4"/>
<path d="M145.5 378.996L145.183 379.059C138.651 380.223 123.978 380.286 115.8 380.223H115.496V380.527C115.534 383.196 115.673 386.878 116.458 391.71L116.496 391.925L116.711 391.951C119.914 392.292 123.434 392.419 126.928 392.419C134.473 392.419 141.867 391.824 145.475 391.483L145.728 391.457V391.192C145.829 387.067 145.74 383.07 145.487 379.325L145.5 378.996ZM145.183 390.913C139.79 391.419 126.877 392.393 117.015 391.381C116.294 386.878 116.142 383.386 116.091 380.805C124.206 380.868 138.309 380.78 144.956 379.679C145.196 383.234 145.272 387.017 145.183 390.913Z" fill="#6F0000"/>
<path d="M118.598 400.137C119.281 402.705 120.129 405.501 121.18 408.537C126.434 413.787 143.955 409.511 143.955 409.511C143.955 409.511 144.639 405.298 145.095 398.973C139.157 399.997 126.827 400.162 118.598 400.137Z" fill="white"/>
<path d="M134.069 411.029C132.562 407.828 131.702 403.982 131.22 399.997C126.815 400.124 122.283 400.149 118.586 400.136C119.27 402.704 120.118 405.5 121.169 408.536C123.726 411.079 129.157 411.383 134.069 411.029Z" fill="#B5B4B4"/>
<path d="M118.599 399.845H118.219L118.32 400.212C119.042 402.957 119.915 405.791 120.915 408.638L120.991 408.752C123.067 410.826 126.929 411.472 130.904 411.472C137.107 411.472 143.589 409.915 144.032 409.802L144.222 409.751L144.247 409.561C144.26 409.523 144.931 405.273 145.387 398.998L145.412 398.631L145.045 398.694C139.259 399.681 127.486 399.871 118.599 399.845ZM143.703 409.27C141.804 409.713 126.283 413.104 121.447 408.372C120.51 405.69 119.687 403.021 118.991 400.427C127.65 400.465 138.93 400.263 144.792 399.327C144.374 404.627 143.83 408.397 143.703 409.27Z" fill="#6F0000"/>
<path d="M137.625 402.072C128.864 401.781 128.143 405.715 128.143 405.715V409.65C136.321 426.868 154.994 421.605 159.083 416.216C148.727 416.95 150.614 402.654 137.625 402.072Z" fill="#009A00"/>
<path opacity="0.7" d="M154.412 416.658C136.827 421.035 131.877 403.008 131.877 403.008L131.687 402.742C128.497 403.805 128.143 405.715 128.143 405.715C137.042 422.351 152.082 418.847 154.412 416.658Z" fill="#009A00"/>
<path d="M149.854 409.865C147.36 406.221 144.525 402.084 137.638 401.781C128.738 401.49 127.89 405.5 127.852 405.665L128.421 405.766C128.434 405.728 129.269 402.097 137.612 402.35C144.208 402.641 146.829 406.474 149.373 410.181C151.601 413.432 153.716 416.519 158.336 416.519C158.374 416.519 158.412 416.519 158.438 416.519C155.906 419.239 149.829 421.643 143.651 421.01C138.954 420.529 132.498 418.138 128.409 409.51L127.877 409.763C132.093 418.644 138.752 421.099 143.588 421.592C144.284 421.668 144.968 421.693 145.664 421.693C151.665 421.693 157.248 419.112 159.324 416.38L159.716 415.874L159.071 415.924C154.235 416.279 152.209 413.306 149.854 409.865Z" fill="#004A00"/>
<path d="M164.198 398.719C158.501 399.301 161.426 417.721 149.31 418.644C137.195 419.568 129.017 409.219 128.143 405.715C127.409 405.272 120.851 406.057 120.674 407.056C120.674 407.056 116.319 430.878 122.345 434.445C125.56 437.039 162.882 436.912 167.401 434.445C171.921 431.978 175.871 420.896 175.288 414.039C174.706 407.183 171.06 398.137 164.198 398.719Z" fill="#009A00"/>
<path opacity="0.7" d="M168.211 433.902C168.148 433.725 168.097 433.623 168.097 433.623C168.097 433.623 154.134 434.888 141.575 432.055C129.017 429.221 129.029 416.583 134.081 413.901L133.827 413.281C130.561 410.497 128.561 407.36 128.143 405.715C127.409 405.273 120.851 406.057 120.674 407.056C120.674 407.056 116.319 430.878 122.345 434.446C125.56 437.039 162.882 436.913 167.401 434.446C167.68 434.294 167.946 434.117 168.211 433.902Z" fill="#009A00"/>
<path d="M164.161 398.428C161.654 398.681 160.73 401.983 159.654 405.804C158.147 411.155 156.274 417.822 149.286 418.366C137.347 419.264 129.245 408.929 128.422 405.652L128.397 405.538L128.296 405.475C127.536 405.019 122.7 405.589 121.117 406.323C120.674 406.525 120.446 406.74 120.396 407.006C120.206 408.018 116.079 431.068 122.168 434.661C123.801 435.976 134.043 436.647 144.424 436.647C154.704 436.647 165.148 436.002 167.541 434.699C172.276 432.118 176.137 420.669 175.58 414.014C175.023 407.398 171.516 397.783 164.161 398.428ZM167.262 434.18C162.768 436.634 125.561 436.659 122.497 434.18C116.712 430.764 120.902 407.41 120.966 407.107C120.978 407.094 121.079 406.93 121.725 406.702C123.599 406.057 127.169 405.766 127.89 405.943C128.903 409.422 136.335 419.011 147.741 419.011C148.26 419.011 148.792 418.986 149.324 418.948C156.73 418.379 158.666 411.497 160.211 405.968C161.224 402.35 162.097 399.238 164.211 399.023C167.959 398.707 170.427 401.414 171.833 403.754C173.491 406.487 174.668 410.346 174.985 414.078C175.605 421.162 171.491 431.89 167.262 434.18Z" fill="#004A00"/>
<path d="M120.318 431.675C120.799 432.94 121.47 433.914 122.357 434.433C125.572 437.027 162.893 436.9 167.413 434.433C168.856 433.649 170.249 431.979 171.439 429.841C163.134 433.56 130.75 432.219 120.318 431.675Z" fill="#EDEAEB"/>
<path d="M168.21 433.901C168.147 433.724 168.097 433.623 168.097 433.623C168.097 433.623 155.171 434.787 143.017 432.358C133.814 432.307 124.927 431.915 120.318 431.675C120.799 432.94 121.47 433.914 122.357 434.433C125.572 437.026 162.893 436.9 167.413 434.433C167.679 434.294 167.945 434.104 168.21 433.901Z" fill="#BCBCBC"/>
<path d="M120.332 431.384L119.889 431.359L120.053 431.776C120.585 433.168 121.319 434.155 122.18 434.661C123.813 435.976 134.055 436.647 144.436 436.647C154.716 436.647 165.16 436.002 167.553 434.699C168.971 433.927 170.401 432.308 171.693 429.992L172.123 429.221L171.313 429.575C163.046 433.282 130.194 431.903 120.332 431.384ZM167.262 434.18C162.767 436.634 125.56 436.659 122.497 434.18C121.8 433.775 121.218 433.029 120.762 431.991C130.877 432.51 161.4 433.737 170.756 430.435C169.629 432.257 168.439 433.547 167.262 434.18Z" fill="#919191"/>
<path d="M67.4647 404.666L66.7051 404.564L67.1988 405.146C71.7437 410.447 76.643 413.281 81.7703 413.585C82.0741 413.597 82.3653 413.61 82.6565 413.61C89.0497 413.61 93.4933 409.574 93.5439 409.536L93.6072 409.473L93.6325 409.397C93.6325 409.384 93.911 408.322 94.3288 406.513L94.4048 406.158H94.0376C86.6443 406.108 76.0227 405.804 67.4647 404.666ZM93.0881 409.157C92.5058 409.65 88.0116 413.37 81.7956 413.003C77.0228 412.724 72.44 410.144 68.1483 405.349C76.4531 406.399 86.4924 406.677 93.6705 406.728C93.3793 408.043 93.1641 408.891 93.0881 409.157Z" fill="#2C13BF"/>
<path d="M70.2876 337.78C70.0977 340.981 69.9078 344.586 69.7812 348.268C79.3521 350.254 94.9616 349.204 101.899 348.597C102.608 344.966 103.102 341.082 103.064 336.604C95.6706 337.995 76.7948 337.869 70.2876 337.78Z" fill="white"/>
<path d="M101.899 348.597C102.608 344.966 103.101 341.082 103.063 336.604C99.4301 337.287 93.0242 337.616 86.6816 337.742C86.8082 341.259 86.8589 345.269 86.7323 349.406C92.733 349.318 98.4173 348.9 101.899 348.597Z" fill="#B5B4B4"/>
<path d="M103.012 336.312C95.5558 337.717 76.085 337.577 70.2868 337.489H70.0083L69.9956 337.767C69.7804 341.449 69.6032 344.978 69.4892 348.267L69.4766 348.52L69.7171 348.571C73.9075 349.444 79.2626 349.722 84.5291 349.722C91.4793 349.722 98.2523 349.229 101.924 348.9L102.139 348.875L102.177 348.66C103.012 344.396 103.38 340.563 103.354 336.603V336.249L103.012 336.312ZM101.658 348.318C95.1507 348.887 79.6424 349.937 70.0842 348.027C70.1982 344.902 70.3628 341.55 70.5653 338.071C78.0473 338.172 95.3659 338.235 102.785 336.932C102.785 340.677 102.43 344.308 101.658 348.318Z" fill="#6F0000"/>
<path d="M65.7559 395.38C65.8192 397.822 66.0977 400.668 66.6927 404.071C66.9459 404.375 67.1864 404.678 67.4396 404.957C76.1243 406.108 86.9611 406.399 94.0506 406.437C94.5443 404.236 95.2406 400.883 95.8736 396.835C87.2649 397.353 74.3519 396.278 65.7559 395.38Z" fill="white"/>
<path d="M83.681 396.784C83.4784 399.909 83.1872 403.072 82.7441 406.171C86.9092 406.348 90.8464 406.412 94.0367 406.437C94.5304 404.236 95.2267 400.883 95.8597 396.835C92.3276 397.05 88.0739 396.987 83.681 396.784Z" fill="#B5B4B4"/>
<path d="M65.7803 395.089L65.4512 395.051L65.4638 395.38C65.5271 398.024 65.831 400.883 66.4007 404.109L66.4133 404.185L66.464 404.248C66.7172 404.552 66.9577 404.855 67.2109 405.146L67.2868 405.235L67.4008 405.247C75.9841 406.386 86.6311 406.69 94.0497 406.728H94.2902L94.3409 406.5C94.822 404.387 95.5182 401.009 96.1639 396.873L96.2145 396.518L95.8474 396.544C87.3906 397.05 74.8321 396.038 65.7803 395.089ZM93.8092 406.146C86.4538 406.095 76.0348 405.804 67.578 404.678C67.3755 404.438 67.1729 404.185 66.9577 403.932C66.426 400.895 66.1221 398.201 66.0462 395.696C74.9587 396.62 87.1375 397.594 95.5056 397.138C94.9106 400.946 94.2649 404.096 93.8092 406.146Z" fill="#6F0000"/>
<path d="M69.5921 357.123C69.5667 361.007 69.6554 364.688 69.8959 367.788C77.036 368.585 90.3542 368.446 97.7602 368.281C98.1653 364.638 98.8869 361.348 99.6718 358.11C91.7467 358.173 75.6055 357.414 69.5921 357.123Z" fill="white"/>
<path d="M86.2012 357.831C85.8341 361.487 85.277 365.08 84.4668 368.395C89.3661 368.42 94.2402 368.357 97.7596 368.281C98.1647 364.637 98.8863 361.348 99.6712 358.109C96.2278 358.122 91.2398 358.008 86.2012 357.831Z" fill="#B5B4B4"/>
<path d="M69.6042 356.819L69.3003 356.807V357.11C69.275 361.323 69.389 364.916 69.6168 367.8L69.6422 368.041L69.8827 368.066C74.1744 368.547 80.7068 368.686 86.8342 368.686C90.9233 368.686 94.8479 368.623 97.785 368.559H98.0381L98.0635 368.306C98.4812 364.6 99.2282 361.234 99.9751 358.173L100.064 357.806H99.6966C91.8348 357.882 76.0354 357.148 69.6042 356.819ZM97.5064 367.99C90.2144 368.142 77.2887 368.281 70.1739 367.522C69.9713 364.764 69.87 361.374 69.8827 357.427C76.3898 357.743 91.455 358.426 99.3041 358.401C98.6078 361.31 97.9115 364.486 97.5064 367.99Z" fill="#6F0000"/>
<path d="M69.5265 377.44C68.7163 380.957 67.2857 383.703 66.4375 387.586C74.7803 388.965 88.8707 388.801 96.9223 388.548C97.2388 385.398 97.4541 382.058 97.5047 378.668C86.6806 379.553 75.2741 378.275 69.5265 377.44Z" fill="white"/>
<path d="M84.1121 378.831C84.0994 381.868 84.0994 385.208 84.0234 388.712C88.8215 388.75 93.4423 388.661 96.9365 388.547C97.253 385.397 97.4682 382.057 97.5188 378.667C92.9866 379.034 88.3784 379.034 84.1121 378.831Z" fill="#B5B4B4"/>
<path d="M69.5654 377.149L69.2996 377.111L69.2363 377.377C68.8565 379.022 68.3501 380.489 67.8057 382.033C67.2107 383.728 66.603 385.474 66.1473 387.536L66.084 387.839L66.3878 387.89C71.7429 388.775 79.4781 389.029 86.403 389.029C90.3782 389.029 94.1002 388.953 96.936 388.864L97.1892 388.851L97.2145 388.598C97.5563 385.183 97.7462 381.843 97.7968 378.693V378.376L97.4803 378.402C86.7068 379.262 75.3636 377.984 69.5654 377.149ZM96.6575 388.269C88.935 388.497 75.1104 388.674 66.7803 387.359C67.2107 385.461 67.7931 383.816 68.3501 382.222C68.8691 380.742 69.3629 379.338 69.7427 377.769C75.5789 378.604 86.6309 379.806 97.2018 378.984C97.1512 381.957 96.974 385.069 96.6575 388.269Z" fill="#6F0000"/>
<path d="M72.8191 405.525V408.928C72.8191 408.928 70.9708 420.112 77.3893 420.504C83.8078 420.896 91.4037 415.064 90.3023 409.283C89.2136 403.501 77.6805 403.969 72.8191 405.525Z" fill="#009A00"/>
<path opacity="0.7" d="M90.3035 409.283C89.7844 406.525 86.8727 405.197 83.4545 404.716L83.6317 405.045C83.6317 405.045 85.9738 415.494 73.8457 418.341C74.58 419.543 75.694 420.403 77.3905 420.504C83.8216 420.884 91.4049 415.052 90.3035 409.283Z" fill="#009A00"/>
<path d="M88.0749 405.867C84.1377 403.526 76.6304 404.007 72.7312 405.247L72.9085 405.804C76.6051 404.614 84.0238 404.134 87.7711 406.36C89.0371 407.107 89.784 408.106 90.0245 409.333C90.417 411.383 89.6574 413.609 87.8977 415.608C85.2771 418.581 81.074 420.428 77.4154 420.213C76.2 420.137 75.1999 419.631 74.4783 418.72C72.0476 415.671 73.111 409.042 73.1237 408.979L72.5413 408.878C72.4907 409.156 71.4273 415.823 74.0225 419.074C74.8581 420.124 75.9975 420.706 77.39 420.782C77.6053 420.795 77.8078 420.808 78.023 420.808C81.6944 420.808 85.7708 418.923 88.3534 415.988C90.2398 413.85 91.0373 411.446 90.6195 409.219C90.3284 407.828 89.4802 406.702 88.0749 405.867Z" fill="#004A00"/>
<path d="M93.9616 406.79C88.1508 407.865 86.3404 420.883 77.5925 419.137C68.8319 417.392 80.6055 400.566 69.9966 399.592C62.502 399.592 54.8681 423.717 58.6154 431.586C63.2869 441.403 88.9736 436.646 91.5056 435.862C97.1519 431.877 96.7594 418.265 95.3036 413.318C93.835 408.384 96.1771 406.588 93.9616 406.79Z" fill="#009A00"/>
<path d="M76.8323 418.935C69.5403 416.354 80.2758 400.541 69.996 399.592C69.9834 399.592 69.9834 399.592 69.9707 399.592V399.883C74.8447 403.273 66.0588 417.101 76.7437 419.213C76.7437 419.213 76.769 419.112 76.8323 418.935Z" fill="#009A00"/>
<path opacity="0.7" d="M67.5029 436.709C67.2497 436.76 67.0219 436.823 66.8066 436.886C76.1496 438.999 89.6956 436.418 91.4933 435.874C97.1396 431.889 96.7471 418.277 95.2912 413.33C93.8354 408.384 96.1648 406.6 93.9493 406.802C89.8855 407.549 87.784 414.14 83.8847 417.442L83.8214 417.872C86.3787 418.429 89.569 421.933 89.2905 425.652C89.0246 429.346 85.847 437.569 67.5029 436.709Z" fill="#009A00"/>
<path d="M95.1892 408.22C95.2779 407.511 95.3285 407.056 95.0373 406.74C94.7715 406.461 94.3284 406.461 93.9106 406.512C91.366 406.98 89.6063 409.548 87.7579 412.268C85.2133 415.987 82.5674 419.846 77.6554 418.859C73.7308 418.075 74.2119 414.014 74.7183 409.725C75.0981 406.461 75.5032 403.083 73.8701 401.072C73.0345 400.047 71.7939 399.478 70.0215 399.313C67.92 399.313 65.6918 401.072 63.5903 404.412C58.9188 411.813 55.5893 425.855 58.3745 431.725C60.7165 436.659 68.1732 438.013 75.4526 438.013C82.9219 438.013 90.2139 436.596 91.6192 436.153L91.6951 436.115C97.5186 432.003 97.0755 418.227 95.607 413.255C94.8727 410.864 95.0626 409.27 95.1892 408.22ZM91.366 435.596C88.5428 436.431 63.3498 440.884 58.8682 431.459C56.2096 425.855 59.5392 411.838 64.0461 404.715C66.0463 401.553 68.0972 399.883 69.9582 399.883C71.5407 400.022 72.6547 400.528 73.389 401.426C74.8702 403.248 74.4904 406.499 74.1233 409.649C73.6169 414.014 73.0852 418.53 77.5288 419.428C82.8332 420.491 85.6944 416.291 88.2263 412.597C90.0114 409.978 91.7078 407.511 93.9866 407.094C94.4423 407.056 94.5816 407.119 94.6195 407.157C94.7208 407.258 94.6702 407.701 94.6069 408.156C94.4803 409.194 94.2777 410.927 95.012 413.419C96.4046 418.1 96.835 431.675 91.366 435.596Z" fill="#004A00"/>
<path d="M58.6152 431.586C63.2867 441.404 88.9735 436.647 91.5055 435.862C92.9613 434.838 94.0121 433.168 94.7464 431.169C72.3005 436.596 58.6152 431.586 58.6152 431.586Z" fill="#EDEAEB"/>
<path d="M91.505 435.862C92.9609 434.838 94.0117 433.168 94.7459 431.169C91.2898 432.004 88.0489 432.586 85.0358 432.991C81.8962 435.356 76.5411 437.128 67.5146 436.71C67.2615 436.761 67.0336 436.824 66.8184 436.887C76.1486 439 89.6947 436.419 91.505 435.862Z" fill="#BCBCBC"/>
<path d="M58.7159 431.308L58.0449 431.067L58.3488 431.712C60.6908 436.646 68.1475 438 75.4269 438C82.8962 438 90.1882 436.583 91.5935 436.14L91.6694 436.102C93.0746 435.116 94.2014 433.484 95.0243 431.27L95.2142 430.751L94.6825 430.877C72.5911 436.229 58.8425 431.358 58.7159 431.308ZM91.3656 435.596C88.6057 436.406 64.4888 440.682 59.2096 432.079C62.2606 432.978 75.1104 436.09 94.2647 431.586C93.5304 433.408 92.5556 434.749 91.3656 435.596Z" fill="#919191"/>
<path d="M62.2367 273.172L49.8048 285.089C49.8048 285.089 49.7035 293.603 56.2233 296.665C56.0334 302.598 64.7434 306.634 72.7191 303.964C77.3905 302.648 72.2253 283.887 72.2253 283.887C72.2253 283.887 67.5285 274.247 62.2367 273.172Z" fill="#FBC69F"/>
<path d="M64.249 301.738C62.6412 300.954 61.8057 299.423 64.1224 298.942C50.5764 295.4 51.5132 286.102 51.5132 286.102L49.9688 287.038C50.3612 289.745 51.6905 294.514 56.2354 296.652C56.1847 298.322 56.8304 299.84 57.9698 301.106C58.3116 300.347 60.1472 300.245 64.249 301.738Z" fill="#FBC69F"/>
<path d="M62.2373 273.172L60.6675 274.677L57.3633 280.092C57.3633 280.092 66.7695 283.963 66.1492 290.87C65.5289 297.778 70.4915 299.916 68.1621 304.243C68.0608 304.42 67.9849 304.597 67.9216 304.787C69.5041 304.749 71.1372 304.483 72.7323 303.952C77.4038 302.636 72.2386 283.875 72.2386 283.875C72.2386 283.875 67.5291 274.247 62.2373 273.172Z" fill="#FBC69F"/>
<path d="M62.3001 272.894L62.1862 273.463C67.2627 274.488 71.9342 283.912 71.9595 283.95C73.3774 289.087 76.2512 302.661 72.6305 303.673C68.0856 305.191 62.7938 304.546 59.4516 302.054C57.502 300.599 56.4513 298.689 56.5272 296.665V296.475L56.35 296.399C50.0834 293.451 50.096 285.178 50.096 285.089L49.5137 285.076C49.5137 285.165 49.4884 293.654 55.9322 296.829C55.9322 298.98 57.0463 300.991 59.0972 302.509C61.3633 304.192 64.3763 305.077 67.5033 305.077C69.2757 305.077 71.0734 304.799 72.7951 304.217C77.6058 302.864 73.0483 285.734 72.4912 283.735C72.3013 283.343 67.6679 273.969 62.3001 272.894Z" fill="#CC763B"/>
<path d="M56.084 296.904C59.2616 298.752 63.9331 298.929 64.123 298.941C64.123 298.941 59.4262 298.182 56.3752 296.398L56.084 296.904Z" fill="#CC763B"/>
<path d="M60.4769 298.081L59.8945 298.132C60.1097 300.624 64.2495 301.737 64.2495 301.737C64.2115 301.725 60.6541 300.219 60.4769 298.081Z" fill="#CC763B"/>
<path d="M134.612 300.51L72.921 302.002C72.921 302.002 62.6919 312.844 62.1602 336.375C62.6033 338.513 78.3647 330.922 80.1244 330.922C81.8715 330.922 88.1001 336.742 90.2396 336.754C92.3792 336.767 103.634 329.177 104.431 329.177C105.229 329.177 115.737 337.729 117.686 337.729C119.636 337.729 129.358 328.582 131.498 328.392C133.638 328.202 145.006 335.198 153.146 333.453C154.653 333.465 138.701 300.231 134.612 300.51Z" fill="#009A00"/>
<path opacity="0.7" d="M134.612 300.51L117.876 300.914L110.9 304.039C110.9 304.039 134.017 311.288 118.053 330.834C115.331 333.946 106.925 327.039 104.406 325.584C102.19 325.04 96.8477 331.795 90.2267 336.463C90.1001 336.552 89.9988 336.628 89.9102 336.716C90.0241 336.742 90.1254 336.754 90.2267 336.754C92.3662 336.767 103.621 329.177 104.418 329.177C105.216 329.177 115.724 337.729 117.673 337.729C119.623 337.729 129.345 328.582 131.485 328.392C133.625 328.202 144.993 335.198 153.133 333.453C154.652 333.465 138.701 300.231 134.612 300.51Z" fill="#009A00"/>
<path d="M134.587 300.219L134.625 300.801C134.891 300.788 135.499 300.965 136.752 302.407C142.386 308.872 152.906 330.935 152.956 333.2C147.487 334.313 140.575 331.467 135.98 329.594C133.714 328.658 132.207 328.051 131.473 328.114C130.321 328.215 127.447 330.48 124.396 332.871C121.661 335.022 118.56 337.451 117.674 337.451C116.585 337.451 111.951 334.073 108.875 331.846C105.685 329.518 104.773 328.899 104.419 328.899C104.064 328.899 102.976 329.544 99.9372 331.378C96.5696 333.415 91.4931 336.476 90.2397 336.476C89.2143 336.476 86.9229 334.844 84.8973 333.402C82.8211 331.922 81.036 330.644 80.1119 330.644C79.4662 330.644 77.5293 331.403 74.1491 332.757C69.946 334.44 63.5908 336.982 62.5021 336.401C62.4641 336.388 62.4514 336.363 62.4388 336.35C62.9705 313.249 73.0224 302.319 73.111 302.205L72.6806 301.8C72.5793 301.914 62.3628 312.996 61.8438 336.375V336.413L61.8564 336.451C61.8944 336.654 62.021 336.818 62.2109 336.919C63.4515 337.577 68.237 335.755 74.3517 333.314C77.0102 332.251 79.5295 331.239 80.0866 331.239C80.8208 331.239 82.7958 332.643 84.5302 333.883C86.8216 335.515 88.9864 337.058 90.2018 337.071C91.5184 337.071 95.5062 334.718 100.203 331.884C102.115 330.733 104.077 329.544 104.368 329.493C104.71 329.569 106.647 330.973 108.508 332.34C112.964 335.578 116.458 338.058 117.648 338.058C118.661 338.058 120.99 336.274 124.725 333.352C127.434 331.226 130.511 328.81 131.498 328.721C132.118 328.658 133.79 329.354 135.739 330.164C140.423 332.087 147.513 334.996 153.159 333.782C153.286 333.769 153.387 333.693 153.45 333.592C154.147 332.314 145.664 314.767 140.297 306.38C136.321 300.105 135.018 300.194 134.587 300.219Z" fill="#004A00"/>
<path d="M71.1616 298.106C71.1616 298.106 70.9464 303.723 71.6933 304.254C72.4276 304.773 136.955 304.684 137.626 302.926C138.018 302.053 136.942 296.12 136.942 296.12C136.942 296.12 74.4785 295.044 71.1616 298.106Z" fill="#FF0000"/>
<path d="M137.624 302.926C138.017 302.053 136.941 296.12 136.941 296.12C136.941 296.12 130.585 296.006 121.812 295.955L115.432 296.208V297.372L115.723 303.988C115.723 303.988 121.179 304.102 127.015 303.938C133.244 303.71 137.46 303.369 137.624 302.926Z" fill="#BD0000"/>
<path d="M101.241 297.221V301.32L114.913 300.991L114.976 302.762L99.7593 303.18L98.8984 296.513" fill="#BD0000"/>
<path d="M137.195 295.842H136.954C134.397 295.791 74.326 294.792 70.9711 297.904L70.8825 297.98V298.106C70.8192 299.839 70.7559 303.938 71.5281 304.495C71.8826 304.748 79.909 304.824 88.2644 304.824C93.5942 304.824 99.0759 304.786 102.798 304.761C112.128 304.672 134.182 304.356 137.359 303.407C137.587 303.344 137.828 303.242 137.904 303.053C138.309 302.142 137.423 297.082 137.245 296.069L137.195 295.842ZM137.372 302.774C136.549 303.28 127.51 303.9 104.494 304.153C88.0366 304.33 72.9587 304.217 71.832 303.989C71.4902 303.597 71.3636 300.763 71.4395 298.245C74.8577 295.88 119.344 296.107 136.688 296.398C137.093 298.638 137.587 302.091 137.372 302.774Z" fill="#6F0000"/>
<path d="M97.5312 297.094L97.8477 304.507L116.382 304.267L116.091 297.094C116.103 297.094 101.962 295.791 97.5312 297.094ZM99.7087 302.888L99.4555 297.739C105.254 296.714 114.546 298.296 114.546 298.296L114.685 302.483L99.7087 302.888Z" fill="#FF8600"/>
<path d="M97.8486 304.507L116.395 304.267L116.129 297.676H115.446L115.585 303.47L98.1145 303.71L97.8359 304.166L97.8486 304.507Z" fill="#FF8600"/>
<path d="M114.584 298.005C114.495 297.992 105.177 296.436 99.3919 297.448L99.1387 297.499L99.4299 303.192L114.963 302.774L114.812 298.043L114.584 298.005ZM99.9869 302.585L99.759 297.98C104.937 297.145 112.799 298.309 114.255 298.536L114.368 302.192L99.9869 302.585Z" fill="#B53C06"/>
<path d="M116.129 296.803C115.546 296.752 101.886 295.513 97.4555 296.816L97.2402 296.879L97.5821 304.798L116.698 304.545L116.382 296.828L116.129 296.803ZM98.1391 304.204L97.8479 297.309C102.064 296.221 113.939 297.195 115.825 297.36L116.091 303.976L98.1391 304.204Z" fill="#B53C06"/>
<path d="M140.84 219.393C141.866 217.685 133.839 214.535 129.358 215.408C124.876 216.281 108.646 233.005 92.6316 226.983C81.2884 215.699 72.6291 217.546 72.6291 217.546L69.1223 219.393C69.1223 219.393 66.1979 221.923 66.4511 222.986C66.6916 224.061 75.6548 243.645 67.7424 259.699C66.2485 263.494 73.3633 273.412 68.7172 285.949C67.1347 292.945 68.7425 299.372 73.2621 300.245C77.7816 301.118 97.0499 297.031 106.836 297.474C116.622 297.917 135.738 302.876 139.675 296.892C143.613 290.908 144.195 285.81 141.283 270.351C138.359 254.891 136.321 228.248 140.84 219.393Z" fill="#009A00"/>
<path opacity="0.7" d="M93.8594 231.184C93.8594 231.184 102.341 244.745 104.772 245.163C107.203 245.58 109.798 230.083 109.798 230.083L93.8594 231.184Z" fill="#009A00"/>
<path opacity="0.7" d="M77.5287 216.989L67.5527 220.266C67.5527 220.266 80.6303 226.199 85.7576 226.895C82.3014 231.816 81.0228 236.054 81.0228 236.054C81.0228 236.054 82.0103 240.748 96.2905 234.055C101.038 238.053 91.0367 216.432 77.5287 216.989Z" fill="#009A00"/>
<path opacity="0.7" d="M140.84 219.393C141.865 217.685 133.839 214.535 129.357 215.408C125.851 216.091 115.153 226.477 102.987 228.084C102.227 228.932 101.797 229.45 101.797 229.45L107.696 240.33C107.696 240.33 123.319 243.227 125.268 261.9C127.218 280.573 127.8 290.87 100.695 297.348C100.632 297.575 101.088 297.31 101.151 297.613C103.227 297.474 105.164 297.411 106.823 297.487C116.609 297.93 135.725 302.889 139.662 296.905C143.6 290.921 144.182 285.823 141.27 270.363C138.358 254.891 136.32 228.248 140.84 219.393Z" fill="#009A00"/>
<path d="M141.094 219.545C141.246 219.304 141.334 218.899 140.967 218.381C139.65 216.496 133.042 214.396 129.295 215.129C128.067 215.37 126.13 216.648 123.471 218.431C116.356 223.163 104.456 231.082 92.7964 226.743C81.4912 215.534 72.9331 217.204 72.566 217.28L72.6926 217.849C72.7812 217.837 81.3519 216.179 92.4293 227.198L92.5305 227.262C104.494 231.765 116.584 223.719 123.8 218.912C126.32 217.242 128.307 215.914 129.421 215.699C133.118 214.978 139.385 217.128 140.499 218.722C140.726 219.039 140.638 219.19 140.587 219.266C135.979 228.274 138.106 255.106 140.992 270.414C143.98 286.228 143.182 291.06 139.435 296.753C136.65 300.979 125.839 299.524 116.293 298.233C112.786 297.765 109.482 297.322 106.849 297.196C101.747 296.968 94.0624 297.968 87.2767 298.841C81.1873 299.625 75.4398 300.384 73.3129 299.966C71.9583 299.701 70.8569 298.916 70.0087 297.639C68.3123 295.045 67.9325 290.706 68.9833 286.063C71.9963 277.929 70.148 270.983 68.7934 265.91C68.0718 263.216 67.5021 261.078 67.9958 259.838C71.2747 253.183 73.7687 241.507 67.0083 223.719C66.8564 223.327 66.7425 223.024 66.7298 222.935C66.5906 222.315 68.1604 220.62 69.3124 219.62L68.9326 219.178C68.4262 219.62 65.8943 221.885 66.1601 223.062C66.1854 223.175 66.2741 223.416 66.464 223.922C73.1483 241.519 70.705 253.019 67.4641 259.597C66.8944 261.052 67.4894 263.254 68.2363 266.062C69.5656 271.059 71.3886 277.903 68.4262 285.899C67.3375 290.731 67.7426 295.235 69.5276 297.968C70.4518 299.385 71.6925 300.257 73.199 300.548C73.6547 300.637 74.2624 300.675 74.9714 300.675C77.7312 300.675 82.2634 300.093 87.34 299.422C94.1004 298.55 101.76 297.55 106.811 297.778C109.419 297.892 112.723 298.334 116.204 298.803C125.914 300.106 136.929 301.586 139.904 297.057C144.043 290.782 144.385 285.279 141.549 270.3C138.688 255.081 136.561 228.413 141.094 219.545Z" fill="#004A00"/>
<path d="M114.055 209.31L88.8742 210.992C88.8742 210.992 72.3278 213.661 67.7576 219.797C67.1753 221.644 79.9237 220.784 80.9871 223.896C81.8607 225.933 79.3287 235.56 80.8859 236.332C82.443 237.116 92.3683 232.448 94.2167 232.828C96.065 233.22 102.484 242.645 104.724 242.847C106.965 243.037 110.953 232.739 112.32 231.853C113.687 230.981 123.613 234.181 125.259 233.599C126.917 233.017 125.841 226.894 126.626 225.718C127.411 224.554 134.981 224.061 134.981 222.795C134.994 221.53 132.652 219.924 132.854 219C133.044 218.077 138.602 216.862 138.602 215.888C138.602 214.927 114.055 209.31 114.055 209.31Z" fill="#FF0000"/>
<path d="M138.602 215.901C138.602 214.927 114.055 209.31 114.055 209.31L108.016 209.714L103.154 218.747C103.154 218.747 104.876 219.671 103.154 220.809C104.344 222.239 107.547 229.564 103.534 234.282C101.914 235.396 99.04 227.666 95.2041 227.818C91.3555 227.97 89.0388 233.865 81.0251 236.066C80.9745 236.142 80.9491 236.231 80.9238 236.345C82.5823 237.053 92.381 232.448 94.2166 232.828C96.065 233.22 102.484 242.645 104.724 242.847C106.965 243.037 110.953 232.739 112.32 231.853C113.687 230.981 123.613 234.181 125.259 233.599C126.917 233.017 125.841 226.894 126.626 225.718C127.411 224.554 134.981 224.061 134.981 222.795C134.994 221.53 132.652 219.924 132.854 219C133.057 218.089 138.602 216.875 138.602 215.901Z" fill="#BD0000"/>
<path d="M126.397 211.954C120.32 210.448 114.18 209.044 114.117 209.019L113.99 209.588C122.802 211.599 136.917 215.053 138.272 215.951C138.019 216.305 136.487 216.887 135.55 217.242C133.727 217.937 132.689 218.368 132.562 218.937C132.436 219.531 132.967 220.164 133.575 220.898C134.094 221.53 134.689 222.239 134.689 222.783C134.689 223.213 132.081 223.77 130.689 224.073C128.283 224.579 126.789 224.946 126.384 225.541C126.017 226.085 126.005 227.375 125.992 228.868C125.979 230.626 125.954 233.03 125.169 233.308C124.46 233.561 121.675 232.954 119.206 232.41C115.332 231.562 112.927 231.094 112.155 231.588C111.598 231.942 110.813 233.397 109.585 235.737C108.129 238.483 105.939 242.619 104.749 242.543C103.66 242.455 101.103 239.507 99.0518 237.142C96.6718 234.396 95.1652 232.726 94.2791 232.537C93.3296 232.334 90.7976 233.232 87.8732 234.257C85.1387 235.219 81.7332 236.42 81.0116 236.066C80.3406 235.737 80.7584 232.309 81.0622 229.817C81.3787 227.223 81.6699 224.769 81.2521 223.795C80.5938 221.897 76.416 221.404 72.7194 220.961C70.6558 220.708 68.3264 220.43 68.0226 219.962C68.0099 219.949 68.0099 219.936 68.0099 219.924C72.5168 214.003 88.7341 211.308 88.8986 211.283L88.81 210.701C88.1264 210.815 72.099 213.472 67.5035 219.62L67.4656 219.709C67.4023 219.911 67.4276 220.101 67.5415 220.265C67.9719 220.936 69.681 221.176 72.6561 221.53C75.9983 221.935 80.176 222.429 80.7077 223.997C81.0749 224.845 80.771 227.324 80.4798 229.741C79.9988 233.675 79.7836 236.104 80.7457 236.585C81.6192 237.028 84.0879 236.205 88.0631 234.814C90.5444 233.941 93.3675 232.954 94.1525 233.119C94.912 233.283 96.8743 235.535 98.6087 237.534C101.482 240.848 103.47 243.037 104.698 243.138C104.723 243.138 104.761 243.138 104.787 243.138C106.23 243.138 107.901 240.178 110.091 236.028C111.028 234.244 112.003 232.397 112.471 232.106C113.092 231.714 116.408 232.435 119.08 233.017C122.447 233.751 124.561 234.169 125.359 233.89C126.536 233.473 126.562 231.158 126.574 228.906C126.587 227.628 126.6 226.3 126.865 225.895C127.169 225.439 129.182 225.009 130.803 224.668C133.562 224.073 135.259 223.681 135.272 222.821C135.272 222.062 134.639 221.303 134.031 220.556C133.575 220.012 133.069 219.392 133.132 219.089C133.233 218.785 134.803 218.178 135.753 217.811C137.69 217.065 138.88 216.584 138.88 215.913C138.892 215.521 138.892 215.066 126.397 211.954Z" fill="#6F0000"/>
<path d="M136.323 214.927C133.981 215.711 130.145 217.077 129.816 217.811C129.335 218.874 132.145 221.568 131.968 222.075C131.791 222.581 124.486 223.289 124.005 223.884C123.524 224.478 123.714 230.88 123.233 230.968C122.739 231.069 111.852 228.438 110.586 229.172C109.32 229.905 105.129 239.723 104.458 239.723C103.775 239.723 96.8626 230.095 94.8243 229.905C92.7861 229.716 84.3673 233.802 83.4811 233.018C82.6076 232.233 84.8864 223.58 83.3292 221.644C82.1518 220.177 73.0494 219.215 68.6185 218.823C68.302 219.14 68.0108 219.456 67.7576 219.797C67.1753 221.644 79.9237 220.784 80.9871 223.896C81.8607 225.933 79.3287 235.56 80.8859 236.332C82.443 237.116 92.3683 232.448 94.2167 232.828C96.065 233.22 102.484 242.645 104.724 242.847C106.965 243.037 110.953 232.739 112.32 231.854C113.687 230.981 123.613 234.181 125.259 233.6C126.917 233.018 125.841 226.895 126.626 225.718C127.411 224.554 134.981 224.061 134.981 222.796C134.994 221.531 132.652 219.924 132.854 219C133.044 218.077 138.602 216.862 138.602 215.888C138.602 215.711 137.741 215.37 136.323 214.927Z" fill="white"/>
<path d="M138.601 215.901C138.601 215.724 137.728 215.37 136.322 214.927C133.98 215.711 130.144 217.077 129.815 217.811C129.334 218.874 132.145 221.568 131.967 222.075C131.79 222.581 124.485 223.289 124.004 223.884C123.523 224.478 123.713 230.88 123.232 230.968C122.738 231.069 111.851 228.438 110.585 229.172C109.319 229.905 105.128 239.723 104.457 239.723C103.774 239.723 96.8616 230.095 94.8234 229.905C93.8865 229.817 91.6204 230.627 89.3543 231.449C87.3414 233.144 84.8348 235.016 81.0368 236.066C80.9862 236.142 80.9609 236.231 80.9355 236.345C82.594 237.053 92.3927 232.448 94.2284 232.828C96.0767 233.22 102.495 242.645 104.736 242.847C106.977 243.037 110.965 232.739 112.332 231.854C113.699 230.981 123.624 234.181 125.27 233.6C126.929 233.018 125.853 226.895 126.638 225.718C127.422 224.554 134.993 224.061 134.993 222.796C135.006 221.531 132.664 219.924 132.866 219C133.056 218.089 138.601 216.875 138.601 215.901Z" fill="#B5B4B4"/>
<path d="M136.411 214.648L136.322 214.623L136.234 214.648C129.98 216.723 129.663 217.444 129.549 217.685C129.195 218.469 130.106 219.721 130.917 220.822C131.208 221.214 131.6 221.746 131.676 221.935C131.258 222.138 129.473 222.429 128.144 222.644C125.321 223.112 124.055 223.352 123.776 223.694C123.498 224.023 123.422 225.123 123.321 227.54C123.27 228.691 123.207 230.234 123.067 230.677C122.688 230.626 121.599 230.411 120.447 230.184C115.497 229.184 111.319 228.413 110.42 228.931C109.724 229.336 108.521 231.639 106.762 235.118C105.888 236.838 104.812 238.963 104.42 239.394C104.027 239.09 102.875 237.711 101.85 236.471C98.6593 232.663 96.1274 229.741 94.8361 229.614C93.7853 229.513 91.4053 230.386 88.886 231.297C86.9617 231.993 84.0626 233.055 83.6575 232.79C83.4043 232.524 83.6321 230.437 83.8094 228.906C84.1385 225.971 84.5183 222.656 83.5435 221.442C82.3915 220 74.7956 219.051 68.6302 218.507L68.491 218.494L68.3897 218.595C68.0352 218.95 67.7441 219.279 67.5035 219.595L67.4656 219.683C67.4023 219.886 67.4276 220.076 67.5415 220.24C67.9719 220.911 69.681 221.151 72.6561 221.505C75.9983 221.91 80.176 222.403 80.7077 223.972C81.0749 224.82 80.771 227.299 80.4798 229.716C79.9988 233.65 79.7836 236.079 80.7457 236.56C81.6192 237.003 84.0879 236.18 88.0631 234.789C90.5444 233.916 93.3675 232.929 94.1525 233.093C94.912 233.258 96.8743 235.51 98.6087 237.509C101.482 240.823 103.47 243.012 104.698 243.113C104.723 243.113 104.761 243.113 104.787 243.113C106.23 243.113 107.901 240.153 110.091 236.003C111.028 234.219 112.003 232.372 112.471 232.081C113.092 231.689 116.408 232.41 119.08 232.992C122.447 233.726 124.561 234.143 125.359 233.865C126.536 233.448 126.562 231.132 126.574 228.881C126.587 227.603 126.6 226.275 126.865 225.87C127.169 225.414 129.182 224.984 130.803 224.643C133.562 224.048 135.259 223.656 135.272 222.796C135.272 222.036 134.639 221.277 134.031 220.531C133.575 219.987 133.069 219.367 133.132 219.064C133.233 218.76 134.803 218.153 135.753 217.786C137.69 217.039 138.88 216.559 138.88 215.888C138.892 215.61 138.728 215.369 136.411 214.648ZM135.563 217.254C133.74 217.95 132.702 218.38 132.575 218.95C132.448 219.544 132.98 220.177 133.588 220.911C134.107 221.543 134.702 222.252 134.702 222.796C134.702 223.226 132.094 223.782 130.701 224.086C128.296 224.592 126.802 224.959 126.397 225.553C126.03 226.097 126.017 227.388 126.005 228.881C125.992 230.639 125.967 233.043 125.182 233.321C124.473 233.574 121.688 232.967 119.219 232.423C115.345 231.575 112.94 231.107 112.167 231.601C111.61 231.955 110.825 233.41 109.597 235.75C108.142 238.495 105.951 242.632 104.761 242.556C103.673 242.468 101.115 239.52 99.0645 237.154C96.6844 234.409 95.1779 232.739 94.2917 232.549C94.2031 232.537 94.1018 232.524 93.9752 232.524C92.8612 232.524 90.5317 233.346 87.8858 234.27C85.1513 235.231 81.7458 236.433 81.0242 236.079C80.3532 235.75 80.771 232.322 81.0749 229.829C81.3914 227.236 81.6825 224.782 81.2648 223.808C80.6064 221.91 76.4287 221.417 72.732 220.974C70.6685 220.721 68.3391 220.442 68.0352 219.974C68.0226 219.962 68.0226 219.949 68.0226 219.936C68.2125 219.683 68.4404 219.418 68.7189 219.139C76.9478 219.873 82.3155 220.873 83.0878 221.834C83.9107 222.859 83.5309 226.186 83.227 228.868C82.9359 231.461 82.8093 232.84 83.265 233.245C83.7967 233.713 85.4425 233.182 89.0759 231.866C91.3167 231.044 93.8486 230.133 94.7601 230.209C95.9122 230.323 99.2037 234.257 101.381 236.863C103.533 239.431 104.065 240.039 104.42 240.039C104.837 240.039 105.268 239.343 107.268 235.396C108.458 233.03 110.104 229.791 110.699 229.45C111.471 228.994 117.447 230.196 120.32 230.778C122.536 231.221 123.08 231.322 123.257 231.284C123.662 231.208 123.751 230.715 123.878 227.59C123.928 226.3 124.017 224.364 124.194 224.099C124.473 223.858 126.726 223.491 128.22 223.238C131.499 222.694 132.094 222.543 132.221 222.188C132.334 221.847 132.043 221.429 131.36 220.493C130.79 219.721 129.84 218.418 130.056 217.938C130.208 217.609 131.929 216.698 136.297 215.243C137.614 215.66 138.082 215.875 138.247 215.977C138.019 216.318 136.487 216.9 135.563 217.254Z" fill="#939393"/>
<path d="M87.5547 206.071L87.8332 216.229C87.8332 216.229 94.6568 220.025 101.797 220.025C108.76 220.025 116.039 216.255 116.039 215.799C115.824 205.097 115.824 205.097 115.824 205.097L87.5547 206.071Z" fill="#FBC69F"/>
<path d="M116.04 215.799C115.825 205.097 115.825 205.097 115.825 205.097L108.799 205.337L102.874 207.817C102.874 207.817 105.267 215.85 102.152 220.012C109.014 219.898 116.053 216.242 116.04 215.799Z" fill="#FBC69F"/>
<path d="M115.533 205.109L115.748 215.723C115.115 216.356 108.342 219.734 101.81 219.734H101.797C95.3786 219.734 89.1373 216.596 88.1119 216.052L87.846 206.058L87.2637 206.071L87.5422 216.394L87.6814 216.47C87.7447 216.508 94.6443 220.303 101.784 220.303H101.797C108.304 220.303 115.28 217.001 116.166 216.09C116.229 216.027 116.318 215.913 116.318 215.774L116.103 205.071L115.533 205.109Z" fill="#CC763B"/>
<path d="M115.978 212.232L116.028 214.712C101.292 223.681 87.7969 214.497 87.7969 214.497L87.7336 212.232C86.0498 213.295 85.5055 214.358 86.6575 215.99C87.2778 216.875 88.1387 217.558 89.0882 218.052C98.7223 223.049 112.078 220.671 116.104 217.546C119.459 214.94 115.978 212.232 115.978 212.232Z" fill="white"/>
<path d="M115.978 212.232L116.028 214.712C111.521 217.457 107.141 218.495 103.229 218.621L103.166 218.748C103.166 218.748 104.888 219.671 103.166 220.81C103.191 220.848 103.229 220.886 103.255 220.924C108.914 220.746 113.914 219.266 116.117 217.546C119.459 214.94 115.978 212.232 115.978 212.232Z" fill="#B5B4B4"/>
<path d="M116.154 212.005L115.673 211.638L115.737 214.547C102.127 222.72 89.4675 215.205 88.0876 214.332L88.0117 211.714L87.5812 211.992C86.5051 212.675 85.9481 213.32 85.7962 214.054C85.6696 214.699 85.8721 215.395 86.4165 216.167C87.0242 217.027 87.9104 217.773 88.9485 218.317C93.0376 220.443 97.7217 221.252 102.102 221.252C108.331 221.252 113.926 219.608 116.281 217.786C117.332 216.976 117.851 216.053 117.851 215.066C117.851 213.346 116.218 212.055 116.154 212.005ZM115.927 217.318C112.129 220.266 98.7725 222.758 89.227 217.799C88.2649 217.293 87.4546 216.61 86.8976 215.825C86.4418 215.18 86.2773 214.636 86.3659 214.155C86.4545 213.687 86.809 213.244 87.4546 212.764L87.5053 214.636L87.6319 214.725C87.7711 214.813 101.444 223.909 116.18 214.94L116.319 214.851L116.281 212.903C116.711 213.371 117.269 214.155 117.269 215.041C117.269 215.863 116.813 216.622 115.927 217.318Z" fill="#939393"/>
<path d="M56.513 245.162L28.0031 256.194C27.3448 265.315 29.1678 269.755 46.2459 285.076C63.7671 271.071 63.7671 271.071 63.7671 271.071L57.3486 258.964C57.3486 258.977 59.1463 251.639 56.513 245.162Z" fill="#009A00"/>
<path opacity="0.7" d="M57.3504 258.977C57.3504 258.977 59.1227 251.716 56.5655 245.276C56.4642 245.276 56.3629 245.276 56.249 245.276C55.2742 246.111 54.312 246.377 53.4638 246.352L50.0456 247.68C49.9697 251.349 50.2482 257.649 52.8308 261.318C55.0843 264.518 55.8059 271.843 56.0337 277.283C63.7816 271.097 63.7816 271.084 63.7816 271.084L57.3504 258.977Z" fill="#009A00"/>
<path d="M56.248 245.276C58.8053 251.577 57.0836 258.838 57.0583 258.901L57.0329 259.003L63.3882 270.996L46.2594 284.697C29.6751 269.806 27.6242 265.467 28.2952 256.219L27.7128 256.181C27.0418 265.543 29.2446 270.224 46.0569 285.304L46.2341 285.468L64.1351 271.16L57.6533 258.939C59.3877 249.198 56.248 245.276 56.248 245.276Z" fill="#004A00"/>
<path d="M50.1973 244.809C50.2479 244.859 55.4384 249.426 57.0589 259.028L57.6286 258.927C55.9828 249.123 50.1973 244.809 50.1973 244.809Z" fill="#004A00"/>
<path d="M139.283 256.359L139.714 256.751C142.891 253.322 142.828 238.344 142.828 238.344C142.815 238.496 142.309 253.082 139.283 256.359Z" fill="#004A00"/>
<path d="M194.163 228.88C192.999 223.82 178.794 224.162 174.503 223.883C173.616 223.82 172.793 224.124 171.983 224.655C172.718 225.085 173.49 225.452 174.325 225.616C174.211 225.591 173.983 226.16 173.768 226.629C173.895 226.666 174.034 226.717 174.161 226.755C174.034 226.717 173.376 228.425 173.224 228.374C173.021 228.311 172.831 228.248 172.629 228.185C172.388 228.64 172.021 229.614 171.869 229.576C171.565 229.5 171.274 229.399 170.983 229.285C170.768 229.753 170.527 230.323 170.413 230.297C170.274 230.272 170.148 230.221 170.021 230.183C169.806 230.563 169.603 230.93 169.578 230.917C168.793 230.525 167.97 230.234 167.173 229.892C165.59 231.942 163.843 234.168 161.691 235.914C156.095 240.481 157.361 247.439 157.361 247.439L167.679 268.098C188.517 265.391 195.341 233.941 194.163 228.88Z" fill="#009A00"/>
<path opacity="0.7" d="M167.691 268.111C186.351 265.669 193.77 240.152 194.264 231.246C189.213 231.018 182.528 235.294 181.541 239.912C180.097 246.617 173.147 257.8 165.21 258.686C164.488 258.762 163.741 258.736 162.969 258.623L167.691 268.111Z" fill="#009A00"/>
<path d="M194.454 228.817C193.403 224.25 182.643 223.883 176.87 223.694C175.933 223.656 175.135 223.63 174.54 223.592C173.54 223.529 172.616 223.871 171.73 224.491C171.92 224.605 172.097 224.718 172.287 224.82C173.008 224.377 173.73 224.124 174.502 224.174C175.11 224.212 175.908 224.238 176.857 224.276C182.478 224.465 192.948 224.82 193.897 228.956C194.657 232.246 192.087 245.934 184.997 256.131C180.212 263.025 174.376 266.96 167.666 267.845L167.742 268.427C174.616 267.529 180.592 263.506 185.478 256.472C192.644 246.124 195.226 232.182 194.454 228.817Z" fill="#004A00"/>
<path d="M166.907 229.791C165.363 231.79 163.616 233.991 161.527 235.699C160.248 236.736 159.324 237.913 158.653 239.089C156.349 243.163 157.666 247.401 157.666 247.401C157.653 247.338 156.501 240.557 161.894 236.154C164.084 234.371 165.869 232.081 167.464 230.031C167.274 229.955 167.097 229.867 166.907 229.791Z" fill="#004A00"/>
<path d="M57.2613 258.509C56.6156 258.382 58.8058 269.907 58.3627 269.907C57.9196 269.907 46.5384 262.203 44.6774 263.506C43.69 264.29 47.4119 278.662 47.4119 278.662C47.4119 278.662 36.8663 275.335 36.4865 275.79C36.1194 276.233 43.9938 284.165 45.6775 285.013C45.7282 285.038 45.7788 285.05 45.8295 285.076C45.7915 285.063 45.7408 285.038 45.6775 285.013C42.2341 283.596 34.9547 280.42 35.9548 281.356C35.9548 281.356 43.69 288.871 47.4119 289.162C51.1339 289.453 55.5775 278.08 66.427 272.969C67.7056 272.109 59.5907 259.875 57.2613 258.509Z" fill="#FF0000"/>
<path d="M58.3619 269.92C58.2227 269.92 56.8807 269.085 55.0957 268.01C57.1086 272.197 59.0456 276.321 56.0958 281.002C58.7544 278.093 62.0713 275.031 66.4262 272.982C67.7049 272.109 59.5899 259.875 57.2605 258.522C56.6149 258.395 58.805 269.92 58.3619 269.92Z" fill="#BD0000"/>
<path d="M45.6777 285.025C45.741 285.051 45.7917 285.076 45.8297 285.089C45.7917 285.063 45.7284 285.051 45.6777 285.025Z" fill="#FF0000"/>
<path d="M57.4127 258.256L57.1216 258.205L57.0076 258.306C56.7038 258.597 56.7924 259.723 57.552 264.973C57.7925 266.656 58.0837 268.68 58.1217 269.464C57.7546 269.262 57.1216 268.87 56.4633 268.478C51.4246 265.429 45.9303 262.253 44.4871 263.265C43.4996 264.05 45.8037 273.601 46.9937 278.219C36.7519 275.005 36.3848 275.436 36.2582 275.6C36.1949 275.663 36.1442 275.79 36.2075 275.98C36.4987 276.903 41.0183 281.508 43.7781 283.912C43.7022 283.874 43.6262 283.848 43.5376 283.811C35.9037 280.61 35.8404 280.724 35.6125 281.053C35.5366 281.167 35.5112 281.344 35.7391 281.571C36.0809 281.9 43.6009 289.162 47.3735 289.453C47.4241 289.453 47.4874 289.466 47.5381 289.466C49.2598 289.466 51.0069 287.378 53.3996 284.544C56.4 280.977 60.4891 276.093 66.5785 273.222C66.7684 273.095 66.857 272.88 66.8443 272.577C66.7684 270.072 59.4636 259.47 57.4127 258.256ZM66.262 272.741C60.1346 275.638 55.9948 280.572 52.9691 284.165C50.703 286.859 48.9053 288.985 47.4368 288.884C44.4364 288.643 38.5876 283.431 36.7393 281.71C38.2205 282.217 41.2968 283.52 43.3224 284.367C44.1832 284.721 44.9808 285.063 45.6264 285.329C45.6771 285.354 45.7151 285.367 45.753 285.379L45.9429 284.823C45.8796 284.797 45.8163 284.772 45.7404 284.747C44.2085 283.937 37.9166 277.536 36.9038 276.068C38.1951 276.22 43.0185 277.599 47.3355 278.953L47.8419 279.117L47.7153 278.611C45.9556 271.83 44.4238 264.417 44.8669 263.771C46.1075 262.899 53.4376 267.339 56.1974 269.009C57.9951 270.097 58.223 270.223 58.3876 270.223L58.5395 270.211L58.6281 270.11C58.8306 269.869 58.7673 269.148 58.1597 264.923C57.8558 262.797 57.4507 259.976 57.4507 259.002C59.7168 260.836 65.6163 269.642 66.2366 272.26C66.2999 272.577 66.2746 272.703 66.262 272.741Z" fill="#6F0000"/>
<path d="M193.517 231.942L174.705 226.882C171.198 226.199 165.944 229.994 165.248 232.347C164.552 234.7 172.553 235.687 172.553 235.687C172.553 235.687 165.463 237.774 166.628 242.835C167.793 247.895 176.895 243.404 176.895 243.404C175.806 250.375 182.807 255.827 185.175 244.1C189.01 252.475 198.24 247.882 191.251 240.292C199.151 239.343 196.771 234.662 193.517 231.942Z" fill="#FF0000"/>
<path d="M173.896 239.976C173.896 239.976 170.921 243.037 166.705 243.126C167.401 246.238 175.25 244.96 177.263 242.898" fill="#FF0000"/>
<path d="M171.831 231.233C171.831 231.233 168.501 233.093 165.197 232.815C165.261 234.814 172.54 235.687 172.54 235.687" fill="#FF0000"/>
<path d="M181.44 244.378C181.44 244.378 181.908 249.059 180.25 250.767C181.731 251.235 183.757 248.591 184.162 247.579C184.554 246.567 185.213 243.821 185.213 243.821" fill="#FF0000"/>
<path d="M188.416 242.278C188.416 242.278 192.568 243.796 193.353 247.111C194.569 244.581 191.897 240.38 190.163 239.976" fill="#FF0000"/>
<path d="M191.023 236.256C191.023 236.256 194.796 235.522 196.252 237.065C197.315 235.206 194.48 232.726 193.631 232.827" fill="#FF0000"/>
<path d="M193.708 231.714L193.328 232.157C194.961 233.523 196.683 235.737 196.177 237.445C195.784 238.774 194.063 239.659 191.214 240.001L190.644 240.064L191.024 240.481C193.138 242.784 193.949 245.036 193.24 246.68C192.809 247.667 191.86 248.262 190.682 248.274C190.67 248.274 190.657 248.274 190.644 248.274C189.062 248.274 186.872 247.148 185.416 243.96L185.036 243.138L184.859 244.024C183.96 248.502 182.238 250.969 180.263 250.602C178.326 250.248 176.579 247.11 177.162 243.429L177.25 242.872L176.744 243.125C176.681 243.151 171.072 245.883 168.287 244.568C167.553 244.213 167.085 243.619 166.895 242.746C165.806 238.014 172.541 235.965 172.617 235.94L173.959 235.548L172.566 235.37C170.92 235.168 166.477 234.346 165.616 233.017C165.477 232.815 165.451 232.613 165.515 232.397C166.186 230.146 171.351 226.502 174.642 227.135L174.756 226.565C171.148 225.857 165.705 229.741 164.958 232.233C164.844 232.613 164.907 232.992 165.135 233.334C166.034 234.7 169.553 235.459 171.389 235.775C169.401 236.623 165.413 238.862 166.338 242.872C166.578 243.922 167.161 244.669 168.059 245.099C170.617 246.313 175.06 244.53 176.529 243.872C176.124 247.756 178.061 250.805 180.175 251.184C180.339 251.209 180.491 251.222 180.656 251.222C182.643 251.222 184.327 248.945 185.277 244.947C186.859 247.832 189.1 248.856 190.708 248.844C192.113 248.831 193.265 248.097 193.797 246.895C194.556 245.137 193.847 242.822 191.835 240.481C194.645 240.051 196.303 239.077 196.747 237.584C197.329 235.636 195.569 233.27 193.708 231.714Z" fill="#6F0000"/>
<path d="M172.757 230.677C172.757 230.677 170.706 243.707 181.808 244.1C192.898 244.492 191.151 231.55 191.151 231.55C191.151 231.55 178.593 226.793 172.757 230.677Z" fill="#033503"/>
<path d="M175.237 234.94C175.237 234.94 173.629 238.419 174.034 239.634C174.452 240.848 182.732 248.755 189.505 240.519C190.859 234.814 189.479 234.953 189.479 234.953C189.479 234.953 175.439 234.169 175.237 234.94Z" fill="#FBC69F"/>
<path d="M175.237 234.94C175.237 234.94 173.629 238.419 174.034 239.634C174.452 240.848 182.732 248.755 189.505 240.519C190.859 234.814 189.479 234.953 189.479 234.953C189.479 234.953 175.439 234.169 175.237 234.94Z" fill="#FBC69F"/>
<path d="M191.417 231.347L191.252 231.284C190.733 231.081 178.491 226.514 172.591 230.436L172.49 230.512L172.465 230.639C172.427 230.904 171.465 237.268 174.782 241.291C176.402 243.252 178.757 244.289 181.782 244.403C181.947 244.403 182.112 244.416 182.276 244.416C185.099 244.416 187.327 243.543 188.897 241.797C192.265 238.077 191.467 231.79 191.429 231.524L191.417 231.347ZM188.48 241.392C186.935 243.087 184.694 243.897 181.82 243.808C178.959 243.707 176.757 242.733 175.25 240.911C172.351 237.407 172.921 231.765 173.035 230.854C178.364 227.451 189.404 231.233 190.885 231.765C190.986 232.802 191.366 238.204 188.48 241.392Z" fill="#6F0000"/>
<path d="M196.57 190.22C191.405 189.246 186.936 212.447 184.695 212.511C182.454 212.586 178.467 186.855 173.795 190.182C169.225 193.446 177.846 205.515 173.327 217.685C173.137 218.203 172.884 218.697 172.618 219.19C170.959 222.366 170.225 225.718 170.124 228.413C170.124 228.413 168.769 240.634 180.821 238.837C184.201 239.027 187.86 240.975 193.19 235.535C198.52 230.095 196.57 223.289 194.038 217.697C191.494 212.093 201.723 191.194 196.57 190.22Z" fill="#FBC69F"/>
<path d="M194.279 218.254L193 218.368C193 218.368 197.963 236.674 184.278 235.447C176.948 237.964 172.01 235.345 170.314 230.677C170.251 230.728 170.2 230.791 170.137 230.842C170.453 234.308 172.238 240.115 180.822 238.837C184.202 239.027 187.86 240.975 193.19 235.535C198.33 230.272 196.684 223.744 194.279 218.254Z" fill="#FBC69F"/>
<path d="M187.557 206.653C186.393 209.981 185.418 212.485 184.684 212.511C183.949 212.536 183.013 209.74 181.937 206.109C179.67 212.738 174.746 209.196 174.746 209.196L174.543 206.97C174.847 210.373 174.682 214.029 173.315 217.685C173.29 217.761 173.252 217.824 173.227 217.9C173.265 218.052 173.303 218.216 173.34 218.381C182.392 206.894 193.723 216.774 193.761 216.812C193.33 214.699 193.963 211.322 194.862 207.678C194.774 207.514 194.685 207.362 194.584 207.185C190.431 211.511 187.659 209.095 187.557 206.653Z" fill="#FBC69F"/>
<path d="M197.836 190.763C197.545 190.308 197.14 190.03 196.621 189.929C193.216 189.283 190.418 197.443 187.936 204.642C186.784 208.007 185.341 212.194 184.67 212.219C184.025 212.219 182.645 207.513 181.632 204.085C179.771 197.734 177.657 190.548 175.15 189.688C174.631 189.511 174.112 189.6 173.606 189.954C171.327 191.573 172.074 195.115 173.011 199.581C174.087 204.73 175.429 211.131 173.036 217.583C172.859 218.064 172.631 218.52 172.34 219.051C170.301 222.947 169.884 226.578 169.82 228.387C169.782 228.742 169.276 234.055 172.504 237.167C174.403 239.001 177.201 239.659 180.822 239.128C181.417 239.166 182.024 239.254 182.657 239.343C183.556 239.482 184.493 239.621 185.48 239.621C187.734 239.621 190.291 238.9 193.38 235.725C198.9 230.07 196.773 223.049 194.292 217.558C193.165 215.066 194.71 209.259 196.203 203.642C197.697 198.05 199.102 192.762 197.836 190.763ZM193.76 217.811C196.165 223.125 198.242 229.931 192.975 235.32C188.734 239.659 185.556 239.191 182.759 238.774C182.1 238.673 181.467 238.584 180.847 238.546H180.822H180.796C177.353 239.065 174.707 238.457 172.947 236.75C169.884 233.802 170.428 228.489 170.441 228.438V228.413C170.504 226.641 170.909 223.112 172.897 219.317C173.188 218.76 173.428 218.292 173.618 217.786C176.074 211.169 174.72 204.679 173.618 199.455C172.719 195.191 172.023 191.814 173.985 190.409C174.327 190.169 174.656 190.106 174.998 190.219C177.214 190.979 179.378 198.329 181.113 204.237C182.936 210.423 183.721 212.789 184.708 212.789C184.721 212.789 184.721 212.789 184.734 212.789C185.759 212.763 186.734 210.031 188.531 204.819C190.684 198.544 193.646 189.941 196.545 190.485C196.912 190.548 197.178 190.738 197.381 191.054C198.507 192.838 197.064 198.253 195.672 203.49C194.127 209.221 192.545 215.129 193.76 217.811Z" fill="#CC763B"/>
<path d="M180.012 218.127C176.442 217.102 173.315 217.684 171.441 221.847L176.379 225.326C187.038 227.957 188.925 219.582 188.038 217.684C187.165 215.787 183.595 219.152 180.012 218.127Z" fill="#FBC69F"/>
<path d="M176.291 225.276C176.291 225.276 185.216 224.2 187.596 218.368C189.989 221.442 183.722 227.856 176.291 225.276Z" fill="#FBC69F"/>
<path d="M184.962 217.305C183.557 217.761 181.81 218.33 180.101 217.849C175.822 216.635 172.91 217.9 171.176 221.733L171.708 221.973C173.315 218.406 175.936 217.267 179.936 218.419C181.81 218.95 183.658 218.355 185.14 217.862C186.659 217.369 187.469 217.141 187.785 217.811C188.14 218.583 187.937 221.075 186.279 223.087C184.823 224.858 181.899 226.667 176.29 225.288C176.29 225.288 178.151 226.363 179.987 226.363C183.481 226.363 185.545 224.896 186.722 223.466C188.494 221.316 188.786 218.621 188.305 217.571C187.76 216.382 186.469 216.812 184.962 217.305Z" fill="#CC763B"/>
<path d="M194.101 211.081C194.101 211.081 189.67 213.599 187.176 217.103C184.682 220.607 186.949 227.072 194.582 218.975C199.431 214.193 196.228 209.664 194.101 211.081Z" fill="#FBC69F"/>
<path d="M194.583 218.976C197.748 215.851 197.482 212.84 196.317 211.524L196.153 211.79C196.153 211.79 193.19 219.596 186.81 221.595C186.797 221.797 186.81 221.987 186.835 222.151C187.949 223.467 190.494 223.315 194.583 218.976Z" fill="#FBC69F"/>
<path d="M193.95 210.828C193.671 210.993 189.418 213.46 186.949 216.926C185.582 218.849 185.582 221.518 186.936 222.644C187.227 222.885 187.721 223.163 188.481 223.163C189.772 223.163 191.798 222.353 194.785 219.178C197.887 216.116 197.912 213.004 196.608 211.41C195.887 210.499 194.811 210.272 193.95 210.828ZM194.368 218.773C191.304 222.024 188.658 223.315 187.303 222.201C186.177 221.278 186.227 218.938 187.417 217.28C189.848 213.877 194.203 211.36 194.241 211.347L194.254 211.334C194.469 211.195 194.697 211.119 194.937 211.119C195.368 211.119 195.798 211.347 196.153 211.777C197.305 213.169 197.229 215.952 194.368 218.773Z" fill="#CC763B"/>
<path d="M197.672 217.774C197.672 217.774 193.241 220.291 190.747 223.796C188.253 227.3 190.519 233.765 198.153 225.668C203.001 220.886 199.811 216.37 197.672 217.774Z" fill="#FBC69F"/>
<path d="M190.432 228.855C191.533 230.171 194.078 230.006 198.167 225.68C201.332 222.555 201.066 219.544 199.901 218.216L199.749 218.481C199.737 218.481 196.217 225.756 190.432 228.855Z" fill="#FBC69F"/>
<path d="M197.52 217.533C197.242 217.698 192.988 220.164 190.52 223.631C189.152 225.554 189.152 228.223 190.52 229.349C190.811 229.589 191.304 229.868 192.064 229.868C193.355 229.868 195.381 229.058 198.369 225.883C201.47 222.821 201.496 219.709 200.192 218.115C199.457 217.204 198.381 216.964 197.52 217.533ZM197.938 225.465C194.875 228.717 192.229 230.007 190.874 228.894C189.747 227.97 189.798 225.63 190.988 223.972C193.419 220.569 197.774 218.052 197.812 218.039L197.824 218.027C198.04 217.887 198.267 217.811 198.508 217.811C198.938 217.811 199.369 218.039 199.723 218.482C200.875 219.874 200.799 222.657 197.938 225.465Z" fill="#CC763B"/>
<path d="M180.43 238.596L180.468 239.178C182.493 239.039 184.202 237.141 184.278 237.065C184.278 237.065 182.215 238.482 180.43 238.596Z" fill="#CC763B"/>
<path d="M35.2088 124.068C35.2088 126.8 31.6134 129.014 27.1698 129.014C22.7262 129.014 19.1309 126.8 19.1309 124.068C19.1309 121.335 22.7262 119.121 27.1698 119.121C31.6134 119.121 35.2088 121.335 35.2088 124.068Z" fill="#560000"/>
<path d="M182.378 114.048C182.378 118.235 177.821 121.626 172.187 121.626C166.554 121.626 161.996 118.235 161.996 114.048C161.996 109.86 166.554 106.47 172.187 106.47C177.808 106.47 182.378 109.86 182.378 114.048Z" fill="#560000"/>
<path d="M29.6992 159.047C29.6992 159.047 35.624 178.921 47.5875 184.602C53.0566 174.19 43.9162 156.238 43.9162 156.238L29.6992 159.047Z" fill="#962C05"/>
<path opacity="0.6" d="M29.6992 159.047C29.6992 159.047 35.624 178.921 47.5875 184.602C53.0566 174.19 43.9162 156.238 43.9162 156.238L29.6992 159.047Z" fill="#962C05"/>
<path d="M43.4991 156.466C43.5877 156.643 52.2217 173.836 47.3857 183.969C36.0298 178.175 30.2316 159.11 30.1683 158.921L29.2441 159.199C29.4847 160.021 35.3715 179.339 47.3857 185.057L47.8034 185.26L48.0187 184.855C53.5383 174.342 44.7271 156.795 44.3473 156.049L43.4991 156.466Z" fill="#441303"/>
<path d="M157.665 173.001C171.578 168.207 174.718 147.219 174.718 147.219L160.349 144.208C160.337 144.208 156.488 163.615 157.665 173.001Z" fill="#962C05"/>
<path opacity="0.6" d="M157.665 173.001C171.578 168.207 174.718 147.219 174.718 147.219L160.349 144.208C160.337 144.208 156.488 163.615 157.665 173.001Z" fill="#962C05"/>
<path d="M158.071 172.331C157.159 162.918 160.78 144.486 160.818 144.296L159.881 144.106C159.729 144.903 156.033 163.703 157.197 173.052L157.273 173.634L157.83 173.444C171.857 168.611 175.06 148.142 175.2 147.282L174.25 147.143C174.199 147.345 171.072 167.321 158.071 172.331Z" fill="#441303"/>
<path d="M164.869 110.165L161.742 149.041C170.971 150.774 185.176 145.018 190.277 129.787C194.05 120.02 201.254 115.2 198.861 110.949C196.455 106.699 184.239 124.03 164.869 110.165Z" fill="#FBC69F"/>
<path d="M198.67 110.708C195.949 107.571 184.314 123.005 166.084 110.986L166.679 113.061C166.679 113.061 176.87 123.587 198.43 111.189C198.518 111.024 198.594 110.86 198.67 110.708Z" fill="#FFFEFD"/>
<path d="M167.653 126.927C167.653 126.927 179.477 118.995 185.807 121.88C186.643 129.635 180.186 140.616 166.223 144.107" fill="#FBC69F"/>
<path d="M193.278 111.404C187.555 114.226 177.985 118.97 165.147 109.772L164.59 110.557C177.896 120.083 187.796 115.187 193.708 112.265C196.455 110.911 197.911 110.241 198.443 111.189C199.683 113.378 197.949 115.908 195.556 119.412C193.733 122.082 191.455 125.409 189.834 129.634C184.631 145.157 170.072 150.104 161.843 148.56L161.666 149.509C162.717 149.711 163.856 149.813 165.046 149.813C173.87 149.813 185.948 144.246 190.733 129.963C192.315 125.864 194.556 122.588 196.354 119.956C198.937 116.161 200.81 113.429 199.291 110.721C198.266 108.938 196.177 109.975 193.278 111.404Z" fill="#CC763B"/>
<path d="M162.818 129.646L163.426 130.393C163.565 130.279 176.833 119.677 185.821 121.891C185.188 140.918 164.831 143.701 164.629 143.727L164.743 144.676C164.958 144.65 186.404 141.741 186.796 121.524V121.158L186.442 121.056C176.972 118.336 163.388 129.178 162.818 129.646Z" fill="#CC763B"/>
<path d="M175.908 122.714C175.934 122.752 178.2 126.724 176.592 130.861C175.313 134.188 171.933 136.719 166.578 138.414L166.869 139.325C172.528 137.541 176.098 134.808 177.491 131.203C179.263 126.636 176.845 122.398 176.731 122.221L175.908 122.714Z" fill="#CC763B"/>
<path d="M186.113 121.082L186.493 121.967C191.177 119.981 193.393 115.73 193.393 115.73C193.367 115.756 190.57 119.184 186.113 121.082Z" fill="#CC763B"/>
<path d="M0.798653 126.914C-1.12564 131.405 6.57153 135.403 11.3823 144.701C18.1173 159.288 32.866 163.45 41.8545 160.73L29.8276 122.436C17.7881 135.086 2.71029 122.436 0.798653 126.914Z" fill="#FBC69F"/>
<path d="M1.8357 126.534C18.61 133.682 27.7757 126.458 27.7757 126.458L28.5479 123.675C18.0149 133.1 5.6463 124.839 1.79772 126.053C1.78506 126.192 1.79772 126.357 1.8357 126.534Z" fill="#FFFEFD"/>
<path d="M32.6369 139.008C32.6369 139.008 20.2556 132.935 14.5586 136.351C13.9763 142.234 22.7242 155.289 36.8146 156.036C50.905 156.77 36.6627 140.779 36.6627 140.779" fill="#FBC69F"/>
<path d="M11.7997 144.486C9.72352 140.488 7.10293 137.427 5.0014 134.96C2.24156 131.734 0.241311 129.406 1.22878 127.104C1.73517 125.927 3.69744 126.357 7.10293 127.217C13.1417 128.748 22.2694 131.063 30.1565 122.752L29.4602 122.094C21.9529 129.988 13.167 127.761 7.34347 126.281C3.7734 125.383 1.20346 124.725 0.342589 126.724C-0.885414 129.583 1.27942 132.101 4.26713 135.58C6.34335 137.996 8.92595 141.02 10.9389 144.903C16.6991 157.365 27.6625 161.982 36.2079 161.982C38.3221 161.982 40.2843 161.704 41.9807 161.185L41.7022 160.262C33.7012 162.691 18.674 159.363 11.7997 144.486Z" fill="#CC763B"/>
<path d="M38.1322 142.373L38.6513 141.563C38.031 141.171 23.3456 131.86 14.2305 135.605L13.8887 135.744L13.9393 136.111C16.5219 156.163 38.1702 156.719 38.3854 156.719L38.3981 155.758C38.1829 155.758 17.6486 155.214 14.9394 136.364C23.6367 133.201 37.993 142.285 38.1322 142.373Z" fill="#CC763B"/>
<path d="M25.0927 144.283C23.0418 140.349 24.8648 136.136 24.8775 136.098L23.9913 135.706C23.9027 135.896 21.9657 140.362 24.2192 144.714C26.0042 148.142 29.8528 150.47 35.6637 151.634L35.8536 150.697C30.3592 149.597 26.7258 147.446 25.0927 144.283Z" fill="#CC763B"/>
<path d="M14.2806 136.516L14.5592 135.593C9.92566 134.201 6.77337 131.101 6.74805 131.063C6.74805 131.063 9.41927 135.049 14.2806 136.516Z" fill="#CC763B"/>
<path d="M160.983 103.839C160.983 103.839 79.5169 73.0718 29.8145 117.299C32.3844 131.405 35.5873 145.827 35.5873 145.827C35.5873 145.827 33.663 198.063 83.049 203.515C97.1521 214.092 120.573 206.716 125.7 201.592C145.905 194.546 165.794 170.825 164.831 143.259C163.869 115.705 160.983 103.839 160.983 103.839Z" fill="#FBC69F"/>
<path opacity="0.6" d="M115.471 135.024C115.471 145.992 121.408 154.886 128.751 154.886C136.081 154.886 142.031 145.992 142.031 135.024C142.031 124.056 136.081 115.162 128.751 115.162C121.421 115.162 115.471 124.056 115.471 135.024Z" fill="#FBC69F"/>
<path opacity="0.55" d="M116.939 137.403C116.939 146.878 122.219 154.57 128.738 154.57C135.258 154.57 140.537 146.891 140.537 137.403C140.537 127.914 135.258 120.235 128.738 120.235C122.231 120.235 116.939 127.914 116.939 137.403Z" fill="#FBC69F"/>
<path d="M116.939 138.377C116.939 147.321 122.219 154.557 128.738 154.557C135.258 154.557 140.537 147.308 140.537 138.377C140.537 129.445 135.258 122.196 128.738 122.196C122.231 122.196 116.939 129.445 116.939 138.377Z" fill="black"/>
<path d="M117.496 138.907C117.496 147.32 122.535 154.139 128.751 154.139C134.967 154.139 140.005 147.32 140.005 138.907C140.005 130.495 134.967 123.676 128.751 123.676C122.535 123.676 117.496 130.495 117.496 138.907Z" fill="#BFBFBF"/>
<path d="M128.751 123.676C133.992 123.676 138.397 128.521 139.651 135.087C139.663 135.353 139.663 135.631 139.663 135.897C139.663 144.309 134.625 151.128 128.409 151.128C123.168 151.128 118.762 146.283 117.509 139.705C117.496 139.439 117.496 139.161 117.496 138.895C117.496 130.495 122.535 123.676 128.751 123.676Z" fill="white"/>
<path d="M117.408 138.908C117.408 130.47 122.497 123.601 128.739 123.601C134.993 123.601 140.082 130.47 140.082 138.908C140.082 147.346 134.993 154.216 128.739 154.216C122.497 154.216 117.408 147.346 117.408 138.908ZM117.585 138.908C117.585 147.258 122.599 154.064 128.751 154.064C134.904 154.064 139.917 147.27 139.917 138.908C139.917 130.546 134.904 123.752 128.751 123.752C122.586 123.752 117.585 130.559 117.585 138.908Z" fill="black"/>
<path d="M120.434 143.209C120.434 148.839 123.535 153.393 127.371 153.393C131.194 153.393 134.309 148.839 134.309 143.209C134.309 137.58 131.207 133.025 127.371 133.025C123.535 133.025 120.434 137.58 120.434 143.209Z" fill="black"/>
<path d="M132.612 145.297C132.612 149.75 130.194 153.368 127.207 153.368C124.219 153.368 121.801 149.75 121.801 145.297C121.801 140.844 124.219 137.226 127.207 137.226C130.194 137.226 132.612 140.844 132.612 145.297Z" fill="url(#paint0_radial_502_1474)"/>
<path d="M123.168 143.943C123.168 146.891 125.029 149.282 127.333 149.282C129.637 149.282 131.498 146.891 131.498 143.943C131.498 140.996 129.637 138.604 127.333 138.604C125.042 138.617 123.168 141.008 123.168 143.943Z" fill="black"/>
<path opacity="0.7" d="M127.359 136.504C127.359 138.161 128.6 139.502 130.119 139.502C131.638 139.502 132.879 138.161 132.879 136.504C132.879 134.847 131.638 133.506 130.119 133.506C128.6 133.506 127.359 134.847 127.359 136.504Z" fill="white"/>
<path opacity="0.9" d="M126.928 141.514C126.928 142.311 127.523 142.969 128.27 142.969C129.004 142.969 129.612 142.324 129.612 141.514C129.612 140.717 129.017 140.06 128.27 140.06C127.523 140.06 126.928 140.705 126.928 141.514Z" fill="white"/>
<path d="M139.625 154.14C139.625 156.138 135.144 157.77 129.612 157.77C124.079 157.77 119.598 156.151 119.598 154.14C119.598 152.128 124.079 150.509 129.612 150.509C135.131 150.509 139.625 152.141 139.625 154.14Z" fill="#FBC69F"/>
<path d="M120.129 108.988C120.129 108.988 124.383 102.612 137.03 111.265C133.789 105.851 121.002 95.5528 120.129 108.988Z" fill="#441303"/>
<path opacity="0.6" d="M78.7322 135.024C78.7322 145.992 72.7947 154.886 65.452 154.886C58.122 154.886 52.1719 145.992 52.1719 135.024C52.1719 124.056 58.122 115.162 65.452 115.162C72.7947 115.162 78.7322 124.056 78.7322 135.024Z" fill="#FBC69F"/>
<path opacity="0.55" d="M77.2629 137.403C77.2629 146.878 71.9838 154.57 65.464 154.57C58.9441 154.57 53.6523 146.891 53.6523 137.403C53.6523 127.914 58.9441 120.235 65.464 120.235C71.9838 120.235 77.2629 127.914 77.2629 137.403Z" fill="#FBC69F"/>
<path d="M77.2629 138.377C77.2629 147.321 71.9838 154.557 65.464 154.557C58.9441 154.557 53.6523 147.308 53.6523 138.377C53.6523 129.445 58.9441 122.196 65.464 122.196C71.9838 122.196 77.2629 129.445 77.2629 138.377Z" fill="black"/>
<path d="M76.7064 138.907C76.7064 147.32 71.6678 154.139 65.4518 154.139C59.2359 154.139 54.1973 147.32 54.1973 138.907C54.1973 130.495 59.2359 123.676 65.4518 123.676C71.6805 123.676 76.7064 130.495 76.7064 138.907Z" fill="#BFBFBF"/>
<path d="M65.4655 123.676C60.2243 123.676 55.8187 128.521 54.5654 135.087C54.5527 135.353 54.5527 135.631 54.5527 135.897C54.5527 144.309 59.5913 151.128 65.8073 151.128C71.0485 151.128 75.4541 146.283 76.7074 139.705C76.7201 139.439 76.7201 139.161 76.7201 138.895C76.7074 130.495 71.6815 123.676 65.4655 123.676Z" fill="white"/>
<path d="M65.4653 154.216C59.2114 154.216 54.1348 147.346 54.1348 138.908C54.1348 130.47 59.224 123.601 65.4653 123.601C71.7193 123.601 76.7958 130.47 76.7958 138.908C76.7958 147.346 71.7193 154.216 65.4653 154.216ZM65.4653 123.752C59.3126 123.752 54.2993 130.546 54.2993 138.908C54.2993 147.258 59.3126 154.064 65.4653 154.064C71.618 154.064 76.6313 147.27 76.6313 138.908C76.6313 130.559 71.618 123.752 65.4653 123.752Z" fill="black"/>
<path d="M73.7814 143.209C73.7814 148.839 70.6798 153.393 66.8438 153.393C63.0206 153.393 59.9062 148.839 59.9062 143.209C59.9062 137.58 63.0079 133.025 66.8438 133.025C70.6671 133.025 73.7814 137.58 73.7814 143.209Z" fill="black"/>
<path d="M61.5898 145.297C61.5898 149.75 64.0079 153.368 66.9956 153.368C69.9833 153.368 72.4013 149.75 72.4013 145.297C72.4013 140.844 69.9833 137.226 66.9956 137.226C64.0079 137.226 61.5898 140.844 61.5898 145.297Z" fill="url(#paint1_radial_502_1474)"/>
<path d="M71.0333 143.943C71.0333 146.891 69.1723 149.282 66.8682 149.282C64.5641 149.282 62.7031 146.891 62.7031 143.943C62.7031 140.996 64.5641 138.604 66.8682 138.604C69.1723 138.617 71.0333 141.008 71.0333 143.943Z" fill="black"/>
<path opacity="0.7" d="M66.8439 136.504C66.8439 138.161 65.6032 139.502 64.0841 139.502C62.5649 139.502 61.3242 138.161 61.3242 136.504C61.3242 134.847 62.5522 133.506 64.0841 133.506C65.6159 133.506 66.8439 134.847 66.8439 136.504Z" fill="white"/>
<path opacity="0.9" d="M67.2874 141.514C67.2874 142.311 66.6924 142.969 65.9455 142.969C65.2112 142.969 64.6035 142.324 64.6035 141.514C64.6035 140.717 65.1985 140.06 65.9455 140.06C66.6924 140.06 67.2874 140.705 67.2874 141.514Z" fill="white"/>
<path d="M54.5898 154.14C54.5898 156.138 59.0714 157.77 64.6038 157.77C70.1361 157.77 74.6177 156.151 74.6177 154.14C74.6177 152.128 70.1361 150.509 64.6038 150.509C59.0714 150.509 54.5898 152.141 54.5898 154.14Z" fill="#FBC69F"/>
<path d="M74.0864 108.988C74.0864 108.988 69.8327 102.612 57.1855 111.265C60.4265 105.851 73.2129 95.5528 74.0864 108.988Z" fill="#441303"/>
<path d="M36.3837 138.009L33.5605 136.339C34.7379 141.981 35.5861 145.827 35.5861 145.827C35.5861 145.827 33.7631 195.57 79.579 203.035C80.1234 202.959 80.6551 202.883 81.1868 202.794C38.5992 192.699 38.3966 157.365 36.3837 138.009Z" fill="#FFFEFD"/>
<path d="M155.45 128.496C156.894 150.167 167.161 177.733 128.232 193.774C118.522 211.701 89.3534 208.551 78.8457 198.556C79.7825 200.404 80.9093 201.998 82.1373 203.389C82.4411 203.427 82.7323 203.465 83.0361 203.503C97.1392 214.079 120.56 206.704 125.687 201.58C145.892 194.534 165.781 170.813 164.819 143.247C163.856 115.68 160.97 103.826 160.97 103.826C160.97 103.826 154.045 101.22 143.031 98.6143L124.396 99.2595C124.408 99.2721 153.83 104.269 155.45 128.496Z" fill="#FBC69F"/>
<path d="M161.451 103.725L161.388 103.485L161.147 103.396C160.944 103.32 140.41 95.6538 114.078 93.5158C89.7329 91.5296 55.2982 93.9966 29.4975 116.958L29.2949 117.135L29.3456 117.401C31.8016 130.899 34.8779 144.866 35.1058 145.891C35.0805 146.903 34.8906 159.642 40.3596 172.824C45.5881 185.463 57.2225 201.112 82.8713 203.984C88.1631 207.905 94.7336 209.335 101.177 209.335C112.115 209.335 122.699 205.185 125.978 202.01C146.094 194.938 166.3 171.053 165.325 143.247C164.363 115.946 161.476 103.852 161.451 103.725ZM125.548 201.137L125.37 201.251C120.458 206.16 97.2782 213.573 83.3397 203.123L83.2384 203.047L83.1118 203.035C57.8428 200.252 46.411 184.881 41.2585 172.47C35.6628 158.984 36.0679 145.979 36.0679 145.84V145.777L36.0553 145.714C36.0173 145.574 32.865 131.317 30.333 117.477C55.8552 94.9201 89.8848 92.5038 113.976 94.452C138.65 96.4509 158.197 103.333 160.577 104.193C160.982 106.04 163.489 118.21 164.363 143.272C165.312 170.686 145.373 194.217 125.548 201.137Z" fill="#CC763B"/>
<path d="M82.6579 96.0455L78.7207 97.7154C78.7207 97.7154 88.5447 101.966 90.2285 106.533C92.6339 99.5625 100.255 96.0455 100.255 96.0455C100.255 96.0455 90.2285 92.5286 82.6579 96.0455Z" fill="#962C05"/>
<path opacity="0.6" d="M89.5312 94.5019C89.5945 97.2219 89.7844 102.839 90.1769 105.331C90.2149 105.571 90.3288 105.723 90.5061 105.837C93.152 99.3219 100.254 96.0327 100.254 96.0327C100.254 96.0327 95.1775 94.2616 89.5312 94.5019Z" fill="#962C05"/>
<path d="M82.4548 95.6025L82.86 96.4754C88.7215 93.7555 96.2161 95.3875 99.0012 96.1592C96.9124 97.3357 92.3422 100.372 90.19 105.331C87.5947 101.055 79.3026 97.4243 78.9228 97.2598L78.543 98.1454C78.6442 98.1833 88.2024 102.371 89.7849 106.685L90.2533 107.95L90.6964 106.672C93.0005 99.9797 100.394 96.5007 100.47 96.4628L101.546 95.9694L100.432 95.5772C100.001 95.4381 90.114 92.0476 82.4548 95.6025Z" fill="#441303"/>
<path d="M25.8145 119.703C25.8145 119.703 31.4228 140.375 35.6005 145.828C37.2083 137.174 32.119 115.339 32.119 115.339L25.8145 119.703Z" fill="#962C05"/>
<path d="M31.6376 115.452C31.6883 115.655 36.2458 135.39 35.2837 144.537C31.3085 138.047 26.3205 119.792 26.2699 119.589L25.3457 119.842C25.5736 120.69 31.03 140.666 35.2077 146.131L35.866 146.991L36.0686 145.928C37.6764 137.275 32.7897 116.136 32.5745 115.237L31.6376 115.452Z" fill="#441303"/>
<path d="M157.615 105.445C157.615 105.445 160.084 136.048 164.857 147.269C169.148 134.454 166.11 107.533 166.11 107.533L157.615 105.445Z" fill="#962C05"/>
<path opacity="0.6" d="M157.615 105.445C157.615 105.445 160.084 136.048 164.857 147.269C169.148 134.454 166.11 107.533 166.11 107.533L157.615 105.445Z" fill="#962C05"/>
<path d="M165.641 107.583C165.667 107.849 168.439 132.796 164.818 145.814C160.451 133.91 158.134 105.711 158.109 105.407L157.146 105.483C157.248 106.736 159.678 136.288 164.439 147.459L164.932 148.623L165.337 147.421C169.616 134.643 166.73 108.583 166.603 107.469L165.641 107.583Z" fill="#441303"/>
<path d="M146.234 13.1445L156.337 67.3031C156.337 67.3031 168.199 68.2646 169.161 62.9765C170.123 57.6884 164.477 36.865 164.477 36.865L146.234 13.1445Z" fill="#009A00"/>
<path opacity="0.7" d="M146.234 13.1445L156.337 67.3031C156.337 67.3031 168.199 68.2646 169.161 62.9765C170.123 57.6884 164.477 36.865 164.477 36.865L146.234 13.1445Z" fill="#009A00"/>
<path d="M164.008 36.9912C164.072 37.1936 169.617 57.7766 168.68 62.8876C167.895 67.1889 158.691 66.9486 156.729 66.8474L146.69 13.0557L145.74 13.2328L155.843 67.3913L155.906 67.7582L156.273 67.7835C156.4 67.7962 157.248 67.8594 158.451 67.8594C162.046 67.8594 168.844 67.2901 169.617 63.0647C170.591 57.726 165.16 37.5858 164.92 36.7382L164.008 36.9912Z" fill="#004A00"/>
<path d="M170.604 56.0176C162.502 56.0176 155.932 62.9376 155.932 71.477C155.932 80.0164 162.502 86.9364 170.604 86.9364C178.707 86.9364 185.277 80.0164 185.277 71.477C185.277 62.9376 178.707 56.0176 170.604 56.0176Z" fill="#F7C403"/>
<path opacity="0.6" d="M170.604 86.9364C176.668 86.9364 181.859 83.0652 184.1 77.5494C183.973 77.4229 183.872 77.2838 183.733 77.1573C158.704 77.4735 170.604 56.4983 170.604 56.4983L170.718 56.0176C170.68 56.0176 170.642 56.0176 170.604 56.0176C162.502 56.0176 155.932 62.9376 155.932 71.477C155.932 74.159 156.577 76.6765 157.717 78.8651C158.995 80.5224 160.337 82.1417 161.667 83.7231C164.148 85.7346 167.237 86.9364 170.604 86.9364Z" fill="#F7C403"/>
<path d="M170.605 55.5371C162.249 55.5371 155.451 62.6849 155.451 71.4773C155.451 80.2696 162.249 87.4174 170.605 87.4174C178.96 87.4174 185.759 80.2696 185.759 71.4773C185.759 62.6849 178.96 55.5371 170.605 55.5371ZM170.605 86.4559C162.781 86.4559 156.413 79.7383 156.413 71.4773C156.413 63.2162 162.781 56.4986 170.605 56.4986C178.429 56.4986 184.797 63.2162 184.797 71.4773C184.797 79.7383 178.429 86.4559 170.605 86.4559Z" fill="#F77E03"/>
<path d="M157.666 78.7522C158.274 79.9541 159.033 81.0421 159.907 82.0288C163.148 77.4872 171.022 69.4665 185.29 71.4906C185.29 70.099 185.1 68.7454 184.771 67.4676C177.909 67.0628 165.211 67.9863 157.666 78.7522Z" fill="#F78103"/>
<path opacity="0.6" d="M168.338 70.0859C164.426 71.7938 160.654 74.5011 157.666 78.7518C157.691 78.8024 157.729 78.853 157.755 78.9163C158.502 79.8904 159.286 80.8519 160.071 81.8133C161.958 79.2326 165.275 75.6397 170.351 73.3625C169.364 72.3758 168.731 71.2625 168.338 70.0859Z" fill="#F78103"/>
<path d="M185.137 66.9865L184.783 66.9612C177.807 66.5564 164.957 67.5178 157.26 78.4735L157.096 78.7139L157.222 78.9669C157.83 80.1687 158.602 81.3073 159.526 82.3447L159.932 82.8001L160.286 82.3067C163.641 77.6006 171.325 69.9974 185.201 71.9583L185.745 72.0342V71.4776C185.745 70.1113 185.568 68.7197 185.213 67.3281L185.137 66.9865ZM159.868 81.2441C159.235 80.4724 158.678 79.6501 158.222 78.7898C165.527 68.6185 177.579 67.5684 184.378 67.91C184.618 68.9221 184.757 69.9342 184.795 70.9336C171.237 69.2384 163.476 76.4114 159.868 81.2441Z" fill="#F74303"/>
<path d="M176.376 79.9658C174.249 79.9658 172.527 81.6737 172.527 83.7738C172.527 84.887 173.021 85.8738 173.781 86.5696C176.186 86.013 178.364 84.8238 180.161 83.1918C179.883 81.3701 178.3 79.9658 176.376 79.9658Z" fill="#F78103"/>
<path opacity="0.6" d="M176.376 79.9658C174.249 79.9658 172.527 81.6737 172.527 83.7738C172.527 84.887 173.021 85.8738 173.781 86.5696C176.186 86.013 178.364 84.8238 180.161 83.1918C179.883 81.3701 178.3 79.9658 176.376 79.9658Z" fill="#7F3E08"/>
<path d="M176.377 79.4854C173.984 79.4854 172.047 81.4083 172.047 83.774C172.047 84.9759 172.553 86.1018 173.465 86.9241L173.655 87.0886L173.895 87.0253C176.326 86.456 178.605 85.2542 180.491 83.5336L180.681 83.3565L180.643 83.1035C180.314 81.0161 178.516 79.4854 176.377 79.4854ZM173.933 86.0385C173.338 85.4186 173.009 84.6216 173.009 83.774C173.009 81.9396 174.516 80.4468 176.377 80.4468C177.959 80.4468 179.288 81.5095 179.643 83.015C177.984 84.4698 176.009 85.5072 173.933 86.0385Z" fill="#F74303"/>
<path d="M153.134 22.9235L164.87 38.1426C154.957 5.13632 144.31 -5.43985 92.9999 3.52965C33.0303 13.4606 23.6367 105.445 23.6367 105.445C23.6367 105.445 91.7212 55.3605 170.617 99.4742C168.896 80.8141 160.831 59.181 160.831 59.181C160.831 59.181 161.945 36.8648 153.134 22.9235Z" fill="#009A00"/>
<path opacity="0.7" d="M94.8984 3.21279C94.9238 3.22544 128.599 6.0972 132.764 43.8475C135.929 72.4766 112.648 73.2736 112.648 73.2736C112.648 73.2736 117.154 77.208 117.572 82.1165C134.157 83.9509 152.083 89.1252 170.604 99.4736C168.882 80.8135 160.818 59.1804 160.818 59.1804C160.818 59.1804 161.945 36.8642 153.121 22.9229L164.857 38.142C155.083 5.54056 144.576 -5.17477 94.8984 3.21279Z" fill="#009A00"/>
<path d="M161.313 59.105C161.351 58.1056 161.49 49.8445 159.895 40.4702C158.262 30.7796 152.717 23.1891 152.717 23.1891C161.351 36.8394 160.35 58.9406 160.338 59.1683L160.325 59.2695L160.363 59.358C160.439 59.5731 168.161 80.4345 170.022 98.6265C129.435 76.247 91.8481 79.0935 67.3893 85.4695C44.1459 91.5293 28.0552 101.827 24.2067 104.459C24.8017 99.6765 27.7261 79.3844 36.2462 58.3966C45.2093 36.384 62.3254 9.10858 93.0761 4.01026C143.07 -4.73152 154.236 4.41509 164.402 38.2816L165.326 38.0033C160.439 21.7215 155.286 10.4749 144.69 4.66811C134.334 -0.999499 118.851 -1.48023 92.9115 3.04879C61.7177 8.22302 44.3991 35.802 35.3726 58.0297C25.6119 82.0538 23.1686 105.167 23.1432 105.395L23.0293 106.47L23.9028 105.825C24.0674 105.698 41.1582 93.2751 67.6425 86.3804C92.0886 80.0043 129.752 77.1832 170.364 99.8916L171.162 100.334L171.073 99.4235C169.427 81.5351 161.882 60.6611 161.313 59.105Z" fill="#004A00"/>
<path d="M171.249 95.9947C161.463 89.5807 121.546 70.035 92.9983 72.755C64.4504 75.4749 47.1318 87.8222 23.6352 103.762C18.7991 107.001 14.7353 126.989 21.1665 126.433C25.167 126.091 51.6261 98.3857 91.0741 96.1465C130.522 93.9073 180.073 115.857 182.161 116.021C184.238 116.186 180.022 101.738 171.249 95.9947Z" fill="#FF0000"/>
<path d="M171.25 95.9946C163.641 91.0101 137.803 78.0809 113.268 73.8555C116.015 76.6513 126.004 88.7709 101.545 95.9819C101.596 96.0199 101.646 96.0578 101.697 96.0958C138.891 97.6139 180.264 115.882 182.163 116.021C184.239 116.185 180.023 101.738 171.25 95.9946Z" fill="#BD0000"/>
<path d="M171.515 95.5898C160.995 88.6951 121.231 69.5669 92.9486 72.2742C65.2362 74.9309 47.791 86.7721 25.6996 101.776L23.3702 103.357C19.3823 106.039 16.0148 119.032 17.9138 124.421C18.6227 126.445 19.8887 126.926 20.9142 126.926C21.0155 126.926 21.1167 126.926 21.218 126.914C22.2561 126.825 24.1424 125.471 27.9784 122.663C38.7519 114.769 61.1724 98.3351 91.1129 96.6272C124.13 94.7549 164.35 109.911 177.554 114.895C180.656 116.059 181.745 116.464 182.124 116.502C182.529 116.527 182.897 116.274 183.049 115.819C183.884 113.352 179.63 100.903 171.515 95.5898ZM182.124 115.528C181.681 115.426 179.997 114.794 177.883 113.997C164.616 109 124.256 93.7681 91.0369 95.6657C60.8053 97.3863 38.2328 113.934 27.396 121.878C24.345 124.118 21.9396 125.876 21.1294 125.952C20.0406 126.041 19.2811 125.446 18.8126 124.105C17.0529 119.108 20.2432 106.621 23.9019 104.154L26.244 102.573C48.2214 87.6451 65.578 75.8544 93.0498 73.2357C94.8729 73.0586 96.7465 72.9826 98.6581 72.9826C126.092 72.9826 161.223 89.9981 170.996 96.3995C177.605 100.726 181.504 109.999 182.124 113.997C182.251 114.933 182.188 115.376 182.124 115.528Z" fill="#6F0000"/>
<path d="M137.246 25.998C137.411 26.1499 153.527 41.6852 161.211 61.6989L162.11 61.3574C154.337 41.1285 137.246 25.998 137.246 25.998Z" fill="#004A00"/>
<path d="M78.8594 198.568C78.9607 198.771 81.4167 203.414 84.4044 205.02L84.8601 204.173C82.1383 202.705 78.8594 198.568 78.8594 198.568Z" fill="#CC763B"/>
<path d="M123.789 202.503L124.27 203.338C126.726 201.921 128.942 196.469 129.043 196.241C129.043 196.241 125.967 201.264 123.789 202.503Z" fill="#CC763B"/>
<path d="M77.9609 184.602C77.9609 184.602 86.1392 197.266 101.407 196.064C116.687 194.862 123.169 186.209 125.334 182.123C121.612 178.871 84.2149 181.68 77.9609 184.602Z" fill="#420000"/>
<path d="M100.812 191.37C93.6715 185.019 89.4305 189.94 87.6328 193.141C91.2535 195.089 95.8617 196.494 101.407 196.051C107.319 195.583 111.902 194.001 115.446 192.003C112.788 187.613 108.053 184.956 100.812 191.37Z" fill="#FFC0C0"/>
<path d="M100.811 191.37C93.8482 185.171 89.6325 189.713 87.7715 192.913L88.3032 192.964C88.3032 192.964 94.823 188.916 100.976 193.786C106.293 190.004 112.015 189.662 114.775 191.838C114.914 191.724 115.015 191.623 115.129 191.509C112.408 187.423 107.774 185.196 100.811 191.37Z" fill="#FFC0C0"/>
<path d="M109.813 187.145C107.091 186.74 104.078 187.942 100.812 190.738C98.1406 188.461 95.6086 187.499 93.2665 187.891C90.3168 188.385 88.3419 190.902 87.2151 192.914L86.9746 193.344L87.405 193.572C91.165 195.596 95.1908 196.62 99.3812 196.62C100.065 196.62 100.761 196.595 101.445 196.545C106.813 196.127 111.598 194.735 115.674 192.433L116.105 192.193L115.852 191.762C114.244 189.093 112.155 187.499 109.813 187.145ZM101.381 195.583C96.7986 195.95 92.393 195.064 88.3039 192.964C89.3547 191.218 91.0511 189.245 93.4185 188.853C95.558 188.499 97.9254 189.473 100.483 191.737L100.799 192.015L101.116 191.737C104.268 188.941 107.142 187.714 109.648 188.094C112.028 188.448 113.712 190.244 114.75 191.838C110.914 193.926 106.407 195.191 101.381 195.583Z" fill="#FF5F5F"/>
<path d="M100.976 193.774L101.292 191.37H100.33L100.976 193.774Z" fill="#FF5F5F"/>
<path d="M77.7574 184.172L77.2637 184.4L77.5675 184.868C77.6435 184.994 85.328 196.621 99.4184 196.621C100.089 196.621 100.773 196.595 101.469 196.545C117.294 195.305 123.751 186.209 125.789 182.35L125.966 182.009L125.675 181.756C121.484 178.125 83.7961 181.351 77.7574 184.172ZM101.381 195.583C88.2524 196.621 80.378 187.082 78.7069 184.817C86.0116 182.11 119.889 179.668 124.725 182.275C122.535 186.171 116.231 194.419 101.381 195.583Z" fill="#CC763B"/>
<path d="M77.2132 184.387C76.6435 187.057 78.3653 188.145 78.3653 188.145C76.5422 185.273 80.2136 181.022 80.2516 180.984C80.2516 180.984 77.6816 182.186 77.2132 184.387Z" fill="#CC763B"/>
<path d="M122.764 179.327C122.928 179.39 126.764 181.022 124.891 186.298C124.891 186.298 126.688 183.995 126.068 181.756C125.397 179.314 122.764 179.327 122.764 179.327Z" fill="#CC763B"/>
<path d="M95.1025 148.534C95.1025 148.534 97.8244 153.354 94.3176 156.681C89.8613 157.478 85.9368 163.424 90.1778 166.625C94.4315 169.826 100.66 168.168 104.851 165.714C110.56 170.205 114.839 165.929 111.029 160.616L95.1025 148.534Z" fill="#FBC69F"/>
<path d="M112.168 162.804L111.763 162.691C111.383 166.157 107.661 165.132 105.142 163.007C100.128 166.208 90.7726 167.384 88.9623 162.172C88.7217 162.653 88.5318 163.108 88.3926 163.563C88.4939 164.677 89.0256 165.752 90.1903 166.625C94.444 169.826 100.673 168.168 104.863 165.714C109.75 169.56 113.573 166.967 112.168 162.804Z" fill="#FBC69F"/>
<path d="M111.028 166.6C110.154 167.46 108.066 167.624 105.154 165.347L104.901 165.145L104.622 165.309C100.622 167.65 94.5195 169.294 90.481 166.258C88.7466 164.942 88.696 163.323 88.9745 162.185C89.5442 159.819 91.9242 157.605 94.4182 157.162L94.5575 157.137L94.6588 157.036C98.4187 153.468 95.1525 148.597 95.1145 148.547C95.1145 148.547 97.1148 153.24 94.0891 156.251C91.2659 156.821 88.6707 159.262 88.025 161.97C87.5439 163.968 88.2149 165.765 89.8987 167.03C91.671 168.371 93.7599 168.915 95.9121 168.915C99.0011 168.915 102.217 167.802 104.825 166.321C108.091 168.776 110.559 168.409 111.699 167.321C113.193 165.904 112.927 163.273 111.041 160.641C111.028 160.603 113.079 164.576 111.028 166.6Z" fill="#CC763B"/>
<path d="M94.2793 156.201L94.3679 157.162C97.8873 156.846 100.052 158.301 100.077 158.313C100.065 158.313 98.1532 155.859 94.2793 156.201Z" fill="#CC763B"/>
<path d="M94.5199 157.807C94.7984 158.174 94.1908 159.11 93.1527 159.907C92.1146 160.704 91.0511 161.046 90.7726 160.679C90.4941 160.312 91.1018 159.376 92.1399 158.579C93.178 157.782 94.2414 157.441 94.5199 157.807Z" fill="#FFFEFD"/>
</g>
<defs>
<radialGradient id="paint0_radial_502_1474" cx="0" cy="0" r="1" gradientUnits="userSpaceOnUse" gradientTransform="translate(127.212 145.3) rotate(180) scale(5.91478 7.47669)">
<stop stop-color="#C44400"/>
<stop offset="0.544" stop-color="#C44400"/>
<stop offset="0.5538" stop-color="#C44400"/>
<stop offset="0.5632" stop-color="#BB4100"/>
<stop offset="0.6223" stop-color="#8A3000"/>
<stop offset="0.6828" stop-color="#602100"/>
<stop offset="0.7439" stop-color="#3D1500"/>
<stop offset="0.8056" stop-color="#220C00"/>
<stop offset="0.8682" stop-color="#0F0500"/>
<stop offset="0.9322" stop-color="#040100"/>
<stop offset="1"/>
</radialGradient>
<radialGradient id="paint1_radial_502_1474" cx="0" cy="0" r="1" gradientUnits="userSpaceOnUse" gradientTransform="translate(66.9975 145.3) scale(5.91455 7.47639)">
<stop stop-color="#C44400"/>
<stop offset="0.544" stop-color="#C44400"/>
<stop offset="0.5538" stop-color="#C44400"/>
<stop offset="0.5632" stop-color="#BB4100"/>
<stop offset="0.6223" stop-color="#8A3000"/>
<stop offset="0.6828" stop-color="#602100"/>
<stop offset="0.7439" stop-color="#3D1500"/>
<stop offset="0.8056" stop-color="#220C00"/>
<stop offset="0.8682" stop-color="#0F0500"/>
<stop offset="0.9322" stop-color="#040100"/>
<stop offset="1"/>
</radialGradient>
<clipPath id="clip0_502_1474">
<rect width="201" height="438" fill="white"/>
</clipPath>
</defs>
</svg>
