<svg width="384" height="381" viewBox="0 0 384 381" fill="none" xmlns="http://www.w3.org/2000/svg">
<g clip-path="url(#clip0_424_2073)">
<path d="M104.758 331.45C104.758 331.45 104.247 343.643 106.02 346.357C107.792 349.086 132.596 352.281 132.596 352.281L153.734 344.782L122.801 313.229C122.816 313.244 106.17 315.313 104.758 331.45Z" fill="#898583"/>
<path d="M115.38 46.1157L113.202 47.3455L106.802 50.9598L85.1377 63.1824L84.8673 63.4373L50.9143 95.621L40.533 105.459C29.7011 86.6377 32.8561 65.282 39.6917 47.4655C47.0683 28.2243 58.7265 13.1222 61.6561 9.79288C65.7274 5.17379 70.0392 -1.40992 71.8119 0.824645C74.6063 4.31896 80.4805 7.46834 86.8354 11.3376C90.5161 13.5721 94.3321 16.0466 97.8025 18.9711C107.267 26.9195 115.38 46.1157 115.38 46.1157Z" fill="#BFB8B4"/>
<path d="M115.381 46.116L113.202 47.3458L110.618 46.266C110.618 46.266 105.615 33.6685 100.357 26.3199C96.481 20.906 90.5317 14.6222 86.8359 11.3379C90.5167 13.5725 94.3327 16.047 97.8031 18.9714C107.268 26.9198 115.381 46.116 115.381 46.116Z" fill="#D8D7D6"/>
<path d="M50.9155 95.621L42.1868 105.459C31.3549 86.6378 34.4197 64.6222 41.2404 46.8057C36.9587 64.7721 35.907 92.0068 42.6976 91.8718L50.9155 95.621Z" fill="#898583"/>
<path d="M106.802 50.9597L85.1384 63.1823L84.868 63.4372L73.7656 35.9627V7.36328C84.1919 16.2865 79.9403 22.4653 87.7375 35.3928C95.5196 48.3202 105.931 45.9057 105.931 45.9057L106.802 50.9597Z" fill="#898583"/>
<path d="M98.0433 18.6863C93.5663 14.9221 88.4433 11.8627 83.9363 9.1632C78.8132 6.0888 74.3963 3.44932 72.1128 0.584885C71.7973 0.194962 71.4067 0 70.956 0C69.2433 0 66.8846 2.89443 64.1503 6.23877C63.2339 7.36355 62.3024 8.51832 61.371 9.56812C57.9006 13.4973 47.324 27.5646 40.1578 45.2161C35.9362 55.6241 33.5776 65.6121 33.1419 74.8803C32.6161 86.248 34.9898 96.596 40.1879 105.639L40.4283 106.059L85.3635 63.4675L115.846 46.2659L115.711 45.951C115.651 45.771 107.478 26.5898 98.0433 18.6863ZM84.9578 62.8376L84.9128 62.8676L40.6086 104.859C31.4142 88.5426 31.4893 68.5815 40.8489 45.501C47.9851 27.9395 58.4865 13.9623 61.9269 10.063C62.8583 8.99823 63.8048 7.84346 64.7212 6.71868C67.11 3.77926 69.5738 0.749852 70.9409 0.749852C71.1663 0.749852 71.3466 0.854832 71.5118 1.04979C73.8855 4.01921 78.3625 6.68868 83.5306 9.79307C88.0226 12.4775 93.1156 15.5219 97.5475 19.2562C106.186 26.5148 113.803 43.4614 114.885 45.951L84.9578 62.8376Z" fill="#59514F"/>
<path d="M92.8749 52.9248L44.6495 98.3209C43.8683 96.1613 43.2223 94.0167 42.6965 91.8722C34.1932 57.3639 56.458 24.1155 72.6683 8.05366C73.765 6.97387 74.8016 8.38359 75.7631 11.1131C77.9115 17.1869 79.6692 29.7544 80.9162 35.3483C82.734 43.4317 92.8749 52.9248 92.8749 52.9248Z" fill="#4D4849"/>
<path d="M92.8757 52.9244L44.6503 98.3205C43.8691 96.1609 43.2231 94.0163 42.6973 91.8717C56.3987 79.7391 67.9067 60.123 71.6775 48.0954C77.3564 29.919 75.7639 11.0977 75.7639 11.0977C77.9123 17.1715 79.67 29.739 80.917 35.3329C82.7348 43.4313 92.8757 52.9244 92.8757 52.9244Z" fill="#3A3537"/>
<path d="M81.2921 35.2581C80.8864 33.4584 80.4507 30.9989 79.9399 28.1495C77.8967 16.8267 76.154 8.11342 73.7803 7.36357C73.4498 7.25859 72.954 7.24359 72.4132 7.78349C67.3653 12.7925 54.7606 26.4998 46.8883 45.666C43.3578 54.2443 41.2695 62.7927 40.6385 71.086C39.9324 80.5642 41.1644 89.7723 44.2892 98.4556L44.4845 98.9955L93.416 52.9246L93.1306 52.6547C93.0254 52.5497 83.0498 43.1465 81.2921 35.2581ZM44.8 97.6608C33.0066 63.9774 52.5371 28.5244 72.924 8.32338C73.1343 8.11342 73.2996 8.06843 73.4047 8.06843C73.4648 8.06843 73.5099 8.08343 73.5249 8.08343C74.1409 8.27839 75.1474 9.65812 76.5146 15.117C77.5061 19.0613 78.3775 23.9653 79.1587 28.2845C79.6695 31.1489 80.1202 33.6084 80.5259 35.423C82.1784 42.8616 90.5766 51.2749 92.2892 52.9246L44.8 97.6608Z" fill="#231E20"/>
<path d="M257.007 105.309C256.075 108.519 254.934 111.833 253.597 115.192C246.671 132.424 233.901 150.975 210.735 164.908L208.646 150.211L208.09 146.341L204.109 118.297L202.622 107.769L200.173 102.7L188.004 77.5649L187.373 76.2451C187.373 76.2451 201.345 60.4982 222.979 58.8486C234.081 58.0087 241.533 57.7688 246.806 57.5438H246.821C251.809 57.3189 254.843 57.0789 257.172 56.3141C261.98 54.7094 259.381 61.3081 260.778 67.0069C261.454 69.8414 262.686 85.8582 257.007 105.309Z" fill="#BFB8B4"/>
<path d="M251.853 115.192C245.934 132.694 232.758 149.431 210.479 163.183L208.616 149.776L208.09 145.951L229.288 140.462C230.174 143.132 244.266 131.479 251.853 115.192Z" fill="#898583"/>
<path d="M246.79 57.5439C245.919 57.6339 227.23 59.6735 217.555 62.7479C207.639 65.8973 197.273 73.2459 191.264 79.9945L187.988 77.565L187.357 76.2453C187.357 76.2453 201.329 60.4984 222.963 58.8487C234.065 58.0089 241.517 57.7839 246.79 57.5439Z" fill="#D8D7D6"/>
<path d="M253.01 65.9424C252.89 66.2723 237.311 107.709 235.282 108.309C233.48 108.834 209.307 116.632 204.109 118.312L202.621 107.784L200.173 102.715L195.605 87.0582C195.605 87.0582 204.214 85.5585 210.268 81.0594C216.323 76.5603 226.283 70.5465 235.282 70.8764C244.206 71.2063 252.875 66.0174 253.01 65.9424Z" fill="#898583"/>
<path d="M260.643 61.0683C260.643 58.6837 260.643 56.8091 259.576 56.0292C258.99 55.6093 258.164 55.5793 257.037 55.9543C254.318 56.8541 250.562 57.019 243.741 57.304C238.814 57.5139 232.068 57.7839 222.919 58.4888C211.666 59.3436 202.517 64.0677 196.823 67.8619C190.663 71.9861 187.103 75.9603 187.058 76.0053L186.893 76.1853L202.232 107.874L210.419 165.508L210.9 165.223C223.55 157.619 234.096 148.006 242.224 136.668C248.849 127.43 253.897 117.052 257.232 105.789C263.302 85.3035 261.679 69.2266 261.109 66.9021C260.643 64.9675 260.643 62.8979 260.643 61.0683ZM260.898 80.0395C260.613 85.9184 259.621 95.1265 256.526 105.579C251.403 122.871 239.355 147.046 211.02 164.278L202.968 107.664L187.794 76.3352C188.56 75.5104 191.925 72.0611 197.259 68.4918C202.878 64.7425 211.892 60.0934 222.979 59.2536C232.113 58.5637 238.859 58.2788 243.771 58.0688C250.652 57.7839 254.438 57.6189 257.263 56.6891C258.134 56.4042 258.75 56.3892 259.125 56.6591C259.892 57.214 259.892 58.9987 259.892 61.0832C259.892 62.9579 259.892 65.0725 260.387 67.1121C260.763 68.5668 261.214 73.3808 260.898 80.0395Z" fill="#59514F"/>
<path d="M230.73 139.817C228.416 142.531 225.862 145.171 223.068 147.66C221.836 148.755 220.559 149.835 219.237 150.87C217.028 152.594 214.7 154.259 212.221 155.804C212.176 155.834 212.131 155.864 212.086 155.894L205.971 124.7L202.711 94.6759C202.711 94.6759 210.748 90.2068 215.902 84.8378C223.098 77.3243 233.479 76.2895 239.113 74.2649C241.547 73.3951 244.221 71.7604 246.579 70.2007C249.704 68.1461 252.258 66.2115 252.934 66.3315C253.956 66.4814 256.931 109.073 230.73 139.817Z" fill="#4D4849"/>
<path d="M219.898 114.517C219.898 121.626 222.091 137.583 230.73 139.817C228.416 142.532 225.862 145.171 223.068 147.661C218.456 151.215 213.693 154.845 212.221 155.804C212.176 155.834 212.131 155.864 212.086 155.894L205.971 124.7L202.711 94.6764C202.711 94.6764 210.748 90.2072 215.902 84.8383C223.098 77.3248 233.479 76.29 239.113 74.2654C241.547 73.3955 244.221 71.7609 246.579 70.2012L246.805 70.5011C246.82 70.4861 219.898 84.2384 219.898 114.517Z" fill="#3A3537"/>
<path d="M253.01 65.9419C252.364 65.837 251.192 66.6168 248.563 68.4014C245.858 70.2461 242.163 72.7506 238.993 73.8904C237.686 74.3553 236.078 74.7902 234.365 75.2401C228.506 76.7998 221.22 78.7344 215.631 84.5533C210.583 89.8172 202.621 94.2864 202.531 94.3313L202.32 94.4513L205.61 124.73L211.83 156.494L212.296 156.209C222.317 149.94 230.745 141.677 237.34 131.629C242.733 123.426 246.91 114.022 249.779 103.704C252.484 93.9564 253.445 85.2731 253.791 79.7092C254.226 72.6156 253.821 68.1915 253.55 66.8418C253.445 66.3768 253.34 66.0019 253.01 65.9419ZM253.145 77.3097C252.934 82.7836 252.153 91.3919 249.629 101.26C245.408 117.817 235.522 140.567 212.341 155.279L206.347 124.64L203.117 94.8712C204.439 94.1064 211.53 89.9372 216.172 85.0782C221.61 79.4093 228.777 77.5047 234.546 75.975C236.273 75.525 237.896 75.0901 239.233 74.6102C242.493 73.4405 246.234 70.891 248.968 69.0313C250.456 68.0115 252.123 66.8867 252.724 66.7068C252.979 67.5316 253.37 71.2509 253.145 77.3097Z" fill="#231E20"/>
<path d="M83.8299 286.893L77.6402 288.963L76.3932 289.383C76.3932 289.383 76.258 288.978 76.0327 288.273C75.6421 287.043 75.0111 284.928 74.4252 282.499C73.0881 277.04 71.9914 270.036 74.5454 268.372C74.6505 268.297 74.7707 268.237 74.8909 268.177C77.8505 266.947 83.8299 286.893 83.8299 286.893Z" fill="#4D4849"/>
<path d="M83.8304 286.893L77.6407 288.963C77.0698 288.723 76.544 288.483 76.0482 288.273C74.3355 287.523 73.1337 286.983 73.2388 286.983L74.4407 282.499L74.606 281.884C74.606 281.884 77.806 282.484 77.9412 279.11C78.0614 275.735 77.2351 269.017 74.7562 268.432C74.6811 268.417 74.606 268.402 74.5609 268.372C74.666 268.297 74.7862 268.237 74.9064 268.177C77.851 266.947 83.8304 286.893 83.8304 286.893Z" fill="#3A3536"/>
<path d="M75.7325 267.877C75.3119 267.667 74.9663 267.742 74.756 267.817C72.5025 268.762 72.0367 272.721 73.4039 279.605C74.3954 284.614 76.018 289.428 76.048 289.473L76.1682 289.833L84.3109 287.118L84.2058 286.773C83.6649 285.004 78.9025 269.377 75.7325 267.877ZM76.6339 288.888C74.8161 283.414 71.2856 270.067 75.0414 268.522C75.0715 268.507 75.1166 268.492 75.1767 268.492C75.2367 268.492 75.3119 268.507 75.417 268.552C77.7757 269.677 81.8621 281.674 83.3795 286.653L76.6339 288.888Z" fill="#211E1F"/>
<path d="M77.5949 288.693L76.6484 290.883L73.5385 297.991C73.5385 297.991 70.6089 296.492 69.1066 291.843C69.0315 291.633 68.9714 291.393 68.8963 291.153C67.4841 286.264 65.8315 275.601 68.1601 273.786C68.2503 273.726 68.3254 273.666 68.4305 273.621C68.6559 273.531 68.8812 273.531 69.1366 273.621C72.2165 274.746 77.5949 288.693 77.5949 288.693Z" fill="#4D4849"/>
<path d="M77.5949 288.693L76.6484 290.883L73.5386 297.991C73.5386 297.991 70.609 296.492 69.1066 291.843C69.0315 291.633 68.9714 291.393 68.8963 291.153C70.1282 291.528 71.27 291.033 72.0512 288.858C74.6954 281.45 68.5808 273.966 68.1602 273.786L69.1367 273.621C72.2165 274.746 77.5949 288.693 77.5949 288.693Z" fill="#3A3536"/>
<path d="M69.3478 273.291C68.9722 273.141 68.6116 273.126 68.2811 273.276C66.8539 273.921 66.3431 276.68 66.7637 281.495C67.1243 285.574 68.0407 289.773 68.7468 291.947C70.2792 296.687 73.2389 298.246 73.3591 298.321L73.7196 298.501L78.0013 288.693L77.9412 288.543C77.4004 287.133 72.4877 274.581 69.3478 273.291ZM73.3741 297.436C72.5778 296.882 70.5947 295.217 69.468 291.723C67.7403 286.354 66.268 275.001 68.5816 273.951C68.6417 273.921 68.7018 273.906 68.7619 273.906C68.852 273.906 68.9422 273.921 69.0473 273.966C71.421 274.941 75.6727 284.764 77.19 288.663L73.3741 297.436Z" fill="#211E1F"/>
<path d="M101.214 332.934L93.4622 334.854L90.6078 335.559L91.5242 332.5C91.5242 332.5 87.0622 327.835 82.5702 322.137C81.6237 320.952 80.6923 319.707 79.7909 318.462C78.634 316.873 77.3571 314.488 76.2303 311.714C72.2791 302.071 69.9805 287.733 80.1664 285.604C80.2416 285.589 80.3167 285.574 80.4068 285.559C81.0078 285.454 81.5937 285.439 82.1646 285.529C89.7514 286.684 95.235 304.425 98.3298 317.862C100.223 326.231 101.214 332.934 101.214 332.934Z" fill="#4D4849"/>
<path d="M90.036 305.55C89.375 307.199 88.3835 308.369 87.2267 308.594C85.4238 308.939 83.1403 307.184 81.6079 304.515C81.2623 303.93 80.9619 303.285 80.7065 302.625C80.436 301.92 80.2257 301.171 80.0755 300.406C79.1741 295.622 80.7065 291.842 83.9515 291.303C85.4839 291.048 87.2116 291.722 88.5637 293.267C89.5403 294.377 90.3065 295.937 90.6821 297.946C91.1929 300.586 90.8774 303.45 90.036 305.55Z" fill="#716D6D"/>
<path d="M82.1352 293.597C82.03 293.567 80.8281 295.877 80.8281 298.276C80.8281 300.676 81.3389 301.8 82.1352 301.695C82.9314 301.59 82.1502 298.021 83.6525 296.566C85.1549 295.112 82.1352 293.597 82.1352 293.597Z" fill="#949192"/>
<path d="M90.5629 305.309C89.9019 306.959 88.9103 308.129 87.7535 308.354C85.9507 308.699 83.6672 306.944 82.1348 304.274C82.1348 304.274 84.9141 305.864 86.4165 303.3C87.3028 301.77 89.2108 303.495 90.5629 305.309Z" fill="#555252"/>
<path d="M83.9224 291.047C82.6755 291.257 81.6238 291.932 80.8727 293.012C79.6558 294.752 79.2802 297.451 79.8511 300.436C80.7525 305.205 84.4332 309.359 87.2727 308.834C87.7985 308.729 88.3093 308.444 88.775 307.994C89.4811 307.319 90.067 306.269 90.5027 304.935C91.2088 302.76 91.359 300.196 90.9234 297.871C89.9769 292.847 86.6116 290.597 83.9224 291.047ZM90.4576 297.961C90.8783 300.211 90.7281 302.7 90.052 304.785C89.391 306.809 88.3243 308.144 87.1825 308.354C86.0107 308.579 84.5234 307.814 83.1863 306.299C81.7741 304.71 80.7224 302.535 80.3168 300.331C79.7759 297.466 80.1215 294.902 81.2633 293.267C81.4436 293.027 81.6238 292.802 81.8342 292.592C82.4351 292.007 83.1713 291.632 84.0126 291.497C86.4614 291.107 89.5712 293.222 90.4576 297.961Z" fill="#393737"/>
<path d="M82.1339 285.528L80.4062 288.018C80.4062 288.018 76.4701 287.973 74.6673 294.646C73.4353 299.205 75.0579 307.124 76.2147 311.698C72.2635 302.055 69.9649 287.718 80.1508 285.588C80.2259 285.573 80.3011 285.558 80.3912 285.543C80.9771 285.453 81.563 285.453 82.1339 285.528Z" fill="#666264"/>
<path d="M102.175 332.335L94.4227 334.254L91.5682 334.959L92.4696 331.9C92.4696 331.9 88.0076 327.236 83.5156 321.537C87.2414 323.486 91.5983 324.896 92.9203 321.777C95.3842 316.048 86.7907 303.78 86.6706 303.615L99.2452 317.278C101.183 325.631 102.175 332.335 102.175 332.335Z" fill="#3A3536"/>
<path d="M97.3827 312.553C93.7019 298.381 89.5855 289.593 85.1385 286.428C83.5761 285.318 81.9535 284.899 80.316 285.198C77.0108 285.813 74.7273 287.673 73.4953 290.717C71.6625 295.292 72.654 301.395 73.7958 305.714C75.1028 310.633 77.3413 315.717 79.4747 318.672C84.2071 325.211 90.0812 331.509 91.0878 332.589L90.0512 336.083L101.634 333.234L101.589 332.904C101.574 332.784 100.117 323.066 97.3827 312.553ZM91.1479 335.034L91.9291 332.379L91.7789 332.229C91.7188 332.154 85.2136 325.331 80.0756 318.237C76.4099 313.168 71.0014 298.951 74.1864 291.002C75.3132 288.198 77.4165 286.503 80.4362 285.933C80.7367 285.873 81.0371 285.843 81.3226 285.843C82.4493 285.843 83.5761 286.233 84.6728 287.028C94.4531 293.987 100.177 328.84 100.763 332.649L91.1479 335.034Z" fill="#211E1F"/>
<path d="M370.929 224.28C372.357 244.901 367.113 266.347 358.385 285.138C350.783 301.485 340.537 315.807 329.705 325.81C325.408 329.785 321.006 333.084 316.664 335.558C306.268 341.467 294.4 346.836 282.877 350.166C267.898 354.485 253.536 355.34 243.846 349.371L244.792 343.597L249.675 313.558C249.675 313.558 252.349 312.583 255.489 309.344C259.32 305.399 263.857 298.081 265.134 285.048C265.389 282.514 265.51 279.769 265.48 276.77C265.374 265.657 263.827 257.334 262.625 248.936C260.687 235.288 259.665 221.416 267.267 194.976C267.988 192.457 268.785 189.832 269.671 187.088C274.509 172.061 281.735 158.863 290.073 147.57C302.377 130.894 317.07 118.401 329.99 110.378C337.141 105.939 343.752 102.864 349.1 101.215C361.149 97.4953 369.923 96.5505 375.617 97.5253C380.469 98.3652 383.068 100.6 383.564 103.704C384.616 110.453 374.249 112.852 371.095 135.498C370.884 137.043 370.674 138.572 370.479 140.072C369.187 150.375 368.51 160.078 368.556 172.9C368.601 185.663 369.367 201.515 370.929 224.13C370.929 224.19 370.929 224.235 370.929 224.28Z" fill="#D1CECB"/>
<path d="M366.693 225.795C368.075 246.206 363.012 267.442 354.569 286.039C347.222 302.205 337.307 316.393 326.835 326.306C322.674 330.235 318.437 333.504 314.231 335.949C304.18 341.798 292.702 347.106 281.57 350.406C267.087 354.68 253.205 355.535 243.846 349.611L244.762 343.897C245.378 343.837 246.039 343.807 246.715 343.777C276.191 342.862 308.281 320.217 325.904 293.012C349.386 256.794 346.546 209.509 350.422 172.061C354.298 134.613 362.546 116.482 369.682 112.193C376.818 107.889 369.096 99.9102 369.096 99.9102C373.784 100.735 378.005 100.945 378.877 106.449C379.928 113.123 369.878 115.507 366.828 137.928C366.618 139.457 366.422 140.972 366.242 142.457C364.995 152.655 364.349 162.268 364.394 174.955C364.439 187.583 365.175 203.285 366.678 225.66C366.693 225.705 366.693 225.75 366.693 225.795Z" fill="#A09F9F"/>
<path d="M249.044 317.442C249.044 317.442 261.844 314.487 269.056 292.097C276.267 269.706 265.104 248.08 267.854 218.866C272.09 173.905 302.738 128.074 328.744 122.12C352.571 116.661 320.887 183.803 323.591 219.781C326.295 255.759 316.47 329.769 249.029 331.464V317.442H249.044Z" fill="#EDECEB"/>
<path d="M380.635 98.8901C375.227 95.5158 363.974 96.2056 348.981 100.84C343.287 102.594 336.646 105.789 329.781 110.048C314.892 119.301 300.68 132.543 289.758 147.346C280.699 159.628 273.818 172.961 269.311 186.968C268.44 189.667 267.629 192.337 266.892 194.871C263.407 206.974 261.469 217.397 260.973 226.725C260.538 234.808 261.168 241.467 262.235 248.981C262.43 250.36 262.641 251.77 262.851 253.135C263.903 260.198 264.999 267.502 265.09 276.77C265.12 279.65 264.999 282.409 264.744 285.003C263.467 298.081 258.855 305.309 255.204 309.074C252.169 312.208 249.555 313.183 249.54 313.198L249.33 313.273L243.426 349.551L243.636 349.686C248.278 352.55 254.228 354.005 261.304 354.005C261.319 354.005 261.334 354.005 261.349 354.005C267.719 354.005 274.975 352.835 282.953 350.526C296.549 346.596 308.868 340.403 316.815 335.888C321.157 333.429 325.559 330.13 329.931 326.095C341.018 315.852 351.234 301.365 358.701 285.303C363.253 275.525 366.648 265.492 368.812 255.489C371.14 244.721 371.967 234.223 371.276 224.265L371.261 224.13C369.668 201.11 368.947 185.318 368.902 172.931C368.857 160.993 369.428 151.185 370.81 140.147C371.005 138.572 371.2 137.073 371.411 135.573C373.289 122.121 377.781 115.777 380.755 111.578C382.829 108.653 384.331 106.539 383.88 103.674C383.61 101.65 382.513 100.06 380.635 98.8901ZM380.184 111.113C377.165 115.372 372.613 121.806 370.705 135.438C370.494 136.938 370.299 138.437 370.089 140.027C368.707 151.11 368.121 160.948 368.166 172.916C368.211 185.318 368.947 201.125 370.539 224.175L370.554 224.31C372.237 248.621 364.68 270.726 358.04 284.988C350.603 300.96 340.447 315.373 329.435 325.556C325.108 329.56 320.752 332.814 316.455 335.244C308.553 339.728 296.278 345.906 282.757 349.806C274.825 352.1 267.629 353.24 261.349 353.24C254.513 353.24 248.744 351.89 244.252 349.176L250.006 313.828C250.697 313.528 253.041 312.388 255.745 309.599C259.471 305.759 264.188 298.381 265.495 285.078C265.751 282.469 265.871 279.665 265.841 276.77C265.751 267.457 264.654 260.123 263.602 253.03C263.392 251.665 263.182 250.255 262.986 248.876C261.018 235.078 260.012 221.521 267.629 195.081C268.35 192.547 269.161 189.892 270.032 187.208C274.509 173.275 281.36 160.018 290.374 147.795C301.236 133.068 315.373 119.901 330.186 110.693C336.992 106.464 343.572 103.299 349.206 101.56C363.989 96.9855 375.016 96.2656 380.245 99.535C381.927 100.585 382.904 102.01 383.189 103.764C383.58 106.329 382.228 108.233 380.184 111.113Z" fill="#878383"/>
<path d="M282.875 350.166C280.201 350.931 277.542 351.606 274.928 352.131C274.913 352.131 274.913 352.131 274.898 352.146H274.883C262.894 354.575 251.822 354.276 243.889 349.386C243.874 349.386 243.859 349.372 243.859 349.372L249.058 317.458L249.688 313.574C249.688 313.574 252.363 312.599 255.503 309.359C256.554 309.629 257.771 310.004 259.078 310.529C264.472 312.629 271.653 316.993 276.716 325.781C278.158 328.271 279.42 331.105 280.427 334.344C281.809 338.784 282.695 343.973 282.89 350.031C282.875 350.061 282.875 350.106 282.875 350.166Z" fill="#4D4849"/>
<path d="M261.287 354.005C254.256 354.005 248.367 352.566 243.695 349.701C243.68 349.686 243.665 349.686 243.65 349.671L243.439 349.536L243.469 349.281L248.668 317.367L249.329 313.258L249.539 313.183C249.569 313.168 252.168 312.194 255.203 309.059L255.353 308.909L255.563 308.969C256.765 309.284 257.982 309.674 259.184 310.139C264.442 312.179 271.804 316.513 277.002 325.556C278.519 328.18 279.766 331.09 280.743 334.194C282.215 338.918 283.041 344.227 283.222 349.986L283.237 350.436L282.951 350.511C280.217 351.306 277.543 351.966 274.989 352.476C274.974 352.476 274.974 352.476 274.959 352.476L274.914 352.491H274.899C269.986 353.51 265.434 354.005 261.287 354.005ZM244.251 349.176C251.492 353.54 261.768 354.41 274.793 351.771C274.808 351.771 274.808 351.771 274.823 351.756H274.839C277.287 351.261 279.856 350.631 282.47 349.881C282.29 344.242 281.464 339.053 280.037 334.419C279.09 331.36 277.843 328.495 276.371 325.931C271.263 317.083 264.067 312.838 258.929 310.844C257.817 310.409 256.705 310.049 255.593 309.749C252.949 312.418 250.696 313.528 250.005 313.813L244.251 349.176Z" fill="black"/>
<path d="M280.411 334.314C281.794 338.754 282.68 343.943 282.875 350.001C282.44 350.136 282.004 350.271 281.583 350.391C279.345 351.051 277.136 351.636 274.943 352.116C274.928 352.116 274.928 352.116 274.913 352.131H274.898C262.909 354.77 251.762 354.605 243.859 349.611L243.889 349.386L244.761 343.898C245.377 343.838 246.038 343.808 246.714 343.778C257.876 343.433 269.414 339.968 280.411 334.314Z" fill="#3A3536"/>
<path d="M276.701 325.751C268.784 329.155 259.619 331.195 249.043 331.465V317.443C249.043 317.443 253.745 316.348 259.064 310.499C264.457 312.599 271.638 316.963 276.701 325.751Z" fill="#666264"/>
<path d="M272.209 319.002C266.17 312.463 259.199 309.914 255.578 308.969L255.368 308.909L255.218 309.059C252.183 312.194 249.569 313.168 249.554 313.183L249.344 313.258L243.439 349.536L243.65 349.671C248.292 352.536 254.241 353.99 261.317 353.99C261.332 353.99 261.347 353.99 261.362 353.99C267.732 353.99 274.989 352.821 282.966 350.511L283.252 350.436L283.237 350.151C282.861 336.984 279.15 326.501 272.209 319.002ZM244.251 349.176L250.005 313.828C250.696 313.528 252.949 312.433 255.593 309.764C261.933 311.474 281.479 319.227 282.485 349.896C266.05 354.59 252.829 354.335 244.251 349.176Z" fill="#232021"/>
<path d="M118.866 323.742C116.327 339.249 107.313 342.668 107.313 342.668L102.61 339.324L97.9081 335.979C97.8029 332.08 91.0724 319.692 82.509 296.972C73.9456 274.251 84.5372 254.905 84.5372 254.905L86.5203 250.241L87.7522 247.362L89.2095 243.942L92.4395 245.097L99.0348 247.467C99.0198 247.452 121.405 308.235 118.866 323.742Z" fill="#B5B0AC"/>
<path d="M117.543 322.767C115.004 338.274 106.606 341.603 106.606 341.603L102.625 339.309C110.497 330.595 102.459 317.113 97.6068 303.256C92.649 289.084 90.4857 273.907 90.4857 273.907C89.1636 275.796 86.0988 276.321 86.0988 276.321C86.0988 276.321 87.3458 274.027 88.3223 271.417C89.2988 268.808 87.6312 260.094 87.6312 260.094C86.1739 261.714 84.6566 265.208 84.6566 265.208C83.7251 259.884 85.6932 253.286 85.6932 253.286L86.5195 250.241L87.2406 247.602L87.7514 247.362L92.4387 245.112L99.034 247.482C99.019 247.452 120.082 307.26 117.543 322.767Z" fill="#898583"/>
<path d="M99.3651 247.316L99.305 247.152L88.9839 243.447L84.1914 254.71C84.0111 255.04 81.4571 259.899 79.9398 267.308C78.4975 274.356 77.7013 285.244 82.1482 297.062C86.1745 307.725 89.8252 316.228 92.5144 322.422C95.5041 329.365 97.4872 333.954 97.5323 335.949V336.129L107.267 343.058L107.448 342.983C107.538 342.953 109.806 342.068 112.406 339.233C114.779 336.654 117.904 331.87 119.226 323.771C120.293 317.278 117.273 302.431 110.242 279.65C105.029 262.718 99.4252 247.466 99.3651 247.316ZM118.505 323.681C117.213 331.57 114.208 336.219 111.91 338.724C109.836 340.988 107.944 341.963 107.373 342.233L98.2834 335.769C98.1332 333.564 96.2553 329.215 93.2055 322.152C90.5313 315.958 86.8806 307.47 82.8543 296.822C78.4675 285.184 79.2487 274.446 80.6609 267.503C82.2083 259.959 84.8224 255.115 84.8525 255.07L89.3895 244.407L98.7041 247.751C100.011 251.261 120.924 308.834 118.505 323.681Z" fill="#59514F"/>
<path d="M108.86 346.416L98.8246 349.4C98.8246 349.4 95.5645 348.801 90.9072 348.95C86.2499 349.1 85.1532 356.299 81.4424 355.804C79.1588 355.489 78.9335 352.985 79.1588 350.87C79.2039 350.465 79.264 350.09 79.3241 349.73C79.5044 348.711 79.7448 347.946 79.7748 347.856V347.841C75.5232 350.285 73.9156 356.734 71.0612 356.284C68.6274 355.894 68.402 351.89 68.402 351.89C68.402 351.89 67.9513 353.944 64.9466 354.484C61.9419 355.039 61.5964 352.265 61.5964 352.265C60.8152 352.94 59.5232 352.835 59.0725 351.935C58.3513 350.495 58.111 348.726 58.3213 346.806C58.3814 346.266 58.4715 345.711 58.5917 345.156C59.9889 338.932 65.5926 331.914 74.0659 330.459C84.4471 328.674 90.141 329.829 94.618 331.614C95.6696 332.034 96.6462 332.484 97.6077 332.949C99.3053 333.758 100.748 334.688 101.979 335.663C107.929 340.387 108.86 346.416 108.86 346.416Z" fill="#4D4849"/>
<path d="M87.4374 340.582V340.912C83.1407 341.992 79.7904 347.841 79.7904 347.841C75.5388 350.285 73.9313 356.734 71.0768 356.284C68.643 355.894 68.4177 351.89 68.4177 351.89C68.4177 351.89 67.967 353.944 64.9623 354.484C61.9576 355.039 61.612 352.265 61.612 352.265C60.8308 352.94 59.5388 352.835 59.0881 351.935C58.367 350.495 58.1266 348.725 58.3369 346.806C58.5923 347.316 58.9378 347.676 59.4036 347.751C61.2515 348.036 62.4834 345.351 62.5585 345.186L62.213 346.371C62.213 346.371 62.1228 349.28 64.7369 349.73C67.351 350.18 69.4242 347.211 69.4242 347.211L69.0637 348.56C69.6045 352.625 73.6458 350.99 77.1914 347.016C81.6834 341.962 87.4374 340.582 87.4374 340.582Z" fill="#3A3536"/>
<path d="M83.6218 342.817C80.6772 345.066 79.4904 347.601 79.4453 347.706L80.1214 348.021C80.1364 347.991 81.2782 345.546 84.0725 343.417C86.6566 341.452 91.2237 339.367 98.2697 340.657C98.2697 340.657 96.0162 339.352 91.434 339.682C87.8885 339.922 85.3495 341.497 83.6218 342.817Z" fill="#211E1F"/>
<path d="M69.7537 345.186C68.2213 348.651 68.041 351.755 68.041 351.89L68.7922 351.92C68.7922 351.89 68.9574 348.815 70.4448 345.486C72.4279 341.032 75.6729 338.273 80.0898 337.268C80.0898 337.268 77.4758 336.998 74.7415 338.842C72.5781 340.297 70.9405 342.502 69.7537 345.186Z" fill="#211E1F"/>
<path d="M62.0467 345.651C60.7246 349.265 61.2054 352.22 61.2204 352.34L61.9566 352.22C61.9566 352.19 61.4908 349.34 62.7378 345.921C64.4054 341.377 68.3265 337.913 74.0955 335.918C74.0955 335.918 70.9707 336.083 67.6054 338.407C64.3754 340.642 62.858 343.462 62.0467 345.651Z" fill="#211E1F"/>
<path d="M94.6181 331.614L94.3176 331.899C94.3176 331.899 86.1749 330.234 80.496 330.909C74.8171 331.584 69.9946 332.589 64.9768 336.533C59.9589 340.477 58.6369 345.186 58.6369 345.186C58.6369 345.186 58.6218 345.186 58.5918 345.156C59.989 338.932 65.5927 331.914 74.066 330.459C84.4472 328.674 90.1411 329.829 94.6181 331.614Z" fill="#666264"/>
<path d="M108.17 346.851L98.8105 349.401C98.8105 349.401 95.5504 348.801 90.8932 348.951C86.2359 349.101 85.1392 356.299 81.4284 355.804C79.1448 355.49 78.9194 352.985 79.1448 350.87C79.1899 350.466 79.25 350.091 79.3101 349.731C79.3401 349.791 79.3852 349.866 79.4303 349.941C80.7373 352.79 83.9824 350.945 86.3861 347.946C88.7899 344.947 94.6941 345.547 100.794 344.752C105.917 344.077 102.687 338.933 101.635 336.908C107.584 341.647 108.17 346.851 108.17 346.851Z" fill="#3A3536"/>
<path d="M71.362 356.704C71.2418 356.704 71.1367 356.689 71.0165 356.674C69.1986 356.389 68.4925 354.425 68.2071 353.105C67.6963 353.78 66.7498 354.56 65.0221 354.875C63.9855 355.07 63.1141 354.905 62.4381 354.41C61.8221 353.96 61.5066 353.33 61.3564 352.88C60.9357 353.075 60.47 353.135 60.0043 353.045C59.4334 352.94 58.9827 352.595 58.7273 352.1C57.27 349.191 57.6456 344.977 59.7489 340.837C62.6334 335.139 67.9667 331.119 73.9761 330.085C86.5357 327.925 92.3799 330.04 97.7432 332.589C102.941 335.064 105.781 338.663 107.238 341.257C108.831 344.062 109.176 346.266 109.191 346.356L109.236 346.686L98.7949 349.791L98.7047 349.776C98.6747 349.776 95.4296 349.191 90.8775 349.326C88.6691 349.401 87.3019 351.215 85.9648 352.985C84.6277 354.77 83.3658 356.449 81.3376 356.164C79.9104 355.969 78.2878 354.89 78.7385 350.825C78.8287 350.016 78.9789 349.266 79.1141 348.711C77.5817 349.866 76.4099 351.56 75.3733 353.075C74.0813 355.01 72.9094 356.704 71.362 356.704ZM68.6428 349.296L68.793 351.875C68.793 351.905 69.0334 355.595 71.1367 355.924C72.3986 356.119 73.5104 354.515 74.8024 352.655C76.0794 350.81 77.5066 348.726 79.5949 347.526L80.4362 347.046L80.1357 347.961C80.1357 347.976 79.7001 349.341 79.5348 350.9C79.2343 353.675 79.8954 355.205 81.4878 355.415C83.0653 355.624 84.147 354.185 85.409 352.52C86.7761 350.705 88.3235 348.636 90.8925 348.561C95.1141 348.426 98.224 348.906 98.7949 348.996L108.425 346.131C108.275 345.427 107.794 343.672 106.607 341.572C105.195 339.098 102.461 335.633 97.4578 333.249C92.0193 330.654 86.5057 328.675 74.1414 330.804C68.3573 331.794 63.2343 335.663 60.455 341.167C58.4869 345.037 58.0963 349.101 59.4334 351.755C59.5686 352.04 59.839 352.22 60.1695 352.295C60.5902 352.37 61.0409 352.25 61.3564 351.98L61.8822 351.515L61.9723 352.22C61.9723 352.235 62.1226 353.24 62.8888 353.795C63.3846 354.155 64.0606 354.26 64.8869 354.11C67.5911 353.615 68.0268 351.875 68.0418 351.8L68.6428 349.296Z" fill="#211E1F"/>
<path d="M233.707 363.153C196.298 393.447 156.291 372.976 156.291 372.976C156.291 372.976 156.381 371.717 156.486 369.932C156.576 368.417 156.666 366.528 156.711 364.713C156.786 361.564 156.741 358.609 156.291 358.189C155.284 357.23 144.016 348.681 144.016 348.681L139.539 332.544L118.867 258.039L145.804 204.725L156.291 208.324C156.291 208.324 158.199 208.639 161.519 209.614C171.494 212.553 194.135 221.401 215.453 245.202C243.847 276.92 247.228 300.091 247.228 300.091C247.228 300.091 271.115 332.859 233.707 363.153Z" fill="#B5B0AC"/>
<path d="M165.139 354.125C162.675 359.074 159.791 362.479 156.711 364.713C156.786 361.564 156.741 358.609 156.29 358.19C155.284 357.23 144.016 348.681 144.016 348.681L139.539 332.545L172.591 279.035C172.591 279.035 179.321 325.616 165.139 354.125Z" fill="#898583"/>
<path d="M149.049 216.588C149.049 216.588 153.496 229.575 158.199 231.78C158.199 231.78 154.999 231.975 152.595 231.225C152.595 231.225 154.803 239.278 157.448 241.273C157.448 241.273 158.394 243.478 160.407 244.272C160.407 244.272 155.239 246.087 152.099 245.067C152.099 245.067 153.692 262.914 145.699 266.843C137.707 270.772 145.699 267.278 145.699 267.278C145.699 267.278 147.697 259.509 145.474 254.785L142.875 249.386C142.875 249.386 139.494 258.715 133.185 261.444C126.875 264.174 149.049 216.588 149.049 216.588Z" fill="#898583"/>
<path d="M154.097 370.277C153.631 370.037 153.391 369.902 153.391 369.902C153.391 369.902 153.691 370.082 154.097 370.277Z" fill="#898583"/>
<path d="M245.469 298.516C245.469 298.516 247.152 299.761 246.941 299.086C245.499 294.407 238.138 273.936 213.304 246.176C191.986 222.376 166.521 211.653 159.475 210.273C159.475 210.273 198.055 222.991 228.147 281.224C228.147 281.224 226.089 279.875 226.419 280.37C228.703 283.864 239.805 300.616 235.899 319.542C232.594 335.559 219.854 350.571 209.293 359.554C196.057 370.817 183.557 371.177 180.643 369.452C178.645 368.252 192.616 351.771 199.197 347.166C206.078 342.352 212.192 335.664 214.386 330.565C216.579 325.466 216.894 321.462 213.845 323.411L170.352 365.658C170.352 365.658 170.697 366.753 171.313 368.072C164.372 368.087 159.64 368.807 156.5 369.947C156.425 371.177 155.013 370.697 154.111 370.292C159.55 373.051 195.426 389.473 229.89 361.564C267.283 331.24 245.469 298.516 245.469 298.516Z" fill="#898583"/>
<path d="M224.256 279.035C224.301 279.065 225.969 280.235 228.508 282.26C233.21 285.994 240.902 292.622 246.941 300.331L247.527 299.866C246.04 297.976 244.462 296.147 242.855 294.407C240.031 291.378 237.116 288.618 234.472 286.279C227.065 279.725 224.256 279.035 224.256 279.035Z" fill="#59514F"/>
<path d="M247.588 299.956C247.452 299.176 246.401 293.433 242.329 284.404C238.303 275.481 230.431 261.384 215.738 244.977C209.248 237.718 202.082 231.27 194.45 225.781C188.35 221.387 181.935 217.607 175.385 214.548C164.583 209.494 156.936 208.069 156.38 207.979L145.608 204.29L118.461 258.024L143.655 348.817L143.685 348.937L143.791 349.012C143.896 349.102 155.058 357.56 156.02 358.475C156.56 359.15 156.395 366.378 155.914 372.977L155.899 373.232L156.125 373.352C156.23 373.397 166.356 378.511 180.944 379.846C183.257 380.055 185.556 380.16 187.854 380.16C194.029 380.16 200.083 379.396 205.943 377.881C215.963 375.271 225.383 370.442 233.961 363.499C242.54 356.555 248.594 348.877 251.96 340.718C254.664 334.179 255.64 327.296 254.874 320.277C253.642 308.894 248.189 300.811 247.588 299.956ZM233.466 362.854C217.24 376.006 200.519 379.351 187.689 379.351C185.33 379.351 183.107 379.231 181.034 379.051C167.768 377.851 158.228 373.487 156.681 372.752C156.741 371.882 156.936 368.943 157.041 365.958C157.297 358.625 156.786 358.145 156.545 357.92C155.584 357.005 145.533 349.372 144.346 348.472L119.272 258.084L145.999 205.19L156.17 208.684L156.23 208.699C156.305 208.714 163.997 210.049 175.069 215.223C185.3 220.007 200.549 229.14 215.182 245.472C229.8 261.804 237.642 275.811 241.638 284.674C245.965 294.287 246.852 300.106 246.867 300.166L246.882 300.256L246.942 300.331C247.002 300.406 252.876 308.58 254.138 320.322C255.295 331.135 252.666 347.317 233.466 362.854Z" fill="#59514F"/>
<path d="M147.981 240.328C151.437 258.624 144.902 264.098 144.902 264.098C145.052 257.35 141.146 248.501 141.146 248.501C139.117 254.62 132.056 263.573 132.056 263.573L135.362 266.573L126.047 334.959C118.235 326.021 112.24 317.848 107.673 310.514C90.4414 282.875 93.1907 267.083 93.1907 267.083C92.8452 267.982 92.4395 268.792 91.9738 269.512C91.9738 269.512 91.9738 269.527 91.9588 269.527C90.3813 272.017 88.3381 273.441 87.3165 274.026C86.9109 274.266 86.6705 274.371 86.6705 274.371C86.6705 274.371 89.1795 270.172 88.7738 263.873C88.4283 258.519 88.9541 252.955 89.1194 251.396C89.1494 251.126 89.1644 250.976 89.1644 250.976C86.6555 253.87 83.801 260.274 83.801 260.274C83.6959 259.944 83.5907 259.614 83.5006 259.299C79.4442 245.412 84.9579 234.389 86.4151 231.84C86.6255 231.48 86.7457 231.285 86.7457 231.285C84.6724 232.964 82.0433 233.969 80.4358 234.464C79.5494 234.749 78.9785 234.869 78.9785 234.869C91.9438 221.147 90.3513 205.175 89.9006 203.735C89.9006 203.735 130.734 202.505 144.346 206.929C147.17 207.844 148.823 209.014 148.702 210.484C147.951 219.032 155.914 228.63 155.914 228.63C152.984 229.08 150.355 227.056 150.355 227.056C151.332 233.954 158.693 242.427 158.693 242.427C152.789 243.252 147.981 240.328 147.981 240.328Z" fill="#F1F5FD"/>
<path d="M86.4461 231.84C86.6565 231.48 86.7767 231.285 86.7767 231.285C84.7034 232.965 82.0743 233.969 80.4668 234.464C82.8555 232.695 89.3006 227.536 92.2452 221.132C92.2602 221.132 89.9015 228.405 86.4461 231.84Z" fill="#E5E5E5"/>
<path d="M91.9899 269.512C90.3974 272.016 88.3693 273.426 87.3477 274.026L87.573 273.441C87.573 273.441 93.1016 266.168 93.8979 256.479C93.8979 256.479 95.4303 263.603 91.9899 269.512Z" fill="#E5E5E5"/>
<path d="M89.15 251.396C89.1801 251.126 89.1951 250.976 89.1951 250.976C86.6862 253.87 83.8317 260.274 83.8317 260.274C83.7266 259.944 83.6214 259.614 83.5312 259.299C83.8017 257.11 85.3341 247.977 92.32 244.152C92.335 244.137 90.0214 246.912 89.15 251.396Z" fill="#E5E5E5"/>
<path d="M92.8457 266.933L93.5518 267.203C93.5668 267.158 93.7471 266.798 93.8973 266.168C94.6635 263.019 94.1978 260.979 94.1978 260.979C93.9124 264.114 92.8607 266.903 92.8457 266.933Z" fill="#999999"/>
<path d="M88.8184 250.916L89.5545 251.036C89.5545 250.991 90.2155 247.137 92.3188 244.138C92.3188 244.138 90.5611 244.993 89.3742 248.622C88.9686 249.897 88.8334 250.841 88.8184 250.916Z" fill="#999999"/>
<path d="M158.723 242.428C158.723 242.428 151.361 233.954 150.385 227.056C150.385 227.056 153.014 229.08 155.944 228.63C155.944 228.63 147.981 219.032 148.732 210.484C148.868 209.014 147.2 207.845 144.376 206.93L136.969 208.849L112.511 212.254C112.511 212.254 114.479 215.058 132.282 216.858C136.293 217.263 139.778 222.872 143.775 225.031C143.775 225.031 136.969 225.181 133.153 222.887C133.243 223.037 139.463 232.53 139.463 240.478C139.463 240.478 138.261 235.829 133.153 233.999C133.153 233.999 134.776 245.442 127.79 255.115C120.804 264.788 114.043 280.235 113.923 292.188C113.923 292.188 108.98 287.509 108.575 281.66C108.575 281.66 108.244 303.916 112.105 313.574C112.105 313.574 109.716 312.554 107.658 310.514C112.225 317.848 118.22 326.021 126.032 334.959L135.346 266.573L132.041 263.574C132.041 263.574 139.102 254.605 141.131 248.501C141.131 248.501 145.037 257.35 144.886 264.098C144.886 264.098 151.422 258.625 147.966 240.328C147.981 240.328 152.789 243.253 158.723 242.428Z" fill="#E5E5E5"/>
<path d="M143.369 233.999C143.399 234.029 146.118 236.728 147.636 240.478L148.327 240.193C147.996 239.398 147.636 238.648 147.245 237.958C145.352 234.734 143.369 233.999 143.369 233.999Z" fill="#999999"/>
<path d="M150.911 227.836C151.933 228.435 153.886 229.32 156.004 228.99L156.665 228.885L156.245 228.375C156.169 228.285 148.387 218.807 149.123 210.499C149.183 209.824 148.943 209.194 148.387 208.624C141.987 201.861 92.0642 203.285 89.9309 203.345L89.4351 203.36L89.5854 203.825C89.8107 204.56 90.2614 208.924 89.1346 214.593C88.1131 219.782 85.4689 227.461 78.7384 234.584L77.9121 235.469L79.099 235.214C79.2642 235.184 82.6295 234.434 85.6342 232.545C84.898 233.969 83.8314 236.369 82.975 239.533C81.698 244.332 80.7365 251.846 83.4858 260.379L83.7863 261.309L84.1919 260.409C84.222 260.349 86.4755 255.31 88.699 252.221C88.4886 254.47 88.1431 259.284 88.4285 263.888C88.8192 269.992 86.4004 274.131 86.3703 274.176L85.7694 275.196L86.8511 274.716C87.0163 274.641 90.4417 273.082 92.6802 269.107C92.6051 271.867 92.9055 277.281 95.3093 285.154C97.3825 291.948 100.613 299.147 104.894 306.57C110.243 315.838 117.274 325.466 125.792 335.199L126.333 335.814L135.783 266.408L132.613 263.499C133.769 261.999 139.058 254.98 141.191 249.506C142.152 251.906 144.661 258.699 144.541 264.053L144.526 264.878L145.157 264.353C145.232 264.293 146.885 262.869 148.102 259.164C149.183 255.88 150.1 250.091 148.492 241.003C150.055 241.783 154.036 243.432 158.768 242.773L159.46 242.683L159.009 242.158C158.949 242.098 152.293 234.389 150.911 227.836ZM148.177 240.013L147.456 239.578L147.606 240.403C149.364 249.716 148.462 255.595 147.396 258.879C146.69 261.039 145.833 262.404 145.262 263.124C145.067 256.54 141.627 248.696 141.476 248.352L141.086 247.467L140.785 248.397C138.802 254.38 131.831 263.259 131.756 263.349L131.546 263.619L134.956 266.723L125.777 334.09C106.998 312.479 99.2304 295.487 96.0154 285.004C92.4999 273.547 93.5365 267.203 93.5516 267.128L92.8304 266.933C91.4933 270.472 88.9694 272.512 87.5572 273.427C88.2933 271.762 89.4351 268.343 89.1497 263.828C88.7591 257.635 89.5403 251.066 89.5553 251.006L89.7055 249.776L88.8943 250.706C86.9262 252.986 84.7778 257.32 83.8915 259.194C81.5628 251.231 82.4642 244.257 83.6811 239.743C85.0332 234.644 87.0614 231.48 87.0764 231.45L88.3534 229.485L86.5356 230.955C84.4323 232.65 81.713 233.654 80.1656 234.134C86.3703 227.161 88.8793 219.782 89.8708 214.743C90.8774 209.674 90.652 205.595 90.3966 204.08C92.8004 204.02 104.474 203.75 116.628 204.155C134.506 204.74 145.307 206.465 147.831 209.134C148.222 209.554 148.402 209.974 148.357 210.439C147.696 217.967 153.525 226.126 155.223 228.3C152.759 228.36 150.641 226.756 150.626 226.741L149.89 226.171L150.025 227.086C150.881 233.1 156.365 240.118 158.002 242.113C152.579 242.623 148.222 240.028 148.177 240.013Z" fill="#999999"/>
<path d="M196.717 198.636C196.717 198.636 200.218 199.49 202.426 201.59C202.426 201.59 191.114 201.785 180.492 205.789C169.87 209.793 120.804 220.081 84.7475 206.284C80.3907 204.619 76.3193 202.73 72.5484 200.69C62.0019 195.006 53.6339 188.123 47.1738 181.404C36.8076 170.621 31.3841 160.303 29.7616 156.194C25.7503 145.996 16.3907 138.047 14.1371 137.148C14.1371 137.148 19.3954 135.273 23.677 136.623C23.677 136.623 10.5465 123.965 1.38221 121.176C1.36719 121.176 1.36719 121.176 1.36719 121.176C1.36719 121.176 10.5315 115.627 18.4188 115.552C18.4188 115.552 16.8414 115.012 15.0385 113.302C15.0385 113.302 21.6188 112.043 28.7249 108.863C29.0404 108.713 29.3559 108.578 29.6864 108.428C32.3907 107.154 35.14 105.594 37.5888 103.719C41.8705 100.42 47.6094 92.7264 54.5954 84.1331C62.5277 74.37 72.0827 63.4222 82.9597 56.4785C87.5869 53.5241 92.755 50.8097 98.3437 48.5901C116.011 41.6015 137.931 39.6519 160.18 50.9296C165.949 53.8541 171.583 57.5883 176.901 61.9975C190.678 73.4252 202.261 89.442 208.421 107.918C216.278 131.509 208.421 167.307 215.767 190.102C215.767 190.102 210.704 186.398 208.21 184.508C208.316 184.688 214.896 196.341 220.064 200.51C220.064 200.51 214.31 199.52 207.865 198.95C204.034 198.591 199.963 198.396 196.717 198.636Z" fill="#BFB8B4"/>
<path d="M113.006 43.8662C95.729 50.045 77.9713 62.5375 68.6117 74.0253C57.2689 87.9725 45.3703 102.505 37.4079 107.304C29.4455 112.103 21.1825 114.127 21.1825 114.127C21.1825 114.127 24.3375 114.652 25.6445 114.457C25.6445 114.457 20.7919 117.652 16.4351 118.177C12.0783 118.701 8.47269 121.806 8.47269 121.806C8.47269 121.806 21.7084 130.624 27.6426 139.547C27.5375 139.502 23.7816 138.003 20.7318 138.633C20.7318 138.633 28.5741 144.016 32.2999 155.594C35.1093 164.322 43.2971 176.14 47.1581 181.404C36.7919 170.621 31.3685 160.303 29.7459 156.194C25.7347 145.996 16.375 138.048 14.1215 137.148C14.1215 137.148 19.3797 135.273 23.6614 136.623C23.6614 136.623 10.5309 123.965 1.36659 121.176C1.35156 121.176 1.35156 121.176 1.35156 121.176C1.35156 121.176 10.5159 115.627 18.4032 115.552C18.4032 115.552 16.8257 115.012 15.0229 113.303C15.0229 113.303 21.6032 112.043 28.7093 108.863C29.0248 108.713 29.3403 108.578 29.6708 108.428C32.375 107.154 35.1243 105.594 37.5732 103.719C41.8549 100.42 47.5938 92.7266 54.5797 84.1333C62.5121 74.3702 72.0671 63.4224 82.944 56.4787C87.5563 53.5093 102.67 45.7108 113.006 43.8662Z" fill="#D8D7D6"/>
<path d="M120.775 154.919C120.429 155.639 116.884 161.893 113.278 167.741C109.672 173.59 107.824 187.792 89 190.282L97.2479 162.447L120.775 154.919Z" fill="#898583"/>
<path d="M80.436 75.3746C72.9243 74.9097 63.8501 78.7039 55.9177 83.233C55.437 83.503 54.9412 83.8029 54.4304 84.1029C47.4445 92.6962 41.7055 100.39 37.4238 103.689C34.975 105.564 32.2407 107.123 29.5215 108.398L83.636 124.85L99.1853 98.3051C99.1853 98.3201 98.0886 76.4844 80.436 75.3746Z" fill="#F1F5FD"/>
<path d="M80.8863 118.687C80.8863 118.687 79.2487 135.993 70.2346 140.582C61.2055 145.186 43.1173 143.087 28.6947 133.984C23.7069 130.834 18.8844 128.33 14.7079 126.41C9.25436 123.891 4.89755 122.346 2.71914 121.641C1.84778 121.356 1.33698 121.206 1.23182 121.176C1.2168 121.176 1.2168 121.176 1.2168 121.176C1.2168 121.176 10.3811 115.627 18.2684 115.552C18.2684 115.552 16.691 115.012 14.8882 113.303C14.8882 113.303 21.4684 112.043 28.5745 108.864C28.7248 108.819 28.875 108.774 29.0252 108.729C35.0046 106.884 41.645 102.535 45.7464 99.1155C47.0234 98.0507 48.7661 96.5659 50.8844 95.0812C56.9238 90.8521 65.968 86.6979 75.5379 92.7867C88.4281 101.005 80.8863 118.687 80.8863 118.687Z" fill="#423A38"/>
<path d="M50.8701 95.0664C45.8223 100.6 41.18 105.039 37.4241 107.304C29.4617 112.103 21.1988 114.128 21.1988 114.128C21.1988 114.128 24.3537 114.653 25.6607 114.458C25.6607 114.458 20.8082 117.652 16.4514 118.177C12.0946 118.702 8.48892 121.806 8.48892 121.806C8.48892 121.806 11.2082 123.621 14.7237 126.425C9.27014 123.906 4.91333 122.361 2.73493 121.656C2.28422 121.476 1.83352 121.326 1.39784 121.191C1.38281 121.191 1.38281 121.191 1.38281 121.191C1.38281 121.191 10.5471 115.642 18.4345 115.567C18.4345 115.567 16.857 115.027 15.0542 113.318C15.0542 113.318 21.6345 112.058 28.7406 108.879C28.8307 108.834 28.9359 108.789 29.041 108.744C35.0204 106.899 41.6607 102.55 45.7622 99.1306C46.9941 98.0358 48.7518 96.5511 50.8701 95.0664Z" fill="#514947"/>
<path d="M191.548 197.961C191.548 197.961 194.118 198.756 197.543 200.676C197.543 200.676 190.452 200.721 179.83 204.725C169.209 208.729 123.282 216.333 85.9335 204.725C79.6236 202.76 77.0997 200.406 74.5156 198.636C95.4433 206.315 114.854 206.465 132.671 205.19C160.901 203.15 191.173 191.737 191.173 191.737C186.666 189.788 184.908 186.683 184.908 186.683C191.804 189.233 200.112 187.838 200.112 187.838C196.747 181.24 196.656 163.198 197.408 167.097C197.453 167.292 197.498 167.502 197.543 167.712C198.564 171.536 202.305 176.305 202.305 176.305C200.457 171.701 202.35 147.511 197.393 115.208C192.435 82.9039 173.806 63.9326 173.806 63.9326C173.806 63.9326 193.637 75.2254 206.256 108.699C212.221 124.521 206.121 163.708 213.468 186.503C213.468 186.503 207.819 183.159 205.325 181.255C205.43 181.434 211.184 194.482 216.352 198.651C216.352 198.651 213.212 198.021 206.767 197.451C202.981 197.091 194.809 197.721 191.548 197.961Z" fill="#898583"/>
<path d="M209.307 185.918C211.891 187.853 215.331 190.357 215.377 190.402L216.308 191.092L215.947 189.998C212.342 178.84 212.417 164.203 212.477 150.045C212.537 135.198 212.612 119.856 208.601 107.814C204.5 95.5011 197.724 83.6384 188.995 73.5304C180.642 63.8573 170.682 55.9239 160.18 50.6149C146.674 43.7763 132.342 41.2718 117.574 43.1764C102.415 45.126 90.1709 51.3348 82.584 56.1789C71.7221 63.1225 62.107 74.1003 54.1296 83.9084C52.7174 85.6481 51.3502 87.3577 50.0282 89.0074C44.9502 95.3511 40.5634 100.84 37.1831 103.435C34.9897 105.129 32.3455 106.704 29.3559 108.114C29.0254 108.264 28.7099 108.414 28.4094 108.549C21.4385 111.653 14.8732 112.913 14.8131 112.928L14.092 113.063L14.6178 113.573C15.4291 114.337 16.1953 114.877 16.7962 115.252C9.28451 115.897 1.35211 120.651 1.00657 120.861L0 121.431L1.12676 121.536C8.62347 123.816 18.9596 132.934 22.2197 135.918C18.2235 135.243 14.0469 136.713 13.8366 136.788L12.9052 137.118L13.8216 137.493C15.7746 138.273 25.1643 145.951 29.2357 156.329C29.6563 157.424 33.7127 167.307 44.3944 179.17C49.3671 184.689 54.9408 189.683 60.9653 194.017C68.1765 199.191 76.0639 203.435 84.4319 206.644C98.584 212.058 114.434 213.618 128.015 213.618C133.063 213.618 137.795 213.408 142.017 213.093C160.18 211.743 175.234 208.114 180.462 206.149C190.888 202.22 202.156 201.98 202.276 201.98L203.192 201.965L202.531 201.335C201.345 200.196 199.797 199.416 198.595 198.936C201.089 198.876 204.139 199.011 207.669 199.326C214.024 199.896 219.778 200.87 219.839 200.885L221.266 201.125L220.139 200.226C216.158 196.986 211.305 189.263 209.307 185.918ZM207.73 198.546C203.147 198.141 199.377 198.036 196.522 198.246L194.148 198.426L196.462 198.981C196.492 198.981 199.196 199.656 201.285 201.23C198.31 201.38 188.965 202.115 180.192 205.414C175.008 207.364 160.045 210.963 141.957 212.313C126.483 213.468 103.992 213.288 84.7023 205.909C69.3183 200.016 55.9474 190.852 44.9502 178.645C34.3587 166.887 30.3474 157.109 29.9268 156.044C26.3211 146.881 18.2535 139.278 14.9333 137.223C16.5709 136.773 20.2667 135.978 23.3765 136.968L24.8939 137.448L23.7521 136.338C23.2263 135.828 11.1624 124.265 2.10329 121.071C4.40188 119.796 11.8085 115.972 18.2385 115.912L20.4019 115.897L18.3587 115.192C18.3437 115.192 17.1418 114.757 15.6545 113.513C17.5775 113.093 23.0009 111.758 28.6948 109.193C29.0103 109.058 29.3258 108.908 29.6563 108.744C32.7061 107.304 35.3803 105.714 37.6188 103.989C41.0742 101.335 45.4911 95.8161 50.5991 89.4423C51.9211 87.7926 53.2732 86.098 54.7005 84.3583C62.6479 74.5802 72.2028 63.6624 82.9746 56.7787C94.6479 49.3252 125.476 33.8482 159.82 51.2448C181.784 62.3726 199.737 83.5935 207.865 108.024C211.831 119.961 211.771 135.243 211.711 150.015C211.651 163.783 211.591 178 214.881 189.113C213.303 187.958 210.073 185.573 208.255 184.194L206.828 183.099L207.7 184.674C207.76 184.779 213.604 195.142 218.667 199.911C216.608 199.581 212.327 198.966 207.73 198.546Z" fill="#59514F"/>
<path d="M130.284 62.2224C130.224 62.3273 130.164 62.4323 130.119 62.5223C128.136 66.1066 125.131 72.1204 121.856 79.229C114.644 94.8559 106.201 115.777 104.729 128.059L104.639 128.674L103.768 134.913L102.295 133.983L89.976 126.215L81.8633 121.086V118.776C81.8633 118.776 93.7168 101.68 102.971 85.4828C112.256 69.301 132.507 52.1144 136.564 49.8648C138.321 48.89 134.956 53.794 130.284 62.2224Z" fill="#423A38"/>
<path d="M130.285 62.2227C130.224 62.3276 130.164 62.4326 130.119 62.5226C127.55 67.1717 124.576 72.8706 121.856 79.2293C114.645 94.8562 106.202 115.777 104.73 128.06L104.639 128.675L102.311 133.999L89.9916 126.23L89.7812 124.34C89.7812 124.34 98.7653 124.91 103.227 118.702C111.265 107.514 112.692 83.3535 130.285 62.2227Z" fill="#2D2726"/>
<path d="M210.269 182.889C210.269 182.889 204.861 176.14 201.856 174.25C201.481 174.026 201.15 173.861 200.865 173.801C200.789 173.786 200.654 173.741 200.474 173.681C199.873 173.471 198.731 173.036 197.154 172.421C181.755 166.377 124.651 142.772 124.651 142.772L112.031 144.466L104.264 131.359C104.264 131.359 118.836 78.5093 155.494 91.1069C176.722 98.3954 191.58 121.536 200.414 143.477C206.844 159.418 210.089 174.745 210.269 182.889Z" fill="#F1F5FD"/>
<path d="M197.558 167.697C198.099 169.706 199.376 171.956 200.473 173.666C199.872 173.456 198.73 173.021 197.153 172.406C196.912 168.162 197.078 165.297 197.423 167.097C197.453 167.292 197.498 167.487 197.558 167.697Z" fill="#898583"/>
<path d="M210.268 182.889C210.268 182.889 204.86 176.14 201.855 174.251C201.164 169.346 201.359 158.369 200.428 143.477C206.843 159.418 210.088 174.745 210.268 182.889Z" fill="#CECECE"/>
<path d="M219.898 200.48C219.898 200.48 214.144 199.491 207.699 198.921L207.684 198.906C207.158 198.471 206.497 197.961 205.701 197.361C202.561 195.007 197.363 191.527 190.031 187.898C187.658 186.728 185.059 185.543 182.249 184.374C164.071 176.875 138.666 175.51 120.202 148.231C120.202 148.231 113.892 136.113 122.035 123.501C137.9 98.9504 162.283 108.654 175.804 125.3C189.325 141.947 194.719 153.675 197.423 159.778C198.685 162.643 200.007 166.737 201.569 170.996C202.967 174.805 204.544 178.735 206.452 182.004C206.963 182.874 207.489 183.699 208.044 184.464C208.15 184.644 214.7 196.236 219.868 200.42C219.868 200.465 219.883 200.465 219.898 200.48Z" fill="#423A38"/>
<path d="M216.382 198.636C216.382 198.636 213.243 198.006 206.797 197.436C206.467 197.406 206.091 197.376 205.701 197.361C202.561 195.007 197.363 191.527 190.031 187.898C195.35 188.633 200.127 187.823 200.127 187.823C196.762 181.224 196.672 163.183 197.423 167.082C197.468 167.277 197.513 167.487 197.558 167.697C198.58 171.521 202.32 176.29 202.32 176.29C201.93 175.33 201.72 173.546 201.554 171.011C202.951 174.821 204.529 178.75 206.437 182.019C206.031 181.734 205.656 181.464 205.34 181.224C205.445 181.419 211.214 194.467 216.382 198.636Z" fill="#2D2726"/>
<path d="M167.45 54.8742C167.315 55.2192 166.94 55.2792 166.94 55.2792L123.867 46.041C120.953 46.4159 117.017 45.4861 115.86 43.8664C115.65 43.5665 115.529 43.2515 115.529 42.9066C115.514 38.7374 123.642 37.4027 125.219 37.1777C125.385 37.1477 125.49 37.1477 125.49 37.1477C124.258 36.8178 119.03 35.663 116.881 33.6684C116.145 32.9786 115.77 32.1837 116.07 31.2989C118.098 25.4051 132.611 28.2095 133.588 28.4195C133.618 28.4195 133.633 28.4345 133.633 28.4345C133.467 28.3445 127.338 24.7302 128.374 22.2857C128.404 22.2257 128.434 22.1507 128.48 22.0907C129.772 19.7812 135.931 19.1363 142.797 21.6108C149.858 24.1603 155.492 31.2839 155.492 31.2839C155.462 30.834 155.432 30.4141 155.417 30.0091C155.101 21.2509 159.097 22.4506 165.708 32.6336C171.762 41.9318 168.382 52.4147 167.45 54.8742Z" fill="#BFB8B4"/>
<path d="M131.409 38.0176C128.434 37.5527 123.867 38.3926 120.742 39.6673C117.542 40.9721 115.86 43.8665 115.86 43.8665C115.65 43.5665 115.529 43.2516 115.529 42.9067C115.514 38.7375 123.642 37.4028 125.219 37.1778L126.241 37.1328L131.409 38.0176Z" fill="#D8D7D6"/>
<path d="M156.049 32.544C152.699 28.7947 144.211 22.586 137.044 21.4462C131.786 20.6063 128.736 22.421 128.736 22.421L128.496 22.0761C129.788 19.7665 135.948 19.1216 142.813 21.5962C149.874 24.1456 155.508 31.2692 155.508 31.2692C155.478 30.8193 155.448 30.3994 155.433 29.9945L156.049 32.544Z" fill="#D8D7D6"/>
<path d="M135.06 29.3494C135.06 29.3494 125.099 28.2546 121.268 29.3494C117.738 30.3692 116.746 31.7639 116.866 33.6686C116.13 32.9787 115.755 32.1839 116.055 31.299C118.083 25.4052 132.596 28.2096 133.572 28.4196L135.06 29.3494Z" fill="#D8D7D6"/>
<path d="M155.162 31.4494C155.192 31.4944 157.536 35.8736 158.272 41.0775C158.272 41.0775 158.602 39.1579 157.701 35.5586C157.025 32.9041 155.883 31.2095 155.823 31.1045L155.162 31.4494Z" fill="#59514F"/>
<path d="M133.768 28.0742L133.498 28.7791C133.543 28.7941 137.329 30.3388 142.677 35.9627C142.677 35.9627 141.866 34.058 138.366 30.9836C135.737 28.6441 133.889 28.1042 133.768 28.0742Z" fill="#59514F"/>
<path d="M125.475 36.7578L125.49 37.5077C125.535 37.5077 129.771 37.4327 133.963 39.0374C133.963 39.0374 132.896 37.7626 130.357 37.2377C127.668 36.6979 125.595 36.7578 125.475 36.7578Z" fill="#59514F"/>
<path d="M167.736 55.2943C167.797 55.1743 169.074 52.2199 169.509 47.9157C169.915 43.9265 169.644 38.0027 166.024 32.4088C161.907 26.065 158.828 23.1856 156.875 23.8454C155.492 24.3103 154.891 26.3799 155.042 30.1592C153.284 28.1646 148.597 23.2905 142.918 21.236C139.567 20.0212 136.157 19.4663 133.303 19.6613C130.523 19.8562 128.6 20.741 128.029 22.1058C127.203 24.0254 129.967 26.3799 131.875 27.7147C127.624 27.0548 117.468 26.065 115.71 31.164C115.5 31.7939 115.545 32.4088 115.875 33.0086C116.897 34.8983 120.398 36.158 123.673 37.0578C120.728 37.6427 115.139 39.2324 115.154 42.9067C115.154 43.5216 115.455 44.1065 116.056 44.6313C116.506 45.0213 117.122 45.4112 117.859 45.6661C120.578 46.581 123.838 45.9361 123.868 45.6811H123.823C121.254 46.0111 117.934 45.2762 116.536 44.0615C116.116 43.6865 115.89 43.2966 115.89 42.9067C115.875 38.6775 125.415 37.5377 125.506 37.5227L127.444 37.2978L125.566 36.7879C125.43 36.7579 125.25 36.6979 125.025 36.6529C123.207 36.188 117.663 34.7783 116.521 32.6637C116.296 32.2588 116.266 31.8539 116.416 31.4189C118.384 25.6901 133.408 28.7495 133.558 28.7795L135.812 29.2444L133.813 28.0896C132.131 27.1148 127.954 24.1904 128.706 22.4057C129.667 20.1562 135.827 19.4663 142.647 21.9408C149.528 24.4303 155.117 31.4189 155.177 31.4939L155.943 32.4537L155.853 31.239C155.462 25.93 156.469 24.7753 157.1 24.5653C157.821 24.3253 160.06 24.6403 165.378 32.8287C168.878 38.2276 169.149 43.9565 168.758 47.8257C168.413 51.29 167.481 53.8995 167.151 54.7244L166.91 55.2943L167.601 55.5942L167.736 55.2943Z" fill="#59514F"/>
<path d="M107.93 163.393C107.93 163.528 107.915 163.648 107.915 163.783C107.599 170.816 106.022 176.17 103.783 180.16C103.543 180.595 103.302 180.999 103.047 181.404C98.8705 187.898 92.8461 190.208 88.2039 189.893C82.8856 189.548 80.6921 186.758 80.4367 182.994C80.3316 181.374 80.5719 179.56 81.0827 177.7C82.7804 171.506 80.0762 163.408 80.0762 163.408L85.079 160.604L94.3034 161.728L107.479 163.348L107.93 163.393Z" fill="#71010E"/>
<path d="M107.9 163.783C107.584 170.816 106.007 176.17 103.768 180.16C103.528 180.594 103.287 180.999 103.032 181.404C102.025 181.719 100.959 181.884 99.8469 181.884C93.8526 181.884 89 177.04 89 171.056C89 167.097 91.1333 163.633 94.3033 161.743L107.479 163.363C107.629 163.483 107.764 163.633 107.9 163.783Z" fill="#510311"/>
<path d="M102.311 167.908C102.311 167.908 103.392 167.263 103.467 165.703C103.542 164.143 106.217 165.193 106.217 165.193C106.217 165.193 105.135 166.948 105.616 168.508C106.096 170.067 102.311 167.908 102.311 167.908Z" fill="#71010E"/>
<path d="M103.782 180.161C100.372 186.234 95.444 189.084 91.0722 189.759C90.0806 189.909 89.1191 189.954 88.2027 189.894C82.8844 189.549 80.6909 186.759 80.4355 182.995C81.4571 181.18 83.3952 178.526 86.475 177.521C88.2778 176.936 90.4712 176.906 93.0853 177.956C93.0703 177.941 97.5022 174.972 103.782 180.161Z" fill="#F98C93"/>
<path d="M103.783 180.16C100.372 186.234 95.4445 189.083 91.0727 189.758C95.8201 188.423 99.7863 182.56 97.3225 180.07C94.5131 177.251 90.2614 180.37 90.2614 180.37C90.0661 177.251 86.4004 177.626 86.4004 177.626L86.4755 177.506C88.2783 176.921 90.4718 176.891 93.0858 177.94C93.0708 177.94 97.5027 174.971 103.783 180.16Z" fill="#E56C77"/>
<path d="M93.2803 178.256L93.085 177.941L92.8897 177.626C92.8446 177.656 92.0484 178.196 90.7564 179.546C89.0287 181.36 88.8184 183.1 88.8184 183.1C91.4174 179.471 93.2653 178.271 93.2803 178.256Z" fill="#B23B4A"/>
<path d="M93.0402 177.521C89.9003 176.321 87.0308 176.486 84.5069 178C82.3585 179.305 80.9313 181.33 80.105 182.8L80.0449 182.89L80.06 182.994C80.2703 186.069 81.8477 189.833 88.1726 190.238C88.443 190.253 88.7285 190.268 88.9989 190.268C93.7463 190.268 99.9811 187.689 104.113 180.325L104.263 180.055L104.022 179.86C98.2233 175.076 93.9416 177.011 93.0402 177.521ZM88.2177 189.518C83.6205 189.218 81.1266 187.044 80.8111 183.084C82.4938 180.115 86.2797 175.646 92.9351 178.3L93.1153 178.375L93.2806 178.27C93.4459 178.165 97.4571 175.616 103.301 180.265C99.0947 187.524 92.7698 189.818 88.2177 189.518Z" fill="#B23B4A"/>
<path d="M79.625 163.213L79.7302 163.513C79.7602 163.588 82.3743 171.582 80.7217 177.595C80.1658 179.605 79.9405 181.42 80.0607 183.024C80.271 186.099 81.8485 189.863 88.1734 190.268C88.4438 190.283 88.7292 190.298 88.9997 190.298C93.7471 190.298 99.9818 187.718 104.113 180.355C106.622 175.871 108.034 170.172 108.305 163.423L108.32 163.078L85.0184 160.214L79.625 163.213ZM107.539 163.723C107.253 170.202 105.871 175.661 103.452 179.98C99.2457 187.478 92.8306 189.818 88.2184 189.518C83.5762 189.218 81.0823 187.014 80.8119 182.964C80.7067 181.45 80.917 179.71 81.4579 177.79C83.0053 172.152 81.0222 165.118 80.5414 163.573L85.1687 160.979L107.539 163.723Z" fill="#59514F"/>
<path d="M156.921 111.563C138.247 103.855 123.013 133.624 124.62 146.986C126.949 161.728 153.045 165.177 161.939 160.978C172.726 155.894 175.58 119.257 156.921 111.563Z" fill="#2D2726"/>
<path d="M156.095 116.707C137.481 109.838 124.741 135.918 128.167 147.481C131.742 159.509 151.904 161.533 160.437 157.214C168.97 152.895 174.709 123.576 156.095 116.707Z" fill="black"/>
<path d="M159.4 157.289C152.699 160.648 138.607 160.003 131.651 153.495C130.029 151.98 128.797 150.135 128.151 147.946C125.372 138.662 133.544 119.631 146.84 117.502C149.439 117.082 152.249 117.322 155.193 118.401C173.221 125 167.663 153.15 159.4 157.289Z" fill="white"/>
<path d="M159.401 157.289C152.7 160.649 138.608 160.004 131.652 153.495C136.956 155.205 144.017 156.929 148.614 155.895C156.772 154.035 160.933 149.731 161.113 134.569C161.294 119.557 147.127 117.547 146.841 117.517C149.44 117.097 152.25 117.337 155.194 118.417C173.222 125.001 167.664 153.15 159.401 157.289Z" fill="#E0D9D9"/>
<path d="M160.701 144.779C162.315 138.789 159.194 132.742 153.73 131.275C148.265 129.807 142.526 133.474 140.912 139.465C139.297 145.456 142.418 151.502 147.883 152.97C153.347 154.437 159.086 150.77 160.701 144.779Z" fill="#0F77B2"/>
<path d="M149.019 153.886C147.021 153.631 145.158 152.806 143.596 151.456C140.922 149.162 139.494 145.697 139.69 141.963C140.02 135.469 145.263 130.235 151.348 130.295C153.827 130.325 156.14 131.195 158.018 132.8C160.692 135.094 162.12 138.559 161.924 142.293C161.594 148.787 156.351 154.021 150.266 153.961C149.845 153.961 149.425 153.931 149.019 153.886ZM151.423 131.645C146.165 131.6 141.628 136.279 141.327 142.098C141.162 145.412 142.439 148.577 144.753 150.556C146.3 151.891 148.178 152.596 150.191 152.626C155.449 152.671 159.986 147.992 160.287 142.173C160.452 138.859 159.175 135.694 156.861 133.715C155.314 132.38 153.436 131.66 151.423 131.645Z" fill="#02324C"/>
<path d="M141.342 143.043C141.582 138.409 145.879 144.378 151.047 144.423C156.215 144.468 160.271 138.589 160.031 143.223C159.791 147.857 155.659 152.566 150.491 152.506C145.338 152.461 141.101 147.677 141.342 143.043Z" fill="#7AC9F4"/>
<path d="M142.979 142.548C143.22 138.004 146.375 141.918 150.581 141.963C154.773 142.008 158.409 138.154 158.183 142.698C157.943 147.242 154.352 150.902 150.161 150.857C145.954 150.812 142.739 147.092 142.979 142.548Z" fill="#43A6E8"/>
<path d="M144.542 142.878C144.722 139.278 147.562 136.399 150.882 136.429C154.202 136.459 156.726 139.398 156.546 142.998C156.365 146.597 153.526 149.476 150.206 149.446C146.885 149.416 144.346 146.477 144.542 142.878Z" fill="#030200"/>
<path d="M145.803 137.838C145.998 136.308 147.425 135.229 148.988 135.394C150.55 135.574 151.647 136.938 151.452 138.468C151.256 139.983 149.829 141.077 148.267 140.913C146.704 140.733 145.593 139.353 145.803 137.838Z" fill="white"/>
<path d="M152.023 146.657C152.113 146.027 152.699 145.562 153.345 145.637C153.991 145.712 154.457 146.282 154.367 146.912C154.276 147.541 153.69 148.006 153.044 147.931C152.398 147.871 151.933 147.302 152.023 146.657Z" fill="white"/>
<path opacity="0.31" d="M162.179 140.538C159.219 142.697 145.308 140.868 140.981 137.463C139.929 132.739 147.381 126.771 153.06 127.745C160.016 128.945 164.598 136.234 162.179 140.538Z" fill="#AAA7A7"/>
<path d="M155.328 118.041C151.888 116.782 148.477 116.587 145.187 117.472C142.243 118.251 139.448 119.871 136.894 122.271C133.409 125.54 130.539 130.114 128.827 135.153C127.174 139.982 126.798 144.691 127.805 148.036C128.992 152.01 132.162 155.219 136.954 157.274C140.62 158.848 145.067 159.643 149.289 159.643C153.18 159.643 156.875 158.968 159.58 157.604C164.402 155.189 168.023 145.441 167.497 136.323C167.181 131.059 165.198 121.656 155.328 118.041ZM159.234 156.959C154.427 159.373 144.887 159.898 137.24 156.599C134.04 155.219 129.938 152.58 128.511 147.826C126.438 140.897 130.584 129.199 137.405 122.811C140.124 120.246 144.151 117.667 149.274 117.667C151.076 117.667 153.014 117.981 155.073 118.746C164.552 122.211 166.445 131.284 166.746 136.383C167.242 145.081 163.741 154.694 159.234 156.959Z" fill="black"/>
<path d="M73.1934 93.5968C53.8883 82.694 39.3005 109.509 37.1521 119.227C35.1089 128.465 48.7502 143.672 66.6732 140.898C79.5484 138.888 88.9981 102.505 73.1934 93.5968Z" fill="#2D2726"/>
<path d="M71.2255 97.0457C54.2189 87.3276 42.3654 111.713 40.4574 120.156C38.6396 128.18 53.4077 140.897 65.6818 138.288C76.9945 135.888 84.1307 104.424 71.2255 97.0457Z" fill="black"/>
<path d="M65.4263 138.303C55.0601 140.462 42.8911 131.794 40.6676 124.371C40.292 123.096 40.2019 121.866 40.4573 120.726C42.2901 112.748 53.4826 90.1323 69.6178 97.6609C70.0535 97.8558 70.4892 98.0808 70.9249 98.3207C83.6798 105.459 76.6188 135.963 65.4263 138.303Z" fill="white"/>
<path d="M65.4267 138.303C55.0605 140.463 42.8914 131.794 40.668 124.371C42.8013 126.83 46.8576 130.505 53.4379 132.694C64.0145 136.219 68.0107 132.499 73.2689 117.907C77.2952 106.779 69.6182 97.6611 69.6182 97.6611C70.0539 97.8561 70.4896 98.081 70.9252 98.321C83.6802 105.46 76.6191 135.964 65.4267 138.303Z" fill="#E0D9D9"/>
<path d="M62.5735 109.194C67.8317 110.019 71.1519 115.613 70.0101 121.672C68.8683 127.731 63.6702 131.975 58.427 131.15C53.1688 130.325 49.8486 124.731 50.9904 118.672C52.1321 112.614 57.3303 108.369 62.5735 109.194Z" fill="#0F77B2"/>
<path d="M57.2242 131.555C55.4063 131.03 53.7988 129.965 52.5368 128.42C50.3734 125.781 49.5472 122.166 50.2382 118.492C51.4401 112.103 56.9988 107.634 62.6326 108.534C64.9312 108.894 66.9443 110.064 68.4617 111.923C70.6251 114.563 71.4514 118.177 70.7603 121.852C69.5584 128.24 63.9997 132.709 58.3659 131.81C57.9753 131.75 57.5997 131.66 57.2242 131.555ZM62.5124 109.869C57.6448 109.104 52.8223 113.123 51.7406 118.852C51.1246 122.106 51.8758 125.421 53.7387 127.7C54.9857 129.23 56.6232 130.19 58.4861 130.475C63.3537 131.24 68.1763 127.22 69.258 121.492C69.8739 118.237 69.1227 114.923 67.2598 112.643C66.0129 111.114 64.3753 110.154 62.5124 109.869Z" fill="#02324C"/>
<path d="M51.6054 119.782C52.4618 115.223 55.6167 121.717 60.3942 122.466C65.1566 123.216 69.7388 117.952 68.8824 122.511C68.0261 127.071 63.5491 131.165 58.7867 130.415C54.0092 129.65 50.7491 124.341 51.6054 119.782Z" fill="#7AC9F4"/>
<path d="M53.5886 119.512C54.4299 115.043 56.8187 119.362 60.6947 119.962C64.5708 120.577 68.4618 117.247 67.6205 121.716C66.7792 126.185 62.9482 129.32 59.0722 128.705C55.2111 128.105 52.7473 123.981 53.5886 119.512Z" fill="#43A6E8"/>
<path d="M55.4067 119.707C56.0677 116.183 59.1025 113.709 62.1522 114.188C65.217 114.668 67.155 117.923 66.479 121.462C65.8179 124.986 62.7832 127.461 59.7334 126.981C56.6837 126.486 54.7456 123.232 55.4067 119.707Z" fill="#030200"/>
<path d="M56.4582 115.223C56.8488 113.738 58.3211 112.853 59.7483 113.243C61.1605 113.633 62.0018 115.133 61.5962 116.618C61.2056 118.102 59.7333 118.987 58.306 118.597C56.8938 118.222 56.0675 116.708 56.4582 115.223Z" fill="white"/>
<path d="M60.9944 124.821C61.1597 124.206 61.7757 123.831 62.3616 123.996C62.9475 124.161 63.293 124.791 63.1278 125.406C62.9625 126.021 62.3466 126.396 61.7606 126.231C61.1747 126.066 60.8292 125.436 60.9944 124.821Z" fill="white"/>
<path opacity="0.31" d="M71.2412 120.142C68.2065 121.866 55.5868 118.177 52.0563 114.218C51.7408 109.404 59.4478 104.515 64.5708 106.24C70.8356 108.354 74.0657 116.198 71.2412 120.142Z" fill="#AAA7A7"/>
<path d="M71.1047 97.9908C66.4324 95.3813 61.7751 95.0514 57.2681 97.046C51.9798 99.3855 47.9986 104.425 45.5949 108.249C42.5301 113.108 40.7273 117.952 40.1113 120.621C39.4052 123.666 41.0277 127.475 44.5582 131.074C48.6897 135.288 55.3752 139.008 62.0756 139.008C63.2324 139.008 64.3892 138.903 65.531 138.663C68.3855 138.063 71.0897 135.738 73.3582 131.929C75.4465 128.435 76.9939 123.936 77.7 119.272C78.4061 114.713 78.2709 110.378 77.3094 106.764C76.1977 102.685 74.0493 99.6555 71.1047 97.9908ZM76.9338 119.167C75.6418 127.565 71.2399 136.713 65.3507 137.943C57.869 139.503 49.7714 135.363 45.069 130.579C41.7789 127.22 40.1864 123.576 40.8174 120.816C42.2296 114.728 48.5695 101.725 57.5536 97.7509C61.8352 95.8612 66.2672 96.1612 70.7291 98.6657C77.0841 102.205 78.1057 111.578 76.9338 119.167Z" fill="black"/>
<path d="M81.142 197.166C78.2274 194.797 78.1373 191.467 78.1373 191.438C78.1373 191.438 77.1157 194.707 80.6462 197.736C82.7645 199.551 85.8143 200.466 89.6302 200.391C94.1223 200.301 95.6847 199.011 95.6847 199.011C89.0894 200.271 84.1917 199.641 81.142 197.166Z" fill="#59514F"/>
<path d="M172.619 275.271C172.604 275.856 172.589 276.441 172.574 277.011C171.027 332.29 138.666 362.254 138.666 362.254L135.962 363.529L127.173 353.301L122.621 348.007C129.156 343.058 121.644 329.771 121.269 303.466C120.893 277.176 132.296 263.304 132.296 263.304L172.619 275.271Z" fill="#B5B0AC"/>
<path d="M170.351 277.011C168.878 332.29 136.863 362.18 136.863 362.18L135.526 363.529L127.158 353.301C127.218 353.286 127.263 353.271 127.323 353.241C134.61 351.052 144.886 337.434 153.464 320.968C162.028 304.501 170.005 275.557 170.005 275.557L170.351 277.011Z" fill="#898583"/>
<path d="M154.997 339.699C147.05 353.661 139.102 361.339 138.456 361.939L136.068 363.064L123.147 348.052C126.753 344.993 125.822 339.309 124.319 330.07C123.193 323.142 121.795 314.519 121.63 303.466C121.435 289.968 124.364 279.905 126.843 273.832C129.187 268.133 132.222 264.008 132.222 264.008L134.746 260.619C134.746 260.619 132.943 261.939 131.936 263.139C131.891 263.184 131.786 263.334 131.786 263.334C131.666 263.469 128.916 266.858 126.182 273.517C123.658 279.65 120.699 289.833 120.894 303.481C121.059 314.594 122.456 323.247 123.598 330.19C125.101 339.414 126.002 344.978 122.396 347.707L122.081 347.947L135.887 363.979L138.907 362.554L138.952 362.509C139.042 362.434 147.35 354.651 155.658 340.074C160.541 331.51 164.462 322.317 167.316 312.734C167.617 311.699 167.917 310.664 168.203 309.63C170.201 302.311 171.628 294.782 172.334 287.104C172.86 281.33 172.5 275.556 172.259 275.556C171.718 304.456 162.584 326.366 154.997 339.699Z" fill="#59514F"/>
<path d="M139.071 361.864C139.071 361.864 132.806 370.877 123.942 370.727C115.079 370.577 117.633 367.203 113.501 367.728C109.37 368.253 109.971 372.902 105.464 371.477C104.457 371.087 104.021 370.052 103.871 368.943C103.706 367.683 103.916 366.303 104.111 365.553C104.172 365.343 104.217 365.178 104.262 365.103C104.247 365.118 104.111 365.298 103.871 365.583C102.579 367.113 98.3425 371.732 94.9021 370.352C92.7687 369.497 92.5133 366.588 93.3847 364.369V364.354C93.565 363.919 93.7753 363.514 94.0307 363.154C94.0307 363.154 94.0307 363.154 94.0157 363.139C93.8655 362.974 92.7838 361.684 92.9791 359.075C93.0392 358.28 93.2044 357.365 93.565 356.33C93.8054 355.595 94.1359 354.815 94.5866 353.961C94.6617 353.811 94.7518 353.646 94.842 353.496C98.3274 347.362 106.891 343.598 114.418 345.157C122.125 346.762 124.634 345.277 124.634 345.277C124.634 345.277 126.602 346.462 128.915 348.502C130.117 349.551 131.409 350.841 132.581 352.296C133.723 353.721 134.744 355.325 135.435 357.05C136.923 359.809 139.071 361.864 139.071 361.864Z" fill="#4D4849"/>
<path d="M102.219 354.426C102.219 354.426 95.8192 359.39 93.9864 363.334C93.8061 363.724 93.6108 364.069 93.4155 364.354C93.5957 363.919 93.8061 363.514 94.0615 363.154C94.0615 363.154 94.0615 363.154 94.0465 363.139C93.8962 362.974 92.8145 361.684 93.0098 359.075L93.1601 358.805C93.1601 358.805 93.6408 359.825 94.9178 359.15C96.1948 358.475 98.7789 355.161 102.219 354.426Z" fill="#3A3536"/>
<path d="M116.597 358.235C116.597 358.235 111.263 357.86 109.34 359.165C107.417 360.469 104.022 364.804 103.887 365.568C102.595 367.098 98.3582 371.717 94.9179 370.338C92.3639 369.303 92.4991 365.343 94.0465 363.139C94.0465 363.139 94.0465 363.139 94.0315 363.124L95.2934 361.069C95.2934 361.069 93.731 367.653 101.754 363.529C106.546 361.069 106.831 356.63 116.597 358.235Z" fill="#3A3536"/>
<path d="M138.291 360.754C138.291 360.754 132.852 369.422 124.094 369.782C115.23 370.157 117.634 367.203 113.502 367.713C109.371 368.222 109.972 372.887 105.465 371.462C104.458 371.072 104.022 370.037 103.872 368.927C103.707 367.668 103.917 366.288 104.113 365.538C105.284 363.034 107.087 360.964 107.162 360.859C104.143 364.893 107.643 366.693 109.521 365.673C112.195 364.218 116.131 363.873 119.061 365.238C121.99 366.603 126.047 366.573 129.427 362.524C132.807 358.489 132.612 352.266 132.612 352.266C133.754 353.69 134.775 355.295 135.466 357.02C136.924 359.809 138.291 360.754 138.291 360.754Z" fill="#3A3536"/>
<path d="M111.669 357.905C107.312 358.37 104.067 364.669 103.932 364.939L104.608 365.284C104.638 365.224 107.793 359.075 111.744 358.655C115.845 358.22 122.756 359.615 122.816 359.63C122.816 359.63 120.878 358.37 115.995 357.92C114.493 357.77 112.961 357.77 111.669 357.905Z" fill="#211E1F"/>
<path d="M99.1984 356.33C95.728 359.39 93.805 362.824 93.7148 362.974L94.3759 363.334C94.3909 363.304 96.3139 359.87 99.6942 356.885C104.186 352.926 108.979 351.621 113.921 353.016C113.921 353.016 111.803 351.381 107.657 351.966C104.727 352.386 101.888 353.961 99.1984 356.33Z" fill="#211E1F"/>
<path d="M128.946 348.502C128.736 348.472 126.663 348.112 124.965 347.452C123.162 346.747 120.458 348.097 113.367 346.822C106.276 345.548 100.973 347.167 95.7144 352.686C95.4139 353.001 95.1284 353.271 94.873 353.481C98.3585 347.347 106.922 343.583 114.449 345.143C122.156 346.747 124.665 345.263 124.665 345.263C124.665 345.263 126.618 346.462 128.946 348.502Z" fill="#666264"/>
<path d="M135.811 356.9C133.032 349.971 125.19 345.157 124.844 344.962L124.649 344.842L124.454 344.947C124.423 344.962 121.915 346.327 114.508 344.782C110.722 344.003 106.531 344.497 102.715 346.207C98.9136 347.902 95.9089 350.586 94.2714 353.781C91.3869 359.375 92.9794 362.344 93.5953 363.169C92.6488 364.668 92.3033 366.768 92.784 368.373C93.1146 369.498 93.8057 370.307 94.7822 370.697C95.2629 370.892 95.7587 370.982 96.2695 370.982C99.1089 370.982 102.054 368.193 103.556 366.528C103.406 367.653 103.376 369.108 103.826 370.232C104.142 371.012 104.653 371.552 105.344 371.822L105.374 371.837C106.005 372.032 106.546 372.122 107.026 372.122C108.604 372.122 109.43 371.162 110.241 370.217C111.053 369.273 111.879 368.313 113.577 368.088C115.169 367.893 115.62 368.283 116.311 368.898C117.332 369.782 118.73 371.012 123.958 371.102C128.66 371.177 132.611 368.718 135.09 366.633C137.779 364.399 139.327 362.164 139.402 362.074L139.582 361.804L139.357 361.579C139.312 361.564 137.208 359.554 135.811 356.9ZM124.168 370.352C124.093 370.352 124.033 370.352 123.958 370.352C119 370.262 117.723 369.153 116.792 368.343C116.04 367.683 115.379 367.113 113.471 367.353C111.488 367.608 110.512 368.733 109.655 369.737C108.649 370.907 107.853 371.837 105.599 371.132C105.103 370.937 104.758 370.547 104.517 369.962C103.856 368.328 104.397 365.718 104.608 365.268L106.05 362.164L103.962 364.878C103.916 364.938 98.8235 371.537 95.0526 370.007C94.0911 369.618 93.6704 368.793 93.4902 368.163C93.0545 366.678 93.415 364.713 94.3615 363.364L94.5418 363.109L94.3315 362.884C94.3014 362.854 91.8225 360.169 94.9474 354.126C98.1925 347.842 106.906 343.973 114.373 345.517C120.998 346.897 123.868 346.027 124.649 345.697C125.821 346.447 132.686 351.036 135.135 357.185L135.15 357.215C136.352 359.479 137.99 361.264 138.606 361.879C137.494 363.334 131.785 370.352 124.168 370.352Z" fill="#211E1F"/>
<path d="M199.211 343.432C194.073 346.402 186.892 353.105 175.925 367.503C164.958 381.9 152.804 384.614 146.028 374.851C140.65 367.113 144.465 357.41 149.528 351.351C150.009 350.766 150.52 350.211 151.016 349.701C151.572 349.131 152.127 348.621 152.683 348.156C158.993 342.892 161.142 333.399 161.142 333.399C166.325 312.928 177.502 309.014 177.502 309.014C177.502 308.954 177.517 308.909 177.517 308.849C177.517 308.804 177.532 308.774 177.532 308.729C177.712 307.095 178.058 305.565 178.509 304.17C180.822 296.972 186.035 293.042 188.469 293.342C188.589 293.357 188.695 293.372 188.8 293.417C189.07 293.507 189.281 293.657 189.446 293.867C190.813 295.652 188.604 302.85 187.778 305.355L187.748 305.445L187.613 305.85C187.553 306.03 187.508 306.15 187.493 306.195C187.538 306.075 187.598 305.97 187.643 305.865C187.718 305.7 187.808 305.52 187.883 305.355C188.034 305.025 188.199 304.695 188.364 304.365C188.83 303.42 189.341 302.505 189.881 301.606C194.043 294.632 199.662 289.383 201.81 289.428C201.87 289.428 201.93 289.428 201.99 289.443C202.126 289.473 202.261 289.533 202.396 289.638C203.568 290.523 204.785 294.167 204.199 299.236C203.658 303.885 201.57 307.739 201.104 308.549C201.074 308.594 201.059 308.624 201.044 308.654C201.029 308.684 201.014 308.714 201.014 308.714C205.07 306.705 209.878 299.281 210.929 299.731C211.185 299.836 211.575 300.061 211.981 300.436C212.327 300.751 212.687 301.171 213.003 301.696C213.829 303.12 214.31 305.385 213.183 308.804C211.2 314.878 207.819 319.962 206.783 321.462C206.588 321.747 206.467 321.897 206.467 321.897C206.573 321.867 206.678 321.852 206.798 321.822C208.766 321.327 210.283 320.127 211.5 318.987C213.183 317.413 214.25 315.973 214.986 316.828C215.091 316.948 215.181 317.068 215.271 317.203C218.862 322.751 205.671 339.698 199.211 343.432Z" fill="#4D4849"/>
<path d="M215.272 317.187C215.212 318.897 213.71 326.485 208.046 327.775C203.614 328.78 202.953 324.206 202.953 324.206L201.285 324.761L200.083 329.335L197.409 334.434L198.115 334.374C197.785 334.689 197.484 335.019 197.214 335.349C194.044 339.308 191.61 340.973 191.61 340.973C195.486 334.254 202.307 328.72 199.197 316.752C197.154 308.909 188.665 307.199 188.665 307.199C201.961 315.658 195.366 336.983 183.963 342.742C172.56 348.501 169.21 365.373 158.799 363.963C148.387 362.553 153.39 349.701 153.39 349.701C147.651 355.535 142.438 363.663 147.381 372.721C152.294 381.72 163.156 380.895 174.123 366.498C185.09 352.1 193.398 345.247 198.536 342.277C204.996 338.573 218.863 322.751 215.272 317.187Z" fill="#3A3536"/>
<path d="M206.799 321.447C206.604 321.732 206.484 321.882 206.484 321.882C206.589 321.852 206.694 321.837 206.814 321.807C205.162 323.216 203.164 324.416 200.835 324.821C200.835 324.821 201.857 317.788 199.708 313.933L197.154 310.559L200.61 308.924C200.61 308.924 200.94 314.113 205.147 313.888C209.188 313.678 213.305 307.784 213.004 301.681C213.83 303.105 214.311 305.37 213.184 308.789C211.216 314.863 207.836 319.947 206.799 321.447Z" fill="#3A3536"/>
<path d="M187.779 305.354L187.749 305.444L187.614 305.849C187.614 305.849 180.162 307.184 177.683 308.759C177.623 308.789 177.578 308.819 177.533 308.849C177.533 308.804 177.548 308.774 177.548 308.729C177.729 307.094 178.074 305.564 178.525 304.17L178.705 304.11C178.705 304.11 183.257 304.905 185.871 302.46C188.245 300.225 189.567 295.036 188.5 293.342C188.621 293.357 188.726 293.372 188.831 293.417C189.101 293.507 189.312 293.657 189.477 293.867C190.814 295.651 188.606 302.85 187.779 305.354Z" fill="#3A3536"/>
<path d="M204.215 299.235C203.674 303.885 201.586 307.739 201.12 308.549C199.272 310.033 197.169 310.558 197.169 310.558C194.329 307.079 188.17 305.954 187.659 305.864C187.644 305.864 187.629 305.864 187.629 305.864L187.899 305.354L189.897 301.62C189.897 301.62 192.872 307.814 198.491 302.505C204.11 297.196 201.946 289.832 201.946 289.832L202.427 289.652C203.584 290.507 204.801 294.166 204.215 299.235Z" fill="#3A3536"/>
<path d="M201.105 324.401L201.286 325.121C205.447 324.071 206.739 322.166 206.784 322.091L206.153 321.687C206.153 321.687 204.982 323.411 201.105 324.401Z" fill="#232021"/>
<path d="M197.154 310.199L197.38 310.919C199.468 310.259 201.166 309.059 201.241 309.014L200.805 308.399C200.79 308.399 199.137 309.569 197.154 310.199Z" fill="#232021"/>
<path d="M184.655 306.809C184.655 306.809 171.629 311.158 167.092 325.12C162.555 339.083 159.536 345.726 149.936 351.14C149.8 351.215 149.665 351.29 149.545 351.35C150.026 350.765 150.536 350.21 151.032 349.701C151.588 349.131 152.144 348.621 152.7 348.156C159.01 342.892 161.158 333.399 161.158 333.399C166.341 312.928 177.519 309.014 177.519 309.014C177.534 308.924 177.534 308.834 177.549 308.729L182.356 306.794H184.655V306.809Z" fill="#666264"/>
<path d="M214.521 316.182C214.506 316.182 214.491 316.182 214.491 316.182C213.8 316.182 213.109 316.872 212.147 317.832C210.975 318.987 209.443 320.517 207.385 321.236C208.677 319.332 211.711 314.518 213.544 308.894C215.467 303 212.778 300.091 211.08 299.356C210.389 299.056 209.518 300.001 207.415 302.355C205.807 304.155 203.869 306.329 202.006 307.649C202.833 306.014 204.17 302.895 204.575 299.266C205.206 293.807 203.764 289.383 202.051 289.068C200.684 288.813 198.085 290.613 195.095 293.882C192.887 296.296 190.829 299.146 189.146 302.07C190.002 298.921 190.769 294.992 189.732 293.627C189.236 292.967 188.32 292.772 187.178 293.102C183.708 294.077 178.149 299.701 177.142 308.744C176.406 309.059 173.927 310.229 170.983 313.258C167.813 316.512 163.456 322.631 160.767 333.309C160.752 333.399 158.573 342.757 152.444 347.871C148.853 350.856 145.773 355.34 144.211 359.869C142.829 363.828 141.972 369.692 145.713 375.061C148.342 378.855 151.888 380.91 155.929 381C156.019 381 156.125 381 156.215 381C162.6 381 169.691 376.291 176.226 367.727C185.901 355.01 193.488 347.181 199.407 343.747C204.801 340.628 214.911 328.42 216.143 320.952C216.459 319.047 216.173 317.577 215.287 316.557C215.062 316.317 214.806 316.197 214.521 316.182ZM215.392 320.832C214.205 327.985 204.185 340.118 199.032 343.102C193.037 346.566 185.375 354.485 175.64 367.262C172.365 371.552 168.97 374.866 165.514 377.1C162.194 379.245 158.979 380.31 155.974 380.25C152.173 380.16 148.853 378.225 146.359 374.641C140.14 365.703 146.615 353.72 152.955 348.441C159.294 343.162 161.443 333.864 161.533 333.474C164.177 323.006 168.429 317.007 171.524 313.813C174.874 310.364 177.623 309.359 177.653 309.359L177.924 309.209L177.909 309.044C178.419 304.005 180.327 300.481 181.845 298.411C183.873 295.622 186.066 294.212 187.433 293.837C187.644 293.777 187.944 293.717 188.245 293.717C188.605 293.717 188.966 293.807 189.176 294.107C190.438 295.756 188.14 303.33 187.163 306.104L187.854 306.374C192.046 296.851 199.888 289.428 201.946 289.818C202.817 289.983 204.53 293.372 203.854 299.191C203.268 304.29 200.744 308.459 200.714 308.504L200.038 309.614L201.21 309.029C203.524 307.874 206.017 305.1 208.001 302.865C209.082 301.65 210.419 300.151 210.84 300.076C212.312 300.736 214.596 303.345 212.853 308.669C210.54 315.778 206.243 321.596 206.198 321.656L205.612 322.436L206.573 322.241C209.338 321.671 211.276 319.752 212.688 318.357C213.424 317.622 214.13 316.932 214.506 316.932C214.506 316.932 214.506 316.932 214.521 316.932C214.566 316.932 214.641 316.947 214.731 317.052C215.437 317.892 215.678 319.167 215.392 320.832Z" fill="#232021"/>
<path d="M193.908 307.484C189.686 305.264 185.389 305.714 182.535 306.479C179.455 307.304 177.382 308.639 177.307 308.699L177.712 309.329C177.787 309.269 185.885 304.095 193.562 308.144C197.558 310.258 200.232 314.428 200.863 319.602C201.795 327.07 198.415 334.854 191.609 340.972C191.609 340.972 192.811 341.302 197.483 335.379C198.64 333.909 199.376 332.184 200.052 330.504C201.509 326.875 202.05 323.081 201.6 319.512C200.939 314.083 198.129 309.704 193.908 307.484Z" fill="#211E1F"/>
<path d="M358.385 285.138C350.783 301.485 340.537 315.807 329.705 325.81C329.645 325.135 329.555 324.445 329.449 323.726C328.518 317.742 325.694 310.093 318.978 302.565C316.469 299.76 313.419 296.971 309.739 294.286C308.131 293.117 306.403 291.977 304.54 290.852C290.959 282.709 278.595 282.574 270.963 283.728C268.469 284.103 266.486 284.613 265.134 285.033C265.389 282.499 265.51 279.754 265.479 276.755C265.374 265.642 263.827 257.319 262.625 248.92C264.097 248.005 266.095 246.866 268.529 245.711C279.211 240.597 298.516 234.823 321.051 243.926C321.833 244.241 322.599 244.571 323.365 244.916C330.366 248.11 336.18 252.475 340.987 257.364C348.334 264.832 353.352 273.5 356.702 281.089C357.318 282.484 357.874 283.833 358.385 285.138Z" fill="#4D4849"/>
<path d="M329.39 326.605L329.315 325.84C329.255 325.166 329.165 324.476 329.06 323.786C328.263 318.627 325.814 310.813 318.678 302.82C316.064 299.881 312.969 297.121 309.499 294.602C307.876 293.432 306.134 292.277 304.331 291.182C291.005 283.189 278.851 282.919 271.009 284.104C268.455 284.494 266.457 285.018 265.225 285.393L264.684 285.558L264.744 285.003C264.999 282.409 265.12 279.65 265.09 276.77C264.999 267.502 263.903 260.198 262.851 253.135C262.641 251.77 262.43 250.36 262.235 248.981L262.205 248.741L262.415 248.606C264.278 247.466 266.276 246.371 268.365 245.366C275.381 242.007 282.772 239.892 290.299 239.113C300.74 238.018 311.137 239.517 321.187 243.567C321.953 243.882 322.735 244.212 323.516 244.571C330.021 247.541 336 251.755 341.259 257.094C347.583 263.513 352.887 271.536 357.048 280.924C357.634 282.229 358.19 283.594 358.731 284.988L358.791 285.138L358.731 285.288C351.264 301.35 341.048 315.837 329.961 326.08L329.39 326.605ZM277.98 282.829C285.386 282.829 294.731 284.539 304.722 290.537C306.554 291.632 308.312 292.802 309.95 293.987C313.465 296.536 316.59 299.341 319.249 302.31C326.506 310.438 328.999 318.417 329.811 323.666C329.886 324.116 329.946 324.566 329.991 325.016C340.748 314.893 350.663 300.765 357.965 285.108C357.439 283.789 356.898 282.484 356.342 281.224C352.226 271.911 346.968 263.978 340.703 257.604C335.505 252.325 329.615 248.156 323.185 245.231C322.419 244.886 321.638 244.556 320.887 244.242C297.991 235.003 278.34 241.392 268.665 246.026C266.682 246.971 264.774 248.006 263.001 249.086C263.182 250.39 263.392 251.71 263.572 252.985C264.624 260.078 265.721 267.412 265.811 276.725C265.841 279.425 265.736 282.034 265.51 284.479C266.772 284.119 268.605 283.654 270.859 283.324C272.977 283.054 275.366 282.829 277.98 282.829Z" fill="black"/>
<path d="M356.702 281.09C356.011 282.754 355.305 284.404 354.569 286.039C347.839 300.856 338.945 314.008 329.45 323.726C328.518 317.742 325.694 310.094 318.979 302.565C321.472 299.461 323.801 296.267 325.919 293.012C333.086 281.959 337.803 269.887 341.003 257.364C348.334 264.833 353.352 273.516 356.702 281.09Z" fill="#3A3536"/>
<path d="M323.366 244.917C321.969 260.963 318.033 278.915 309.725 294.302C308.118 293.132 306.39 291.992 304.527 290.868C290.946 282.724 278.581 282.589 270.949 283.744C272.647 271.596 270.108 259.374 268.516 245.726C279.197 240.612 298.502 234.839 321.038 243.942C321.849 244.242 322.615 244.572 323.366 244.917Z" fill="#666264"/>
<path d="M345.962 262.418C339.036 253.75 330.713 247.421 321.203 243.582C309.184 238.738 296.805 237.538 284.365 240.027C274.014 242.097 266.172 246.296 262.431 248.621L262.221 248.756L262.251 248.996C262.446 250.375 262.656 251.785 262.867 253.15C263.918 260.213 265.015 267.517 265.105 276.785C265.135 279.664 265.015 282.424 264.76 285.018L264.7 285.573L265.24 285.408C271.1 283.609 286.634 280.564 304.347 291.197C325.214 303.72 328.775 319.602 329.331 325.855L329.406 326.62L329.962 326.095C341.049 315.852 351.265 301.365 358.732 285.303L358.792 285.153L358.732 285.003C355.411 276.44 351.1 268.852 345.962 262.418ZM330.007 325.031C329.556 321.086 328.174 315.297 324.238 308.969C319.851 301.89 313.285 295.696 304.722 290.552C296.91 285.858 288.647 283.294 280.159 282.904C279.408 282.874 278.671 282.859 277.965 282.859C272.407 282.859 268.035 283.819 265.556 284.539C265.781 282.079 265.871 279.485 265.856 276.785C265.766 267.472 264.67 260.138 263.618 253.045C263.423 251.77 263.227 250.435 263.047 249.146C271.565 243.927 293.845 233.354 320.932 244.301C341.605 252.64 352.482 271.086 357.995 285.153C350.679 300.78 340.763 314.908 330.007 325.031Z" fill="#232021"/>
<path d="M370.929 224.146C369.562 222.046 367.969 219.871 366.167 217.652C361.599 212.073 355.65 206.314 348.289 201.29C341.964 196.971 334.602 193.222 326.219 190.612C324.927 190.207 323.605 189.832 322.253 189.487C302.542 184.403 284.033 188.783 273.126 192.667C270.813 193.492 268.829 194.301 267.252 194.976C267.973 192.457 268.769 189.832 269.656 187.088C274.493 172.061 281.72 158.863 290.058 147.571C292.071 147.001 294.474 146.416 297.164 145.921C307.034 144.091 320.961 143.356 335.534 148.53C341.092 150.51 346.741 153.345 352.3 157.304C356.416 160.243 360.488 163.797 364.424 168.087C365.821 169.601 367.188 171.206 368.54 172.901C368.6 185.678 369.367 201.53 370.929 224.146Z" fill="#4D4849"/>
<path d="M371.395 225.555L370.614 224.34C369.202 222.181 367.609 220.006 365.867 217.877C360.774 211.653 354.794 206.179 348.064 201.59C341.273 196.956 333.882 193.386 326.099 190.957C324.792 190.552 323.47 190.177 322.163 189.832C302.978 184.898 284.98 188.827 273.262 192.997C271.249 193.716 269.281 194.496 267.418 195.306L266.682 195.621L266.907 194.856C267.643 192.322 268.454 189.652 269.326 186.953C273.833 172.945 280.714 159.613 289.773 147.331L289.848 147.226L289.968 147.196C292.297 146.551 294.7 145.996 297.119 145.546C306.464 143.821 320.736 142.861 335.684 148.185C341.619 150.3 347.298 153.269 352.541 157.004C356.838 160.063 360.924 163.707 364.725 167.846C366.122 169.361 367.519 170.996 368.856 172.676L368.931 172.781V172.915C368.976 185.303 369.713 201.095 371.29 224.115L371.395 225.555ZM303.699 186.818C310.145 186.818 316.379 187.583 322.359 189.127C323.681 189.472 325.018 189.847 326.34 190.252C334.197 192.697 341.649 196.311 348.499 200.99C355.275 205.609 361.33 211.143 366.453 217.412C367.895 219.166 369.232 220.966 370.464 222.751C368.946 200.555 368.24 185.168 368.195 173.035C366.888 171.401 365.536 169.826 364.184 168.341C360.428 164.247 356.372 160.633 352.12 157.603C346.937 153.899 341.318 150.975 335.444 148.875C320.646 143.626 306.524 144.556 297.269 146.281C294.926 146.716 292.582 147.256 290.314 147.885C281.345 160.078 274.524 173.29 270.047 187.193C269.266 189.622 268.53 192.007 267.868 194.316C269.521 193.611 271.264 192.937 273.022 192.307C280.038 189.802 287.219 188.137 294.37 187.343C297.51 186.983 300.62 186.818 303.699 186.818Z" fill="black"/>
<path d="M366.151 217.652C361.584 212.074 355.635 206.315 348.273 201.291C348.904 191.153 349.46 181.3 350.422 172.061C350.963 166.767 351.609 161.848 352.315 157.319C356.431 160.259 360.503 163.813 364.439 168.102C364.394 170.292 364.379 172.571 364.394 174.956C364.439 186.024 364.995 199.431 366.151 217.652Z" fill="#3A3536"/>
<path d="M335.565 148.545C333.086 160.963 328.969 176.14 326.22 190.612C324.928 190.207 323.606 189.832 322.254 189.487C302.543 184.403 284.034 188.782 273.127 192.667C278.52 175.045 287.204 158.578 297.18 145.936C307.05 144.091 320.992 143.356 335.565 148.545Z" fill="#666264"/>
<path d="M368.931 172.916V172.781L368.856 172.676C356.822 157.559 341.949 148.336 324.672 145.276C310.58 142.787 298.021 144.946 289.968 147.196L289.848 147.226L289.773 147.331C280.714 159.613 273.833 172.946 269.326 186.953C268.454 189.653 267.643 192.322 266.907 194.856L266.682 195.621L267.418 195.306C275.906 191.602 298.216 183.669 322.163 189.832C350.287 197.076 365.416 216.377 370.614 224.326L371.395 225.54L371.29 224.101C369.713 201.095 368.976 185.303 368.931 172.916ZM352.796 204.11C343.662 197.016 333.431 191.977 322.359 189.113C316.379 187.568 310.145 186.803 303.715 186.803C298.937 186.803 294.069 187.223 289.097 188.078C280.068 189.623 272.676 192.262 267.853 194.302C268.53 192.007 269.251 189.608 270.032 187.178C274.509 173.276 281.315 160.063 290.299 147.871C304.631 143.882 340.627 138.483 368.18 173.021C368.225 185.153 368.931 200.54 370.449 222.736C367.023 217.727 361.345 210.753 352.796 204.11Z" fill="#232021"/>
<path d="M371.081 135.497C370.87 137.042 370.66 138.572 370.465 140.072C369.548 137.837 368.542 135.782 367.49 133.863C365.477 130.219 363.224 127.129 360.85 124.52C350.093 112.687 336.737 110.587 329.977 110.362C337.128 105.923 343.738 102.849 349.086 101.199C371.426 94.3006 382.484 96.9551 383.535 103.704C384.587 110.452 374.236 112.852 371.081 135.497Z" fill="#4D4849"/>
<path d="M370.675 141.527L370.134 140.207C369.247 138.047 368.241 135.978 367.174 134.043C365.266 130.594 363.058 127.474 360.579 124.775C349.987 113.107 336.857 110.978 329.976 110.738L328.744 110.693L329.796 110.048C336.662 105.774 343.302 102.594 348.996 100.84C363.989 96.2056 375.227 95.5158 380.65 98.8901C382.513 100.06 383.625 101.65 383.94 103.644C384.391 106.509 382.889 108.623 380.816 111.548C377.841 115.747 373.349 122.091 371.471 135.543C371.261 137.043 371.065 138.542 370.87 140.117L370.675 141.527ZM331.223 110.063C338.479 110.513 350.949 113.062 361.15 124.28C363.659 127.04 365.897 130.204 367.835 133.698C368.707 135.273 369.533 136.938 370.284 138.662C370.419 137.567 370.57 136.518 370.72 135.453C372.613 121.821 377.18 115.387 380.2 111.128C382.243 108.248 383.595 106.329 383.189 103.764C382.919 101.995 381.927 100.585 380.245 99.535C375.016 96.2806 364.004 97.0005 349.206 101.56C343.858 103.209 337.668 106.149 331.223 110.063Z" fill="black"/>
<path d="M367.504 133.864C365.491 130.219 363.237 127.13 360.863 124.521C363.748 117.907 367.218 114.458 369.697 112.178C377.404 105.114 369.111 99.8954 369.111 99.8954C373.558 99.1905 379.372 99.3255 380.244 104.814C381.235 111.068 371.124 115.177 367.504 133.864Z" fill="#3A3536"/>
<path d="M380.635 98.8901C375.226 95.5158 363.974 96.2056 348.98 100.84C343.286 102.594 336.646 105.789 329.78 110.048L328.729 110.693L329.96 110.738C338.494 111.023 359.497 114.472 370.118 140.207L370.659 141.527L370.839 140.117C371.035 138.542 371.23 137.043 371.44 135.543C373.318 122.091 377.81 115.747 380.785 111.548C382.858 108.623 384.36 106.509 383.91 103.644C383.609 101.65 382.513 100.06 380.635 98.8901ZM380.184 111.113C377.164 115.372 372.612 121.806 370.704 135.438C370.554 136.503 370.419 137.553 370.268 138.647C365.626 128.029 358.745 120.201 349.806 115.342C342.836 111.548 336.03 110.348 331.222 110.048C337.667 106.134 343.872 103.209 349.205 101.56C363.989 96.9855 375.016 96.2656 380.244 99.535C381.927 100.585 382.903 102.01 383.189 103.764C383.579 106.329 382.227 108.233 380.184 111.113Z" fill="#232021"/>
<path d="M105.419 165.672C92.6944 168.852 81.8775 163.393 81.8775 163.393C80.8109 166.017 66.4634 166.182 61.9113 155.519C61.7911 155.219 61.671 154.919 61.5508 154.604C56.3226 139.817 68.9573 134.298 68.9573 134.298C68.9573 134.298 76.7996 131.089 84.5968 128.585C86.9254 127.835 89.239 127.16 91.3423 126.65C92.0935 126.47 92.8747 126.335 93.671 126.275C101.648 125.63 111.774 130.789 117.603 138.842C118.339 139.847 119.001 140.897 119.586 141.992C125.295 152.7 118.144 162.493 105.419 165.672Z" fill="#F1F5FD"/>
<path d="M94.7221 138.302C93.7455 141.556 90.215 145.171 81.5014 144.571C72.7878 143.971 70.6094 139.157 70.6094 139.157C70.6094 139.157 78.1512 132.708 84.6113 128.584C86.9399 127.834 89.2535 127.159 91.3568 126.649C92.108 126.469 92.8892 126.334 93.6854 126.274C95.8338 130.339 95.6685 135.153 94.7221 138.302Z" fill="#BFB8B4"/>
<path d="M104.519 165.672C92.0642 168.852 81.4727 163.393 81.4727 163.393C80.421 166.017 66.3741 166.182 61.9121 155.519L61.9722 155.444C61.9722 155.444 71.7525 165.072 76.6051 156.884L75.944 154.019C75.944 154.019 80.5262 162.448 94.7684 160.978C108.124 159.598 119.302 152.775 116.447 138.857C117.168 139.862 117.814 140.912 118.385 142.007C123.989 152.7 116.973 162.493 104.519 165.672Z" fill="#E5E5E5"/>
<path d="M78.9181 160.213C76.95 157.649 76.1838 154.634 76.6345 151.245C76.6345 151.245 75.2974 154.2 76.5293 157.439C77.0401 158.774 77.7012 159.868 78.3472 160.693C79.9246 162.718 81.6223 163.678 81.6974 163.723L82.058 163.063C82.043 163.048 80.4054 162.118 78.9181 160.213Z" fill="#999999"/>
<path d="M106.937 129.139C101.483 126.215 95.7593 125.18 91.2523 126.29C82.1781 128.509 68.9574 133.893 68.8222 133.953H68.8072C68.672 134.013 65.5321 135.408 62.9931 138.677C60.6495 141.692 58.426 146.926 61.1903 154.724C63.8645 162.298 71.241 165.132 76.7396 165.267C79.3086 165.327 81.3067 164.787 82.0279 163.887C82.8541 164.277 85.2879 165.312 88.8034 166.092C91.0269 166.587 93.9264 167.037 97.2166 167.037C99.7856 167.037 102.595 166.767 105.51 166.032C112.886 164.187 118.445 160.138 120.773 154.919C122.606 150.81 122.306 146.281 119.917 141.812C117.153 136.638 112.541 132.139 106.937 129.139ZM120.082 154.619C117.859 159.628 112.48 163.512 105.329 165.297C92.9049 168.401 82.1631 163.107 82.0579 163.047L81.6973 162.868L81.5471 163.242C81.2767 163.902 79.5189 164.562 76.7696 164.502C71.5114 164.382 64.4654 161.668 61.9114 154.469C59.7931 148.485 60.349 143.326 63.579 139.157C65.9527 136.083 68.9875 134.688 69.1227 134.643C69.4382 134.508 82.4786 129.214 91.4476 127.01C95.7743 125.945 101.303 126.965 106.591 129.799C111.985 132.678 116.612 137.193 119.256 142.172C121.525 146.431 121.81 150.735 120.082 154.619Z" fill="#999999"/>
<path d="M92.8753 133.25C91.4931 140.808 87.1514 143.298 80.6762 142.653C73.2997 141.918 66.1636 139.023 66.2687 131.75C66.2687 131.645 66.2687 131.555 66.2687 131.45C66.5692 123.951 71.2114 114.503 81.7429 117.053C85.7241 118.028 88.7138 120.292 90.6218 123.112C92.695 126.171 93.4913 129.875 92.8753 133.25Z" fill="#282C33"/>
<path d="M91.8081 132.98C90.5311 139.938 86.5349 142.218 80.5856 141.633C73.81 140.958 67.2448 138.303 67.3349 131.6C67.3649 131.72 67.38 131.855 67.41 132.02C67.9509 136.849 79.7142 139.398 85.2429 135.019C90.7715 130.64 89.7499 123.651 89.7499 123.651C91.6429 126.471 92.379 129.89 91.8081 132.98Z" fill="#1B1F23"/>
<path d="M81.8183 116.692C77.9272 115.748 74.5619 116.318 71.8126 118.387C67.6962 121.492 66.0436 127.16 65.8784 131.435C65.5328 140.208 74.9676 142.457 80.6164 143.027C81.2774 143.087 81.8934 143.132 82.5094 143.132C88.5037 143.132 92.0342 139.908 93.2361 133.324C94.438 126.8 90.4868 118.792 81.8183 116.692ZM92.5 133.174C91.238 140.058 87.4821 142.952 80.7065 142.277C75.3131 141.738 66.3141 139.623 66.6446 131.465C66.8098 127.355 68.3723 121.926 72.2784 118.987C74.0361 117.667 76.0793 116.992 78.3629 116.992C79.4145 116.992 80.5112 117.127 81.653 117.412C89.8859 119.422 93.6267 126.995 92.5 133.174Z" fill="#0F1316"/>
<path d="M79.8489 117.787C76.7691 117.142 73.6893 118.357 71.3456 121.086C69.0019 123.816 68.6113 125.555 68.6113 127.925C68.6113 130.294 79.6085 133.624 82.0573 129.035C84.5212 124.46 83.4846 118.552 79.8489 117.787Z" fill="#434A51"/>
<path d="M84.1017 191.632C86.866 194.572 90.8022 193.612 94.8585 193.042C97.6679 192.637 98.4792 197.091 94.6782 198.111C90.8773 199.116 85.6191 198.696 82.359 196.701C79.0989 194.722 78.1524 190.987 79.1439 189.548C79.7148 188.693 81.2923 188.633 84.1017 191.632Z" fill="#D8D7D6"/>
<path d="M82.0273 184.314C82.0273 184.314 82.8536 181.404 85.663 180.369C85.678 180.369 82.1325 180.279 82.0273 184.314Z" fill="#FFB6C1"/>
<path d="M105.87 169.407C105.87 170.562 104.938 171.491 103.782 171.491C102.625 171.491 101.693 170.562 101.693 169.407C101.693 168.252 102.625 167.322 103.782 167.322C104.938 167.322 105.87 168.252 105.87 169.407Z" fill="#71010E"/>
<path d="M139.959 266.212C128.315 262.898 123.733 296.671 125.536 308.399C127.339 320.126 128.21 333.534 127.549 338.528C126.888 343.522 130.043 345.367 133.198 334.089C136.353 322.811 133.423 310.183 136.578 298.501C139.733 286.818 147.696 268.417 139.959 266.212Z" fill="#D8D7D6"/>
<path d="M155.793 351.846C155.793 351.846 154.591 360.754 164.401 359.554C164.416 359.554 152.788 364.218 155.793 351.846Z" fill="#666264"/>
<path d="M189.551 326.367C189.431 328.706 188.589 331.361 186.802 334.06C182.535 340.524 174.557 344.783 171.012 342.444C168.022 340.479 167.692 334.195 170.186 328.391C170.666 327.281 171.237 326.187 171.928 325.152C176.195 318.688 182.144 316.049 186.456 319.018C188.499 320.428 189.716 323.097 189.551 326.367Z" fill="#716D6D"/>
<path d="M188.559 326.366C188.454 328.481 187.688 330.88 186.08 333.325C182.219 339.174 175.008 343.028 171.793 340.913C169.089 339.144 168.788 333.445 171.042 328.196C170.981 330.595 171.898 333.025 175.609 333.655C181.378 334.63 186.32 329.291 188.559 326.366Z" fill="#555252"/>
<path d="M186.667 318.718C185.014 317.578 183.061 317.188 181.003 317.593C177.698 318.238 174.272 320.922 171.613 324.957C167.362 331.405 166.956 340.224 170.817 342.758C171.538 343.238 172.44 343.463 173.461 343.463C175.009 343.463 176.856 342.923 178.825 341.873C182.025 340.164 185.059 337.389 187.118 334.255C191.61 327.461 190.242 321.177 186.667 318.718ZM186.487 333.85C184.488 336.879 181.559 339.564 178.464 341.213C175.474 342.803 172.77 343.148 171.223 342.128C169.645 341.093 168.774 338.559 168.909 335.364C169.059 331.99 170.261 328.346 172.229 325.361C174.783 321.492 178.028 318.928 181.138 318.328C181.604 318.238 182.07 318.193 182.535 318.193C183.872 318.193 185.134 318.583 186.231 319.333C189.521 321.597 190.723 327.446 186.487 333.85Z" fill="#393737"/>
<path d="M185.945 320.607C184.999 318.298 179.936 318.013 175.925 322.062C172.124 325.916 176.495 326.126 178.569 324.462C183.541 320.517 186.817 322.707 185.945 320.607Z" fill="#949192"/>
<path d="M100.417 357.335C102.325 354.785 106.382 353.046 110.693 353.091C114.299 353.136 111.55 354.5 109.296 354.695C105.586 355.01 103.077 356.69 101.139 358.595C100.057 359.659 98.7649 359.539 100.417 357.335Z" fill="#666264"/>
<path d="M118.01 359.239C115.636 358.789 112.481 358.624 110.874 359.389C109.266 360.154 110.393 361.579 112.196 361.129C113.999 360.679 117.124 360.154 118.476 360.304C119.813 360.454 119.783 359.584 118.01 359.239Z" fill="#666264"/>
<path d="M81.4865 277.776C80.4348 289.893 86.5043 301.336 88.863 305.85C91.2067 310.364 96.1794 326.711 98.2827 328.061C100.386 329.411 98.8086 322.017 96.525 314.069C94.2564 306.165 92.8142 299.776 91.3719 296.717C90.6057 295.112 88.7128 283.924 86.4142 277.866C84.7616 273.592 81.787 274.176 81.4865 277.776Z" fill="#D8D7D6"/>
<path d="M95.9552 340.808C92.5598 340.493 88.9392 341.408 86.5955 342.652C84.2368 343.897 85.7993 344.152 88.2932 343.507C90.8021 342.862 94.8584 342.247 96.511 342.427C98.1636 342.607 98.6594 341.063 95.9552 340.808Z" fill="#666264"/>
<path d="M80.0749 338.123C77.1753 339.098 74.2608 341.573 72.8636 343.807C71.4664 346.042 74.1706 344.797 76.4692 343.072C78.7828 341.348 81.472 339.863 82.1331 339.158C82.7791 338.453 83.4401 336.984 80.0749 338.123Z" fill="#666264"/>
<path d="M70.5211 338.753C71.8131 336.744 66.7652 340.343 65.6084 342.217C64.4516 344.092 66.014 343.807 67.0056 342.937C68.0121 342.052 69.6196 340.163 70.5211 338.753Z" fill="#666264"/>
</g>
<defs>
<clipPath id="clip0_424_2073">
<rect width="384" height="381" fill="white"/>
</clipPath>
</defs>
</svg>
