<svg width="362" height="325" viewBox="0 0 362 325" fill="none" xmlns="http://www.w3.org/2000/svg">
<g clip-path="url(#clip0_497_331)">
<path d="M361.998 181.286C361.998 164.438 352.396 149.78 338.247 142.535C345.49 134.954 350.038 124.676 350.038 113.388C350.038 90.3061 331.172 71.4362 308.094 71.4362C304.725 71.4362 301.356 71.9417 298.324 72.6156C298.829 69.9199 299.166 67.0557 299.166 64.0231C299.166 39.7618 279.457 20.0495 255.201 20.0495C239.703 20.0495 226.227 28.1366 218.31 40.0987C211.067 25.4409 196.074 15.332 178.556 15.332C157.499 15.332 139.812 30.1584 135.432 49.8707C128.02 45.1532 119.261 42.289 109.659 42.289C83.3811 42.289 61.9879 63.5176 61.9879 89.8007C61.9879 96.3714 63.3355 102.605 65.6938 108.334C43.7953 112.546 27.2871 131.921 27.2871 155.003C27.2871 175.221 40.0893 192.574 57.9451 199.313C48.5119 208.243 42.6161 220.879 42.6161 234.694C42.6161 261.651 64.5147 283.554 91.6352 283.554C102.248 283.554 112.018 280.184 120.103 274.456C120.103 275.298 119.935 276.141 119.935 276.983C119.935 303.266 141.328 324.495 167.606 324.495C184.957 324.495 200.286 315.06 208.54 301.244C217.131 308.489 228.08 312.87 240.208 312.87C262.444 312.87 281.31 298.043 287.206 277.657C289.564 277.994 292.091 278.331 294.45 278.331C318.538 278.331 338.078 258.787 338.078 234.694C338.078 229.808 337.236 225.091 335.72 220.71C351.217 214.477 361.998 199.145 361.998 181.286Z" fill="url(#paint0_radial_497_331)"/>
<path d="M361.998 181.286C361.998 164.438 352.396 149.78 338.247 142.535C345.49 134.954 350.038 124.676 350.038 113.388C350.038 90.3061 331.172 71.4362 308.094 71.4362C304.725 71.4362 301.356 71.9417 298.324 72.6156C298.829 69.9199 299.166 67.0557 299.166 64.0231C299.166 39.7618 279.457 20.0495 255.201 20.0495C239.703 20.0495 226.227 28.1366 218.31 40.0987C211.067 25.4409 196.074 15.332 178.556 15.332C157.499 15.332 139.812 30.1584 135.432 49.8707C128.02 45.1532 119.261 42.289 109.659 42.289C83.3811 42.289 61.9879 63.5176 61.9879 89.8007C61.9879 96.3714 63.3355 102.605 65.6938 108.334C43.7953 112.546 27.2871 131.921 27.2871 155.003C27.2871 175.221 40.0893 192.574 57.9451 199.313C48.5119 208.243 42.6161 220.879 42.6161 234.694C42.6161 261.651 64.5147 283.554 91.6352 283.554C102.248 283.554 112.018 280.184 120.103 274.456C120.103 275.298 119.935 276.141 119.935 276.983C119.935 303.266 141.328 324.495 167.606 324.495C184.957 324.495 200.286 315.06 208.54 301.244C217.131 308.489 228.08 312.87 240.208 312.87C262.444 312.87 281.31 298.043 287.206 277.657C289.564 277.994 292.091 278.331 294.45 278.331C318.538 278.331 338.078 258.787 338.078 234.694C338.078 229.808 337.236 225.091 335.72 220.71C351.217 214.477 361.998 199.145 361.998 181.286Z" fill="url(#paint1_radial_497_331)"/>
<path d="M361.998 176.063C361.998 159.215 352.396 144.557 338.247 137.313C345.49 129.731 350.038 119.454 350.038 108.165C350.038 85.0835 331.172 66.2136 308.094 66.2136C304.725 66.2136 301.356 66.719 298.324 67.3929C298.829 64.6972 299.166 61.8331 299.166 58.8004C299.166 34.5391 279.457 14.8268 255.201 14.8268C239.703 14.8268 226.227 22.7455 218.31 34.8761C211.067 20.2182 196.074 10.1094 178.556 10.1094C157.499 10.1094 139.812 24.9357 135.432 44.648C128.02 39.9305 119.261 37.0663 109.659 37.0663C83.3811 37.0663 61.9879 58.295 61.9879 84.578C61.9879 91.1488 63.3355 97.3826 65.6938 103.111C43.7953 107.323 27.2871 126.698 27.2871 149.78C27.2871 169.998 40.0893 187.351 57.9451 194.259C48.5119 203.189 42.6161 215.656 42.6161 229.64C42.6161 256.597 64.5147 278.5 91.6352 278.5C102.248 278.5 112.018 275.13 120.103 269.402C120.103 270.244 119.935 271.087 119.935 271.929C119.935 298.212 141.328 319.441 167.606 319.441C184.957 319.441 200.286 310.006 208.54 296.19C217.131 303.435 228.08 307.815 240.208 307.815C262.444 307.815 281.31 292.989 287.206 272.603C289.564 272.94 292.091 273.277 294.45 273.277C318.538 273.277 338.078 253.733 338.078 229.64C338.078 224.754 337.236 220.037 335.72 215.656C351.217 209.422 361.998 194.091 361.998 176.063Z" fill="url(#paint2_radial_497_331)"/>
<path d="M278.953 165.112C278.953 203.02 242.904 233.684 198.433 233.684C153.962 233.684 117.914 203.02 117.914 165.112C117.914 127.204 153.962 96.54 198.433 96.54C242.904 96.54 278.953 127.372 278.953 165.112Z" fill="url(#paint3_radial_497_331)"/>
<path d="M275.077 168.481C275.077 204.536 240.713 233.684 198.432 233.684C156.151 233.684 121.787 204.536 121.787 168.481C121.787 132.427 156.151 103.279 198.432 103.279C240.713 103.279 275.077 132.427 275.077 168.481Z" fill="url(#paint4_radial_497_331)"/>
<path d="M205.509 48.8599C205.509 62.1699 193.043 73.1212 177.714 73.1212C162.385 73.1212 149.92 62.3384 149.92 48.8599C149.92 35.5499 162.385 24.5986 177.714 24.5986C193.043 24.7671 205.509 35.5499 205.509 48.8599Z" fill="url(#paint5_radial_497_331)"/>
<path d="M204.161 49.871C204.161 62.5071 192.369 72.9529 177.714 72.9529C163.059 72.9529 151.268 62.6755 151.268 49.871C151.268 37.2349 163.059 26.7891 177.714 26.7891C192.369 26.7891 204.161 37.0664 204.161 49.871Z" fill="url(#paint6_radial_497_331)"/>
<path d="M128.358 77.5015C128.358 90.8115 115.893 101.763 100.564 101.763C85.2349 101.763 72.7695 90.98 72.7695 77.5015C72.7695 64.1915 85.2349 53.2402 100.564 53.2402C115.893 53.2402 128.358 64.023 128.358 77.5015Z" fill="url(#paint7_radial_497_331)"/>
<path d="M127.011 78.3436C127.011 90.9797 115.219 101.426 100.564 101.426C85.9087 101.426 74.1172 90.9797 74.1172 78.3436C74.1172 65.7075 85.9087 55.2617 100.564 55.2617C115.219 55.2617 127.011 65.7075 127.011 78.3436Z" fill="url(#paint8_radial_497_331)"/>
<path d="M95.0047 150.286C95.0047 163.596 82.5393 174.547 67.2103 174.547C51.8814 174.547 39.416 163.764 39.416 150.286C39.416 136.976 51.8814 126.024 67.2103 126.024C82.7078 126.193 95.0047 136.976 95.0047 150.286Z" fill="url(#paint9_radial_497_331)"/>
<path d="M93.6571 151.297C93.6571 163.933 81.8656 174.379 67.2104 174.379C52.5552 174.379 40.7637 164.101 40.7637 151.297C40.7637 138.661 52.5552 128.215 67.2104 128.215C81.8656 128.215 93.6571 138.492 93.6571 151.297Z" fill="url(#paint10_radial_497_331)"/>
<path d="M112.186 234.695C112.186 248.005 99.721 258.956 84.392 258.956C69.063 258.956 56.5977 248.173 56.5977 234.695C56.5977 221.385 69.063 210.434 84.392 210.434C99.721 210.602 112.186 221.385 112.186 234.695Z" fill="url(#paint11_radial_497_331)"/>
<path d="M110.839 235.706C110.839 248.342 99.0472 258.788 84.392 258.788C69.7368 258.788 57.9453 248.51 57.9453 235.706C57.9453 223.07 69.7368 212.624 84.392 212.624C98.8788 212.624 110.839 222.901 110.839 235.706Z" fill="url(#paint12_radial_497_331)"/>
<path d="M190.684 280.353C190.684 293.663 178.219 304.614 162.89 304.614C147.561 304.614 135.096 293.832 135.096 280.353C135.096 267.043 147.561 256.092 162.89 256.092C178.219 256.092 190.684 266.875 190.684 280.353Z" fill="url(#paint13_radial_497_331)"/>
<path d="M189.337 281.195C189.337 293.831 177.545 304.277 162.89 304.277C148.235 304.277 136.443 294 136.443 281.195C136.443 268.559 148.235 258.113 162.89 258.113C177.545 258.113 189.337 268.559 189.337 281.195Z" fill="url(#paint14_radial_497_331)"/>
<path d="M275.077 267.548C275.077 280.858 262.612 291.81 247.283 291.81C231.954 291.81 219.488 281.027 219.488 267.548C219.488 254.238 231.954 243.287 247.283 243.287C262.612 243.287 275.077 254.07 275.077 267.548Z" fill="url(#paint15_radial_497_331)"/>
<path d="M273.729 268.39C273.729 281.027 261.938 291.472 247.283 291.472C232.627 291.472 220.836 281.195 220.836 268.39C220.836 255.754 232.627 245.309 247.283 245.309C261.769 245.309 273.729 255.754 273.729 268.39Z" fill="url(#paint16_radial_497_331)"/>
<path d="M324.096 230.988C324.096 244.298 311.631 255.249 296.302 255.249C280.973 255.249 268.508 244.466 268.508 230.988C268.508 217.678 280.973 206.727 296.302 206.727C311.631 206.895 324.096 217.678 324.096 230.988Z" fill="url(#paint17_radial_497_331)"/>
<path d="M322.749 231.999C322.749 244.635 310.957 255.081 296.302 255.081C281.647 255.081 269.855 244.803 269.855 231.999C269.855 219.363 281.647 208.917 296.302 208.917C310.957 208.917 322.749 219.194 322.749 231.999Z" fill="url(#paint18_radial_497_331)"/>
<path d="M350.038 174.21C350.038 187.52 337.573 198.471 322.244 198.471C306.915 198.471 294.449 187.688 294.449 174.21C294.449 160.9 306.915 149.948 322.244 149.948C337.573 150.117 350.038 160.9 350.038 174.21Z" fill="url(#paint19_radial_497_331)"/>
<path d="M348.69 175.221C348.69 187.857 336.899 198.302 322.244 198.302C307.588 198.302 295.797 188.025 295.797 175.221C295.797 162.584 307.588 152.139 322.244 152.139C336.899 152.139 348.69 162.416 348.69 175.221Z" fill="url(#paint20_radial_497_331)"/>
<path d="M335.384 100.752C335.384 114.062 322.918 125.014 307.589 125.014C292.26 125.014 279.795 114.231 279.795 100.752C279.795 87.4425 292.26 76.4912 307.589 76.4912C322.918 76.4912 335.384 87.274 335.384 100.752Z" fill="url(#paint21_radial_497_331)"/>
<path d="M334.036 101.595C334.036 114.231 322.245 124.677 307.589 124.677C292.934 124.677 281.143 114.399 281.143 101.595C281.143 88.9585 292.934 78.5127 307.589 78.5127C322.245 78.6812 334.036 88.9585 334.036 101.595Z" fill="url(#paint22_radial_497_331)"/>
<path d="M275.077 62.0015C275.077 75.3115 262.612 86.2628 247.283 86.2628C231.954 86.2628 219.488 75.48 219.488 62.0015C219.488 48.6915 231.954 37.7402 247.283 37.7402C262.612 37.7402 275.077 48.6915 275.077 62.0015Z" fill="url(#paint23_radial_497_331)"/>
<path d="M273.729 62.8436C273.729 75.4797 261.938 85.9255 247.283 85.9255C232.627 85.9255 220.836 75.6482 220.836 62.8436C220.836 50.2075 232.627 39.7617 247.283 39.7617C261.769 39.9302 273.729 50.2075 273.729 62.8436Z" fill="url(#paint24_radial_497_331)"/>
<path d="M210.561 194.764C205.507 187.857 195.232 185.835 202.643 174.884C205.507 170.503 206.349 166.46 201.801 162.416C198.432 159.383 193.21 155.34 188.325 156.351C182.598 157.53 187.988 161.574 178.218 158.372C175.691 157.53 173.165 156.519 170.301 156.856C164.068 157.362 159.52 159.383 157.162 165.28C155.646 168.818 157.33 171.514 159.015 174.378C158.846 176.737 158.509 179.096 154.804 178.927C151.603 178.927 147.56 178.422 144.528 179.77C140.654 181.454 137.453 186.509 137.622 190.721C137.958 196.449 140.148 200.83 145.876 202.515C150.087 203.862 156.657 197.966 158.846 206.558C159.52 208.917 160.362 212.118 162.384 213.803C164.911 215.993 170.638 219.531 173.502 215.656C174.849 213.803 175.86 212.623 176.197 210.265C176.871 203.862 185.462 208.243 189.504 209.591C195.4 211.781 217.972 205.042 210.561 194.764Z" fill="url(#paint25_linear_497_331)"/>
<path d="M143.685 186.846C143.517 186.846 143.517 186.846 143.685 186.846C143.348 187.014 143.348 187.014 143.18 187.183C142.843 187.52 142.338 188.025 142.506 188.699C142.506 188.867 142.675 188.867 142.675 188.867V189.036C142.506 189.541 143.011 189.71 143.348 189.541C143.854 189.204 144.191 188.867 144.528 188.531C144.696 188.362 144.864 188.194 144.864 188.025C145.37 187.014 144.528 186.172 143.685 186.846Z" fill="white"/>
<path d="M185.462 272.771C184.283 270.244 181.25 267.548 179.566 265.19C176.365 260.809 172.66 257.776 167.269 259.798C165.079 260.641 163.563 261.988 162.384 263.505C162.216 263.336 161.879 263.168 161.542 263.168C156.825 264.516 156.657 272.94 153.119 275.804C149.919 278.331 143.854 281.532 145.202 286.587C146.55 291.641 151.772 298.886 157.499 299.728C161.036 300.234 164.069 299.728 167.438 298.38C170.47 297.201 175.523 296.696 178.218 294.505C182.767 290.799 183.272 285.913 184.451 280.353C184.619 278.668 186.472 274.625 185.462 272.771Z" fill="url(#paint26_linear_497_331)"/>
<path d="M152.613 282.038C151.602 280.016 149.581 281.701 149.244 283.048C149.244 283.385 149.244 283.722 149.581 283.891C149.581 285.07 150.086 286.25 151.266 286.081C152.95 285.744 153.287 283.385 152.613 282.038Z" fill="white"/>
<path d="M249.304 147.084C254.358 138.997 246.609 128.214 240.039 124.508C235.323 121.812 231.112 123.16 227.911 126.193C226.732 126.867 225.553 127.709 224.374 128.888C222.184 131.079 220.331 136.807 220.836 139.84C221.341 143.546 223.194 151.97 221.005 153.824C219.32 155.34 217.467 157.53 216.119 159.215C209.045 168.65 208.371 179.264 218.478 187.014C226.395 193.08 235.66 185.329 237.344 177.411C237.85 174.884 238.018 167.134 243.408 168.818C246.777 169.829 249.473 171.009 253.01 171.346C257.221 171.683 260.422 168.987 262.78 165.954C271.203 155.34 245.767 152.644 249.304 147.084Z" fill="url(#paint27_linear_497_331)"/>
<path d="M223.025 164.438C220.33 158.878 212.918 168.987 215.108 173.03C215.782 174.041 216.624 174.547 217.466 174.715C219.319 176.063 222.183 174.041 223.025 172.02C224.204 169.829 224.204 166.628 223.025 164.438Z" fill="white"/>
<path d="M193.547 121.644C191.862 113.894 185.461 107.997 177.207 110.356C174.175 111.198 172.154 114.231 170.806 117.601C170.469 117.938 170.132 118.275 169.964 118.612C169.627 119.285 169.122 120.128 169.122 120.97C168.111 127.373 163.394 130.237 157.667 131.922C153.287 133.269 148.402 134.28 144.865 136.976C139.98 140.683 135.432 147.759 137.79 154.161C141.159 163.091 149.918 159.721 154.972 154.329C159.688 149.275 162.384 144.389 170.301 145.737C174.175 146.411 178.386 143.21 181.082 140.851C186.135 136.639 195.231 129.9 193.547 121.644Z" fill="url(#paint28_linear_497_331)"/>
<path d="M146.381 141.694C146.044 141.02 145.37 141.188 144.696 141.357C142.675 142.031 140.317 144.221 142.169 146.411C142.338 146.748 142.675 146.917 143.012 146.917C143.012 147.085 143.18 147.254 143.517 147.422C145.875 147.591 147.223 143.547 146.381 141.694Z" fill="white"/>
<path d="M312.81 219.699C307.588 213.803 304.387 212.96 297.986 215.15C295.122 213.971 292.427 213.129 288.721 214.14C285.352 214.982 283.836 218.183 283.163 220.879C282.826 222.732 283.668 224.417 284.51 226.102C286.195 229.64 280.973 234.357 280.973 238.232C280.973 243.455 284.005 247.499 289.395 249.352C294.112 251.037 299.165 250.194 303.208 247.499C308.43 243.961 308.43 236.211 312.136 231.662C315 228.292 316.01 223.406 312.81 219.699Z" fill="url(#paint29_linear_497_331)"/>
<path opacity="0.4" d="M294.112 220.711C293.775 219.868 293.101 219.363 292.09 219.194C288.89 218.689 286.195 224.08 289.395 225.765C292.09 227.113 296.133 223.238 294.112 220.711Z" fill="white"/>
<path opacity="0.4" d="M291.079 228.123C289.395 228.123 288.047 229.302 287.373 230.819C286.868 231.998 287.373 233.851 288.889 233.851C290.574 233.851 291.921 232.672 292.595 231.156C293.1 229.976 292.595 228.123 291.079 228.123Z" fill="white"/>
<path d="M121.113 72.2787C121.113 72.1102 120.944 71.9417 120.944 71.9417C116.902 62.1698 105.11 60.8219 96.1822 64.3601C92.4763 65.8764 85.9067 68.7406 83.5484 72.1102C78.6633 79.0179 79.674 88.1159 86.2436 93.1703C92.8132 98.3932 101.909 98.2247 109.49 95.529C118.081 92.3279 124.482 80.8712 121.113 72.2787Z" fill="#DCDCDC"/>
<path d="M120.777 70.5942C120.777 70.4257 120.608 70.2573 120.608 70.2573C116.566 60.3169 104.774 59.1375 95.8462 62.6756C92.1403 64.1919 85.5708 67.0561 83.2125 70.4257C78.3274 77.3335 79.3381 86.4314 85.9077 91.4859C92.4772 96.7088 101.574 96.5403 109.154 93.8446C117.745 90.6435 124.146 79.3552 120.777 70.5942Z" fill="url(#paint30_linear_497_331)"/>
<path opacity="0.4" d="M96.5208 67.5619C95.0047 68.0674 93.8256 68.5728 93.3202 68.9098C90.4566 70.7631 87.4245 72.7848 85.74 75.8175C84.5608 77.6708 84.0554 82.3882 87.0876 82.7252C90.2881 83.0622 91.9726 78.3447 93.3202 76.1545C96.1839 71.9424 105.786 72.7848 107.302 67.8989C108.481 64.3608 101.069 66.0456 96.5208 67.5619Z" fill="white"/>
<path opacity="0.4" d="M114.208 69.583C112.861 69.583 111.682 70.5939 111.176 71.7733C110.839 72.7841 111.176 74.3005 112.524 74.3005C113.871 74.3005 115.051 73.2896 115.556 72.1102C115.893 71.0993 115.556 69.583 114.208 69.583Z" fill="white"/>
<path d="M105.784 228.292C105.784 228.124 105.616 227.955 105.616 227.955C101.236 217.678 88.9392 216.499 79.6744 220.037C75.8001 221.553 68.8936 224.586 66.3668 228.124C61.3133 235.2 62.324 244.804 69.062 250.195C75.8001 255.586 85.4017 255.418 93.3189 252.554C102.584 249.184 109.153 237.39 105.784 228.292Z" fill="#DCDCDC"/>
<path d="M105.448 226.608C105.448 226.439 105.28 226.271 105.28 226.271C100.9 215.994 88.6033 214.814 79.3385 218.352C75.4641 219.869 68.5577 222.901 66.0309 226.439C60.9774 233.516 61.9881 243.119 68.7261 248.51C75.4641 253.902 85.0658 253.733 92.983 250.869C102.248 247.499 108.817 235.706 105.448 226.608Z" fill="url(#paint31_linear_497_331)"/>
<path opacity="0.4" d="M80.0127 223.407C78.3282 223.912 77.1491 224.418 76.6437 224.755C73.6116 226.608 70.5795 228.798 68.7266 231.831C67.5474 233.684 66.8736 238.739 70.0742 239.076C73.4432 239.412 75.1277 234.358 76.6437 232.336C79.6758 227.956 89.6144 228.798 91.2989 223.575C92.4781 220.037 84.7293 221.89 80.0127 223.407Z" fill="white"/>
<path opacity="0.4" d="M98.5428 225.597C97.0267 225.597 95.8476 226.608 95.3422 227.955C95.0053 228.966 95.3422 230.651 96.6898 230.651C98.2059 230.651 99.385 229.64 99.8904 228.292C100.227 227.113 99.8904 225.597 98.5428 225.597Z" fill="white"/>
<path d="M90.9611 143.209C90.9611 143.041 90.7927 143.041 90.7927 142.872C85.4022 133.606 73.4423 133.943 65.0197 138.66C61.4823 140.682 55.4181 144.389 53.3967 148.264C49.5223 155.677 51.7122 164.606 58.9555 168.987C66.1989 173.199 75.2952 171.851 82.5386 168.145C90.6242 163.596 95.5093 151.465 90.9611 143.209Z" fill="#DCDCDC"/>
<path d="M90.4553 141.693C90.4553 141.524 90.2868 141.524 90.2868 141.356C84.8964 132.089 72.9364 132.426 64.5139 137.144C60.9764 139.166 54.9122 142.872 52.8908 146.579C49.0164 153.992 51.2063 162.921 58.4497 167.302C65.693 171.514 74.7894 170.166 82.0327 166.459C90.1184 162.079 94.835 149.948 90.4553 141.693Z" fill="url(#paint32_linear_497_331)"/>
<path opacity="0.4" d="M65.6921 141.861C64.1761 142.535 63.1654 143.209 62.66 143.546C59.9648 145.736 57.438 148.263 56.0904 151.465C55.2482 153.486 55.2482 158.372 58.2803 158.204C61.4808 158.035 62.4916 153.149 63.6707 150.959C66.029 146.41 75.6307 145.905 76.4729 140.682C77.1467 136.975 70.0718 139.839 65.6921 141.861Z" fill="white"/>
<path opacity="0.4" d="M83.7167 141.525C82.3691 141.693 81.1899 142.872 81.0215 144.22C80.853 145.231 81.3584 146.748 82.706 146.579C84.0536 146.411 85.2328 145.231 85.4012 143.883C85.5697 142.872 85.0643 141.356 83.7167 141.525Z" fill="white"/>
<path d="M270.698 267.211C270.698 267.043 270.53 267.043 270.53 266.874C266.487 257.271 255.201 256.26 246.61 259.461C242.904 260.809 236.671 263.673 234.313 267.043C229.596 273.614 230.607 282.375 236.84 287.429C243.072 292.484 252 292.315 259.412 289.619C267.834 286.587 273.899 275.635 270.698 267.211Z" fill="#DCDCDC"/>
<path d="M270.36 265.695C270.36 265.526 270.192 265.358 270.192 265.358C266.149 255.754 254.863 254.744 246.272 257.945C242.566 259.292 236.333 262.157 233.975 265.526C229.258 272.097 230.269 280.858 236.502 285.912C242.734 290.967 251.662 290.798 259.074 288.103C267.328 285.07 273.561 274.119 270.36 265.695Z" fill="url(#paint33_radial_497_331)"/>
<path opacity="0.4" d="M246.776 262.662C245.26 263.168 244.081 263.673 243.744 263.842C241.049 265.527 238.185 267.717 236.332 270.413C235.322 272.097 234.648 276.815 237.512 277.152C240.544 277.489 242.228 272.94 243.576 270.918C246.44 266.875 255.704 267.717 257.22 262.831C258.399 259.461 251.156 261.315 246.776 262.662Z" fill="white"/>
<path opacity="0.4" d="M263.958 264.684C262.611 264.684 261.432 265.694 260.926 266.874C260.589 267.885 260.926 269.401 262.274 269.401C263.621 269.401 264.801 268.39 265.306 267.211C265.643 266.2 265.306 264.684 263.958 264.684Z" fill="white"/>
<path d="M200.791 43.6372C200.791 43.4687 200.623 43.3002 200.623 43.3002C196.411 33.0229 184.115 31.8435 174.85 35.3816C170.975 36.8979 164.237 39.9306 161.711 43.4687C156.657 50.5449 157.668 59.9798 164.406 65.3712C171.144 70.7626 180.745 70.5941 188.663 67.73C197.591 64.5288 204.16 52.7351 200.791 43.6372Z" fill="#DCDCDC"/>
<path d="M200.455 41.9526C200.455 41.7841 200.287 41.6156 200.287 41.6156C196.075 31.3383 183.779 30.1589 174.514 33.697C170.639 35.2133 163.901 38.246 161.375 41.7841C156.321 48.8603 157.332 58.2953 164.07 63.6866C170.808 69.078 180.41 68.9096 188.327 66.0454C197.255 62.8442 203.824 51.0506 200.455 41.9526Z" fill="url(#paint34_linear_497_331)"/>
<path opacity="0.4" d="M175.188 38.7512C173.672 39.2567 172.324 39.7621 171.987 40.0991C168.955 41.9524 165.923 44.1426 164.07 47.1753C162.891 49.0286 162.217 54.083 165.418 54.42C168.787 54.7569 170.471 49.871 171.987 47.6807C175.02 43.3002 184.958 44.1426 186.643 39.0882C187.653 35.3816 179.905 37.2349 175.188 38.7512Z" fill="white"/>
<path opacity="0.4" d="M193.549 40.9414C192.201 40.9414 190.853 41.9523 190.348 43.3001C190.011 44.311 190.348 45.9958 191.696 45.9958C193.043 45.9958 194.391 44.985 194.896 43.6371C195.402 42.4577 194.896 40.9414 193.549 40.9414Z" fill="white"/>
<path d="M268.172 56.9471C268.172 56.7787 268.003 56.6102 268.003 56.4417C263.624 45.8274 250.821 44.4795 241.22 48.1861C237.177 49.7025 230.102 52.9036 227.575 56.6102C222.353 64.0233 223.364 73.7953 230.439 79.3551C237.514 84.915 247.452 84.7465 255.538 81.8823C264.971 78.5127 271.709 66.2136 268.172 56.9471Z" fill="#DCDCDC"/>
<path d="M267.834 55.2626C267.834 55.0941 267.665 54.9256 267.665 54.7571C263.286 44.1428 250.483 42.795 240.882 46.5016C236.839 48.0179 229.764 51.219 227.237 54.9256C222.015 62.3388 223.026 72.1107 230.101 77.6706C237.176 83.2304 247.114 83.062 255.2 80.1978C264.465 76.8282 271.371 64.529 267.834 55.2626Z" fill="url(#paint35_linear_497_331)"/>
<path opacity="0.4" d="M241.555 51.8927C239.87 52.3981 238.523 53.072 238.186 53.2405C235.154 55.0938 231.953 57.4525 229.932 60.6537C228.752 62.6754 228.079 67.7299 231.279 68.0668C234.648 68.4038 236.501 63.1809 238.017 60.9906C241.218 56.4416 251.493 57.2841 253.178 52.0611C254.525 48.3546 246.44 50.2078 241.555 51.8927Z" fill="white"/>
<path opacity="0.4" d="M260.59 54.083C259.074 54.083 257.726 55.0939 257.221 56.6102C256.884 57.7896 257.221 59.3059 258.569 59.3059C260.085 59.3059 261.432 58.295 261.938 56.9472C262.443 55.7678 262.106 54.083 260.59 54.083Z" fill="white"/>
<path d="M342.458 174.547C342.458 174.379 342.289 174.21 342.289 174.21C338.078 164.27 326.286 163.091 317.358 166.46C313.484 167.977 307.083 170.841 304.556 174.379C299.671 181.287 300.682 190.385 307.251 195.607C313.821 200.83 323.086 200.662 330.666 197.966C339.425 194.765 345.827 183.308 342.458 174.547Z" fill="#DCDCDC"/>
<path d="M342.122 171.346C342.122 171.178 341.953 171.009 341.953 171.009C337.742 161.069 325.95 159.889 317.022 163.259C313.148 164.775 306.747 167.64 304.22 171.178C299.335 178.085 300.346 187.183 306.915 192.406C313.485 197.629 322.75 197.461 330.33 194.765C339.09 191.564 345.491 180.107 342.122 171.346Z" fill="url(#paint36_linear_497_331)"/>
<path opacity="0.4" d="M317.527 168.145C316.011 168.651 314.832 169.156 314.327 169.493C311.463 171.347 308.431 173.537 306.578 176.401C305.399 178.254 304.725 183.14 307.926 183.309C311.126 183.646 312.811 178.76 314.327 176.738C317.191 172.526 326.961 173.368 328.477 168.314C329.656 164.944 322.244 166.629 317.527 168.145Z" fill="white"/>
<path opacity="0.4" d="M335.552 170.335C334.204 170.335 332.857 171.346 332.52 172.694C332.183 173.705 332.52 175.221 333.868 175.221C335.215 175.221 336.563 174.21 336.9 172.862C337.237 171.851 336.9 170.335 335.552 170.335Z" fill="white"/>
<path d="M327.803 94.856C327.803 94.6875 327.635 94.519 327.635 94.3505C323.086 83.5677 310.284 82.2199 300.514 86.0949C296.471 87.6113 289.396 90.9809 286.701 94.6875C281.311 102.101 282.49 112.041 289.565 117.769C296.64 123.498 306.747 123.329 315.001 120.297C324.434 116.758 331.341 104.291 327.803 94.856Z" fill="#DCDCDC"/>
<path d="M327.297 93.1707C327.297 93.0023 327.129 92.8338 327.129 92.6653C322.581 81.8825 309.778 80.7031 300.008 84.4097C295.965 85.9261 288.891 89.2957 286.195 93.0023C280.805 100.415 281.984 110.356 289.059 116.084C296.134 121.813 306.241 121.644 314.495 118.611C324.097 115.073 331.003 102.606 327.297 93.1707Z" fill="url(#paint37_linear_497_331)"/>
<path opacity="0.4" d="M300.85 89.8009C299.165 90.3063 297.818 90.9802 297.481 91.1487C294.28 93.002 291.08 95.3607 289.227 98.5619C288.047 100.584 287.374 105.807 290.574 106.144C294.112 106.48 295.965 101.258 297.481 99.0673C300.681 94.5183 311.125 95.3607 312.81 89.9693C313.82 86.2628 305.735 88.116 300.85 89.8009Z" fill="white"/>
<path opacity="0.4" d="M320.223 91.9912C318.707 91.9912 317.359 93.0021 316.854 94.5184C316.517 95.6978 316.854 97.2141 318.202 97.2141C319.718 97.2141 321.065 96.2032 321.571 94.6869C321.907 93.676 321.571 91.9912 320.223 91.9912Z" fill="white"/>
<path d="M75.2962 161.237L268.509 28.4736C268.846 28.3052 294.113 10.1092 289.228 1.34819C285.859 -4.71713 257.223 12.2995 256.886 12.4679L69.4004 153.15L75.2962 161.237Z" fill="url(#paint38_linear_497_331)"/>
<path d="M72.2649 162.922L97.0271 147.758C97.0271 147.758 94.6688 142.535 89.6153 136.976L66.3691 154.161L72.2649 162.922Z" fill="url(#paint39_linear_497_331)"/>
<path d="M25.603 157.699C24.2554 158.878 22.7394 160.058 21.3917 161.237C17.5174 164.607 14.6537 168.482 12.127 173.031C8.92641 178.759 7.74726 186.341 3.1991 191.395C2.69375 191.901 3.536 192.238 4.04135 192.069C5.22051 191.901 6.23121 191.395 7.24191 190.89C6.23121 192.575 4.8836 194.259 3.36755 195.102C2.5253 195.607 2.1884 195.944 1.8515 196.618C1.5146 197.124 2.35685 197.629 2.69375 197.629C6.56811 198.135 10.4425 197.292 14.1484 195.944C13.1377 196.787 11.9585 197.629 10.7794 198.303C10.1056 198.808 10.9478 199.314 11.4532 199.314C13.8115 199.314 15.6644 198.134 17.5174 196.618C17.3489 197.124 17.1805 197.798 17.1805 198.303C17.1805 198.64 17.6858 198.808 17.8543 198.471C22.7394 192.238 29.3089 187.52 37.3945 187.352C42.2796 187.183 46.9962 187.857 51.8813 186.846C52.2182 186.678 52.7235 186.678 53.2289 186.509C62.1568 185.33 71.2531 180.781 72.9376 171.683C74.4536 164.27 71.2531 156.52 66.0311 151.297C64.6835 149.949 62.999 148.938 61.3145 148.264C61.3145 148.264 61.146 148.264 61.146 148.096C55.0818 145.568 49.523 145.737 43.2903 147.253C37.3945 149.107 30.9934 152.982 25.603 157.699Z" fill="url(#paint40_linear_497_331)"/>
<path d="M44.6388 176.906C49.6923 177.243 61.147 174.884 67.3796 169.998C60.8101 179.602 49.3554 181.792 37.7324 183.308C33.0157 183.982 27.12 184.656 23.4141 188.026C23.4141 188.026 23.4141 188.194 23.5825 188.194C32.3419 182.466 45.1442 186.172 54.5774 182.129C62.1577 178.928 67.7165 174.884 70.2433 167.134C71.5909 165.281 72.0962 163.09 71.254 160.563C71.0855 160.226 70.4117 160.058 70.2433 160.563C68.8957 170.167 53.3982 176.4 44.6388 176.906C44.4704 176.906 44.4704 176.737 44.6388 176.906Z" fill="url(#paint41_linear_497_331)"/>
<path d="M23.2441 169.661C30.8244 162.585 38.91 157.025 48.1748 153.992C42.279 156.856 36.8886 161.237 34.1934 165.28C42.279 157.193 56.5973 150.959 67.8835 155.003C68.2204 155.171 68.7258 154.834 68.3889 154.497C66.199 152.644 63.6722 151.633 60.977 151.296C60.977 151.128 60.8086 151.128 60.6401 151.128C44.6373 150.285 33.1827 157.53 23.2441 169.661Z" fill="url(#paint42_linear_497_331)"/>
<path d="M11.2852 171.346C8.92692 175.895 6.40016 189.205 1.1782 190.89C1.00975 190.89 0.672844 191.058 0.672844 191.395C0.672844 192.743 1.00975 193.585 2.02045 193.922C1.5151 194.259 1.1782 194.596 0.841295 195.102C-0.169408 196.618 -0.000957638 198.808 2.1889 199.314C4.2103 199.819 6.23171 199.651 8.25311 199.314C14.4858 203.863 23.4137 196.113 28.2987 193.08C36.0474 188.194 43.4593 189.879 51.8818 188.026C54.9139 187.352 59.6305 186.678 60.8097 183.308C60.9781 183.14 60.8097 182.971 60.6412 182.803C59.1252 181.455 57.1037 181.623 55.0823 181.623C54.577 181.623 51.8818 181.792 49.5235 181.455C45.6491 179.602 46.4914 174.716 44.1331 171.683C42.9539 170.167 40.764 169.661 39.248 169.156C37.5635 168.65 35.5421 169.156 33.8576 169.493C28.8041 170.335 28.9725 167.134 29.6463 164.101C30.9939 162.416 32.3415 160.563 32.51 158.878C33.3522 152.139 26.2773 155.677 23.2452 157.867C17.5179 161.574 13.9804 165.786 11.2852 171.346Z" fill="#4E8DCB"/>
<path d="M53.2285 176.232C53.5654 178.254 56.2606 178.422 57.7766 178.422C58.6189 178.422 59.4611 178.254 60.3034 178.085C61.9879 177.748 63.504 176.906 64.8516 175.895C65.6938 175.221 67.2099 173.873 67.0414 172.525C67.2099 171.851 67.3783 171.177 67.0414 170.504C66.3676 168.819 63.6724 168.819 62.1564 168.987C61.3141 169.156 60.4718 169.324 59.6296 169.493C56.2606 170.167 52.5547 172.525 53.2285 176.232Z" fill="#4E8DCB"/>
<path d="M39.2478 166.123C40.4269 167.808 43.459 167.302 44.3013 165.617C44.4698 165.281 44.4698 165.112 44.3013 164.944C44.4698 164.438 44.3013 163.764 43.2906 163.596C41.943 163.259 37.9002 163.933 39.2478 166.123Z" fill="#4E8DCB"/>
<path d="M8.92712 198.64C8.75867 198.64 8.75867 198.808 8.92712 198.808C13.9806 199.314 18.1919 196.45 22.4032 194.091C26.9513 191.395 30.1519 188.531 35.7107 187.857C38.9113 187.52 41.1012 187.52 44.1333 186.341C44.4702 186.172 44.3017 185.835 43.9648 185.835C38.069 186.004 33.184 183.982 27.4567 187.015C21.3925 190.216 15.8336 197.629 8.92712 198.64Z" fill="url(#paint43_linear_497_331)"/>
<path d="M55.7564 175.221C55.4195 175.895 55.588 176.737 56.4302 176.906C57.6094 177.243 58.4516 176.906 59.4623 176.232C59.6308 176.063 59.7992 175.895 59.7992 175.726C60.3046 175.221 60.473 174.547 59.7992 174.21C58.957 173.704 56.2618 174.041 55.7564 175.221Z" fill="url(#paint44_linear_497_331)"/>
<path d="M48.175 185.33C48.6804 186.004 50.5333 185.667 49.8595 184.824C49.3542 184.319 47.5012 184.487 48.175 185.33Z" fill="url(#paint45_linear_497_331)"/>
<path d="M41.4387 166.122C41.944 166.965 43.4601 165.786 42.2809 165.449C41.944 165.28 41.7756 165.28 41.4387 165.617C41.1017 165.786 41.2702 166.122 41.4387 166.122Z" fill="url(#paint46_linear_497_331)"/>
</g>
<defs>
<radialGradient id="paint0_radial_497_331" cx="0" cy="0" r="1" gradientUnits="userSpaceOnUse" gradientTransform="translate(194.677 170.262) scale(161.21 161.031)">
<stop stop-color="#E2E2DA"/>
<stop offset="0.1103" stop-color="#E8E8E2"/>
<stop offset="0.5367" stop-color="white"/>
<stop offset="0.5884" stop-color="#FAFAF9"/>
<stop offset="1" stop-color="#D7D7CB"/>
</radialGradient>
<radialGradient id="paint1_radial_497_331" cx="0" cy="0" r="1" gradientUnits="userSpaceOnUse" gradientTransform="translate(194.677 170.262) scale(161.21 161.031)">
<stop stop-color="#E2E2DA"/>
<stop offset="0.1103" stop-color="#E8E8E2"/>
<stop offset="0.5367" stop-color="white"/>
<stop offset="0.5884" stop-color="#FAFAF9"/>
<stop offset="1" stop-color="#D7D7CB"/>
</radialGradient>
<radialGradient id="paint2_radial_497_331" cx="0" cy="0" r="1" gradientUnits="userSpaceOnUse" gradientTransform="translate(195.84 -20.0338) scale(347.368 346.982)">
<stop stop-color="#E2E2DA"/>
<stop offset="0.1103" stop-color="#E8E8E2"/>
<stop offset="0.5367" stop-color="white"/>
<stop offset="0.5884" stop-color="#FAFAF9"/>
<stop offset="1" stop-color="#D7D7CB"/>
</radialGradient>
<radialGradient id="paint3_radial_497_331" cx="0" cy="0" r="1" gradientUnits="userSpaceOnUse" gradientTransform="translate(198.414 165.127) scale(74.8324 74.7492)">
<stop stop-color="#D2D2D2"/>
<stop offset="0.5367" stop-color="white"/>
<stop offset="0.73" stop-color="#EDEDE8"/>
<stop offset="1" stop-color="#D7D7CB"/>
</radialGradient>
<radialGradient id="paint4_radial_497_331" cx="0" cy="0" r="1" gradientUnits="userSpaceOnUse" gradientTransform="translate(167.425 6.57658) scale(245.412 245.139)">
<stop stop-color="#D2D2D2"/>
<stop offset="0.5367" stop-color="white"/>
<stop offset="0.73" stop-color="#EDEDE8"/>
<stop offset="1" stop-color="#D7D7CB"/>
</radialGradient>
<radialGradient id="paint5_radial_497_331" cx="0" cy="0" r="1" gradientUnits="userSpaceOnUse" gradientTransform="translate(169.428 -9.1059) scale(76.0963 76.0117)">
<stop stop-color="#D2D2D2"/>
<stop offset="0.5367" stop-color="white"/>
<stop offset="0.73" stop-color="#EDEDE8"/>
<stop offset="1" stop-color="#D7D7CB"/>
</radialGradient>
<radialGradient id="paint6_radial_497_331" cx="0" cy="0" r="1" gradientUnits="userSpaceOnUse" gradientTransform="translate(170.72 5.30163) scale(72.3714 72.291)">
<stop offset="0.5367" stop-color="white"/>
<stop offset="0.73" stop-color="#EDEDE8"/>
<stop offset="1" stop-color="#D7D7CB"/>
</radialGradient>
<radialGradient id="paint7_radial_497_331" cx="0" cy="0" r="1" gradientUnits="userSpaceOnUse" gradientTransform="translate(92.2395 19.414) scale(76.081 75.9965)">
<stop stop-color="#D2D2D2"/>
<stop offset="0.5367" stop-color="white"/>
<stop offset="0.73" stop-color="#EDEDE8"/>
<stop offset="1" stop-color="#D7D7CB"/>
</radialGradient>
<radialGradient id="paint8_radial_497_331" cx="0" cy="0" r="1" gradientUnits="userSpaceOnUse" gradientTransform="translate(96.1994 32.9131) scale(72.3774 72.2969)">
<stop offset="0.5367" stop-color="white"/>
<stop offset="0.73" stop-color="#EDEDE8"/>
<stop offset="1" stop-color="#D7D7CB"/>
</radialGradient>
<radialGradient id="paint9_radial_497_331" cx="0" cy="0" r="1" gradientUnits="userSpaceOnUse" gradientTransform="translate(58.9733 92.3156) scale(76.0797 75.9951)">
<stop stop-color="#D2D2D2"/>
<stop offset="0.5367" stop-color="white"/>
<stop offset="0.73" stop-color="#EDEDE8"/>
<stop offset="1" stop-color="#D7D7CB"/>
</radialGradient>
<radialGradient id="paint10_radial_497_331" cx="0" cy="0" r="1" gradientUnits="userSpaceOnUse" gradientTransform="translate(61.1576 105.83) scale(72.365 72.2846)">
<stop offset="0.5367" stop-color="white"/>
<stop offset="0.73" stop-color="#EDEDE8"/>
<stop offset="1" stop-color="#D7D7CB"/>
</radialGradient>
<radialGradient id="paint11_radial_497_331" cx="0" cy="0" r="1" gradientUnits="userSpaceOnUse" gradientTransform="translate(76.012 176.749) scale(76.0811 75.9965)">
<stop stop-color="#D2D2D2"/>
<stop offset="0.5367" stop-color="white"/>
<stop offset="0.73" stop-color="#EDEDE8"/>
<stop offset="1" stop-color="#D7D7CB"/>
</radialGradient>
<radialGradient id="paint12_radial_497_331" cx="0" cy="0" r="1" gradientUnits="userSpaceOnUse" gradientTransform="translate(76.417 180.519) scale(72.35 72.2695)">
<stop stop-color="#D2D2D2"/>
<stop offset="0.5367" stop-color="white"/>
<stop offset="0.73" stop-color="#EDEDE8"/>
<stop offset="1" stop-color="#D7D7CB"/>
</radialGradient>
<radialGradient id="paint13_radial_497_331" cx="0" cy="0" r="1" gradientUnits="userSpaceOnUse" gradientTransform="translate(154.605 222.276) scale(76.0792 75.9946)">
<stop stop-color="#D2D2D2"/>
<stop offset="0.5367" stop-color="white"/>
<stop offset="0.73" stop-color="#EDEDE8"/>
<stop offset="1" stop-color="#D7D7CB"/>
</radialGradient>
<radialGradient id="paint14_radial_497_331" cx="0" cy="0" r="1" gradientUnits="userSpaceOnUse" gradientTransform="translate(155.012 226.033) scale(72.3725 72.292)">
<stop stop-color="#D2D2D2"/>
<stop offset="0.5367" stop-color="white"/>
<stop offset="0.73" stop-color="#EDEDE8"/>
<stop offset="1" stop-color="#D7D7CB"/>
</radialGradient>
<radialGradient id="paint15_radial_497_331" cx="0" cy="0" r="1" gradientUnits="userSpaceOnUse" gradientTransform="translate(238.901 209.484) scale(76.0794 75.9948)">
<stop stop-color="#D2D2D2"/>
<stop offset="0.5367" stop-color="white"/>
<stop offset="0.73" stop-color="#EDEDE8"/>
<stop offset="1" stop-color="#D7D7CB"/>
</radialGradient>
<radialGradient id="paint16_radial_497_331" cx="0" cy="0" r="1" gradientUnits="userSpaceOnUse" gradientTransform="translate(239.304 213.223) scale(72.3797 72.2993)">
<stop stop-color="#D2D2D2"/>
<stop offset="0.5367" stop-color="white"/>
<stop offset="0.73" stop-color="#EDEDE8"/>
<stop offset="1" stop-color="#D7D7CB"/>
</radialGradient>
<radialGradient id="paint17_radial_497_331" cx="0" cy="0" r="1" gradientUnits="userSpaceOnUse" gradientTransform="translate(287.952 173.034) scale(76.0821 75.9975)">
<stop stop-color="#D2D2D2"/>
<stop offset="0.5367" stop-color="white"/>
<stop offset="0.73" stop-color="#EDEDE8"/>
<stop offset="1" stop-color="#D7D7CB"/>
</radialGradient>
<radialGradient id="paint18_radial_497_331" cx="0" cy="0" r="1" gradientUnits="userSpaceOnUse" gradientTransform="translate(288.358 176.798) scale(72.3545 72.2741)">
<stop stop-color="#D2D2D2"/>
<stop offset="0.5367" stop-color="white"/>
<stop offset="0.73" stop-color="#EDEDE8"/>
<stop offset="1" stop-color="#D7D7CB"/>
</radialGradient>
<radialGradient id="paint19_radial_497_331" cx="0" cy="0" r="1" gradientUnits="userSpaceOnUse" gradientTransform="translate(313.918 116.25) scale(76.0783 75.9938)">
<stop stop-color="#D2D2D2"/>
<stop offset="0.5367" stop-color="white"/>
<stop offset="0.73" stop-color="#EDEDE8"/>
<stop offset="1" stop-color="#D7D7CB"/>
</radialGradient>
<radialGradient id="paint20_radial_497_331" cx="0" cy="0" r="1" gradientUnits="userSpaceOnUse" gradientTransform="translate(310.77 133.318) scale(72.3592 72.2788)">
<stop offset="0.5367" stop-color="white"/>
<stop offset="0.73" stop-color="#EDEDE8"/>
<stop offset="1" stop-color="#D7D7CB"/>
</radialGradient>
<radialGradient id="paint21_radial_497_331" cx="0" cy="0" r="1" gradientUnits="userSpaceOnUse" gradientTransform="translate(299.317 42.6877) scale(76.078 75.9934)">
<stop stop-color="#D2D2D2"/>
<stop offset="0.5367" stop-color="white"/>
<stop offset="0.73" stop-color="#EDEDE8"/>
<stop offset="1" stop-color="#D7D7CB"/>
</radialGradient>
<radialGradient id="paint22_radial_497_331" cx="0" cy="0" r="1" gradientUnits="userSpaceOnUse" gradientTransform="translate(301.497 62.4158) scale(72.3591 72.2787)">
<stop offset="0.5367" stop-color="white"/>
<stop offset="0.73" stop-color="#EDEDE8"/>
<stop offset="1" stop-color="#D7D7CB"/>
</radialGradient>
<radialGradient id="paint23_radial_497_331" cx="0" cy="0" r="1" gradientUnits="userSpaceOnUse" gradientTransform="translate(238.901 3.93946) scale(76.1019 76.0173)">
<stop stop-color="#D2D2D2"/>
<stop offset="0.5367" stop-color="white"/>
<stop offset="0.73" stop-color="#EDEDE8"/>
<stop offset="1" stop-color="#D7D7CB"/>
</radialGradient>
<radialGradient id="paint24_radial_497_331" cx="0" cy="0" r="1" gradientUnits="userSpaceOnUse" gradientTransform="translate(241.08 19.2512) scale(72.3672 72.2868)">
<stop offset="0.5367" stop-color="white"/>
<stop offset="0.73" stop-color="#EDEDE8"/>
<stop offset="1" stop-color="#D7D7CB"/>
</radialGradient>
<linearGradient id="paint25_linear_497_331" x1="51.6254" y1="10.3794" x2="254.809" y2="300" gradientUnits="userSpaceOnUse">
<stop stop-color="#D870A9"/>
<stop offset="1" stop-color="#662482"/>
</linearGradient>
<linearGradient id="paint26_linear_497_331" x1="139.324" y1="236.076" x2="177.246" y2="300.532" gradientUnits="userSpaceOnUse">
<stop stop-color="#EF7B5A"/>
<stop offset="1" stop-color="#F9B000"/>
</linearGradient>
<linearGradient id="paint27_linear_497_331" x1="161.728" y1="55.6435" x2="250.87" y2="186.811" gradientUnits="userSpaceOnUse">
<stop stop-color="#47C1F0"/>
<stop offset="0.5" stop-color="#00A0E4"/>
<stop offset="1" stop-color="#008CD3"/>
</linearGradient>
<linearGradient id="paint28_linear_497_331" x1="114.803" y1="45.0316" x2="188.75" y2="179.459" gradientUnits="userSpaceOnUse">
<stop stop-color="#D870A9"/>
<stop offset="0.5" stop-color="#C8007F"/>
<stop offset="1" stop-color="#A11880"/>
</linearGradient>
<linearGradient id="paint29_linear_497_331" x1="280.023" y1="206.133" x2="304.431" y2="241.63" gradientUnits="userSpaceOnUse">
<stop stop-color="#EF7B5A"/>
<stop offset="0.5" stop-color="#E30613"/>
<stop offset="1" stop-color="#CB181A"/>
</linearGradient>
<linearGradient id="paint30_linear_497_331" x1="89.3343" y1="44.654" x2="101.785" y2="80.3401" gradientUnits="userSpaceOnUse">
<stop stop-color="#DAE5A7"/>
<stop offset="0.5" stop-color="#B8D26E"/>
<stop offset="1" stop-color="#7FB525"/>
</linearGradient>
<linearGradient id="paint31_linear_497_331" x1="75.3809" y1="209.124" x2="97.4882" y2="268.933" gradientUnits="userSpaceOnUse">
<stop offset="0.011236" stop-color="#44AFCD"/>
<stop offset="0.5" stop-color="#008EB4"/>
<stop offset="0.9944" stop-color="#00747D"/>
</linearGradient>
<linearGradient id="paint32_linear_497_331" x1="64.0408" y1="136.071" x2="77.2563" y2="163.373" gradientUnits="userSpaceOnUse">
<stop stop-color="#6CBB83"/>
<stop offset="0.5" stop-color="#009640"/>
<stop offset="1" stop-color="#00863E"/>
</linearGradient>
<radialGradient id="paint33_radial_497_331" cx="0" cy="0" r="1" gradientUnits="userSpaceOnUse" gradientTransform="translate(247.189 261.587) scale(75.8499 75.7656)">
<stop stop-color="#A95721"/>
<stop offset="1" stop-color="#2F1509"/>
</radialGradient>
<linearGradient id="paint34_linear_497_331" x1="174.259" y1="32.5987" x2="183.963" y2="62.3514" gradientUnits="userSpaceOnUse">
<stop stop-color="#EF7B5A"/>
<stop offset="0.1677" stop-color="#EC7355"/>
<stop offset="0.4296" stop-color="#E45D46"/>
<stop offset="0.7511" stop-color="#D7392F"/>
<stop offset="1" stop-color="#CB181A"/>
</linearGradient>
<linearGradient id="paint35_linear_497_331" x1="242.189" y1="33.7998" x2="248.246" y2="76.8642" gradientUnits="userSpaceOnUse">
<stop stop-color="#FFEBA9"/>
<stop offset="0.5" stop-color="#FECC00"/>
<stop offset="1" stop-color="#F8AE00"/>
</linearGradient>
<linearGradient id="paint36_linear_497_331" x1="316.745" y1="162.155" x2="326.164" y2="191.036" gradientUnits="userSpaceOnUse">
<stop stop-color="#D870A9"/>
<stop offset="1" stop-color="#662482"/>
</linearGradient>
<linearGradient id="paint37_linear_497_331" x1="299.862" y1="83.2897" x2="310.054" y2="114.538" gradientUnits="userSpaceOnUse">
<stop stop-color="#ED6D92"/>
<stop offset="1" stop-color="#E71D73"/>
</linearGradient>
<linearGradient id="paint38_linear_497_331" x1="185.392" y1="85.6018" x2="176.879" y2="73.8252" gradientUnits="userSpaceOnUse">
<stop offset="0.3563" stop-color="#AD5811"/>
<stop offset="1" stop-color="#692B09"/>
</linearGradient>
<linearGradient id="paint39_linear_497_331" x1="77.0804" y1="143.664" x2="85.5055" y2="156.379" gradientUnits="userSpaceOnUse">
<stop stop-color="#777776"/>
<stop offset="0.1723" stop-color="#8C8C8B"/>
<stop offset="0.5271" stop-color="#C2C2C2"/>
<stop offset="0.7129" stop-color="#E1E1E1"/>
<stop offset="1" stop-color="#6F706F"/>
</linearGradient>
<linearGradient id="paint40_linear_497_331" x1="3.631" y1="200.188" x2="67.879" y2="153.76" gradientUnits="userSpaceOnUse">
<stop offset="0.0340482" stop-color="#D1C5AA"/>
<stop offset="0.8026" stop-color="#BAA286"/>
</linearGradient>
<linearGradient id="paint41_linear_497_331" x1="56.9244" y1="174.469" x2="88.7763" y2="156.349" gradientUnits="userSpaceOnUse">
<stop offset="0.0340482" stop-color="#D1C5AA"/>
<stop offset="0.8026" stop-color="#BAA286"/>
</linearGradient>
<linearGradient id="paint42_linear_497_331" x1="47.9274" y1="158.669" x2="79.7825" y2="140.547" gradientUnits="userSpaceOnUse">
<stop offset="0.0340482" stop-color="#D1C5AA"/>
<stop offset="0.8026" stop-color="#BAA286"/>
</linearGradient>
<linearGradient id="paint43_linear_497_331" x1="29.8876" y1="200.578" x2="21.8837" y2="181.002" gradientUnits="userSpaceOnUse">
<stop stop-color="white"/>
<stop offset="0.1227" stop-color="#EAEAEA"/>
<stop offset="0.3772" stop-color="#B3B3B2"/>
<stop offset="0.7381" stop-color="#5B5B5B"/>
<stop offset="1" stop-color="#181817"/>
</linearGradient>
<linearGradient id="paint44_linear_497_331" x1="60.9259" y1="183.041" x2="50.9644" y2="157.557" gradientUnits="userSpaceOnUse">
<stop stop-color="white"/>
<stop offset="0.1227" stop-color="#EAEAEA"/>
<stop offset="0.3772" stop-color="#B3B3B2"/>
<stop offset="0.7381" stop-color="#5B5B5B"/>
<stop offset="1" stop-color="#181817"/>
</linearGradient>
<linearGradient id="paint45_linear_497_331" x1="49.8367" y1="187.356" x2="39.8866" y2="161.9" gradientUnits="userSpaceOnUse">
<stop stop-color="white"/>
<stop offset="0.1227" stop-color="#EAEAEA"/>
<stop offset="0.3772" stop-color="#B3B3B2"/>
<stop offset="0.7381" stop-color="#5B5B5B"/>
<stop offset="1" stop-color="#181817"/>
</linearGradient>
<linearGradient id="paint46_linear_497_331" x1="50.2705" y1="187.178" x2="40.3299" y2="161.746" gradientUnits="userSpaceOnUse">
<stop stop-color="white"/>
<stop offset="0.1227" stop-color="#EAEAEA"/>
<stop offset="0.3772" stop-color="#B3B3B2"/>
<stop offset="0.7381" stop-color="#5B5B5B"/>
<stop offset="1" stop-color="#181817"/>
</linearGradient>
<clipPath id="clip0_497_331">
<rect width="362" height="325" fill="white"/>
</clipPath>
</defs>
</svg>
