<svg width="365" height="394" viewBox="0 0 365 394" fill="none" xmlns="http://www.w3.org/2000/svg">
<g clip-path="url(#clip0_424_1988)">
<path d="M146.041 119.504C146.041 118.732 139.008 101.128 139.008 101.128L125.686 70.5553L115.066 40.8173C115.066 40.8173 105.078 20.7399 101.791 17.3674C98.5196 13.9949 86.0189 2.67967 72.0802 1.07221C62.0923 0.189687 48.5486 2.26992 39.1296 7.29716C32.7292 10.6224 24.1478 20.7399 21.9037 29.0924C19.6596 37.4448 19.8018 49.0752 19.8018 49.0752L26.4868 78.8289C26.4868 78.8289 31.212 87.402 38.0076 90.8691C37.17 103.871 35.4 124.326 31.4491 131.702C27.4982 139.597 27.593 149.652 27.593 149.652C27.593 149.652 30.2954 171.132 33.8354 173.007C37.3754 174.882 64.7473 175.702 65.0634 175.182C65.3794 174.662 146.041 119.504 146.041 119.504Z" fill="#707D8F"/>
<path d="M269.342 259.416C270.385 259.825 292.558 259.526 292.558 259.526C292.558 259.526 320.562 259.274 322.427 259.006C324.307 258.754 338.199 257.194 338.562 257.288C338.926 257.398 355.172 255.57 358.032 263.056C360.893 270.526 358.964 273.804 358.664 275.301C358.348 276.814 355.33 281.431 351.695 282.613C357.732 283.496 362.362 286.916 363.721 292.479C365.08 298.026 363.469 306.804 359.502 309.767C355.804 311.942 351.584 312.099 351.584 312.099C351.584 312.099 359.755 319.207 356.262 328.599C353.449 334.572 353.196 340.119 336.271 337.582C335.638 338.307 335.907 338.465 336.018 338.622C336.128 338.78 344.346 346.722 340.332 355.327C337.061 361.142 331.687 365.445 324.355 364.405C317.022 363.364 309.262 359.015 309.262 359.015L302.024 353.562C302.024 353.562 308.741 363.27 306.18 369.968C303.636 376.665 295.718 379.88 290.566 378.887C285.415 377.895 279.694 373.277 279.536 373.119C279.378 372.962 264.396 358.069 257.316 346.864C250.236 335.659 242.018 320.294 238.889 312.919C235.76 305.543 233.579 292.983 233.579 292.983C233.579 292.983 238.889 270.983 239.932 269.218C240.975 267.453 269.342 259.416 269.342 259.416Z" fill="#707D8F"/>
<path d="M164.943 123.081C164.943 123.081 147.022 113.704 130.712 113.704C118.701 114.114 108.714 116.604 100.116 121.6C91.5193 126.58 90.255 127.478 90.255 127.478C90.255 127.478 72.7762 135.783 65.2063 146.294C57.6364 156.806 53.6223 162.416 45.7837 163.803C37.9451 165.19 33.6465 162.763 31.4814 156.885C29.3322 151.007 29.5376 137.926 29.5376 137.926L32.1768 129.274C32.1768 129.274 18.9176 129.337 13.576 142.071C8.23434 154.805 5.73734 165.253 5.73734 165.253C5.73734 165.253 1.99191 189.617 3.96735 202.382C5.94281 215.147 7.7128 230.197 14.4767 244.523C21.2407 258.848 29.5692 275.458 54.8549 285.938C63.0728 288.428 63.0728 288.428 63.0728 288.428L67.6559 290.808C67.6559 290.808 67.4504 307.418 82.6377 313.013C92.2147 315.708 98.9786 315.503 104.178 313.423C109.377 311.342 114.482 307.403 115.414 305.023C123.632 305.858 135.406 307.198 135.406 307.198C135.406 307.198 143.102 315.597 154.971 316.543C162.051 316.653 172.355 316.953 180.778 306.158C192.441 305.842 210.125 303.147 215.641 300.973C221.156 298.798 228.995 295.788 235 300.799C233.515 296.261 233.578 294.291 233.578 294.291C233.578 294.291 244.783 294.921 241.448 287.688C247.627 288.097 253.633 288.412 255.703 283.842C256.667 280.722 249.603 275.821 249.603 275.821C249.603 275.821 262.103 279.587 264.758 275.127C266.117 272.748 262.672 266.46 257.473 262.252C264.869 264.537 270.685 268.634 273.498 262.567C275.268 258.675 270.685 250.842 270.685 250.842L259.812 232.01L237.07 200.192L210.836 166.356C210.836 166.356 184.713 138.746 176.179 131.796C167.693 124.846 164.943 123.081 164.943 123.081Z" fill="#D3DCE1"/>
<path d="M66.3125 35.6792C66.3125 35.6792 66.2651 24.1118 55.9611 25.2938C49.4501 26.0187 49.5133 34.3239 49.6081 36.0889C49.7187 37.854 53.2587 43.3067 56.1666 43.9844C59.0903 44.662 65.791 43.5746 66.3125 35.6792Z" fill="white"/>
<path d="M26.5513 68.6954C26.5513 68.6954 35.4014 80.0106 44.7729 82.1854C48.2023 85.8258 51.6475 102.846 50.1778 107.4C48.7238 111.971 43.7773 146.72 71.2598 139.455C71.2598 139.455 65.6337 146.468 64.7329 147.398C63.8163 148.327 51.6791 166.987 40.0161 164.56C33.0783 161.865 31.1344 155.908 30.5023 152.803C29.8701 149.683 28.6216 141.724 30.9132 133.782C33.2047 125.823 35.7649 115.721 36.8869 105.21C38.009 94.6983 37.9932 90.5379 37.9932 90.5379C37.9932 90.5379 26.9623 85.4161 26.1247 75.7241C25.3029 66.032 26.5513 68.6954 26.5513 68.6954Z" fill="#4F5868"/>
<path d="M359.85 268.398C359.85 268.398 352.359 275.049 284.909 269.754C289.492 274.119 290.314 275.364 290.314 275.364C290.314 275.364 341.834 281.794 342.15 281.794C342.466 281.794 351.869 284.694 355.535 279.919C359.218 275.143 360.466 272.717 359.85 268.398Z" fill="#4F5868"/>
<path d="M364.148 298.877C364.148 298.877 349.956 302.438 296.556 284.693C296.556 284.693 298.073 289.941 290.519 288.901C291.404 291.139 291.562 292.021 291.562 292.021C291.562 292.021 331.118 308.474 346.005 310.649C350.904 312.099 350.904 312.099 350.904 312.099C350.904 312.099 358.253 313.281 362.077 306.835C364.353 302.675 364.148 298.877 364.148 298.877Z" fill="#4F5868"/>
<path d="M356.198 327.196C356.198 327.196 318.253 321.901 285.935 295.898L281.873 295.788C281.873 295.788 283.438 299.476 279.693 300.768C280.261 302.785 292.541 313.533 297.393 317.331C302.228 321.113 326.44 336.164 334.452 337.472C342.259 338.827 349.592 340.592 354.586 333.012C357.035 328.284 356.198 327.196 356.198 327.196Z" fill="#4F5868"/>
<path d="M340.742 353.972C340.742 353.972 293.584 330.144 273.45 301.667C265.327 301.194 254.976 299.539 254.976 299.539C254.976 299.539 260.444 309.247 264.237 313.596C268.03 317.962 279.408 334.021 286.362 340.387C293.3 346.754 308.708 361.694 324.354 364.405C328.068 365.098 335.385 364.373 340.742 353.972Z" fill="#4F5868"/>
<path d="M306.243 363.774C306.243 363.774 271.791 348.834 249.303 298.168C249.303 298.168 235.838 294.023 234.005 294.228C233.863 297.443 238.967 314.29 244.862 325.636C250.757 336.983 263.668 355.8 269.073 362.167C274.478 368.533 283.928 381.409 296.066 378.572C301.897 376.366 308.361 372.079 306.243 363.774Z" fill="#4F5868"/>
<path d="M295.622 283.449C295.622 283.449 276.152 270.573 267.824 265.389C262.924 264.254 257.52 261.969 257.52 261.969C257.52 261.969 265.216 269.407 264.979 272.654C264.742 275.9 263.414 277.082 263.414 277.082L263.351 277.807C263.351 277.807 281.636 288.224 290.028 289.185C292.256 289.595 299.13 289.737 295.622 283.449Z" fill="#4F5868"/>
<path d="M290.866 292.856C291.071 292.1 265.059 282.408 258.184 277.633C253.332 276.53 250.346 276.041 250.346 276.041C250.346 276.041 262.072 284.346 250.693 287.451C255.197 289.531 269.357 294.227 280.53 295.267C287.674 295.961 290.171 295.488 290.866 292.856Z" fill="#4F5868"/>
<path d="M282.332 298.183C282.332 298.183 252.763 293.061 245.209 288.018C241.954 287.53 241.322 287.388 241.322 287.388C241.322 287.388 245.826 292.446 237.165 293.818C237.576 294.511 237.861 294.511 238.066 294.716C238.272 294.921 256.73 300.941 269.5 301.287C278.444 301.508 282.19 300.468 282.332 298.183Z" fill="#4F5868"/>
<path d="M23.0102 43.8275C23.0102 43.8275 25.8233 19.5423 44.0922 11.5995C62.3612 3.65683 95.2959 7.70698 109.045 37.4449C122.778 67.1828 128.562 78.5453 128.562 78.5453L115.035 40.2501C115.035 40.2501 103.893 12.2299 87.3467 5.89466C71.8434 -0.0151064 54.0327 -1.78016 37.3915 8.06945C27.4036 14.8145 21.7775 30.3847 21.7775 30.3847C21.7775 30.3847 18.9329 46.5696 19.3438 48.6498C19.7547 50.7301 23.0102 43.8275 23.0102 43.8275Z" fill="#94A0AF"/>
<path d="M83.6026 136.461C83.6026 136.461 116.917 259.148 253.886 284.883C253.886 284.883 254.139 288.665 241.496 287.94C242.697 290.272 242.95 294.007 233.01 294.323C223.069 294.638 186.326 289.232 171.755 283.007C157.184 276.782 134.901 268.162 118.465 255.807C102.014 243.451 88.8019 234.106 79.3356 212.736C73.2986 198.001 70.691 188.026 71.1177 172.566C72.6665 161.061 74.5471 144.672 83.6026 136.461Z" fill="#A7B0BD"/>
<path d="M211.201 202.271C211.201 202.271 213.35 217.637 195.034 210.293C196.772 214.375 200.581 225.863 184.619 223.294C179.214 222.049 176.575 221.009 176.575 221.009C176.575 221.009 182.96 233.191 174.284 235.603C168.104 237.052 164.359 236.501 157.911 231.379C160.345 236.359 162.763 239.479 158.749 243.971C154.735 248.462 156.663 248.809 156.663 248.809L190.293 265.388C190.293 265.388 198.1 257.492 184.05 246.697C195.808 253.127 218.502 255.207 195.713 232.577C210.49 242.442 228.806 244.507 207.898 219.906C217.665 223.862 219.845 209.537 211.201 202.271Z" fill="#A7B0BD"/>
<path d="M273.246 258.627C273.246 258.627 255.024 256.248 231.714 241.607C222.548 237.242 227.763 244.302 227.763 244.302C227.763 244.302 252.843 261.921 267.477 265.656C270.891 265.861 276.438 263.796 273.246 258.627Z" fill="#A7B0BD"/>
<path d="M265.122 272.023C265.122 272.023 225.044 261.637 209.746 253.238C200.374 250.905 210.836 259.62 213.08 261.338C215.324 263.056 244.719 274.891 249.713 276.073C254.723 277.271 268.251 280.438 265.122 272.023Z" fill="#A7B0BD"/>
<path d="M32.6982 157.957C32.6982 157.957 4.07793 265.798 131.471 301.919C131.471 301.919 139.246 314.794 151.81 316.181C163.189 317.363 172.149 316.244 180.335 306.079C189.423 306.631 208.577 304.141 213.713 301.714C218.849 299.287 227.525 297.837 230.575 298.672C233.625 299.507 235.506 301.162 235.506 300.815C235.506 300.469 233.625 294.307 233.625 294.307C233.625 294.307 206.348 293.55 189.423 288.145C172.497 282.755 151.889 276.168 137.524 267.358C123.158 258.533 106.817 250.023 97.4456 238.818C88.0741 227.613 80.5831 218.788 75.4786 203.423C70.374 188.057 71.4171 172.487 71.4171 172.487C71.4171 172.487 70.8955 160.336 75.5734 148.722C80.2513 137.091 86.2883 133.467 86.2883 133.467L90.3972 128.439C90.3972 128.439 84.3602 130.409 80.0932 132.962C75.8263 135.515 68.5882 141.315 64.8428 146.72C61.0973 152.11 53.5432 162.291 47.9803 163.488C42.4174 164.686 37.0442 164.844 34.9108 161.975C32.8089 159.091 32.6982 157.957 32.6982 157.957Z" fill="#A7B0BD"/>
<path d="M29.2688 136.934C29.2688 136.934 12.0902 148.296 10.5257 183.172C8.96111 218.047 13.955 244.05 33.3145 259.935C25.5075 245.137 20.8296 230.607 20.8296 230.607C20.8296 230.607 15.5196 211.507 16.9735 194.802C18.4275 178.097 21.9675 161.896 21.9675 161.896L28.5418 139.061L29.2688 136.934Z" fill="#A7B0BD"/>
<path d="M83.3971 297.663C83.3971 297.663 86.6685 314.794 91.3622 315.613C96.04 316.448 105.095 313.848 106.818 312.493C108.541 311.137 115.463 307.355 114.467 305.59C113.471 303.825 93.6537 301.445 88.7071 299.728C83.7606 298.026 83.3971 297.663 83.3971 297.663Z" fill="#A7B0BD"/>
<path d="M42.7498 61.6821C42.7498 61.6821 45.8157 58.2623 41.1378 55.4572C36.46 52.652 32.2878 50.162 30.1543 47.5144C28.0208 44.8669 23.4852 42.9915 20.3245 43.8268C17.148 44.662 5.54813 50.619 3.25661 59.4443C0.965084 68.2695 0.348759 76.4171 1.8501 78.5919C3.36725 80.7667 4.71053 77.2366 4.71053 77.2366L8.77205 74.2739C8.77205 74.2739 17.4166 79.6636 28.9059 77.9143C37.1869 76.4644 37.7559 70.7595 37.7559 70.7595L40.2529 63.7466L42.7498 61.6821Z" fill="#E27F34"/>
<path d="M164.152 316.243L157.704 346.06C157.704 346.06 154.48 358.526 159.474 361.646C164.468 364.766 171.801 367.666 171.295 375.089C170.774 379.549 170.774 379.549 170.774 379.549L155.429 377.311C155.429 377.311 150.435 374.616 148.76 381.613C147.1 388.626 146.673 392.408 143.086 393.18C139.499 393.953 136.053 391.731 135.848 388.2C134.6 389.335 132.83 390.848 129.337 390.848C125.844 390.848 124.232 386.231 124.185 385.238C124.138 384.245 122.004 387.208 119.349 386.64C116.694 386.073 115.762 382.385 115.335 380.731C114.908 379.076 116.267 371.023 118.986 367.761C121.688 364.498 126.998 363.033 126.998 363.033C126.998 363.033 138.914 361.583 141.095 356.965C143.276 352.348 145.472 335.422 145.63 334.76C145.788 334.083 147.653 315.093 147.653 315.093C147.653 315.093 156.503 317.803 164.152 316.243Z" fill="#E27F34"/>
<path d="M97.3351 315.566L91.9777 343.854C91.9777 343.854 91.5668 350.032 95.3123 352.317C99.0577 354.602 105.727 358.448 105.664 363.317C105.458 366.375 104.937 367.367 104.937 367.367C104.937 367.367 88.5483 363.632 88.5483 363.885C88.5483 364.137 87.1418 364.2 86.0987 368.817C85.0557 373.435 81.3577 380.022 77.8177 380.132C74.2777 380.243 72.4128 377.327 72.4128 375.61C71.8913 375.499 69.8685 378.62 66.0124 377.579C62.1563 376.539 61.9983 372.284 61.9983 372.284C61.9983 372.284 59.8648 373.687 57.3678 372.852C54.8708 372.016 53.1008 370.094 53.7804 365.539C54.4599 360.969 56.7989 353.184 63.5154 350.962C70.2319 348.724 75.1785 347.069 75.9054 346.707C76.6324 346.344 77.8335 345.099 78.6079 342.862C79.3822 340.624 82.622 313.281 82.622 313.281C82.622 313.281 90.9347 316.039 97.3351 315.566Z" fill="#E27F34"/>
<path d="M33.8368 51.1396C33.8368 51.1396 37.3136 60.3431 29.8859 62.2185C22.4582 64.0938 6.92328 66.5838 4.34729 69.1369C1.78711 71.6899 1.09177 74.3217 1.09177 74.7472C1.09177 75.1569 0.949524 80.0108 3.60453 78.4979C6.25954 76.985 8.44045 74.2429 8.44045 74.2429C8.44045 74.2429 18.6338 78.5452 23.2168 78.4506C27.7999 78.3403 33.3153 78.9707 36.3338 73.9277C39.3523 68.9005 40.2373 63.7629 40.2373 63.7629C40.2373 63.7629 46.9064 59.4606 41.8967 55.9778C36.9185 52.495 33.8368 51.1396 33.8368 51.1396Z" fill="#C14F27"/>
<path d="M152.854 316.307C152.854 316.307 150.294 346.896 146.406 355.406C142.518 363.916 141.76 364.467 136.971 367.241C132.183 370.015 130.792 369.353 130.697 369.353C130.602 369.353 125.703 370.283 124.518 377.595C123.333 384.891 123.823 390.297 129.022 390.596C134.221 390.896 135.438 387.586 135.58 387.586C135.723 387.586 136.797 393.323 141.791 392.976C146.785 392.629 147.417 387.161 147.417 387.161C147.417 387.161 149.187 380.353 150.199 378.856C151.21 377.374 152.49 375.909 154.529 376.571C156.583 377.232 170.791 379.549 170.791 379.549C170.791 379.549 172.087 374.159 170.601 371.732C169.116 369.305 167.725 366.847 163.11 363.916C158.496 360.969 157.137 359.204 157.01 357.659C156.884 356.115 157.595 346.376 158.496 343.791C159.396 341.191 164.122 316.07 164.122 316.07C164.122 316.07 159.76 317.237 152.854 316.307Z" fill="#C14F27"/>
<path d="M89.3233 315.094C89.3233 315.094 86.6209 342.499 85.4672 345.509C84.3293 348.519 82.4487 353.499 76.6172 357.029C70.7857 360.559 69.79 361.631 67.9094 367.714C66.0288 373.797 64.5748 376.776 65.6179 377.201C66.6609 377.611 69.5372 379.628 72.1764 375.72C73.4881 378.588 75.985 380.605 79.4618 379.25C82.9386 377.895 85.9571 369.763 85.9571 369.763C85.9571 369.763 86.9211 365.161 87.8694 364.373C88.8018 363.585 104.937 367.367 104.937 367.367C104.937 367.367 106.644 362.261 103.626 359.188C100.607 356.115 94.2856 352.932 93.4954 350.505C92.7053 348.078 91.4884 345.966 92.1047 342.925C92.7369 339.883 97.5096 314.936 97.5096 315.078C97.5096 315.204 89.3233 315.094 89.3233 315.094Z" fill="#C14F27"/>
<path d="M2.75058 190.153C2.76639 188.624 2.75055 190.153 2.76636 188.624C3.00342 171.62 6.33801 155.577 12.5172 142.922C19.1547 129.337 29.032 128.408 31.6396 128.408C31.9557 127.415 32.2559 126.469 32.5245 125.555C36.4122 112.333 37.1234 94.1153 37.2182 90.9161C28.7633 86.4089 26.1873 80.4992 25.7448 79.333C25.6658 79.333 25.5868 79.3487 25.5078 79.3487C20.5296 79.3487 14.5085 77.9934 8.4873 75.3143C7.20721 76.2284 5.9903 77.237 4.89984 78.4032C4.09387 79.2699 3.31949 79.6954 2.62415 79.6954C2.4187 79.6954 2.19745 79.6639 2.00781 79.5851C1.51791 79.396 0.0323486 78.8129 -0.0150452 72.9504C-0.0466614 67.545 1.17023 62.2813 3.50916 57.7426C6.27478 52.3529 10.8104 47.6409 15.9308 44.7727C16.9738 44.1896 17.9695 43.7325 18.9177 43.4016C19.5656 20.8657 33.5202 4.57052 55.345 0.851309C77.6597 -2.9467 97.4458 6.30405 108.271 25.5935C114.877 37.35 119.476 50.2727 123.933 62.7699C126.603 70.2556 129.353 77.9777 132.498 85.353C135.232 91.7671 144.066 111.025 145.915 114.744C154.149 116.667 162.035 120.15 168.878 125.161C182.422 135.074 194.733 147.587 204.8 159.044C205.843 160.226 204.8 159.044 205.843 160.226C213.049 168.499 219.054 176.159 223.48 181.8C225.597 184.511 227.43 186.843 228.853 188.545C233.309 193.919 237.798 199.671 242.381 205.928C243.977 208.119 242.381 205.928 243.977 208.119C245.747 210.561 247.533 213.067 249.334 215.667C250.44 217.259 249.334 215.667 250.44 217.259C251.784 219.213 253.143 221.199 254.518 223.248C255.719 225.044 256.952 226.825 258.168 228.606C259.875 231.08 261.645 233.649 263.32 236.217C263.51 236.517 263.684 236.785 263.874 237.068C264.774 238.455 263.874 237.068 264.774 238.455C265.849 240.142 266.813 241.717 267.682 243.23C269.942 247.139 271.696 250.716 273.055 254.183C273.593 255.57 274.177 257.24 274.446 258.895C276.516 258.958 283.833 259.163 293.395 259.1C298.483 259.037 293.395 259.1 298.483 259.037C309.261 258.864 321.936 258.312 333.014 256.91C339.794 256.059 346.921 255.397 353.164 257.634C358.49 259.541 361.192 265.073 360.355 272.417C359.849 276.845 357.399 280.375 353.907 282.125C357.889 282.645 361.255 285.387 363.215 289.768C366.028 296.009 365.412 303.904 361.745 308.537C360.117 310.602 357.304 312.808 352.674 312.855C353.512 313.549 354.239 314.352 354.871 315.266C356.83 318.087 357.715 321.665 357.557 325.195C357.399 326.928 357.557 325.195 357.399 326.928C357.036 329.434 356.151 331.845 354.713 333.863C351.757 338.007 347.411 339.504 342.702 339.504C340.837 339.504 338.925 339.268 337.013 338.874C340.078 342.199 341.864 346.123 341.943 349.969C342.038 354.019 340.316 357.817 336.949 360.906C333.836 363.774 330.138 365.208 325.903 365.208C321.193 365.208 315.804 363.443 309.783 359.897C308.013 358.857 306.259 357.738 304.52 356.54C306.812 360.701 307.76 365.082 307.096 368.77C306.448 372.331 304.41 375.215 301.028 377.311C298.278 379.013 295.576 379.722 292.968 379.722C287.484 379.722 282.459 376.602 278.381 373.103C276.785 371.685 278.381 373.103 276.785 371.685C274.81 369.857 273.134 368.013 271.791 366.563C270.954 365.649 270.084 364.688 269.231 363.695C261.329 354.555 253.775 343.602 246.758 331.136C240.974 320.845 236.944 311.169 234.558 301.792C233.957 301.115 233.294 300.563 232.582 300.153V300.169C231.144 299.46 232.582 300.169 231.144 299.46C226.893 297.915 221.457 299.743 216.51 301.398C214.851 301.95 213.302 302.486 211.88 302.848C201.165 305.574 190.719 306.961 180.826 306.993C177.491 311.216 172.386 315.361 164.817 316.842C164.595 317.851 159.601 341.506 158.226 349.307C157.942 351.119 158.226 349.307 157.942 351.119C157.089 357.092 157.942 360.007 161.039 361.772C161.371 361.961 161.751 362.166 162.162 362.387C166.302 364.609 173.935 368.707 171.565 379.186C171.043 380.652 169.242 380.4 165.891 379.88C162.572 379.36 157.974 378.54 152.205 377.469C151.557 377.878 151.004 378.493 150.546 379.36C149.961 380.447 149.566 382.197 149.124 384.072C148.713 385.868 148.27 387.76 147.606 389.399C146.927 390.864 147.606 389.399 146.927 390.864C146.01 392.519 144.746 393.732 142.834 393.969C142.47 394.016 142.107 394.032 141.759 394.032C139.957 394.032 138.361 393.417 137.113 392.235C136.307 391.479 135.69 390.502 135.28 389.383C134.379 390.517 132.767 391.841 130.128 391.841C129.559 391.841 128.927 391.778 128.263 391.636C125.955 391.164 124.328 389.304 123.569 386.341C122.953 386.782 122.005 387.192 120.63 387.192C120.061 387.192 119.413 387.129 118.686 386.956C116.916 386.562 115.731 385.459 115.083 383.662C114.672 381.96 115.083 383.662 114.672 381.96C114.466 380.479 114.498 378.666 114.83 376.539C115.114 374.616 115.762 372.473 116.774 370.472C117.595 369.037 116.774 370.472 117.595 369.037C119.018 366.8 120.977 364.845 123.569 363.695C125.813 362.702 128.421 361.93 130.934 361.189C134.6 360.118 138.077 359.093 139.341 357.628C140.495 356.304 141.411 354.413 142.217 351.482C142.612 349.953 142.217 351.482 142.612 349.953C143.292 347.116 143.908 343.428 144.556 338.575C146.058 327.259 146.548 316.701 146.611 315.456C141.396 313.596 137.729 310.649 135.185 307.702C133.715 307.655 132.261 307.592 130.823 307.529C128.769 307.418 130.823 307.529 128.769 307.418C124.217 307.15 119.792 306.756 115.493 306.205C115.493 306.362 115.462 306.52 115.367 306.662C115.304 306.756 109.82 314.557 98.157 315.944C97.6196 318.812 95.1385 332.066 93.8584 338.827C92.4202 346.439 92.7205 349.37 95.3123 351.592C96.6714 352.585 95.3123 351.592 96.6714 352.585C97.1139 352.868 97.6038 353.168 98.1095 353.467C101.902 355.737 107.576 359.109 105.806 366.611C105.537 368.139 104.352 367.95 104.115 367.887C97.588 366.532 94.8066 365.933 88.4851 364.593C88.0268 365.003 87.6476 365.633 87.3315 366.453C86.9522 367.462 86.6203 368.58 86.2726 369.778C85.7669 371.527 85.2138 373.387 84.4236 375.089C83.6492 376.523 84.4236 375.089 83.6492 376.523C82.9855 377.595 82.1953 378.572 81.1681 379.344C79.9986 380.227 78.5289 380.668 77.1065 380.668C75.8106 380.668 74.5464 380.305 73.5508 379.565C72.7131 378.95 72.1284 378.131 71.7649 377.122C70.9115 378.036 69.6314 378.808 67.8615 378.808C67.1345 378.808 66.3285 378.682 65.4435 378.383C62.7569 377.469 61.6664 375.593 61.3188 373.529C60.7814 373.876 59.9754 374.222 58.885 374.222C57.9368 374.222 56.7831 373.97 55.4082 373.214C54.3651 372.646 53.6382 371.638 53.2431 370.204C53.1799 369.967 53.1167 369.715 53.0692 369.463C52.8954 367.808 53.0692 369.463 52.8954 367.808C52.7848 364.656 53.7646 360.685 55.5346 357.297C56.3406 355.894 55.5346 357.297 56.3406 355.894C57.7313 353.656 59.3591 352.065 61.0501 351.277C62.2827 350.709 64.1318 350.158 66.2653 349.527C70.39 348.314 75.5262 346.785 77.0749 344.689C78.7975 342.357 80.8046 325.069 81.7686 313.659C68.4462 307.938 66.9764 293.976 66.8184 291.139C65.6963 290.509 64.5743 289.862 63.4838 289.2C32.572 281.872 17.7956 257.477 10.842 238.266C8.64532 232.167 6.85953 225.674 5.5162 218.945C5.21594 217.385 5.51617 218.945 5.21591 217.385C3.54074 208.245 2.71896 199.073 2.75058 190.153ZM34.8161 74.6209C37.1392 71.6109 38.4509 67.6237 39.0673 65.3229C37.0128 66.4891 34.6897 67.3558 32.6984 67.7341C31.9714 67.8759 31.0706 68.002 30.0276 68.1596C25.0811 68.9003 16.8 70.161 10.0518 74.2742C21.9045 79.2699 31.8608 78.4662 34.8161 74.6209ZM16.7052 46.1437C11.8535 48.8543 7.55487 53.3458 4.91568 58.4518C2.68735 62.7699 1.53369 67.7813 1.56531 72.9347C1.59692 76.8745 2.30807 78.0092 2.57672 78.1037C2.67154 78.1353 3.05084 78.0722 3.74622 77.3158C4.99469 75.992 6.3696 74.8415 7.83932 73.8329C7.85513 73.8172 7.88672 73.8014 7.90253 73.7857C15.1406 68.8057 24.4015 67.4031 29.8063 66.5994C30.8336 66.4418 31.7186 66.3157 32.4139 66.1739C35.0057 65.6853 37.8188 64.4246 39.8416 62.959C39.8416 62.959 39.8416 62.959 39.8575 62.959C40.8373 62.2498 41.6432 61.4934 42.1332 60.7527C42.5757 60.0908 42.7337 59.4919 42.6231 58.9719C42.228 57.1753 40.5054 56.1667 38.846 55.2054C38.6089 55.0635 38.3719 54.9375 38.1506 54.7956C35.1796 52.9991 32.493 50.7455 30.2488 48.7755C29.917 48.4919 29.5851 48.1767 29.2532 47.8773C28.6369 47.3099 27.9889 46.7111 27.3252 46.191C25.8554 45.0248 24.6228 44.4575 23.3427 44.3314C23.1056 44.3156 22.8686 44.2999 22.6315 44.2999C20.8615 44.2841 18.9335 44.8987 16.7052 46.1437ZM131.076 85.9519C127.915 78.545 125.149 70.7756 122.479 63.2742C118.054 50.84 113.471 37.9804 106.928 26.3342C96.4344 7.65936 77.2646 -1.30772 55.6452 2.37997C34.7687 5.94159 21.3672 21.4488 20.5454 42.9288C21.5726 42.7082 22.5525 42.6452 23.4849 42.7397C25.571 42.9446 27.2303 44.095 28.305 44.946C29.0161 45.5134 29.6799 46.1122 30.312 46.7111C30.6439 47.0105 30.96 47.3099 31.2919 47.5936C33.4886 49.5162 36.112 51.7225 38.9724 53.4403C39.1937 53.5664 39.4149 53.7082 39.652 53.8343C41.5168 54.9217 43.6345 56.1509 44.1718 58.6252C44.2034 58.7985 44.2192 58.9876 44.235 59.161C45.1991 58.3415 46.2737 57.2226 46.7478 55.9933C46.7952 55.8988 46.8427 55.8042 46.9217 55.7254C45.9102 55.0793 45.1991 55.032 45.1359 55.032C44.7092 55.032 44.3615 54.6696 44.3615 54.244C44.3615 53.8028 44.7091 53.4561 45.1516 53.4561C45.2623 53.4561 47.9647 53.5034 50.5407 57.1438C50.7935 57.5062 50.7145 57.9948 50.351 58.2469C50.2088 58.3415 50.0508 58.3888 49.8927 58.3888C49.6399 58.3888 49.4028 58.2784 49.2448 58.0578C48.8655 57.5378 48.502 57.0965 48.1543 56.734C47.0323 59.3501 44.0296 61.3515 43.35 61.777C42.7811 62.5808 41.9751 63.353 41.0427 64.0621C40.7582 65.4647 39.3991 71.3114 36.112 75.5665C34.4368 77.7413 31.3709 78.9547 27.4832 79.2542C28.4472 81.3344 32.3824 88.1582 43.7135 91.9405C44.1244 92.0823 44.3457 92.5236 44.2192 92.9333C44.1086 93.2643 43.7925 93.4691 43.4765 93.4691C43.3975 93.4691 43.3026 93.4534 43.2236 93.4218C41.6117 92.886 40.1577 92.2872 38.8302 91.6568C38.6564 96.3216 37.7872 113.357 34.0891 125.949C33.2831 128.723 32.2085 131.796 30.96 135.279C29.4745 145.838 30.7862 154.994 34.5632 159.879C36.27 162.085 38.4193 163.346 40.9637 163.598C50.4142 164.56 57.115 155.75 63.0571 147.981C65.3961 144.923 67.5928 142.039 69.8685 139.802C74.3725 135.389 82.5272 130.236 94.0796 124.468C95.6284 123.333 97.2245 122.261 98.9155 121.284C112.27 113.42 128.674 111.151 144.003 114.24C141.332 108.803 133.604 91.8932 131.076 85.9519ZM273.735 264.033C272.676 265.577 270.716 266.365 267.903 266.365C266.924 266.365 264.284 265.546 260.492 263.938C263.937 267.295 267.84 272.306 265.312 276.073C264.98 276.577 264.506 276.987 263.937 277.318C269.263 280.596 289.475 290.824 294.485 287.971C294.975 287.688 295.607 287.152 295.497 285.592C295.291 282.849 293.158 279.95 291.577 277.996C286.552 271.834 280.451 266.743 274.525 262.079C274.383 262.788 274.146 263.45 273.735 264.033ZM256.098 284.788C255.34 286.096 253.917 287.057 251.926 287.688C259.844 290.635 268.235 292.809 276.88 294.165C279.946 294.637 283.423 295.173 286.741 294.921C288.432 294.795 289.902 293.865 290.329 292.668C290.74 291.517 290.013 290.477 289.333 289.831C289.317 289.815 289.302 289.784 289.286 289.768C279.503 288.097 263.7 279.146 262.23 278.122C262.183 278.09 262.151 278.043 262.119 278.011C261.345 278.185 260.46 278.263 259.464 278.263C257.647 278.263 255.434 277.98 252.858 277.428C254.407 278.72 255.956 280.359 256.414 282.046C256.699 283.023 256.588 283.937 256.098 284.788ZM243.044 291.218C242.586 292.652 241.053 293.676 238.509 294.275C265.596 302.659 278.065 300.626 279.946 299.57C280.657 299.176 281.526 298.546 281.621 297.758C281.684 297.127 281.257 296.576 281.02 296.308C279.503 296.15 278.034 295.914 276.643 295.709C267.24 294.243 258.137 291.817 249.603 288.491C249.476 288.444 249.366 288.349 249.287 288.255C248.022 288.444 246.616 288.523 245.067 288.523C244.309 288.523 243.503 288.491 242.681 288.444C243.06 289.2 243.376 290.178 243.044 291.218ZM358.806 272.228C359.09 269.769 359.454 261.543 352.642 259.1C346.732 256.988 339.81 257.619 333.236 258.454C320.34 260.077 305.295 260.566 293.568 260.66C293.553 260.66 293.537 260.66 293.521 260.66C293.505 260.66 293.489 260.66 293.474 260.66C284.639 260.723 277.717 260.55 275.015 260.471C280.23 264.569 285.588 268.981 290.313 274.15C293.584 274.67 327.23 280.013 349.008 281.746C354.254 281.62 358.189 277.806 358.806 272.228ZM360.544 307.544C363.863 303.337 364.384 296.135 361.808 290.398C360.734 288.003 358.158 283.921 353.101 283.622C333.71 282.44 300.617 277.381 291.957 276.01C292.241 276.341 292.525 276.656 292.794 277.003C294.517 279.114 296.84 282.298 297.077 285.481C297.235 287.735 296.192 288.822 295.275 289.342C294.453 289.815 293.379 290.02 292.115 290.02C291.909 290.02 291.704 290.004 291.482 290.004C291.735 290.43 291.877 290.855 291.957 291.233C295.275 292.731 320.008 303.62 345.578 309.577C347.206 309.956 348.612 310.428 349.845 311.027C354.412 311.815 358.11 310.633 360.544 307.544ZM353.48 332.917C356.878 328.142 356.941 320.924 353.622 316.133C351.852 313.58 349.26 312.036 345.215 311.09C320.672 305.37 296.935 295.142 291.909 292.92C291.877 293.014 291.862 293.109 291.83 293.188C291.182 294.968 289.191 296.292 286.884 296.481C286.236 296.529 285.588 296.56 284.94 296.56C284.292 296.56 283.628 296.529 282.98 296.497C283.154 296.923 283.265 297.395 283.217 297.931C283.091 299.097 282.269 300.122 280.736 300.973C280.625 301.036 280.467 301.099 280.309 301.178C281.969 303.573 284.371 305.606 286.694 307.56L287.595 308.317C291.561 311.673 295.986 315.062 301.123 318.655C311.616 326.014 320.024 330.868 328.368 334.398C330.328 335.234 332.43 336.006 334.563 336.62C334.579 336.62 334.61 336.636 334.626 336.636C341.738 338.622 349.292 338.795 353.48 332.917ZM310.652 358.526C321.446 364.861 329.948 365.255 335.954 359.724C338.972 356.934 340.521 353.562 340.442 349.984C340.331 345.792 337.992 341.459 333.994 338.07C331.829 337.44 329.727 336.683 327.752 335.848C319.297 332.271 310.794 327.354 300.206 319.931C295.022 316.307 290.566 312.887 286.567 309.499L285.667 308.742C283.186 306.662 280.61 304.503 278.824 301.824C278.776 301.761 278.761 301.682 278.729 301.603C277.275 301.918 275.126 302.155 272.249 302.155C268.204 302.155 262.704 301.682 255.608 300.295C260.586 308.017 283.849 342.798 310.652 358.526ZM248.212 330.364C255.166 342.735 262.672 353.609 270.495 362.671C271.333 363.648 272.186 364.593 273.008 365.492C281.352 374.537 290.408 382.07 300.238 375.972C303.224 374.112 305.026 371.59 305.595 368.486C306.385 364.168 304.678 358.762 301.044 354.003C275.821 335.123 255.513 303.163 253.459 299.854C248.339 298.766 242.46 297.222 235.759 295.079C235.601 295.031 235.474 294.921 235.38 294.795C235.174 294.827 234.953 294.842 234.732 294.858C236.739 306.158 241.132 317.772 248.212 330.364ZM237.719 292.841C239.931 292.4 241.243 291.675 241.543 290.745C241.843 289.815 241.021 288.68 240.674 288.318C230.67 287.435 216.684 283.763 200.58 277.554C200.169 277.397 199.964 276.94 200.122 276.53C200.28 276.12 200.738 275.915 201.149 276.073C232.345 288.129 251.705 289.185 254.723 284C254.992 283.527 255.055 283.023 254.897 282.44C254.249 280.06 250.282 277.318 248.607 276.341C239.694 273.819 227.367 268.792 211.706 261.259C211.311 261.07 211.153 260.597 211.342 260.203C211.532 259.809 212.006 259.652 212.401 259.841C229.659 268.13 241.195 272.574 248.892 274.781C249.002 274.781 249.129 274.812 249.239 274.875C249.239 274.875 249.239 274.875 249.255 274.875C260.128 277.933 263.194 276.467 264.032 275.206C266.702 271.219 258.769 264.112 255.403 261.637C247.864 258.044 237.766 252.45 227.114 245.027C226.751 244.775 226.672 244.286 226.925 243.924C227.178 243.561 227.667 243.483 228.031 243.735C247.533 257.319 265.533 264.789 267.935 264.789C270.195 264.789 271.712 264.238 272.455 263.15C273.514 261.622 273.229 258.864 271.617 254.75C270.29 251.362 268.567 247.848 266.355 244.003C265.122 241.875 263.715 239.606 262.04 237.053C260.365 234.5 258.611 231.947 256.904 229.472C255.671 227.692 254.455 225.895 253.238 224.099C244.309 210.798 235.933 199.498 227.667 189.522C226.229 187.789 224.396 185.457 222.263 182.746C211.564 169.114 191.667 143.757 167.977 126.406C148.412 112.081 120.329 110.552 99.6899 122.687C84.9135 131.37 75.6052 145.507 72.7448 163.567C68.9677 187.395 77.0591 214.674 93.3526 233.066C123.127 266.649 176.085 283.464 176.606 283.637C205.005 292.699 228.189 294.764 237.719 292.841ZM146.152 338.764C144.572 350.63 143.15 355.658 140.558 358.636C138.978 360.449 135.469 361.473 131.408 362.671C128.942 363.396 126.398 364.136 124.249 365.098C118.054 367.855 116.647 375.278 116.426 376.744C115.636 381.976 116.505 384.797 119.065 385.38C122.273 386.105 123.174 384.56 123.221 384.466C123.237 384.45 123.253 384.434 123.253 384.419C122.621 378.871 124.723 371.417 128.658 369.29C131.392 367.824 134.568 366.926 137.619 366.059C138.33 365.854 139.041 365.649 139.736 365.444C140.163 365.318 140.59 365.555 140.716 365.98C140.842 366.39 140.605 366.831 140.179 366.957C139.483 367.162 138.772 367.367 138.045 367.572C135.074 368.423 131.992 369.29 129.401 370.676C126.256 372.363 124.043 379.171 124.865 384.686C125.118 386.452 125.955 389.509 128.579 390.045C133.336 391.022 134.695 387.334 134.758 387.176C134.758 387.161 134.774 387.145 134.79 387.129C134.726 386.53 134.711 385.931 134.758 385.301C135.232 378.84 135.817 370.787 144.967 368.139C145.394 368.013 145.821 368.265 145.947 368.675C146.073 369.1 145.836 369.526 145.41 369.652C137.318 372 136.797 379.139 136.323 385.49C136.165 387.697 136.86 389.777 138.219 391.053C139.357 392.141 140.89 392.582 142.66 392.361C145.694 391.983 146.721 387.57 147.622 383.678C148.081 381.708 148.507 379.864 149.187 378.588C150.103 376.87 151.383 375.814 152.995 375.451C155.967 374.774 159.017 376.728 159.696 377.201C162.225 377.642 164.406 378.02 166.191 378.304C167.298 378.477 168.594 378.682 170.063 378.919C172.228 369.526 165.528 365.933 161.482 363.758C161.055 363.537 160.676 363.317 160.328 363.128C155.682 360.48 155.745 355.484 156.52 350.473C157.341 345.02 162.32 321.413 163.236 317.11C161.845 317.299 160.392 317.41 158.843 317.41C154.781 317.41 151.273 316.858 148.239 315.96C148.081 318.387 147.559 328.252 146.152 338.764ZM78.3708 345.587C76.506 348.109 71.3224 349.638 66.7394 350.993C64.7481 351.576 62.8675 352.143 61.7296 352.663C60.2125 353.373 58.727 354.901 57.4311 357.092C55.0447 361.173 53.9069 366.595 54.7761 369.731C55.0605 370.739 55.5346 371.433 56.1826 371.78C59.3907 373.513 60.8288 371.906 60.9079 371.811C60.9869 371.701 61.0975 371.638 61.2081 371.59C61.2397 370.046 61.5242 368.517 61.7612 367.367L61.8245 367.036C62.5514 363.333 63.6577 357.738 67.9879 356.225C72.0178 354.807 75.8264 354.129 75.9845 354.098C76.4112 354.019 76.8221 354.302 76.9011 354.728C76.9801 355.153 76.6956 355.563 76.269 355.642C76.2373 355.642 72.4287 356.335 68.5094 357.706C65.0484 358.92 64.037 363.994 63.3732 367.335L63.31 367.666C62.5356 371.575 62.0931 375.499 65.9808 376.823C69.7263 378.099 71.1012 375.499 71.3698 374.837C71.3066 373.639 71.4489 372.268 71.7965 370.692L71.923 370.109C73.0292 364.972 74.2935 359.141 81.1839 357.155C81.6106 357.029 82.0373 357.281 82.1637 357.691C82.2901 358.116 82.0373 358.542 81.6264 358.668C75.6526 360.386 74.5938 365.271 73.4717 370.44L73.3453 371.023C72.5393 374.711 72.9186 377.059 74.5147 378.241C76.2373 379.502 78.7817 379.123 80.2514 378.036C82.8116 376.129 83.8231 372.646 84.8029 369.29C85.1506 368.076 85.4983 366.91 85.8933 365.854C86.3833 364.562 87.0628 363.616 87.9004 363.033C88.011 362.954 88.1375 362.876 88.2639 362.812C90.9821 361.363 94.0322 363.963 94.1586 364.073C94.1744 364.089 94.1902 364.121 94.206 364.136C97.5406 364.845 100.907 365.555 104.289 366.248C105.806 359.85 101.128 357.045 97.3351 354.775C96.4027 354.224 95.5335 353.704 94.8224 353.168C90.8715 350.173 90.8557 346.234 92.3254 338.496C93.5423 332.034 95.8654 319.632 96.545 316.039C95.9128 316.07 95.2807 316.102 94.6169 316.102C92.2306 316.102 89.623 315.834 86.7942 315.203C85.5615 314.936 84.392 314.589 83.3015 314.195C82.8275 319.9 80.7572 342.357 78.3708 345.587ZM87.1576 313.691C104.415 317.536 112.68 307.623 113.929 305.968C96.624 303.605 81.4525 298.94 68.4778 292.021C68.8887 296.513 71.4172 310.176 87.1576 313.691ZM63.6261 287.561C63.7841 287.593 63.9421 287.64 64.1002 287.688C64.3688 287.751 64.5585 287.955 64.6533 288.192C65.5857 288.743 66.5181 289.279 67.4821 289.815C67.5138 289.815 67.5612 289.799 67.5928 289.799C67.9247 289.799 68.2091 290.004 68.3197 290.288C84.5342 299.066 105.853 305.054 133.889 306.063C130.839 301.918 129.922 298.199 129.906 298.105C129.812 297.679 130.08 297.254 130.491 297.159C130.902 297.064 131.344 297.332 131.439 297.742C131.518 298.089 132.514 302.076 135.896 306.221C136.07 306.315 136.196 306.457 136.259 306.646C140.163 311.216 147.006 315.818 158.78 315.818C169.384 315.818 175.895 310.917 179.798 305.937C179.846 305.779 179.956 305.653 180.083 305.559C183.718 300.752 184.95 295.977 185.045 295.583C185.156 295.158 185.582 294.905 185.993 295C186.42 295.11 186.673 295.536 186.578 295.945C186.546 296.04 185.409 300.531 182.042 305.37C191.461 305.243 201.37 303.872 211.532 301.288C212.907 300.941 214.44 300.421 216.052 299.87C221.836 297.915 228.869 295.551 233.957 299.066C233.657 297.695 233.388 296.324 233.151 294.953C231.934 295.031 230.623 295.063 229.216 295.063C217.174 295.063 198.368 292.211 176.116 285.103C175.579 284.93 122.226 267.988 92.1516 234.074C75.542 215.352 67.3083 187.568 71.1644 163.283C73.3611 149.478 79.24 137.895 88.3745 129.196C80.2989 133.561 74.4515 137.501 70.9273 140.936C68.7306 143.08 66.5655 145.932 64.274 148.942C58.4267 156.617 51.8366 165.253 42.386 165.253C41.8487 165.253 41.3114 165.222 40.7582 165.174C37.7714 164.875 35.2428 163.409 33.2673 160.84C30.0276 156.648 28.463 149.604 28.7791 141.299C23.5955 156.065 17.4954 175.481 17.4954 200.002C17.4954 217.18 21.8097 261.968 63.6261 287.561ZM6.84369 217.354C8.18701 224.445 10.036 231.285 12.3434 237.683C18.7912 255.507 32.0821 277.869 59.0746 286.301C50.7145 280.612 43.4606 273.788 37.3446 265.861C18.001 240.788 15.915 211.491 15.915 200.05C15.915 172.739 23.3901 151.732 28.8581 136.398C29.032 135.909 29.2058 135.421 29.3796 134.932C29.4271 134.648 29.4587 134.365 29.5061 134.081C29.5377 133.845 29.6957 133.656 29.8853 133.529C30.3279 132.284 30.7388 131.102 31.118 129.968C28.2102 130.11 19.8185 131.575 13.9395 143.584C4.44156 163.047 1.78653 190.626 6.84369 217.354Z" fill="black"/>
<path d="M208.498 211.743C204.926 213.934 199.268 212.499 196.376 211.522C197.135 213.477 198.02 216.676 197.056 219.465C196.408 221.325 195.049 222.696 193.01 223.547C187.495 225.863 180.984 223.846 177.586 222.444C178.787 224.792 180.241 228.59 179.277 231.805C178.676 233.822 177.238 235.319 174.994 236.249C169.099 238.692 163.126 235.792 159.57 233.381C161.04 236.485 161.514 239.212 160.976 241.497C160.392 244.018 158.732 245.027 158.701 245.058C156.678 246.398 154.323 246.918 151.889 246.918C143.419 246.918 133.905 240.614 133.399 240.267C133.036 240.031 132.941 239.527 133.178 239.18C133.415 238.818 133.921 238.723 134.268 238.959C134.426 239.07 149.614 249.156 157.831 243.735C157.879 243.703 159.017 242.978 159.443 241.087C159.854 239.243 159.633 235.949 156.235 230.702C156.014 230.371 156.093 229.914 156.393 229.661C156.709 229.409 157.152 229.425 157.452 229.709C157.547 229.787 166.318 238.171 174.378 234.815C176.179 234.058 177.286 232.939 177.76 231.379C179.024 227.124 175.042 221.183 174.994 221.136C174.789 220.836 174.82 220.426 175.057 220.159C175.31 219.891 175.705 219.828 176.021 220.001C176.116 220.048 185.393 225.044 192.394 222.113C194.022 221.435 195.049 220.411 195.555 218.977C196.819 215.383 194.195 210.561 194.18 210.514C194.022 210.214 194.053 209.852 194.29 209.6C194.512 209.348 194.875 209.269 195.191 209.411C195.27 209.442 203.52 212.956 207.676 210.419C211.643 207.992 210.046 202.681 209.983 202.461C209.857 202.051 210.078 201.61 210.505 201.468C210.916 201.342 211.358 201.562 211.5 201.988C212.212 204.273 212.528 209.285 208.498 211.743Z" fill="black"/>
<path d="M61.7925 45.6709C60.6546 46.191 59.4377 46.4432 58.1576 46.4432C57.5255 46.4432 56.8775 46.3801 56.2296 46.254C50.8722 45.1666 48.5806 39.2884 48.7229 34.2927C48.8177 31.1408 50.0504 28.1623 52.01 26.3184C53.543 24.8843 55.4868 24.1752 57.6203 24.254C61.0971 24.38 64.1788 26.7912 65.854 30.6995C68.1929 36.0735 67.3079 43.1494 61.7925 45.6709ZM60.0541 39.3357C61.6028 39.3357 62.8513 38.0907 62.8513 36.5463C62.8513 35.0019 61.6028 33.7569 60.0541 33.7569C58.5053 33.7569 57.2568 35.0019 57.2568 36.5463C57.2568 38.0907 58.5053 39.3357 60.0541 39.3357ZM57.5729 25.8299C57.4781 25.8299 57.3833 25.8299 57.2884 25.8299C55.6765 25.8299 54.27 26.3815 53.1005 27.4689C51.4411 29.0291 50.3981 31.5821 50.3191 34.3242C50.2874 35.5219 50.4139 36.7669 50.6825 37.9804C50.7615 33.7569 54.2225 30.3686 58.4737 30.3686C61.4132 30.3686 63.9734 31.9918 65.3009 34.403C65.127 33.3314 64.8426 32.2912 64.4159 31.3142C62.9935 27.9889 60.4333 25.9402 57.5729 25.8299Z" fill="black"/>
</g>
<defs>
<clipPath id="clip0_424_1988">
<rect width="365" height="394" fill="white" transform="matrix(-1 0 0 1 365 0)"/>
</clipPath>
</defs>
</svg>
