<svg width="340" height="340" viewBox="0 0 340 340" fill="none" xmlns="http://www.w3.org/2000/svg">
<g clip-path="url(#clip0_424_2021)">
<path d="M320.987 174.253C320.987 173.968 320.987 173.682 320.987 173.397C320.987 172.997 320.987 172.54 320.987 172.141C320.987 171.513 320.93 170.828 320.93 170.199C320.93 169.629 320.873 169.058 320.873 168.487C320.873 168.201 320.816 167.859 320.816 167.573C320.816 167.459 320.816 167.345 320.816 167.173C320.816 166.66 320.759 166.203 320.702 165.689C320.702 165.518 320.702 165.404 320.645 165.232C320.645 164.833 320.587 164.49 320.587 164.09C320.53 163.634 320.53 163.177 320.473 162.72C320.473 162.606 320.473 162.549 320.473 162.435C320.416 162.035 320.416 161.578 320.359 161.178C320.359 160.893 320.302 160.665 320.302 160.379C320.188 159.237 320.074 158.095 319.902 156.953C319.845 156.383 319.731 155.812 319.674 155.241C319.617 154.841 319.56 154.441 319.503 153.985C319.388 153.185 319.274 152.386 319.103 151.529C319.046 151.244 318.989 150.959 318.989 150.73C318.932 150.33 318.875 149.988 318.818 149.588C318.76 149.303 318.703 149.017 318.646 148.732C318.589 148.561 318.589 148.332 318.532 148.161C318.475 147.761 318.361 147.362 318.304 146.962C318.247 146.733 318.189 146.505 318.189 146.277C318.132 145.934 318.075 145.592 317.961 145.249C317.961 145.078 317.904 144.964 317.847 144.792C317.733 144.336 317.676 143.936 317.561 143.536C317.219 141.88 316.819 140.225 316.362 138.569C316.248 138.112 316.134 137.598 316.02 137.142C315.906 136.799 315.849 136.456 315.734 136.114C315.62 135.714 315.506 135.315 315.392 134.915C315.278 134.515 315.163 134.173 315.049 133.773C315.049 133.716 315.049 133.716 314.992 133.659C314.878 133.259 314.764 132.859 314.65 132.403C314.535 131.946 314.364 131.489 314.25 131.09C314.136 130.633 313.964 130.233 313.85 129.833C313.736 129.548 313.679 129.262 313.565 128.977C313.565 128.92 313.508 128.806 313.508 128.749C313.336 128.292 313.222 127.835 313.051 127.378C312.309 125.209 311.566 123.096 310.71 120.984C310.539 120.527 310.367 120.07 310.196 119.613C310.196 119.556 310.139 119.499 310.139 119.442C309.911 118.928 309.739 118.472 309.511 117.958C309.34 117.501 309.168 117.101 308.94 116.645C308.883 116.473 308.769 116.245 308.712 116.074C308.598 115.788 308.426 115.446 308.312 115.16C308.255 114.989 308.141 114.76 308.027 114.589C307.855 114.189 307.684 113.79 307.513 113.39C307.284 112.876 307.056 112.419 306.828 111.906C305.629 109.336 304.372 106.824 303.059 104.369C302.831 103.969 302.603 103.57 302.431 103.17C302.431 103.113 302.374 103.056 302.374 103.056C302.146 102.599 301.86 102.142 301.632 101.686C301.346 101.229 301.118 100.772 300.833 100.315C300.833 100.258 300.776 100.201 300.718 100.144C300.433 99.6873 300.205 99.2877 299.919 98.8309C299.577 98.26 299.234 97.6319 298.834 97.061C298.035 95.8049 297.236 94.4917 296.436 93.2356C295.808 92.3221 295.237 91.4086 294.609 90.495C294.381 90.2096 294.21 89.867 293.981 89.5815C293.753 89.2961 293.582 88.9535 293.353 88.668C293.296 88.5538 293.182 88.4396 293.125 88.3254C292.896 87.9829 292.611 87.6403 292.383 87.2977C292.325 87.1835 292.211 87.0694 292.154 86.9552C291.926 86.6126 291.697 86.27 291.412 85.9275C290.498 84.6714 289.528 83.4153 288.557 82.2163C287.986 81.4741 287.415 80.7889 286.844 80.0467C286.502 79.647 286.159 79.1903 285.817 78.7906C285.474 78.3909 285.132 77.9913 284.846 77.5916C284.789 77.5345 284.789 77.5345 284.732 77.4774C284.389 77.0777 284.047 76.6781 283.704 76.2784C283.419 75.9359 283.133 75.6504 282.848 75.3078C282.619 75.0794 282.448 74.851 282.22 74.6227C281.991 74.3372 281.763 74.1088 281.477 73.8233C281.135 73.4237 280.735 73.024 280.393 72.6243C279.993 72.2247 279.65 71.825 279.251 71.4254C278.509 70.626 277.766 69.8838 276.967 69.0845C276.567 68.6848 276.225 68.3422 275.825 67.9426C275.425 67.5429 275.026 67.2003 274.626 66.8007C274.226 66.401 273.827 66.0584 273.427 65.6588C273.027 65.3162 272.628 64.9165 272.285 64.574L272.228 64.5169C271.886 64.1743 271.486 63.8317 271.143 63.5463C271.086 63.4892 271.086 63.4892 271.029 63.4321C270.629 63.0895 270.287 62.7469 269.887 62.4615C269.83 62.4044 269.773 62.3473 269.716 62.2902C269.373 61.9476 268.974 61.6621 268.574 61.3196C267.775 60.6344 266.918 59.8922 266.062 59.2071C265.205 58.5219 264.349 57.8368 263.493 57.1516C263.093 56.8091 262.636 56.4665 262.179 56.1239C261.723 55.7814 261.323 55.4388 260.866 55.1533C260.524 54.8678 260.124 54.5824 259.781 54.354C259.667 54.2969 259.553 54.1827 259.439 54.0685C259.039 53.783 258.639 53.4976 258.24 53.2121C257.783 52.8695 257.326 52.584 256.927 52.2415C254.243 50.3573 251.503 48.5303 248.705 46.8175C242.196 42.8208 235.288 39.338 228.151 36.3691C218.445 32.3154 208.282 29.2893 197.662 27.3481C197.091 27.2339 196.52 27.1197 196.006 27.0626C195.435 26.9484 194.865 26.8914 194.351 26.7772C193.38 26.6059 192.409 26.4917 191.439 26.3204C184.473 25.3498 177.393 24.8359 170.142 24.8359C86.7839 24.8359 19.1836 92.4363 19.1836 175.795C19.1836 200.802 25.2357 224.383 36.0266 245.108C38.4817 249.847 41.1651 254.414 44.077 258.811C44.8763 260.067 45.7327 261.323 46.5891 262.522C46.6462 262.579 46.6462 262.636 46.7033 262.693C47.103 263.264 47.5597 263.892 47.9594 264.463C48.4162 265.091 48.8729 265.719 49.3297 266.29C49.7294 266.861 50.129 267.375 50.5858 267.946C50.7 268.117 50.8142 268.231 50.9283 268.403C51.328 268.917 51.7277 269.43 52.1273 269.944C53.5547 271.714 54.9821 273.427 56.4665 275.14C56.5236 275.197 56.5807 275.254 56.6378 275.311C57.0946 275.825 57.4943 276.339 57.951 276.796C58.0081 276.853 58.0652 276.91 58.1223 276.967C59.0929 278.109 60.1206 279.194 61.2054 280.278C61.6622 280.735 62.1189 281.249 62.5757 281.706C62.6899 281.82 62.8041 281.991 62.9754 282.105C63.4321 282.562 63.946 283.076 64.4027 283.533C64.9166 284.047 65.4304 284.561 66.0014 285.074L66.0585 285.131C66.5723 285.645 67.1433 286.159 67.7142 286.673C67.7713 286.73 67.8284 286.787 67.8855 286.787C68.3423 287.244 68.8561 287.644 69.3129 288.1C69.37 288.158 69.4842 288.215 69.5413 288.329C70.0551 288.786 70.5119 289.242 71.0257 289.642C71.1399 289.756 71.2541 289.87 71.3683 289.927C72.4531 290.841 73.5379 291.812 74.6798 292.668C75.2508 293.125 75.8788 293.639 76.4498 294.095C77.0778 294.552 77.6488 295.066 78.2768 295.523C78.3339 295.58 78.391 295.58 78.391 295.637C78.9619 296.094 79.5329 296.493 80.1038 296.893C80.6748 297.35 81.3028 297.749 81.8738 298.206C81.9309 298.263 81.988 298.263 81.988 298.32C82.5589 298.777 83.187 299.177 83.7579 299.577C85.642 300.89 87.5262 302.146 89.5245 303.402C90.1525 303.802 90.8377 304.201 91.4657 304.601C92.7789 305.4 94.0921 306.199 95.4624 306.942C96.1475 307.341 96.7755 307.684 97.4607 308.084C97.8032 308.255 98.1458 308.483 98.4884 308.655C98.8309 308.826 99.1735 308.997 99.5161 309.226C99.8016 309.397 100.144 309.568 100.43 309.682C100.544 309.739 100.601 309.796 100.715 309.854C101.001 310.025 101.286 310.139 101.571 310.31C102.314 310.71 103.113 311.11 103.912 311.452C104.54 311.738 105.111 312.023 105.739 312.309C106.082 312.48 106.425 312.651 106.767 312.823C107.11 312.994 107.452 313.165 107.795 313.279C108.137 313.451 108.48 313.622 108.88 313.736C109.565 314.021 110.307 314.364 110.992 314.65C111.335 314.821 111.677 314.935 112.077 315.106C112.819 315.392 113.504 315.677 114.247 315.963C114.589 316.134 114.989 316.248 115.331 316.419C116.074 316.705 116.759 316.99 117.501 317.276C117.844 317.39 118.243 317.561 118.586 317.676C118.928 317.79 119.328 317.961 119.671 318.075C120.013 318.189 120.413 318.361 120.755 318.475C121.498 318.703 122.24 318.989 122.982 319.217C123.325 319.331 123.61 319.445 123.953 319.503C124.752 319.731 125.551 320.016 126.351 320.245C126.693 320.359 127.036 320.473 127.378 320.587C127.493 320.645 127.607 320.645 127.721 320.702C128.292 320.873 128.92 321.044 129.491 321.215C129.662 321.273 129.833 321.33 130.005 321.33C130.29 321.387 130.576 321.501 130.861 321.558C131.261 321.672 131.661 321.786 132.06 321.901C132.289 321.958 132.574 322.015 132.802 322.072C133.145 322.186 133.488 322.243 133.83 322.3C134.058 322.357 134.287 322.414 134.515 322.472C135.029 322.586 135.543 322.7 136 322.814C136.571 322.928 137.142 323.042 137.713 323.214C139.083 323.499 140.453 323.785 141.823 324.07C142.28 324.184 142.794 324.241 143.251 324.356C143.365 324.356 143.479 324.413 143.536 324.413C144.05 324.527 144.507 324.584 145.021 324.641C146.106 324.812 147.247 324.984 148.332 325.155C148.675 325.212 148.96 325.269 149.303 325.269C150.273 325.383 151.244 325.498 152.215 325.612C152.5 325.669 152.729 325.669 153.014 325.726C153.528 325.783 153.985 325.84 154.498 325.897C154.613 325.897 154.727 325.897 154.898 325.954C155.355 326.011 155.869 326.069 156.325 326.069C156.839 326.126 157.41 326.183 157.924 326.183C158.267 326.183 158.609 326.24 158.952 326.24C159.523 326.297 160.094 326.297 160.608 326.354C161.064 326.411 161.578 326.411 162.035 326.411C162.206 326.411 162.435 326.411 162.606 326.411C163.12 326.411 163.634 326.468 164.147 326.468C164.776 326.468 165.461 326.525 166.089 326.525C166.66 326.525 167.288 326.525 167.859 326.582C167.973 326.582 168.087 326.582 168.258 326.582C168.829 326.582 169.457 326.582 170.028 326.582C253.387 326.582 320.987 258.982 320.987 175.624C320.987 175.395 320.987 174.824 320.987 174.253ZM118.472 196.178C107.338 196.178 98.26 187.157 98.26 175.966C98.26 164.833 107.281 155.754 118.472 155.754C129.662 155.754 138.683 164.775 138.683 175.966C138.683 187.157 129.605 196.178 118.472 196.178ZM170.028 247.734C158.895 247.734 149.817 238.713 149.817 227.523C149.817 216.389 158.838 207.311 170.028 207.311C181.162 207.311 190.24 216.332 190.24 227.523C190.24 238.656 181.162 247.734 170.028 247.734ZM170.028 144.678C158.895 144.678 149.817 135.657 149.817 124.466C149.817 113.333 158.838 104.255 170.028 104.255C181.162 104.255 190.24 113.276 190.24 124.466C190.24 135.6 181.162 144.678 170.028 144.678ZM221.528 196.178C210.394 196.178 201.316 187.157 201.316 175.966C201.316 164.833 210.337 155.754 221.528 155.754C232.661 155.754 241.739 164.775 241.739 175.966C241.739 187.157 232.718 196.178 221.528 196.178Z" fill="#AF2D27"/>
<path d="M170.029 0C76.1075 0 0 76.1075 0 170.029C0 263.95 76.1075 340.057 170.029 340.057C263.95 340.057 340.057 263.95 340.057 170.029C340 76.1075 263.893 0 170.029 0ZM118.472 190.24C107.338 190.24 98.2603 181.219 98.2603 170.029C98.2603 158.895 107.281 149.817 118.472 149.817C129.662 149.817 138.683 158.838 138.683 170.029C138.683 181.162 129.605 190.24 118.472 190.24ZM170.029 241.74C158.895 241.74 149.817 232.719 149.817 221.528C149.817 210.395 158.838 201.317 170.029 201.317C181.162 201.317 190.24 210.338 190.24 221.528C190.24 232.719 181.162 241.74 170.029 241.74ZM170.029 138.683C158.895 138.683 149.817 129.662 149.817 118.472C149.817 107.338 158.838 98.2603 170.029 98.2603C181.162 98.2603 190.24 107.281 190.24 118.472C190.24 129.605 181.162 138.683 170.029 138.683ZM221.528 190.24C210.395 190.24 201.317 181.219 201.317 170.029C201.317 158.895 210.338 149.817 221.528 149.817C232.662 149.817 241.74 158.838 241.74 170.029C241.74 181.162 232.719 190.24 221.528 190.24Z" fill="#CF473C"/>
<path d="M170.028 14.8447C84.3282 14.8447 14.8438 84.3292 14.8438 170.029C14.8438 255.728 84.3282 325.155 169.971 325.155C255.613 325.155 325.097 255.671 325.097 170.029C325.097 84.3863 255.67 14.8447 170.028 14.8447ZM118.471 190.24C107.337 190.24 98.2594 181.219 98.2594 170.029C98.2594 158.895 107.28 149.817 118.471 149.817C129.662 149.817 138.683 158.838 138.683 170.029C138.683 181.162 129.604 190.24 118.471 190.24ZM170.028 241.74C158.894 241.74 149.816 232.719 149.816 221.528C149.816 210.395 158.837 201.317 170.028 201.317C181.161 201.317 190.239 210.338 190.239 221.528C190.239 232.719 181.161 241.74 170.028 241.74ZM170.028 138.684C158.894 138.684 149.816 129.663 149.816 118.472C149.816 107.338 158.837 98.2603 170.028 98.2603C181.161 98.2603 190.239 107.281 190.239 118.472C190.239 129.605 181.161 138.684 170.028 138.684ZM221.527 190.24C210.394 190.24 201.316 181.219 201.316 170.029C201.316 158.895 210.337 149.817 221.527 149.817C232.661 149.817 241.739 158.838 241.739 170.029C241.739 181.162 232.718 190.24 221.527 190.24Z" fill="#AF2D27"/>
<path d="M320.987 168.259C320.987 167.974 320.987 167.688 320.987 167.403C320.987 167.003 320.987 166.546 320.987 166.147C320.987 165.519 320.93 164.833 320.93 164.205C320.93 163.634 320.873 163.063 320.873 162.493C320.873 162.207 320.816 161.864 320.816 161.579C320.816 161.465 320.816 161.351 320.816 161.179C320.816 160.665 320.759 160.209 320.702 159.695C320.702 159.524 320.702 159.409 320.645 159.238C320.645 158.838 320.587 158.496 320.587 158.096C320.53 157.639 320.53 157.183 320.473 156.726C320.473 156.612 320.473 156.555 320.473 156.44C320.416 156.041 320.416 155.584 320.359 155.184C320.359 154.899 320.302 154.671 320.302 154.385C320.188 153.243 320.074 152.101 319.902 150.959C319.845 150.388 319.731 149.817 319.674 149.246C319.617 148.847 319.56 148.447 319.503 147.99C319.388 147.191 319.274 146.392 319.103 145.535C319.046 145.25 318.989 144.964 318.989 144.736C318.932 144.336 318.875 143.994 318.818 143.594C318.76 143.309 318.703 143.023 318.646 142.738C318.589 142.566 318.589 142.338 318.532 142.167C318.475 141.767 318.361 141.367 318.304 140.968C318.247 140.739 318.189 140.511 318.189 140.283C318.132 139.94 318.075 139.597 317.961 139.255C317.961 139.084 317.904 138.969 317.847 138.798C317.733 138.341 317.676 137.942 317.561 137.542C317.219 135.886 316.819 134.231 316.362 132.575C316.248 132.118 316.134 131.604 316.02 131.147C315.906 130.805 315.849 130.462 315.734 130.12C315.62 129.72 315.506 129.32 315.392 128.921C315.278 128.521 315.163 128.178 315.049 127.779C315.049 127.722 315.049 127.722 314.992 127.665C314.878 127.265 314.764 126.865 314.65 126.409C314.535 125.952 314.364 125.495 314.25 125.095C314.136 124.639 313.964 124.239 313.85 123.839C313.736 123.554 313.679 123.268 313.565 122.983C313.565 122.926 313.508 122.812 313.508 122.754C313.336 122.298 313.222 121.841 313.051 121.384C312.309 119.215 311.566 117.102 310.71 114.99C310.539 114.533 310.367 114.076 310.196 113.619C310.196 113.562 310.139 113.505 310.139 113.448C309.911 112.934 309.739 112.477 309.511 111.964C309.34 111.507 309.168 111.107 308.94 110.65C308.883 110.479 308.769 110.251 308.712 110.079C308.598 109.794 308.426 109.451 308.312 109.166C308.255 108.995 308.141 108.766 308.027 108.595C307.855 108.195 307.684 107.796 307.513 107.396C307.284 106.882 307.056 106.425 306.828 105.911C305.629 103.342 304.372 100.83 303.059 98.375C302.831 97.9753 302.603 97.5756 302.431 97.176C302.431 97.1189 302.374 97.0618 302.374 97.0618C302.146 96.605 301.86 96.1483 301.632 95.6915C301.346 95.2347 301.118 94.778 300.833 94.3212C300.833 94.2641 300.776 94.207 300.718 94.1499C300.433 93.6932 300.205 93.2935 299.919 92.8368C299.577 92.2658 299.234 91.6378 298.834 91.0668C298.035 89.8107 297.236 88.4976 296.436 87.2415C295.808 86.3279 295.237 85.4144 294.609 84.5009C294.381 84.2154 294.21 83.8729 293.981 83.5874C293.753 83.3019 293.582 82.9593 293.353 82.6739C293.296 82.5597 293.182 82.4455 293.125 82.3313C292.896 81.9887 292.611 81.6462 292.383 81.3036C292.325 81.1894 292.211 81.0752 292.154 80.961C291.926 80.6185 291.697 80.2759 291.412 79.9333C290.498 78.6772 289.528 77.4211 288.557 76.2221C287.986 75.4799 287.415 74.7948 286.844 74.0525C286.502 73.6529 286.159 73.1961 285.817 72.7965C285.474 72.3968 285.132 71.9971 284.846 71.5975C284.789 71.5404 284.789 71.5404 284.732 71.4833C284.389 71.0836 284.047 70.6839 283.704 70.2843C283.419 69.9417 283.133 69.6562 282.848 69.3137C282.619 69.0853 282.448 68.8569 282.22 68.6285C281.991 68.3431 281.763 68.1147 281.477 67.8292C281.135 67.4295 280.735 67.0299 280.393 66.6302C279.993 66.2305 279.65 65.8309 279.251 65.4312C278.509 64.6319 277.766 63.8897 276.967 63.0903C276.567 62.6907 276.225 62.3481 275.825 61.9484C275.425 61.5488 275.026 61.2062 274.626 60.8065C274.226 60.4069 273.827 60.0643 273.427 59.6646C273.027 59.3221 272.628 58.9224 272.285 58.5798L272.228 58.5227C271.886 58.1802 271.486 57.8376 271.143 57.5521C271.086 57.495 271.086 57.495 271.029 57.4379C270.629 57.0954 270.287 56.7528 269.887 56.4673C269.83 56.4102 269.773 56.3531 269.716 56.296C269.373 55.9535 268.974 55.668 268.574 55.3254C267.775 54.6403 266.918 53.898 266.062 53.2129C265.205 52.5278 264.349 51.8426 263.493 51.1575C263.093 50.8149 262.636 50.4724 262.179 50.1298C261.723 49.7872 261.323 49.4447 260.866 49.1592C260.524 48.8737 260.124 48.5882 259.781 48.3598C259.667 48.3028 259.553 48.1886 259.439 48.0744C259.039 47.7889 258.639 47.5034 258.24 47.2179C257.783 46.8754 257.326 46.5899 256.927 46.2473C254.243 44.3632 251.503 42.5362 248.705 40.8233C242.196 36.8267 235.288 33.3439 228.151 30.375C218.445 26.3212 208.282 23.2952 197.662 21.354C197.091 21.2398 196.52 21.1256 196.006 21.0685C195.435 20.9543 194.865 20.8972 194.351 20.783C193.38 20.6117 192.409 20.4975 191.439 20.3263C184.473 19.3556 177.393 18.8418 170.142 18.8418C86.7839 18.8418 19.1836 86.4421 19.1836 169.801C19.1836 194.808 25.2357 218.388 36.0266 239.114C38.4817 243.853 41.1651 248.42 44.077 252.817C44.8763 254.073 45.7327 255.329 46.5891 256.528C46.6462 256.585 46.6462 256.642 46.7033 256.699C47.103 257.27 47.5597 257.898 47.9594 258.469C48.4162 259.097 48.8729 259.725 49.3297 260.296C49.7294 260.867 50.129 261.381 50.5858 261.952C50.7 262.123 50.8142 262.237 50.9283 262.409C51.328 262.922 51.7277 263.436 52.1273 263.95C53.5547 265.72 54.9821 267.433 56.4665 269.146C56.5236 269.203 56.5807 269.26 56.6378 269.317C57.0946 269.831 57.4943 270.345 57.951 270.801C58.0081 270.859 58.0652 270.916 58.1223 270.973C59.0929 272.115 60.1206 273.199 61.2054 274.284C61.6622 274.741 62.1189 275.255 62.5757 275.712C62.6899 275.826 62.8041 275.997 62.9754 276.111C63.4321 276.568 63.946 277.082 64.4027 277.539C64.9166 278.053 65.4304 278.566 66.0014 279.08L66.0585 279.137C66.5723 279.651 67.1433 280.165 67.7142 280.679C67.7713 280.736 67.8284 280.793 67.8855 280.793C68.3423 281.25 68.8561 281.65 69.3129 282.106C69.37 282.163 69.4842 282.22 69.5413 282.335C70.0551 282.791 70.5119 283.248 71.0257 283.648C71.1399 283.762 71.2541 283.876 71.3683 283.933C72.4531 284.847 73.5379 285.817 74.6798 286.674C75.2508 287.131 75.8788 287.645 76.4498 288.101C77.0778 288.558 77.6488 289.072 78.2768 289.529C78.3339 289.586 78.391 289.586 78.391 289.643C78.9619 290.1 79.5329 290.499 80.1038 290.899C80.6748 291.356 81.3028 291.755 81.8738 292.212C81.9309 292.269 81.988 292.269 81.988 292.326C82.5589 292.783 83.187 293.183 83.7579 293.582C85.642 294.896 87.5262 296.152 89.5245 297.408C90.1525 297.807 90.8377 298.207 91.4657 298.607C92.7789 299.406 94.0921 300.205 95.4624 300.948C96.1475 301.347 96.7755 301.69 97.4607 302.089C97.8032 302.261 98.1458 302.489 98.4884 302.66C98.8309 302.832 99.1735 303.003 99.5161 303.231C99.8016 303.403 100.144 303.574 100.43 303.688C100.544 303.745 100.601 303.802 100.715 303.859C101.001 304.031 101.286 304.145 101.571 304.316C102.314 304.716 103.113 305.116 103.912 305.458C104.54 305.744 105.111 306.029 105.739 306.315C106.082 306.486 106.425 306.657 106.767 306.828C107.11 307 107.452 307.171 107.795 307.285C108.137 307.456 108.48 307.628 108.88 307.742C109.565 308.027 110.307 308.37 110.992 308.655C111.335 308.827 111.677 308.941 112.077 309.112C112.819 309.398 113.504 309.683 114.247 309.969C114.589 310.14 114.989 310.254 115.331 310.425C116.074 310.711 116.759 310.996 117.501 311.282C117.844 311.396 118.243 311.567 118.586 311.681C118.928 311.796 119.328 311.967 119.671 312.081C120.013 312.195 120.413 312.367 120.755 312.481C121.498 312.709 122.24 312.995 122.982 313.223C123.325 313.337 123.61 313.451 123.953 313.508C124.752 313.737 125.551 314.022 126.351 314.251C126.693 314.365 127.036 314.479 127.378 314.593C127.493 314.65 127.607 314.65 127.721 314.707C128.292 314.879 128.92 315.05 129.491 315.221C129.662 315.278 129.833 315.335 130.005 315.335C130.29 315.393 130.576 315.507 130.861 315.564C131.261 315.678 131.661 315.792 132.06 315.906C132.289 315.964 132.574 316.021 132.802 316.078C133.145 316.192 133.488 316.249 133.83 316.306C134.058 316.363 134.287 316.42 134.515 316.477C135.029 316.592 135.543 316.706 136 316.82C136.571 316.934 137.142 317.048 137.713 317.22C139.083 317.505 140.453 317.791 141.823 318.076C142.28 318.19 142.794 318.247 143.251 318.362C143.365 318.362 143.479 318.419 143.536 318.419C144.05 318.533 144.507 318.59 145.021 318.647C146.106 318.818 147.247 318.99 148.332 319.161C148.675 319.218 148.96 319.275 149.303 319.275C150.273 319.389 151.244 319.503 152.215 319.618C152.5 319.675 152.729 319.675 153.014 319.732C153.528 319.789 153.985 319.846 154.498 319.903C154.613 319.903 154.727 319.903 154.898 319.96C155.355 320.017 155.869 320.074 156.325 320.074C156.839 320.131 157.41 320.189 157.924 320.189C158.267 320.189 158.609 320.246 158.952 320.246C159.523 320.303 160.094 320.303 160.608 320.36C161.064 320.417 161.578 320.417 162.035 320.417C162.206 320.417 162.435 320.417 162.606 320.417C163.12 320.417 163.634 320.474 164.147 320.474C164.776 320.474 165.461 320.531 166.089 320.531C166.66 320.531 167.288 320.531 167.859 320.588C167.973 320.588 168.087 320.588 168.258 320.588C168.829 320.588 169.457 320.588 170.028 320.588C253.387 320.588 320.987 252.988 320.987 169.629C320.987 169.401 320.987 168.83 320.987 168.259ZM118.472 190.241C107.338 190.241 98.26 181.22 98.26 170.029C98.26 158.896 107.281 149.817 118.472 149.817C129.662 149.817 138.683 158.838 138.683 170.029C138.683 181.163 129.605 190.241 118.472 190.241ZM170.028 241.74C158.895 241.74 149.817 232.719 149.817 221.529C149.817 210.395 158.838 201.317 170.028 201.317C181.162 201.317 190.24 210.338 190.24 221.529C190.24 232.719 181.162 241.74 170.028 241.74ZM170.028 138.684C158.895 138.684 149.817 129.663 149.817 118.472C149.817 107.339 158.838 98.2608 170.028 98.2608C181.162 98.2608 190.24 107.282 190.24 118.472C190.24 129.606 181.162 138.684 170.028 138.684ZM221.528 190.241C210.394 190.241 201.316 181.22 201.316 170.029C201.316 158.896 210.337 149.817 221.528 149.817C232.661 149.817 241.739 158.838 241.739 170.029C241.739 181.163 232.718 190.241 221.528 190.241Z" fill="#CF473C"/>
<path opacity="0.15" d="M208.11 89.867C208.11 173.226 140.51 240.826 57.1511 240.826C56.5802 240.826 55.9521 240.826 55.3812 240.826C55.267 240.826 55.1528 240.826 55.0386 240.826C54.4676 240.826 53.8396 240.826 53.2686 240.769C52.6406 240.769 51.9555 240.712 51.3274 240.712C50.8136 240.712 50.2997 240.655 49.7859 240.655C49.6146 240.655 49.3862 240.655 49.2149 240.597C48.7581 240.597 48.2443 240.54 47.7875 240.54C47.2166 240.483 46.6456 240.483 46.1318 240.426C45.7892 240.426 45.4466 240.369 45.1041 240.369C44.5902 240.312 44.0193 240.312 43.5054 240.255C42.9916 240.198 42.5348 240.141 42.078 240.141C41.9639 240.141 41.8497 240.141 41.6784 240.084C41.1645 240.027 40.7078 239.969 40.1939 239.912C39.9084 239.912 39.6801 239.855 39.3946 239.798C38.424 239.684 37.4534 239.57 36.4828 239.456C36.3115 239.456 36.1402 239.398 35.9689 239.398C25.1209 218.559 19.0117 194.979 19.0117 170.028C19.0117 86.6697 86.6121 19.0693 169.971 19.0693C177.222 19.0693 184.301 19.5832 191.267 20.5538C192.18 22.2666 193.037 24.0366 193.893 25.8065C194.122 26.3204 194.35 26.7771 194.578 27.291C194.75 27.6907 194.921 28.0903 195.092 28.49C195.207 28.6613 195.264 28.8897 195.321 29.0609C195.435 29.3464 195.606 29.689 195.72 29.9745C195.835 30.1457 195.892 30.3741 195.949 30.5454C196.12 31.0022 196.348 31.4018 196.52 31.8586C196.748 32.3724 196.919 32.8292 197.148 33.3431C197.148 33.4002 197.205 33.4572 197.205 33.5143C197.376 33.9711 197.547 34.4279 197.719 34.8846C198.518 36.9971 199.317 39.1096 200.06 41.2792C200.231 41.736 200.345 42.1928 200.516 42.6495C200.516 42.7066 200.573 42.8208 200.573 42.8779C200.688 43.1634 200.745 43.4488 200.859 43.7343C200.973 44.134 201.144 44.5907 201.259 44.9904C201.43 45.4472 201.544 45.9039 201.658 46.3036C201.772 46.7033 201.887 47.1029 202.001 47.5597C202.001 47.6168 202.001 47.6168 202.058 47.6739C202.172 48.0735 202.286 48.4161 202.4 48.8158C202.515 49.2154 202.629 49.6151 202.743 50.0148C202.857 50.3573 202.914 50.6999 203.029 51.0425C203.143 51.4992 203.257 51.956 203.371 52.4698C203.771 54.1256 204.17 55.7813 204.57 57.4371C204.684 57.8939 204.741 58.2935 204.856 58.6932C204.913 58.8645 204.913 58.9787 204.97 59.1499C205.027 59.4925 205.141 59.8351 205.198 60.1776C205.255 60.406 205.312 60.6344 205.312 60.8628C205.369 61.2624 205.484 61.6621 205.541 62.0618C205.598 62.2331 205.598 62.4614 205.655 62.6327C205.712 62.9182 205.769 63.2037 205.826 63.4891C205.883 63.8317 205.94 64.2314 205.997 64.631C206.055 64.9165 206.112 65.202 206.112 65.4304C206.226 66.2297 206.34 67.029 206.511 67.8855C206.568 68.2851 206.625 68.6848 206.683 69.1415C206.74 69.7125 206.854 70.2834 206.911 70.8544C207.082 71.9963 207.196 73.1382 207.311 74.2801C207.311 74.5656 207.368 74.7939 207.368 75.0794C207.425 75.4791 207.425 75.9358 207.482 76.3355C207.482 76.4497 207.482 76.5068 207.482 76.621C207.539 77.0777 207.539 77.5345 207.596 77.9913C207.653 78.3909 207.653 78.7335 207.653 79.1332C207.653 79.3044 207.653 79.4186 207.71 79.5899C207.767 80.1038 207.767 80.5605 207.824 81.0744C207.824 81.1886 207.824 81.3027 207.824 81.474C207.824 81.7595 207.882 82.1021 207.882 82.3876C207.882 82.9585 207.939 83.5295 207.939 84.1004C207.939 84.7284 207.996 85.4136 207.996 86.0416C207.996 86.4413 207.996 86.898 207.996 87.2977C207.996 87.5832 207.996 87.8687 207.996 88.1541C208.11 88.668 208.11 89.2389 208.11 89.867Z" fill="white"/>
<path opacity="0.32" d="M170.028 31.0026C251.388 31.0026 317.732 95.4057 320.872 175.967C320.929 173.968 320.987 171.97 320.987 169.972C320.987 86.613 253.386 19.0127 170.028 19.0127C86.6692 19.0127 19.0117 86.613 19.0117 170.029C19.0117 172.027 19.0688 174.025 19.1259 176.024C22.3232 95.4056 88.6104 31.0026 170.028 31.0026Z" fill="white"/>
</g>
<defs>
<clipPath id="clip0_424_2021">
<rect width="340" height="340" fill="white"/>
</clipPath>
</defs>
</svg>
