<svg width="213" height="344" viewBox="0 0 213 344" fill="none" xmlns="http://www.w3.org/2000/svg">
<g clip-path="url(#clip0_502_1438)">
<path d="M209.411 133.76C210.75 137.716 210.788 142.583 210.788 146.5C210.827 157.96 210.808 169.42 210.691 180.88C210.458 203.859 209.799 226.857 208.227 249.777C207.431 261.276 206.422 272.737 205.102 284.177C204.501 289.452 203.958 294.784 202.968 300.02C202.133 304.441 200.814 308.998 197.903 312.527C194.876 316.192 190.49 318.112 186.007 319.372C180.903 320.807 175.625 321.719 170.443 322.805C159.033 325.209 147.603 327.614 136.192 330.018C124.762 332.423 113.351 334.827 101.94 337.232C96.4678 338.376 91.0147 339.597 85.5422 340.683C81.4864 341.498 77.2947 342.06 73.1418 341.672C71.3565 341.517 69.5711 341.11 67.941 340.431C67.4947 340.218 67.0483 340.005 66.602 339.772C65.2242 339.016 64.0016 337.988 63.0119 336.689C60.1786 332.907 60.0428 327.885 60.101 323.367C60.2368 311.829 60.5667 300.291 60.7996 288.773C61.2848 265.484 61.7699 242.195 62.2356 218.887C62.7208 195.598 63.1865 172.309 63.6717 149.001C63.7493 145.685 63.8075 142.369 63.8852 139.034C82.8254 137.851 101.785 136.862 120.745 136.087C139.801 135.292 158.877 134.691 177.953 134.283C188.433 134.031 198.912 133.876 209.411 133.76ZM73.0836 175.199C74.0733 176.362 75.4317 177.254 76.9066 177.642C78.8472 178.146 80.8654 177.778 82.7478 177.215C84.6884 176.634 86.5901 175.858 88.5696 175.393C90.5296 174.947 92.5284 174.695 94.5466 174.559C103.493 173.977 112.788 175.684 121.424 172.542C121.89 172.368 122.006 171.902 121.87 171.553C122.181 171.379 122.414 170.971 122.2 170.545C120.783 167.597 117.446 166.434 114.399 166.085C110.479 165.658 106.501 166.337 102.619 166.88C98.7577 167.423 94.7407 167.946 90.8789 167.132C89.0159 166.744 87.347 165.969 85.6781 165.096C84.048 164.243 82.3791 163.312 80.5549 162.924C77.2947 162.245 74.0345 163.661 72.2685 166.473C70.522 169.246 70.9877 172.736 73.0836 175.199Z" fill="#78BCBE"/>
<path d="M210.051 132.306C210.982 132.306 210.982 133.741 210.051 133.76C209.837 133.76 209.624 133.76 209.41 133.76C209.236 133.256 209.061 132.771 208.848 132.306C209.236 132.325 209.643 132.306 210.051 132.306Z" fill="#1D1D1B"/>
<path d="M209.41 133.76C198.911 133.857 188.432 134.031 177.934 134.245C158.858 134.652 139.801 135.253 120.725 136.048C101.765 136.843 82.8055 137.832 63.8652 138.995C63.8652 138.511 63.8846 138.026 63.8846 137.541C74.4609 136.882 85.0372 136.281 95.6134 135.757C114.67 134.788 133.727 134.012 152.803 133.43C171.471 132.868 190.14 132.48 208.808 132.286C209.041 132.79 209.235 133.275 209.41 133.76Z" fill="#1D1D1B"/>
<path d="M205.684 17.1219C206.422 18.5956 206.926 20.1857 207.275 21.7951C207.838 24.4324 207.955 27.1471 207.993 29.8231C208.032 32.9839 208.032 36.164 208.032 39.3248C208.052 52.4914 207.935 65.6581 207.683 78.8053C207.45 92.0107 207.081 105.216 206.596 118.422C206.499 120.962 206.402 123.483 206.305 126.023C205.16 125.305 203.879 124.782 202.443 124.491C199.998 124.006 197.495 124.103 195.03 124.219C192.022 124.355 189.014 124.472 186.007 124.607C174.227 125.131 162.448 125.693 150.668 126.294C127.362 127.458 104.074 128.66 80.7679 129.746C75.2372 129.998 69.7065 130.25 64.1758 130.483C65.1267 117.956 65.7088 105.391 65.9611 92.8057C66.2134 79.6973 66.1164 66.5888 65.7477 53.4998C65.5536 46.9843 65.3207 40.4689 65.0102 33.9534C64.7968 29.1056 64.6221 24.1415 65.5536 19.3712C65.5924 19.1386 65.6506 18.9059 65.7089 18.6732C83.7758 17.8006 101.862 17.18 119.949 16.831C138.287 16.482 156.626 16.385 174.984 16.5789C185.191 16.6565 195.457 16.8504 205.684 17.1219ZM73.0831 95.0551C74.0728 96.2186 75.4312 97.1106 76.9061 97.4984C78.8467 98.0026 80.8649 97.6342 82.7473 97.0718C84.6879 96.4707 86.5897 95.7144 88.5691 95.249C90.5291 94.803 92.5279 94.5509 94.5461 94.4152C103.492 93.8335 112.788 95.5399 121.423 92.3985C121.889 92.224 122.006 91.7586 121.87 91.4096C122.18 91.2351 122.413 90.8278 122.2 90.4012C120.783 87.4538 117.445 86.2903 114.398 85.9413C110.478 85.5146 106.5 86.1933 102.619 86.7363C98.7572 87.2792 94.7402 87.8028 90.8784 86.969C89.0154 86.5812 87.3465 85.8055 85.6776 84.9329C84.0475 84.0603 82.3786 83.1489 80.5544 82.7611C77.2942 82.063 74.034 83.498 72.2681 86.3097C70.5215 89.1214 70.9873 92.5924 73.0831 95.0551Z" fill="#78BCBE"/>
<path d="M200.697 126.43C203.162 126.682 205.044 127.574 206.441 128.893C207.47 129.843 208.246 131.006 208.848 132.325C190.179 132.519 171.511 132.887 152.842 133.469C133.766 134.051 114.709 134.827 95.6526 135.796C85.0763 136.339 74.5001 136.94 63.9238 137.58C63.9626 135.951 64.0015 134.303 64.0209 132.674C86.8423 131.705 109.664 130.541 132.485 129.397C143.915 128.815 155.345 128.253 166.795 127.691C172.481 127.419 178.167 127.148 183.872 126.896C186.802 126.76 189.733 126.643 192.682 126.508C195.322 126.391 198.039 126.159 200.697 126.43Z" fill="#78BCBE"/>
<path d="M208.4 128.04C208.361 129.107 207.1 129.359 206.498 128.816C206.323 128.641 206.207 128.389 206.207 128.04C206.226 127.381 206.265 126.702 206.285 126.023C207.061 126.508 207.76 127.09 208.4 127.749C208.4 127.866 208.4 127.963 208.4 128.04Z" fill="#1D1D1B"/>
<path d="M73.1405 341.673C77.2934 342.061 81.4657 341.498 85.541 340.684C91.0135 339.598 96.4665 338.396 101.939 337.232C113.35 334.828 124.78 332.423 136.191 330.019C147.601 327.614 159.031 325.21 170.442 322.805C175.624 321.719 180.902 320.808 186.006 319.373C190.488 318.112 194.874 316.193 197.902 312.528C200.812 308.999 202.132 304.442 202.967 300.02C203.956 294.785 204.48 289.472 205.101 284.178C206.421 272.737 207.43 261.257 208.226 249.778C209.797 226.857 210.457 203.86 210.69 180.881C210.807 169.421 210.826 157.961 210.787 146.5C210.787 142.583 210.748 137.735 209.409 133.76C209.623 133.76 209.836 133.76 210.05 133.76C210.981 133.741 210.981 132.306 210.05 132.306C209.642 132.306 209.235 132.306 208.847 132.325C208.245 131.007 207.469 129.843 206.44 128.893L206.498 128.816C207.081 129.358 208.342 129.106 208.4 128.04C208.4 127.943 208.4 127.846 208.42 127.749C209.662 129.029 210.632 130.619 211.311 132.403C212.767 136.165 212.961 140.353 212.98 144.367C212.999 150.204 212.999 156.041 212.999 161.878C212.98 173.706 212.883 185.515 212.65 197.325C212.184 220.788 211.136 244.251 209.002 267.637C208.458 273.513 207.857 279.388 207.178 285.244C206.557 290.538 206.033 295.89 205.004 301.106C204.131 305.528 202.695 309.949 199.881 313.556C196.97 317.298 192.74 319.547 188.276 320.963C183.231 322.592 177.913 323.445 172.732 324.55C166.949 325.772 161.166 326.974 155.402 328.196C143.701 330.659 131.999 333.121 120.297 335.584C108.906 337.988 97.5533 340.509 86.1426 342.778C79.5445 344.077 71.297 345.144 65.2617 341.518C65.9215 341.828 66.5619 342.138 67.2217 342.468C68.4831 343.088 69.5698 341.207 68.3279 340.587C68.2114 340.529 68.095 340.471 67.9786 340.412C69.5698 341.11 71.3552 341.498 73.1405 341.673Z" fill="#1D1D1B"/>
<path d="M195.029 124.219C197.513 124.122 199.997 124.006 202.442 124.491C203.878 124.782 205.159 125.305 206.304 126.023C206.285 126.701 206.246 127.361 206.227 128.039C206.207 128.388 206.324 128.641 206.518 128.815L206.459 128.893C205.043 127.574 203.18 126.682 200.715 126.43C198.057 126.158 195.34 126.391 192.681 126.507C189.751 126.643 186.821 126.76 183.871 126.895C178.185 127.147 172.499 127.419 166.794 127.69C155.363 128.233 143.933 128.815 132.484 129.397C109.662 130.541 86.8604 131.704 64.0195 132.674C64.0195 132.499 64.0195 132.344 64.0195 132.17C64.0583 131.607 64.1166 131.045 64.1554 130.502C69.6861 130.269 75.2168 130.017 80.7475 129.765C104.054 128.699 127.361 127.477 150.648 126.314C162.427 125.732 174.207 125.169 185.986 124.627C189.013 124.491 192.021 124.355 195.029 124.219Z" fill="#1D1D1B"/>
<path d="M205.936 15.6874C206.868 15.7068 206.868 17.1611 205.936 17.1417C205.859 17.1417 205.781 17.1417 205.684 17.1417C205.432 16.6375 205.141 16.1334 204.83 15.668C205.199 15.668 205.567 15.668 205.936 15.6874Z" fill="#1D1D1B"/>
<path d="M79.2351 4.53713C80.3606 4.22687 80.3024 2.36532 79.041 2.4041C84.2806 1.10489 90.083 0.988543 95.2256 0.717067C108.383 0.0383743 121.579 -0.19432 134.756 0.174113C147.932 0.542546 161.089 1.47332 174.15 3.14097C180.204 3.91662 186.356 4.63409 192.294 6.03026C197.107 7.15495 202.094 9.05529 205.413 12.8947C209.061 17.122 209.934 22.7649 210.109 28.175C210.322 34.6129 210.187 41.0896 210.167 47.5274C210.128 60.9849 209.954 74.4424 209.643 87.8805C209.352 101.183 208.925 114.485 208.362 127.788C207.741 127.128 207.023 126.547 206.247 126.062C206.344 123.522 206.441 121.001 206.538 118.46C207.023 105.255 207.392 92.0496 207.625 78.8442C207.858 65.6776 207.974 52.5304 207.974 39.3637C207.974 36.203 207.994 33.0228 207.936 29.862C207.897 27.1667 207.78 24.4713 207.218 21.8341C206.868 20.2246 206.383 18.6345 205.626 17.1608C205.704 17.1608 205.781 17.1608 205.878 17.1608C206.81 17.1802 206.81 15.7259 205.878 15.7065C205.51 15.6871 205.141 15.6871 204.772 15.6677C204.559 15.3574 204.345 15.0472 204.113 14.7563C202.599 12.8754 200.619 11.4792 198.465 10.4127C193.827 8.12451 188.51 7.42642 183.465 6.63138C177.041 5.64243 170.618 4.828 164.156 4.18809C151.231 2.90827 138.249 2.28775 125.247 2.1908C112.458 2.11323 99.5919 2.4041 86.8422 3.41244C84.3583 3.60636 81.7384 3.91662 79.2351 4.53713Z" fill="#1D1D1B"/>
<path d="M204.83 15.6483C205.141 16.1137 205.432 16.6179 205.684 17.122C195.438 16.8505 185.191 16.6566 174.945 16.5597C156.606 16.3658 138.248 16.4627 119.91 16.8118C101.823 17.1608 83.7369 17.7813 65.6699 18.6539C65.7864 18.1691 65.9028 17.665 66.0386 17.1802C75.9745 16.6954 85.9298 16.2882 95.885 15.9779C114.224 15.3768 132.562 15.0666 150.901 15.0084C168.89 14.9696 186.86 15.1829 204.83 15.6483Z" fill="#1D1D1B"/>
<path d="M183.523 6.63117C188.569 7.40681 193.886 8.12429 198.524 10.4124C200.678 11.479 202.657 12.8751 204.171 14.7561C204.404 15.0469 204.637 15.3572 204.831 15.6675C186.861 15.2021 168.891 14.9888 150.921 15.0276C132.582 15.0857 114.224 15.396 95.905 15.9971C85.9497 16.3268 76.0139 16.734 66.0586 17.1994C67.1259 13.4375 69.0665 9.92767 72.3267 7.60073C74.4032 6.12699 76.7707 5.17682 79.2158 4.55631C81.7192 3.9164 84.339 3.62553 86.8812 3.41222C99.6309 2.40388 112.497 2.11301 125.286 2.19058C138.268 2.26814 151.27 2.90805 164.195 4.18787C170.657 4.82778 177.1 5.64221 183.523 6.63117Z" fill="#78BCBE"/>
<path d="M121.034 91.0023C121.461 90.8472 121.752 91.0799 121.869 91.4095C121.558 91.584 121.151 91.5646 120.937 91.138C120.918 91.0993 120.918 91.0799 120.898 91.0411C120.937 91.0217 120.976 91.0217 121.034 91.0023Z" fill="#1D1D1B"/>
<path d="M121.034 171.146C121.442 170.991 121.752 171.223 121.869 171.553C121.558 171.728 121.151 171.708 120.937 171.282C120.918 171.262 120.918 171.223 120.898 171.185C120.937 171.165 120.976 171.146 121.034 171.146Z" fill="#1D1D1B"/>
<path d="M80.5547 82.7609C82.3789 83.1487 84.0478 84.0795 85.6779 84.9327C87.3468 85.8247 89.0351 86.581 90.8787 86.9688C94.7405 87.7832 98.7575 87.2597 102.619 86.7361C106.501 86.1932 110.479 85.5145 114.399 85.9411C117.445 86.2707 120.783 87.4536 122.2 90.4011C122.413 90.8277 122.181 91.2155 121.87 91.4094C121.754 91.0797 121.463 90.8471 121.036 91.0022C120.997 91.0216 120.939 91.041 120.9 91.041C119.308 87.8802 115.272 87.2985 112.07 87.2791C107.898 87.2597 103.803 88.1129 99.6696 88.5589C96.1377 88.9467 92.5088 89.0437 89.0739 87.9965C87.3856 87.4924 85.8526 86.6586 84.3001 85.8441C82.7864 85.0491 81.1757 84.2153 79.4486 84.0213C76.3824 83.7111 73.4327 85.9023 72.7535 88.8885C72.0743 91.8166 74.0925 95.0356 76.9064 95.9663C80.4383 97.1298 84.2031 94.8416 87.5603 93.9884C91.1698 93.077 94.9346 92.8444 98.6605 92.825C106.093 92.7862 113.778 93.5812 120.9 91.0216C120.919 91.0604 120.939 91.0797 120.939 91.1185C121.133 91.5257 121.54 91.5645 121.87 91.39C122.006 91.7584 121.889 92.2238 121.424 92.379C112.788 95.5203 103.493 93.8333 94.5464 94.3956C92.5282 94.5314 90.5294 94.7641 88.5694 95.2295C86.59 95.6949 84.6882 96.4511 82.7476 97.0522C80.8652 97.6146 78.847 97.983 76.9064 97.4788C75.4315 97.091 74.0731 96.199 73.0834 95.0356C70.9876 92.5729 70.5218 89.0825 72.2684 86.2901C74.0149 83.4978 77.2945 82.0822 80.5547 82.7609Z" fill="#1D1D1B"/>
<path d="M80.5547 162.905C82.3789 163.293 84.0478 164.224 85.6779 165.077C87.3468 165.969 89.0351 166.725 90.8787 167.113C94.7405 167.928 98.7575 167.404 102.619 166.861C106.501 166.318 110.479 165.64 114.399 166.066C117.445 166.396 120.783 167.579 122.2 170.526C122.413 170.953 122.181 171.341 121.87 171.534C121.754 171.205 121.463 170.972 121.036 171.127C120.997 171.147 120.939 171.166 120.9 171.166C119.308 168.005 115.272 167.424 112.07 167.404C107.898 167.385 103.803 168.238 99.6696 168.684C96.1377 169.072 92.5088 169.169 89.0739 168.122C87.3856 167.617 85.8526 166.784 84.3001 165.969C82.7864 165.174 81.1757 164.34 79.4486 164.146C76.3824 163.836 73.4327 166.027 72.7535 169.014C72.0743 171.942 74.0925 175.161 76.9064 176.091C80.4383 177.255 84.2031 174.967 87.5603 174.114C91.1698 173.202 94.9346 172.969 98.6605 172.95C106.093 172.911 113.778 173.706 120.9 171.166C120.919 171.185 120.939 171.224 120.939 171.263C121.133 171.67 121.54 171.709 121.87 171.534C122.006 171.903 121.889 172.368 121.424 172.523C112.788 175.665 103.493 173.978 94.5464 174.54C92.5282 174.676 90.5294 174.909 88.5694 175.374C86.59 175.839 84.6882 176.596 82.7476 177.197C80.8652 177.759 78.847 178.127 76.9064 177.623C75.4315 177.235 74.0731 176.343 73.0834 175.18C70.9876 172.717 70.5218 169.227 72.2684 166.435C74.0149 163.642 77.2945 162.207 80.5547 162.905Z" fill="#1D1D1B"/>
<path d="M84.3 85.8639C85.8525 86.6783 87.3855 87.5122 89.0739 88.0163C92.5087 89.0635 96.1376 88.9665 99.6695 88.5787C103.803 88.1133 107.917 87.2795 112.07 87.2989C115.272 87.3183 119.308 87.9 120.9 91.0608C113.758 93.6204 106.093 92.806 98.6604 92.8641C94.9345 92.8835 91.1891 93.0968 87.5602 94.0276C84.203 94.8808 80.4382 97.169 76.9063 96.0055C74.0924 95.0747 72.0742 91.8558 72.7534 88.9277C73.4326 85.9415 76.4018 83.7503 79.4485 84.0605C81.1756 84.2351 82.7669 85.0689 84.3 85.8639Z" fill="#F6F6F6"/>
<path d="M84.3 166.007C85.8525 166.822 87.3855 167.656 89.0739 168.16C92.5087 169.207 96.1376 169.11 99.6695 168.722C103.803 168.276 107.917 167.423 112.07 167.442C115.272 167.462 119.308 168.043 120.9 171.204C113.758 173.764 106.093 172.949 98.6604 172.988C94.9345 173.008 91.1891 173.221 87.5602 174.152C84.203 175.005 80.4382 177.293 76.9063 176.13C74.0924 175.199 72.0742 171.98 72.7534 169.052C73.4326 166.065 76.4018 163.874 79.4485 164.185C81.1756 164.359 82.7669 165.193 84.3 166.007Z" fill="#F6F6F6"/>
<path d="M79.0212 2.40392C80.2826 2.36514 80.3602 4.22669 79.2153 4.53695C79.1377 4.55634 79.06 4.57573 78.963 4.57573C76.7507 4.71147 74.5385 4.8666 72.3262 5.04112C74.3832 3.83887 76.6537 2.98565 79.0212 2.40392Z" fill="#1D1D1B"/>
<path d="M79.2355 4.53711C76.771 5.15763 74.4229 6.1078 72.3464 7.58153C69.0862 9.90847 67.1262 13.4183 66.0783 17.1802C65.7096 17.1996 65.3215 17.219 64.9527 17.2383C64.0213 17.2771 64.0213 18.7315 64.9527 18.6927C65.205 18.6733 65.4573 18.6733 65.7096 18.6539C65.6514 18.8866 65.6125 19.1193 65.5543 19.352C64.6228 24.1416 64.7781 29.0864 65.011 33.9342C65.302 40.4496 65.5543 46.9651 65.7484 53.4805C66.1171 66.589 66.2141 79.6974 65.9618 92.7865C65.7096 105.352 65.1468 117.917 64.1765 130.464C63.9824 130.464 63.7884 130.483 63.5943 130.483C63.1092 130.502 62.7987 130.774 62.6434 131.123C62.2553 131.22 61.9254 131.511 61.8672 131.996C62.1195 128.815 62.3523 125.616 62.5464 122.436C63.4003 109.114 63.8078 95.7533 63.8854 82.4122C63.963 69.0904 63.6914 55.7881 63.1674 42.4857C62.9539 36.8041 62.4688 31.0837 62.7016 25.3827C62.8957 20.5349 63.6719 15.5125 66.1365 11.2659C67.7472 8.49291 69.8819 6.47623 72.3464 5.02189C74.5587 4.86676 76.771 4.71163 78.9833 4.5565C79.0609 4.57589 79.1579 4.5565 79.2355 4.53711Z" fill="#1D1D1B"/>
<path d="M68.2711 340.587C69.5325 341.207 68.4263 343.088 67.1649 342.468C66.5051 342.138 65.8647 341.828 65.2049 341.517C64.2929 340.974 63.439 340.335 62.6628 339.559C61.8671 338.783 61.1879 337.949 60.6445 337.038C62.6433 337.911 64.6228 338.822 66.5828 339.753C67.0097 339.986 67.4754 340.218 67.9218 340.412C68.0576 340.47 68.174 340.529 68.2711 340.587Z" fill="#1D1D1B"/>
<path d="M67.9406 340.412C67.4748 340.218 67.0285 340.005 66.6016 339.753C67.0479 339.986 67.4942 340.199 67.9406 340.412Z" fill="#1D1D1B"/>
<path d="M62.6619 339.559C63.4576 340.335 64.3114 340.975 65.2041 341.518C63.3023 340.606 61.3811 339.753 59.4599 338.919C47.894 333.916 35.9593 329.708 24.7232 323.988C16.9414 320.032 7.66537 314.932 5.91883 305.624C3.62892 293.544 3.41546 280.939 3.2214 268.665C2.96912 252.919 3.20199 237.154 2.93031 221.408C2.28991 185.496 0.75684 149.603 0.194066 113.69C-0.0776172 95.7922 -0.0970232 77.8747 0.349314 59.9573C0.582186 51.1537 0.931494 42.35 1.41664 33.5464C1.66892 29.2222 1.99882 24.898 2.15407 20.5543C2.2511 17.5293 2.17348 14.1164 3.43486 11.3047C5.39487 6.96109 11.7212 7.01926 15.7771 6.67022C21.8511 6.16605 27.9834 6.12727 34.0575 5.73944C49.0389 4.80867 63.9815 3.35433 78.9629 2.38477C78.9823 2.38477 78.9823 2.38477 79.0017 2.38477C76.6342 2.98589 74.3637 3.81971 72.3261 5.02197C71.2005 5.09953 70.075 5.19649 68.9494 5.27406C54.1815 6.39875 39.433 7.79491 24.6456 8.39604C19.5224 8.60934 14.2634 8.58995 9.23725 9.73403C8.32517 9.94734 7.25784 10.1412 6.4816 10.7036C5.45309 11.4599 5.08437 12.856 4.8321 14.0389C4.11407 17.4905 4.34695 21.1748 4.13348 24.6847C1.99882 59.55 1.90179 94.4154 2.67803 129.32C3.45427 164.437 4.92912 199.516 5.31724 234.653C5.47249 248.789 5.14259 262.944 5.62774 277.081C5.84121 283.402 6.19051 289.724 6.8115 296.006C7.08319 298.799 7.41309 301.591 7.91765 304.345C8.26695 306.284 8.65507 308.126 9.66418 309.832C11.8959 313.555 15.7188 316.231 19.3284 318.481C24.2769 321.545 29.5747 324.027 34.892 326.354C43.4112 330.077 52.1439 333.315 60.6631 337.058C61.2065 337.95 61.8663 338.803 62.6619 339.559Z" fill="#1D1D1B"/>
<path d="M64.933 18.7117C64.0015 18.7505 64.0015 17.3156 64.933 17.2574C65.3017 17.238 65.6898 17.2186 66.0585 17.1992C65.9227 17.684 65.8063 18.1688 65.6898 18.673C65.4375 18.673 65.1853 18.6923 64.933 18.7117Z" fill="#1D1D1B"/>
<path d="M61.8469 132.286C61.8858 133.353 63.3606 133.488 63.8652 132.674C63.9234 132.674 63.9622 132.674 64.0204 132.674C63.9816 134.303 63.9428 135.951 63.9234 137.58C63.8069 137.58 63.7099 137.599 63.5935 137.599C62.662 137.657 62.662 139.112 63.5935 139.054C63.6905 139.054 63.7875 139.034 63.904 139.034C63.8264 142.35 63.7681 145.666 63.6905 149.001C63.2054 172.29 62.7202 195.579 62.2545 218.887C61.7693 242.176 61.2842 265.465 60.8184 288.773C60.5856 300.311 60.2362 311.849 60.1198 323.367C60.0616 327.885 60.2168 332.908 63.0307 336.689C64.0204 338.007 65.243 339.016 66.6208 339.772C64.6608 338.822 62.662 337.93 60.6826 337.057C58.8778 334.149 58.1986 330.658 58.0046 327.226C57.6941 321.699 58.0822 316.076 58.1986 310.549C58.4509 298.682 58.6838 286.834 58.936 274.967C59.4212 251.174 59.9257 227.381 60.4109 203.568C60.8572 179.795 61.3424 156.04 61.8469 132.286Z" fill="#1D1D1B"/>
<path d="M63.8652 132.674C63.9623 132.538 64.0205 132.364 64.0205 132.15C64.0205 132.325 64.0205 132.499 64.0205 132.655C63.9623 132.674 63.904 132.674 63.8652 132.674Z" fill="#1D1D1B"/>
<path d="M63.5736 139.034C62.6421 139.092 62.6421 137.638 63.5736 137.58C63.6901 137.58 63.7871 137.561 63.9035 137.561C63.9035 138.045 63.8841 138.53 63.8841 139.015C63.7871 139.034 63.6706 139.034 63.5736 139.034Z" fill="#1D1D1B"/>
<path d="M63.5733 132.694C62.6612 132.733 62.3313 131.821 62.6224 131.162C63.2434 130.987 64.0196 131.336 64.0196 132.17C64.0002 132.364 63.942 132.539 63.8644 132.694C63.7673 132.674 63.6703 132.694 63.5733 132.694Z" fill="#1D1D1B"/>
<path d="M62.623 131.143C62.7783 130.794 63.0888 130.522 63.5739 130.503C63.768 130.503 63.9621 130.483 64.1561 130.483C64.1173 131.046 64.0591 131.608 64.0203 132.151C64.0397 131.317 63.2634 130.988 62.623 131.143Z" fill="#1D1D1B"/>
<path d="M62.6238 131.143C62.3327 131.802 62.6432 132.713 63.5747 132.674C63.6717 132.674 63.7687 132.674 63.8463 132.655C63.3418 133.47 61.8669 133.353 61.8281 132.267C61.8281 132.228 61.8281 132.17 61.8281 132.132C61.8281 132.093 61.8281 132.035 61.8475 131.996C61.9252 131.55 62.2551 131.259 62.6238 131.143Z" fill="#1D1D1B"/>
<path d="M61.8475 132.015C61.8475 132.053 61.8475 132.112 61.8281 132.15C61.8475 132.112 61.8475 132.073 61.8475 132.015Z" fill="#1D1D1B"/>
<path d="M57.9647 327.206C58.1588 330.639 58.838 334.148 60.6427 337.038C52.1235 333.315 43.3908 330.076 34.8716 326.334C29.5544 324.007 24.2565 321.525 19.308 318.461C15.6985 316.212 11.8755 313.536 9.64384 309.812C8.61532 308.106 8.2272 306.264 7.8973 304.325C7.41215 301.571 7.08225 298.779 6.79116 295.987C6.17017 289.704 5.84027 283.382 5.60739 277.061C5.12225 262.925 5.43274 248.769 5.2969 234.633C4.92819 199.535 3.45333 164.437 2.67709 129.319C1.90085 94.4149 1.99788 59.5496 4.17135 24.6842C4.38482 21.1744 4.15195 17.5094 4.86997 14.0384C5.12225 12.8555 5.49096 11.4594 6.51948 10.7031C7.27631 10.1408 8.36304 9.92746 9.27512 9.73355C14.3207 8.58947 19.5603 8.60886 24.6835 8.39555C39.4708 7.79443 54.2194 6.39826 68.9873 5.27357C70.1129 5.19601 71.2384 5.09905 72.364 5.02148C69.8994 6.47582 67.7647 8.49251 66.154 11.2655C63.6895 15.5121 62.9132 20.5344 62.7192 25.3822C62.4863 31.0833 62.9715 36.7843 63.1849 42.4853C63.7089 55.7877 63.9806 69.1094 63.903 82.4118C63.8253 95.7723 63.3984 109.113 62.5639 122.435C62.3505 125.635 62.137 128.815 61.8847 131.995C61.8847 132.034 61.8847 132.092 61.8653 132.131C61.8653 132.17 61.8653 132.228 61.8653 132.267C61.3802 156.021 60.895 179.775 60.3905 203.529C59.9053 227.322 59.4008 251.115 58.9156 274.928C58.6827 286.795 58.4305 298.643 58.1782 310.511C58.0423 316.056 57.6542 321.68 57.9647 327.206Z" fill="#78BCBE"/>
</g>
<defs>
<clipPath id="clip0_502_1438">
<rect width="213" height="344" fill="white"/>
</clipPath>
</defs>
</svg>
