<svg width="315" height="386" viewBox="0 0 315 386" fill="none" xmlns="http://www.w3.org/2000/svg">
<g clip-path="url(#clip0_429_3298)">
<path d="M91.2904 59.6368C89.3913 47.5415 73.6623 33.5057 65.4327 40.9117C56.0018 49.4334 54.7033 75.9849 73.8084 87.9186C78.0937 82.0649 91.1119 64.5849 91.2904 59.6368Z" fill="#F2D7AB"/>
<path d="M90.1054 63.2751C90.8196 61.7551 91.2416 60.4938 91.2741 59.6368C89.3912 47.5415 73.6623 33.5057 65.4326 40.9117C64.7833 41.4938 64.1828 42.1568 63.6309 42.9006C63.8581 42.6904 64.0691 42.4802 64.3126 42.3023C73.711 34.7185 88.2062 51.1798 90.1054 63.2751Z" fill="#FFEDD4"/>
<path d="M63.8573 42.5928C55.9036 52.489 55.8062 76.6797 73.7913 87.9018C74.7328 86.6244 76.0963 84.7648 77.6546 82.6141C61.3738 75.1435 58.1598 54.9145 63.8573 42.5928Z" fill="#D8BB91"/>
<path d="M73.8727 88.2415L73.6779 88.1283C65.0749 82.7598 59.5884 73.5589 58.647 62.8866C57.8354 53.7827 60.4325 45.0993 65.2697 40.7495C67.0714 39.1325 69.279 38.421 71.8437 38.6635C80.0896 39.4397 90.0074 50.0151 91.517 59.604C91.3546 64.4066 79.7 80.2696 74.733 87.0449L73.8727 88.2415ZM71.8112 39.1486C69.3926 38.9223 67.2987 39.5852 65.6105 41.1052C60.887 45.358 58.3548 53.8959 59.1502 62.8542C60.0754 73.284 65.3995 82.2909 73.759 87.5947L74.3596 86.77C78.8722 80.6092 90.8839 64.2449 91.0625 59.6363C89.5691 50.2738 79.8623 39.9086 71.8112 39.1486Z" fill="#896946"/>
<path d="M83.6289 65.5057C81.1454 57.9865 74.685 49.0282 70.4322 49.8852C66.1794 50.7422 64.9782 69.6453 73.0456 76.4691C76.1784 76.081 83.6289 65.5057 83.6289 65.5057Z" fill="#FFBDB4"/>
<path d="M80.5121 70.0172C81.908 68.2223 83.6287 65.5057 83.6287 65.5057C81.1451 57.9865 74.6848 49.0282 70.432 49.8852C70.1398 49.9499 69.8638 50.0954 69.5879 50.3218C73.9381 50.4188 81.6646 62.4818 80.5121 70.0172Z" fill="#E89C9C"/>
<path d="M72.9643 76.7275L72.8831 76.6467C66.9422 71.6016 65.952 59.9428 67.5428 53.7981C68.1758 51.3403 69.1822 49.8688 70.3672 49.6262C70.6756 49.5615 71.0002 49.5454 71.3411 49.5777C75.6426 49.982 81.5024 58.2773 83.856 65.4084L83.8885 65.5216L83.8236 65.6186C83.5152 66.0552 76.2757 76.2909 73.0617 76.679L72.9643 76.7275ZM71.3086 50.079C71.0165 50.0466 70.7405 50.0628 70.4808 50.1113C69.5069 50.3054 68.5979 51.696 68.0297 53.9275C66.4715 59.9105 67.3967 71.262 73.1266 76.2101C76.0159 75.6603 82.6224 66.5241 83.3691 65.4569C81.0317 58.4875 75.3991 50.4671 71.3086 50.079Z" fill="#896946"/>
<path d="M88.8866 217.523C89.4872 218.687 90.1203 219.819 90.802 220.935C93.4803 225.365 96.6943 229.424 99.892 233.467C101.45 235.439 103.025 237.412 104.291 239.595C104.616 240.145 104.924 240.695 105.167 241.277C105.411 241.875 105.654 242.49 105.882 243.104C106.336 244.317 106.758 245.546 107.18 246.775C107.683 248.23 108.187 249.702 108.738 251.141C129.288 245.578 135.749 224.023 136.09 217.749C136.463 210.537 133.363 196.534 120.166 194.351C106.758 192.119 91.1916 211.168 88.3672 216.504C88.5295 216.844 88.7081 217.183 88.8866 217.523Z" fill="#F2D7AB"/>
<path d="M88.8866 217.523C89.2599 218.25 89.6658 218.978 90.0716 219.706C97.2948 211.265 107.765 192.2 123.818 195.353C122.698 194.917 121.481 194.577 120.166 194.351C106.758 192.119 91.1916 211.168 88.3672 216.504C88.5295 216.844 88.7081 217.183 88.8866 217.523Z" fill="#FFEDD4"/>
<path d="M106.451 244.673C106.695 245.368 106.938 246.079 107.182 246.775C107.685 248.23 108.188 249.701 108.74 251.141C129.29 245.578 135.75 224.023 136.091 217.749C136.188 215.873 136.042 213.545 135.555 211.087C134.143 227.597 123.69 239.45 106.451 244.673Z" fill="#D8BB91"/>
<path d="M88.5466 216.876C90.9651 211.992 106.856 192.475 120.102 194.674C121.011 194.819 121.904 195.046 122.731 195.305C133.769 198.862 136.074 211.523 135.749 217.733C135.538 221.581 133.217 230.054 127.666 237.557C123.965 242.554 117.91 248.278 108.609 250.817C108.691 251.027 108.772 251.221 108.837 251.431C118.268 248.844 124.419 243.023 128.185 237.945C133.834 230.313 136.188 221.694 136.399 217.765C136.74 211.394 134.354 198.361 122.942 194.69C122.066 194.415 121.157 194.189 120.215 194.027C106.921 191.828 91.4521 210.133 88.1895 216.132C88.3031 216.39 88.4329 216.633 88.5466 216.876Z" fill="#896946"/>
<path d="M227.088 253.63C225.822 220.319 213.015 218.136 216.602 196.355C219.378 179.473 227.153 168.461 220.92 146.745C217.495 139.242 214.022 147.117 214.022 147.117C214.022 147.117 154.612 169.367 138.283 179.49C121.953 189.612 80.334 243.702 80.334 274.409C80.3502 305.116 102.15 343.569 149.158 354.84C166.202 358.931 179.804 360.338 191.41 358.85C192.709 353.126 195.598 346.674 198.991 340.739C209.444 322.532 228.387 288.089 227.088 253.63Z" fill="#F2D7AB"/>
<path d="M227.088 253.63C225.822 220.319 213.015 218.136 216.602 196.355C219.378 179.473 227.153 168.461 220.92 146.745C217.495 139.242 214.021 147.117 214.021 147.117C214.021 147.117 213.777 147.214 213.339 147.375C213.518 150.577 213.729 153.86 213.372 157.336C210.758 168.397 216.293 167.346 209.622 176.563C193.13 199.298 203.584 214.579 208.81 228.243C216.651 248.407 216.651 273.115 199.672 288.089C182.044 303.693 153.962 305.003 132.422 298.503C114.145 293.296 105.656 274.441 95.8513 258.174C93.4003 253.695 90.9492 249.248 88.5793 244.801C83.5636 255.522 80.3334 265.887 80.3497 274.441C80.3659 305.149 102.166 343.601 149.174 354.872C166.217 358.963 179.82 360.37 191.426 358.882C192.724 353.158 195.614 346.706 199.006 340.772C209.444 322.532 228.386 288.089 227.088 253.63Z" fill="#D8BB91"/>
<path d="M182.012 359.756C172.759 359.756 161.997 358.252 149.093 355.163C127.456 349.973 109.405 338.54 96.8743 322.111C86.1611 308.059 80.0254 290.676 80.0254 274.409C80.0092 243.378 121.856 189.305 138.12 179.215C153.93 169.416 210.71 148.006 213.794 146.858C214.102 146.179 215.645 143.188 217.706 143.188C218.988 143.188 220.173 144.336 221.212 146.616C225.741 162.382 222.949 172.537 220.011 183.274C218.875 187.413 217.706 191.698 216.927 196.404C215.141 207.286 217.446 213.205 220.384 220.708C223.225 227.968 226.78 237.023 227.413 253.614C228.776 289.512 208.113 325.523 199.299 340.901C196.685 345.461 193.26 352.269 191.751 358.915L191.702 359.141L191.475 359.173C188.472 359.562 185.291 359.756 182.012 359.756ZM217.706 143.818C216.164 143.818 214.752 146.276 214.33 147.23L214.281 147.359L214.151 147.408C213.551 147.634 154.579 169.771 138.477 179.765C122.294 189.806 80.6747 243.572 80.6909 274.409C80.7071 305.084 102.166 343.23 149.272 354.533C162.111 357.621 172.841 359.109 182.028 359.109C185.209 359.109 188.277 358.931 191.183 358.575C192.741 351.913 196.15 345.138 198.747 340.594C207.545 325.264 228.127 289.367 226.78 253.646C226.163 237.169 222.641 228.178 219.8 220.95C216.829 213.366 214.476 207.367 216.294 196.307C217.073 191.569 218.258 187.268 219.394 183.112C222.316 172.456 225.075 162.398 220.612 146.842C219.686 144.853 218.712 143.818 217.706 143.818Z" fill="#896946"/>
<path d="M194.086 57.4849C163.57 35.2669 129.563 38.2908 129.563 38.2908C101.271 39.164 64.6513 49.0278 62.606 99.7539C53.3862 106.578 48.2081 121.212 50.789 136.185C53.3699 151.143 70.998 170.337 80.3152 177.484C85.3796 186.265 102.358 194.075 117.698 191.472C133.037 188.868 141.851 193.428 153.603 195.692C165.355 197.972 200.611 195.369 214.652 169.674C228.693 143.98 223.596 127.098 218.694 107.58C213.808 88.079 214.717 72.507 194.086 57.4849Z" fill="#F2D7AB"/>
<path d="M62.5591 99.7861C53.3393 106.61 48.1613 121.244 50.7422 136.218C50.8396 136.784 50.9694 137.366 51.1155 137.948C50.661 123.815 53.8912 108.518 66.5685 101.403C66.0653 83.0338 70.5615 65.101 83.2875 52.5205C71.8276 61.6405 63.5006 76.3555 62.5591 99.7861Z" fill="#FFEDD4"/>
<path d="M194.103 57.727C163.587 35.5091 129.58 38.533 129.58 38.533C125.928 38.6461 122.13 38.9049 118.283 39.39C116.286 48.607 117.406 55.447 127.503 58.2283C144.482 62.1254 154.27 56.5143 176.15 69.499C187.902 76.6462 197.901 89.9058 202.479 101.613C208.468 105.672 213.403 128.245 209.832 135.781C210.157 140.632 211.796 149.606 208.55 156.98C196.327 184.793 167.418 194.77 132.648 184.195C122.633 181.155 114.923 187.121 103.82 184.518C88.1724 180.669 70.7878 167.361 61.6816 157.805C64.295 161.395 72.3299 171.226 80.3323 177.743C85.3967 186.523 102.376 194.333 117.715 191.73C133.054 189.126 141.868 193.686 153.62 195.95C165.372 198.23 200.628 195.627 214.669 169.932C228.71 144.238 223.613 127.356 218.711 107.839C213.825 88.3212 214.734 72.7492 194.103 57.727Z" fill="#D8BB91"/>
<path d="M219.036 107.515C218.11 103.861 217.396 100.336 216.714 96.924C213.728 82.2091 211.147 69.4992 194.298 57.226C170.258 39.7298 144.06 37.8379 133.898 37.8379C131.155 37.8379 129.564 37.9834 129.564 37.9834C111.547 38.5332 96.9216 42.6081 86.0623 50.0788C71.2424 60.2822 63.24 76.9537 62.2985 99.6082C52.8352 106.723 47.9818 121.761 50.4816 136.25C53.1112 151.466 71.0152 170.741 80.0727 177.711C84.8449 185.909 98.6422 192.312 111.53 192.312C113.657 192.312 115.751 192.134 117.764 191.795C120.848 191.277 123.753 191.019 126.643 191.019C133.541 191.019 139.076 192.458 144.936 193.978C147.696 194.689 150.536 195.433 153.555 196.015C155.763 196.436 158.604 196.662 161.753 196.662C168.197 196.662 201.002 195.368 214.961 169.819C228.515 145.014 224.392 128.682 219.604 109.763L219.036 107.515ZM214.393 169.528C200.612 194.754 168.132 196.031 161.769 196.031C158.668 196.031 155.877 195.805 153.701 195.385C150.699 194.802 147.874 194.075 145.131 193.347C139.222 191.811 133.655 190.356 126.675 190.356C123.737 190.356 120.799 190.614 117.682 191.148C115.718 191.488 113.657 191.649 111.563 191.649C97.3761 191.649 84.6988 184.356 80.6408 177.322L80.5597 177.225C71.5995 170.337 53.7767 151.191 51.1633 136.121C48.6798 121.794 53.4845 106.933 62.8504 100.012L62.9803 99.9155V99.7538C64.5548 60.4762 86.9713 39.9077 129.629 38.5979C129.646 38.5979 131.22 38.4524 133.931 38.4524C144.011 38.4524 170.063 40.3281 193.941 57.7111C210.579 69.8226 213.143 82.4193 216.098 97.0048C216.796 100.417 217.51 103.958 218.435 107.629L219.003 109.893C223.71 128.715 227.817 144.95 214.393 169.528Z" fill="#896946"/>
<path d="M147.924 77.4387C156.916 74.9485 167.045 81.1902 172.678 90.0677C169.269 71.7306 155.991 67.2676 147.924 77.4387Z" fill="#3A3838"/>
<path d="M147.973 77.4224C156.965 74.9646 167.062 81.2063 172.694 90.0514C172.337 88.1433 171.866 86.3969 171.314 84.7799C165.455 75.2394 155.975 70.4369 147.973 77.4224Z" fill="#232121"/>
<path d="M155.764 71.9573C152.777 72.5071 149.969 74.3343 147.664 77.245L147.047 78.0212L148.005 77.7624C148.41 77.6492 148.832 77.5522 149.254 77.4714C157.176 76.016 166.688 81.2552 172.401 90.2459L173.31 91.6688L173.002 90.0033C170.389 75.9029 162.224 70.7607 155.764 71.9573ZM149.141 76.8246C149.027 76.8407 148.914 76.8731 148.8 76.8892C150.878 74.5446 153.296 73.0731 155.877 72.588C161.786 71.5045 169.187 76.0484 172.028 88.4995C166.12 80.1556 156.9 75.3854 149.141 76.8246Z" fill="black"/>
<path d="M75.2852 70.2275C81.6806 65.5866 90.4946 64.0019 96.0947 68.2224C93.2865 58.8921 82.7682 58.3585 75.2852 70.2275Z" fill="#3A3838"/>
<path d="M77.7524 66.8799C76.9084 67.8663 76.0805 68.9821 75.2852 70.2272C81.6806 65.5863 90.4946 64.0016 96.0947 68.2221C96.0135 67.9633 95.9324 67.7208 95.835 67.4782C91.0141 62.7565 86.4366 61.6569 77.7524 66.8799Z" fill="#232121"/>
<path d="M88.8387 61.0425C84.1152 60.4927 78.9534 63.8722 75.0415 70.0816L74.2461 71.3429L75.4473 70.4697C79.8949 67.2357 85.3326 65.6348 89.9588 66.1684C92.2475 66.4433 94.2603 67.2033 95.9159 68.4646L96.6139 68.9982L96.3542 68.1574C95.1368 64.0339 92.3936 61.4467 88.8387 61.0425ZM90.0399 65.5863C85.6897 65.085 80.6578 66.411 76.34 69.1599C80.0085 63.9208 84.5859 61.1071 88.7738 61.5922C91.8417 61.948 94.2927 64.0825 95.5588 67.4782C93.9681 66.4757 92.1014 65.8288 90.0399 65.5863Z" fill="black"/>
<path d="M168.193 161.513C176.554 160.813 183.016 156.494 182.626 151.866C182.235 147.238 175.14 144.054 166.779 144.755C158.417 145.455 151.955 149.774 152.346 154.402C152.736 159.029 159.831 162.213 168.193 161.513Z" fill="#FFBDB4"/>
<path d="M84.2725 127.475C86.1796 123.237 81.5186 117.03 73.8618 113.61C66.205 110.19 58.452 110.853 56.5449 115.091C54.6378 119.328 59.2988 125.536 66.9556 128.956C74.6124 132.375 82.3655 131.712 84.2725 127.475Z" fill="#FFBDB4"/>
<path d="M88.8231 72.6689C99.8772 72.6689 98.9519 103.748 88.4011 108.179C78.4183 112.852 69.4907 107.758 69.6205 98.2018C69.7991 86.7047 78.0612 72.6689 88.8231 72.6689Z" fill="#D8BB91"/>
<path d="M89.2294 75.6116C98.7089 77.0669 98.8712 103.279 88.5476 108.114C78.224 112.949 69.2477 108.065 69.6372 98.2014C70.043 87.4644 77.8182 73.8652 89.2294 75.6116Z" fill="black"/>
<path d="M89.0658 76.7438C98.2369 78.1507 98.383 103.506 88.4165 108.179C78.4338 112.852 69.7496 108.13 70.1229 98.5899C70.5125 88.1924 78.028 75.046 89.0658 76.7438Z" fill="white"/>
<path d="M70.6261 94.4668C70.3502 95.8574 70.1716 97.2481 70.1229 98.5902C69.7496 108.131 78.4338 112.852 88.4165 108.179C91.3383 106.821 93.3835 103.668 94.6009 99.8838C85.722 102.924 75.6256 102.245 70.6261 94.4668Z" fill="#E4EAEF"/>
<path d="M80.8697 110.297C77.6233 110.297 74.734 109.165 72.7537 107.112C70.7085 104.993 69.6858 102.034 69.8157 98.5736C70.2215 88.0306 77.4448 76.291 87.1353 76.291C87.7846 76.291 88.4501 76.3395 89.1156 76.4366C92.5244 76.9702 95.0728 80.8025 95.9331 86.7208C97.1505 95.1294 94.7157 105.559 88.5475 108.454C85.9179 109.683 83.337 110.297 80.8697 110.297ZM87.1353 76.8893C77.7856 76.8893 70.8221 88.3379 70.4163 98.5898C70.2864 101.872 71.2441 104.67 73.1757 106.675C75.0424 108.615 77.7694 109.683 80.8535 109.683C83.2396 109.683 85.7231 109.084 88.2716 107.888C94.1151 105.155 96.4688 94.806 95.3163 86.7855C94.5047 81.1583 92.151 77.5038 89.002 77.0187C88.3852 76.9378 87.7521 76.8893 87.1353 76.8893Z" fill="black"/>
<path d="M65.9512 82.6299C66.0486 82.8078 68.386 86.9312 74.4568 84.5865L73.6127 86.3329C71.0805 87.2707 67.2335 86.5593 65.9512 82.6299Z" fill="black"/>
<path d="M69.9122 74.4961C69.9447 74.7063 70.805 79.8161 78.2393 80.1072L76.8271 81.7242C73.743 81.5625 69.7012 78.9591 69.9122 74.4961Z" fill="black"/>
<path d="M77.5743 69.0469C77.5256 69.2571 76.4543 74.3184 83.288 77.2937L80.9506 78.3933C78.1424 77.1482 75.7563 73.1218 77.5743 69.0469Z" fill="black"/>
<path d="M126.286 117.493C124.906 106.627 132.568 92.3484 147.047 90.974C161.558 89.5995 169.577 102.617 170.275 108.68C171.2 116.814 167.077 131.383 152.923 134.1C139.028 136.768 127.682 128.376 126.286 117.493Z" fill="#D8BB91"/>
<path d="M126.757 118.22C125.459 109.165 133.704 96.8757 146.706 95.9055C161.234 94.8221 168.311 104.33 169.448 109.715C171.136 117.719 167.061 131.383 152.907 134.1C139.029 136.768 128.315 129.087 126.757 118.22Z" fill="black"/>
<path d="M127.308 118.851C126.042 110.136 134.093 98.3313 146.754 97.3934C160.909 96.3585 167.824 105.495 168.927 110.669C170.583 118.366 166.606 131.497 152.809 134.116C139.271 136.671 128.818 129.297 127.308 118.851Z" fill="white"/>
<path d="M158.473 122.037C148.085 127.567 137.063 124.656 127.275 118.593C127.292 118.673 127.292 118.77 127.308 118.851C128.817 129.297 139.271 136.671 152.808 134.116C166.167 131.593 170.323 119.207 169.073 111.445C166.508 116.102 162.807 119.87 158.473 122.037Z" fill="#E4EAEF"/>
<path d="M147.502 134.925C136.805 134.925 128.381 128.327 127.001 118.9C126.368 114.534 128.007 109.424 131.4 105.22C135.263 100.417 140.717 97.5389 146.723 97.1023C147.47 97.0538 148.216 97.0215 148.93 97.0215C161.575 97.0215 168.084 105.349 169.204 110.604C170.243 115.439 168.977 121.471 166.007 125.934C163.02 130.413 158.475 133.34 152.842 134.407C151.057 134.763 149.239 134.925 147.502 134.925ZM148.947 97.6198C148.232 97.6198 147.502 97.6521 146.788 97.7006C140.944 98.1211 135.653 100.935 131.887 105.592C128.608 109.667 127.001 114.599 127.618 118.803C128.933 127.939 137.13 134.31 147.518 134.31C149.223 134.31 150.992 134.148 152.761 133.809C158.215 132.774 162.63 129.944 165.536 125.594C168.441 121.245 169.659 115.407 168.652 110.718C167.549 105.673 161.234 97.6198 148.947 97.6198Z" fill="black"/>
<path d="M177.564 113.337C177.418 113.467 174.09 116.814 169.074 112.69L169.139 114.453C171.233 116.135 175.113 116.668 177.564 113.337Z" fill="black"/>
<path d="M175.145 101.452C175.112 101.662 174.788 106.74 167.354 107.031L168.246 108.68C171.298 108.535 175.356 105.915 175.145 101.452Z" fill="black"/>
<path d="M166.866 92.3486C166.915 92.5588 167.986 97.6201 161.152 100.595L163.295 102.018C166.119 100.757 168.7 96.4235 166.866 92.3486Z" fill="black"/>
<path d="M166.352 116.119C166.556 106.949 159.674 99.3593 150.979 99.1672C142.285 98.9751 135.072 106.253 134.868 115.423C134.664 124.593 141.546 132.182 150.24 132.374C158.934 132.566 166.148 125.288 166.352 116.119Z" fill="#542416"/>
<path d="M166.363 115.94C166.266 125.109 159.123 132.483 150.423 132.402C141.723 132.321 134.759 124.818 134.856 115.649C140.327 127.615 162.841 125.4 166.363 115.94Z" fill="#A74F45"/>
<path d="M164.192 116.527C164.35 109.428 159.014 103.553 152.274 103.405C145.533 103.256 139.942 108.89 139.784 115.988C139.626 123.086 144.962 128.961 151.702 129.11C158.442 129.259 164.034 123.625 164.192 116.527Z" fill="black"/>
<path d="M147.456 111.107C149.939 111.054 151.908 109.006 151.855 106.533C151.802 104.06 149.746 102.098 147.263 102.151C144.78 102.204 142.811 104.252 142.864 106.725C142.917 109.199 144.973 111.161 147.456 111.107Z" fill="white"/>
<path d="M160.059 125.267C160.176 124.238 159.434 123.309 158.4 123.192C157.367 123.076 156.434 123.816 156.317 124.845C156.2 125.874 156.943 126.803 157.977 126.92C159.01 127.037 159.942 126.297 160.059 125.267Z" fill="white"/>
<path d="M150.424 132.742C141.528 132.661 134.37 124.98 134.484 115.634C134.581 106.287 141.902 98.7518 150.797 98.8327C159.692 98.9135 166.851 106.594 166.737 115.941C166.64 125.287 159.319 132.823 150.424 132.742ZM150.781 99.528C142.308 99.4471 135.328 106.675 135.23 115.634C135.133 124.592 141.951 131.949 150.424 132.03C158.897 132.111 165.877 124.883 165.974 115.925C166.088 106.966 159.27 99.6088 150.781 99.528Z" fill="#261005"/>
<path d="M93.9773 98.0561C96.1813 90.5661 93.6443 83.2316 88.3107 81.6741C82.9771 80.1165 76.8667 84.9257 74.6626 92.4157C72.4586 99.9057 74.9956 107.24 80.3292 108.798C85.6628 110.355 91.7732 105.546 93.9773 98.0561Z" fill="#542416"/>
<path d="M93.9184 98.2179C91.6459 105.689 85.4939 110.394 80.186 108.745C74.8781 107.095 72.4271 99.6894 74.6996 92.2188C75.1703 103.004 89.487 105.317 93.9184 98.2179Z" fill="#A74F45"/>
<path d="M92.4371 98.2778C94.1443 92.476 92.1809 86.7953 88.0517 85.5894C83.9225 84.3836 79.1911 88.1093 77.4838 93.911C75.7766 99.7128 77.74 105.394 81.8692 106.599C85.9984 107.805 90.7298 104.08 92.4371 98.2778Z" fill="black"/>
<path d="M87.1815 88.2245C86.5647 90.2458 84.8441 91.4909 83.3183 91.022C81.8087 90.553 81.0782 88.5318 81.6788 86.5105C82.2956 84.4892 84.0162 83.2441 85.5421 83.713C87.0679 84.1981 87.7983 86.2194 87.1815 88.2245Z" fill="white"/>
<path d="M87.7676 104.751C87.5079 105.592 86.7937 106.109 86.1607 105.915C85.5276 105.721 85.2192 104.864 85.4789 104.023C85.7386 103.183 86.4528 102.665 87.0859 102.859C87.7189 103.069 88.0111 103.91 87.7676 104.751Z" fill="white"/>
<path d="M80.1055 109.036C74.684 107.339 72.1518 99.7709 74.4729 92.1547C76.7941 84.5385 83.0922 79.7198 88.5137 81.4176C93.9352 83.1155 96.4674 90.6832 94.1462 98.2994C91.8413 105.916 85.5432 110.718 80.1055 109.036ZM88.3514 81.9836C83.1734 80.3666 77.1675 84.9913 74.9437 92.3002C72.7199 99.593 75.1222 106.853 80.284 108.47C85.4621 110.087 91.468 105.463 93.6917 98.1539C95.9155 90.8449 93.5132 83.6006 88.3514 81.9836Z" fill="#261005"/>
<path d="M314.642 276.916C314.317 267.489 305.99 259.598 298.67 254.876C301.64 254.084 308.458 256.17 312.158 258.563C307.808 245.125 296.348 235.682 285.165 229.941C288.216 229.731 295.861 232.593 299.968 235.795C295.391 220.191 286.479 215.437 278.639 210.424C278.639 210.424 284.759 210.472 289.304 215.404C284.921 198.523 276.594 191.278 267.536 186.346C267.536 186.346 274.711 187.64 280.814 190.033C274.5 173.119 260.459 163.692 250.785 157.628C250.785 157.628 264.063 162.511 268.088 163.482C265.037 155.235 254.08 144.368 247.733 140.827C248.285 141.151 255.184 141.474 260.135 144.401C259.161 135.62 254.096 127.438 247.295 121.423C249.681 121.973 254.908 125.223 259.047 130.527C258.495 121.196 251.483 108.309 243.269 102.665C247.409 103.425 253.496 106.142 258.284 110.799C256.872 98.7684 246.419 89.3411 237.929 84.8943C240.754 84.7811 248.269 86.1879 252.944 89.1147C248.594 78.9275 236.842 71.2789 227.378 68.8372C232.167 67.6406 238.205 67.9155 244.357 70.1308C237.929 60.5904 229.018 57.6151 220.739 57.4534C225.739 55.2865 235.105 54.85 239.13 56.37C233.254 46.2959 219.863 43.0295 211.276 43.2559C215.415 40.1189 221.291 39.0354 227.605 40.0542C216.389 29.9801 204.264 29.1554 196.05 30.2388C200.725 27.5222 210.74 25.792 217.379 26.7622C206.39 16.0252 182.123 20.0354 176.134 23.0754C177.659 20.2618 187.934 13.9231 193.648 12.4516C180.045 8.16645 165.68 12.2414 156.33 17.1086C158.181 12.6618 170.371 5.72474 178.536 4.10771C160.486 -1.48719 146.559 6.09666 138.508 13.2601C138.508 13.2601 144.01 3.55793 147.971 0.420898C131.982 1.71452 122.064 12.8882 116.188 20.6337C116.302 20.0839 119.889 9.46007 123.704 4.91623C113.413 6.38772 107.602 15.6209 103.787 24.8703C103.787 24.8703 103.836 14.8124 105.638 10.4465C94.616 14.3273 90.704 26.1963 89.5353 35.4942C89.5353 35.4942 87.3602 25.0805 83.6593 19.8899C75.527 31.4839 75.8192 57.4049 76.7607 58.8278C77.8969 58.4721 83.8216 47.7512 98.0247 50.4678C112.147 53.1682 112.471 71.9096 116.74 73.4457C119.435 74.416 127.681 65.9589 143.182 62.1751C155.86 59.0704 171.589 60.3478 185.629 72.4755C197.527 82.7598 208.793 96.9896 210.367 117.348C211.308 129.573 220.009 129.815 220.999 144.773C222.671 170.322 208.809 174.591 205.221 196.372C201.634 218.153 225.836 220.336 227.086 253.647C228.385 288.106 209.458 322.548 199.005 340.772C188.551 358.98 183.016 382.071 213.126 374.326C243.237 366.58 256.628 358.333 264.144 349.553C264.144 352.156 260.232 362.392 255.979 367.275C274.094 359.449 283.996 343.311 284.872 330.844C286.236 336.811 285.976 344.766 283.898 352.14C294.19 343.521 296.462 325.475 293.849 314.9C297.274 317.503 300.212 325.799 301.023 331.491C306.25 320.592 302.5 308.157 296.608 299.134C300.682 300.605 308.766 311.731 311.704 317.908C315.616 305.796 308.36 291.162 298.572 283.028C302.484 283.513 309.594 288.316 313.749 293.927C312.272 280.926 306.396 273.116 298.248 267.747C304.205 267.731 309.35 271.062 314.642 276.916Z" fill="#A06246"/>
<path d="M207.543 98.1046C207.04 91.6365 207.77 87.8364 205.79 81.7241C204.994 82.6781 204.085 83.0986 202.479 84.0364C200.255 75.1751 202.04 72.41 198.843 65.7641C198.047 70.5181 195.207 73.7036 193.405 74.1079C193.535 68.7232 191.652 61.4304 188.454 56.6764C189.249 61.4304 185.63 62.3036 182.903 65.8611C183.308 61.4304 181.442 55.7385 179.039 49.0925C177.449 56.6925 175.42 59.8134 170.891 62.1096C170.095 56.4177 164.479 48.8176 164.95 42.964C160.161 46.764 160.178 56.2074 156.72 59.2151C155.324 54.2347 152.321 43.9827 148.328 37.4985C146.575 48.8176 141.819 57.7436 139.141 59.5709C138.946 53.6364 138.605 46.1981 135.748 38.9214C134.158 45.6483 128.282 49.9496 125.831 57.873C125.035 49.3351 125.409 42.107 126.61 33.084C120.214 39.73 115.377 43.7887 113.786 53.2806C112.196 46.6347 114.208 41.5895 113.413 34.9436C111.011 40.6355 107.456 44.1768 105.865 49.8849C104.599 45.5351 105.67 41.8483 104.859 36.1563C100.866 39.0023 99.3236 44.8559 96.1258 47.7019C95.3142 45.1632 94.9247 42.6406 95.3305 38.6789C91.0614 42.1555 91.1263 44.7751 87.8312 47.9121C87.8312 46.9581 87.3767 46.8287 87.6689 45.1146C85.51 47.2168 85.3639 48.284 83.7732 51.0491C83.5622 51.6474 83.3836 52.2942 83.2051 52.9896C86.5814 50.8228 91.4023 49.1572 98.025 50.4347C112.147 53.1351 112.472 71.8764 116.741 73.4126C119.435 74.3828 127.681 65.9258 143.183 62.1419C155.86 59.0372 171.589 60.3147 185.63 72.4424C194.427 80.0424 202.884 89.8092 207.316 102.616C209.134 102.163 207.851 103.505 207.543 98.1046Z" fill="#844B34"/>
<path d="M227.411 68.8696C232.2 67.673 238.238 67.9478 244.39 70.1632C237.962 60.6227 229.051 57.6474 220.772 57.4857C225.772 55.3189 235.138 54.8823 239.163 56.4023C233.287 46.3282 219.896 43.0618 211.309 43.2882C215.448 40.1512 221.324 39.0678 227.638 40.0865C216.422 30.0124 204.297 29.1878 196.083 30.2712C200.758 27.5546 210.773 25.8244 217.412 26.7946C206.423 16.0575 182.156 20.0677 176.167 23.1078C177.692 20.2941 187.967 13.9554 193.681 12.4839C180.078 8.19879 165.713 12.2737 156.363 17.1409C158.214 12.6941 170.404 5.75708 178.569 4.14006C160.486 -1.48719 146.559 6.09666 138.508 13.2601C138.508 13.2601 144.011 3.55793 147.971 0.420898C131.983 1.71452 122.065 12.8882 116.189 20.6337C116.303 20.0839 119.89 9.46007 123.704 4.91623C113.413 6.38772 107.602 15.6209 103.788 24.8703C103.788 24.8703 103.836 14.8124 105.638 10.4465C94.6165 14.3273 90.7046 26.1963 89.5358 35.4942C89.5358 35.4942 87.3607 25.0805 83.6598 19.8899C76.3554 30.3035 75.8522 52.2465 76.5015 57.6474C77.8 46.6516 79.618 39.5852 83.3027 29.2039C84.3578 33.7154 86.9874 36.0278 90.0228 40.5878C91.7434 32.9554 94.6976 23.5605 99.5997 19.7767C99.5997 25.6303 100.574 27.6839 103.187 33.5376C104.486 23.7869 109.615 17.2218 115.751 12.1282C114.111 16.8499 113.852 20.7469 114.501 26.6005C119.695 16.2839 129.597 9.07198 139.157 4.9324C137.193 8.82943 136.739 12.5324 136.073 17.0116C145.212 8.55453 151.624 6.43623 163.619 5.95112C156.445 10.5111 153.864 14.489 152.565 21.6363C159.496 17.0763 171.638 13.9554 182.822 14.1171C175.891 18.4184 174.527 20.8277 171.751 26.6005C183.179 21.798 194.103 23.7222 203.907 25.3392C197.301 26.8107 192.967 28.7835 189.623 33.1818C198.762 31.3869 212.315 33.1171 219.863 37.2082C213.987 38.5018 208.679 40.9435 205.741 45.2933C214.88 45.9401 221.86 48.0584 230.349 51.9555C223.824 53.2491 217.299 55.2057 212.072 60.4125C217.737 59.8627 229.7 59.7657 236.875 65.6193C230.999 65.6193 223.808 66.4278 218.597 68.8696C231.664 71.2304 245.039 74.6585 252.717 88.5487C248.156 78.6525 236.68 71.2627 227.411 68.8696Z" fill="#B27F6B"/>
<path d="M278.981 264.934C273.705 259.259 266.287 255.103 257.425 257.868C260.395 260.099 264.307 262.784 266.255 265.306C254.373 260.342 246.646 260.326 238.157 268.104C245.267 266.907 249.649 267.053 254.876 269.009C241.923 270.933 229.911 278.986 223.532 284.355C223.191 285.762 222.964 290.483 222.574 291.874C235.868 276.69 244.958 273.634 259.161 269.333C255.282 267.166 249.244 265.274 246.143 265.516C251.889 260.876 262.067 265.306 268.641 267.732C267.342 263.835 266.271 262.056 262.992 259.453C266.904 258.87 273.007 261.118 278.981 264.934Z" fill="#B27F6B"/>
<path d="M314.643 276.915C314.319 267.488 305.992 259.597 298.671 254.875C301.642 254.083 308.459 256.169 312.16 258.562C307.81 245.125 296.35 235.681 285.166 229.941C288.218 229.731 295.863 232.593 299.97 235.795C295.392 220.19 286.481 215.436 278.641 210.423C278.641 210.423 284.76 210.472 289.305 215.404C284.922 198.522 276.595 191.278 267.538 186.346C267.538 186.346 274.712 187.64 280.816 190.033C278.267 182.384 273.089 176.062 269.583 172.423C268.804 171.728 263.025 165.05 250.786 157.628C250.786 157.628 264.064 162.511 268.09 163.481C265.038 155.234 254.081 144.368 247.735 140.827C248.287 141.15 255.185 141.473 260.136 144.4C259.162 135.62 254.098 127.438 247.296 121.422C249.683 121.972 254.909 125.222 259.049 130.526C258.497 121.196 251.484 108.308 243.271 102.665C247.41 103.425 253.497 106.141 258.286 110.799C256.873 98.7679 246.42 89.3406 237.931 84.8938C238.401 84.8776 239.018 84.91 239.716 84.9746C238.84 84.6997 237.752 84.1014 236.697 84.6189C243.872 88.5159 248.595 95.5176 252.507 102.018C247.118 99.1398 242.719 98.1211 237.492 97.4581C242.07 104.605 249.731 111.494 252.994 119.951C249.082 117.347 243.693 115.132 238.142 114.372C243.855 120.339 252.28 131.286 253.27 138.433C249.001 136.202 241.956 135.717 237.866 136.056C247.329 143.705 253.319 149.656 257.231 156.172C251.111 152.922 243.596 151.531 237.476 151.774C253.14 163.239 268.463 178.245 269.145 180.719C265.006 179.409 254.146 180.201 249.796 180.961C256.386 185.36 273.381 193.962 276.969 204.214C270.606 200.56 261.418 204.537 257.701 205.071C266.353 209.13 279.144 215.679 281.692 223.651C277.732 222.276 275.573 223.246 266.353 226.254C276.547 229.666 292.584 238.867 299.645 248.909C295.603 247.324 293.363 251.431 289.695 252.773C295.408 257.123 300.067 258.627 303.086 264.319C298.59 262.443 292.974 261.069 289.532 262.039C294.159 265.807 297.21 270.593 299.158 276.35C293.769 274.506 294.012 277.821 288.136 278.468C293.801 282.769 296.431 283.513 296.788 291.808C292.292 287.006 289.678 286.973 284.452 286.973C289.516 291.776 294.321 301.009 294.142 308.965C292.341 304.308 289.24 301.882 285.328 301.236C285.718 306.313 291.496 317.535 285.88 325.167C285.442 318.829 282.033 312.215 278.771 308.965C277.878 322.014 277.017 335.969 268.625 340.287C269.502 335.905 267.002 327.965 266.629 323.745C245.446 341.839 205.239 369.361 190.646 365.706C191.052 373.759 196.945 378.448 213.063 374.309C243.174 366.563 256.565 358.316 264.08 349.536C264.08 352.139 260.169 362.375 255.916 367.259C274.031 359.432 283.932 343.294 284.809 330.827C286.172 336.794 285.913 344.75 283.835 352.123C289.159 347.66 292.324 340.691 293.801 333.528C295.181 326.833 295.068 319.993 293.801 314.883C297.226 317.487 300.164 325.782 300.976 331.474C306.203 320.575 302.453 308.14 296.561 299.117C300.635 300.589 308.719 311.714 311.657 317.891C315.569 305.779 308.313 291.145 298.525 283.012C302.437 283.497 309.547 288.299 313.702 293.91C312.225 280.91 306.349 273.099 298.2 267.731C304.206 267.731 309.352 271.062 314.643 276.915Z" fill="#844B34"/>
<path d="M199.282 340.901C208.096 325.523 228.76 289.512 227.396 253.614C226.731 236.102 219.848 227.257 213.794 219.462C208.454 212.59 203.827 206.656 205.532 196.404C207.041 187.251 210.369 181.204 213.599 175.366C218.063 167.249 222.283 159.6 221.326 144.74C221.131 141.781 220.644 139.404 219.978 137.398C219.767 137.479 219.573 137.56 219.378 137.657C220.027 139.614 220.498 141.926 220.693 144.788C221.65 159.455 217.479 167.038 213.047 175.059C209.801 180.961 206.441 187.057 204.915 196.307C203.178 206.85 207.869 212.881 213.307 219.867C219.313 227.58 226.13 236.344 226.78 253.646C228.127 289.366 207.545 325.264 198.747 340.594C196.799 344.006 193.617 350.053 191.783 356.247C192.059 356.133 192.319 356.02 192.595 355.907C193.926 351.396 196.182 346.318 199.282 340.901Z" fill="#896946"/>
<path d="M314.416 277.142L315.016 277.805L314.984 276.915C314.627 266.437 304.579 258.433 299.563 255.069C302.566 254.795 308.572 256.622 312.013 258.853L312.776 259.355L312.5 258.481C307.744 243.799 294.807 234.76 286.659 230.361C290.116 230.846 296.22 233.288 299.791 236.069L300.586 236.684L300.31 235.714C296.009 221.015 287.714 215.776 280.393 211.151C280.263 211.07 280.117 210.989 279.987 210.892C282.016 211.2 285.945 212.234 289.077 215.646L289.954 216.6L289.629 215.339C285.36 198.846 277.244 191.65 269.502 187.106C272.066 187.672 276.644 188.771 280.702 190.356L281.383 190.615L281.124 189.936C275.102 173.814 262.035 164.435 253.513 158.97C257.652 160.457 265.119 163.109 268.008 163.805L268.609 163.95L268.398 163.384C265.46 155.461 255.672 145.629 249.406 141.49C251.809 141.862 256.451 142.622 259.973 144.708L260.541 145.047L260.476 144.4C259.6 136.59 255.347 128.618 248.724 122.312C251.338 123.508 255.445 126.435 258.805 130.769L259.454 131.593L259.389 130.542C258.853 121.342 252.279 109.311 244.731 103.36C248.481 104.363 253.724 106.821 258.074 111.057L258.74 111.704L258.626 110.799C257.263 99.2368 247.621 90.0036 239.294 85.2819C242.8 85.5406 248.903 86.9959 252.799 89.4215L253.675 89.9713L253.269 89.0172C249.114 79.2665 238.027 71.6989 228.743 68.9176C233.434 68.0444 239.034 68.5942 244.261 70.4861L245.202 70.8257L244.65 70.001C239.359 62.1261 231.876 57.841 222.396 57.2427C225.139 56.3695 228.808 55.8359 232.427 55.8359C235.187 55.8359 237.541 56.1431 239.034 56.7091L239.894 57.0325L239.44 56.2401C233.775 46.5218 221.357 43.0129 212.332 42.9482C215.238 41.0401 218.939 40.0375 223.094 40.0375C224.555 40.0375 226.048 40.1669 227.574 40.4094L228.662 40.5873L227.834 39.8435C220.27 33.0358 211.423 29.5916 201.554 29.5916C200.32 29.5916 199.087 29.6401 197.837 29.7533C201.781 28.0392 207.901 26.8588 213.257 26.8588C214.734 26.8588 216.114 26.9558 217.332 27.1337L218.322 27.2792L217.608 26.5839C211.602 20.7141 202.09 19.4851 195.175 19.4851C187.887 19.4851 180.874 20.8596 177.173 22.3149C179.965 19.3558 188.536 14.149 193.746 12.823L194.85 12.5319L193.763 12.1924C189.932 10.9796 185.809 10.3813 181.54 10.3813C171.054 10.3813 162.061 13.9549 157.143 16.3966C160 12.16 170.875 6.01533 178.618 4.47916L179.868 4.2366L178.65 3.86469C174.446 2.5549 170.226 1.89192 166.103 1.89192C154.53 1.89192 145.602 7.00172 139.775 11.7719C141.528 8.8613 145.294 2.97533 148.167 0.695321L149.011 0L147.939 0.0808512C133.071 1.29362 123.332 11.0119 117.098 18.9192C118.283 15.6205 121.043 8.5864 123.948 5.12597L124.484 4.47916L123.64 4.59235C115.524 5.74044 109.128 11.8366 104.145 23.172C104.243 20.132 104.616 13.7609 105.931 10.5753L106.207 9.89619L105.525 10.1387C94.4222 14.0358 90.705 25.9047 89.4551 33.715C88.676 30.5294 86.7444 23.6732 83.92 19.6954L83.644 19.3234L83.3843 19.6954C75.3332 31.1762 75.3819 57.3235 76.4857 58.9891L76.6156 59.1993L76.8428 59.1346C77.1187 59.0537 77.4109 58.7303 78.1089 57.9542C80.1542 55.6742 84.9426 50.338 93.5456 50.338C94.9578 50.338 96.4512 50.4835 97.9445 50.7746C106.986 52.5048 110.265 60.9618 112.667 67.1389C113.966 70.5023 115.004 73.1542 116.611 73.7363C117.829 74.1729 119.842 73.041 123.137 71.1167C127.519 68.5618 134.158 64.6972 143.248 62.4657C147.128 61.5116 151.056 61.0427 154.919 61.0427C166.184 61.0427 176.443 64.9721 185.387 72.7014C200.661 85.8964 208.712 100.498 210.011 117.364C210.465 123.233 212.657 126.354 214.978 129.653C216.585 131.933 218.224 134.278 219.344 137.657C219.539 137.56 219.75 137.479 219.945 137.399C218.809 133.971 217.137 131.593 215.514 129.281C213.241 126.063 211.115 123.007 210.676 117.315C209.362 100.288 201.229 85.5244 185.825 72.2163C176.751 64.3738 166.363 60.3959 154.919 60.3959C150.991 60.3959 147.014 60.881 143.086 61.835C133.899 64.0827 127.227 67.9797 122.796 70.5508C120.182 72.0708 118.283 73.1704 117.196 73.1704C117.05 73.1704 116.936 73.1542 116.822 73.1057C115.475 72.6206 114.453 69.9525 113.251 66.8801C110.8 60.5576 107.457 51.9065 98.0419 50.1116C96.4999 49.8205 94.974 49.675 93.5132 49.675C84.618 49.675 79.6997 55.1567 77.5895 57.5014C77.3298 57.7925 77.0701 58.0835 76.8753 58.2776C76.2098 54.995 76.0799 31.7099 83.6116 20.4392C87.069 25.646 89.1467 35.4452 89.163 35.5422L89.5688 37.4503L89.8122 35.5099C90.7862 28.1686 93.9839 15.3456 105.087 10.9958C103.528 15.6205 103.463 24.4656 103.463 24.8537L103.447 26.5192L104.08 24.9669C108.982 13.0979 114.988 6.84001 122.926 5.36852C119.273 10.2681 115.962 20.1158 115.865 20.5686L115.589 21.9592L116.449 20.8273C122.406 12.9847 131.983 2.47405 146.982 0.824683C143.118 4.46299 138.427 12.7098 138.216 13.0979L137.242 14.8119L138.703 13.5022C144.352 8.48938 153.669 2.52256 166.087 2.52256C169.755 2.52256 173.505 3.05618 177.255 4.12341C169.35 6.09618 157.938 12.4834 156.039 17.0434L155.698 17.8681L156.494 17.4477C161.104 15.0545 170.47 11.0119 181.54 11.0119C185.371 11.0119 189.055 11.5132 192.529 12.4834C186.702 14.3753 177.384 20.1481 175.875 22.9618L175.388 23.8835L176.313 23.4145C179.446 21.8298 187.14 20.132 195.191 20.132C201.716 20.132 210.563 21.2315 216.439 26.3737C215.449 26.2767 214.394 26.2281 213.274 26.2281C207.008 26.2281 199.704 27.829 195.905 30.012L194.493 30.8367L196.116 30.6264C197.934 30.3839 199.768 30.2707 201.57 30.2707C210.92 30.2707 219.344 33.4239 226.6 39.6494C225.415 39.5039 224.246 39.4231 223.11 39.4231C218.403 39.4231 214.247 40.6843 211.115 43.0614L210.319 43.6758L211.326 43.6435C211.585 43.6435 211.861 43.6273 212.121 43.6273C220.757 43.6273 232.671 46.8452 238.433 55.852C236.891 55.4316 234.814 55.2052 232.444 55.2052C228.029 55.2052 223.516 55.9814 220.643 57.2103L219.279 57.8086L220.773 57.841C230.463 58.035 238.125 61.9806 243.563 69.5644C238.011 67.7372 232.135 67.3814 227.347 68.578L226.097 68.8853L227.347 69.2087C236.421 71.5533 247.702 78.83 252.279 88.3704C247.848 85.9449 241.371 84.6027 238.303 84.6027C238.19 84.6027 238.076 84.6027 237.963 84.6027L236.745 84.6512L237.833 85.2172C246.046 89.5185 256.078 98.5253 257.879 109.974C252.929 105.446 247.036 103.069 243.368 102.39L241.858 102.115L243.124 102.972C250.753 108.211 257.685 120.145 258.675 129.54C254.552 124.592 249.682 121.665 247.41 121.147L246.176 120.873L247.134 121.713C254.13 127.907 258.723 135.943 259.795 143.851C256.11 141.878 251.565 141.182 249.325 140.843C248.708 140.746 248.075 140.649 247.962 140.6L247.653 141.166C253.48 144.433 264.21 154.701 267.619 163.061C263.074 161.816 251.094 157.417 250.964 157.369L248.026 156.285L250.672 157.935C258.723 162.98 273.608 172.31 280.312 189.499C274.42 187.3 267.732 186.071 267.667 186.055L265.687 185.699L267.456 186.669C275.41 191.003 284.11 197.681 288.753 214.337C284.305 210.213 278.965 210.116 278.721 210.116L277.585 210.1L278.543 210.714C279.062 211.038 279.582 211.377 280.101 211.701C287.503 216.374 295.148 221.209 299.45 234.954C295.164 231.946 288.59 229.601 285.588 229.601C285.458 229.601 285.344 229.601 285.214 229.618L284.062 229.698L285.101 230.232C292.843 234.21 306.462 243.039 311.64 257.818C308.28 255.878 303.378 254.374 300.294 254.374C299.661 254.374 299.109 254.439 298.654 254.552L297.94 254.746L298.557 255.15C303.053 258.045 313.393 265.774 314.318 276.01C308.751 270.059 303.784 267.391 298.297 267.391H297.21L298.119 267.99C306.965 273.811 311.835 281.702 313.328 292.762C309.254 287.766 302.647 283.173 298.654 282.672L297.551 282.527L298.411 283.238C307.696 290.935 315.097 304.89 311.689 316.985C308.41 310.501 300.797 300.233 296.771 298.778L295.862 298.454L296.382 299.263C303.248 309.806 305.017 321.335 301.219 330.326C300.164 324.408 297.275 317.034 294.077 314.608L293.346 314.042L293.574 314.932C295.879 324.262 294.515 341.92 284.532 351.137C286.318 344.2 286.578 336.648 285.23 330.714L284.743 328.563L284.597 330.762C283.786 342.292 274.858 358.171 257.133 366.353C261.045 361.146 264.518 351.945 264.518 349.471V348.582L263.95 349.261C255.169 359.529 239.488 367.145 213.111 373.937C209.167 374.956 205.693 375.473 202.788 375.473C197.739 375.473 194.266 373.937 192.496 370.897C190.565 367.598 190.678 362.327 192.643 355.875C192.367 355.988 192.107 356.101 191.831 356.214C190.208 361.696 189.64 367.291 191.928 371.237C193.828 374.487 197.48 376.152 202.788 376.136C205.758 376.136 209.28 375.619 213.274 374.584C239.115 367.938 254.763 360.483 263.755 350.49C263.074 354.064 259.535 362.699 255.785 367L254.844 368.083L256.159 367.517C273.835 359.885 283.25 344.75 285.003 332.994C285.896 338.751 285.409 345.688 283.623 352.01L283.331 353.029L284.143 352.35C294.71 343.488 296.495 325.75 294.434 315.789C297.388 318.813 299.969 326.008 300.748 331.506L300.894 332.573L301.365 331.603C305.699 322.548 304.271 310.776 297.567 299.926C301.755 302.561 308.767 312.344 311.462 318.02L311.819 318.764L312.078 317.988C315.99 305.876 308.994 291.76 299.807 283.594C303.638 284.726 309.692 288.914 313.539 294.088L314.27 295.059L314.14 293.862C312.841 282.381 308.166 274.167 299.434 268.087C304.417 268.458 309.108 271.288 314.416 277.142Z" fill="#4C2416"/>
<path d="M270.524 258.288C266.888 256.735 262.327 255.943 257.23 257.609L256.662 257.803L257.132 258.175C258.041 258.902 259.08 259.646 260.087 260.374C262.229 261.926 264.453 263.511 265.557 264.998C259.892 262.379 248.481 257.301 237.849 268.006L236.859 269.009L238.19 268.54C242.069 267.197 250.072 267.634 253.74 268.879C245.494 269.882 223.743 278.517 216.617 293.701L217.202 293.975C224.636 278.129 248.237 269.526 255.055 269.429L256.207 269.413L255.217 268.831C252.328 267.133 243.92 266.551 239.229 267.586C249.422 258.255 260.233 263.268 265.508 265.71L267.002 266.405L266.661 265.629C265.833 263.753 263.106 261.78 260.46 259.872C259.632 259.274 258.788 258.676 258.025 258.077C269.988 254.601 278.754 264.982 278.851 265.095C278.835 265.063 275.929 260.6 270.524 258.288Z" fill="#4C2416"/>
<path d="M82.0536 207.675C36.6362 214.305 -15.8908 250.283 5.01609 312.07C25.923 373.856 82.4432 388.636 109.048 385.127C148.654 379.92 188.26 354.776 195.24 296.466C203.177 229.828 163.019 195.871 82.0536 207.675Z" fill="#C41718"/>
<path d="M61.6816 228.162C61.6816 228.162 134.742 198.539 181.117 240.872C175.485 229.165 134.775 189.936 61.6816 228.162Z" fill="#9E070E"/>
<path d="M189.461 265.791C189.461 265.791 173.197 328.596 115.443 344.201C85.803 352.205 45.1253 346.222 16.3945 311.585C29.6562 346.885 71.7784 373.048 115.443 365.707C159.107 358.35 190.127 316.307 189.461 265.791Z" fill="#9E070E"/>
<path d="M2.58203 276.431C2.58203 276.431 26.2322 209.146 134.809 208.888C115.736 206.866 19.366 200.334 2.58203 276.431Z" fill="#D04546"/>
<path d="M34.3633 352.27C34.3633 352.27 73.1417 389.251 124.192 374.569C162.272 363.605 189.575 323.099 189.477 304.907C189.477 337.684 162.012 368.99 130.993 378.627C86.3384 392.469 46.5698 371.512 34.3633 352.27Z" fill="#D04546"/>
<path d="M91.2566 322.516C106.38 322.516 118.64 312.989 118.64 301.236C118.64 289.483 106.38 279.956 91.2566 279.956C76.1331 279.956 63.873 289.483 63.873 301.236C63.873 312.989 76.1331 322.516 91.2566 322.516Z" fill="#D04546"/>
<path d="M84.7151 300.945C90.5152 300.945 95.2172 297.905 95.2172 294.154C95.2172 290.403 90.5152 287.362 84.7151 287.362C78.9149 287.362 74.2129 290.403 74.2129 294.154C74.2129 297.905 78.9149 300.945 84.7151 300.945Z" fill="#D96A6B"/>
<path d="M67.5254 239.111C87.2474 224.751 110.037 234.502 119.874 224.509C114.761 238.868 87.848 252.451 67.5254 239.111Z" fill="#9E070E"/>
<path d="M111.953 205.088C102.685 205.088 92.6369 205.864 82.086 207.4C57.7703 210.942 26.0204 224.104 9.83697 250.381C-1.28201 268.443 -2.98638 289.254 4.77256 312.216C24.4621 370.445 74.7167 385.984 101.305 385.984C104.081 385.984 106.726 385.823 109.145 385.499C130.912 382.637 150.099 374.164 164.659 361.001C181.962 345.349 192.367 323.664 195.613 296.563C199.054 267.78 193.665 245.19 179.608 229.424C165.227 213.286 142.453 205.088 111.953 205.088ZM194.98 296.498C186.54 367.178 132.097 381.845 109.08 384.869C106.678 385.192 104.064 385.338 101.321 385.338C74.9114 385.338 24.9815 369.895 5.40561 312.022C-2.2884 289.254 -0.616498 268.621 10.4051 250.736C26.4749 224.654 58.0138 211.588 82.1834 208.063C92.7018 206.527 102.717 205.751 111.953 205.751C142.275 205.751 164.886 213.868 179.138 229.861C193.065 245.481 198.389 267.909 194.98 296.498Z" fill="#560000"/>
<path d="M72.5577 202.533C65.5941 198.361 61.4225 199.056 61.4225 199.056C61.4225 199.056 57.1047 207.707 55.8711 214.159C78.1415 213.674 89.9747 248.165 89.9747 248.165C89.9747 248.165 92.5881 249.249 97.1493 248.165C93.4484 222.81 80.4627 207.271 72.5577 202.533Z" fill="#65431A"/>
<path d="M66.357 213.108C61.0167 210.957 68.9217 203.034 62.3152 198.991C61.6173 200.98 56.2282 212.283 55.8711 214.175C78.1415 213.69 89.9747 248.181 89.9747 248.181C89.9747 248.181 90.7376 248.488 92.1498 248.618C88.5625 234.873 79.3427 218.347 66.357 213.108Z" fill="#432B16"/>
<path d="M72.7202 202.258C67.5421 199.153 63.9061 198.7 62.1855 198.7C61.6661 198.7 61.3739 198.749 61.3577 198.749L61.1954 198.781L61.1142 198.927C61.0655 199.007 56.764 207.691 55.5304 214.11L55.4492 214.499L55.855 214.482C77.6385 214.03 89.5204 247.939 89.634 248.278L89.6827 248.424L89.8126 248.472C89.8613 248.488 91.0624 248.973 93.2213 248.973C94.4874 248.973 95.8184 248.812 97.1982 248.488L97.4903 248.424L97.4416 248.133C93.5459 221.225 79.5701 206.349 72.7202 202.258ZM93.2538 248.327C91.6306 248.327 90.5755 248.036 90.2184 247.922C89.3256 245.465 77.5249 213.836 56.3258 213.836C56.3095 213.836 56.2771 213.836 56.2608 213.836C57.4782 208.03 61.0655 200.544 61.6336 199.363C61.7473 199.347 61.9421 199.347 62.1855 199.347C63.5166 199.347 67.1526 199.687 72.3793 202.824C79.0994 206.85 92.8317 221.452 96.7761 247.939C95.5587 248.181 94.3738 248.327 93.2538 248.327Z" fill="#230900"/>
<path d="M105.688 239.11C91.5985 247.34 81.2099 243.929 75.5936 242.409C69.9936 240.889 62.8027 235.746 62.8027 235.746C63.6143 239.32 73.3374 260.519 94.6988 255.523C113.544 251.124 118.706 229.812 119.664 224.848C119.096 227.111 116.563 232.755 105.688 239.11Z" fill="#C41718"/>
<path d="M119.68 224.864C119.858 224.201 119.858 223.829 119.858 223.829C119.858 223.829 119.81 224.201 119.68 224.864Z" fill="#C60500"/>
<path d="M91.2243 243.831C78.2062 245.836 64.2141 236.813 64.068 236.733L63.7109 237.282C63.8408 237.363 75.3493 244.785 87.2962 244.785C88.6434 244.785 89.9745 244.688 91.3217 244.478C99.9247 243.152 107.359 239.19 112.764 234.566C118.527 229.65 119.858 224.508 119.858 224.508C116.303 232.464 105.314 241.648 91.2243 243.831Z" fill="#560000"/>
<path d="M62.522 208.453C64.4804 204.407 64.3266 200.29 62.1786 199.258C60.0305 198.227 56.7016 200.671 54.7432 204.717C52.7848 208.764 52.9386 212.88 55.0867 213.912C57.2347 214.944 60.5637 212.5 62.522 208.453Z" fill="#9B7245"/>
<path d="M61.8509 207.668C63.6419 203.968 63.4964 200.2 61.526 199.254C59.5556 198.308 56.5064 200.54 54.7155 204.241C52.9245 207.942 53.07 211.709 55.0404 212.655C57.0108 213.601 60.06 211.369 61.8509 207.668Z" fill="#65431A"/>
<path d="M62.3168 198.975C61.9434 198.797 61.5376 198.7 61.0994 198.7C58.8593 198.7 56.1161 201.11 54.4442 204.57C52.3827 208.839 52.5937 213.076 54.9474 214.191C55.3207 214.369 55.7265 214.466 56.1648 214.466C58.4048 214.466 61.1481 212.057 62.82 208.596C64.8814 204.344 64.6704 200.107 62.3168 198.975ZM62.2356 208.321C60.6936 211.507 58.1451 213.819 56.1648 213.819C55.8239 213.819 55.5155 213.755 55.2233 213.609C53.2755 212.671 53.1781 208.661 55.0286 204.845C56.5706 201.659 59.119 199.347 61.0994 199.347C61.4402 199.347 61.7486 199.412 62.0408 199.557C63.9887 200.511 64.0698 204.521 62.2356 208.321Z" fill="#230900"/>
<path d="M21.0694 276.64C18.4561 290.434 21.2804 323.631 26.9454 330.358C31.7339 328.401 47.6901 314.075 54.6536 303.903C64.6039 289.383 60.5134 268.539 64.3117 252.676C69.4898 231.056 79.1154 222.923 79.1154 222.923C38.6975 235.827 24.6567 257.721 21.0694 276.64Z" fill="#61C437"/>
<path d="M75.5938 224.799C76.7625 224.168 77.9312 223.537 79.0999 222.923C78.9376 222.971 78.7915 223.02 78.6454 223.068C77.5903 223.618 76.5839 224.2 75.5938 224.799Z" fill="#4DAF00"/>
<path d="M37.203 267.682C30.6127 286.925 34.476 304.971 27.2852 324.488C37.203 313.218 39.6865 298.665 41.6506 286.294C44.6535 261.101 53.5325 238.269 75.5919 224.799C58.3047 234.307 44.4587 246.596 37.203 267.682Z" fill="#50A329"/>
<path d="M20.7446 276.576C18.05 290.774 20.9881 323.777 26.6855 330.552L26.8316 330.73L27.0589 330.633C31.8636 328.677 47.7385 314.528 54.9131 304.066C61.3086 294.719 61.9416 282.818 62.5584 271.321C62.9156 264.707 63.2564 258.449 64.6199 252.741C69.7168 231.494 79.2288 223.231 79.3262 223.15L80.5761 222.099L79.0178 222.6C36.7656 236.102 24.0072 259.403 20.7446 276.576ZM63.9869 252.612C62.6071 258.385 62.2663 264.659 61.9092 271.305C61.2923 282.721 60.6593 294.525 54.3775 303.726C47.5113 313.752 31.9285 327.739 27.0426 329.97C21.6536 323.017 18.7967 290.337 21.3939 276.706C24.5916 259.888 37.0091 237.105 77.914 223.667C75.2844 226.416 68.1585 235.213 63.9869 252.612Z" fill="#274702"/>
<path d="M48.0137 250.623C39.9139 264.756 38.3394 275.849 36.9596 285.615C36.5701 288.364 36.1967 290.968 35.7098 293.555C32.8205 308.658 29.8338 319.314 26.8633 325.216C26.8633 325.216 29.2819 321.562 31.1161 315.854C31.7816 313.784 32.3822 311.472 33.0152 308.981C34.1353 304.535 35.2553 299.425 36.3591 293.684C36.8623 291.097 37.2194 288.478 37.6089 285.712C38.9887 275.994 40.5469 264.982 48.5818 250.946C57.266 235.779 79.0657 223.328 79.2767 223.214L78.9521 222.648C78.7411 222.762 56.7953 235.294 48.0137 250.623Z" fill="#274702"/>
<path d="M24.9805 263.414L25.4512 263.867C25.5648 263.754 37.0409 252.127 49.426 249.362L49.2799 248.731C36.7 251.529 25.0941 263.301 24.9805 263.414Z" fill="#274702"/>
<path d="M19.8848 295.172L20.4367 295.511C20.5178 295.366 29.1046 281.54 38.6815 277.675L38.438 277.077C28.6663 281.023 19.9822 295.042 19.8848 295.172Z" fill="#274702"/>
<path d="M44.459 257.576C45.6764 274.119 58.029 296.401 58.1589 296.611L58.727 296.288C58.5971 296.062 46.3094 273.908 45.1083 257.512L44.459 257.576Z" fill="#274702"/>
<path d="M61.8934 235.536L61.2441 235.472C60.2702 244.268 64.1659 251.982 64.2146 252.046L64.799 251.755C64.7503 251.69 60.9357 244.139 61.8934 235.536Z" fill="#274702"/>
<path d="M210.108 203.18C196.198 205.233 187.091 229.666 186.604 234.55C171.622 238.786 159.675 252.45 153.799 250.979C143.687 244.446 121.319 240.08 119.517 244.446C117.715 248.812 129.467 254.714 136.009 257.156C136.009 257.156 109.729 260.244 110.054 265.354C110.378 270.464 125.88 270.011 134.856 268.701C134.856 268.701 111.515 274.393 113.154 280.894C114.794 287.394 134.045 283.174 140.911 281.379C140.911 281.379 127.682 290.806 129.159 293.733C130.636 296.66 137.486 293.41 148.751 288.526C160.016 283.643 158.214 276.334 163.441 273.407C168.668 270.48 180.306 273.957 207.511 265.063C234.716 256.169 234.343 227.532 232.492 220.563C230.61 213.609 223.321 201.223 210.108 203.18Z" fill="#F2D7AB"/>
<path d="M188.147 238.915C192.919 230.135 196.214 205.087 213.891 203.001C212.689 202.936 211.423 202.969 210.109 203.163C196.198 205.216 187.091 229.65 186.604 234.533C171.622 238.77 159.675 252.433 153.799 250.962C143.817 244.526 121.968 240.193 119.631 244.251C136.334 242.715 148.638 254.6 155.585 253.193C173.002 248.164 177.823 239.901 188.147 238.915Z" fill="#FFEDD4"/>
<path d="M229.911 214.401C233.758 230.911 227.087 245.675 211.553 255.943C202.43 261.974 180.744 265.936 168.375 268.006C162.223 269.041 158.62 271.66 157.305 275.331C154.075 284.305 138.346 292.617 129.045 293.199C129.045 293.409 129.077 293.587 129.159 293.749C130.636 296.676 137.486 293.425 148.751 288.542C160.016 283.659 158.214 276.35 163.441 273.423C168.667 270.496 180.306 273.973 207.511 265.079C234.716 256.185 234.343 227.548 232.492 220.578C231.989 218.767 231.129 216.601 229.911 214.401Z" fill="#D8BB91"/>
<path d="M113.381 278.953C113.089 279.584 112.975 280.247 113.154 280.91C114.793 287.41 134.044 283.19 140.911 281.395C140.911 281.395 140.862 281.427 140.781 281.492C141.414 281.249 141.674 281.152 142.534 280.635C135.067 281.686 117.017 285.211 113.381 278.953Z" fill="#D8BB91"/>
<path d="M119.744 244.073C119.646 244.203 119.565 244.332 119.516 244.461C117.796 248.649 128.509 254.244 135.164 256.848C135.943 256.848 136.463 257.333 137.388 257.333C130.278 252.886 122.016 247.954 119.744 244.073Z" fill="#D8BB91"/>
<path d="M110.849 263.736C110.298 264.254 110.005 264.787 110.054 265.353C110.362 270.172 124.176 270.043 133.266 268.911C134.24 268.555 137.243 268.329 138.347 268.054C129.029 267.892 113.447 267.439 110.849 263.736Z" fill="#D8BB91"/>
<path d="M212.851 202.646C211.942 202.646 211.001 202.71 210.059 202.856C196.295 204.893 187.059 228.437 186.296 234.291C178.699 236.49 171.817 241.115 166.281 244.834C161.558 248.019 157.467 250.752 154.724 250.752C154.448 250.752 154.172 250.72 153.913 250.671C146.283 245.772 132.632 242.36 125.101 242.36C121.724 242.36 119.728 243.023 119.192 244.316C118.884 245.076 118.916 245.901 119.306 246.774C121.026 250.703 129.5 254.924 134.661 256.994C128.964 257.721 109.404 260.6 109.713 265.37C109.956 269.105 117.131 269.881 123.104 269.881C125.474 269.881 128.071 269.752 130.62 269.526C125.068 271.175 115.654 274.474 113.284 278.387C112.748 279.26 112.602 280.133 112.813 280.99C113.43 283.481 116.433 284.726 121.708 284.726C127.779 284.726 135.505 283.044 139.336 282.122C135.862 284.726 127.535 291.307 128.834 293.91C129.256 294.767 130.116 295.204 131.382 295.204C134.272 295.204 139.417 292.973 146.543 289.868L148.848 288.865C155.779 285.858 157.873 281.88 159.561 278.678C160.649 276.608 161.59 274.829 163.571 273.714C165.47 272.647 168.294 272.452 172.563 272.161C179.738 271.676 190.597 270.932 207.592 265.386C222.266 260.6 228.515 250.138 231.194 242.214C234.213 233.223 233.807 224.297 232.784 220.497C231.129 214.32 224.847 202.646 212.851 202.646ZM230.561 242.004C227.947 249.782 221.795 260.05 207.381 264.772C190.467 270.302 179.657 271.029 172.515 271.515C168.164 271.806 165.291 272 163.246 273.148C161.103 274.344 160.113 276.204 158.977 278.371C157.256 281.637 155.292 285.34 148.572 288.251L146.267 289.253C139.223 292.326 134.126 294.541 131.366 294.541C130.344 294.541 129.727 294.25 129.402 293.603C128.428 291.647 136.025 285.243 141.057 281.653L142.501 280.635L140.797 281.087C138.103 281.783 128.753 284.079 121.708 284.079C116.774 284.079 113.982 282.979 113.446 280.829C113.267 280.149 113.414 279.454 113.852 278.727C117.049 273.439 134.742 269.073 135.018 269.024L138.33 268.07L134.889 268.394C131.042 268.944 126.773 269.251 123.088 269.251C115.037 269.251 110.508 267.86 110.346 265.354C110.102 261.424 128.785 258.352 136.009 257.495L137.34 257.333L136.074 256.864C130.457 254.762 121.53 250.283 119.874 246.532C119.565 245.82 119.533 245.173 119.776 244.575C120.182 243.572 122.065 243.023 125.084 243.023C132.519 243.023 146.056 246.402 153.588 251.253L153.685 251.302C153.994 251.383 154.351 251.415 154.692 251.415C157.646 251.415 161.607 248.747 166.622 245.383C172.174 241.648 179.072 237.007 186.653 234.857L186.864 234.792L186.88 234.566C187.351 229.828 196.554 205.491 210.108 203.486C211.017 203.357 211.926 203.292 212.803 203.292C224.409 203.292 230.496 214.644 232.103 220.659C233.141 224.394 233.547 233.159 230.561 242.004Z" fill="#896946"/>
<path d="M216.146 289.852C210.108 298.147 212.234 311.633 212.234 311.633C212.234 311.633 215.01 319.12 220.724 315.853C226.437 312.603 233.953 296.999 233.206 288.542C232.459 280.101 222.185 281.556 216.146 289.852Z" fill="#F2D7AB"/>
<path d="M232.477 285.793C226.293 288.72 223.858 297.904 221.196 302.367C219.345 306.054 215.823 308.059 211.943 308.755C212.057 310.517 212.219 311.633 212.219 311.633C212.219 311.633 214.995 319.12 220.709 315.853C226.422 312.603 233.938 296.999 233.191 288.542C233.11 287.475 232.85 286.553 232.477 285.793Z" fill="#D8BB91"/>
<path d="M227.493 282.559C223.581 282.559 219.036 285.356 215.887 289.674C209.833 297.985 211.894 311.568 211.926 311.762C212.008 311.972 213.923 317.017 217.932 317.017C218.874 317.017 219.864 316.726 220.87 316.16C226.909 312.732 234.229 296.724 233.515 288.525C233.207 284.79 230.95 282.559 227.493 282.559ZM220.546 315.578C219.637 316.096 218.76 316.354 217.932 316.354C214.378 316.354 212.56 311.584 212.543 311.584C212.527 311.455 210.514 298.131 216.407 290.029C219.426 285.873 223.776 283.189 227.493 283.189C230.626 283.189 232.59 285.146 232.882 288.558C233.629 297.225 225.951 312.522 220.546 315.578Z" fill="#896946"/>
<path d="M238.336 283.189C224.473 285.792 221.844 312.134 221.844 312.134C221.844 312.134 226.746 321.561 230.333 323.194C233.92 324.827 241.761 317.826 246.663 307.913C251.565 297.985 252.214 280.586 238.336 283.189Z" fill="#F2D7AB"/>
<path d="M232.963 306.281C230.025 310.533 226.941 311.342 222.104 310.339C221.942 311.471 221.877 312.134 221.877 312.134C221.877 312.134 226.779 321.561 230.366 323.195C233.954 324.828 241.794 317.826 246.696 307.914C248.725 303.823 249.683 299.311 249.536 294.589C239.408 293.668 235.853 302.092 232.963 306.281Z" fill="#D8BB91"/>
<path d="M238.287 282.866C224.344 285.485 221.649 311.018 221.536 312.101L221.52 312.198L221.568 312.279C221.763 312.667 226.551 321.836 230.204 323.485C230.593 323.663 231.032 323.744 231.502 323.744C235.755 323.744 242.686 316.694 246.955 308.043C250.12 301.623 251.663 291.856 248.254 286.407C246.273 283.221 242.865 282.009 238.287 282.866ZM246.371 307.752C241.696 317.227 235.008 323.097 231.502 323.097C231.129 323.097 230.772 323.033 230.48 322.887C227.217 321.399 222.688 313.007 222.185 312.069C222.38 310.339 225.334 285.954 238.401 283.512C242.702 282.704 245.868 283.82 247.702 286.763C250.867 291.808 249.504 301.397 246.371 307.752Z" fill="#896946"/>
<path d="M245.576 294.865C239.489 297.177 233.808 304.971 234.701 318.198C234.701 318.198 227.737 306.055 211.197 309.58C199.785 312.005 205.207 320.43 185.728 338.799C169.707 353.919 161.397 363.912 164.399 371.965C167.013 378.95 184.057 389.477 215.109 368.488C246.891 347.03 254.504 322.532 254.715 311.682C254.942 300.848 251.679 292.552 245.576 294.865Z" fill="#F2D7AB"/>
<path d="M245.577 294.865C244.343 295.334 243.11 296.029 241.957 296.951C243.385 297.824 244.603 298.924 245.35 300.411C250.576 313.412 245.106 327.383 236.86 338.136C215.093 366.531 171.412 381.198 166.64 360.015C163.929 364.542 163.085 368.439 164.4 371.965C167.013 378.95 184.057 389.477 215.109 368.488C246.892 347.03 254.504 322.532 254.715 311.682C254.943 300.848 251.68 292.552 245.577 294.865Z" fill="#D8BB91"/>
<path d="M245.462 294.557C239.927 296.659 233.792 303.79 234.311 317.05C232.509 314.641 226.99 308.609 217.024 308.609C215.125 308.609 213.144 308.819 211.132 309.256C205.223 310.517 203.681 313.412 201.133 318.198C198.6 322.968 195.111 329.501 185.517 338.556C169.626 353.546 161.023 363.831 164.107 372.077C165.747 376.476 172.126 381.197 182.222 381.197C191.945 381.197 203.08 377.009 215.303 368.762C253.351 343.068 254.991 314.835 255.056 311.698C255.202 304.356 253.741 298.39 251.144 295.754C249.569 294.153 247.621 293.749 245.462 294.557ZM254.39 311.681C254.325 314.786 252.686 342.712 214.93 368.229C202.999 376.298 191.686 380.551 182.222 380.551C172.418 380.551 166.282 376.039 164.708 371.851C161.754 363.944 170.259 353.837 185.956 339.025C195.63 329.905 199.136 323.308 201.701 318.505C204.249 313.719 205.645 311.083 211.261 309.887C213.242 309.466 215.173 309.256 217.024 309.256C229.036 309.256 234.36 318.263 234.425 318.36L235.123 319.573L235.025 318.166C234.116 304.502 240.203 297.225 245.69 295.156C247.589 294.428 249.277 294.784 250.657 296.19C253.14 298.729 254.536 304.518 254.39 311.681Z" fill="#896946"/>
<path d="M212.962 342.994C218.98 336.965 221.467 329.709 218.517 326.788C215.568 323.866 208.298 326.384 202.281 332.413C196.263 338.442 193.776 345.698 196.725 348.619C199.675 351.541 206.944 349.023 212.962 342.994Z" fill="#FFBDB4"/>
<path d="M96.4509 87.2061C96.4509 87.2061 97.8144 92.5746 95.6393 97.6035C93.4804 102.632 90.0717 105.964 86.4844 107.952C88.2537 108.276 101.158 110.41 101.158 110.41C101.158 110.41 104.502 94.5635 96.4509 87.2061Z" fill="#F2D7AB"/>
<path d="M82.8496 108.891L83.0606 109.505C93.8225 105.754 96.5008 97.9918 97.004 92.7203C97.2962 89.5995 96.4683 87.2871 96.4683 87.2871C96.6144 87.9177 99.4226 103.118 82.8496 108.891Z" fill="#896946"/>
<path d="M93.6589 106.821C77.5892 105.721 68.418 115.262 67.1032 125.886C65.8047 136.51 75.1543 151.467 78.8553 161.218C82.5562 170.968 72.7682 193.962 89.5197 196.339C106.271 198.716 128.672 177.178 137.843 166.198C146.77 155.526 132.405 143.107 123.429 131.788C111.238 116.41 107.7 107.791 93.6589 106.821Z" fill="#C4A177"/>
<path d="M86.0461 192.119C82.6699 190.275 80.3324 186.427 79.3423 178.519C79.0663 186.976 80.0078 194.981 89.536 196.339C104.356 198.441 123.575 181.834 134.174 170.386C118.9 183.322 95.5581 195.999 86.0461 192.119Z" fill="#AA8359"/>
<path d="M134.158 170.403C134.239 170.338 134.321 170.257 134.402 170.192C134.385 170.176 134.385 170.176 134.369 170.16C134.304 170.241 134.239 170.322 134.158 170.403Z" fill="#AA8359"/>
<path d="M135.084 145.904C134.564 145.193 134.028 144.498 133.477 143.786C133.964 144.514 134.499 145.225 135.084 145.904Z" fill="#AA8359"/>
<path d="M92.1821 196.21C91.2893 196.21 90.429 196.146 89.585 196.032C78.7257 194.48 79.31 184.18 79.8782 174.203C80.008 171.89 80.1379 167.54 79.6834 165.212C79.5373 166.409 79.5535 169.61 79.3912 171.082C79.3425 172.1 79.2938 173.119 79.2289 174.17C78.677 183.953 78.0277 195.046 89.4876 196.679C90.3479 196.809 91.2569 196.857 92.1821 196.857C103.187 196.857 116.124 187.996 126.221 178.763C127.032 177.986 129.337 175.626 129.824 174.866C128.85 175.787 125.734 178.342 124.695 179.264C114.875 188.044 102.619 196.21 92.1821 196.21Z" fill="#68492E"/>
<path d="M82.6699 148.976C93.659 166.327 79.8618 177.129 86.0462 182.206C92.2144 187.284 101.872 182.368 108.414 172.941C114.939 163.514 127.519 156.188 127.519 156.188L124.094 151.628C124.078 151.628 89.4225 143.559 82.6699 148.976Z" fill="#570D00"/>
<path d="M108.413 172.941C111.887 167.912 117.081 163.497 121.172 160.457C119.613 153.86 114.322 149.009 108.04 149.009C100.525 149.009 94.4375 155.93 94.4375 164.468C94.4375 171.065 98.0897 176.708 103.219 178.924C105.07 177.242 106.823 175.221 108.413 172.941Z" fill="#2C0000"/>
<path d="M97.1481 169.464C94.3724 167.605 89.5028 169.076 85.8343 171.534C84.5845 176.353 83.221 179.878 86.0454 182.206C92.2136 187.284 101.872 182.368 108.413 172.941C109.127 171.922 109.907 170.92 110.718 169.966C108.024 168.801 103.186 167.508 97.1481 169.464Z" fill="#FFB8B8"/>
<path d="M97.1481 169.464C94.3724 167.605 89.5028 169.076 85.8343 171.534C85.6233 172.343 84.7305 175.949 84.5195 176.676C86.4998 170.16 93.2686 166.343 94.2913 171.793C93.3498 172.989 91.9051 175.286 91.5967 176.11C93.7231 171.89 101.628 167.281 105.426 169.594C109.663 171.906 101.677 180.088 98.1058 182.514C101.774 180.622 105.41 177.242 108.397 172.941C109.111 171.922 109.89 170.92 110.702 169.966C108.024 168.801 103.186 167.508 97.1481 169.464Z" fill="#EC8B8B"/>
<path d="M103.382 168.139C101.337 168.139 99.2588 168.462 97.1973 169.125C96.337 168.591 95.2657 168.317 94.0158 168.317C91.5486 168.317 88.4158 169.432 85.6401 171.276L85.5427 171.34L85.5102 171.454C85.3804 171.955 85.2505 172.456 85.1206 172.941C84.0169 177.016 83.1403 180.25 85.8349 182.466C87.5392 183.872 89.5358 184.568 91.7758 184.568C97.3109 184.568 103.771 180.185 108.673 173.119C109.339 172.165 110.102 171.179 110.962 170.16L111.254 169.82L110.849 169.642C109.242 168.963 106.628 168.139 103.382 168.139ZM108.138 172.747C103.366 179.636 97.0999 183.905 91.792 183.905C89.6981 183.905 87.8476 183.242 86.2569 181.948C83.887 180.008 84.6661 177.113 85.7537 173.103C85.8673 172.666 85.9972 172.197 86.127 171.728C88.7729 169.982 91.7271 168.947 94.0321 168.947C95.217 168.947 96.2072 169.206 96.9701 169.74L97.0999 169.837L97.246 169.788C99.275 169.125 101.337 168.785 103.382 168.785C106.255 168.785 108.625 169.465 110.183 170.095C109.42 171.001 108.738 171.89 108.138 172.747Z" fill="#AD4040"/>
<path d="M91.6133 176.126C91.6457 176.062 94.4214 170.127 98.9015 169.319L98.7879 168.672C93.9507 169.545 91.6133 176.126 91.6133 176.126Z" fill="#AD4040"/>
<path d="M124.159 151.305C123.965 151.257 104.551 146.777 92.0685 146.777C87.3125 146.777 84.0823 147.424 82.4753 148.718L82.248 148.896L82.4104 149.138C88.822 159.261 86.6956 167.152 85.1374 172.925C84.0336 177 83.1733 180.217 85.8516 182.433C87.5559 183.84 89.5525 184.535 91.7925 184.535C97.3277 184.535 103.788 180.153 108.69 173.086C115.102 163.821 127.552 156.512 127.682 156.431L127.99 156.253L124.273 151.305H124.159ZM108.138 172.747C103.366 179.635 97.1004 183.904 91.7925 183.904C89.6986 183.904 87.8481 183.241 86.2574 181.948C83.8875 180.007 84.6666 177.113 85.7542 173.103C87.3287 167.265 89.4876 159.293 83.1083 149.057C84.6666 147.974 87.6858 147.424 92.0685 147.424C103.983 147.424 122.26 151.531 123.9 151.903L127.032 156.075C125.036 157.304 114.063 164.193 108.138 172.747Z" fill="#68492E"/>
<path d="M65.1571 126.112C65.1571 126.112 63.3553 157.499 89.6351 150.82C95.1864 154.879 110.526 162.851 127.505 153.262L118.041 138.903L65.1571 126.112Z" fill="#C4A177"/>
<path d="M80.7069 140.213C82.3139 142.784 84.6026 145.533 86.1772 147.36C80.0414 149.802 73.2239 147.861 68.6465 143.285C71.8604 149.236 77.9962 153.78 89.6508 150.821C95.2022 154.879 110.542 162.851 127.52 153.262C127.52 153.262 118.998 151.451 117.456 151.015C104.454 157.175 89.1152 149.09 80.7069 140.213Z" fill="#AA8359"/>
<path d="M89.8293 150.562L89.6994 150.465L89.5534 150.497C82.5898 152.26 77.0059 151.467 72.9479 148.152C64.702 141.393 65.4649 126.274 65.4812 126.112L64.8319 126.08C64.8156 126.242 64.0365 141.684 72.5421 148.654C76.73 152.098 82.4762 152.939 89.5858 151.176C91.8745 152.842 100.056 158.13 110.834 158.13C115.979 158.13 121.709 156.933 127.683 153.553L127.358 152.987C108.967 163.369 92.8809 152.793 89.8293 150.562Z" fill="#68492E"/>
<path d="M80.7706 140.342C80.7219 140.261 80.6895 140.213 80.6895 140.213C80.7057 140.245 80.7381 140.294 80.7706 140.342Z" fill="#68492E"/>
<path d="M80.7715 140.342C81.4045 141.458 86.2092 149.526 92.4424 153.132L92.7508 152.567C87.9298 149.947 81.5506 141.603 80.7715 140.342Z" fill="#68492E"/>
<path d="M78.1423 136.687C88.5504 136.687 96.9878 130.678 96.9878 123.266C96.9878 115.854 88.5504 109.845 78.1423 109.845C67.7343 109.845 59.2969 115.854 59.2969 123.266C59.2969 130.678 67.7343 136.687 78.1423 136.687Z" fill="#444444"/>
<path d="M86.8907 111.381C92.0038 113.774 94.4873 121.52 88.2867 126.565C80.2843 133.049 63.6139 130.009 59.9941 126.92C62.8185 134.407 72.4604 136.687 78.1416 136.687C88.5464 136.687 96.9871 130.688 96.9871 123.266C96.9871 118.108 92.8966 113.629 86.8907 111.381Z" fill="#2D2D2D"/>
<path d="M78.1414 109.521C67.5581 109.521 58.9551 115.682 58.9551 123.266C58.9551 130.85 67.5581 137.011 78.1414 137.011C88.7247 137.011 97.3277 130.85 97.3277 123.266C97.3115 115.682 88.7085 109.521 78.1414 109.521ZM78.1414 136.348C67.9314 136.348 59.6206 130.478 59.6206 123.266C59.6206 116.054 67.9314 110.184 78.1414 110.184C88.3514 110.184 96.6622 116.054 96.6622 123.266C96.6622 130.478 88.3514 136.348 78.1414 136.348Z" fill="black"/>
<path d="M81.0001 129.039C81.0001 128.149 81.5033 127.357 82.3311 126.759C80.6917 127.325 79.5879 128.473 79.5879 129.783C79.5879 131.675 81.8928 133.195 84.7335 133.195C86.2431 133.195 87.6065 132.758 88.548 132.063C87.8338 132.321 87.006 132.451 86.1457 132.451C83.305 132.451 81.0001 130.915 81.0001 129.039Z" fill="#540101"/>
<path d="M84.7334 126.354C83.8731 126.354 83.0452 126.5 82.331 126.743C81.5032 127.341 81 128.149 81 129.023C81 130.915 83.305 132.435 86.1456 132.435C87.0059 132.435 87.8337 132.289 88.5479 132.046C89.3758 131.448 89.879 130.64 89.879 129.766C89.8952 127.874 87.5902 126.354 84.7334 126.354Z" fill="#260000"/>
<path d="M84.7325 126.031C81.7134 126.031 79.2461 127.713 79.2461 129.767C79.2461 131.836 81.6971 133.502 84.7325 133.502C87.7517 133.502 90.219 131.82 90.219 129.767C90.219 127.697 87.7517 126.031 84.7325 126.031ZM84.7325 132.855C82.0705 132.855 79.9116 131.464 79.9116 129.767C79.9116 128.069 82.0705 126.678 84.7325 126.678C87.3946 126.678 89.5535 128.069 89.5535 129.767C89.5535 131.464 87.3946 132.855 84.7325 132.855Z" fill="black"/>
<path d="M86.0633 126.129L85.8848 126.759C87.021 127.099 88.0274 127.228 88.9202 127.228C93.5301 127.228 94.1631 123.153 94.1631 123.153C94.082 123.364 92.5562 128.021 86.0633 126.129Z" fill="black"/>
<path d="M62.5103 125.659C62.7213 125.028 63.3057 124.592 64.0848 124.398C62.7862 124.349 61.7149 124.851 61.4065 125.756C60.9845 126.985 62.1532 128.505 64.0199 129.119C64.9289 129.427 65.8379 129.459 66.5845 129.281C66.1138 129.265 65.6268 129.184 65.1399 129.022C63.2732 128.408 62.1045 126.904 62.5103 125.659Z" fill="#540101"/>
<path d="M65.5292 124.673C65.0422 124.511 64.539 124.43 64.0845 124.414C63.3216 124.608 62.7373 125.045 62.51 125.675C62.088 126.904 63.2567 128.424 65.1234 129.039C65.6103 129.2 66.1135 129.281 66.568 129.297C67.3309 129.103 67.9153 128.667 68.1425 128.036C68.5646 126.807 67.3959 125.303 65.5292 124.673Z" fill="#260000"/>
<path d="M65.6427 124.365C65.0746 124.171 64.4902 124.074 63.9383 124.074C62.5261 124.074 61.4386 124.689 61.114 125.659C60.8705 126.354 61.049 127.147 61.6172 127.874C62.1528 128.553 62.9644 129.119 63.9383 129.443C64.5065 129.637 65.0908 129.734 65.6427 129.734C67.0549 129.734 68.1425 129.119 68.4671 128.149C68.7106 127.454 68.532 126.661 67.9639 125.934C67.412 125.255 66.6004 124.689 65.6427 124.365ZM67.834 127.939C67.5906 128.65 66.7465 129.087 65.6265 129.087C65.1395 129.087 64.6201 129.006 64.1169 128.828C63.2728 128.553 62.5586 128.068 62.1041 127.486C61.6821 126.936 61.536 126.37 61.6983 125.869C61.9418 125.158 62.7859 124.721 63.9059 124.721C64.3928 124.721 64.9123 124.802 65.4155 124.98C66.2595 125.271 66.9737 125.74 67.4282 126.322C67.8665 126.872 67.9964 127.454 67.834 127.939Z" fill="black"/>
<path d="M117.439 151.014C117.439 151.014 121.936 152.227 123.802 155.687C125.669 159.164 125.539 161.331 125.491 163.142C126.822 162.269 134.191 157.806 130.441 152.68C126.692 147.57 117.439 151.014 117.439 151.014Z" fill="#C4A177"/>
<path d="M122.114 153.262C119.939 151.209 117.455 151.015 117.455 151.015C117.536 151.047 125.604 153.925 125.506 163.013C125.506 163.013 126.091 161.089 125.685 159.181C125.133 156.513 123.558 154.637 122.114 153.262Z" fill="#68492E"/>
<path d="M75.0895 111.204C71.4048 111.414 68.483 112.659 68.5642 114.001C68.6453 115.343 71.6807 116.265 75.3654 116.055C79.0501 115.844 81.9719 114.599 81.8907 113.257C81.8095 111.931 78.7579 111.009 75.0895 111.204Z" fill="#757575"/>
<path d="M95.2981 177.096C94.8112 176.805 93.9347 177.388 93.3016 178.39C92.6848 179.393 92.5712 180.46 93.0419 180.751C93.5289 181.042 94.4054 180.46 95.0384 179.457C95.6715 178.439 95.7851 177.388 95.2981 177.096Z" fill="#FFE5E5"/>
<path d="M234.472 94.4511C220.545 85.994 202.479 101.631 202.479 101.631L214.685 137.69C243.627 138.79 248.399 102.908 234.472 94.4511Z" fill="#F2D7AB"/>
<path d="M214.684 137.706C225.316 138.66 233.059 133.292 237.393 126.662C243.594 117.186 243.383 104.024 237.637 97.1836C241.808 111.721 232.653 132.742 212.055 131.756C209.312 131.626 217.541 136.946 214.684 137.706Z" fill="#D8BB91"/>
<path d="M202.479 101.631C211.731 96.7637 224.798 91.1526 236.193 95.7126C235.657 95.2437 235.089 94.8233 234.488 94.4514C220.999 86.2692 203.534 100.402 202.479 101.631Z" fill="#FFEDD4"/>
<path d="M234.651 94.1763C231.307 92.1388 227.703 91.4758 224.148 91.6375C218.516 91.8963 213.029 94.241 208.923 96.5371C204.832 98.8333 202.479 101.631 202.479 101.631C202.657 101.485 220.74 86.4792 234.31 94.7261C240.851 98.7039 243.465 109.376 240.397 119.564C236.826 131.384 227.216 138.176 214.685 137.707C214.685 137.707 217.363 138.402 220.447 138.046C225.496 137.48 229.878 135.249 233.401 132.096C236.874 128.991 239.488 124.835 241.014 119.758C244.179 109.295 241.436 98.2997 234.651 94.1763Z" fill="#896946"/>
<path d="M229.344 105.334C223.533 97.9116 205.791 110.266 205.791 110.266L210.482 127.778C221.877 127.859 235.155 112.756 229.344 105.334Z" fill="#FFBDB4"/>
<path d="M229.344 105.334C223.533 97.9116 205.791 110.266 205.791 110.266L207.317 115.974C210.271 110.896 215.433 107.792 220.221 106.87C224.799 105.981 229.62 105.722 230.724 110.33C230.87 108.487 230.464 106.773 229.344 105.334Z" fill="#E89C9C"/>
<path d="M229.604 105.139C226.585 101.291 220.579 102.407 215.304 104.509C210.207 106.546 205.775 110.265 205.775 110.265C205.954 110.152 223.517 98.4287 229.085 105.527C230.87 107.824 230.87 111.09 229.068 114.744C227.267 118.383 223.679 122.15 219.556 124.867C216.813 126.678 213.323 127.745 210.483 127.778C210.483 127.778 212.966 128.376 217.722 126.403C221.115 124.996 224.134 122.442 226.471 119.741C227.802 118.221 228.89 116.62 229.669 115.036C231.584 111.155 231.568 107.63 229.604 105.139Z" fill="#896946"/>
<path d="M211.44 123.363C210.401 121.876 207.463 117.154 207.446 111.769C207.414 106.368 206.651 102.585 205.888 99.3828C205.125 96.1811 200.093 88.9854 200.093 88.9854C200.093 88.9854 189.218 112.772 196.944 128.053C204.671 143.334 218.03 143.447 220.919 143.819C220.822 140.083 218.647 135.054 217.884 133.243C217.121 131.416 212.478 124.867 211.44 123.363Z" fill="#F2D7AB"/>
<path d="M211.439 123.363C210.4 121.876 207.462 117.154 207.446 111.769C207.413 106.368 206.65 102.585 205.887 99.3828C205.124 96.1811 200.092 88.9854 200.092 88.9854C200.092 88.9854 198.924 90.4568 198.404 93.222C201.537 98.8815 202.982 102.843 202.852 111.106C203.128 123.509 209.832 129.12 210.66 143.495C213.711 145.015 219.636 143.625 220.902 143.819C220.805 140.083 218.629 135.054 217.867 133.243C217.12 131.416 212.478 124.867 211.439 123.363Z" fill="#D8BB91"/>
<path d="M214.93 128.053C212.041 123.897 209.038 119.612 208.194 115.682C207.82 113.985 207.772 112.06 207.723 110.007C207.625 105.916 207.496 101.275 204.996 96.262C203.405 93.0603 200.094 88.9854 200.094 88.9854C200.126 89.0339 202.837 93.3837 204.412 96.553C206.846 101.436 206.976 105.996 207.074 110.023C207.122 112.109 207.171 114.065 207.561 115.812C208.437 119.871 211.472 124.204 214.394 128.408C215.157 129.508 215.953 130.64 216.683 131.756C220.124 136.93 220.579 143.754 220.579 143.835L221.228 143.819C221.212 143.528 220.757 136.736 217.219 131.4C216.488 130.284 215.693 129.152 214.93 128.053Z" fill="#896946"/>
</g>
<defs>
<clipPath id="clip0_429_3298">
<rect width="315" height="386" fill="white"/>
</clipPath>
</defs>
</svg>
