<svg width="406" height="386" viewBox="0 0 406 386" fill="none" xmlns="http://www.w3.org/2000/svg">
<g clip-path="url(#clip0_486_331)">
<path d="M172.715 298.77C174.745 302.856 177.879 312.818 180.62 322.986C182.981 331.754 184.929 343.651 184.609 346.975C184.094 352.245 176.415 361.497 174.756 364.131C180.404 368.309 186.825 371.634 187.041 370.749C187.258 369.863 188.041 365.222 190.587 362.567C193.133 359.912 199.059 356.66 200.554 353.613C203.058 348.488 199.667 342.9 197.338 338.907C196.338 337.579 188.948 299.275 189.762 293.306C179.466 295.292 172.715 298.77 172.715 298.77Z" fill="#994C19"/>
<path d="M186.382 347.006C186.712 343.671 184.661 330.725 182.3 321.946C180.012 313.435 176.91 303.298 174.766 297.823C173.436 298.389 172.715 298.76 172.715 298.76C174.745 302.845 177.879 312.808 180.62 322.975C182.981 331.744 184.929 343.641 184.609 346.965C184.094 352.234 176.415 361.486 174.756 364.121C178.837 361.26 185.866 352.275 186.382 347.006Z" fill="#AF5C2E"/>
<path d="M197.329 338.907C196.329 337.579 188.939 299.275 189.753 293.306C188.289 293.584 186.898 293.903 185.589 294.232C185.909 303.535 193.67 338.084 194.597 339.319C196.875 343.456 199.524 346.759 197.019 351.884C195.525 354.931 190.289 357.359 187.743 360.015C185.826 362.011 183.724 366.673 182.703 369.225C185.156 370.543 186.908 371.201 187.022 370.749C187.238 369.863 188.022 365.222 190.567 362.567C193.113 359.912 199.04 356.66 200.534 353.613C203.049 348.488 199.658 342.89 197.329 338.907Z" fill="#7F3912"/>
<path d="M186.762 371.16C185.082 371.16 178.95 367.6 174.569 364.358L174.363 364.203L174.497 363.987C174.868 363.401 175.507 362.526 176.321 361.415C179.166 357.514 183.918 351 184.309 346.955C184.639 343.641 182.629 331.59 180.331 323.058C177.321 311.882 174.301 302.62 172.446 298.894L172.322 298.647L172.559 298.524C172.631 298.493 179.465 295.004 189.679 293.028L190.06 292.956L190.009 293.337C189.669 295.827 190.823 304.956 193.111 317.758C195.121 329.038 197.1 338.135 197.533 338.732L197.554 338.763L197.729 339.062C200.079 343.086 203.295 348.602 200.78 353.737C199.831 355.672 197.224 357.638 194.709 359.521C193.173 360.674 191.73 361.754 190.772 362.763C188.556 365.078 187.71 368.948 187.391 370.399C187.35 370.574 187.319 370.718 187.298 370.821C187.257 370.965 187.154 371.078 186.999 371.13C186.937 371.15 186.865 371.16 186.762 371.16ZM175.115 364.07C177.507 365.819 180.217 367.558 182.609 368.866C185.402 370.389 186.515 370.646 186.783 370.625C186.803 370.543 186.824 370.43 186.855 370.286C187.185 368.783 188.051 364.8 190.38 362.382C191.369 361.353 192.833 360.252 194.389 359.089C196.853 357.236 199.409 355.322 200.295 353.5C202.676 348.633 199.553 343.271 197.265 339.35L197.1 339.062C196.502 338.146 194.297 327.432 192.596 317.902C191.524 311.923 189.143 297.875 189.452 293.656C180.578 295.416 174.363 298.287 173.085 298.904C174.961 302.815 177.929 311.944 180.887 322.914C183.237 331.652 185.216 343.58 184.886 347.007C184.474 351.205 179.661 357.792 176.795 361.734C176.064 362.711 175.486 363.504 175.115 364.07Z" fill="#401D09"/>
<path d="M175.868 362.454C174.889 362.598 170.88 365.49 167.829 369.061C164.325 373.167 161.82 378.066 162.222 378.941C162.964 380.567 172.591 380.217 177.136 379.826C181.898 379.425 189.329 378.22 190.277 375.843C192.05 371.366 179.775 361.888 175.868 362.454Z" fill="#2D1301"/>
<path d="M176.198 363.751C177.219 363.555 180.362 364.368 182.578 364.975C180.012 363.226 177.456 362.094 176.033 362.299C175.054 362.444 171.045 365.335 167.994 368.907C164.747 372.714 162.366 377.191 162.346 378.519C166.108 371.778 174.147 364.131 176.198 363.751Z" fill="#441F07"/>
<path d="M183.722 365.788C185.216 367.682 186.752 372.508 185.979 374.34C184.525 377.767 168.519 379.249 162.396 378.796C163.231 380.381 172.765 380.042 177.29 379.651C182.052 379.249 189.483 378.045 190.431 375.668C191.452 373.095 187.762 368.814 183.722 365.788Z" fill="#230E00"/>
<path d="M169.745 380.268C169.292 380.268 168.838 380.268 168.395 380.258C163.273 380.145 162.366 379.435 162.118 378.899C161.603 377.778 164.509 372.55 167.766 368.732C170.724 365.263 174.847 362.197 175.971 362.032C177.3 361.836 179.578 362.711 182.217 364.419C184.762 366.076 187.236 368.258 188.823 370.265C190.586 372.488 191.225 374.402 190.668 375.791C189.524 378.683 180.145 379.702 177.3 379.949C175.352 380.104 172.466 380.268 169.745 380.268ZM176.383 362.546C176.27 362.546 176.167 362.557 176.063 362.567C175.156 362.701 171.219 365.541 168.199 369.081C164.458 373.466 162.355 378.066 162.634 378.663C162.726 378.879 163.437 379.589 168.416 379.692C171.477 379.764 174.992 379.579 177.269 379.383C182.711 378.92 189.349 377.644 190.174 375.575C190.771 374.063 189.545 372.035 188.401 370.594C186.844 368.629 184.422 366.488 181.928 364.872C179.65 363.401 177.62 362.546 176.383 362.546Z" fill="black"/>
<path d="M154.109 249.135L169.209 287.501C169.209 287.501 167.982 293.141 169.766 296.897C171.652 300.88 176.176 301.518 181.783 300.489C188.699 299.213 191.565 296.476 191.307 291.309C191.101 287.11 189.411 284.105 187.195 282.294C186.236 277.869 189.442 259.632 188.936 254.168C188.431 248.703 154.109 249.135 154.109 249.135Z" fill="#FEA153"/>
<path d="M171.424 296.764C169.085 292.266 171.26 284.651 171.26 284.651L170.157 285.567L158.902 249.135C156.005 249.104 154.119 249.125 154.119 249.125L169.219 287.491C169.219 287.491 167.992 293.131 169.775 296.887C170.95 299.368 173.156 300.551 176.001 300.839C173.97 300.314 172.579 298.997 171.424 296.764Z" fill="#FDC798"/>
<path d="M191.297 291.309C191.09 287.11 189.4 284.105 187.184 282.294C186.226 277.868 189.431 259.632 188.926 254.167C188.761 252.377 184.978 251.224 179.959 250.473C182.639 259.241 181.917 277.889 182.773 281.851C183.175 284.455 186.215 285.731 187.112 289.992C188.05 294.479 187.885 297.515 182.68 300.293C188.947 298.966 191.544 296.239 191.297 291.309Z" fill="#EB873C"/>
<path d="M177.485 301.2C176.31 301.2 175.259 301.076 174.3 300.839C172.043 300.263 170.435 298.977 169.508 297.011C167.807 293.419 168.765 288.263 168.92 287.522L153.707 248.868H154.109C154.191 248.868 162.798 248.765 171.352 249.331C183.144 250.113 188.977 251.698 189.204 254.157C189.441 256.73 188.874 261.938 188.287 267.464C187.637 273.516 186.967 279.773 187.431 282.16C189.905 284.219 191.379 287.471 191.575 291.309C191.709 293.996 191.008 296.043 189.421 297.567C187.864 299.069 185.37 300.119 181.824 300.767C180.216 301.055 178.773 301.2 177.485 301.2ZM154.511 249.403L169.497 287.471L169.477 287.553C169.466 287.605 168.291 293.141 170.013 296.774C171.651 300.232 175.486 301.364 181.721 300.212C188.483 298.966 191.265 296.311 191.018 291.32C190.833 287.594 189.41 284.466 187.009 282.51L186.937 282.449L186.916 282.356C186.39 279.948 187.081 273.567 187.74 267.392C188.307 262.144 188.885 256.72 188.658 254.199C188.544 253.005 186.153 250.864 171.322 249.876C163.828 249.372 156.304 249.393 154.511 249.403Z" fill="#562300"/>
<path d="M169.477 287.564L168.941 287.42C169.488 285.331 171.26 284.651 171.26 284.651C171.24 284.662 169.972 285.67 169.477 287.564Z" fill="#562300"/>
<path d="M322.996 297.001C316.348 296.785 309.711 297.443 303.063 297.001C302.589 297.001 302.145 296.805 301.692 296.62C300.775 300.099 298.723 304.267 295.312 309.268C289.89 317.224 281.696 329.388 277.038 334.812C272.389 340.225 268.895 341.223 267.236 343.765C265.576 346.307 266.958 347.851 265.741 349.961C265.02 351.195 262.546 352.307 259.361 354.149C260.052 354.746 260.763 355.281 261.423 355.93C265.906 360.231 268.988 365.439 272.008 370.718C272.956 368.197 272.565 362.567 274.265 360.427C276.254 357.926 277.295 356.444 279.656 355.857C282.016 355.271 283.933 355.044 285.706 353.501C287.479 351.957 287.551 345.391 290.797 339.566C294.044 333.741 306.711 318.345 311.411 313.251C317.699 306.438 323.316 302.301 324.748 297.443C324.769 297.361 324.8 297.268 324.821 297.186C324.202 297.104 323.584 297.032 322.996 297.001Z" fill="#994C19"/>
<path d="M278.11 336.221C282.758 330.808 292.076 319.097 297.508 311.141C300.919 306.14 303.393 301.642 304.259 297.073C304.279 297.083 304.3 297.083 304.32 297.073C303.908 297.052 303.486 297.032 303.073 297.001C302.599 297.001 302.156 296.805 301.703 296.62C300.785 300.099 298.734 304.267 295.323 309.268C289.901 317.224 281.707 329.388 277.048 334.812C272.4 340.225 268.906 341.223 267.246 343.765C265.587 346.307 266.968 347.851 265.752 349.961C266.968 347.861 265.804 346.853 268.349 344.228C270.462 342.057 273.462 341.635 278.11 336.221Z" fill="#AF5C2E"/>
<path d="M322.997 297.001C320.709 296.929 318.431 296.949 316.143 297.011C315.927 298.843 314.484 296.363 315.174 301.385C313.628 303.567 311.495 306.695 309.279 309.556C304.867 315.247 291.293 331.436 288.046 337.261C284.8 343.086 285.655 348.952 283.553 351.164C281.934 352.873 280.553 352.832 278.193 353.418C275.833 354.005 273.771 355.579 271.782 358.091C270.545 359.645 269.752 363 269.051 365.675C270.081 367.332 271.061 369.02 272.029 370.718C272.978 368.197 272.586 362.567 274.287 360.427C276.276 357.916 277.317 356.444 279.677 355.857C282.038 355.271 283.955 355.044 285.727 353.501C287.5 351.957 287.572 345.391 290.819 339.566C294.066 333.741 306.733 318.345 311.433 313.251C317.72 306.438 323.337 302.301 324.77 297.443C324.791 297.361 324.822 297.268 324.842 297.186C324.203 297.104 323.585 297.032 322.997 297.001Z" fill="#7F3912"/>
<path d="M272.081 371.367L271.792 370.852C268.597 365.264 265.598 360.293 261.248 356.125C260.816 355.693 260.341 355.302 259.878 354.921C259.651 354.736 259.424 354.55 259.197 354.355L258.898 354.098L259.239 353.902C259.991 353.47 260.682 353.089 261.351 352.719C263.392 351.586 265.01 350.701 265.516 349.816C266.041 348.911 266.051 348.098 266.062 347.244C266.072 346.214 266.082 345.051 267.02 343.611C267.793 342.427 268.937 341.583 270.38 340.503C272.133 339.206 274.307 337.58 276.843 334.626C281.11 329.655 288.407 318.932 293.736 311.11C294.2 310.421 294.653 309.752 295.096 309.114C298.374 304.308 300.508 300.078 301.435 296.548L301.518 296.239L301.909 296.394C302.311 296.558 302.693 296.713 303.074 296.713H303.095C306.774 296.96 310.516 296.857 314.144 296.764C317.05 296.692 320.06 296.61 323.018 296.713C323.605 296.733 324.213 296.816 324.863 296.898L325.193 296.939L325.12 297.238C325.1 297.33 325.069 297.423 325.048 297.515C324.007 301.025 320.874 304.122 316.906 308.054C315.298 309.639 313.484 311.44 311.649 313.436C306.65 318.85 294.251 334.009 291.077 339.7C289.366 342.767 288.541 346.05 287.882 348.684C287.284 351.051 286.82 352.924 285.923 353.706C284.387 355.044 282.759 355.425 280.873 355.857C280.512 355.94 280.141 356.032 279.749 356.125C277.636 356.65 276.657 357.885 274.895 360.118C274.771 360.272 274.647 360.437 274.513 360.602C273.555 361.816 273.287 364.245 273.04 366.602C272.864 368.228 272.699 369.771 272.308 370.821L272.081 371.367ZM259.857 354.19C259.981 354.293 260.104 354.396 260.228 354.499C260.692 354.88 261.176 355.281 261.63 355.734C265.876 359.809 268.845 364.626 271.947 370.029C272.194 369.082 272.328 367.837 272.462 366.54C272.72 364.111 272.988 361.59 274.06 360.252C274.194 360.087 274.318 359.923 274.441 359.768C276.224 357.514 277.296 356.156 279.595 355.58C279.986 355.487 280.357 355.394 280.729 355.312C282.543 354.89 284.109 354.53 285.532 353.285C286.294 352.616 286.748 350.825 287.315 348.551C287.985 345.885 288.819 342.561 290.561 339.432C293.756 333.71 306.197 318.5 311.216 313.066C313.061 311.059 314.886 309.258 316.494 307.673C320.39 303.824 323.471 300.767 324.481 297.423C323.956 297.361 323.451 297.299 322.977 297.279C320.029 297.176 317.04 297.258 314.133 297.33C310.505 297.423 306.743 297.526 303.043 297.279C302.631 297.279 302.239 297.145 301.868 296.991C300.879 300.52 298.745 304.709 295.529 309.423C295.096 310.061 294.643 310.73 294.169 311.419C288.83 319.261 281.522 329.995 277.234 334.986C274.658 337.992 272.452 339.628 270.679 340.945C269.278 341.985 268.175 342.808 267.453 343.909C266.598 345.216 266.587 346.245 266.577 347.244C266.567 348.129 266.556 349.055 265.959 350.084C265.371 351.103 263.784 351.978 261.578 353.192C261.053 353.521 260.475 353.84 259.857 354.19Z" fill="#401D09"/>
<path d="M261.373 353.1C258.765 354.54 255.333 356.434 251.911 359.48C245.706 365.007 243.789 369.062 244.016 370.533C244.232 372.005 253.457 374.187 259.373 374.218C265.939 374.248 269.484 373.333 271.257 371.861C272.143 371.12 272.37 368.907 272.617 366.571C272.514 364.317 269.711 360.149 267.66 357.854C265.671 355.642 262.475 353.1 261.373 353.1Z" fill="#2D1301"/>
<path d="M261.537 354.777C263.052 354.777 266.649 357.196 269.102 359.275C268.659 358.698 268.216 358.163 267.804 357.7C265.825 355.487 262.63 352.945 261.527 352.945C258.919 354.386 255.487 356.28 252.065 359.326C245.86 364.852 243.943 368.907 244.17 370.379C244.17 370.41 244.18 370.441 244.201 370.482C246.18 363.844 260.022 354.787 261.537 354.777Z" fill="#441F07"/>
<path d="M270.422 361.137C270.329 364.399 270.298 367.867 268.113 369.308C262.187 373.209 251.622 372.282 244.428 370.769C245.984 372.21 254.127 374.022 259.517 374.052C266.083 374.083 269.628 373.167 271.401 371.696C272.287 370.955 272.514 368.742 272.761 366.406C272.7 365.078 271.669 363.051 270.422 361.137Z" fill="#230E00"/>
<path d="M259.888 374.341C259.764 374.341 259.64 374.341 259.517 374.341C256.744 374.33 252.961 373.826 249.643 373.034C247.107 372.426 244.056 371.48 243.891 370.42C243.623 368.639 246.014 364.348 251.879 359.12C255.301 356.073 258.795 354.139 261.351 352.729L261.454 352.667H261.526C262.846 352.667 266.247 355.538 268.009 357.514C270.03 359.778 272.926 364.039 273.039 366.406V366.427L273.019 366.602C272.761 369.03 272.534 371.119 271.576 371.922C269.617 373.548 265.793 374.341 259.888 374.341ZM261.588 353.223C259.063 354.622 255.61 356.526 252.25 359.531C246.148 364.976 244.231 368.979 244.438 370.337C244.489 370.708 245.963 371.583 249.766 372.488C253.044 373.27 256.785 373.764 259.517 373.785C265.505 373.816 269.329 373.065 271.225 371.49C272.009 370.842 272.246 368.65 272.472 366.54L272.483 366.416C272.359 364.204 269.504 360.025 267.597 357.885C265.577 355.621 262.609 353.326 261.588 353.223Z" fill="black"/>
<path d="M320.677 269.697C319.234 258.305 324.223 250.02 324.223 250.02L299.528 210.553L265.422 239.626C272.286 243.609 283.469 263.615 290.117 271.91C295.776 278.97 301.63 286.833 302.187 291.145C302.486 293.502 302.032 296.311 300.672 299.687C300.568 301.354 319.131 304.894 321.863 302.455C323.244 300.778 324.274 299.162 324.779 297.453C326.212 292.586 322.11 281.08 320.677 269.697Z" fill="#FEA153"/>
<path d="M305.165 290.125C304.609 285.813 297.981 277.096 292.313 270.036C286.118 262.308 277.399 245.121 267.586 237.783L265.422 239.636C272.286 243.618 283.469 263.625 290.117 271.92C295.776 278.98 301.63 286.842 302.187 291.154C302.486 293.511 302.032 296.321 300.672 299.696C300.651 300.087 301.63 300.571 303.197 301.065C304.341 297.391 305.413 292.091 305.165 290.125Z" fill="#FDC798"/>
<path d="M320.677 269.697C319.234 258.305 324.223 250.02 324.223 250.02L315.946 236.785C312.844 244.03 309.432 257.234 310.978 267.659C312.658 279.011 318.956 289.055 318.554 294.108C318.234 298.173 315.379 301.065 313.813 303.072C317.523 303.443 320.832 303.371 321.862 302.444C323.244 300.767 324.274 299.151 324.779 297.443C326.212 292.585 322.11 281.079 320.677 269.697Z" fill="#EB873C"/>
<path d="M317.575 303.567C315.689 303.567 313.617 303.361 312.112 303.165C307.722 302.599 303.207 301.549 301.383 300.664C300.682 300.325 300.373 300.016 300.393 299.666V299.625L300.414 299.584C301.713 296.373 302.218 293.543 301.908 291.186C301.352 286.853 295.199 278.703 289.901 272.085C287.633 269.265 284.85 265.077 281.892 260.651C276.203 252.13 269.761 242.466 265.278 239.863L264.938 239.667L299.579 210.131L324.532 250.02L324.45 250.164C324.439 250.185 323.203 252.264 322.162 255.691C321.203 258.85 320.214 263.842 320.945 269.667C321.502 274.113 322.491 278.651 323.357 282.654C324.738 289.015 325.924 294.5 325.027 297.526C324.553 299.131 323.604 300.757 322.058 302.63L322.028 302.661C321.275 303.34 319.523 303.567 317.575 303.567ZM300.95 299.718C301.001 299.8 301.352 300.212 303.475 300.85C309.01 302.537 319.76 303.886 321.656 302.26C323.151 300.459 324.048 298.905 324.501 297.371C325.357 294.479 324.182 289.056 322.821 282.768C321.945 278.754 320.966 274.195 320.399 269.728C319.647 263.801 320.657 258.717 321.636 255.506C322.553 252.501 323.584 250.556 323.893 250.02L299.455 210.964L265.896 239.585C270.462 242.508 276.77 251.965 282.356 260.343C285.304 264.758 288.087 268.926 290.334 271.735C295.683 278.404 301.888 286.637 302.465 291.114C302.774 293.543 302.269 296.445 300.95 299.718Z" fill="#562300"/>
<path d="M87.4844 112.876C87.4844 112.876 94.8951 124.423 102.1 148.855C109.531 174.069 113.396 202.7 113.396 209.327C111.18 217.066 110.294 224.126 114.19 231.279C118.127 238.514 133.062 247.529 141.4 248.527C151.057 252.17 169.332 258.314 169.332 258.314C177.969 261.134 202.211 262.462 225.968 255.495C249.726 248.527 291.407 231.618 301.539 231.618C310.176 225.979 282.594 145.315 282.594 145.315C274.287 147.527 263.444 149.524 253.364 149.524C243.284 149.524 217.826 147.867 208.405 142.67C196.222 138.584 176.959 141.671 161.457 115.367C145.956 89.0618 121.703 54.5547 121.703 54.5547L87.4844 112.876Z" fill="#FEA153"/>
<path d="M275.184 201.188C274.112 230.055 246.53 241.972 226.215 239.852C201.819 237.31 192.986 224.745 178.979 206.868C180.432 213.177 179.515 219.866 177.546 220.268C174.382 220.916 174.062 209.76 168.981 206.549C168.981 206.549 140.225 224.395 130.567 220.751C128.959 228.079 117.663 237.012 111.623 223.118C111.912 225.856 112.695 228.563 114.179 231.28C118.116 238.514 133.051 247.53 141.389 248.528C151.047 252.171 169.321 258.315 169.321 258.315C177.958 261.135 202.2 262.463 225.958 255.495C249.705 248.528 291.396 231.619 301.528 231.619C298.601 231.619 282.192 201.589 275.184 201.188Z" fill="#EB873C"/>
<path d="M283.357 147.631C282.863 146.139 282.574 145.305 282.574 145.305C274.267 147.518 263.424 149.514 253.344 149.514C243.263 149.514 217.805 147.857 208.385 142.66C215.909 149.35 243.789 151.861 253.869 151.861C263.733 151.871 275.091 149.802 283.357 147.631Z" fill="#FDC798"/>
<path d="M189.698 260.877C181.35 260.877 173.651 260.023 169.229 258.582C169.043 258.521 150.883 252.418 141.318 248.805C137.277 248.311 131.547 245.955 125.981 242.487C120.178 238.874 115.787 234.84 113.932 231.423C112.087 228.037 111.201 224.477 111.211 220.535C111.222 217.314 111.809 213.846 113.108 209.297C113.097 202.607 109.253 174.141 101.822 148.938C94.7098 124.825 87.3094 113.144 87.2373 113.031L87.1445 112.887L87.227 112.743L121.662 54.0508L121.91 54.4007C122.157 54.7506 146.337 89.2062 161.674 115.223C173.702 135.641 187.998 138.255 199.49 140.355C202.726 140.941 205.777 141.507 208.478 142.413L208.519 142.433C213.631 145.253 223.371 146.9 230.648 147.775C239.666 148.866 248.51 149.246 253.344 149.246C265.032 149.246 276.627 146.612 282.502 145.047L282.749 144.986L282.832 145.233C282.904 145.439 289.799 165.641 295.551 186.285C298.931 198.408 301.261 208.319 302.477 215.719C304.033 225.207 303.775 230.487 301.673 231.856L301.601 231.897H301.518C295.334 231.897 277.503 238.174 258.631 244.823C247.098 248.888 235.183 253.076 226.03 255.762C212.611 259.694 200.108 260.702 191.976 260.857C191.214 260.867 190.451 260.877 189.698 260.877ZM87.8042 112.876C88.67 114.297 95.658 126.029 102.358 148.783C109.82 174.09 113.664 202.7 113.664 209.338V209.379L113.654 209.42C111.675 216.346 110.397 223.766 114.417 231.166C118.426 238.535 133.505 247.324 141.41 248.27H141.441L141.472 248.281C151.017 251.883 169.208 257.996 169.394 258.057C174.156 259.611 182.793 260.466 191.945 260.301C200.047 260.147 212.497 259.148 225.855 255.238C234.997 252.562 246.902 248.363 258.425 244.308C277.256 237.67 295.056 231.413 301.405 231.351C302.662 230.435 303.734 226.977 301.9 215.811C300.683 208.432 298.364 198.542 294.994 186.439C289.593 167.04 283.172 148.022 282.368 145.655C276.39 147.24 264.908 149.802 253.313 149.802C248.468 149.802 239.594 149.411 230.555 148.32C223.247 147.435 213.446 145.778 208.251 142.927C205.602 142.042 202.572 141.487 199.366 140.9C187.771 138.78 173.331 136.145 161.179 115.501C146.698 90.9146 124.291 58.7848 121.693 55.0696L87.8042 112.876Z" fill="#562300"/>
<path d="M113.633 209.42L113.107 209.256C113.85 206.961 116.251 204.439 116.251 204.439C116.241 204.46 114.344 207.198 113.633 209.42Z" fill="#562300"/>
<path d="M57.3351 45.6216C53.5628 46.2288 44.5442 42.1431 37.1748 33.8379C29.8053 25.5328 26.6411 19.502 28.3005 17.701C29.9599 15.9103 43.1734 20.1812 49.7389 22.4454C56.3147 24.7095 64.8385 26.0576 68.6624 28.1468C73.6922 30.8946 78.8972 36.3902 79.4641 42.9356L57.3351 45.6216Z" fill="#FEA153"/>
<path d="M38.2584 32.3973C30.8992 24.0921 28.4256 20.274 28.3122 17.7012C26.6528 19.4919 29.817 25.5329 37.1865 33.8381C44.5559 42.1433 53.5642 46.229 57.3468 45.6218C53.0797 44.2633 45.6278 40.7025 38.2584 32.3973Z" fill="#EB873C"/>
<path d="M68.6744 28.1468C64.8402 26.0576 56.3164 24.7095 49.7509 22.4454C43.1751 20.1812 29.9719 15.9103 28.3125 17.701C29.4463 17.0115 42.4021 21.5912 48.9676 23.845C55.5434 26.1091 63.9538 27.2514 67.7777 29.3406C72.8075 32.0884 77.4044 36.4211 79.4761 42.9253C78.9195 36.3902 73.7042 30.8946 68.6744 28.1468Z" fill="#FDC798"/>
<path d="M79.4753 42.9359C78.9084 36.2876 73.2293 30.9464 68.5396 28.3941C66.3545 27.2003 62.5513 26.2329 58.5213 25.2141C55.522 24.4525 52.4299 23.6704 49.647 22.7133C32.1149 16.6825 29.0126 17.3411 28.4972 17.8969C27.2913 19.1936 28.8992 24.1026 37.3715 33.6633C40.7109 37.43 44.7512 40.7335 48.7503 42.9771C52.2444 44.9427 55.4498 45.9307 57.3257 45.6322C57.3257 45.6322 55.8518 46.3424 53.5327 45.7043C48.8843 44.2841 42.3497 40.1058 36.9592 34.0338C29.5588 25.6875 26.24 19.5229 28.0952 17.5264C28.6106 16.9707 30.1257 16.4458 37.2478 18.2983C40.6491 19.1833 44.8852 20.5006 49.8325 22.1987C52.5948 23.1455 55.6766 23.9277 58.6553 24.6892C62.7162 25.7184 66.5504 26.696 68.7973 27.9207C72.5078 29.9481 76.8161 33.6839 78.8671 38.4283C80.0628 41.0114 79.4753 42.9359 79.4753 42.9359Z" fill="#562300"/>
<path d="M32.5898 23.1143C36.5992 24.411 41.1343 26.5516 46.5042 30.2565C51.8638 33.9717 58.1098 39.7555 59.4497 42.9458C52.812 41.1139 48.6686 39.0865 42.402 33.7762C36.6817 28.9186 32.5898 23.1143 32.5898 23.1143Z" fill="#EB873C"/>
<path d="M32.5898 23.1143C36.5992 24.411 41.1343 26.5516 46.5042 30.2565C51.8638 33.9717 58.1098 39.7555 59.4497 42.9458C54.3271 38.7263 51.3587 36.1535 44.7623 31.2548C38.2896 26.4693 32.5898 23.1143 32.5898 23.1143Z" fill="#EFAC73"/>
<path d="M59.9235 43.3682L59.3772 43.2138C52.3273 41.2688 48.1633 39.0252 42.2265 33.9824C36.5474 29.1558 32.404 23.3308 32.3628 23.2691L31.8887 22.5898L32.6823 22.8471C37.238 24.3188 41.8142 26.6652 46.6688 30.0305C51.9769 33.7046 58.3156 39.4986 59.7071 42.8433L59.9235 43.3682ZM33.3316 23.6601C34.5994 25.3479 38.1141 29.7733 42.5873 33.5708C48.287 38.4077 52.3273 40.641 58.934 42.5243C57.1716 39.2414 51.2038 33.8589 46.3493 30.4936C41.8245 27.3651 37.5678 25.1215 33.3316 23.6601Z" fill="#562300"/>
<path d="M120.003 86.8491L110.49 96.9038C110.49 96.9038 106.213 108.43 95.9264 113.051C85.4546 117.764 70.0148 118.526 64.8717 118.526C59.7285 118.526 54.0082 119.36 49.7308 122.838C49.5762 122.962 49.4216 123.106 49.2567 123.239C45.1545 126.996 41.4234 135.795 37.2697 138.347C32.9511 141.002 26.4887 139.346 21.7269 135.805C18.5111 137.246 6.9983 135.918 3.1229 130.824C0.298804 127.109 -0.175315 117.044 0.638932 110.324C0.937833 107.833 1.41195 105.806 2.02006 104.736C2.77247 103.387 4.51434 101.658 6.86431 99.6104C11.42 95.6173 18.2328 90.379 24.4273 84.1733C33.8066 74.7772 38.5684 66.7088 38.7849 60.4001C39.2693 59.0211 40.032 57.1892 41.0833 55.0898C46.0409 45.1483 57.1518 29.3612 72.3339 28.4453C90.7111 27.3338 100.678 28.0028 108.099 36.0712C115.499 44.1603 123.487 67.2851 120.003 86.8491Z" fill="#FEA153"/>
<path d="M54.2853 114.688C44.6896 117.96 42.8859 124.67 36.4337 132.08C34.496 134.334 30.5176 135.734 26.7555 132.564C35.7329 125.164 38.4333 117.034 41.2677 108.379C40.2988 108.379 39.2784 106.846 39.2784 106.846C37.1861 117.312 28.5489 127.182 19.5201 131.082C14.8098 133.14 8.71841 134.097 3.18359 130.907C7.12084 135.929 18.5306 137.236 21.7154 135.806C26.4772 139.346 32.9397 141.003 37.2583 138.348C41.5769 135.693 45.4317 126.307 49.7193 122.828C54.007 119.35 59.7171 118.516 64.8602 118.516C70.0137 118.516 85.4431 117.755 95.915 113.041C103.14 109.789 107.407 103.131 109.304 99.4668C103.48 106.311 98.4196 109.532 88.3188 112.002C75.0331 115.254 62.8607 111.765 54.2853 114.688Z" fill="#EB873C"/>
<path d="M56.0261 47.1143C55.923 47.3407 44.235 77.5357 40.1638 82.5373C36.0822 87.5698 30.3413 97.3055 18.3028 105.034C11.5105 109.398 2.66718 108.389 0.636719 110.334C0.93562 107.844 1.40974 105.816 2.01785 104.746C2.44043 103.995 3.17222 103.12 4.14107 102.142C8.27415 97.9538 16.8186 91.7893 24.4148 84.1839C28.1665 80.4276 31.1761 76.877 33.454 73.5632C36.8656 68.6027 38.6383 64.1877 38.7723 60.4108C39.2568 59.0317 40.0195 57.1998 41.0708 55.1004L56.0261 47.1143Z" fill="#FFECDD"/>
<path d="M33.4541 73.5635C31.9286 78.9459 21.1682 90.1532 17.3649 94.3213C13.3865 98.6848 12.6959 102.39 12.6959 102.39H4.24424L4.13086 102.132C8.27424 97.9541 16.8187 91.7896 24.4149 84.1842C28.1666 80.4176 31.1762 76.867 33.4541 73.5635Z" fill="white"/>
<path d="M0.287109 111.014L0.369565 110.304C0.689079 107.7 1.18381 105.683 1.78161 104.613C2.99783 102.431 6.66709 99.3743 11.3155 95.4944C15.3455 92.1394 19.9012 88.3316 24.2301 83.9886C28.8476 79.3575 32.4035 74.9939 34.805 70.9906C37.155 67.0695 38.4021 63.5087 38.5155 60.3904V60.3492L38.5258 60.3081C39.0514 58.7952 39.876 56.9016 40.8345 54.9668L40.8758 54.8948L56.5629 46.5176L56.264 47.1968C56.2537 47.2174 56.2022 47.3512 56.1094 47.5776C53.3162 54.7198 43.9266 78.318 40.3604 82.7022C39.5771 83.6593 38.7525 84.7708 37.8043 86.0572C33.7537 91.5116 28.2189 98.9729 18.4376 105.251C14.3973 107.844 9.55303 108.575 6.02807 109.11C3.5441 109.48 1.58578 109.779 0.812762 110.52L0.287109 111.014ZM39.0308 60.4624C38.9072 63.6631 37.6394 67.2959 35.2482 71.2684C32.8261 75.3027 29.2393 79.7074 24.6011 84.3591C20.2516 88.7124 15.6753 92.5305 11.6453 95.8958C7.03814 99.7345 3.3998 102.77 2.23512 104.87C1.71977 105.796 1.26627 107.535 0.967366 109.779C2.00837 109.192 3.79146 108.925 5.95592 108.595C9.63549 108.04 14.2118 107.35 18.1696 104.818C27.8684 98.5921 33.3723 91.172 37.4023 85.7484C38.3609 84.462 39.1854 83.3403 39.9791 82.3729C43.4525 78.1019 52.636 55.0697 55.5425 47.6599L41.2777 55.2756C40.3295 57.1589 39.5359 58.9908 39.0308 60.4624Z" fill="#80766F"/>
<path d="M49.2458 123.24C49.184 123.302 49.1222 123.363 49.05 123.425C49.0088 123.466 48.9572 123.518 48.916 123.559C48.8851 123.59 48.8542 123.621 48.813 123.662C48.7614 123.713 48.7202 123.765 48.6687 123.806C48.5862 123.888 48.5037 123.981 48.4213 124.073C48.3801 124.125 48.3388 124.166 48.2873 124.217C48.0193 124.506 47.7616 124.814 47.4937 125.144C47.4421 125.205 47.3906 125.267 47.3391 125.339C47.3391 125.339 47.3391 125.339 47.3391 125.35C47.2772 125.432 47.2154 125.504 47.1535 125.586C46.3084 126.677 45.4735 127.912 44.6386 129.168C44.5459 129.301 44.4634 129.435 44.3707 129.569C44.1748 129.867 43.979 130.176 43.7729 130.475C43.6801 130.619 43.577 130.763 43.4843 130.917C43.3194 131.174 43.1544 131.421 42.9792 131.679C42.9174 131.761 42.8659 131.854 42.8143 131.936C42.7731 131.988 42.7422 132.049 42.7113 132.101C42.6494 132.193 42.5979 132.276 42.536 132.368C42.5051 132.42 42.4742 132.461 42.4433 132.512C42.3814 132.605 42.3196 132.698 42.2577 132.79V132.801C42.1959 132.883 42.1341 132.975 42.0722 133.058C42.0001 133.161 41.9382 133.253 41.8661 133.356C41.7733 133.49 41.6703 133.634 41.5775 133.768C41.3713 134.056 41.1652 134.344 40.9591 134.622C40.9282 134.663 40.8972 134.704 40.8663 134.746C40.7117 134.951 40.5571 135.157 40.4025 135.353C40.3716 135.394 40.3407 135.435 40.3097 135.466C40.1551 135.662 39.9902 135.857 39.8356 136.042C39.7738 136.114 39.7222 136.176 39.6604 136.238C38.9389 137.061 38.2071 137.751 37.4547 138.245C37.3929 138.286 37.3207 138.327 37.2589 138.368C32.9403 141.023 26.4778 139.366 21.7161 135.826C20.7678 136.248 19.0878 136.433 17.0985 136.351C16.9646 136.341 16.8409 136.341 16.7069 136.33C16.5214 136.32 16.3255 136.31 16.1297 136.289C15.8926 136.269 15.6453 136.248 15.3979 136.217C15.1505 136.186 14.8929 136.156 14.6352 136.125C14.5527 136.114 14.46 136.104 14.3775 136.094C14.2023 136.073 14.0271 136.042 13.8622 136.011C13.7797 136.001 13.687 135.981 13.6045 135.97C13.5942 135.97 13.5839 135.97 13.5633 135.96C13.3984 135.929 13.2438 135.898 13.0789 135.867C12.9964 135.847 12.9036 135.836 12.8212 135.816C12.7284 135.795 12.646 135.785 12.5532 135.764C12.4707 135.744 12.378 135.723 12.2955 135.713C12.2028 135.692 12.1203 135.672 12.0275 135.651C11.7596 135.59 11.5019 135.528 11.2442 135.456C10.9762 135.384 10.7186 135.312 10.4609 135.229C10.3784 135.198 10.2857 135.178 10.2032 135.147C7.31728 134.252 4.63748 132.842 3.13267 130.855C1.66909 128.941 0.844534 125.329 0.494098 121.367C0.164277 117.641 0.257039 113.607 0.648702 110.355C0.947603 107.864 1.42172 105.837 2.02983 104.767C2.78224 103.419 4.5241 101.69 6.87408 99.6416C8.22429 100.3 14.0683 102.914 18.9435 101.515C19.0363 101.494 19.129 101.463 19.2218 101.432C24.8184 99.6313 41.0003 99.3123 44.7108 104.396C46.6588 107.062 47.8647 112.773 48.5862 117.621C48.8851 119.772 49.1119 121.778 49.2458 123.24Z" fill="#C18553"/>
<path d="M18.922 101.494C18.654 101.751 18.0253 102.184 16.572 102.791C13.8716 103.923 7.82145 103.449 4.51293 105.436C2.34847 106.732 1.09103 115.439 0.472614 121.346C0.142792 117.621 0.235555 113.587 0.627218 110.334C0.926119 107.844 1.40024 105.817 2.00835 104.746C2.76075 103.398 4.50262 101.669 6.8526 99.6211C8.20281 100.269 14.0468 102.894 18.922 101.494Z" fill="#DAB698"/>
<path d="M49.2466 123.24C49.1848 123.302 49.123 123.364 49.0508 123.426C49.0096 123.467 48.958 123.518 48.9168 123.559C48.8859 123.59 48.855 123.621 48.8138 123.662C48.7622 123.714 48.721 123.765 48.6695 123.806C48.587 123.889 48.5045 123.981 48.4221 124.074C48.3809 124.125 48.3396 124.167 48.2881 124.218C48.0201 124.506 47.7624 124.815 47.4945 125.144C47.4429 125.206 47.3914 125.268 47.3399 125.34C47.3399 125.34 47.3399 125.34 47.3399 125.35C47.278 125.432 47.2162 125.504 47.1543 125.587C46.3092 126.678 45.4743 127.913 44.6395 129.168C44.5467 129.302 44.4642 129.436 44.3715 129.57C44.1756 129.868 43.9798 130.177 43.7737 130.475C43.6809 130.619 43.5778 130.763 43.4851 130.918C43.3202 131.175 43.1553 131.422 42.98 131.679C42.9285 131.762 42.8667 131.844 42.8151 131.937C42.7739 131.988 42.743 132.05 42.7121 132.101C42.6502 132.194 42.5987 132.276 42.5368 132.369C42.5059 132.42 42.475 132.461 42.4441 132.513C42.3822 132.605 42.3204 132.698 42.2586 132.791V132.801C42.1967 132.883 42.1349 132.976 42.073 133.058C42.0009 133.161 41.939 133.254 41.8669 133.357C41.7741 133.491 41.6711 133.635 41.5783 133.768C41.3722 134.057 41.166 134.345 40.9599 134.623C40.929 134.664 40.898 134.705 40.8671 134.746C40.7125 134.952 40.5579 135.158 40.4033 135.353C40.3724 135.394 40.3415 135.436 40.3105 135.466C40.1559 135.662 39.991 135.858 39.8364 136.043C39.7746 136.115 39.723 136.177 39.6612 136.238C38.9397 137.062 38.2079 137.751 37.4555 138.245C37.3937 138.286 37.3215 138.328 37.2597 138.369C32.9411 141.024 26.4787 139.367 21.7169 135.827C20.7686 136.249 19.0886 136.434 17.0994 136.352C16.9654 136.341 16.8417 136.341 16.7077 136.331C16.5222 136.321 16.3263 136.31 16.1305 136.29C15.8934 136.269 15.6461 136.249 15.3987 136.218C15.1513 136.187 14.8937 136.156 14.636 136.125C14.5535 136.115 14.4608 136.105 14.3783 136.094C14.2031 136.074 14.0279 136.043 13.863 136.012C13.7805 136.002 13.6878 135.981 13.6053 135.971C13.595 135.971 13.5847 135.971 13.5641 135.96C13.3992 135.93 13.2446 135.899 13.0797 135.868C12.9972 135.847 12.9044 135.837 12.822 135.816C12.7292 135.796 12.6468 135.786 12.554 135.765C12.4715 135.744 12.3788 135.724 12.2963 135.713C12.2036 135.693 12.1211 135.672 12.0283 135.652C11.7707 135.59 11.5027 135.528 11.245 135.456C10.977 135.384 10.7194 135.312 10.4617 135.23C10.3792 135.199 10.2865 135.178 10.204 135.147C7.35931 134.262 4.72074 132.873 3.19531 130.938C8.73013 134.139 14.8215 133.172 19.5318 131.113C28.571 127.213 37.1979 117.343 39.2902 106.877C39.2902 106.877 40.3105 108.41 41.2794 108.41C38.445 117.065 35.7446 125.196 26.7672 132.595C30.5293 135.765 34.5077 134.365 36.4454 132.111C41.3515 126.472 43.5675 121.244 48.5664 117.621C48.8859 119.772 49.1127 121.779 49.2466 123.24Z" fill="#966541"/>
<path d="M32.2599 139.922C31.4147 139.922 30.5283 139.84 29.611 139.665C26.9312 139.151 24.1174 137.895 21.685 136.115C19.9225 136.814 16.2326 136.784 12.6149 136.032C10.0072 135.487 5.27634 134.108 2.91606 131C-0.083256 127.068 -0.37185 116.54 0.380556 110.314C0.70007 107.71 1.1948 105.693 1.7926 104.623C2.48317 103.378 3.94675 101.824 6.68839 99.4257L6.81208 99.3125L6.96668 99.3845C8.14167 99.9609 14.2434 102.729 19.1185 101.165C22.1282 100.198 27.7042 99.7447 32.6618 100.053C36.259 100.28 42.6389 101.124 44.8962 104.222C47.679 108.029 48.9777 117.755 49.5033 123.209L49.5137 123.333L49.4209 123.415C47.6069 125.072 45.8238 127.809 44.0922 130.444C41.9484 133.727 39.7324 137.113 37.3824 138.554C35.9394 139.47 34.1976 139.922 32.2599 139.922ZM21.7468 135.518L21.8705 135.61C26.2303 138.852 32.6412 140.89 37.1247 138.142C39.3716 136.763 41.5567 133.418 43.6696 130.187C45.3806 127.562 47.1534 124.856 48.9777 123.147C48.5448 118.722 47.2564 108.348 44.4736 104.541C42.8863 102.369 38.6811 100.969 32.6309 100.578C27.7248 100.27 22.2312 100.712 19.2731 101.659C18.1497 102.019 16.9747 102.163 15.81 102.163C12.0068 102.163 8.32719 100.609 6.89453 99.93C4.3178 102.194 2.87483 103.728 2.2358 104.88C1.67923 105.889 1.1948 107.844 0.885595 110.376C0.00950646 117.642 0.679456 127.223 3.31803 130.691C4.96714 132.863 8.39934 134.622 12.7179 135.528C16.2841 136.269 20.0256 136.3 21.6128 135.59L21.7468 135.518Z" fill="#714C31"/>
<path d="M32.2597 139.932C31.4145 139.932 30.5178 139.85 29.6108 139.675C26.931 139.161 24.1172 137.905 21.6848 136.125C19.912 136.824 16.2324 136.794 12.6147 136.042C10.0071 135.497 5.26587 134.118 2.90559 131.01C0.401007 127.727 0.0402643 120.379 -0.000963392 117.374C-0.0731119 111.847 0.65868 106.599 1.76152 104.602C2.97774 102.42 6.647 99.3534 11.2954 95.4838C15.3254 92.1288 19.8811 88.321 24.21 83.978C28.8275 79.3572 32.3834 74.9833 34.7849 70.9902C37.1349 67.0795 38.382 63.5084 38.4954 60.4004V60.3592L38.5057 60.318C39.7322 56.7984 43.4118 48.9152 49.4723 41.6803C52.6674 37.8622 56.0687 34.7953 59.5524 32.5621C63.6958 29.9172 67.9732 28.4353 72.2918 28.178C91.2256 27.0356 100.914 27.8795 108.273 35.8965C112.18 40.1366 115.952 48.061 118.384 57.0763C121.178 67.4294 121.837 78.0193 120.26 86.8905L119.714 86.7979C123.198 67.2648 115.158 44.2017 107.861 36.267C100.646 28.425 91.071 27.6016 72.3124 28.7234C62.4899 29.31 54.6876 36.2876 49.8742 42.0302C43.8859 49.1724 40.2373 56.9528 39.021 60.4518C38.8974 63.6525 37.6296 67.2853 35.2384 71.2681C32.8163 75.3023 29.2295 79.7071 24.581 84.3691C20.2418 88.7223 15.6656 92.5405 11.6252 95.9058C7.01805 99.7445 3.39001 102.78 2.22533 104.87C0.12272 108.636 -0.557538 125.586 3.30756 130.66C4.95667 132.831 8.37856 134.591 12.6972 135.487C16.2531 136.228 19.9945 136.258 21.5817 135.548L21.726 135.487L21.86 135.579C26.2198 138.821 32.6204 140.859 37.0833 138.111C39.3303 136.732 41.505 133.387 43.6282 130.156C45.5247 127.264 47.4727 124.269 49.5238 122.612C53.1415 119.669 58.161 118.238 64.8399 118.238C71.828 118.238 86.2164 117.096 95.7813 112.794C101.038 110.437 104.748 106.238 106.933 103.13C109.304 99.765 110.448 96.9246 110.458 96.8937C110.458 96.8937 109.799 100.022 107.387 103.449C105.161 106.609 101.378 110.89 96.008 113.298C86.3504 117.641 71.8692 118.794 64.8399 118.794C58.2847 118.794 53.3889 120.183 49.8742 123.044C47.8953 124.65 45.9679 127.603 44.0921 130.464C41.9482 133.747 39.7219 137.143 37.3822 138.584C35.9496 139.48 34.1974 139.932 32.2597 139.932Z" fill="#562300"/>
<path d="M0.340056 110.653L0.298828 111.014L0.65957 110.664C0.546194 110.674 0.443125 110.674 0.340056 110.653Z" fill="#80766F"/>
<path d="M40.8772 54.9147L40.8359 54.9867C39.8774 56.9112 39.0528 58.8048 38.5272 60.328L38.5169 60.3691V60.4103C38.4035 63.5286 37.1564 67.0894 34.8064 71.0105C32.4049 75.0035 28.849 79.3774 24.2315 84.0085C19.9026 88.3412 15.3469 92.149 11.3169 95.5143C9.52351 97.0066 7.8847 98.3753 6.47266 99.6206C6.48296 99.6206 6.49327 99.6206 6.51388 99.6206C6.72002 99.6309 6.91585 99.6823 7.09107 99.7647C8.44128 98.5915 9.97701 97.2947 11.657 95.9054C15.687 92.5401 20.2633 88.722 24.6128 84.3687C29.2613 79.717 32.8378 75.3123 35.2599 71.278C37.6511 67.3056 38.9188 63.6624 39.0425 60.4721C39.5579 59.0004 40.3515 57.1685 41.2791 55.3058L55.5439 47.6901C52.6374 55.0999 43.4539 78.1321 39.9805 82.4031C39.1971 83.3705 38.3623 84.4819 37.4037 85.7786C34.3013 89.957 30.3126 95.3291 24.2006 100.423C24.4376 100.382 24.6747 100.392 24.922 100.495C30.8588 95.4629 34.7652 90.2039 37.8263 86.0874C38.7849 84.801 39.6094 83.6895 40.3824 82.7324C43.9486 78.3482 53.3382 54.75 56.1314 47.6284C56.2242 47.402 56.2757 47.2682 56.286 47.2476L56.5849 46.5684L40.8772 54.9147Z" fill="#80766F"/>
<path d="M32.2599 139.922C31.4147 139.922 30.5283 139.84 29.611 139.665C26.9312 139.151 24.1174 137.895 21.685 136.115C19.9225 136.814 16.2326 136.784 12.6149 136.032C10.0072 135.487 5.27634 134.108 2.91606 131C-0.083256 127.068 -0.37185 116.54 0.380556 110.314C0.70007 107.71 1.1948 105.693 1.7926 104.623C2.48317 103.378 3.94675 101.824 6.68839 99.4257L6.81208 99.3125L6.96668 99.3845C8.14167 99.9609 14.2434 102.729 19.1185 101.165C22.1282 100.198 27.7042 99.7447 32.6618 100.053C36.259 100.28 42.6389 101.124 44.8962 104.222C47.679 108.029 48.9777 117.755 49.5033 123.209L49.5137 123.333L49.4209 123.415C47.6069 125.072 45.8238 127.809 44.0922 130.444C41.9484 133.727 39.7324 137.113 37.3824 138.554C35.9394 139.47 34.1976 139.922 32.2599 139.922ZM21.7468 135.518L21.8705 135.61C26.2303 138.852 32.6412 140.89 37.1247 138.142C39.3716 136.763 41.5567 133.418 43.6696 130.187C45.3806 127.562 47.1534 124.856 48.9777 123.147C48.5448 118.722 47.2564 108.348 44.4736 104.541C42.8863 102.369 38.6811 100.969 32.6309 100.578C27.7248 100.27 22.2312 100.712 19.2731 101.659C18.1497 102.019 16.9747 102.163 15.81 102.163C12.0068 102.163 8.32719 100.609 6.89453 99.93C4.3178 102.194 2.87483 103.728 2.2358 104.88C1.67923 105.889 1.1948 107.844 0.885595 110.376C0.00950646 117.642 0.679456 127.223 3.31803 130.691C4.96714 132.863 8.39934 134.622 12.7179 135.528C16.2841 136.269 20.0256 136.3 21.6128 135.59L21.7468 135.518Z" fill="#563823"/>
<path d="M55.6563 56.3971C55.6563 56.3971 55.6356 51.1073 59.5832 49.368C63.541 47.6185 70.5085 52.0129 73.075 55.4091C66.1075 52.2599 58.3979 51.6322 55.6563 56.3971Z" fill="#683513"/>
<path d="M55.6562 56.3974C55.6562 56.3974 56.3365 52.5999 59.7275 51.3855C63.0875 50.1814 70.5498 52.2705 73.0853 55.3991C66.1075 52.2602 58.3979 51.6325 55.6562 56.3974Z" fill="#4F270D"/>
<path d="M55.5023 57.7044L55.3477 56.3974C55.3477 56.171 55.3683 50.8915 59.4601 49.0802C63.7478 47.1866 70.8802 51.9721 73.3332 55.2139L74.0753 56.1916L72.9622 55.6873C66.4276 52.7337 58.6356 51.8589 56.0794 56.6959L55.5023 57.7044ZM61.6246 49.2757C60.9237 49.2757 60.2847 49.3889 59.7075 49.6462C57.0792 50.8092 56.2959 53.6702 56.0588 55.2756C57.5018 53.5776 59.7899 52.6719 62.7686 52.6205C65.4897 52.5793 68.7157 53.2791 71.9727 54.5964C69.4681 51.9515 64.9846 49.2757 61.6246 49.2757Z" fill="#230E00"/>
<path d="M68.6322 26.8194C64.2414 26.5519 55.8825 27.0767 45.8023 33.7558C36.8147 39.7146 31.8674 51.7555 32.4652 58.9698C29.5895 65.052 27.085 70.0434 24.4258 73.8615C31.6612 70.5476 41.5559 61.697 44.7304 57.1276C43.1844 62.2116 43.3287 67.8101 43.3287 67.8101C45.4828 61.1207 51.1929 53.1037 57.5007 48.7916C63.8085 44.4795 73.5383 37.152 74.8679 31.4814C76.1975 25.8109 68.6322 26.8194 68.6322 26.8194Z" fill="#683513"/>
<path d="M46.3064 35.5055C55.3558 28.8881 62.6325 28.353 69.9298 27.6223C70.5276 27.5605 71.0224 27.1592 71.5274 26.871C70.0329 26.624 68.6208 26.8195 68.6208 26.8195C64.2301 26.552 55.8712 27.0768 45.791 33.756C37.195 39.4574 32.2889 50.7265 32.4023 58.0128C34.6905 50.5001 37.2569 42.1229 46.3064 35.5055Z" fill="#B26E40"/>
<path d="M73.8789 27.7871C70.8487 39.5399 52.4612 46.5484 48.5651 54.2772C48.5651 52.3424 48.8022 48.9874 50.6059 46.147C43.1952 48.9668 38.0418 63.3336 24.7046 73.4501C24.6118 73.5942 24.5191 73.728 24.416 73.8721C31.6515 70.5582 41.5461 61.7076 44.7207 57.1382C43.1746 62.2222 43.3189 67.8207 43.3189 67.8207C45.4731 61.1313 51.1831 53.1143 57.4909 48.8022C63.7988 44.4901 73.5388 37.1523 74.8684 31.4817C75.3013 29.619 74.7756 28.4766 73.8789 27.7871Z" fill="#4F270D"/>
<path d="M23.6113 74.5308L24.1885 73.6972C26.7859 69.9614 29.2698 65.0833 32.1764 58.9187C31.5992 51.334 36.8557 39.3445 45.6475 33.5195C55.2124 27.18 63.4167 26.2229 68.6217 26.5419C69.0133 26.4905 72.7754 26.0788 74.4863 27.9622C75.2799 28.8266 75.4964 30.0307 75.1459 31.5436C74.1256 35.9174 68.2403 41.7938 57.6448 49.0287C51.6255 53.1453 45.967 61.0388 43.7098 68.0369L43.0811 69.4468L43.0399 67.8311C43.0399 67.7796 42.9265 63.1073 44.0706 58.4556C40.2879 63.1176 31.3518 70.9803 24.5286 74.1089L23.6113 74.5308ZM66.8695 27.0462C61.7469 27.0462 54.3981 28.3944 45.9567 33.9929C37.2989 39.7355 32.1248 51.5398 32.733 58.9599L32.7433 59.0319L32.7123 59.0937C29.9913 64.8672 27.6516 69.5086 25.2295 73.1723C32.4547 69.5189 41.5866 61.1623 44.4932 56.9839L45.5032 55.5329L44.9879 57.2207C43.9778 60.5551 43.6892 64.1365 43.6171 66.1639C46.2144 59.4951 51.6668 52.4557 57.3356 48.5759C67.6528 41.5262 73.6308 35.5881 74.61 31.4201C74.9192 30.0925 74.744 29.0531 74.0843 28.3327C72.5177 26.6037 68.7144 27.0874 68.6835 27.0977H68.6526H68.6217C68.0651 27.0565 67.4776 27.0462 66.8695 27.0462Z" fill="#230E00"/>
<path d="M32.7018 59.0941L32.207 58.8574C34.2375 54.6688 38.0098 49.0085 41.5966 44.5935C43.9775 41.7325 46.3069 40.2402 46.3069 40.2402C41.9677 44.2848 35.6186 53.0942 32.7018 59.0941Z" fill="#230E00"/>
<path d="M44.9774 57.2005L44.4414 57.0461C45.101 54.71 46.1936 52.6723 47.1315 50.9022C48.5848 48.1441 50.2854 46.5283 50.2854 46.5283C50.2442 46.5798 46.6368 51.3241 44.9774 57.2005Z" fill="#230E00"/>
<path d="M98.6786 33.6948C100.523 34.6519 104.729 37.4923 105.986 44.7478C107.027 50.7785 105.615 58.8264 108.79 65.8246C108.717 72.3082 110.325 84.3594 117.128 95.9681C116.149 91.1723 116.386 84.9872 116.386 84.9872C118.159 90.5137 124.322 101.824 128.641 112.002C132.959 122.17 136.721 134.448 136.505 141.302C138.164 130.794 138.164 119.412 138.164 119.412C139.607 129.806 141.926 134.89 147.575 144.842C153.223 154.794 164.736 163.634 167.395 164.303C161.86 156.008 157.871 146.499 157.315 141.971C160.633 147.055 168.168 154.135 174.589 158.447C181.01 162.759 193.853 169.613 195.625 172.927C193.409 166.403 180.351 152.921 178.908 149.597C183.226 153.137 192.863 157.778 198.398 161.422C203.933 165.075 210.581 172.145 212.127 176.128C212.57 170.601 207.365 158.324 205.036 155.123C209.911 158.993 225.299 162.646 229.834 160.094C221.754 157.109 214.116 148.043 210.014 142.846C205.922 137.648 195.842 128.582 187.864 126.04C185.319 118.084 177.784 101.937 166.055 98.5101C164.612 88.1775 157.861 71.6495 142.473 65.4541C139.947 56.3976 134.299 41.0326 119.457 39.2624C116.242 33.067 105.842 23.6195 96.4316 27.6537C97.2768 30.3089 98.6786 33.6948 98.6786 33.6948Z" fill="#683513"/>
<path d="M122.539 50.3463C121.869 46.3121 122.137 45.6122 120.849 42.4013C128.27 42.9365 134.186 51.3857 136.989 58.0649C141.226 68.1607 140.885 77.2686 148.296 83.7111C145.482 78.4213 144.338 73.9239 143.215 69.0149C146.843 70.0852 154.058 75.3647 158.242 83.8551C165.014 97.5942 164.797 110.623 170.538 115.244C168.57 110.829 167.9 106.496 166.715 101.937C168.755 102.04 175.228 106.342 179.567 113.289C186.287 124.064 187.091 134.705 191.905 135.95C190.328 134.602 189.462 132.153 188.813 129.251C192.688 130.218 198.13 134.386 201.026 136.959C210.55 145.604 216.92 157.624 229.7 160.166C229.752 160.135 229.814 160.114 229.865 160.084C221.784 157.099 214.147 148.032 210.045 142.835C205.953 137.638 195.873 128.571 187.895 126.029C185.349 118.074 177.815 101.927 166.086 98.4998C164.643 88.1672 157.892 71.6392 142.504 65.4438C139.947 56.3976 134.299 41.0326 119.457 39.2624C116.242 33.067 105.842 23.6195 96.4316 27.6537C96.5553 28.0345 96.6893 28.4256 96.8233 28.8167C101.966 27.7875 106.337 29.4444 110.057 31.9864C116.376 36.3088 120.643 43.9039 122.539 50.3463Z" fill="#B26E40"/>
<path d="M229.02 160.352C214.003 159.353 200.769 151.11 195.09 137.783C191.544 141.652 193.801 146.798 196.059 150.667C187.731 148.938 175.094 132.843 171.353 121.625C169.838 125.587 169.766 130.939 171.394 134.942C167.632 131.073 164.664 124.826 163.375 117.889C162.406 121.43 161.159 125.917 161.974 130.383C159.283 127.254 158.263 120.349 157.995 115.265C156.057 117.519 154.666 123.138 154.934 126.143C152.677 119.052 152.378 110.716 154.305 103.625C149.471 106.198 147.183 111.323 147.4 124.424C143.854 111.334 145.214 92.3769 134.763 85.2861C137.969 92.346 137.587 98.0063 136.979 103.749C133.794 97.7387 131.187 93.6839 125.167 88.8881C128.558 95.9994 129.177 99.4882 130.032 104.716C122.292 92.1504 116.644 76.3737 116.994 60.0309C114.417 64.5386 112.943 72.9878 113.232 79.3273C109.686 70.6723 112.067 60.2471 112.067 52.5182C112.387 47.6915 112.789 40.9198 107.244 38.0897C109.594 41.8563 109.769 46.6727 108.192 50.5423C108.048 46.2096 107.45 42.906 105.976 39.2938C104.43 35.5168 101.317 32.5117 97.7305 31.4414C98.2149 32.7072 98.5962 33.6335 98.5962 33.6335C100.441 34.5906 104.646 37.431 105.904 44.6865C106.945 50.7172 105.533 58.7651 108.707 65.7633C108.635 72.2469 110.243 84.2981 117.046 95.9068C116.066 91.111 116.304 84.9259 116.304 84.9259C118.076 90.4524 124.24 101.763 128.558 111.941C132.877 122.109 136.639 134.386 136.423 141.24C138.082 130.733 138.082 119.351 138.082 119.351C139.525 129.745 141.844 134.829 147.492 144.781C153.14 154.733 164.653 163.573 167.313 164.242C161.778 155.947 157.789 146.438 157.232 141.909C160.551 146.993 168.086 154.074 174.507 158.386C180.928 162.698 193.77 169.552 195.543 172.866C193.327 166.341 180.268 152.859 178.825 149.535C183.144 153.076 192.781 157.717 198.316 161.36C203.851 165.014 210.499 172.084 212.045 176.067C212.488 170.54 207.283 158.262 204.953 155.062C209.602 158.726 223.743 162.204 229.02 160.352Z" fill="#4F270D"/>
<path d="M212.24 177.281L211.807 176.159C210.302 172.289 203.674 165.209 198.181 161.586C195.924 160.094 193.027 158.468 189.966 156.749C186.245 154.66 182.422 152.509 179.793 150.605C180.803 152.098 182.648 154.341 184.71 156.852C189.049 162.142 194.46 168.739 195.821 172.763L195.316 172.979C194.11 170.725 187.348 166.609 181.391 162.986C178.773 161.391 176.289 159.888 174.372 158.592C168.177 154.434 161.282 147.971 157.737 143.082C158.736 147.806 162.436 156.4 167.559 164.077L167.961 164.674L167.27 164.499C165.951 164.17 162.467 161.895 158.365 158.19C155.644 155.731 150.594 150.739 147.275 144.914C142.4 136.331 139.854 131.175 138.318 122.52C138.195 126.657 137.834 134.201 136.71 141.281L136.329 144.122L136.164 141.23C136.401 133.882 132.093 120.915 128.321 112.054C126.393 107.515 124.053 102.668 121.992 98.3765C119.725 93.6734 117.725 89.5053 116.571 86.4797C116.56 88.6203 116.663 92.5928 117.323 95.8654L117.653 97.5018L116.808 96.061C113.747 90.8432 111.469 85.1006 110.026 78.9875C108.593 72.8847 108.408 68.1507 108.428 65.8351C106.377 61.2657 106.243 56.1818 106.119 51.6947C106.058 49.2042 105.996 46.8474 105.625 44.748C104.45 37.9248 100.626 35.0123 98.4614 33.8906L98.3686 33.8391L98.3274 33.7465C98.3171 33.7156 96.9154 30.3194 96.0702 27.6848L95.998 27.4481L96.2248 27.3452C101.605 25.0399 106.862 27.1497 110.325 29.3315C114.097 31.7088 117.704 35.4651 119.549 38.9436C126.053 39.7567 131.495 43.2866 135.721 49.41C139.421 54.7718 141.431 60.9673 142.627 65.197C146.244 66.6687 149.584 68.799 152.562 71.5263C155.232 73.9653 157.623 76.8984 159.664 80.2328C162.972 85.6461 165.364 92.2017 166.24 98.2428C171.393 99.8071 176.217 103.882 180.577 110.366C184.947 116.87 187.338 123.642 188.029 125.762C195.821 128.314 205.87 137.165 210.168 142.619C212.889 146.067 221.165 156.564 229.864 159.775L230.431 159.981L229.906 160.269C227.782 161.453 223.124 161.432 217.434 160.218C212.848 159.23 208.539 157.665 205.932 156.06C208.426 160.362 212.734 170.952 212.322 176.087L212.24 177.281ZM178.134 148.578L179.02 149.298C181.546 151.367 185.967 153.858 190.245 156.255C193.316 157.984 196.212 159.61 198.49 161.113C203.674 164.53 209.622 170.725 211.807 174.831C211.549 168.873 206.818 158.046 204.757 155.195L203.571 153.559L205.159 154.815C207.436 156.626 212.312 158.52 217.568 159.652C222.649 160.743 226.865 160.866 229.081 160.022C220.454 156.502 212.425 146.324 209.745 142.928C205.468 137.505 195.439 128.674 187.73 126.215L187.596 126.174L187.554 126.04C186.936 124.095 184.555 117.241 180.123 110.644C175.794 104.201 171.012 100.178 165.92 98.6956L165.745 98.6441L165.724 98.4692C164.446 89.2584 158.066 71.9688 142.307 65.6293L142.183 65.5778L142.142 65.444C137.586 49.2351 130.135 40.7241 119.343 39.4376L119.199 39.417L119.127 39.2833C117.344 35.8459 113.777 32.1101 110.036 29.7534C106.738 27.6745 101.76 25.6574 96.6886 27.7054C97.4513 30.0313 98.5954 32.8511 98.8118 33.3966C101.09 34.6007 104.975 37.6366 106.171 44.6039C106.542 46.7445 106.604 49.1218 106.676 51.633C106.8 56.3053 106.923 61.1319 108.964 65.619L108.985 65.6704V65.7322C108.944 69.2519 109.387 81.4472 116.509 94.3526C115.849 89.8964 116.035 84.936 116.035 84.8742L116.097 83.3099L116.571 84.8022C117.55 87.8484 119.828 92.5928 122.477 98.0884C124.538 102.38 126.888 107.237 128.815 111.786C132.124 119.577 135.845 130.517 136.576 138.122C137.782 128.685 137.803 119.402 137.803 119.299L138.349 119.258C139.813 129.848 142.214 134.87 147.728 144.585C152.954 153.796 163.045 161.875 166.6 163.604C161.014 155.031 157.479 146.088 156.963 141.878L156.819 140.695L157.469 141.693C160.684 146.612 168.074 153.662 174.66 158.087C176.578 159.374 179.051 160.876 181.659 162.461C186.771 165.569 192.028 168.76 194.522 171.137C192.502 167.185 187.987 161.689 184.267 157.151C181.412 153.662 179.154 150.914 178.577 149.587L178.134 148.578Z" fill="#230E00"/>
<path d="M122.538 50.3468C122.528 50.2851 121.518 43.9353 119.137 39.3042L119.631 39.0469C120.27 40.2716 120.806 41.6197 121.26 42.9473C122.517 46.6934 122.538 50.3468 122.538 50.3468Z" fill="#230E00"/>
<path d="M145.266 77.7111C144.04 73.9959 142.813 69.3853 142.133 65.4334L142.679 65.3408C143.854 72.1537 146.792 81.2822 148.286 83.711C148.296 83.711 146.482 81.8688 145.266 77.7111Z" fill="#230E00"/>
<path d="M167.858 108.298C167.023 104.994 166.209 101.289 165.725 98.4901L166.271 98.3975C167.219 103.811 169.373 112.651 170.528 115.245C170.528 115.245 169.147 113.546 167.858 108.298Z" fill="#230E00"/>
<path d="M189.553 132.77C188.945 131.165 188.461 129.384 188.028 127.81C187.853 127.182 187.698 126.595 187.533 126.05L188.069 125.896C188.234 126.441 188.389 127.038 188.564 127.666C189.358 130.568 190.347 134.18 191.893 135.961C191.893 135.961 190.646 135.353 189.553 132.77Z" fill="#230E00"/>
<path d="M204.808 155.267C202.798 153.765 200.314 151.182 198.335 148.527C195.604 144.914 195.604 142.578 195.604 142.578C196.717 146.304 201.643 152.211 205.137 154.815L204.808 155.267Z" fill="#230E00"/>
<path d="M178.65 149.721C172.476 143.741 167.683 137.072 165.055 130.959C163.509 126.894 163.694 124.815 163.694 124.815C165.086 132.215 170.827 141.374 179.041 149.319L178.65 149.721Z" fill="#230E00"/>
<path d="M157.015 142.043C153.294 136.177 151.738 129.22 151.089 124.403C150.728 121.717 150.553 119 150.563 116.448C150.666 111.055 151.769 109.224 151.769 109.224C150.285 116.366 151.068 131.649 157.489 141.744L157.015 142.043Z" fill="#230E00"/>
<path d="M137.854 119.649C136.937 112.311 135.061 106.856 132.113 102.977C132.113 102.977 133.752 104.088 135.257 107.247C136.762 110.592 137.803 114.678 138.411 119.577L137.854 119.649Z" fill="#230E00"/>
<path d="M116.035 84.9254C116.035 84.8225 115.705 77.8449 115.819 70.7542C115.994 63.0973 116.994 60.7715 116.994 60.7715C115.85 68.9429 116.581 84.7402 116.592 84.8946L116.035 84.9254Z" fill="#230E00"/>
<path d="M108.984 65.7738L108.427 65.7327C108.438 65.6503 109.025 57.798 109.829 50.1103C110.561 43.1018 109.901 41.1465 107.242 38.0693C107.242 38.0693 109.283 39.1602 110.293 42.2888C110.798 44.203 110.767 46.5495 110.386 50.172C109.592 57.8494 108.994 65.7018 108.984 65.7738Z" fill="#230E00"/>
<path d="M148.409 141.703C146.966 139.233 145.781 136.29 144.823 132.853C143.256 127.203 142.565 121.141 141.947 115.8C141.875 115.193 141.813 114.596 141.741 114.019C141.535 112.29 141.349 110.561 141.164 108.884C140.226 100.27 139.35 92.1398 136.969 88.8877C136.969 88.8877 138.7 90.1638 139.515 93.7247C140.504 97.6766 141.081 102.997 141.71 108.822C141.895 110.5 142.081 112.229 142.277 113.958C142.349 114.544 142.411 115.141 142.483 115.748C143.72 126.523 145.256 139.943 153.316 146.9C153.336 146.88 150.935 145.923 148.409 141.703Z" fill="#230E00"/>
<path d="M171.825 152.973C170.021 151.161 167.909 148.774 165.765 145.81C162.25 140.942 159.828 135.282 158.426 130.784C157.117 126.544 157.519 124.074 157.519 124.074C157.746 127.656 160.529 137.618 166.218 145.491C171.877 153.322 177.278 156.996 177.329 157.027C177.329 157.027 174.835 155.998 171.825 152.973Z" fill="#230E00"/>
<path d="M198.129 158.561C196.284 156.667 193.944 154.938 191.47 153.096C189.059 151.305 186.327 149.288 183.596 146.777C180.896 144.297 178.133 140.839 175.794 137.042C174.876 135.539 174.041 134.026 173.32 132.534C171.465 129.025 171.393 125.906 171.393 125.906C173.104 132.555 178.515 141.354 183.967 146.376C186.678 148.866 189.399 150.884 191.8 152.654C192.615 153.251 193.408 153.847 194.171 154.434C197.129 156.719 198.129 158.561 198.129 158.561Z" fill="#230E00"/>
<path d="M77.1674 33.6742C73.3435 33.5096 65.3453 27.6846 59.8105 18.0621C54.2757 8.43967 52.3895 1.89433 54.3891 0.474115C56.3783 -0.9461 68.4477 5.90798 74.4257 9.43793C80.4037 12.9782 88.4844 16.0141 91.8135 18.834C96.1836 22.5389 100.172 28.971 99.3994 35.4958L77.1674 33.6742Z" fill="#FEA153"/>
<path d="M61.1608 16.8679C55.626 7.25567 53.9768 3.01561 54.3788 0.473633C52.3896 1.89385 54.2654 8.44948 59.8003 18.0617C65.3351 27.6841 73.3332 33.4988 77.1571 33.6737C73.2817 31.4817 66.6956 26.4903 61.1608 16.8679Z" fill="#EB873C"/>
<path d="M91.8137 18.8443C88.4845 16.0244 80.4039 12.9885 74.4259 9.44822C68.4479 5.90797 56.3784 -0.946108 54.3789 0.474107C55.626 0.0315761 67.3862 7.12236 73.3643 10.6626C79.3423 14.2029 87.3508 17.0227 90.6799 19.8425C95.05 23.5475 98.6781 28.7137 99.3892 35.5061C100.173 28.9813 96.1838 22.5492 91.8137 18.8443Z" fill="#FDC798"/>
<path d="M99.3992 35.5058C100.182 28.8885 95.7093 22.5078 91.638 19.0499C89.7416 17.4444 86.2063 15.7257 82.4752 13.9145C79.6923 12.5663 76.827 11.1769 74.2915 9.6744C58.3364 0.237174 55.1618 0.257756 54.5434 0.700287C53.1005 1.72943 53.6776 6.86484 60.0473 17.9281C62.5519 22.2814 65.8398 26.3362 69.3029 29.3413C72.3332 31.9656 75.2707 33.5916 77.1671 33.674C77.1671 33.674 75.5799 34.0753 73.436 32.9844C69.169 30.6586 63.6135 25.2453 59.5629 18.206C54.0075 8.54234 52.0079 1.83234 54.2239 0.247465C54.8423 -0.195066 56.4296 -0.400894 63.0363 2.85119C66.1903 4.4052 70.0657 6.54581 74.5698 9.21129C77.0744 10.6932 79.9397 12.0826 82.7123 13.4308C86.4846 15.2626 90.0405 16.9813 91.9885 18.6382C95.2146 21.3654 98.6777 25.8937 99.729 30.9673C100.358 33.7357 99.3992 35.5058 99.3992 35.5058Z" fill="#562300"/>
<path d="M57.4824 6.63867C61.1517 8.71754 65.1611 11.7226 69.6652 16.4464C74.1693 21.1599 79.1166 28.0963 79.7763 31.4821C73.654 28.3535 69.995 25.5337 64.9343 19.0604C60.3168 13.1531 57.4824 6.63867 57.4824 6.63867Z" fill="#EB873C"/>
<path d="M57.4824 6.63867C61.1517 8.71754 65.1611 11.7226 69.6652 16.4464C74.1693 21.1599 79.1166 28.0963 79.7763 31.4821C75.6123 26.3261 73.2211 23.1976 67.7584 17.0742C62.3885 11.0743 57.4824 6.63867 57.4824 6.63867Z" fill="#EFAC73"/>
<path d="M80.1567 31.9863L79.6517 31.7291C73.148 28.4049 69.52 25.369 64.7273 19.2353C60.1407 13.3692 57.265 6.82384 57.2341 6.7518L56.9043 5.99023L57.6258 6.40189C61.7898 8.75862 65.7889 11.9798 69.8704 16.2508C74.3333 20.9231 79.3631 27.8801 80.0536 31.4203L80.1567 31.9863ZM58.0999 7.31783C59.0069 9.22174 61.5424 14.2645 65.1601 18.8854C69.757 24.7721 73.2717 27.7669 79.3631 30.9469C78.3015 27.3758 73.5397 20.9025 69.4684 16.6316C65.6755 12.6694 61.9444 9.61281 58.0999 7.31783Z" fill="#562300"/>
<path d="M21.8283 136.063L21.6016 135.559C26.3118 133.469 31.3622 128.509 35.0933 122.293C39.2264 115.408 40.9477 108.286 40.9683 108.225L41.5042 108.348C41.4836 108.42 39.7521 115.624 35.5674 122.581C31.7848 128.89 26.6416 133.933 21.8283 136.063Z" fill="#563823"/>
<path d="M42.6999 108.956C41.7517 108.956 40.8859 108.719 40.1438 108.359C38.4844 107.474 38.4844 106.28 38.4844 106.28C39.3914 107.587 41.8032 109.131 44.6891 108.02C44.6891 108.02 44.1326 108.905 42.6999 108.956Z" fill="#563823"/>
<path d="M9.02832 113.381C5.63734 114.925 6.08054 127.141 11.1309 127.82C16.6657 128.561 19.2528 119.34 18.4385 116.026C17.6243 112.702 11.234 112.372 9.02832 113.381Z" fill="#714C31"/>
<path d="M18.4381 116.016C18.2113 115.08 17.5311 114.38 16.6344 113.886C17.3559 117.292 14.7791 126.287 9.30616 125.556C8.82173 125.494 8.37853 125.319 7.97656 125.062C8.68774 126.544 9.72874 127.625 11.1305 127.81C16.6653 128.551 19.242 119.34 18.4381 116.016Z" fill="#966541"/>
<path d="M11.7394 128.129C11.5229 128.129 11.3065 128.119 11.09 128.088C8.90497 127.8 7.27648 125.443 6.73021 121.779C6.20456 118.249 6.87451 114.05 8.90497 113.124C10.5541 112.373 14.1409 112.363 16.4599 113.484C17.6762 114.071 18.4492 114.925 18.6965 115.944C19.2428 118.157 18.3461 123.241 15.7178 126.163C14.5635 127.46 13.1927 128.129 11.7394 128.129ZM9.14203 113.628C7.56507 114.349 6.73021 117.971 7.28678 121.697C7.79182 125.103 9.2451 127.285 11.1725 127.542C12.7082 127.748 14.0997 127.162 15.3159 125.803C17.7895 123.055 18.6759 118.136 18.1709 116.088C17.9544 115.213 17.3051 114.514 16.2332 113.989C14.079 112.949 10.6571 112.939 9.14203 113.628Z" fill="#563823"/>
<path d="M62.3252 56.1712C52.0183 57.859 50.8949 73.3476 53.2655 79.8209C55.5433 86.0163 61.8924 88.8979 68.8186 86.9425C76.3117 84.8328 78.1979 78.1537 77.2497 72.0097C76.085 64.497 71.0552 54.7407 62.3252 56.1712Z" fill="#EB873C"/>
<path d="M73.8074 65.0939L71.0039 62.1094C77.0231 66.298 80.8264 64.4661 82.8878 62.8401C82.8775 62.8504 79.0227 67.5947 73.8074 65.0939Z" fill="#201712"/>
<path d="M76.1163 70.353L75.4258 67.5332C78.3529 70.7338 82.4242 72.6995 87.32 70.2913C85.6399 71.9894 80.672 73.6566 76.1163 70.353Z" fill="#201712"/>
<path d="M76.6113 74.9122L76.7144 73.1523C77.8997 75.0151 80.5177 77.8349 83.2078 77.5674C83.2078 77.5777 79.8992 78.9155 76.6113 74.9122Z" fill="#201712"/>
<path d="M62.2834 58.4557C53.2854 59.2996 50.8942 73.3474 53.2648 79.8207C55.5426 86.0161 61.8917 88.8977 68.8179 86.9423C76.3111 84.8326 78.0839 78.5137 77.1769 72.3594C76.1874 65.7009 69.9002 57.7353 62.2834 58.4557Z" fill="#201712"/>
<path d="M62.4275 60.0719C54.7694 60.6277 51.3372 73.8521 53.6357 80.099C55.8311 86.0783 61.9637 88.8467 68.6322 86.9737C75.8574 84.936 77.5787 78.8435 76.6923 72.9053C75.744 66.4732 69.1167 59.5883 62.4275 60.0719Z" fill="white"/>
<path d="M52.9355 75.6631C52.9459 77.32 53.1726 78.8431 53.6364 80.0987C55.8318 86.078 61.9644 88.8464 68.633 86.9733C74.6625 85.2753 76.8579 80.7368 76.9095 75.838C73.8174 84.0609 57.6252 86.5617 52.9355 75.6631Z" fill="#D6D6D6"/>
<path d="M63.0471 87.7455C61.7485 87.6014 60.5013 87.2618 59.3366 86.7267C56.5332 85.4505 54.4718 83.1864 53.3689 80.1813C51.792 75.9001 52.8845 68.7682 55.7911 64.2708C57.5742 61.5127 59.8623 59.969 62.4081 59.7838C65.6239 59.5471 68.9942 60.9364 71.9111 63.6842C74.6115 66.2365 76.508 69.6635 76.9718 72.8539C78.0643 80.2019 75.0444 85.4402 68.7056 87.2207C66.7679 87.7867 64.8508 87.9513 63.0471 87.7455ZM62.4493 60.3498C59.4603 60.5659 57.4299 62.7786 56.2549 64.5898C53.4308 68.9534 52.3692 75.8692 53.8946 80.0064C55.4097 84.1332 58.9141 86.7164 63.1605 87.1898C64.8715 87.3853 66.6958 87.2309 68.5613 86.7061C77.1367 84.2876 76.9202 76.2809 76.4255 72.9465C75.972 69.8693 74.1374 66.5658 71.5297 64.0959C68.7778 61.4921 65.4693 60.1337 62.4493 60.3498Z" fill="#201712"/>
<path d="M66.7541 83.4117C69.66 82.9123 71.4013 78.943 70.6434 74.5459C69.8856 70.1489 66.9155 66.9891 64.0096 67.4884C61.1037 67.9878 59.3624 71.9571 60.1203 76.3542C60.8781 80.7513 63.8482 83.911 66.7541 83.4117Z" fill="#542416"/>
<path d="M70.6528 74.541C71.4155 78.9354 69.6634 82.9079 66.7568 83.4019C63.8502 83.9062 60.8819 80.7467 60.1191 76.3523C63.675 82.2802 69.7767 79.6867 70.6528 74.541Z" fill="#A74F45"/>
<path d="M66.4628 81.7352C68.5104 81.3834 69.7743 78.8005 69.2858 75.9662C68.7973 73.1319 66.7414 71.1195 64.6938 71.4713C62.6462 71.8232 61.3823 74.406 61.8708 77.2403C62.3593 80.0746 64.4153 82.0871 66.4628 81.7352Z" fill="#201712"/>
<path d="M64.7055 72.0406C64.8808 73.0697 64.1902 74.0474 63.1595 74.2223C62.1288 74.3973 61.1497 73.7078 60.9744 72.6786C60.7992 71.6495 61.4898 70.6718 62.5205 70.4969C63.5409 70.3219 64.52 71.0114 64.7055 72.0406Z" fill="white"/>
<path d="M69.0138 78.8945C69.0859 79.3267 68.7973 79.7384 68.3645 79.8207C67.9316 79.8927 67.5193 79.6046 67.4368 79.1723C67.3647 78.7401 67.6533 78.3284 68.0862 78.2461C68.5191 78.1638 68.9416 78.4622 69.0138 78.8945Z" fill="white"/>
<path d="M66.8091 83.6803C63.7583 84.2052 60.6353 80.9428 59.8519 76.4043C59.0686 71.8658 60.9136 67.7492 63.9747 67.2244C67.0256 66.6995 70.1486 69.9619 70.9319 74.5004C71.7152 79.0389 69.86 83.1555 66.8091 83.6803ZM64.0675 67.7698C61.3155 68.2432 59.6767 72.0716 60.3982 76.3117C61.13 80.5517 63.9644 83.6083 66.7164 83.1349C69.4683 82.6615 71.1071 78.8331 70.3856 74.593C69.6435 70.353 66.8194 67.2964 64.0675 67.7698Z" fill="#200705"/>
<path d="M168.476 239.852L168.156 239.399C168.177 239.379 170.578 237.691 173.258 234.768C175.722 232.082 178.927 227.78 180.226 222.532C182.132 214.844 179.844 209.05 178.979 206.868C178.741 206.282 181.215 209.616 181.473 215.153C181.596 217.366 181.442 219.897 180.762 222.666C179.432 228.038 176.165 232.422 173.65 235.159C170.939 238.113 168.507 239.832 168.476 239.852Z" fill="#562300"/>
<path d="M143.255 295.457C143.255 295.457 146.945 307.508 147.975 321.587C148.749 332.094 148.594 351.751 147.718 354.272C145.811 359.747 140.245 362.896 139.07 364.605C139.07 364.605 147.388 372.179 150.82 373.064C151.037 370.08 152.82 367.414 155.025 364.769C157.571 361.733 161.014 359.706 163.333 355.703C166.064 350.989 164.662 347.521 163.333 342.993C162.003 338.465 160.045 317.892 159.715 310.595C159.385 303.299 159.674 296.774 160.787 294.458C157.355 293.913 143.255 295.457 143.255 295.457Z" fill="#994C19"/>
<path d="M149.727 354.901C150.603 352.379 150.541 332.033 149.768 321.526C148.861 309.238 146.223 297.907 145.563 295.221C144.162 295.354 143.255 295.457 143.255 295.457C143.255 295.457 146.944 307.509 147.975 321.587C148.748 332.095 148.593 351.751 147.717 354.273C145.852 359.635 140.472 362.763 139.152 364.502C141.626 362.66 148.078 359.635 149.727 354.901Z" fill="#AF5C2E"/>
<path d="M163.332 342.993C162.002 338.465 160.044 317.892 159.714 310.596C159.384 303.299 159.673 296.774 160.786 294.459C160.023 294.335 158.725 294.315 157.179 294.366C156.426 298.071 155.952 304.802 156.21 310.575C156.54 317.872 158.271 338.094 159.601 342.623C160.93 347.151 162.384 349.878 159.652 354.591C157.333 358.595 154.53 359.994 151.984 363.03C149.974 365.428 147.954 368.475 147.49 371.336C148.768 372.18 149.954 372.838 150.819 373.065C151.036 370.08 152.819 367.415 155.025 364.77C157.57 361.734 161.013 359.706 163.332 355.703C166.063 350.989 164.662 347.532 163.332 342.993Z" fill="#7F3912"/>
<path d="M151.077 373.414L150.758 373.332C147.295 372.436 139.235 365.119 138.884 364.811L138.709 364.646L138.843 364.45C139.214 363.905 139.966 363.267 140.915 362.454C142.997 360.663 146.151 357.946 147.47 354.179C148.325 351.73 148.47 331.94 147.717 321.607C146.697 307.724 143.038 295.663 143.007 295.539L142.914 295.22L143.244 295.179C143.821 295.117 157.416 293.635 160.848 294.191L161.209 294.253L161.054 294.582C160.044 296.702 159.653 302.692 160.013 310.595C160.354 318.005 162.312 338.475 163.621 342.921C163.724 343.281 163.837 343.641 163.94 343.991C165.136 347.974 166.167 351.411 163.59 355.847C162.126 358.368 160.24 360.107 158.406 361.795C157.282 362.835 156.21 363.812 155.262 364.955C153.345 367.25 151.345 370.008 151.119 373.085L151.077 373.414ZM139.451 364.574C140.657 365.654 147.387 371.603 150.583 372.704C150.933 369.606 152.912 366.879 154.819 364.594C155.798 363.431 156.87 362.433 158.014 361.383C159.818 359.727 161.673 358.008 163.095 355.569C165.548 351.339 164.59 348.159 163.394 344.145C163.291 343.795 163.178 343.435 163.075 343.065C161.755 338.578 159.787 318.036 159.447 310.606C159.096 303 159.457 297.124 160.395 294.675C156.859 294.314 145.687 295.467 143.625 295.683C144.213 297.69 147.336 308.866 148.263 321.556C149.047 332.187 148.882 351.802 147.996 354.354C146.635 358.255 143.409 361.034 141.286 362.865C140.471 363.555 139.822 364.121 139.451 364.574Z" fill="#401D09"/>
<path d="M140.006 363.628C139.8 363.587 135.131 365.192 130.348 369.576C125.927 373.641 124.195 377.809 124.319 378.756C124.535 380.475 131.894 381.741 140.006 381.524C148.117 381.308 153.065 379.055 153.879 376.77C154.982 373.662 142.521 364.091 140.006 363.628Z" fill="#2D1301"/>
<path d="M139.449 365.171C140.542 365.191 143.531 366.323 147.118 367.929C144.211 365.582 141.253 363.668 140.171 363.472C139.965 363.431 135.296 365.037 130.513 369.421C126.483 373.116 124.69 376.903 124.494 378.272C128.349 371.129 138.285 365.14 139.449 365.171Z" fill="#441F07"/>
<path d="M148.449 369.041C150.366 373.435 148.83 376.152 147.501 377.058C142.78 380.269 128.289 379.991 124.691 379.024C125.959 380.516 132.751 381.566 140.172 381.36C148.284 381.144 153.231 378.89 154.046 376.605C154.592 375.061 151.747 371.881 148.449 369.041Z" fill="#230E00"/>
<path d="M138.358 381.658C135.07 381.658 131.854 381.421 129.308 380.968C127.061 380.577 124.351 379.847 124.196 378.622C124.041 377.438 126.01 373.157 130.318 369.205C132.843 366.879 135.307 365.377 136.915 364.533C138.481 363.71 139.945 363.144 140.213 363.185C141.285 363.38 144.057 365.13 146.943 367.425C148.51 368.67 152.303 371.84 153.787 374.413C154.323 375.339 154.488 376.111 154.292 376.677C153.478 378.961 148.788 381.38 140.172 381.617C139.564 381.658 138.955 381.658 138.358 381.658ZM140.151 363.751C139.667 363.843 135.266 365.428 130.7 369.627C126.257 373.703 124.66 377.819 124.753 378.56C124.825 379.085 126.082 379.847 129.411 380.433C132.38 380.958 136.296 381.195 140.161 381.081C148.479 380.855 153.045 378.55 153.777 376.512C153.921 376.1 153.766 375.483 153.313 374.711C152.313 372.982 149.809 370.43 146.603 367.878C143.851 365.686 141.151 363.957 140.151 363.751Z" fill="black"/>
<path d="M127.392 194.756C127.392 194.756 122.826 204.265 124.146 217.191C125.475 230.127 133.113 246.872 136.102 256C139.091 265.118 143.244 282.964 143.244 284.075C141.142 285.217 139.668 289.2 140.585 293.142C141.544 297.258 143.461 299.409 150.696 299.409C157.932 299.409 160.952 298.596 162.209 293.142C163.466 287.687 160.952 283.859 160.879 283.046C160.807 282.233 166.486 265.365 169.403 256.103C173.454 243.28 177.422 222.285 168.496 205.593L127.392 194.756Z" fill="#FEA153"/>
<path d="M141.946 293.368C141.595 291.433 141.616 287.214 143.44 286.051C143.533 285.989 143.646 287.698 143.657 288.089C146.738 284.97 141.337 263.894 138.421 254.744C134.762 243.259 127.547 229.695 126.217 216.769C124.888 203.843 127.392 194.756 127.392 194.756C127.392 194.756 122.826 204.265 124.146 217.191C125.475 230.127 133.113 246.872 136.102 256C139.091 265.118 143.244 282.964 143.244 284.075C141.142 285.217 139.668 289.2 140.585 293.142C141.214 295.838 142.255 297.701 144.945 298.648C143.306 297.546 142.348 295.632 141.946 293.368Z" fill="#FDC798"/>
<path d="M168.517 205.582C171.258 223.767 168.682 241.108 164.631 253.941C161.704 263.204 156.808 280.565 156.87 282.449C156.973 285.834 159.148 285.762 158.643 291.33C158.323 294.901 156.705 298.225 150.717 299.399C157.952 299.399 160.972 298.586 162.23 293.131C163.487 287.677 160.972 283.848 160.9 283.035C160.828 282.222 166.507 265.355 169.424 256.092C173.474 243.269 177.443 222.285 168.517 205.582Z" fill="#EB873C"/>
<path d="M150.716 299.676C143.264 299.676 141.316 297.402 140.337 293.193C139.389 289.128 140.914 285.186 142.976 283.91C142.728 281.882 138.771 264.974 135.854 256.072C135.06 253.653 133.968 250.761 132.7 247.417C129.206 238.206 124.867 226.741 123.887 217.211C123.197 210.491 124.052 204.687 124.887 200.992C125.794 196.989 127.402 194.745 127.402 194.745C127.361 194.838 123.135 204.45 124.434 217.16C125.403 226.628 129.731 238.051 133.215 247.231C134.483 250.586 135.586 253.478 136.379 255.907C139.255 264.686 143.543 282.809 143.543 284.064V284.229L143.398 284.311C141.44 285.371 139.956 289.148 140.873 293.069C141.811 297.083 143.594 299.121 150.716 299.121C158.106 299.121 160.776 298.246 161.961 293.069C162.93 288.87 161.6 285.618 160.961 284.054C160.766 283.581 160.642 283.272 160.621 283.056C160.57 282.531 162.147 277.622 165.507 267.32C166.805 263.327 168.156 259.2 169.166 256.01C173.515 242.23 176.937 222.295 168.516 205.582C168.516 205.582 170.104 207.167 171.145 210.295C173.536 216.903 174.556 224.343 174.165 232.484C173.814 239.904 172.309 247.869 169.681 256.175C168.671 259.365 167.331 263.502 166.022 267.495C163.744 274.483 161.168 282.397 161.168 283.015C161.178 283.138 161.312 283.467 161.466 283.848C162.126 285.464 163.497 288.819 162.487 293.193C161.848 295.982 160.714 297.639 158.828 298.555C156.931 299.491 154.21 299.676 150.716 299.676Z" fill="#562300"/>
<path d="M143.656 288.089C143.656 288.068 143.347 285.948 142.986 284.126L143.533 284.023C143.893 285.855 143.656 288.089 143.656 288.089Z" fill="#562300"/>
<path d="M340.672 269.028C340.672 269.028 339.868 289.961 341.487 302.527C342.93 313.693 346.465 322.091 351.453 326.516C348.578 319.436 347.856 303.855 348.794 297.772C350.454 307.611 357.431 322.091 363.636 329.83C369.841 337.569 378.695 358.358 376.922 369.524C382.9 359.902 384.559 340.368 383.23 333.669C385.559 338.248 389.579 349.003 390.238 355.27C392.382 349.672 394.186 324.818 393.526 308.228C392.867 291.649 388.208 277.55 388.208 277.55C388.208 277.55 394.67 290.476 404.854 296.62C398.876 288.932 382.89 254.497 382.065 229.952C385.549 236.086 389.754 245.698 391.867 249.115C386.105 228.336 385.446 185.112 369.676 170.766C356.803 159.054 341.816 164.437 341.816 164.437L340.672 269.028Z" fill="#683513"/>
<path d="M385.466 212.796C382.559 195.743 378.467 178.762 369.676 170.766C356.802 159.054 341.816 164.437 341.816 164.437L341.785 167.03C350.123 164.612 360.915 165.569 368.841 174.059C379.148 185.102 383.538 206.868 385.466 212.796Z" fill="#B26E40"/>
<path d="M404.865 296.619C398.887 288.932 382.901 254.497 382.076 229.952C385.56 236.085 389.775 245.697 391.878 249.114C391.723 248.548 391.569 247.951 391.414 247.354C389.796 243.886 383.107 225.701 380.52 219.259C376.098 236.651 385.58 260.692 388.477 270.026C381.705 262.297 374.439 248.569 369.275 239.553C370.945 250.431 375.974 258.654 381.118 268.503C383.9 273.824 388.25 283.467 387.93 288.942C382.684 280.966 376.593 267.824 370.141 261.382C374.552 274.904 382.767 290.125 387.281 303.01C384.158 298.287 378.623 294.962 374.428 292.709C382.117 300.077 385.292 312.622 386.364 326.845C382.282 318.314 377.964 309.504 370.986 303.762C372.439 308.434 376.954 319.271 378.778 330.55C380.489 341.068 379.716 350.917 378.541 356.238C376.088 343.27 371.687 333.123 364.101 321.576C359.257 314.207 350.877 297.823 349.97 282.407C347.383 285.381 345.95 292.976 345.754 301.065C345.435 314.588 349.413 323.964 351.444 326.536C348.568 319.456 347.847 303.875 348.785 297.793C350.444 307.631 357.422 322.111 363.627 329.85C369.831 337.589 378.685 358.378 376.912 369.544C382.89 359.922 384.55 340.389 383.22 333.689C385.55 338.269 389.569 349.023 390.229 355.291C392.373 349.692 394.176 324.838 393.517 308.249C392.857 291.669 388.198 277.57 388.198 277.57C388.198 277.57 394.671 290.486 404.865 296.619Z" fill="#4F270D"/>
<path d="M376.438 370.841L376.654 369.493C377.448 364.522 376.149 357.061 373.016 348.498C370.347 341.212 366.585 333.957 363.431 330.015C360.39 326.217 357.051 320.64 354.278 314.712C351.722 309.257 349.836 303.957 348.877 299.583C348.279 306.581 349.176 320.176 351.722 326.423L352.165 327.525L351.279 326.732C346.228 322.245 342.652 313.662 341.219 302.568C339.622 290.177 340.384 269.409 340.405 269.028L341.549 164.251L341.735 164.19C341.776 164.179 345.589 162.831 350.939 162.944C354.082 163.016 357.123 163.562 359.998 164.591C363.585 165.867 366.914 167.884 369.872 170.58C374.809 175.068 378.705 182.735 381.777 194.024C384.457 203.863 386.126 214.803 387.745 225.372C389.105 234.315 390.394 242.764 392.146 249.063L392.671 250.946L391.651 249.279C390.631 247.612 389.146 244.565 387.425 241.035C385.838 237.773 384.055 234.12 382.416 231.115C383.673 254.898 398.845 288.407 405.101 296.455L406.019 297.628L404.741 296.856C399.443 293.655 395.166 288.613 392.517 284.939C391.115 282.994 390.002 281.213 389.229 279.906C390.569 284.671 393.331 295.796 393.826 308.208C394.475 324.489 392.723 349.61 390.517 355.352L390.105 356.433L389.981 355.28C389.404 349.805 386.209 340.708 383.776 335.387C384.158 339.164 383.91 344.917 383.107 350.526C382.437 355.188 380.777 363.863 377.17 369.658L376.438 370.841ZM348.784 296.043L349.073 297.731C350.64 306.993 357.401 321.617 363.853 329.665C367.048 333.648 370.841 340.965 373.531 348.303C376.428 356.227 377.768 363.225 377.355 368.237C379.674 363.987 381.499 357.75 382.55 350.464C383.488 343.929 383.663 337.198 382.973 333.72L382.581 331.754L383.488 333.545C385.828 338.156 389.383 347.757 390.363 354.004C392.362 346.636 393.877 323.542 393.259 308.238C392.599 291.885 388.002 277.776 387.961 277.632L388.476 277.426C388.538 277.549 394.496 289.323 403.803 295.601C400.742 291.103 395.763 281.357 391.29 269.707C387.219 259.087 382.272 243.577 381.808 229.962L381.767 228.84L382.323 229.818C384.127 232.998 386.147 237.135 387.92 240.788C389.115 243.238 390.187 245.45 391.074 247.118C389.59 241.066 388.425 233.451 387.198 225.434C385.59 214.875 383.921 203.956 381.251 194.148C378.2 182.971 374.356 175.387 369.501 170.972C362.926 164.982 355.783 163.603 350.949 163.49C346.352 163.387 342.91 164.385 342.106 164.642L340.951 269.038C340.941 269.244 340.168 290.084 341.765 302.496C343.095 312.818 346.28 320.917 350.784 325.497C349.32 321.175 348.681 315.165 348.424 311.799C348.011 306.355 348.053 300.829 348.527 297.741L348.784 296.043Z" fill="#230E00"/>
<path d="M381.818 230.065C380.489 226.668 380.52 222.953 380.52 222.953C380.52 222.984 381.025 226.524 382.334 229.869L381.818 230.065Z" fill="black"/>
<path d="M387.961 277.642C386.538 273.546 383.663 268.616 380.612 263.388C376.788 256.833 372.449 249.402 369.985 241.92C368.46 237.3 367.295 232.555 366.182 227.965C364.172 219.753 362.441 212.662 359.514 210.779L359.813 210.315C362.936 212.312 364.688 219.506 366.718 227.831C367.842 232.411 368.996 237.145 370.511 241.745C372.964 249.176 377.283 256.575 381.096 263.11C384.158 268.359 387.054 273.319 388.486 277.457L387.961 277.642Z" fill="#230E00"/>
<path d="M382.963 333.72C380.881 323.449 376.655 312.623 372.439 306.777L372.893 306.458C377.15 312.355 381.406 323.274 383.509 333.607L382.963 333.72Z" fill="#230E00"/>
<path d="M390.517 355.321L389.971 355.218C393.228 338.67 389.25 313.888 383.643 301.991C383.643 301.991 385.56 304.451 387.229 310.183C388.631 314.989 389.816 320.567 390.61 326.3C392.105 337.126 392.074 347.438 390.517 355.321Z" fill="#230E00"/>
<path d="M393.259 324.108C392.651 304.863 384.694 287.934 380.005 279.556C378.716 277.261 377.139 274.565 375.47 271.714C368.729 260.198 360.349 245.852 358.381 236.59L358.927 236.477C360.875 245.657 369.234 259.951 375.954 271.436C377.624 274.287 379.201 276.984 380.489 279.289C385.199 287.707 393.198 304.729 393.816 324.087L393.259 324.108Z" fill="#230E00"/>
<path d="M348.526 297.814C348.217 295.519 348.248 292.76 348.372 290.404C348.537 287.409 349.402 285.062 349.402 285.062C349.392 285.135 348.382 292.606 349.073 297.742L348.526 297.814Z" fill="#230E00"/>
<path d="M375.1 306.284C376.801 301.725 380.522 296.96 381.346 292.103C379.532 292.741 377.708 293.399 375.708 293.79C374.935 294.006 374.049 293.904 373.276 294.12C368.937 294.789 364.938 295.89 360.681 296.157C362.052 301.674 360.887 310.998 358.279 322.874C355.62 334.977 352.518 344.98 351.631 347.306C350.745 349.632 347.364 350.784 345.932 353.439C344.489 356.095 344.829 360.016 344.324 361.786C343.829 363.556 342.438 366.705 341.17 367.477C341.057 367.549 340.933 367.621 340.799 367.703C343.932 369.412 346.684 371.573 349.807 373.281C351.466 374.053 352.796 375.267 354.456 376.379C354.971 376.729 355.445 377.089 355.898 377.47C355.486 376.358 355.136 375.267 355.177 374.382C355.29 371.892 357.063 369.021 358.393 367.477C359.722 365.933 365.092 363.998 367.03 360.067C368.968 356.146 367.638 352.05 368.081 346.41C368.514 340.781 372.833 312.366 375.1 306.284Z" fill="#994C19"/>
<path d="M345.973 361.92C346.468 360.149 346.097 356.65 347.529 354.005C348.972 351.35 352.26 350.126 353.147 347.81C354.033 345.484 357.857 334.771 360.516 322.658C363.082 310.967 364.093 301.519 362.814 295.962C362.103 296.044 361.402 296.116 360.681 296.168C362.052 301.684 360.887 311.008 358.279 322.884C355.62 334.987 352.518 344.99 351.631 347.316C350.745 349.642 347.364 350.795 345.932 353.45C344.489 356.105 344.829 360.026 344.324 361.796C343.829 363.566 342.438 366.715 341.17 367.487C342.438 366.705 345.478 363.69 345.973 361.92Z" fill="#AF5C2E"/>
<path d="M375.1 306.284C376.8 301.725 380.521 296.96 381.346 292.103C379.532 292.741 377.707 293.399 375.708 293.79C375.667 293.801 375.615 293.811 375.574 293.821C374.605 297.454 373.018 300.356 371.616 304.133C369.348 310.215 364.958 339.484 364.514 345.114C364.071 350.743 365.885 354.047 363.948 357.968C362.01 361.889 355.877 363.556 354.352 364.914C352.569 366.499 350.92 370.708 350.219 373.487C351.682 374.259 352.929 375.36 354.445 376.369C354.96 376.719 355.434 377.079 355.888 377.46C355.475 376.348 355.125 375.257 355.166 374.372C355.279 371.882 357.052 369.01 358.382 367.467C359.711 365.923 365.081 363.988 367.019 360.057C368.957 356.136 367.627 352.04 368.07 346.4C368.514 340.781 372.832 312.366 375.1 306.284Z" fill="#7F3912"/>
<path d="M356.517 378.354L355.713 377.675C355.26 377.294 354.786 376.934 354.291 376.595C353.724 376.214 353.188 375.823 352.673 375.442C351.683 374.711 350.745 374.022 349.684 373.528L349.663 373.517C348.107 372.663 346.612 371.686 345.18 370.739C343.726 369.782 342.222 368.794 340.655 367.939L340.232 367.713L341.016 367.24C342.16 366.54 343.541 363.524 344.046 361.703C344.211 361.106 344.283 360.252 344.366 359.254C344.52 357.391 344.706 355.075 345.674 353.295C346.406 351.947 347.592 350.99 348.746 350.074C349.88 349.168 350.941 348.314 351.364 347.202C352.137 345.175 355.27 335.244 358.002 322.812C360.887 309.68 361.65 301.231 360.413 296.229L360.331 295.91L360.661 295.889C363.371 295.714 365.948 295.21 368.669 294.685C370.143 294.397 371.669 294.099 373.215 293.862C373.627 293.749 374.06 293.718 374.472 293.687C374.884 293.656 375.276 293.635 375.637 293.533L375.657 293.522C377.502 293.162 379.234 292.555 380.904 291.968L381.697 291.69L381.615 292.154C381.11 295.148 379.522 298.092 377.987 300.953C376.977 302.836 376.018 304.606 375.358 306.387C373.07 312.51 368.772 341.048 368.339 346.441C368.185 348.448 368.247 350.238 368.319 351.957C368.432 354.993 368.535 357.617 367.267 360.2C365.959 362.866 363.083 364.646 360.991 365.943C359.929 366.602 359.012 367.168 358.589 367.662C357.476 368.958 355.559 371.84 355.445 374.403C355.404 375.267 355.786 376.399 356.157 377.377L356.517 378.354ZM349.931 373.034C351.044 373.559 352.003 374.258 353.013 375.01C353.528 375.39 354.054 375.782 354.611 376.152C354.848 376.317 355.085 376.481 355.322 376.656C355.064 375.874 354.868 375.071 354.899 374.372C355.023 371.655 357.012 368.65 358.177 367.291C358.661 366.735 359.609 366.139 360.702 365.459C362.856 364.121 365.526 362.464 366.773 359.943C367.979 357.494 367.886 354.931 367.773 351.967C367.711 350.31 367.639 348.427 367.793 346.389C368.216 340.986 372.545 312.335 374.843 306.181C375.523 304.369 376.523 302.496 377.502 300.685C378.935 298.02 380.409 295.272 380.986 292.524C379.327 293.1 377.616 293.697 375.781 294.057C375.369 294.171 374.936 294.202 374.513 294.232C374.101 294.263 373.709 294.284 373.349 294.387L373.318 294.397C371.772 294.634 370.246 294.932 368.772 295.22C366.144 295.735 363.65 296.219 361.021 296.414C362.176 301.539 361.382 309.989 358.538 322.935C355.806 335.398 352.652 345.37 351.879 347.408C351.405 348.664 350.282 349.559 349.086 350.516C347.983 351.401 346.839 352.317 346.159 353.573C345.252 355.25 345.066 357.504 344.912 359.315C344.829 360.334 344.757 361.219 344.572 361.868C344.046 363.73 342.655 366.849 341.325 367.703C342.758 368.516 344.139 369.421 345.468 370.296C346.922 371.222 348.396 372.2 349.931 373.034Z" fill="#401D09"/>
<path d="M341.014 367.631C339.736 368.403 336.757 370.183 334.366 372.437C330.893 375.73 328.965 381.061 328.883 383.624C328.903 384.128 329.007 384.498 329.213 384.653C331.367 386.382 337.685 385.888 343.879 385.435C348.404 385.106 355.464 384.159 356.547 382.656C356.763 382.348 356.866 381.987 356.887 381.586C356.825 380.3 356.093 378.674 355.557 377.15C353.949 373.939 344.457 367.363 341.354 367.363C341.251 367.466 341.127 367.559 341.014 367.631Z" fill="#2D1301"/>
<path d="M355.721 376.997C355.082 375.72 352.938 373.621 350.702 371.902C351.629 374.352 353.412 378.108 351.588 380.197C348.95 383.202 337.447 385.137 329.902 384.839C332.438 386.156 338.292 385.703 344.043 385.281C348.568 384.952 355.628 384.005 356.711 382.502C356.927 382.194 357.03 381.834 357.051 381.432C356.999 380.146 356.257 378.52 355.721 376.997Z" fill="#230E00"/>
<path d="M349.744 371.284C346.631 369.061 343.178 367.198 341.529 367.198C341.405 367.311 341.292 367.404 341.168 367.476C339.89 368.248 336.912 370.028 334.52 372.282C331.047 375.575 329.12 380.906 329.037 383.469C329.037 383.541 329.047 383.613 329.047 383.675C331.851 374.34 340.014 369.226 341.746 368.783C343.487 368.351 349.022 371.202 349.744 371.284Z" fill="#441F07"/>
<path d="M335.696 386.001C332.769 386.001 330.408 385.692 329.202 384.725C328.934 384.509 328.79 384.097 328.77 383.49V383.48V383.469C328.852 380.835 330.841 375.411 334.335 372.097C336.644 369.916 339.489 368.187 340.849 367.353L341.024 367.25C341.128 367.188 341.231 367.106 341.334 367.013L341.416 366.941H341.519C344.714 366.941 354.3 373.538 355.969 376.883L355.98 376.914C356.103 377.264 356.237 377.614 356.361 377.964C356.804 379.157 357.268 380.392 357.32 381.432V381.442V381.452C357.299 381.936 357.165 382.348 356.928 382.677C355.495 384.663 345.219 385.476 344.055 385.569L343.776 385.589C340.911 385.795 338.108 386.001 335.696 386.001ZM329.316 383.469C329.336 384.077 329.501 384.252 329.543 384.293C331.583 385.929 337.757 385.476 343.735 385.034L344.013 385.013C349.383 384.622 355.568 383.613 356.475 382.358C356.65 382.111 356.743 381.812 356.763 381.442C356.712 380.495 356.268 379.312 355.835 378.159C355.702 377.819 355.578 377.459 355.454 377.109C353.877 373.991 344.704 367.631 341.612 367.487C341.509 367.579 341.396 367.652 341.292 367.724L341.117 367.826C339.767 368.65 336.953 370.348 334.696 372.499C331.326 375.699 329.409 380.927 329.316 383.469Z" fill="black"/>
<path d="M275.184 201.187C275.843 206.992 283.707 227.029 300.642 241.283C317.586 255.547 330.089 263.842 340.499 272.795C349.187 280.267 359.103 290.373 360.597 295.848C360.865 296.815 361.04 297.916 361.143 299.131C362.679 300.726 377.737 299.326 379.984 296.373C380.747 294.644 381.314 292.894 381.469 291.134C381.912 285.989 377.923 284.28 374.491 279.083C371.059 273.886 362.256 259.149 361.092 247.561C359.927 235.972 367.626 207.661 362.968 185.997C358.309 164.334 339.272 150.615 321.998 144.873C304.723 139.12 287.449 143.905 278.441 146.365L275.184 201.187Z" fill="#FEA153"/>
<path d="M322.009 144.873C304.735 139.12 287.46 143.905 278.452 146.365L278.287 148.866C287.368 146.375 305.528 140.756 322.009 144.873Z" fill="#FDC798"/>
<path d="M341.984 270.037C331.574 261.083 318.969 253.128 302.024 238.864C285.08 224.6 275.855 207.002 275.195 201.197C275.855 207.002 283.719 227.039 300.653 241.293C317.598 255.557 330.1 263.851 340.51 272.805C349.199 280.276 359.114 290.383 360.609 295.858C360.877 296.825 361.052 297.926 361.155 299.141C361.413 299.408 362.412 299.593 363.309 299.696C363.309 298.101 362.763 295.024 362.557 294.273C361.062 288.787 350.673 277.508 341.984 270.037Z" fill="#FDC798"/>
<path d="M374.493 279.093C371.061 273.896 362.259 259.159 361.094 247.571C359.929 235.982 367.629 207.671 362.97 186.007C358.322 164.334 339.274 150.625 322 144.883C337.801 152.715 350.581 165.075 355.23 186.748C359.878 208.422 349.561 231.341 352.003 247.087C354.58 263.718 364.794 274.997 369.103 280.04C373.143 284.784 376.761 287.069 376.761 291.7C376.761 293.789 375.122 296.681 373.792 298.894C376.699 298.297 379.173 297.443 379.976 296.383C380.739 294.654 381.306 292.904 381.461 291.144C381.914 285.999 377.925 284.28 374.493 279.093Z" fill="#EB873C"/>
<path d="M365.174 300.067C363.474 300.067 361.536 299.923 360.948 299.316L360.876 299.244L360.866 299.152C360.763 297.937 360.577 296.846 360.33 295.92C358.825 290.414 348.611 280.133 340.324 273.011C335.501 268.864 330.296 264.912 324.266 260.332C317.371 255.094 309.558 249.156 300.467 241.509C291.171 233.688 284.986 224.518 281.43 218.199C279.081 214.031 277.339 210.131 276.195 206.982C274.844 203.05 275.174 201.136 275.174 201.136C275.854 207.115 284.213 227.101 300.818 241.087C309.898 248.734 317.701 254.662 324.596 259.89C330.636 264.48 335.851 268.432 340.685 272.589C349.034 279.773 359.33 290.147 360.866 295.776C361.124 296.712 361.309 297.793 361.412 298.997C361.928 299.378 363.876 299.656 367.225 299.46C372.307 299.172 378.398 297.937 379.748 296.239C380.604 294.284 381.057 292.658 381.191 291.124C381.48 287.79 379.882 285.999 377.666 283.519C376.605 282.325 375.399 280.977 374.255 279.248C372.234 276.191 362.092 260.281 360.814 247.602C360.382 243.259 361.175 236.58 362.103 228.851C363.659 215.832 365.607 199.623 362.701 186.07C358.042 164.355 338.572 150.688 321.916 145.151C304.848 139.47 287.852 144.101 278.709 146.592L278.277 146.684L278.369 146.108L278.565 146.057C287.759 143.556 304.858 138.894 322.091 144.626C331.502 147.755 340.499 152.962 347.405 159.281C351.353 162.883 354.671 166.866 357.269 171.116C360.114 175.758 362.123 180.749 363.237 185.967C366.164 199.613 364.216 215.873 362.649 228.933C361.721 236.631 360.928 243.279 361.361 247.571C362.618 260.127 372.698 275.924 374.708 278.97C375.821 280.658 377.017 281.996 378.068 283.179C380.284 285.67 382.036 287.625 381.727 291.196C381.593 292.802 381.109 294.49 380.222 296.517L380.212 296.548L380.191 296.579C378.604 298.668 371.575 299.8 367.246 300.047C366.741 300.037 365.988 300.067 365.174 300.067Z" fill="#562300"/>
</g>
<defs>
<clipPath id="clip0_486_331">
<rect width="406" height="386" fill="white"/>
</clipPath>
</defs>
</svg>
