<svg width="406" height="205" viewBox="0 0 406 205" fill="none" xmlns="http://www.w3.org/2000/svg">
<g clip-path="url(#clip0_486_560)">
<path d="M367.022 8.67383H359.32V139.272H367.022V8.67383Z" fill="#2D2924"/>
<path d="M46.6997 8.67383H38.998V139.272H46.6997V8.67383Z" fill="#2D2924"/>
<path d="M387.164 18.0635H17.7109V20.0683H387.164V18.0635Z" fill="#BC7744"/>
<path d="M387.184 0H17.7715V18.0636H387.184V0Z" fill="#FFCA76"/>
<path d="M357.012 154.471H349.311V191.723H357.012V154.471Z" fill="#3F3931"/>
<path d="M357.012 154.471H349.311V165.64H357.012V154.471Z" fill="#262320"/>
<path d="M377.032 154.471H369.33V203.629H377.032V154.471Z" fill="#3F3931"/>
<path d="M377.032 154.471H369.33V169.22H377.032V154.471Z" fill="#262320"/>
<path d="M56.7094 154.471H49.0078V191.723H56.7094V154.471Z" fill="#3F3931"/>
<path d="M56.7094 154.471H49.0078V165.64H56.7094V154.471Z" fill="#262320"/>
<path d="M36.6899 154.471H28.9883V203.629H36.6899V154.471Z" fill="#3F3931"/>
<path d="M36.6899 154.471H28.9883V169.22H36.6899V154.471Z" fill="#262320"/>
<path d="M387.164 48.1357H17.7109V50.1405H387.164V48.1357Z" fill="#BC7744"/>
<path d="M387.184 30.0723H17.7715V48.1358H387.184V30.0723Z" fill="#FFCA76"/>
<path d="M387.164 78.207H17.7109V80.2118H387.164V78.207Z" fill="#BC7744"/>
<path d="M387.184 60.1436H17.7715V78.2071H387.184V60.1436Z" fill="#FFCA76"/>
<path d="M387.164 108.279H17.7109V110.284H387.164V108.279Z" fill="#BC7744"/>
<path d="M387.184 90.2158H17.7715V108.279H387.184V90.2158Z" fill="#FFCA76"/>
<path d="M405.98 153.448H0V155.453H405.98V153.448Z" fill="#BC7744"/>
<path d="M405.999 135.405H0.0605469V153.469H405.999V135.405Z" fill="#FFCA76"/>
<path d="M371.068 9.49233C371.027 10.6584 371.946 11.6403 373.111 11.6812C374.275 11.7221 375.256 10.8016 375.296 9.63553C375.337 8.46948 374.418 7.48754 373.254 7.44663C372.089 7.40571 371.109 8.32628 371.068 9.49233Z" fill="#3F3931"/>
<path d="M371.068 39.216C371.027 40.382 371.946 41.364 373.111 41.4049C374.275 41.4458 375.256 40.5252 375.296 39.3592C375.337 38.1931 374.418 37.2112 373.254 37.1703C372.089 37.1293 371.109 38.0499 371.068 39.216Z" fill="#3F3931"/>
<path d="M371.068 69.1046C371.027 70.2707 371.946 71.2526 373.111 71.2935C374.275 71.3345 375.256 70.4139 375.296 69.2478C375.337 68.0818 374.418 67.0998 373.254 67.0589C372.089 67.018 371.109 67.9386 371.068 69.1046Z" fill="#3F3931"/>
<path d="M371.068 99.4621C371.027 100.628 371.946 101.61 373.111 101.651C374.275 101.692 375.256 100.771 375.296 99.6053C375.337 98.4392 374.418 97.4573 373.254 97.4164C372.089 97.3754 371.109 98.296 371.068 99.4621Z" fill="#3F3931"/>
<path d="M30.724 9.49233C30.6831 10.6584 31.6024 11.6403 32.7668 11.6812C33.9313 11.7221 34.9119 10.8016 34.9527 9.63553C34.9936 8.46948 34.0743 7.48754 32.9098 7.44663C31.7454 7.40571 30.7648 8.32628 30.724 9.49233Z" fill="#3F3931"/>
<path d="M30.724 39.216C30.6831 40.382 31.6024 41.364 32.7668 41.4049C33.9313 41.4458 34.9119 40.5252 34.9527 39.3592C34.9936 38.1931 34.0743 37.2112 32.9098 37.1703C31.7454 37.1293 30.7648 38.0499 30.724 39.216Z" fill="#3F3931"/>
<path d="M30.724 69.1046C30.6831 70.2707 31.6024 71.2526 32.7668 71.2935C33.9313 71.3345 34.9119 70.4139 34.9527 69.2478C34.9936 68.0818 34.0743 67.0998 32.9098 67.0589C31.7454 67.018 30.7648 67.9386 30.724 69.1046Z" fill="#3F3931"/>
<path d="M30.724 99.4621C30.6831 100.628 31.6024 101.61 32.7668 101.651C33.9313 101.692 34.9119 100.771 34.9527 99.6053C34.9936 98.4392 34.0743 97.4573 32.9098 97.4164C31.7454 97.3754 30.7648 98.296 30.724 99.4621Z" fill="#3F3931"/>
<path d="M406 126.567H0V131.743H406V126.567Z" fill="#BC7744"/>
<path d="M406 126.957H0V126.834C0 126.936 14.9334 116.564 14.9334 116.564H391.087C391.087 116.564 406.02 126.936 406.02 126.834V126.957H406Z" fill="#FFCA76"/>
<path d="M15.7709 122.108C15.7301 122.803 16.5881 123.376 17.6912 123.417C18.7944 123.438 19.7341 122.906 19.775 122.21C19.8158 121.515 18.9578 120.942 17.8547 120.901C16.7311 120.881 15.8118 121.412 15.7709 122.108Z" fill="#3F3931"/>
<path d="M10.8275 144.059C10.7866 145.225 11.7059 146.207 12.8704 146.248C14.0348 146.289 15.0154 145.368 15.0562 144.202C15.0971 143.036 14.1778 142.054 13.0134 142.013C11.8489 141.972 10.8683 142.893 10.8275 144.059Z" fill="#3F3931"/>
<path d="M393.845 144.059C393.886 145.225 392.967 146.207 391.802 146.248C390.638 146.289 389.657 145.368 389.617 144.202C389.576 143.036 390.495 142.054 391.659 142.013C392.803 141.972 393.784 142.893 393.845 144.059Z" fill="#3F3931"/>
<path d="M388.902 122.108C388.943 122.803 388.085 123.376 386.982 123.417C385.878 123.438 384.939 122.906 384.898 122.21C384.857 121.515 385.715 120.942 386.818 120.901C387.921 120.881 388.861 121.412 388.902 122.108Z" fill="#3F3931"/>
<path d="M26.5782 202.238H39.0806C40.6127 202.238 41.8384 203.466 41.8384 205H23.8203C23.8203 203.486 25.0665 202.238 26.5782 202.238Z" fill="#262320"/>
<path d="M46.5977 191.724H59.1001C60.6322 191.724 61.858 192.951 61.858 194.485H43.8398C43.8398 192.951 45.086 191.724 46.5977 191.724Z" fill="#262320"/>
<path d="M346.9 191.724H359.403C360.935 191.724 362.161 192.951 362.161 194.485H344.143C344.143 192.951 345.389 191.724 346.9 191.724Z" fill="#262320"/>
<path d="M366.92 202.238H379.422C380.955 202.238 382.18 203.466 382.18 205H364.162C364.162 203.486 365.408 202.238 366.92 202.238Z" fill="#262320"/>
</g>
<defs>
<clipPath id="clip0_486_560">
<rect width="406" height="205" fill="white"/>
</clipPath>
</defs>
</svg>
