<svg width="429" height="132" viewBox="0 0 429 132" fill="none" xmlns="http://www.w3.org/2000/svg">
<g clip-path="url(#clip0_489_1971)">
<path d="M236.888 13.4279C228.308 15.7107 222.811 16.6507 219.46 16.9192C217.985 16.9192 216.108 17.0535 214.634 17.0535C213.159 17.0535 211.148 17.0535 209.807 16.9192C206.456 16.6507 200.959 15.845 192.379 13.4279C192.379 13.4279 107.115 -12.623 0.267578 7.9223L6.30039 34.376C6.30039 34.376 16.4891 33.0332 19.5726 43.373C19.5726 43.373 28.5548 84.7321 37.0007 103.129C37.0007 103.129 44.6423 120.988 69.846 128.24C69.846 128.24 116.634 140.594 153.769 120.988C153.769 120.988 170.393 116.691 190.904 72.378L201.093 48.8786C201.093 48.8786 202.702 41.0902 213.561 40.0159C213.695 40.0159 214.231 40.0159 215.036 40.0159C215.706 40.0159 216.376 40.0159 216.51 40.0159C227.369 41.0902 228.844 48.8786 228.844 48.8786L239.033 72.378C259.41 116.691 276.034 120.988 276.034 120.988C313.169 140.594 359.957 128.24 359.957 128.24C385.161 120.988 392.803 103.129 392.803 103.129C401.383 84.7321 410.231 43.373 410.231 43.373C413.18 33.1675 423.503 34.376 423.503 34.376L428.999 7.9223C322.018 -12.623 236.888 13.4279 236.888 13.4279ZM179.777 45.3872C177.632 63.7839 172.27 84.8663 160.606 99.6375C147.87 115.751 128.297 119.78 108.724 120.72C91.5641 121.526 71.3207 120.451 56.976 109.843C42.0951 98.6975 28.5548 39.8816 42.8995 23.7677C49.3345 16.5164 58.0485 14.2336 67.4329 13.025C84.4588 10.8765 104.434 9.66798 121.594 11.2794C176.426 16.3821 181.52 30.4818 179.777 45.3872ZM372.023 109.843C357.678 120.451 337.435 121.526 320.275 120.72C300.702 119.78 281.129 115.751 268.393 99.6375C256.729 84.8663 251.367 63.7839 249.222 45.3872C247.613 30.4818 252.573 16.3821 307.539 11.2794C324.699 9.66798 344.674 11.0108 361.7 13.025C370.95 14.0993 379.664 16.5164 386.234 23.7677C400.444 39.8816 386.904 98.6975 372.023 109.843Z" fill="black"/>
</g>
<defs>
<clipPath id="clip0_489_1971">
<rect width="429" height="132" fill="white"/>
</clipPath>
</defs>
</svg>
