<svg width="213" height="303" viewBox="0 0 213 303" fill="none" xmlns="http://www.w3.org/2000/svg">
<g clip-path="url(#clip0_489_1973)">
<path d="M32.6541 4.93631C32.6541 2.21551 31.6776 0 30.4667 0C29.2558 0 28.2793 2.21551 28.2793 4.93631C28.2793 7.65711 29.2558 9.87262 30.4667 9.87262C31.6581 9.87262 32.6541 7.65711 32.6541 4.93631Z" fill="#5D7D9C"/>
<path d="M31.58 7.11287C31.58 5.88851 31.0722 4.87793 30.4472 4.87793C29.8222 4.87793 29.3145 5.86908 29.3145 7.11287C29.3145 8.33723 29.8222 9.34782 30.4472 9.34782C31.0722 9.34782 31.58 8.33723 31.58 7.11287Z" fill="#90B8E3"/>
<path d="M40.9354 4.93631C40.9354 2.21551 39.9589 0 38.748 0C37.5371 0 36.5605 2.21551 36.5605 4.93631C36.5605 7.65711 37.5371 9.87262 38.748 9.87262C39.9589 9.87262 40.9354 7.65711 40.9354 4.93631Z" fill="#5D7D9C"/>
<path d="M39.8808 7.11287C39.8808 5.88851 39.373 4.87793 38.748 4.87793C38.123 4.87793 37.6152 5.86908 37.6152 7.11287C37.6152 8.33723 38.123 9.34782 38.748 9.34782C39.373 9.34782 39.8808 8.33723 39.8808 7.11287Z" fill="#90B8E3"/>
<path d="M49.2362 4.93631C49.2362 2.21551 48.2596 0 47.0487 0C45.8379 0 44.8613 2.21551 44.8613 4.93631C44.8613 7.65711 45.8379 9.87262 47.0487 9.87262C48.2596 9.87262 49.2362 7.65711 49.2362 4.93631Z" fill="#5D7D9C"/>
<path d="M48.1816 7.11287C48.1816 5.88851 47.6738 4.87793 47.0488 4.87793C46.4238 4.87793 45.916 5.86908 45.916 7.11287C45.916 8.33723 46.4238 9.34782 47.0488 9.34782C47.6738 9.34782 48.1816 8.33723 48.1816 7.11287Z" fill="#90B8E3"/>
<path d="M57.5369 4.93631C57.5369 2.21551 56.5604 0 55.3495 0C54.1386 0 53.1621 2.21551 53.1621 4.93631C53.1621 7.65711 54.1386 9.87262 55.3495 9.87262C56.5604 9.87262 57.5369 7.65711 57.5369 4.93631Z" fill="#5D7D9C"/>
<path d="M56.4823 7.11287C56.4823 5.88851 55.9745 4.87793 55.3496 4.87793C54.7246 4.87793 54.2168 5.86908 54.2168 7.11287C54.2168 8.33723 54.7246 9.34782 55.3496 9.34782C55.9745 9.34782 56.4823 8.33723 56.4823 7.11287Z" fill="#90B8E3"/>
<path d="M65.8377 4.93631C65.8377 2.21551 64.8612 0 63.6503 0C62.4394 0 61.4629 2.21551 61.4629 4.93631C61.4629 7.65711 62.4394 9.87262 63.6503 9.87262C64.8612 9.87262 65.8377 7.65711 65.8377 4.93631Z" fill="#5D7D9C"/>
<path d="M64.7831 7.11287C64.7831 5.88851 64.2753 4.87793 63.6503 4.87793C63.0254 4.87793 62.5176 5.86908 62.5176 7.11287C62.5176 8.33723 63.0254 9.34782 63.6503 9.34782C64.2753 9.34782 64.7831 8.33723 64.7831 7.11287Z" fill="#90B8E3"/>
<path d="M74.1385 4.93631C74.1385 2.21551 73.162 0 71.9511 0C70.7402 0 69.7637 2.21551 69.7637 4.93631C69.7637 7.65711 70.7402 9.87262 71.9511 9.87262C73.162 9.87262 74.1385 7.65711 74.1385 4.93631Z" fill="#5D7D9C"/>
<path d="M73.0839 7.11287C73.0839 5.88851 72.5761 4.87793 71.9511 4.87793C71.3262 4.87793 70.8184 5.86908 70.8184 7.11287C70.8184 8.33723 71.3262 9.34782 71.9511 9.34782C72.5761 9.34782 73.0839 8.33723 73.0839 7.11287Z" fill="#90B8E3"/>
<path d="M141.556 4.93631C141.556 2.21551 140.58 0 139.369 0C138.158 0 137.182 2.21551 137.182 4.93631C137.182 7.65711 138.158 9.87262 139.369 9.87262C140.58 9.87262 141.556 7.65711 141.556 4.93631Z" fill="#5D7D9C"/>
<path d="M140.482 7.11287C140.482 5.88851 139.975 4.87793 139.35 4.87793C138.725 4.87793 138.217 5.86908 138.217 7.11287C138.217 8.33723 138.725 9.34782 139.35 9.34782C139.975 9.34782 140.482 8.33723 140.482 7.11287Z" fill="#90B8E3"/>
<path d="M149.857 4.93631C149.857 2.21551 148.881 0 147.67 0C146.459 0 145.482 2.21551 145.482 4.93631C145.482 7.65711 146.459 9.87262 147.67 9.87262C148.861 9.87262 149.857 7.65711 149.857 4.93631Z" fill="#5D7D9C"/>
<path d="M148.783 7.11287C148.783 5.88851 148.275 4.87793 147.65 4.87793C147.025 4.87793 146.518 5.86908 146.518 7.11287C146.518 8.33723 147.025 9.34782 147.65 9.34782C148.275 9.34782 148.783 8.33723 148.783 7.11287Z" fill="#90B8E3"/>
<path d="M158.158 4.93631C158.158 2.21551 157.182 0 155.971 0C154.76 0 153.783 2.21551 153.783 4.93631C153.783 7.65711 154.76 9.87262 155.971 9.87262C157.182 9.87262 158.158 7.65711 158.158 4.93631Z" fill="#5D7D9C"/>
<path d="M157.084 7.11287C157.084 5.88851 156.576 4.87793 155.951 4.87793C155.326 4.87793 154.818 5.86908 154.818 7.11287C154.818 8.33723 155.326 9.34782 155.951 9.34782C156.576 9.34782 157.084 8.33723 157.084 7.11287Z" fill="#90B8E3"/>
<path d="M166.459 4.93631C166.459 2.21551 165.482 0 164.271 0C163.061 0 162.084 2.21551 162.084 4.93631C162.084 7.65711 163.061 9.87262 164.271 9.87262C165.463 9.87262 166.459 7.65711 166.459 4.93631Z" fill="#5D7D9C"/>
<path d="M165.385 7.11287C165.385 5.88851 164.877 4.87793 164.252 4.87793C163.627 4.87793 163.119 5.86908 163.119 7.11287C163.119 8.33723 163.627 9.34782 164.252 9.34782C164.877 9.34782 165.385 8.33723 165.385 7.11287Z" fill="#90B8E3"/>
<path d="M174.76 4.93631C174.76 2.21551 173.783 0 172.572 0C171.361 0 170.385 2.21551 170.385 4.93631C170.385 7.65711 171.361 9.87262 172.572 9.87262C173.764 9.87262 174.76 7.65711 174.76 4.93631Z" fill="#5D7D9C"/>
<path d="M173.685 7.11287C173.685 5.88851 173.178 4.87793 172.553 4.87793C171.928 4.87793 171.42 5.86908 171.42 7.11287C171.42 8.33723 171.928 9.34782 172.553 9.34782C173.178 9.34782 173.685 8.33723 173.685 7.11287Z" fill="#90B8E3"/>
<path d="M183.06 4.93631C183.06 2.21551 182.084 0 180.873 0C179.662 0 178.686 2.21551 178.686 4.93631C178.686 7.65711 179.662 9.87262 180.873 9.87262C182.064 9.87262 183.06 7.65711 183.06 4.93631Z" fill="#5D7D9C"/>
<path d="M181.986 7.11287C181.986 5.88851 181.478 4.87793 180.853 4.87793C180.228 4.87793 179.721 5.86908 179.721 7.11287C179.721 8.33723 180.228 9.34782 180.853 9.34782C181.478 9.34782 181.986 8.33723 181.986 7.11287Z" fill="#90B8E3"/>
<path d="M37.1869 303H22.1484L19.8047 283.41H39.4915L37.1869 303Z" fill="#25292A"/>
<path d="M190.775 303H175.756L173.393 283.41H193.079L190.775 303Z" fill="#25292A"/>
<path d="M212.883 13.1956V272.76H0V13.0596" fill="#D9D9D9"/>
<path d="M106.441 13.1182V272.76H212.883V13.1959L106.441 13.1182Z" fill="#C5C5C5"/>
<path d="M212.883 241.627H0V246.68H212.883V241.627Z" fill="#3F4345"/>
<path d="M213 239.178H0V241.704H213V239.178Z" fill="#62696B"/>
<path d="M212.824 55.3486H0V60.4015H212.824V55.3486Z" fill="#3F4345"/>
<path d="M212.941 52.9004H0V55.4268H212.941V52.9004Z" fill="#62696B"/>
<path d="M46.0131 33.0388C46.0131 28.3551 42.2046 24.5654 37.4977 24.5654C32.7909 24.5654 28.9824 28.3551 28.9824 33.0388C28.9824 37.7224 32.7909 41.5121 37.4977 41.5121C42.1851 41.5121 46.0131 37.703 46.0131 33.0388Z" fill="#27292A"/>
<path d="M43.7865 33.0388C43.7865 28.3551 39.978 24.5654 35.2712 24.5654C30.5643 24.5654 26.7559 28.3551 26.7559 33.0388C26.7559 37.7224 30.5643 41.5121 35.2712 41.5121C39.978 41.5121 43.7865 37.703 43.7865 33.0388Z" fill="#3F4345"/>
<path d="M37.7909 27.2471H33.8457V38.8299H37.7909V27.2471Z" fill="#27292A"/>
<path d="M36.6776 27.2471H33.8457V38.8299H36.6776V27.2471Z" fill="#778083"/>
<path d="M89.5091 33.0388C89.5091 28.3551 85.7007 24.5654 80.9938 24.5654C76.287 24.5654 72.4785 28.3551 72.4785 33.0388C72.4785 37.7224 76.287 41.5121 80.9938 41.5121C85.7007 41.5121 89.5091 37.703 89.5091 33.0388Z" fill="#3F4345"/>
<path d="M83.1034 27.2471H79.1582V38.8299H83.1034V27.2471Z" fill="#27292A"/>
<path d="M81.9901 27.2471H79.1582V38.8299H81.9901V27.2471Z" fill="#778083"/>
<path d="M135.23 33.0388C135.23 28.3551 131.421 24.5654 126.715 24.5654C122.008 24.5654 118.199 28.3551 118.199 33.0388C118.199 37.7224 122.008 41.5121 126.715 41.5121C131.421 41.5121 135.23 37.703 135.23 33.0388Z" fill="#3F4345"/>
<path d="M128.629 27.2471H124.684V38.8299H128.629V27.2471Z" fill="#27292A"/>
<path d="M127.516 27.2471H124.684V38.8299H127.516V27.2471Z" fill="#778083"/>
<path d="M164.057 33.0388C164.057 28.3551 167.865 24.5654 172.572 24.5654C177.279 24.5654 181.087 28.3551 181.087 33.0388C181.087 37.7224 177.279 41.5121 172.572 41.5121C167.865 41.5121 164.057 37.703 164.057 33.0388Z" fill="#27292A"/>
<path d="M166.283 33.0388C166.283 28.3551 170.092 24.5654 174.799 24.5654C179.505 24.5654 183.314 28.3551 183.314 33.0388C183.314 37.7224 179.505 41.5121 174.799 41.5121C170.092 41.5121 166.283 37.703 166.283 33.0388Z" fill="#3F4345"/>
<path d="M176.224 27.2471H172.279V38.8299H176.224V27.2471Z" fill="#27292A"/>
<path d="M176.205 27.2471H173.373V38.8299H176.205V27.2471Z" fill="#778083"/>
<path d="M0 272.76H212.883C212.883 280.533 206.535 286.85 198.723 286.85H14.1596C6.34742 286.85 0 280.533 0 272.76Z" fill="#3F4345"/>
<path d="M77.9667 13.1183H22.8125C22.8125 10.3392 25.078 8.06543 27.8904 8.06543H72.8888C75.7012 8.08486 77.9667 10.3392 77.9667 13.1183Z" fill="#3F4345"/>
<path d="M187.65 13.1183H132.516C132.516 10.3392 134.781 8.06543 137.594 8.06543H182.592C185.385 8.08486 187.65 10.3392 187.65 13.1183Z" fill="#3F4345"/>
<path d="M19.121 20.5417C19.121 19.8615 18.5741 19.3174 17.8906 19.3174C17.207 19.3174 16.6602 19.8615 16.6602 20.5417C16.6602 21.2219 17.207 21.7661 17.8906 21.7661C18.5741 21.7661 19.121 21.2219 19.121 20.5417Z" fill="#3F4345"/>
<path d="M17.5976 20.7559C17.8673 20.7559 18.0859 20.5384 18.0859 20.27C18.0859 20.0017 17.8673 19.7842 17.5976 19.7842C17.328 19.7842 17.1094 20.0017 17.1094 20.27C17.1094 20.5384 17.328 20.7559 17.5976 20.7559Z" fill="#778083"/>
<path d="M67.1269 20.5417C67.1269 19.8615 66.58 19.3174 65.8964 19.3174C65.2129 19.3174 64.666 19.8615 64.666 20.5417C64.666 21.2219 65.2129 21.7661 65.8964 21.7661C66.58 21.7661 67.1269 21.2219 67.1269 20.5417Z" fill="#3F4345"/>
<path d="M66.0918 20.27C66.0918 19.998 65.8769 19.7842 65.6035 19.7842C65.3301 19.7842 65.1152 19.998 65.1152 20.27C65.1152 20.5421 65.3301 20.7559 65.6035 20.7559C65.8769 20.7559 66.0918 20.5421 66.0918 20.27Z" fill="#778083"/>
<path d="M144.076 20.5417C144.076 19.8615 143.529 19.3174 142.846 19.3174C142.162 19.3174 141.615 19.8615 141.615 20.5417C141.615 21.2219 142.162 21.7661 142.846 21.7661C143.51 21.7661 144.076 21.2219 144.076 20.5417Z" fill="#3F4345"/>
<path d="M143.021 20.27C143.021 19.998 142.807 19.7842 142.533 19.7842C142.26 19.7842 142.045 19.998 142.045 20.27C142.045 20.5421 142.26 20.7559 142.533 20.7559C142.807 20.7559 143.021 20.5421 143.021 20.27Z" fill="#778083"/>
<path d="M192.394 20.5417C192.394 19.8615 191.848 19.3174 191.164 19.3174C190.48 19.3174 189.934 19.8615 189.934 20.5417C189.934 21.2219 190.48 21.7661 191.164 21.7661C191.848 21.7661 192.394 21.2219 192.394 20.5417Z" fill="#3F4345"/>
<path d="M191.359 20.27C191.359 19.998 191.145 19.7842 190.871 19.7842C190.598 19.7842 190.383 19.998 190.383 20.27C190.383 20.5421 190.598 20.7559 190.871 20.7559C191.145 20.7559 191.359 20.5421 191.359 20.27Z" fill="#778083"/>
<path d="M175.6 219.84H34.7066C28.7498 219.84 23.9258 215.04 23.9258 209.113V114.021C23.9258 108.093 28.7498 103.293 34.7066 103.293H175.6C181.557 103.293 186.381 108.093 186.381 114.021V209.113C186.381 215.04 181.557 219.84 175.6 219.84Z" fill="#62696B"/>
<path d="M177.923 103.293H106.441V219.86H177.923C183.88 219.86 188.704 215.06 188.704 209.132V114.021C188.704 108.093 183.88 103.293 177.923 103.293Z" fill="#3F4345"/>
<path d="M183.178 85.8414H29.7069C27.0312 85.8414 24.8438 83.6842 24.8438 81.0022C24.8438 78.3397 27.0116 76.1631 29.7069 76.1631H183.158C185.834 76.1631 188.021 78.3203 188.021 81.0022C188.021 83.6647 185.853 85.8414 183.178 85.8414Z" fill="#62696B"/>
<path d="M188.021 81.0996C188.021 83.7621 185.853 85.9388 183.158 85.9388H29.7069C27.0312 85.9388 24.8438 83.7815 24.8438 81.0996" fill="#3F4345"/>
<path d="M172.61 212.398V211.912H39.8219C37.615 211.912 35.6229 211.018 34.1776 209.58C32.7324 208.142 31.8535 206.159 31.8339 203.963V118.977C31.8339 116.781 32.7324 114.799 34.1776 113.361C35.6229 111.922 37.615 111.048 39.8219 111.028H172.61C174.817 111.028 176.809 111.922 178.235 113.361C179.68 114.799 180.559 116.781 180.559 118.977V203.983C180.559 206.179 179.661 208.161 178.235 209.599C176.79 211.037 174.797 211.912 172.61 211.931V212.398V212.884C177.551 212.884 181.555 208.9 181.555 203.983V118.977C181.555 114.06 177.551 110.076 172.61 110.076H39.8219C34.8807 110.076 30.877 114.06 30.877 118.977V203.983C30.877 208.9 34.8807 212.884 39.8219 212.884H172.61V212.398Z" fill="#2D2F30"/>
</g>
<defs>
<clipPath id="clip0_489_1973">
<rect width="213" height="303" fill="white"/>
</clipPath>
</defs>
</svg>
