<svg width="492" height="330" viewBox="0 0 492 330" fill="none" xmlns="http://www.w3.org/2000/svg">
<g clip-path="url(#clip0_489_2037)">
<path d="M397.941 180.151C397.941 181.163 397.941 182.142 397.907 183.154C397.907 183.525 397.873 183.93 397.873 184.301C397.806 186.056 397.636 187.777 397.434 189.498C397.298 190.51 397.129 191.488 396.926 192.467C391.044 190.476 385.059 188.755 378.94 187.574C378.872 187.574 378.804 187.54 378.703 187.54C377.384 187.304 376.066 187.102 374.781 187.001C374.68 188.047 374.612 189.093 374.544 190.172C374.139 196.145 374.071 202.151 373.767 208.123C373.293 217.909 372.854 227.694 372.414 237.445C371.975 247.231 371.501 257.016 371.096 266.767C370.758 275.068 371.062 283.807 368.864 291.872C366.937 298.991 362.339 304.593 355.273 307.022C348.545 309.35 341.208 309.148 334.209 308.473C333.77 308.439 333.33 308.406 332.924 308.338C328.293 307.866 323.694 307.258 319.096 306.55C317.102 306.246 315.141 305.942 313.146 305.571C312.03 305.369 310.914 305.2 309.799 304.998C309.021 304.863 308.277 304.728 307.5 304.593C305.167 304.154 302.868 303.682 300.535 303.175C299.588 302.973 298.675 302.737 297.729 302.534C296.376 302.197 295.058 301.859 293.705 301.488C290.865 300.712 288.059 299.835 285.287 298.823C285.253 298.823 285.219 298.789 285.185 298.789C284.171 298.418 283.156 298.047 282.176 297.642C279.945 296.731 277.747 295.752 275.617 294.672C271.086 292.378 266.793 289.712 262.668 286.709C255.703 281.614 249.076 276.047 241.232 272.335C234.268 269.062 226.897 267.139 219.391 266.059C218.783 263.967 218.106 261.909 217.464 259.817C216.653 257.32 215.807 254.789 214.996 252.292C214.252 250.133 213.542 247.973 212.798 245.847C212.967 245.813 213.17 245.814 213.339 245.78C214.489 245.679 215.672 245.544 216.822 245.442C221.521 244.97 226.255 244.531 230.92 243.688C232.408 243.418 232.07 240.988 230.548 241.056C225.578 241.292 220.642 241.967 215.706 242.507C215.537 242.54 215.334 242.54 215.131 242.574C214.015 242.709 212.9 242.81 211.784 242.945C210.635 243.08 209.451 243.182 208.302 243.317C206.78 243.485 205.259 243.62 203.737 243.789C202.689 243.89 201.675 243.991 200.627 244.093C200.221 244.126 199.815 244.16 199.41 244.228C197.787 244.396 196.164 244.531 194.541 244.7C193.527 244.801 192.479 244.902 191.464 244.97C189.909 245.105 188.354 245.24 186.832 245.375C185.007 245.544 183.181 245.679 181.355 245.847C180.037 245.948 178.684 246.083 177.366 246.185C175.405 246.353 173.444 246.488 171.483 246.657C170.57 246.725 169.623 246.792 168.71 246.859C168.643 246.859 168.609 246.859 168.541 246.859C166.208 247.028 163.842 247.163 161.475 247.366C160.968 247.399 160.495 247.433 159.987 247.501C157.553 247.737 155.119 248.074 152.752 248.547C152.448 248.614 152.144 248.682 151.839 248.749C151.603 248.817 151.366 248.85 151.129 248.918C150.521 249.087 150.724 249.896 151.265 249.964C151.4 249.998 151.535 249.998 151.67 249.998C152.042 250.031 152.38 250.065 152.752 250.099C155.288 250.301 157.857 250.301 160.427 250.2C160.562 251.01 160.765 251.82 160.968 252.629C161.847 256.172 163.03 259.682 164.383 263.09C164.518 263.461 164.687 263.798 164.822 264.169C164.349 264.136 163.909 264.102 163.436 264.068C162.219 264.001 160.968 263.899 159.751 263.764C159.379 263.731 158.973 263.697 158.601 263.663C157.587 263.562 156.606 263.427 155.626 263.292C154.713 263.157 153.8 263.022 152.887 262.853C152.211 262.752 151.569 262.617 150.893 262.482C148.796 262.044 146.734 261.504 144.705 260.795C140.648 259.412 137.267 257.151 134.495 253.878C131.858 250.774 129.761 247.231 127.26 243.991C122.695 238.087 117.218 232.924 111.065 228.672C103.288 223.274 94.7008 219.494 85.6735 217.335C84.5916 217.065 83.5097 216.829 82.4278 216.626C77.3225 215.648 72.1158 215.142 66.8077 215.142C57.2057 215.142 47.6713 216.289 38.1032 216.593C33.7755 216.728 29.245 216.93 24.985 216.154C21.7392 215.58 17.5468 213.994 17.0059 210.249C16.9044 209.507 16.9382 208.663 17.1411 207.853C35.1279 209.54 53.6219 208.022 70.662 202.353C71.1015 202.218 70.9325 201.544 70.4591 201.645C59.099 204.243 47.6037 206.2 35.9393 206.537C30.7664 206.672 25.5935 206.605 20.4545 206.234C19.6092 206.166 18.7302 206.099 17.8849 206.031C17.344 205.998 16.803 205.93 16.262 205.863C12.0358 205.458 7.8096 204.85 3.61719 204.074C19.5078 195.2 38.4075 196.111 55.5828 191.083C66.6724 187.844 77.1873 182.58 86.485 175.697C87.0597 175.258 87.6345 174.853 88.1755 174.415C91.9283 171.513 95.4784 168.341 98.7241 164.933C104.776 158.657 109.848 151.571 114.074 143.945C118.604 135.813 122.256 127.277 126.347 118.942C130.438 110.574 134.968 102.307 141.02 95.1877C143.454 92.3534 146.058 89.7215 148.864 87.2583C152.786 83.8166 157.046 80.7123 161.475 77.9454C161.712 77.8104 161.948 77.6417 162.151 77.5067C162.895 77.0344 163.639 76.5957 164.383 76.1571C167.324 74.4025 170.299 72.7828 173.342 71.2307C175.675 70.0497 178.042 68.9025 180.409 67.8227C181.051 67.519 181.693 67.2491 182.336 66.9454C186.19 65.1908 190.146 63.5712 194.068 61.9853C194.203 61.9178 194.338 61.884 194.473 61.8166C195.082 61.5804 195.724 61.3104 196.333 61.0742C201.844 58.9147 207.423 56.8902 212.934 54.8656C213.677 54.5957 214.455 54.3258 215.199 54.0221C215.436 53.9546 215.638 53.8534 215.841 53.7859C220.236 52.2 224.666 50.6479 229.095 49.1294C229.365 49.0282 229.602 48.9607 229.872 48.8595C230.548 48.6233 231.225 48.3871 231.901 48.1847C237.479 46.3288 243.058 44.5068 248.671 42.7859C249.211 42.6172 249.752 42.4485 250.327 42.2798C255.872 40.5926 261.451 39.0067 267.029 37.4883C267.638 37.3196 268.28 37.1509 268.889 36.9822C271.763 36.2061 274.636 35.4638 277.544 34.7215C278.119 34.5865 278.694 34.4178 279.268 34.2828C283.055 33.338 286.876 32.3933 290.696 31.516C291.406 31.3472 292.082 31.1785 292.792 31.0098C297.83 29.8288 302.868 28.7153 307.939 27.6693C308.074 27.6356 308.243 27.6018 308.379 27.5681C308.953 27.4331 309.528 27.3319 310.103 27.2307C315.039 26.2184 320.009 25.3074 324.979 24.4975C325.791 24.3626 326.602 24.2276 327.447 24.0926C330.355 23.6202 333.263 23.1816 336.17 22.8104C337.016 22.7092 337.861 22.5742 338.74 22.473C339.517 22.3718 340.295 22.2706 341.073 22.1693C343.203 21.8994 345.333 21.6632 347.463 21.3933C348.173 21.3258 348.883 21.2245 349.593 21.1571C353.379 20.7521 357.2 20.381 361.02 20.1785C361.629 20.1448 362.271 20.111 362.88 20.0773C365.754 19.9761 368.628 19.9423 371.502 20.0773C372.212 20.111 372.922 20.1448 373.632 20.2123C374.443 20.2798 375.221 20.381 375.998 20.4822C378.771 20.8871 381.442 21.5957 383.943 22.6755C384.484 22.9117 384.992 23.1816 385.533 23.4515C387.527 24.5313 389.353 25.881 390.908 27.6018C391.382 28.1417 391.855 28.6816 392.261 29.289C392.768 29.9975 393.241 30.7399 393.681 31.5834C394.391 32.8994 394.932 34.2828 395.405 35.7C395.642 36.4761 395.878 37.2184 396.047 37.9945C396.724 40.7613 397.028 43.6294 397.129 46.4975C397.163 47.3411 397.197 48.2184 397.197 49.062C397.197 51.4914 397.095 53.9209 396.994 56.2828C396.96 56.789 396.926 57.2613 396.926 57.7675C396.893 58.4761 396.859 59.2184 396.791 59.927C396.622 62.8626 396.419 65.7982 396.183 68.7C396.115 69.4761 396.081 70.2184 396.014 70.9945C395.777 73.9301 395.506 76.8319 395.236 79.7675C395.168 80.4761 395.101 81.1509 395.033 81.8595C394.796 84.019 394.56 86.1785 394.323 88.3043C394.222 89.2153 394.12 90.1601 393.985 91.0712C393.917 91.6785 393.85 92.2522 393.782 92.8595C393.376 96.2337 392.903 99.608 392.43 102.982C392.328 103.758 392.193 104.534 392.092 105.31C391.686 107.942 391.28 110.608 390.841 113.24C390.739 113.813 390.638 114.387 390.57 114.961C389.657 120.427 388.643 125.893 387.527 131.326C387.155 133.08 386.817 134.835 386.445 136.59C385.363 141.718 384.18 146.813 382.963 151.875C382.895 152.111 382.862 152.313 382.794 152.55C382.625 153.292 382.422 154.068 382.253 154.81C383.436 154.136 384.62 153.427 385.837 152.718C387.054 152.01 388.271 151.267 389.488 150.593C390.875 149.817 392.261 149.007 393.647 148.231C394.188 150.289 394.729 152.347 395.202 154.406C395.371 155.148 395.54 155.89 395.676 156.599C395.709 156.801 395.777 157.037 395.811 157.24C395.946 157.881 396.047 158.522 396.183 159.163C396.352 160.142 396.521 161.12 396.69 162.099C396.69 162.166 396.724 162.234 396.724 162.267C396.893 163.246 397.028 164.191 397.163 165.169C397.197 165.473 397.231 165.777 397.298 166.08C397.434 167.126 397.569 168.206 397.67 169.286C397.772 170.163 397.839 171.007 397.907 171.884C397.941 172.424 397.975 172.93 398.008 173.47C398.042 173.807 398.042 174.111 398.076 174.448C397.839 176.439 397.941 178.295 397.941 180.151Z" fill="url(#paint0_linear_489_2037)"/>
<path d="M339.789 248.277C343.948 246.691 346.078 242.203 347.633 238.019C354.057 220.675 356.593 202.218 358.824 183.862C360.548 169.657 362.104 155.418 363.49 141.145C363.929 136.454 364.369 131.629 363.084 127.074C362.205 123.936 360.514 121.102 358.858 118.301C357.674 116.31 356.356 114.185 354.26 113.273C345.334 109.393 348.58 125.421 348.749 128.896C349.188 138.479 349.222 148.062 348.952 157.611C348.377 177.013 346.483 196.347 344.117 215.614C342.731 226.546 341.243 237.411 339.789 248.277Z" fill="url(#paint1_linear_489_2037)"/>
<path opacity="0.23" d="M135.441 125.86C128.882 135.712 123.608 146.409 116.508 155.857C108.292 166.755 97.6755 175.798 85.6055 182.176C82.664 183.728 79.0464 186.461 80.2973 189.565C80.6692 190.51 81.4807 191.252 82.2921 191.893C97.4727 204.378 118.232 206.841 137.47 210.924C152.819 214.163 167.932 218.786 183.485 220.743C217.633 225.062 251.983 216.492 285.049 207.01C293.84 204.479 302.732 201.847 310.643 197.292C321.463 191.084 330.016 181.67 337.928 172.087C349.964 157.544 361.121 142.09 368.695 124.814C376.234 107.538 379.987 88.237 376.742 69.645C375.457 62.3566 372.921 54.8996 367.309 50.0407C361.831 45.3168 354.359 43.7646 347.158 42.921C313.652 39.0069 280.147 46.5315 248.501 57.1266C221.419 66.2033 191.362 74.9088 168.068 91.8812C155.355 101.194 144.198 112.734 135.441 125.86Z" fill="white"/>
<path opacity="0.25" d="M119.483 173.537C118.908 170.804 117.792 167.564 115.392 165.844C112.349 163.684 107.345 164.426 104.336 166.08C103.897 166.316 103.288 166.586 102.882 166.923C102.916 166.89 102.916 166.822 102.984 166.721C102.274 167.058 101.733 168.172 101.259 168.779C100.719 169.488 100.211 170.196 99.738 170.939C98.7576 172.491 98.3857 174.245 98.0476 176C97.1009 180.589 97.5066 186.19 101.158 189.598C105.08 193.276 112.248 193.614 116.305 189.868C120.497 185.954 120.565 178.733 119.483 173.537Z" fill="#420000"/>
<path d="M112.621 163.617C109.882 162.841 106.94 163.347 104.371 165.068C101.869 166.755 99.9757 169.353 99.1304 172.457C97.3047 178.902 100.415 185.448 106.028 187.034C106.873 187.27 107.718 187.371 108.53 187.371C110.93 187.371 113.297 186.46 115.258 184.841C117.219 183.221 118.74 180.927 119.518 178.194C121.343 171.715 118.267 165.203 112.621 163.617ZM117.692 177.654C116.171 183.086 111.167 186.46 106.569 185.178C101.97 183.896 99.4685 178.396 100.99 172.964C101.734 170.298 103.323 168.071 105.453 166.62C106.907 165.641 108.53 165.135 110.085 165.135C110.761 165.135 111.437 165.237 112.113 165.405C116.712 166.755 119.213 172.221 117.692 177.654Z" fill="#282828"/>
<path d="M118.064 175.731C117.997 176.372 117.862 177.013 117.692 177.654C116.171 183.087 111.167 186.461 106.569 185.179C101.971 183.896 99.469 178.396 100.99 172.964C101.092 172.627 101.193 172.289 101.329 171.985C101.498 171.547 101.7 171.108 101.903 170.669C102.749 169.016 103.966 167.633 105.453 166.62C106.907 165.642 108.53 165.136 110.085 165.136C110.761 165.136 111.438 165.237 112.08 165.406C115.36 166.317 117.557 169.354 118.031 172.998C118.166 173.909 118.166 174.82 118.064 175.731Z" fill="url(#paint2_radial_489_2037)"/>
<path d="M110.728 170.534C109.511 170.197 108.26 170.433 107.11 171.176C106.028 171.884 105.217 173.031 104.845 174.381C104.067 177.182 105.42 180.016 107.854 180.725C108.226 180.826 108.598 180.86 108.97 180.86C111.066 180.86 113.061 179.274 113.737 176.878C114.548 174.044 113.196 171.209 110.728 170.534Z" fill="black"/>
<path d="M115.19 174.684C114.852 175.933 113.668 176.709 112.586 176.405C111.504 176.102 110.896 174.819 111.268 173.571C111.606 172.322 112.789 171.546 113.871 171.85C114.953 172.154 115.528 173.436 115.19 174.684Z" fill="white"/>
<path opacity="0.27" d="M118.062 175.731C117.995 176.372 117.86 177.013 117.691 177.654C116.169 183.087 111.165 186.461 106.567 185.179C101.969 183.896 99.467 178.396 100.988 172.964C101.09 172.626 101.191 172.289 101.327 171.985C101.09 173.268 100.988 174.516 101.124 175.866C101.36 178.059 102.206 180.218 103.727 181.838C105.248 183.424 107.48 184.403 109.711 184.2C112.247 183.964 114.479 182.243 115.932 180.151C116.845 178.801 117.488 177.283 118.062 175.731Z" fill="#1C1E21"/>
<path opacity="0.35" d="M118.063 173.031C117.522 171.782 116.948 170.601 116.17 169.522C114.987 167.868 113.33 166.519 111.335 166.114C109.442 165.709 107.481 166.249 105.824 167.227C104.675 167.902 103.66 168.813 102.748 169.758C102.511 169.994 102.24 170.433 101.902 170.703C102.748 169.049 103.965 167.666 105.452 166.654C106.906 165.675 108.529 165.169 110.084 165.169C110.761 165.169 111.437 165.27 112.079 165.439C115.392 166.384 117.59 169.42 118.063 173.031Z" fill="white"/>
<path d="M175.844 67.5186C174.931 68.7333 174.086 69.9817 173.241 71.2302C167.223 80.3744 162.895 90.632 158.872 100.856C157.181 105.141 155.524 109.494 153.158 113.476C151.197 116.782 148.729 119.887 147.545 123.565C146.396 127.074 146.497 130.92 144.942 134.261C143.522 137.365 140.783 139.862 140.04 143.203C139.431 145.936 140.31 148.804 140.175 151.604C139.972 155.451 137.91 158.893 136.625 162.503C135.306 166.147 134.799 170.028 134.258 173.841C133.48 179.644 132.669 185.515 133.176 191.353C133.514 195.335 134.461 199.35 133.751 203.298C133.244 206.166 131.891 209.169 132.906 211.902C133.683 213.927 135.577 215.276 136.456 217.267C137.335 219.224 136.05 222.362 133.988 221.755C132.94 221.451 132.365 220.338 131.959 219.292C131.08 217.098 130.37 214.838 129.761 212.543C129.051 209.776 128.578 206.942 128.105 204.141C127.023 197.798 125.975 191.454 124.893 185.111C124.453 182.411 123.98 179.712 124.318 176.979C124.656 174.111 125.873 171.411 126.009 168.509C126.178 165.203 124.927 161.896 125.299 158.623C125.873 153.528 130.302 149.108 129.66 144.012C129.423 142.157 128.51 140.402 128.375 138.546C128.003 133.586 132.872 129.773 133.819 124.914C134.731 120.19 131.858 114.96 134.123 110.709C135.509 108.144 138.62 106.39 138.789 103.488C138.822 102.644 138.586 101.767 138.653 100.923C138.856 98.359 141.46 96.8406 143.454 95.221C145.956 93.1965 147.748 90.3621 148.695 87.2916C149.033 86.1781 149.236 85.0646 149.337 83.9173C153.462 80.4756 157.925 77.4051 162.523 74.6044C163.74 73.8621 164.991 73.1198 166.276 72.4112C169.488 70.6903 172.632 69.0707 175.844 67.5186Z" fill="url(#paint3_linear_489_2037)"/>
<path d="M231.259 46.0254C230.481 47.0714 229.737 48.1174 229.027 49.1972C226.255 53.4824 224.328 58.1389 224.125 63.234C224.023 65.5959 224.294 67.9917 223.99 70.3536C223.652 72.8505 222.671 75.1788 221.724 77.507C219.256 83.4119 216.788 89.2831 214.32 95.188C213.238 97.7524 212.156 100.351 211.717 103.117C211.277 105.783 211.514 108.584 210.838 111.216C209.62 116.142 205.496 120.191 205.09 125.252C204.853 128.424 206.104 131.528 206.138 134.667C206.172 140.774 201.641 146.274 201.743 152.381C201.81 157.645 205.327 162.369 205.53 167.633C205.631 170.4 204.853 173.099 204.515 175.866C204.211 178.397 204.312 180.995 204.515 183.559C205.158 190.746 206.848 197.765 208.539 204.783C208.91 206.268 209.249 207.752 209.621 209.237C210.973 214.771 212.291 220.305 213.644 225.838C214.388 228.909 215.131 232.013 215.233 235.185C215.301 237.513 214.996 239.909 215.503 242.203C215.537 242.338 215.571 242.473 215.605 242.574C215.875 243.587 216.281 244.565 216.721 245.51C217.262 246.792 217.836 248.074 218.107 249.424C218.749 252.765 217.633 256.51 217.363 259.884C217.16 262.314 217.431 264.541 219.087 266.295C219.222 266.43 219.324 266.565 219.459 266.667C219.696 267.443 219.932 268.252 220.135 269.028C220.744 271.154 221.319 273.28 221.86 275.406C221.014 275.979 220 276.418 219.02 276.722C218.343 274.225 217.6 271.728 216.856 269.265C216.788 268.995 216.687 268.759 216.619 268.489C216.315 267.544 216.011 266.565 215.74 265.621C213.678 259.108 211.412 252.663 209.181 246.219C207.626 246.387 206.037 246.522 204.481 246.691C203.467 246.792 202.453 246.893 201.405 246.995C199.309 247.197 197.246 247.4 195.15 247.568C194.169 247.67 193.155 247.737 192.175 247.838C190.653 247.973 189.132 248.108 187.577 248.243C187.272 247.298 186.968 246.354 186.697 245.375C186.63 245.105 186.562 244.869 186.461 244.599C184.534 238.019 182.64 231.406 180.713 224.826C180.003 222.363 179.293 219.866 179.192 217.301C179.056 213.59 180.206 209.912 179.868 206.234C179.53 202.893 177.975 199.755 178.008 196.415C178.076 192.062 180.882 188.114 181.085 183.728C181.254 179.611 179.124 175.731 178.955 171.614C178.82 168.004 180.24 164.528 180.578 160.918C181.017 156.262 179.597 151.605 179.936 146.949C180.476 139.525 185.447 132.574 184.432 125.219C183.891 121.44 181.829 117.728 182.776 114.05C183.553 111.081 186.19 108.786 186.697 105.716C187.306 101.869 184.263 98.191 184.635 94.3107C184.973 90.9027 187.813 88.372 190.214 85.9088C192.648 83.4794 194.981 80.1726 193.967 76.8659C193.561 75.5162 192.648 74.4027 192.073 73.1205C190.484 69.5438 191.837 65.326 193.899 61.9518C194 61.8168 194.068 61.6818 194.169 61.5469C194.812 60.5683 195.488 59.6236 196.164 58.645L197.348 58.1726C202.825 56.0131 208.37 53.9211 213.948 51.9303C214.793 51.6266 215.672 51.3229 216.518 51.0193C221.251 49.3321 225.984 47.7125 230.718 46.1266C230.954 46.1266 231.124 46.0591 231.259 46.0254Z" fill="url(#paint4_linear_489_2037)"/>
<path d="M307.873 27.7366C304.458 37.0157 302.835 46.936 303.274 56.8225C303.376 59.2182 303.579 61.6477 302.936 63.9759C302.328 66.1691 300.975 68.0587 300.265 70.2182C298.304 76.0556 301.144 82.6354 299.353 88.5065C298.507 91.2734 296.648 93.7366 296.073 96.571C295.532 99.1354 296.107 101.801 296.512 104.399C297.763 112.464 297.493 120.697 297.222 128.862C297.155 131.326 297.053 133.755 296.986 136.218C296.918 138.445 296.851 140.672 296.377 142.832C295.532 146.915 293.368 150.727 292.996 154.878C292.861 156.464 292.996 158.049 293.064 159.635C293.165 161.862 293.098 164.089 293.064 166.35C292.929 173.841 292.793 181.332 292.658 188.822C292.624 190.577 292.591 192.298 292.557 194.053C292.421 201.442 292.286 208.865 291.914 216.255C291.813 218.381 291.711 220.507 292.083 222.599C292.557 225.096 293.706 227.457 293.808 229.988C294.044 235.252 289.784 240.448 291.542 245.408C292.793 248.918 296.918 251.448 296.614 255.194C296.411 257.758 294.078 259.749 293.639 262.28C293.402 263.663 293.74 265.08 294.078 266.43C295.126 270.546 296.141 274.663 297.189 278.78C298.203 282.896 299.217 287.384 297.358 291.197C296.682 292.58 295.633 293.964 295.769 295.516C295.972 297.439 297.899 298.586 299.15 300.105C299.927 301.049 300.333 302.095 300.468 303.209C300.603 304.255 300.468 305.301 300.164 306.347C299.454 306.178 298.744 306.01 298.034 305.841C295.059 305.132 292.117 304.323 289.21 303.411C287.959 303.007 286.741 302.602 285.524 302.197C282.549 301.151 279.641 299.97 276.768 298.654C276.328 297.372 275.956 296.056 275.584 294.74C275.517 294.47 275.415 294.2 275.348 293.93C274.097 289.476 272.812 285.022 271.696 280.534C270.479 275.54 269.431 270.513 268.586 265.451C266.151 250.908 265.306 236.163 264.461 221.485C264.089 215.209 263.751 208.899 263.379 202.623C263.21 199.35 263.007 196.043 263.683 192.838C264.326 189.7 265.746 186.663 265.407 183.491C265.137 181.197 263.954 179.071 263.649 176.776C263.108 172.39 265.813 168.307 266.489 163.954C267.368 158.083 264.359 152.145 265.036 146.24C265.678 140.402 269.769 135.341 270.208 129.47C270.716 122.384 265.712 115.77 266.185 108.684C266.658 101.497 272.677 95.4575 272.846 88.2366C272.981 82.4329 269.296 76.5618 271.257 71.0955C272.338 68.0924 274.976 65.8317 275.922 62.7949C277.579 57.5311 273.758 52.1323 273.556 46.6323C273.387 41.8746 275.787 37.8256 279.202 34.4176C281.028 32.5955 283.124 30.9421 285.321 29.4575C287.654 28.8501 289.987 28.2765 292.32 27.7029C293.064 27.5342 293.774 27.3654 294.518 27.163C295.87 26.8593 297.222 26.5556 298.575 26.2519C302.159 25.4421 305.776 24.6998 309.394 23.9912C308.853 25.1722 308.346 26.4544 307.873 27.7366Z" fill="url(#paint5_linear_489_2037)"/>
<path d="M345.501 62.5585C344.69 65.2242 344.69 68.0923 345.062 70.8254C345.468 74.1659 346.448 77.5401 348.713 80.0371C350.979 82.534 354.799 83.8162 357.808 82.3653C360.986 80.8469 362.305 77.1352 363.285 73.761C364.232 70.5217 365.213 67.2824 365.382 63.9082C365.584 60.534 364.908 57.0248 362.88 54.3254C359.397 49.669 358.958 48.488 353.785 52.2671C350.201 54.9328 346.854 58.172 345.501 62.5585Z" fill="url(#paint6_linear_489_2037)"/>
<path d="M489.464 152.955C489.193 158.353 488.619 163.752 487.942 169.117C486.658 179.105 485.136 189.599 481.248 198.979C479.591 202.995 477.394 208.225 473.438 210.519C469.584 212.746 464.14 212.071 459.88 211.768C450.549 211.059 441.42 208.697 432.562 205.761C421.472 202.084 410.62 197.326 399.564 193.412C399.733 192.467 399.868 191.522 400.003 190.544C400.24 188.789 400.375 187.001 400.477 185.246C400.51 184.74 400.51 184.234 400.544 183.728C400.578 182.715 400.578 181.703 400.578 180.691C400.544 178.768 400.477 176.844 400.341 174.955C400.308 174.516 400.274 174.044 400.24 173.605C400.206 173.2 400.172 172.795 400.138 172.39C400.037 171.378 399.936 170.332 399.834 169.32C399.699 168.274 399.598 167.228 399.428 166.182C399.361 165.811 399.327 165.439 399.259 165.034C399.124 164.056 398.955 163.044 398.786 162.065C398.752 161.863 398.718 161.694 398.685 161.491C398.516 160.513 398.313 159.568 398.11 158.59C397.941 157.881 397.806 157.206 397.637 156.498C397.637 156.464 397.637 156.43 397.603 156.396C397.366 155.452 397.129 154.507 396.893 153.596C396.352 151.504 395.743 149.445 395.033 147.387C395.202 147.286 395.371 147.185 395.54 147.117C398.11 145.666 400.679 144.215 403.283 142.765C412.513 137.669 421.878 132.811 431.818 129.234C441.724 125.691 452.138 123.363 462.687 123.43C467.893 123.464 473.201 123.801 477.563 126.906C480.268 128.829 482.702 131.326 484.663 134.093C484.967 134.531 485.271 135.004 485.576 135.442C486.049 136.218 486.522 136.961 486.928 137.771C489.362 142.495 489.734 147.691 489.464 152.955Z" fill="url(#paint7_linear_489_2037)"/>
<path d="M297.256 15.6564C297.155 15.9264 297.087 16.1963 296.986 16.4663C296.445 18.0521 295.768 19.6043 295.126 21.1227C294.957 21.5613 294.754 22 294.585 22.4049C293.841 24.1595 293.097 25.8804 292.354 27.635C290.021 28.2086 287.688 28.7822 285.355 29.3896C280.419 30.6718 275.482 32.0552 270.546 33.5061C269.769 33.7423 268.991 33.9785 268.213 34.181C262.77 35.8006 257.36 37.4877 251.951 39.2086L249.99 39.8497C244.918 41.4693 239.881 43.1564 234.843 44.8098C234.336 44.9785 233.829 45.1472 233.322 45.3159C232.645 45.5521 231.969 45.7546 231.293 45.9908C231.124 46.0245 230.989 46.092 230.82 46.1595C226.086 47.7454 221.353 49.365 216.62 51.0521C215.774 51.3558 214.895 51.6595 214.05 51.9632C208.471 53.954 202.96 56.0123 197.449 58.2055L196.266 58.6779C195.894 58.8129 195.522 58.9816 195.15 59.1166C191.195 60.7024 187.273 62.3558 183.385 64.0767C182.607 64.4141 181.829 64.7515 181.086 65.1227C179.632 65.7975 178.178 66.4724 176.724 67.1472C176.454 67.2822 176.149 67.4172 175.879 67.5521C172.667 69.0705 169.489 70.7239 166.412 72.4448C167.46 70.6227 168.542 68.8006 169.759 67.0798C172.971 62.3896 176.758 58.1043 180.815 54.1564C182.404 52.6043 184.061 51.0859 185.785 49.6687C186.698 48.8926 187.645 48.1166 188.591 47.3742C190.011 46.2607 191.465 45.181 192.953 44.135C197.348 41.0307 202.014 38.2301 206.781 35.6994C207.694 35.1933 208.641 34.7209 209.587 34.2485C210.061 34.0123 210.5 33.7761 210.973 33.5399C211.988 33.0337 213.002 32.5613 214.016 32.089C219.054 29.6932 224.227 27.5337 229.467 25.5429C231.327 24.8344 233.186 24.1595 235.08 23.4847C238.697 22.2025 242.349 21.0215 246 19.908C246.44 19.773 246.846 19.638 247.285 19.5031C248.232 19.2331 249.178 18.9294 250.125 18.6595C255.095 17.2423 260.099 15.9601 265.137 14.8129C265.644 14.7117 266.151 14.5767 266.692 14.4755C267.233 14.3405 267.774 14.2393 268.315 14.1043C272.642 13.1932 277.004 12.3159 281.365 11.6748C282.515 11.5061 283.664 11.3374 284.814 11.2362C285.355 11.1687 285.896 11.1012 286.437 11.0675C288.296 10.865 290.19 10.7638 292.083 10.7638C293.469 10.7638 295.092 10.6288 296.377 11.2699C298.101 12.1472 297.763 14.1043 297.256 15.6564Z" fill="url(#paint8_linear_489_2037)"/>
<path d="M407.544 65.8996C407.51 68.4303 407.442 70.9272 407.341 73.4579C407.307 74.3352 407.273 75.2125 407.206 76.0898C407.037 78.9579 406.834 81.7923 406.563 84.6604C406.496 85.4364 406.428 86.2125 406.327 87.0223C406.022 89.8229 405.684 92.6236 405.279 95.4242C405.245 95.6604 405.211 95.9303 405.177 96.1665C405.042 97.1113 404.873 98.0561 404.738 99.0009C404.535 100.216 404.332 101.43 404.095 102.679V102.713C403.96 103.522 403.791 104.366 403.622 105.176C403.419 106.087 403.216 106.998 402.98 107.909C402.27 110.709 401.357 113.443 400.038 116.007C398.212 119.651 395.778 122.958 393.006 125.927C392.363 126.636 391.687 127.311 391.011 127.952C391.924 123.059 392.769 118.133 393.547 113.206C393.648 112.532 393.75 111.857 393.851 111.182C394.223 108.786 394.561 106.39 394.899 103.961C394.899 103.961 394.899 103.961 394.899 103.927C395.034 103.084 395.136 102.206 395.271 101.329C395.71 98.0561 396.15 94.7831 396.522 91.5101C396.59 90.8352 396.691 90.1941 396.759 89.5193C397.097 86.5162 397.435 83.5469 397.705 80.5438C397.773 79.8015 397.84 79.0591 397.908 78.2831C398.111 75.9211 398.314 73.5929 398.517 71.2309C398.55 70.7585 398.584 70.2861 398.618 69.78C398.686 68.9702 398.753 68.1604 398.821 67.3506C398.99 65.2248 399.193 63.099 399.328 60.9733C399.396 60.1972 399.43 59.4548 399.463 58.6788C399.497 57.9027 399.565 57.1266 399.599 56.3506C399.734 53.5162 399.768 50.6481 399.666 47.8137C399.632 46.9027 399.565 45.9917 399.497 45.1144C399.43 44.1696 399.328 43.2248 399.227 42.28C399.024 40.4917 398.686 38.7033 398.246 36.9825C398.043 36.1726 397.807 35.3966 397.536 34.6205C396.759 32.326 395.744 30.1328 394.392 28.1082C393.952 27.4671 393.513 26.826 393.006 26.2187C391.687 24.5653 390.098 23.1144 388.239 21.8659C388.103 21.7647 387.968 21.6634 387.799 21.596C387.258 21.2585 386.717 20.9211 386.142 20.6174C383.674 19.3015 381.003 18.4242 378.265 17.8506C377.419 17.6818 376.574 17.5469 375.695 17.4119C372.145 16.9395 368.527 16.872 365.011 16.9733C364.403 16.9733 363.794 17.007 363.185 17.0407C363.084 17.0407 362.983 17.0407 362.915 17.0407C359.196 17.2095 355.443 17.4456 351.724 17.7493C350.913 17.8168 350.101 17.8843 349.29 17.9518C346.483 18.188 343.643 18.4917 340.837 18.8291C339.857 18.9303 338.876 19.0653 337.896 19.1665C334.92 19.5377 331.911 19.9426 328.936 20.3812C327.956 20.5162 327.009 20.6849 326.028 20.8199C321.329 21.5622 316.663 22.372 312.031 23.2831C314.297 19.5377 317.204 16.2647 320.585 13.5315C324.304 10.5285 328.564 8.13276 333.162 6.41191C333.94 6.14197 334.684 5.87203 335.495 5.60209C336.138 5.39964 336.78 5.19718 337.422 5.02847C337.456 5.02847 337.524 4.99473 337.558 4.99473C341.446 3.94872 345.402 3.27387 349.391 2.9027C350.507 2.80148 351.623 2.70025 352.738 2.63276C355.544 2.46405 358.351 2.39657 361.157 2.43031C361.529 2.43031 361.934 2.43031 362.306 2.43031C363.016 2.43031 363.726 2.46405 364.47 2.46405C367.817 2.56528 371.198 2.80148 374.512 3.30761C375.289 3.40884 376.067 3.54381 376.845 3.71252C379.989 4.31988 383.099 5.16344 386.075 6.41191C386.548 6.61436 387.021 6.81681 387.495 7.05301C387.968 7.28921 388.441 7.5254 388.915 7.7616C391.552 9.14503 393.986 10.7984 396.116 12.7892C396.691 13.3291 397.232 13.869 397.739 14.4426C399.531 16.3659 401.019 18.5254 402.202 20.9548C402.506 21.596 402.777 22.2033 403.047 22.8782C403.115 23.0806 403.182 23.2493 403.25 23.4518C404.061 25.6113 404.67 27.8383 405.143 30.1328C405.211 30.4364 405.279 30.7401 405.312 31.0438C405.482 31.9211 405.617 32.7647 405.752 33.642C406.158 36.2739 406.428 38.9733 406.631 41.6389C406.699 42.5837 406.766 43.5622 406.834 44.507C406.902 45.6542 406.969 46.7677 407.037 47.8812C407.138 49.5346 407.24 51.1542 407.307 52.8076C407.341 53.5837 407.375 54.3598 407.409 55.1358C407.51 57.8015 407.544 60.4671 407.544 63.1328C407.578 64.0775 407.578 64.9886 407.544 65.8996Z" fill="url(#paint9_linear_489_2037)"/>
<path d="M223.685 309.924C223.55 312.994 223.11 316.099 222.163 319.034C221.69 320.519 221.048 321.936 220.27 323.286C219.425 324.771 218.546 326.829 216.551 325.985C213.508 324.703 210.871 322.51 208.437 320.317C206.104 318.191 203.838 316.031 201.607 313.771C200.086 312.218 198.598 310.666 197.144 309.08C196.434 308.304 195.724 307.494 195.014 306.718C188.624 299.531 182.809 291.838 177.703 283.706C174.356 278.341 171.28 272.807 168.609 267.105C168.169 266.16 167.73 265.249 167.324 264.304C165.295 259.682 163.537 254.958 162.117 250.099C163.639 249.998 165.126 249.896 166.614 249.795C167.561 249.728 168.507 249.66 169.454 249.593C169.995 249.559 170.57 249.525 171.111 249.458C171.516 249.424 171.922 249.39 172.328 249.356C174.255 249.221 176.216 249.053 178.143 248.918C179.495 248.817 180.848 248.715 182.2 248.58C182.234 248.58 182.302 248.58 182.335 248.58C184.094 248.445 185.818 248.31 187.576 248.142C189.097 248.007 190.619 247.872 192.174 247.737C193.155 247.636 194.169 247.568 195.149 247.467C197.246 247.264 199.308 247.096 201.404 246.893C202.418 246.792 203.433 246.691 204.481 246.59C206.036 246.455 207.625 246.286 209.18 246.117C211.378 252.562 213.677 259.007 215.74 265.519C216.044 266.464 216.348 267.442 216.619 268.387C216.686 268.657 216.788 268.893 216.855 269.163C217.599 271.626 218.309 274.09 219.019 276.62C220.169 280.838 221.217 285.123 221.994 289.409C223.313 296.258 224.023 303.142 223.685 309.924Z" fill="url(#paint10_linear_489_2037)"/>
<path d="M194.035 310.092C193.798 310.801 193.595 311.509 193.325 312.218C192.04 315.93 190.349 319.607 187.847 322.678C185.244 325.85 181.39 328.988 177.4 326.12C175.743 324.939 174.493 323.252 173.275 321.632C173.242 321.564 173.174 321.497 173.14 321.429C171.822 319.641 170.571 317.785 169.387 315.93C167.021 312.184 164.891 308.27 162.997 304.255C159.211 296.157 156.472 287.552 154.748 278.813C154.24 276.147 153.801 273.482 153.463 270.782C153.26 269.061 153.057 267.307 152.922 265.586C153.97 265.755 155.018 265.923 156.066 266.058C157.08 266.193 158.129 266.328 159.143 266.429C159.549 266.463 159.954 266.531 160.36 266.564C161.645 266.699 162.896 266.801 164.181 266.902C164.755 266.936 165.296 266.969 165.871 267.003C168.102 272.132 170.706 277.092 173.512 281.917C179.361 291.939 186.225 301.488 194.035 310.092Z" fill="url(#paint11_linear_489_2037)"/>
<path d="M341.141 320.316C340.702 322.037 338.707 323.319 337.253 324.163C330.458 327.976 321.599 325.546 314.905 322.712C314.871 322.678 314.837 322.678 314.77 322.644C307.399 319.506 300.84 314.782 295.025 309.35C292.996 307.46 291.035 305.469 289.176 303.411C292.083 304.322 295.025 305.132 298 305.841C298.71 306.009 299.42 306.178 300.13 306.347C301.178 306.583 302.193 306.819 303.241 307.022C306.791 307.764 310.375 308.405 313.958 309.012C316.257 309.384 318.556 309.755 320.889 310.092C321.397 310.16 321.904 310.227 322.411 310.328C325.623 310.801 329.038 311.341 332.554 311.745C334.515 312.589 336.408 313.568 338.031 314.884C338.099 314.951 338.166 315.018 338.268 315.052C339.654 316.267 341.649 318.291 341.141 320.316Z" fill="url(#paint12_linear_489_2037)"/>
<path d="M491.492 159.197C491.019 164.9 490.275 170.602 489.565 176.304C488.28 186.461 486.86 197.056 481.856 206.166C479.557 210.35 476.447 213.995 471.578 215.108C466.845 216.188 461.604 215.682 456.837 215.176C447.1 214.096 437.633 211.498 428.369 208.292C418.97 205.053 409.774 201.24 400.409 197.866C399.834 197.663 399.225 197.461 398.651 197.225C397.738 196.921 396.859 196.584 395.946 196.28C392.7 195.166 389.454 194.12 386.141 193.209C383.605 192.501 381.036 191.86 378.5 191.219C377.148 190.881 375.829 190.544 374.477 190.173C374.544 189.127 374.646 188.047 374.713 187.001C376.032 187.136 377.317 187.304 378.635 187.541C378.703 187.541 378.77 187.574 378.872 187.574C384.991 188.722 390.976 190.476 396.859 192.467C397.738 192.771 398.617 193.074 399.496 193.378C410.552 197.292 421.405 202.05 432.494 205.728C441.352 208.663 450.481 211.025 459.812 211.734C464.073 212.038 469.516 212.712 473.37 210.485C477.326 208.191 479.524 202.995 481.18 198.946C485.068 189.565 486.59 179.071 487.875 169.084C488.551 163.719 489.126 158.32 489.396 152.921C489.667 147.657 489.295 142.461 486.793 137.737C484.595 133.553 481.282 129.605 477.427 126.872C473.066 123.768 467.758 123.43 462.551 123.397C452.002 123.329 441.555 125.657 431.683 129.2C421.743 132.777 412.377 137.636 403.147 142.731C400.409 144.249 397.636 145.801 394.931 147.354C394.391 147.657 393.85 147.961 393.309 148.265C391.922 149.041 390.536 149.85 389.15 150.627C387.933 151.335 386.716 152.044 385.499 152.752C384.315 153.461 383.132 154.17 381.915 154.844C382.084 154.102 382.253 153.326 382.456 152.584C383.673 151.875 384.856 151.133 386.073 150.39C388.305 149.041 390.536 147.691 392.768 146.375C393.275 146.071 393.748 145.801 394.255 145.498C408.895 136.826 424.008 128.593 440.439 124.206C445.714 122.789 451.09 121.811 456.533 121.372C461.773 120.967 467.42 120.765 472.559 122.081C477.292 123.262 481.113 126.501 484.291 130.077C487.435 133.62 490.005 137.838 491.12 142.495C492.473 147.961 491.932 153.697 491.492 159.197Z" fill="#282828"/>
<path d="M400.477 183.727C400.409 186.021 400.274 188.316 399.97 190.577C399.835 191.521 399.699 192.466 399.53 193.445C399.294 194.727 399.023 196.009 398.651 197.258C397.738 196.954 396.859 196.616 395.946 196.313C396.318 195.064 396.623 193.782 396.893 192.5C397.096 191.521 397.265 190.509 397.4 189.531C397.671 187.439 397.84 185.313 397.907 183.153C397.941 182.175 397.941 181.163 397.941 180.15C397.941 178.294 397.874 176.439 397.772 174.583C397.738 174.245 397.738 173.942 397.705 173.604C397.671 173.064 397.637 172.558 397.603 172.018C397.535 171.141 397.468 170.264 397.366 169.42C397.265 168.34 397.13 167.294 396.995 166.215C396.961 165.911 396.927 165.607 396.859 165.304C396.724 164.325 396.589 163.347 396.42 162.402C396.42 162.334 396.386 162.267 396.386 162.233C396.217 161.255 396.048 160.276 395.879 159.297C395.777 158.656 395.642 158.015 395.507 157.374C395.473 157.172 395.439 156.936 395.372 156.733C395.236 155.991 395.067 155.248 394.898 154.54C394.425 152.482 393.884 150.423 393.343 148.365C393.174 147.758 393.005 147.117 392.836 146.509C393.343 146.205 393.816 145.936 394.324 145.632C394.56 146.239 394.763 146.847 394.966 147.454C395.676 149.478 396.251 151.57 396.825 153.663C397.062 154.607 397.299 155.552 397.536 156.463C397.536 156.497 397.569 156.531 397.569 156.564C397.738 157.273 397.907 157.948 398.043 158.656C398.246 159.601 398.448 160.58 398.617 161.558C398.651 161.761 398.685 161.929 398.719 162.132C398.888 163.11 399.057 164.089 399.192 165.101C399.26 165.472 399.294 165.843 399.361 166.248C399.496 167.294 399.632 168.34 399.767 169.386C399.868 170.399 399.97 171.445 400.071 172.457C400.105 172.862 400.139 173.267 400.173 173.672C400.206 174.11 400.24 174.583 400.274 175.021C400.409 176.945 400.477 178.834 400.511 180.758C400.511 181.702 400.511 182.715 400.477 183.727Z" fill="#282828"/>
<path d="M468.03 133.586C461.741 134.936 455.385 135.948 449.13 137.5C437.939 140.233 427.086 143.709 416.47 148.264C411.06 150.558 405.684 152.954 400.342 155.35C399.43 155.755 398.483 156.16 397.536 156.565C396.86 156.834 396.184 157.138 395.474 157.408C395.44 157.206 395.406 156.969 395.339 156.767C395.203 156.025 395.034 155.282 394.865 154.574C395.508 154.27 396.15 153.966 396.792 153.663C398.28 152.988 399.734 152.313 401.255 151.672C412.074 147.015 422.894 142.292 434.186 138.917C445.039 135.678 456.568 133.114 467.928 133.181C468.266 133.08 468.334 133.519 468.03 133.586Z" fill="#282828"/>
<path d="M471.647 146.813C465.359 147.792 459.002 148.298 452.68 149.175C441.557 150.693 430.535 152.819 419.614 155.519C414.171 156.868 408.761 158.353 403.385 160.006C401.796 160.479 400.207 161.019 398.584 161.559C397.84 161.795 397.097 162.031 396.353 162.267C396.184 161.289 396.015 160.31 395.846 159.332C396.556 159.095 397.299 158.893 398.009 158.657C400.309 157.982 402.641 157.408 404.907 156.767C415.827 153.764 426.917 151.335 438.108 149.479C443.653 148.568 449.198 147.792 454.776 147.151C460.355 146.509 465.933 145.936 471.546 146.037C471.985 146.003 472.121 146.712 471.647 146.813Z" fill="#282828"/>
<path d="M474.521 162.166C468.3 162.605 462.045 162.2 455.824 162.065C444.768 161.829 433.679 162.065 422.623 162.74C417.112 163.077 411.567 163.55 406.09 164.123C403.825 164.359 401.526 164.697 399.193 164.967C398.415 165.068 397.604 165.169 396.826 165.237C396.691 164.258 396.556 163.28 396.387 162.335C397.164 162.2 397.908 162.099 398.686 162.031C401.762 161.66 404.873 161.458 407.882 161.188C419.107 160.142 430.366 159.568 441.624 159.5C447.169 159.467 452.68 159.534 458.225 159.737C463.702 159.939 469.213 160.243 474.589 161.424C475.062 161.559 474.927 162.166 474.521 162.166Z" fill="#282828"/>
<path d="M471.748 174.988C465.46 174.92 459.171 173.706 452.95 172.862C441.793 171.378 430.602 170.095 419.377 169.555C413.866 169.285 408.355 169.151 402.844 169.252C401.83 169.252 400.815 169.285 399.767 169.353C398.956 169.387 398.144 169.42 397.333 169.454C397.231 168.374 397.096 167.328 396.961 166.249C397.772 166.215 398.55 166.215 399.361 166.181C401.322 166.147 403.283 166.181 405.244 166.249C416.503 166.552 427.728 167.666 438.885 169.117C444.362 169.825 449.839 170.635 455.283 171.479C460.828 172.356 466.44 173.065 471.816 174.684C471.985 174.718 471.951 174.988 471.748 174.988Z" fill="#282828"/>
<path d="M467.284 185.583C461.435 184.908 455.654 183.761 449.872 182.782C439.29 180.96 428.707 179.442 418.091 177.755C412.817 176.911 407.508 176.068 402.234 175.258C401.592 175.157 400.916 175.055 400.273 174.954C399.428 174.819 398.583 174.718 397.737 174.583C397.704 174.246 397.704 173.942 397.67 173.604C397.636 173.065 397.602 172.558 397.568 172.019C398.414 172.154 399.225 172.255 400.07 172.39C401.524 172.592 402.944 172.828 404.398 173.031C414.98 174.65 425.495 176.473 436.01 178.531C446.457 180.589 457.107 182.344 467.318 185.414C467.386 185.448 467.386 185.583 467.284 185.583Z" fill="#282828"/>
<path d="M462.01 197.696C456.195 196.65 450.549 194.997 444.801 193.58C434.624 191.083 424.38 188.755 414.102 186.561C409.537 185.617 405.007 184.672 400.476 183.727C399.597 183.558 398.752 183.356 397.873 183.153C397.907 182.175 397.907 181.163 397.907 180.15C398.752 180.319 399.631 180.488 400.476 180.69C400.984 180.791 401.457 180.893 401.964 181.028C412.208 183.322 422.419 185.718 432.562 188.282C437.6 189.564 442.603 190.88 447.607 192.298C452.543 193.715 457.48 195.064 462.213 197.089C462.619 197.258 462.348 197.764 462.01 197.696Z" fill="#282828"/>
<path d="M399.598 56.4172C399.564 57.1932 399.53 57.9693 399.462 58.7454C399.293 61.6472 399.057 64.5491 398.82 67.4172C398.752 68.227 398.685 69.0368 398.617 69.8466C398.583 70.319 398.55 70.8251 398.516 71.2975C398.313 73.6595 398.11 75.9877 397.907 78.3497C397.84 79.092 397.772 79.8343 397.704 80.6104C397.4 83.6135 397.096 86.5828 396.758 89.5859C396.69 90.2607 396.622 90.9018 396.521 91.5767C396.149 94.8497 395.71 98.1227 395.27 101.396C395.169 102.273 395.033 103.117 394.898 103.994C394.898 103.994 394.898 103.994 394.898 104.028C394.56 106.423 394.222 108.819 393.85 111.248C393.749 111.923 393.647 112.598 393.546 113.273C392.768 118.199 391.957 123.092 391.01 128.018C390.638 129.942 390.266 131.899 389.894 133.822C388.779 139.423 387.528 145.025 386.141 150.558C385.939 151.334 385.736 152.11 385.567 152.92C384.383 153.629 383.2 154.337 381.983 155.012C382.152 154.27 382.321 153.494 382.524 152.752C382.591 152.515 382.625 152.313 382.693 152.077C383.944 146.982 385.093 141.886 386.175 136.791C386.547 135.037 386.919 133.282 387.257 131.528C388.339 126.095 389.387 120.629 390.3 115.163C390.401 114.589 390.503 114.015 390.57 113.442C391.01 110.81 391.416 108.144 391.821 105.512C391.923 104.736 392.058 103.96 392.16 103.184C392.667 99.8098 393.106 96.4356 393.512 93.0613C393.58 92.454 393.647 91.8804 393.715 91.273C393.816 90.362 393.951 89.4172 394.053 88.5061C394.29 86.3466 394.526 84.2208 394.763 82.0613C394.831 81.3527 394.898 80.6779 394.966 79.9693C395.27 77.0337 395.507 74.1319 395.743 71.1963C395.811 70.4202 395.879 69.6779 395.912 68.9018C396.149 65.9662 396.352 63.0644 396.521 60.1288C396.555 59.4202 396.622 58.6779 396.656 57.9693C396.69 57.4632 396.724 56.9908 396.724 56.4846C396.859 54.1227 396.961 51.727 396.927 49.2638C396.927 48.4202 396.893 47.5429 396.859 46.6994C396.758 43.8313 396.42 40.9632 395.777 38.1963C395.608 37.4202 395.371 36.6442 395.135 35.9018C394.661 34.4847 394.121 33.1012 393.411 31.7853C392.971 30.9754 392.531 30.1994 391.991 29.4908C391.551 28.8834 391.111 28.3435 390.638 27.8037C389.083 26.0828 387.257 24.7331 385.262 23.6534C384.755 23.3834 384.214 23.1135 383.673 22.8773C381.205 21.7975 378.5 21.0889 375.728 20.684C374.95 20.5491 374.139 20.4816 373.361 20.4141C372.651 20.3466 371.941 20.3129 371.231 20.2791C368.391 20.1442 365.517 20.1779 362.61 20.2791C362.001 20.3129 361.359 20.3466 360.75 20.3804C356.93 20.5828 353.143 20.9202 349.323 21.3589C348.613 21.4264 347.903 21.5276 347.193 21.5951C345.063 21.8313 342.933 22.1012 340.802 22.3712C340.025 22.4724 339.247 22.5736 338.47 22.6748C337.624 22.7761 336.745 22.911 335.9 23.0123C332.992 23.4172 330.085 23.8558 327.177 24.2945C326.366 24.4294 325.554 24.5644 324.709 24.6994C319.739 25.5429 314.769 26.454 309.833 27.4325C309.258 27.5337 308.683 27.6687 308.108 27.7699C307.973 27.8037 307.804 27.8374 307.669 27.8712C302.597 28.9172 297.56 30.0307 292.522 31.2116C291.812 31.3804 291.136 31.5491 290.426 31.7178C286.605 32.6288 282.819 33.5399 278.998 34.4847C278.423 34.6196 277.849 34.7883 277.274 34.9233C274.366 35.6656 271.492 36.408 268.619 37.184C268.01 37.3528 267.368 37.5215 266.759 37.6902C261.147 39.2086 255.602 40.8282 250.057 42.4816C249.516 42.6503 248.975 42.819 248.4 42.9877C242.788 44.7086 237.175 46.4969 231.631 48.3865C230.954 48.6227 230.278 48.8589 229.602 49.0613C229.332 49.1626 229.095 49.23 228.824 49.3313C224.395 50.8497 219.966 52.4018 215.571 53.9877C215.334 54.0552 215.132 54.1564 214.929 54.2239C214.185 54.4939 213.407 54.7638 212.663 55.0675C207.152 57.0583 201.574 59.1166 196.063 61.2761C195.454 61.5123 194.812 61.7485 194.203 62.0184C194.068 62.0859 193.933 62.1196 193.798 62.1871C189.842 63.773 185.92 65.3926 182.066 67.1472C181.423 67.4509 180.781 67.7209 180.138 68.0245C177.772 69.138 175.405 70.2515 173.072 71.4325C170.029 72.9846 167.054 74.6043 164.113 76.3589C163.369 76.7975 162.625 77.2362 161.881 77.7086C161.644 77.8435 161.408 78.0123 161.205 78.1472C156.776 80.9478 152.55 84.0184 148.594 87.4601C145.788 89.9233 143.184 92.5552 140.75 95.3896C134.664 102.509 130.134 110.776 126.077 119.144C122.019 127.479 118.334 136.015 113.804 144.147C109.577 151.739 104.506 158.825 98.4539 165.135C95.1744 168.543 91.6244 171.715 87.9053 174.617C87.3305 175.055 86.7896 175.494 86.2148 175.899C76.9171 182.782 66.4023 188.046 55.3127 191.285C38.1373 196.313 19.2376 195.402 3.34701 204.276C7.53943 205.052 11.7656 205.66 15.9919 206.064C16.5328 206.132 17.0738 206.166 17.6147 206.233C18.46 206.301 19.339 206.368 20.1843 206.436C20.421 206.436 20.6238 206.469 20.8605 206.469C21.0972 206.469 21.3 206.503 21.5367 206.503C21.7395 206.503 21.9424 206.537 22.1114 206.537C22.4495 206.571 22.7876 206.571 23.1257 206.604C23.261 206.604 23.3962 206.604 23.5653 206.638C23.6667 206.638 23.7343 206.638 23.8357 206.638C24.0048 206.638 24.14 206.638 24.3091 206.672C24.5119 206.672 24.7148 206.705 24.9177 206.705C25.1205 206.705 25.3234 206.706 25.5262 206.739C25.5939 206.739 25.6277 206.739 25.6953 206.739C25.8643 206.739 26.0672 206.739 26.2362 206.773C26.27 206.773 26.3377 206.773 26.3715 206.773C26.5743 206.773 26.7772 206.773 26.9462 206.773C27.3858 206.773 27.8591 206.807 28.2986 206.807C28.5353 206.807 28.7382 206.807 28.9748 206.807C29.1777 206.807 29.4144 206.807 29.6172 206.807C29.7863 206.807 29.9891 206.807 30.1582 206.807C30.4286 206.807 30.6991 206.807 31.0034 206.807C31.781 206.807 32.5587 206.807 33.3363 206.773C34.1139 206.773 34.8915 206.739 35.6692 206.739C47.3335 206.402 58.8289 204.445 70.189 201.847C70.2566 201.813 70.3242 201.847 70.3918 201.847C70.4256 201.847 70.4594 201.88 70.4932 201.88C70.7299 202.015 70.7299 202.42 70.3918 202.521C53.3517 208.19 34.8577 209.709 16.8709 208.021C16.33 207.954 15.789 207.92 15.2481 207.853C10.278 207.347 5.34179 206.571 0.506991 205.592C-0.338254 205.423 -0.372064 204.276 0.270322 203.871C4.02321 201.509 8.11419 199.755 12.3404 198.405C21.4352 195.537 30.9358 194.356 40.3011 192.736C49.4298 191.15 58.2879 188.822 66.7066 185.009C73.6038 181.871 80.0952 177.923 86.0796 173.301C86.5867 172.929 87.06 172.525 87.5334 172.153C95.1068 166.08 101.733 158.893 107.143 150.828C117.726 135.037 123.135 116.479 133.853 100.788C138.214 94.411 143.421 88.8773 149.27 84.0521C153.395 80.6104 157.858 77.5399 162.456 74.7393C163.673 73.9969 164.924 73.2546 166.209 72.546C169.319 70.7914 172.464 69.1718 175.675 67.6534C175.946 67.5184 176.25 67.3834 176.521 67.2485C177.975 66.5736 179.428 65.8988 180.882 65.2239C181.66 64.8865 182.437 64.5153 183.181 64.1779C187.069 62.457 190.991 60.8037 194.947 59.2178C195.319 59.0828 195.691 58.9141 196.063 58.7791L197.246 58.3067C202.723 56.1472 208.268 54.0552 213.847 52.0644C214.692 51.7607 215.571 51.457 216.416 51.1534C221.15 49.4662 225.883 47.8466 230.616 46.2607C230.785 46.1932 230.921 46.1595 231.09 46.092C231.766 45.8558 232.442 45.6534 233.118 45.4172C233.625 45.2485 234.133 45.0797 234.64 44.911C239.677 43.2239 244.715 41.5705 249.787 39.9509L251.748 39.3098C257.157 37.5889 262.567 35.8681 268.01 34.2822C268.788 34.046 269.565 33.8098 270.343 33.6074C275.279 32.1564 280.182 30.8067 285.152 29.4908C287.484 28.8834 289.817 28.3098 292.15 27.7362C292.894 27.5675 293.604 27.3988 294.348 27.1963C295.7 26.8926 297.053 26.5889 298.405 26.2853C301.989 25.4755 305.607 24.7331 309.224 24.0245C309.359 23.9908 309.461 23.957 309.596 23.957C310.374 23.7883 311.117 23.6534 311.895 23.5184C316.561 22.6074 321.227 21.7975 325.892 21.0552C326.839 20.8865 327.82 20.7515 328.8 20.6166C331.775 20.1779 334.751 19.773 337.76 19.4018C338.74 19.2669 339.721 19.1656 340.701 19.0644C343.507 18.727 346.313 18.457 349.154 18.1871C349.965 18.1196 350.776 18.0521 351.588 17.9847C355.307 17.681 359.06 17.4448 362.779 17.2761C362.88 17.2761 362.948 17.2761 363.049 17.2761C363.658 17.2423 364.266 17.2423 364.875 17.2086C368.391 17.1074 372.009 17.1748 375.559 17.6472C376.404 17.7485 377.283 17.9172 378.129 18.0859C380.867 18.6595 383.538 19.5368 386.006 20.8528C386.547 21.1564 387.122 21.4601 387.663 21.8313C387.798 21.9325 387.933 22 388.102 22.1012C389.962 23.3497 391.517 24.8006 392.87 26.454C393.377 27.0613 393.816 27.7024 394.256 28.3435C395.574 30.3343 396.622 32.5276 397.4 34.8558C397.671 35.6319 397.907 36.4417 398.11 37.2178C398.55 38.9724 398.888 40.727 399.091 42.5153C399.192 43.4601 399.293 44.4049 399.361 45.3497C399.429 46.2607 399.496 47.138 399.53 48.0491C399.767 50.7147 399.733 53.5491 399.598 56.4172Z" fill="#282828"/>
<path d="M300.265 13.734C299.927 16.872 297.797 19.8413 296.546 22.6419C295.87 24.1266 295.194 25.6113 294.551 27.0959C293.943 28.4119 293.368 29.7616 292.759 31.0775C292.049 31.2462 291.373 31.4149 290.663 31.5836C291.238 30.2677 291.779 28.9517 292.354 27.6358C293.3 25.4763 294.213 23.283 295.126 21.1235C295.87 19.3352 296.647 17.5131 297.256 15.6573C297.763 14.1051 298.101 12.1481 296.377 11.2708C295.126 10.6297 293.469 10.7646 292.083 10.7646C290.19 10.7646 288.33 10.8996 286.437 11.0683C285.896 11.1358 285.355 11.1695 284.814 11.237C283.664 11.372 282.515 11.507 281.365 11.6757C277.004 12.3168 272.642 13.1941 268.315 14.1051C267.774 14.2401 267.233 14.3413 266.692 14.4763C266.185 14.5775 265.678 14.7125 265.137 14.8137C260.099 15.9272 255.095 17.2094 250.125 18.6603C249.178 18.9303 248.232 19.2002 247.285 19.5039C246.846 19.6389 246.406 19.7738 246 19.9088C242.349 21.0223 238.697 22.2033 235.08 23.4855C233.186 24.1603 231.327 24.8352 229.467 25.5438C224.193 27.5008 219.054 29.6941 213.982 32.056C212.968 32.5284 211.954 33.0346 210.94 33.507C210.466 33.7432 210.027 33.9794 209.553 34.2156C203.806 37.1174 198.193 40.3904 192.919 44.1021C191.431 45.1481 189.977 46.2278 188.557 47.3413C185.853 49.4671 183.249 51.6941 180.781 54.1235C176.724 58.0714 172.937 62.3904 169.725 67.0468C168.508 68.8014 167.426 70.5898 166.378 72.4119C165.668 73.6603 164.992 74.9088 164.316 76.1573C163.572 76.5959 162.828 77.0346 162.084 77.507C161.848 77.6419 161.611 77.8106 161.408 77.9456C161.78 76.7984 162.186 75.6849 162.659 74.6051C164.383 70.5898 166.75 66.8106 169.218 63.3352C173.14 57.8014 177.705 52.8413 182.81 48.3873C185.751 45.8229 188.828 43.4609 192.006 41.234C193.494 40.1879 195.015 39.1757 196.57 38.2309C201.98 34.8229 207.626 31.8198 213.408 29.1205C214.321 28.6818 215.233 28.2769 216.146 27.872C216.721 27.6021 217.262 27.3659 217.837 27.1297C222.874 24.9027 227.98 22.8781 233.153 21.0223C235.114 20.3137 237.108 19.6389 239.103 18.964C242.45 17.8505 245.831 16.8045 249.212 15.826C250.666 15.3873 252.154 14.9824 253.641 14.5775C254.216 14.4088 254.825 14.2738 255.399 14.1051C259.626 12.9916 263.852 11.9794 268.112 11.1021C269.228 10.8659 270.343 10.6297 271.459 10.4272C272.981 10.1235 274.536 9.81985 276.057 9.54991C278.694 9.07751 281.365 8.63886 284.036 8.30144C284.949 8.20021 285.828 8.06524 286.741 7.99776C286.944 7.96402 287.113 7.96402 287.316 7.93028C290.257 7.62659 293.537 7.28917 296.377 8.20021C298.879 8.94255 300.569 11.0008 300.265 13.734Z" fill="#282828"/>
<path d="M410.281 64.7182C410.281 67.1476 410.214 69.5771 410.146 72.0065C410.112 72.9176 410.079 73.8624 410.045 74.7734C409.943 76.7642 409.842 78.7212 409.707 80.712C409.639 81.5556 409.605 82.3654 409.538 83.209C409.47 84.0188 409.402 84.8624 409.369 85.6722C409.132 88.5403 408.895 91.4421 408.557 94.3439C408.456 95.2887 408.321 96.2673 408.185 97.212C407.915 99.1354 407.61 101.059 407.272 102.982C407.103 103.961 406.901 104.939 406.698 105.918C406.495 106.93 406.258 107.942 406.021 108.954C404.06 116.985 399.902 123.868 394.154 129.773C392.802 131.157 391.382 132.507 389.894 133.755C388.677 134.767 387.46 135.78 386.175 136.724C386.547 134.97 386.919 133.215 387.257 131.461C388.542 130.347 389.793 129.166 391.01 127.985C391.686 127.31 392.362 126.635 393.005 125.961C395.777 122.991 398.211 119.684 400.037 116.04C401.322 113.442 402.269 110.743 402.979 107.942C403.215 107.031 403.418 106.12 403.621 105.209C403.79 104.365 403.959 103.522 404.128 102.712C404.365 101.497 404.568 100.283 404.77 99.0341C404.94 98.0893 405.075 97.1446 405.21 96.1998C405.683 93.163 406.055 90.0924 406.36 87.0556C406.427 86.2795 406.529 85.5035 406.596 84.6936C406.867 81.8593 407.07 78.9912 407.239 76.1231C407.272 75.2458 407.34 74.3685 407.374 73.4912C407.475 70.9605 407.543 68.4636 407.577 65.9329C407.577 65.0219 407.577 64.1108 407.577 63.1998C407.577 60.5341 407.543 57.8685 407.441 55.2028C407.408 54.4268 407.374 53.6507 407.34 52.8746C407.272 51.2212 407.171 49.6016 407.07 47.9482C407.002 46.8347 406.934 45.7212 406.867 44.574C406.799 43.6292 406.731 42.6507 406.664 41.7059C406.461 39.0403 406.19 36.3746 405.785 33.709C405.65 32.8317 405.514 31.9544 405.345 31.1108C404.838 28.5127 404.196 25.982 403.283 23.5525C403.215 23.3501 403.148 23.1814 403.08 22.9789C402.809 22.3378 402.539 21.6967 402.235 21.0556C401.051 18.6599 399.564 16.4666 397.772 14.5433C397.265 13.9697 396.69 13.4298 396.149 12.89C394.019 10.8992 391.551 9.24578 388.948 7.86235C388.474 7.62615 388.001 7.38995 387.527 7.15376C387.054 6.9513 386.581 6.71511 386.107 6.51265C383.132 5.26419 380.056 4.42063 376.877 3.81327C376.1 3.6783 375.322 3.54333 374.545 3.40836C371.231 2.90222 367.85 2.66603 364.503 2.5648C363.793 2.53106 363.083 2.53106 362.339 2.53106C361.967 2.53106 361.562 2.53106 361.19 2.53106C358.383 2.49731 355.577 2.5648 352.771 2.73351C351.655 2.801 350.54 2.90222 349.424 3.00345C345.434 3.40836 341.479 4.04946 337.59 5.09547C337.557 5.09547 337.489 5.12922 337.455 5.12922C336.001 5.53412 334.581 5.97278 333.195 6.47891C324.405 9.78566 316.797 15.5556 312.064 23.3838C311.286 24.6323 310.61 25.9482 310.002 27.2979C309.427 27.3992 308.852 27.5341 308.277 27.6354C308.649 26.3531 309.156 25.0709 309.765 23.7887C309.9 23.485 310.069 23.1814 310.205 22.8777C312.064 19.301 314.566 16.0955 317.507 13.3286C322.545 8.60468 328.732 5.29793 335.258 3.23965C336.745 2.76725 338.233 2.36235 339.754 2.02492C340.329 1.88995 340.904 1.75498 341.512 1.65376C344.893 0.97891 348.308 0.54026 351.723 0.270321C352.839 0.169094 353.988 0.101609 355.104 0.0678669C357.876 -0.0671024 360.683 -0.0671024 363.455 0.000382278C364.537 0.0341246 365.653 0.067867 366.734 0.135352C366.971 0.135352 367.174 0.169094 367.377 0.169094C370.487 0.337806 373.598 0.675229 376.675 1.21511C377.452 1.35008 378.264 1.51879 379.041 1.6875C382.152 2.36235 385.195 3.30713 388.102 4.62308C389.083 5.06173 390.029 5.53412 390.942 6.04026C391.348 6.24271 391.754 6.47891 392.126 6.71511C394.357 8.03106 396.419 9.5832 398.211 11.3378C398.786 11.9114 399.361 12.485 399.868 13.0924C401.694 15.1507 403.215 17.4114 404.432 19.8746C404.838 20.6507 405.176 21.4605 405.514 22.3041C405.852 23.1814 406.157 24.0587 406.427 24.9697C406.934 26.6231 407.34 28.3439 407.644 30.0311C407.813 30.9084 407.949 31.7857 408.084 32.6967C408.321 34.2151 408.523 35.7673 408.692 37.2857C408.828 38.3992 408.929 39.5127 409.031 40.6262C409.132 41.5372 409.2 42.482 409.301 43.393C409.538 46.1599 409.741 48.9268 409.876 51.6936C409.876 51.8286 409.876 51.9636 409.91 52.0985C409.943 52.7396 409.977 53.347 410.011 53.9881C410.112 56.6538 410.18 59.2857 410.214 61.9513C410.281 62.8624 410.281 63.7734 410.281 64.7182Z" fill="#282828"/>
<path d="M196.535 38.2305C195.318 40.1875 194.101 42.1446 192.918 44.1354C191.701 46.1599 190.551 48.2182 189.503 50.344C187.238 54.8317 185.277 59.4544 183.383 64.0771C183.011 65.0219 182.606 65.9667 182.234 66.9452C181.591 67.2489 180.949 67.5188 180.307 67.8225C180.543 66.9114 180.78 66.0341 181.05 65.1231C182.673 59.7243 184.871 54.4943 187.441 49.4667C187.812 48.7581 188.151 48.0832 188.522 47.3746C189.604 45.3164 190.754 43.2581 191.971 41.2673C193.492 40.1875 195.014 39.1753 196.535 38.2305Z" fill="#282828"/>
<path d="M217.836 27.0957C217.092 28.0405 216.348 28.9853 215.638 29.9301C215.097 30.6386 214.556 31.3472 214.015 32.0558C211.547 35.2951 209.113 38.6018 206.814 41.9423C204.143 45.8227 201.709 49.8043 199.511 53.9883C198.767 55.3718 198.125 56.7552 197.482 58.2061C197.077 59.1509 196.671 60.1294 196.299 61.108C195.69 61.3442 195.048 61.5804 194.439 61.8503C194.642 60.9393 194.879 60.0282 195.183 59.1509C197.212 52.6724 200.999 46.5988 204.751 41.0988C206.307 38.8043 207.93 36.5098 209.586 34.2828C210.837 32.562 212.122 30.8411 213.407 29.154C214.32 28.7153 215.232 28.3104 216.145 27.9055C216.686 27.5681 217.261 27.3319 217.836 27.0957Z" fill="#282828"/>
<path d="M239.07 18.8965C237.684 20.4149 236.331 21.9333 235.013 23.4854C231.192 27.9394 227.541 32.5621 224.329 37.5223C221.523 41.8413 218.919 46.3965 216.62 51.0529C216.113 52.0652 215.606 53.0775 215.132 54.0897C214.389 54.3597 213.611 54.6296 212.867 54.8996C213.239 53.921 213.611 52.9425 214.017 51.964C216.282 46.5315 218.987 41.3014 222.097 36.2063C224.363 32.5284 226.763 28.9517 229.4 25.51C230.584 23.9578 231.834 22.4394 233.119 20.9548C235.114 20.2462 237.109 19.5713 239.07 18.8965Z" fill="#282828"/>
<path d="M253.64 14.5098C252.457 15.8932 251.239 17.2766 250.09 18.6938C250.022 18.7613 249.955 18.8288 249.921 18.93C247.149 22.3717 244.545 25.9822 242.145 29.6938C239.71 33.4055 237.58 37.2858 235.417 41.1662C234.673 42.5159 233.963 43.8993 233.286 45.3165C232.813 46.295 232.34 47.2398 231.866 48.2184C231.19 48.4546 230.514 48.6907 229.838 48.8932C230.108 47.9822 230.446 47.0374 230.818 46.1601C231.63 44.0681 232.61 42.0435 233.523 40.0865C235.417 35.9699 237.749 32.0558 240.184 28.2429C242.009 25.4085 243.937 22.6079 245.965 19.9085C246.608 19.0312 247.284 18.1877 247.96 17.3104C248.366 16.7705 248.805 16.2644 249.211 15.7245C250.665 15.3196 252.152 14.9147 253.64 14.5098Z" fill="#282828"/>
<path d="M271.425 10.3252C270.343 11.5737 269.294 12.8559 268.246 14.1381C266.454 16.3988 264.696 18.6933 263.04 21.0215C258.949 26.7915 255.263 32.9326 251.916 39.2086C251.375 40.2546 250.834 41.3007 250.293 42.3467C249.752 42.5154 249.211 42.6841 248.637 42.8528C249.076 41.8405 249.482 40.862 249.955 39.8497C253.133 32.8313 257.055 26.1841 261.484 19.8068C262.668 18.1197 263.851 16.4663 265.102 14.8467C266.083 13.5645 267.097 12.2823 268.111 11.0338C269.227 10.7976 270.343 10.5614 271.425 10.3252Z" fill="#282828"/>
<path d="M287.281 7.82812C286.943 8.33426 286.604 8.80665 286.266 9.27904C285.759 9.95389 285.286 10.595 284.779 11.2698C284.103 12.1809 283.46 13.0582 282.784 13.9692C280.519 17.1073 278.321 20.3128 276.191 23.5521C274.095 26.7238 272.168 30.0306 270.477 33.4723C269.902 34.6533 269.328 35.8343 268.82 37.0152C268.212 37.184 267.57 37.3527 266.961 37.5214C267.333 36.3741 267.739 35.2606 268.144 34.1471C269.7 30.1318 271.66 26.2514 273.892 22.506C275.988 18.9293 278.389 15.5551 280.891 12.2484C281.026 12.0797 281.161 11.8772 281.296 11.7085C282.175 10.5275 283.088 9.38027 283.967 8.19929C284.88 8.09806 285.759 7.96309 286.672 7.89561C286.909 7.89561 287.112 7.86187 287.281 7.82812Z" fill="#282828"/>
<path d="M339.789 2.05859C339.045 3.07086 338.301 4.08313 337.591 5.0954C336.611 6.47884 335.698 7.89602 334.785 9.34694C332.52 12.9236 330.694 16.669 328.97 20.4819C328.429 21.6966 327.888 22.9451 327.347 24.1598C326.536 24.2948 325.724 24.4298 324.879 24.5647C325.217 23.35 325.623 22.1353 326.062 20.9206C327.719 16.3653 329.984 12.0126 332.351 7.92976C332.621 7.45737 332.926 6.98497 333.196 6.51258C333.872 5.43283 334.548 4.35307 335.258 3.30706C336.78 2.83467 338.268 2.42976 339.789 2.05859Z" fill="#282828"/>
<path d="M355.138 0.101562C354.327 0.978863 353.549 1.85616 352.738 2.73346C352.501 3.0034 352.264 3.27334 352.028 3.54328C349.763 6.14144 347.633 8.87457 345.638 11.6752C343.947 14.0371 342.392 16.4666 340.837 18.896C340.093 20.1108 339.349 21.3255 338.572 22.5065C337.726 22.6077 336.847 22.7427 336.002 22.8439C336.577 21.6292 337.219 20.4144 337.895 19.2335C339.653 16.0954 341.648 13.0924 343.711 10.258C345.502 7.76107 347.396 5.36537 349.357 3.0034C349.661 2.63224 349.999 2.26107 350.303 1.85616C350.743 1.31629 351.216 0.810151 351.656 0.304016C352.873 0.236532 353.989 0.169047 355.138 0.101562Z" fill="#282828"/>
<path d="M366.769 0.169454C366.735 0.203197 366.701 0.236939 366.701 0.270681C365.957 1.04675 365.213 1.82283 364.503 2.5989C362.373 4.85964 360.277 7.15412 358.249 9.51608C355.95 12.1817 353.786 14.9486 351.757 17.8504C350.98 18.9639 350.202 20.1112 349.458 21.2584C348.748 21.3259 348.038 21.4271 347.328 21.4946C347.971 20.3474 348.613 19.2001 349.323 18.0529C351.351 14.7461 353.651 11.5744 356.119 8.50381C357.742 6.44553 359.432 4.48847 361.19 2.56516C361.934 1.7216 362.712 0.911786 363.489 0.10197C364.571 0.0682273 365.653 0.135712 366.769 0.169454Z" fill="#282828"/>
<path d="M379.076 1.72142C378.332 2.39626 377.554 3.10485 376.81 3.81344C376.777 3.84718 376.709 3.88093 376.675 3.94841C374.072 6.44534 371.57 9.11099 369.203 11.8441C367.749 13.5312 366.363 15.2521 365.011 17.0404C364.233 18.0527 363.456 19.0987 362.678 20.1447C362.069 20.1785 361.427 20.2122 360.818 20.246C361.495 19.1999 362.171 18.1539 362.915 17.1079C364.436 14.9484 366.025 12.8226 367.749 10.7644C369.879 8.19994 372.111 5.7705 374.478 3.40853C374.816 3.07111 375.154 2.73369 375.492 2.39626C375.898 2.0251 376.269 1.62019 376.675 1.24902C377.52 1.41774 378.298 1.5527 379.076 1.72142Z" fill="#282828"/>
<path d="M391.01 6.07387C390.638 6.37755 390.3 6.68123 389.962 6.98491C389.624 7.28859 389.286 7.59227 388.914 7.86221C386.48 9.98798 384.079 12.1137 381.746 14.3745C380.563 15.5217 379.413 16.7027 378.298 17.9174C377.486 18.7947 376.641 19.672 375.863 20.5831C375.086 20.4481 374.274 20.3806 373.463 20.3131C374.207 19.3683 374.951 18.4236 375.728 17.5125C377.114 15.8591 378.534 14.2395 379.988 12.6536C381.949 10.5616 383.944 8.50331 386.04 6.54626C386.716 5.90515 387.426 5.29779 388.136 4.69043C389.117 5.09534 390.064 5.56773 391.01 6.07387Z" fill="#282828"/>
<path d="M399.935 13.1257C399.834 13.1932 399.766 13.2269 399.665 13.2944C399.022 13.6993 398.38 14.1042 397.737 14.5429C395.946 15.7239 394.154 16.9386 392.429 18.2208C390.874 19.3343 389.319 20.4815 387.797 21.6625C386.986 22.3036 386.141 22.9447 385.329 23.5858C384.822 23.3159 384.281 23.0459 383.74 22.8097C384.518 22.1012 385.329 21.3926 386.141 20.684C387.764 19.2668 389.454 17.9171 391.178 16.5674C392.801 15.3189 394.458 14.0705 396.115 12.8895C396.825 12.3834 397.535 11.8772 398.278 11.3711C398.853 11.9447 399.428 12.5183 399.935 13.1257Z" fill="#282828"/>
<path d="M405.583 22.3044C404.805 22.7094 404.027 23.1143 403.25 23.5192C402.438 23.9578 401.627 24.3627 400.816 24.7676C398.652 25.8811 396.522 26.9946 394.392 28.1419C393.614 28.5468 392.87 28.9517 392.093 29.3903C391.653 28.783 391.214 28.2431 390.74 27.7032C391.484 27.1971 392.228 26.7247 393.006 26.2523C395.203 24.8689 397.468 23.5529 399.734 22.3382C400.545 21.8995 401.39 21.4609 402.236 21.0222C403.013 20.6511 403.757 20.2462 404.535 19.875C404.907 20.6848 405.278 21.4946 405.583 22.3044Z" fill="#282828"/>
<path d="M408.186 32.6968C407.375 33.0342 406.563 33.3716 405.752 33.7091C404.501 34.2489 403.216 34.7551 401.999 35.3287C400.748 35.9023 399.497 36.4759 398.212 37.0496C397.435 37.4207 396.657 37.7581 395.846 38.1293C395.676 37.3532 395.44 36.5772 395.203 35.8348C395.947 35.4299 396.725 35.0588 397.502 34.6876C398.652 34.114 399.801 33.5741 400.985 33.068C402.405 32.4269 403.858 31.7858 405.312 31.1446C406.124 30.7735 406.935 30.4361 407.747 30.0986C407.916 30.9422 408.051 31.8195 408.186 32.6968Z" fill="#282828"/>
<path d="M409.403 43.3934C408.558 43.7646 407.679 44.1695 406.833 44.5744C405.312 45.283 403.757 45.9915 402.235 46.7001C401.356 47.105 400.511 47.4762 399.666 47.8811C398.787 48.3198 397.908 48.7247 397.029 49.1633C397.029 48.3198 396.995 47.4425 396.961 46.5989C397.806 46.0928 398.651 45.6204 399.497 45.148C399.97 44.878 400.443 44.6419 400.917 44.3719C402.776 43.3934 404.703 42.4823 406.664 41.6725C407.51 41.3014 408.321 40.9639 409.166 40.5928C409.234 41.5376 409.335 42.4486 409.403 43.3934Z" fill="#282828"/>
<path d="M410.078 53.9878C409.199 54.359 408.286 54.7639 407.407 55.1688C407.137 55.3038 406.832 55.405 406.562 55.54C404.195 56.586 401.828 57.6658 399.462 58.7455C398.515 59.1842 397.535 59.6228 396.588 60.0615C396.622 59.3529 396.689 58.6105 396.723 57.902C397.67 57.3958 398.65 56.9234 399.597 56.4173C401.626 55.405 403.654 54.4602 405.717 53.5492C406.257 53.313 406.765 53.0768 407.306 52.8406C408.185 52.4694 409.064 52.0645 409.943 51.6934C409.943 51.8283 409.943 51.9633 409.977 52.0983C410.044 52.7394 410.078 53.3467 410.078 53.9878Z" fill="#282828"/>
<path d="M410.281 64.718C409.368 65.1229 408.455 65.4941 407.543 65.899C406.968 66.1352 406.393 66.4052 405.818 66.6414C403.418 67.6536 401.017 68.7671 398.617 69.8469C397.67 70.2855 396.723 70.6904 395.811 71.1291C395.878 70.353 395.946 69.6107 395.98 68.8346C396.926 68.3285 397.873 67.8561 398.82 67.3837C400.916 66.3377 403.046 65.3254 405.142 64.3131C405.954 63.9082 406.731 63.5371 407.543 63.1659C408.455 62.761 409.334 62.3561 410.247 61.9512C410.281 62.8622 410.281 63.7733 410.281 64.718Z" fill="#282828"/>
<path d="M410.146 72.0068C410.112 72.9179 410.078 73.8627 410.044 74.7737C409.098 75.2124 408.151 75.6173 407.238 76.0559C406.528 76.3933 405.818 76.697 405.108 77.0344C402.64 78.2154 400.172 79.3964 397.704 80.5774C396.757 81.0498 395.777 81.4884 394.83 81.9608C394.898 81.2522 394.965 80.5774 395.033 79.8688C395.98 79.3627 396.96 78.8228 397.907 78.3167C400.003 77.2032 402.133 76.1234 404.263 75.0436C405.277 74.5038 406.325 73.9976 407.34 73.4578C408.286 72.9516 409.199 72.4792 410.146 72.0068Z" fill="#282828"/>
<path d="M409.538 83.209C409.471 84.0188 409.403 84.8624 409.369 85.6722C408.355 86.1108 407.341 86.5157 406.36 86.9544C405.752 87.2243 405.143 87.4943 404.534 87.7642C401.83 88.9789 399.193 90.2611 396.522 91.5433C395.541 92.0157 394.561 92.4881 393.58 92.9605C393.648 92.3532 393.715 91.7795 393.783 91.1722C394.763 90.5986 395.744 90.0587 396.758 89.5525C399.091 88.3041 401.458 87.1231 403.824 85.9759C404.737 85.5035 405.684 85.0648 406.597 84.6262C407.577 84.12 408.558 83.6814 409.538 83.209Z" fill="#282828"/>
<path d="M408.558 94.3438C408.456 95.2885 408.321 96.2671 408.186 97.2118C407.036 97.7855 405.887 98.3928 404.737 98.9664C404.703 99.0002 404.636 99.0002 404.602 99.0339C401.39 100.687 398.178 102.374 394.898 103.96C393.884 104.466 392.87 104.939 391.855 105.411C391.957 104.635 392.092 103.859 392.194 103.083C393.208 102.509 394.222 101.936 395.27 101.362C398.076 99.8437 400.916 98.3928 403.723 96.9082C404.23 96.6382 404.703 96.402 405.21 96.1321C406.326 95.5247 407.442 94.9511 408.558 94.3438Z" fill="#282828"/>
<path d="M407.273 102.948C407.104 103.927 406.901 104.905 406.698 105.884C405.988 106.255 405.278 106.626 404.534 107.031C403.993 107.301 403.486 107.605 402.979 107.875C399.801 109.595 396.656 111.384 393.546 113.206C392.464 113.813 391.382 114.454 390.334 115.062C390.435 114.488 390.537 113.914 390.604 113.341C391.686 112.599 392.768 111.89 393.85 111.181C397.062 109.089 400.342 107.099 403.621 105.141C403.655 105.108 403.689 105.108 403.723 105.074C404.906 104.365 406.089 103.657 407.273 102.948Z" fill="#282828"/>
<path d="M168.643 267.105C167.73 267.071 166.817 267.004 165.904 266.97C165.33 266.936 164.789 266.903 164.214 266.869C162.929 266.768 161.644 266.666 160.393 266.531C159.988 266.498 159.582 266.464 159.176 266.396C158.162 266.295 157.114 266.16 156.1 266.025C155.051 265.89 154.003 265.722 152.955 265.553C152.245 265.452 151.535 265.317 150.825 265.182C150.487 265.114 150.149 265.047 149.845 264.979C145.652 264.136 141.392 262.887 137.775 260.559C134.326 258.298 131.79 255.127 129.424 251.786C124.724 245.105 119.788 238.964 113.398 233.801C107.143 228.74 100.009 224.725 92.4357 221.958C89.9676 221.081 87.4995 220.338 84.9637 219.731C83.8818 219.461 82.7661 219.225 81.6504 219.022C76.748 218.077 71.7779 217.639 66.7403 217.605C56.9354 217.538 47.1644 218.719 37.3258 218.921C30.7328 219.056 20.218 219.798 16.0256 213.32C15.0451 211.768 14.8761 209.642 15.417 207.719C15.5861 207.077 15.8227 206.47 16.1608 205.896C16.7018 205.964 17.2427 205.998 17.7837 206.065C17.4456 206.605 17.1751 207.246 17.0399 207.921C16.837 208.731 16.8032 209.574 16.9046 210.317C17.4456 214.062 21.638 215.648 24.8837 216.222C29.1438 216.998 33.7081 216.762 38.0019 216.66C47.5701 216.357 57.1045 215.209 66.7065 215.209C71.9808 215.209 77.2213 215.716 82.3266 216.694C83.4085 216.896 84.4904 217.133 85.5723 217.403C94.5995 219.562 103.187 223.308 110.963 228.74C117.083 232.992 122.56 238.154 127.158 244.059C129.66 247.265 131.723 250.841 134.394 253.946C137.166 257.219 140.547 259.479 144.604 260.863C146.633 261.538 148.695 262.111 150.791 262.55C151.468 262.685 152.11 262.82 152.786 262.921C153.699 263.09 154.612 263.225 155.525 263.36C156.505 263.495 157.52 263.63 158.5 263.731C158.872 263.765 159.278 263.798 159.65 263.832C160.867 263.967 162.118 264.068 163.335 264.136C163.808 264.169 164.248 264.203 164.721 264.237C165.6 264.304 166.479 264.338 167.358 264.372C167.764 265.249 168.203 266.194 168.643 267.105Z" fill="#282828"/>
<path d="M378.67 187.574C378.603 188.789 378.569 190.004 378.501 191.218C378.467 192.332 378.4 193.445 378.366 194.525C377.453 214.804 376.54 235.083 375.594 255.329C375.154 264.878 375.019 274.562 374.005 284.111C373.193 291.737 371.232 299.599 365.451 305.031C358.621 311.442 349.391 312.758 340.127 312.353C337.625 312.252 335.09 312.016 332.621 311.712C329.105 311.307 325.69 310.734 322.478 310.295C321.971 310.227 321.464 310.16 320.957 310.059C318.658 309.721 316.359 309.35 314.026 308.979C310.442 308.405 306.858 307.73 303.308 306.988C302.26 306.786 301.246 306.55 300.198 306.313C299.488 306.145 298.778 305.976 298.068 305.807C295.093 305.099 292.151 304.289 289.243 303.378C287.992 302.973 286.775 302.568 285.558 302.163C282.583 301.117 279.675 299.936 276.801 298.62C275.28 297.911 273.759 297.169 272.271 296.359C264.224 292.04 257.395 286.034 249.956 280.838C242.89 275.878 235.215 272.335 226.831 270.344C224.633 269.804 222.435 269.399 220.204 269.028C219.021 268.826 217.871 268.657 216.688 268.522C216.383 267.577 216.079 266.599 215.809 265.654C216.992 265.789 218.175 265.924 219.359 266.092C226.898 267.172 234.269 269.096 241.2 272.369C249.044 276.08 255.67 281.648 262.635 286.743C266.76 289.78 271.088 292.445 275.584 294.706C277.714 295.786 279.912 296.798 282.143 297.675C283.124 298.08 284.138 298.451 285.152 298.823C285.186 298.823 285.22 298.856 285.254 298.856C288.026 299.835 290.833 300.712 293.673 301.522C294.991 301.893 296.344 302.231 297.696 302.568C298.609 302.804 299.555 303.007 300.502 303.209C302.801 303.715 305.134 304.188 307.467 304.626C308.245 304.761 308.988 304.896 309.766 305.031C310.882 305.234 311.997 305.436 313.113 305.605C315.074 305.942 317.069 306.28 319.064 306.583C323.662 307.292 328.294 307.899 332.892 308.372C333.331 308.405 333.737 308.473 334.177 308.507C341.175 309.181 348.512 309.384 355.24 307.056C362.306 304.626 366.905 299.025 368.832 291.905C371.029 283.841 370.725 275.102 371.063 266.801C371.469 257.016 371.908 247.23 372.382 237.479C372.855 227.694 373.295 217.908 373.734 208.157C374.005 202.184 374.072 196.178 374.512 190.206C374.579 189.16 374.681 188.08 374.748 187.034C376.033 187.135 377.352 187.304 378.67 187.574Z" fill="#282828"/>
<path d="M230.852 243.688C226.187 244.532 221.487 245.004 216.754 245.443C215.604 245.544 214.421 245.679 213.271 245.78C213.102 245.814 212.899 245.814 212.73 245.847C211.547 245.949 210.397 246.084 209.214 246.185C207.659 246.354 206.07 246.489 204.515 246.657C203.5 246.759 202.486 246.86 201.438 246.961C199.342 247.163 197.279 247.366 195.183 247.535C194.203 247.636 193.188 247.703 192.208 247.805C190.686 247.94 189.165 248.074 187.61 248.209C185.852 248.344 184.127 248.513 182.369 248.648C182.335 248.648 182.268 248.648 182.234 248.648C180.881 248.749 179.529 248.851 178.177 248.986C176.25 249.12 174.289 249.289 172.361 249.424C171.415 249.492 170.434 249.559 169.488 249.627C168.541 249.694 167.594 249.762 166.648 249.829C165.16 249.93 163.672 250.032 162.151 250.133C161.542 250.166 160.934 250.2 160.325 250.234C157.756 250.335 155.186 250.369 152.65 250.133C152.278 250.099 151.94 250.065 151.568 250.032C151.433 250.032 151.298 249.998 151.163 249.998C150.622 249.93 150.385 249.12 151.027 248.952C151.264 248.884 151.501 248.817 151.737 248.783C152.042 248.716 152.346 248.648 152.65 248.581C155.017 248.074 157.451 247.771 159.886 247.501C160.393 247.467 160.866 247.4 161.373 247.366C163.74 247.163 166.14 247.028 168.439 246.86C168.507 246.86 168.541 246.86 168.609 246.86C169.521 246.792 170.468 246.725 171.381 246.657C173.342 246.489 175.303 246.354 177.264 246.185C178.582 246.084 179.901 245.982 181.253 245.847C183.079 245.679 184.905 245.544 186.731 245.375C188.286 245.24 189.841 245.105 191.363 244.97C192.377 244.869 193.425 244.768 194.439 244.7C196.062 244.565 197.685 244.397 199.308 244.228C199.714 244.194 200.119 244.16 200.525 244.093C201.573 243.992 202.587 243.89 203.635 243.789C205.157 243.654 206.678 243.485 208.2 243.317C209.349 243.182 210.533 243.081 211.682 242.946C212.798 242.844 213.914 242.709 215.029 242.574C215.198 242.541 215.401 242.541 215.604 242.507C220.54 241.967 225.477 241.292 230.447 241.056C232.002 240.989 232.34 243.418 230.852 243.688Z" fill="#282828"/>
<path d="M224.835 318.224C223.99 321.295 222.773 324.433 220.88 327.031C218.851 329.798 216.112 328.988 213.441 327.537C210.432 325.918 207.795 323.623 205.259 321.329C202.791 319.102 200.391 316.774 198.058 314.412C197.416 313.737 196.773 313.062 196.131 312.387C195.421 311.645 194.745 310.902 194.035 310.126C186.225 301.522 179.361 291.973 173.546 281.918C170.74 277.093 168.17 272.099 165.905 267.004C165.499 266.093 165.093 265.148 164.722 264.203C164.586 263.832 164.417 263.494 164.282 263.123C162.93 259.715 161.78 256.24 160.867 252.663C160.664 251.853 160.495 251.043 160.326 250.234C160.157 249.323 160.022 248.412 159.887 247.501C160.394 247.467 160.867 247.399 161.374 247.366C161.611 248.31 161.882 249.221 162.152 250.132C163.572 254.991 165.33 259.715 167.359 264.338C167.764 265.283 168.204 266.228 168.643 267.139C171.314 272.841 174.391 278.341 177.738 283.74C182.844 291.905 188.659 299.565 195.049 306.752C195.759 307.562 196.469 308.338 197.179 309.114C198.633 310.7 200.12 312.252 201.642 313.804C203.839 316.065 206.139 318.224 208.471 320.35C210.906 322.543 213.543 324.737 216.586 326.019C218.581 326.862 219.46 324.804 220.305 323.32C221.082 321.97 221.725 320.553 222.198 319.068C223.145 316.132 223.551 313.028 223.72 309.958C224.227 298.823 222.029 287.553 219.088 276.721C218.411 274.224 217.668 271.728 216.924 269.264C216.856 268.994 216.755 268.758 216.687 268.488C216.383 267.543 216.079 266.565 215.808 265.62C213.746 259.108 211.48 252.663 209.249 246.218C208.911 245.24 208.573 244.261 208.269 243.316C209.418 243.182 210.601 243.08 211.751 242.945C212.089 243.924 212.427 244.902 212.731 245.881C213.475 248.04 214.185 250.2 214.929 252.326C215.774 254.823 216.62 257.32 217.397 259.85C218.073 261.908 218.716 264.001 219.324 266.093C219.392 266.295 219.426 266.464 219.493 266.666C219.73 267.442 219.967 268.252 220.17 269.028C220.778 271.154 221.353 273.28 221.894 275.405C221.995 275.777 222.097 276.182 222.164 276.553C223.922 283.774 225.275 291.129 225.883 298.586C226.492 305.065 226.593 311.847 224.835 318.224Z" fill="#282828"/>
<path d="M197.178 309.114C196.84 310.194 196.502 311.307 196.13 312.387C195.454 314.31 194.71 316.233 193.831 318.089C190.585 324.973 182.944 334.387 174.965 327.773C171.55 324.939 169.048 320.62 166.749 316.908C164.214 312.859 161.982 308.608 160.021 304.255C156.099 295.482 153.327 286.236 151.873 276.721C151.298 272.875 150.926 269.028 150.825 265.215C150.791 264.304 150.791 263.427 150.791 262.516C151.467 262.651 152.11 262.786 152.786 262.887C152.853 263.798 152.887 264.675 152.989 265.586C153.361 270.04 153.935 274.494 154.814 278.847C156.539 287.586 159.277 296.19 163.064 304.289C164.957 308.304 167.087 312.218 169.454 315.963C170.637 317.853 171.888 319.675 173.207 321.463C174.424 323.151 175.743 324.939 177.467 326.154C181.49 329.022 185.311 325.884 187.914 322.712C190.416 319.641 192.107 315.963 193.391 312.252C193.628 311.543 193.865 310.835 194.101 310.126C194.439 309.013 194.778 307.899 195.082 306.752C195.724 307.528 196.434 308.304 197.178 309.114Z" fill="#282828"/>
<path d="M338.503 327.064C330.828 330.911 321.632 328.515 314.194 325.276C302.867 320.35 293.299 311.88 285.557 302.163C284.373 300.678 283.258 299.193 282.176 297.675C283.156 298.08 284.171 298.451 285.185 298.822C285.219 298.822 285.252 298.856 285.286 298.856C286.571 300.408 287.89 301.926 289.242 303.377C291.135 305.436 293.063 307.426 295.091 309.316C300.94 314.782 307.567 319.54 314.971 322.678C321.666 325.512 330.49 327.908 337.32 324.129C338.773 323.319 340.768 322.003 341.208 320.282C341.715 318.258 339.72 316.233 338.334 315.052C336.677 313.635 334.682 312.589 332.654 311.712C330.828 310.936 328.935 310.294 327.143 309.62C324.472 308.607 321.767 307.595 319.096 306.583C323.694 307.291 328.326 307.899 332.924 308.371C333.364 308.54 333.77 308.742 334.209 308.911C336.238 309.788 338.334 310.902 340.16 312.353C341.816 313.669 343.169 315.255 343.98 317.212C345.671 321.598 342.188 325.242 338.503 327.064Z" fill="#282828"/>
<path d="M86.9247 211.092C86.5528 213.184 86.1133 215.276 85.6061 217.335C85.4033 218.111 85.2004 218.92 84.9638 219.696C83.8818 219.427 82.7661 219.19 81.6504 218.988C81.8871 218.212 82.1237 217.402 82.3604 216.626C84.4228 209.27 85.7076 201.779 86.2147 194.086C86.5528 189.092 86.5866 184.065 86.4852 179.071C86.4514 177.991 86.4514 176.877 86.4176 175.73C86.3838 174.887 86.3499 174.043 86.2823 173.166C86.7895 172.795 87.2628 172.39 87.7362 172.019C87.9052 172.828 88.0066 173.638 88.1081 174.448C88.2771 176.034 88.3447 177.586 88.4462 179.104C89.0209 189.767 88.8181 200.565 86.9247 211.092Z" fill="#282828"/>
<path d="M204.988 304.559C200.458 301.218 196.468 297.338 192.817 293.086C186.156 285.325 180.814 276.62 176.52 267.375C174.255 262.482 172.226 257.488 170.435 252.393C170.096 251.482 169.792 250.537 169.488 249.626C169.184 248.681 168.913 247.77 168.643 246.825C169.555 246.758 170.502 246.691 171.415 246.623C171.719 247.568 172.057 248.479 172.362 249.424C172.801 250.706 173.207 251.988 173.646 253.27C177.027 263.089 181.321 272.503 186.697 281.411C191.802 289.847 198.125 297.405 205.326 304.154C205.563 304.322 205.259 304.761 204.988 304.559Z" fill="#282828"/>
<path d="M207.051 297C203.264 293.525 200.052 289.509 197.009 285.393C191.6 278.071 187.002 270.108 183.147 261.841C181.22 257.724 179.563 253.574 178.245 249.221C178.211 249.12 178.177 249.052 178.177 248.951C177.907 248.006 177.603 247.062 177.332 246.117C178.651 246.015 179.969 245.914 181.322 245.779C181.626 246.724 181.93 247.669 182.268 248.614C182.37 248.951 182.505 249.288 182.64 249.626C185.717 257.994 188.929 266.227 193.155 274.055C197.415 281.951 202.656 289.104 207.626 296.528C207.862 296.899 207.355 297.27 207.051 297Z" fill="#282828"/>
<path d="M210.636 289.813C205.023 281.007 200.662 271.592 196.976 261.841C195.218 257.218 193.663 252.528 192.277 247.804C192.175 247.467 192.074 247.129 191.973 246.792C191.804 246.184 191.634 245.543 191.432 244.936C192.446 244.835 193.494 244.734 194.508 244.666C194.61 245.105 194.711 245.577 194.846 246.016C194.982 246.522 195.117 247.062 195.252 247.568C196.402 251.988 197.72 256.375 199.208 260.694C202.589 270.546 206.883 280.062 211.447 289.408C211.65 289.881 210.94 290.286 210.636 289.813Z" fill="#282828"/>
<path d="M215.605 286.81C211.447 277.902 208.336 268.555 205.327 259.209C204.009 255.126 202.724 251.043 201.473 246.96C201.27 246.286 201.067 245.611 200.864 244.936C200.763 244.632 200.695 244.328 200.594 244.059C201.608 243.957 202.656 243.856 203.704 243.755C203.738 243.89 203.772 244.025 203.806 244.16C204.042 245.003 204.313 245.847 204.549 246.69C205.699 250.537 206.849 254.35 208.032 258.197C210.94 267.611 214.016 276.991 216.18 286.608C216.214 286.878 215.774 287.114 215.605 286.81Z" fill="#282828"/>
<path d="M175.911 311.948C169.42 304.525 165.16 295.617 161.846 286.405C160.122 281.614 158.702 276.721 157.417 271.795C156.91 269.871 156.471 267.982 156.065 266.058C155.964 265.62 155.862 265.181 155.795 264.709C155.693 264.27 155.592 263.798 155.49 263.325C156.471 263.46 157.485 263.595 158.466 263.696C158.499 263.798 158.499 263.865 158.533 263.966C158.736 264.776 158.939 265.62 159.142 266.429C159.514 267.948 159.886 269.5 160.224 271.018C161.306 275.742 162.489 280.433 163.943 285.022C166.884 294.368 171.043 303.31 176.621 311.408C176.926 311.813 176.249 312.319 175.911 311.948Z" fill="#282828"/>
<path d="M181.83 305.807C174.628 299.16 169.827 290.725 166.007 281.783C164.079 277.261 162.321 272.639 160.834 267.982C160.698 267.51 160.529 267.038 160.394 266.565C160.124 265.654 159.887 264.743 159.65 263.832C160.868 263.967 162.119 264.068 163.336 264.136C163.64 265.013 163.91 265.924 164.181 266.835C164.181 266.869 164.215 266.903 164.215 266.936C165.635 271.458 166.987 276.013 168.678 280.433C172.059 289.307 176.623 297.878 182.202 305.571C182.371 305.74 182.032 305.976 181.83 305.807Z" fill="#282828"/>
<path d="M324.404 321.497C320.854 320.08 317.507 318.224 314.16 316.369C311.151 314.715 308.074 313.062 305.234 311.172C302.732 309.519 300.332 307.731 298.067 305.807C297.796 305.571 297.526 305.335 297.255 305.099C295.937 303.951 294.787 302.737 293.705 301.488C295.024 301.859 296.376 302.197 297.728 302.534C299.52 304.12 301.38 305.605 303.307 306.988C304.457 307.832 305.64 308.642 306.857 309.418C312.74 313.231 319.198 316.369 324.844 320.519C325.283 320.856 325.013 321.767 324.404 321.497Z" fill="#282828"/>
<path d="M333.602 318.427C331.37 318.461 328.801 316.841 326.806 315.964C324.405 314.884 322.073 313.669 319.774 312.387C317.813 311.307 315.919 310.194 314.026 309.047C311.794 307.663 309.597 306.212 307.467 304.66C308.244 304.795 308.988 304.93 309.766 305.065C310.882 305.268 311.997 305.47 313.113 305.639C315.716 307.123 318.32 308.608 320.957 310.093C320.991 310.126 321.025 310.126 321.092 310.16C323.391 311.442 325.69 312.725 327.922 314.074C329.815 315.221 332.52 316.268 333.838 318.056C333.906 318.191 333.771 318.393 333.602 318.427Z" fill="#282828"/>
<path opacity="0.25" d="M397.839 184.301C397.771 186.055 397.602 187.776 397.399 189.497C397.264 190.509 397.095 191.488 396.892 192.466C391.009 190.476 385.025 188.755 378.905 187.574C378.838 187.574 378.77 187.54 378.669 187.54C377.35 187.304 376.031 187.101 374.747 187C374.645 188.046 374.578 189.092 374.51 190.172C374.104 196.144 374.037 202.15 373.732 208.123C373.259 217.908 372.819 227.693 372.38 237.445C371.94 247.23 371.467 257.015 371.061 266.767C370.723 275.068 371.028 283.807 368.83 291.871C366.903 298.991 362.305 304.592 355.238 307.022C348.51 309.35 341.173 309.147 334.175 308.472C333.735 308.439 333.296 308.405 332.89 308.338C328.258 307.865 323.66 307.258 319.062 306.549C317.067 306.245 315.106 305.942 313.111 305.571C311.996 305.368 310.88 305.199 309.764 304.997C308.987 304.862 308.243 304.727 307.465 304.592C305.132 304.153 302.833 303.681 300.5 303.175C299.554 302.972 298.641 302.736 297.694 302.534C296.342 302.196 295.023 301.859 293.671 301.488C290.831 300.712 288.024 299.834 285.252 298.822C285.218 298.822 285.184 298.788 285.151 298.788C284.136 298.417 283.122 298.046 282.142 297.641C279.91 296.73 277.712 295.752 275.582 294.672C271.052 292.377 266.758 289.712 262.633 286.709C255.668 281.614 249.042 276.046 241.198 272.334C234.233 269.061 226.863 267.138 219.357 266.058C218.748 263.966 218.072 261.908 217.43 259.816C216.618 257.319 215.773 254.788 214.962 252.292C214.218 250.132 213.508 247.972 212.764 245.847C212.933 245.813 213.136 245.813 213.305 245.779C214.454 245.678 215.638 245.543 216.787 245.442C221.487 244.969 226.22 244.531 230.886 243.687C232.374 243.417 232.035 240.988 230.514 241.055C225.544 241.292 220.608 241.966 215.672 242.506C215.502 242.54 215.3 242.54 215.097 242.574C213.981 242.709 212.865 242.81 211.75 242.945C210.6 243.08 209.417 243.181 208.267 243.316C206.746 243.485 205.224 243.62 203.703 243.788C202.655 243.89 201.64 243.991 200.592 244.092C200.187 244.126 199.781 244.16 199.375 244.227C197.752 244.396 196.129 244.531 194.507 244.699C193.492 244.801 192.444 244.902 191.43 244.969C189.875 245.104 188.319 245.239 186.798 245.374C184.972 245.543 183.146 245.678 181.321 245.847C180.002 245.948 178.65 246.083 177.331 246.184C175.37 246.353 173.409 246.488 171.448 246.657C170.535 246.724 169.589 246.791 168.676 246.859C168.608 246.859 168.574 246.859 168.507 246.859C166.174 247.028 163.807 247.163 161.441 247.365C160.933 247.399 160.46 247.433 159.953 247.5C157.519 247.736 155.084 248.074 152.718 248.546C152.413 248.614 152.109 248.681 151.805 248.749C151.568 248.816 151.331 248.85 151.095 248.917C150.486 249.086 150.689 249.896 151.23 249.963C151.365 249.997 151.501 249.997 151.636 249.997C152.008 250.031 152.346 250.065 152.718 250.098C155.253 250.301 157.823 250.301 160.393 250.199C160.528 251.009 160.731 251.819 160.933 252.629C161.813 256.172 162.996 259.681 164.348 263.089C164.484 263.46 164.653 263.798 164.788 264.169C164.314 264.135 163.875 264.101 163.402 264.068C162.184 264 160.933 263.899 159.716 263.764C159.344 263.73 158.939 263.696 158.567 263.663C157.552 263.561 156.572 263.426 155.592 263.291C154.679 263.157 153.766 263.022 152.853 262.853C152.177 262.752 151.534 262.617 150.858 262.482C148.762 262.043 146.7 261.503 144.671 260.795C140.614 259.411 137.233 257.15 134.46 253.877C131.823 250.773 129.727 247.23 127.225 243.991C122.661 238.086 117.184 232.923 111.03 228.672C103.254 223.273 94.6663 219.494 85.6391 217.334C84.5572 217.064 83.4753 216.828 82.3933 216.626C77.2881 215.647 72.0814 215.141 66.7732 215.141C57.1712 215.141 47.6369 216.288 38.0687 216.592C33.7411 216.727 29.2105 216.93 24.9505 216.153C21.7048 215.58 17.5124 213.994 16.9714 210.249C16.87 209.506 16.9038 208.663 17.1066 207.853C35.0934 209.54 53.5874 208.022 70.6275 202.353C70.9656 202.252 70.9318 201.847 70.729 201.712C119.922 224.96 174.39 236.972 228.824 236.601C240.691 236.534 252.659 235.859 264.29 238.153C280.586 241.359 296.037 250.233 312.638 249.221C329.374 248.209 344.115 236.939 353.548 223.104C362.947 209.27 367.917 192.939 372.718 176.911C381.204 178.295 389.555 181.298 397.839 184.301Z" fill="#420000"/>
<path opacity="0.26" d="M489.465 152.954C489.194 158.353 488.619 163.752 487.943 169.117C486.658 179.104 485.137 189.598 481.249 198.979C479.592 202.994 477.395 208.224 473.439 210.519C469.585 212.746 464.141 212.071 459.881 211.767C450.55 211.058 441.421 208.696 432.563 205.761C421.473 202.083 410.62 197.325 399.564 193.411C399.734 192.466 399.869 191.522 400.004 190.543C400.241 188.788 400.376 187 400.477 185.246C413.359 189.936 426.173 194.255 439.46 192.196C453.964 189.936 466.508 179.982 474.284 167.565C480.336 157.88 483.751 146.779 485.577 135.476C486.05 136.252 486.523 136.994 486.929 137.804C489.363 142.494 489.735 147.69 489.465 152.954Z" fill="#282828"/>
<path opacity="0.33" d="M241.74 54.8988C226.458 59.7577 211.75 68.6994 197.517 76.0215C163.977 93.2638 138.349 123.092 119.585 155.755C117.387 159.601 115.663 165.371 119.416 167.733C121.647 169.117 124.555 168.307 126.956 167.261C137.639 162.604 146.227 154.304 155.322 147.049C194.879 115.534 248.671 102.577 298.27 112.632C309.833 114.994 321.159 118.503 332.857 120.123C344.555 121.742 356.93 121.27 367.478 116.006C379.887 109.831 388.677 96.9417 389.86 83.1411C390.469 76.2239 389.286 69.273 387.054 62.6933C385.33 57.6994 382.963 52.8405 379.413 48.9264C371.434 40.1871 358.755 37.454 346.922 37.4203C332.113 37.3528 314.972 37.2178 300.434 40.6258C280.858 45.2822 260.91 48.7914 241.74 54.8988Z" fill="white"/>
<path opacity="0.52" d="M161.408 91.881C178.583 75.6847 200.187 63.3687 223.651 60.6356C225.308 60.4332 227.134 60.3319 228.52 61.3105C230.413 62.6264 230.582 65.427 229.872 67.6203C228.216 72.8166 223.212 76.1571 218.445 78.8227C204.312 86.7859 189.165 92.9608 175.675 102.004C162.287 110.979 150.758 122.721 142.001 136.252C138.113 142.292 134.698 148.771 129.66 153.899C126.448 157.172 118.368 160.209 116.948 153.258C116.102 149.074 121.985 143.473 123.98 140.2C130.776 129.099 138.011 118.268 146.295 108.179C150.994 102.442 156.032 96.9424 161.408 91.881Z" fill="white"/>
<path opacity="0.52" d="M328.124 33.5738C331.674 33.0339 335.292 32.5278 338.876 32.9664C340.228 33.1352 341.817 33.675 342.189 34.991C342.358 35.5983 342.189 36.2732 341.952 36.8806C340.634 40.2885 337.32 42.4818 334.007 44.0677C327.685 47.1382 320.855 48.9941 314.059 50.6812C304.491 53.0769 294.889 55.2364 285.253 57.3959C273.758 59.9941 262.229 62.5922 250.463 63.0646C247.927 63.1658 244.851 62.8959 243.634 60.6689C241.436 56.6873 246.44 51.2211 249.821 49.5339C253.844 47.5431 259.321 47.1045 263.649 46.0585C277.274 42.7855 291.035 39.9174 304.829 37.3867C312.538 36.0033 320.314 34.721 328.124 33.5738Z" fill="white"/>
<path opacity="0.52" d="M351.385 36.2058C350.912 37.3193 350.709 38.6352 351.318 39.6812C351.723 40.4236 352.467 40.896 353.211 41.2671C356.998 43.0217 361.427 41.5708 365.585 41.2671C369.473 40.9972 373.395 41.807 377.148 42.8193C378.602 43.2242 380.09 43.6291 381.577 43.4266C383.065 43.2242 384.553 42.1782 384.722 40.6935C384.891 39.3101 383.944 38.0616 382.93 37.0831C378.873 33.1352 373.192 30.942 367.58 30.8745C362.069 30.7395 354.09 30.0647 351.385 36.2058Z" fill="white"/>
<path opacity="0.26" d="M294.55 22.4053C293.806 24.1599 293.062 25.8807 292.318 27.6353C289.986 28.209 287.653 28.7826 285.32 29.3899C280.384 30.6721 275.447 32.0556 270.511 33.5065C269.733 33.7427 268.956 33.9789 268.178 34.1813C262.735 35.801 257.325 37.4881 251.916 39.209L249.955 39.8501C244.883 41.4697 239.846 43.1568 234.808 44.8102C234.301 44.9789 233.794 45.1476 233.287 45.3163C232.61 45.5525 231.934 45.755 231.258 45.9912C231.089 46.0249 230.954 46.0924 230.785 46.1599C226.051 47.7458 221.318 49.3654 216.584 51.0525C215.739 51.3562 214.86 51.6599 214.015 51.9636C208.436 53.9544 202.925 56.0126 197.414 58.2059L196.231 58.6783C195.859 58.8132 195.487 58.982 195.115 59.1169C191.16 60.7028 187.238 62.3562 183.349 64.0771C182.572 64.4145 181.794 64.7519 181.05 65.1231C179.597 65.7979 178.143 66.4728 176.689 67.1476C176.418 67.2826 176.114 67.4175 175.844 67.5525C172.632 69.0709 169.454 70.7243 166.377 72.4451C167.425 70.6231 168.507 68.801 169.724 67.0801C172.936 62.3899 176.723 58.1047 180.78 54.1568C182.369 52.6047 184.026 51.0863 185.75 49.6691C187.069 51.3225 188.928 52.5372 191.227 53.0433C195.961 54.0893 200.795 52.4359 205.36 50.7826C234.233 40.4237 263.174 30.1323 292.961 22.7764C293.468 22.6077 294.009 22.5065 294.55 22.4053Z" fill="#282828"/>
<path opacity="0.26" d="M223.685 309.923C223.55 312.994 223.11 316.098 222.163 319.034C221.69 320.518 221.048 321.936 220.27 323.285C219.425 324.77 218.546 326.828 216.551 325.985C213.508 324.702 210.871 322.509 208.437 320.316C206.104 318.19 203.838 316.031 201.607 313.77C200.086 312.218 198.598 310.666 197.144 309.08C196.434 308.304 195.724 307.494 195.014 306.718C188.624 299.531 182.809 291.837 177.703 283.705C174.356 278.34 171.28 272.807 168.609 267.104C168.169 266.159 167.73 265.248 167.324 264.304C165.295 259.681 163.537 254.957 162.117 250.098C163.639 249.997 165.126 249.896 166.614 249.794C167.561 249.727 168.507 249.659 169.454 249.592C169.995 249.558 170.57 249.525 171.111 249.457C173.41 255.261 175.945 261.031 179.124 266.429C183.553 273.954 189.334 280.871 196.806 285.393C204.278 289.914 213.576 291.871 221.961 289.475H221.994C223.313 296.258 224.023 303.141 223.685 309.923Z" fill="#282828"/>
<path opacity="0.26" d="M194.034 310.092C193.797 310.801 193.594 311.509 193.324 312.218C192.039 315.93 190.349 319.607 187.847 322.678C185.243 325.85 181.389 328.988 177.4 326.12C175.743 324.939 174.492 323.252 173.275 321.632C174.255 320.518 175.303 319.439 176.149 318.258C178.414 315.12 179.327 311.172 179.259 307.291C179.191 303.445 178.211 299.632 176.994 295.988C174.931 289.813 172.091 283.773 167.696 278.982C165.566 276.653 163.064 274.663 160.258 273.212C158.094 272.064 155.829 271.39 153.496 270.782C153.293 269.061 153.09 267.307 152.955 265.586C154.003 265.755 155.051 265.923 156.099 266.058C157.114 266.193 158.162 266.328 159.176 266.429C159.582 266.463 159.988 266.531 160.393 266.564C161.678 266.699 162.929 266.801 164.214 266.902C164.789 266.936 165.329 266.969 165.904 267.003C168.136 272.132 170.739 277.092 173.545 281.917C179.361 291.939 186.224 301.488 194.034 310.092Z" fill="#282828"/>
<path opacity="0.26" d="M338.064 314.884C332.35 314.31 326.501 313.264 320.854 314.682C319.299 315.086 317.778 315.66 316.628 316.807C315.107 318.326 314.633 320.485 314.836 322.678C307.466 319.54 300.907 314.816 295.091 309.384C293.063 307.494 291.102 305.504 289.242 303.445C292.15 304.356 295.091 305.166 298.067 305.875C298.777 306.043 299.487 306.212 300.197 306.381C301.245 306.617 302.259 306.853 303.307 307.056C306.857 307.798 310.441 308.439 314.025 309.047C316.324 309.418 318.623 309.789 320.956 310.126C321.463 310.194 321.97 310.261 322.477 310.362C325.689 310.835 329.104 311.375 332.62 311.78C334.547 312.556 336.441 313.534 338.064 314.884Z" fill="#282828"/>
<path opacity="0.52" d="M69.3105 188.181C66.6733 189.16 63.9685 189.936 61.2299 190.712C49.5656 194.019 37.7659 197.022 25.7973 198.81C24.3096 199.046 22.653 199.316 21.6387 200.464C22.112 201.78 23.8701 202.049 25.2901 202.016C30.4968 201.914 35.6697 200.97 40.775 200.025C44.7984 199.283 48.8555 198.54 52.8789 197.798C56.6994 197.089 60.5199 196.381 64.239 195.267C72.8943 192.669 80.772 187.945 88.2439 182.884C89.9344 181.737 93.1802 179.543 93.1126 177.181C93.0449 173.976 88.3454 178.126 86.993 179.003C81.4144 182.513 75.5991 185.853 69.3105 188.181Z" fill="white"/>
<path opacity="0.7" d="M297.255 15.6564C297.153 15.9264 297.086 16.1963 296.984 16.4663C296.105 16.4663 295.192 16.5 294.246 16.635C264.561 20.2791 235.079 26.184 206.746 35.6994C207.659 35.1933 208.606 34.7209 209.552 34.2485C210.026 34.0123 210.465 33.7761 210.939 33.5399C211.953 33.0337 212.967 32.5613 213.981 32.089C219.019 29.6933 224.192 27.5337 229.432 25.5429C231.292 24.8344 233.152 24.1595 235.045 23.4847C238.663 22.2025 242.314 21.0215 245.965 19.908C246.405 19.773 246.811 19.638 247.25 19.5031C248.197 19.2331 249.144 18.9294 250.09 18.6595C255.06 17.2423 260.064 15.9601 265.102 14.8129C265.609 14.7117 266.116 14.5767 266.657 14.4755C267.198 14.3405 267.739 14.2393 268.28 14.1043C272.608 13.1932 276.969 12.3159 281.33 11.6748C282.48 11.5061 283.63 11.3374 284.779 11.2362C285.32 11.1687 285.861 11.1012 286.402 11.0675C288.261 10.865 290.155 10.7638 292.048 10.7638C293.434 10.7638 295.057 10.6288 296.342 11.2699C298.1 12.1472 297.762 14.1043 297.255 15.6564Z" fill="#00FFFF"/>
<path opacity="0.7" d="M484.595 134.092C483.141 133.552 481.688 132.979 480.268 132.473C470.699 129.132 460.218 128.997 450.211 130.583C440.203 132.169 430.5 135.341 420.898 138.546C413.257 141.077 405.649 143.608 398.008 146.138C397.467 146.307 396.487 146.779 395.473 147.15C398.042 145.7 400.612 144.249 403.215 142.798C412.445 137.703 421.81 132.844 431.751 129.267C441.657 125.724 452.07 123.396 462.619 123.463C467.826 123.497 473.134 123.835 477.495 126.939C480.2 128.795 482.634 131.325 484.595 134.092Z" fill="#00FFFF"/>
<path opacity="0.7" d="M405.142 30.1996C404.601 29.3898 404.094 28.58 403.553 27.7702C400.848 23.7211 397.433 20.1107 393.308 17.5125C389.792 15.3192 385.802 13.9021 381.813 12.7548C374.273 10.5953 366.463 9.27936 358.619 8.87445C345.805 8.16587 332.856 9.7855 320.617 13.6321C324.336 10.6291 328.596 8.23335 333.194 6.51249C333.972 6.24255 334.716 5.97261 335.527 5.70268C336.17 5.50022 336.812 5.29777 337.454 5.12906C337.488 5.12906 337.556 5.09531 337.59 5.09531C341.478 4.0493 345.434 3.37445 349.423 3.00329C350.539 2.90206 351.655 2.80084 352.77 2.73335C355.577 2.56464 358.383 2.49715 361.189 2.5309C361.561 2.5309 361.967 2.5309 362.338 2.5309C363.048 2.5309 363.758 2.56464 364.502 2.56464C367.849 2.66587 371.23 2.90206 374.544 3.4082C375.321 3.50942 376.099 3.64439 376.877 3.81311C380.021 4.42047 383.131 5.26402 386.107 6.51249C386.58 6.71494 387.053 6.9174 387.527 7.1536C388 7.38979 388.473 7.62599 388.947 7.86218C391.584 9.24562 394.018 10.899 396.148 12.8898C396.723 13.4297 397.264 13.9695 397.771 14.5432C399.563 16.4665 401.051 18.626 402.234 21.0554C402.538 21.6965 402.809 22.3039 403.079 22.9787C403.147 23.1812 403.215 23.3499 403.282 23.5524C404.06 25.6781 404.668 27.9051 405.142 30.1996Z" fill="#00FFFF"/>
<path opacity="0.26" d="M404.094 102.679C403.959 103.489 403.79 104.332 403.621 105.142C403.418 106.053 403.215 106.964 402.978 107.875C402.268 110.676 401.356 113.409 400.037 115.973C398.211 119.617 395.777 122.924 393.005 125.893C392.362 126.602 391.686 127.277 391.01 127.918C391.923 123.025 392.768 118.099 393.545 113.173C393.647 112.498 393.748 111.823 393.85 111.148C394.222 108.752 394.56 106.357 394.898 103.927C394.898 103.927 394.898 103.927 394.898 103.893C395.033 103.05 395.135 102.173 395.27 101.295C395.709 98.0223 396.149 94.7493 396.521 91.4763C396.588 90.8014 396.69 90.1603 396.757 89.4855C397.096 86.4824 397.434 83.5131 397.704 80.51C397.772 79.7677 397.839 79.0253 397.907 78.2493C398.11 75.8873 398.313 73.5591 398.516 71.1971C398.549 70.7247 398.583 70.2523 398.617 69.7462C398.685 68.9364 398.752 68.1266 398.82 67.3168C398.989 65.191 399.192 63.0652 399.327 60.9395C399.327 61.0069 399.327 61.0407 399.361 61.1082C400.274 66.9456 400.612 72.8842 400.409 78.8229C400.24 84.3229 399.564 89.8566 400.578 95.2554C401.085 98.0223 402.201 100.789 404.094 102.679Z" fill="#282828"/>
</g>
<defs>
<linearGradient id="paint0_linear_489_2037" x1="200.724" y1="38.7976" x2="200.724" y2="274.528" gradientUnits="userSpaceOnUse">
<stop stop-color="#FFF970"/>
<stop offset="0.9963" stop-color="#FED212"/>
</linearGradient>
<linearGradient id="paint1_linear_489_2037" x1="351.843" y1="37.2916" x2="351.843" y2="258.811" gradientUnits="userSpaceOnUse">
<stop stop-color="#2F2F2F"/>
<stop offset="0.9963" stop-color="#FED71D"/>
</linearGradient>
<radialGradient id="paint2_radial_489_2037" cx="0" cy="0" r="1" gradientUnits="userSpaceOnUse" gradientTransform="translate(109.337 175.326) scale(9.50515 9.48618)">
<stop stop-color="#FE9300"/>
<stop offset="0.1546" stop-color="#FD8D01"/>
<stop offset="0.3583" stop-color="#FB7D06"/>
<stop offset="0.5894" stop-color="#F7610C"/>
<stop offset="0.8389" stop-color="#F13B16"/>
<stop offset="0.9786" stop-color="#EE231C"/>
</radialGradient>
<linearGradient id="paint3_linear_489_2037" x1="150.08" y1="43.5655" x2="150.08" y2="280.263" gradientUnits="userSpaceOnUse">
<stop stop-color="#2F2F2F"/>
<stop offset="0.9963" stop-color="#FED71D"/>
</linearGradient>
<linearGradient id="paint4_linear_489_2037" x1="204.675" y1="43.5662" x2="204.675" y2="280.263" gradientUnits="userSpaceOnUse">
<stop stop-color="#2F2F2F"/>
<stop offset="0.9963" stop-color="#FED71D"/>
</linearGradient>
<linearGradient id="paint5_linear_489_2037" x1="286.319" y1="43.5658" x2="286.319" y2="280.263" gradientUnits="userSpaceOnUse">
<stop stop-color="#2F2F2F"/>
<stop offset="0.9963" stop-color="#FED71D"/>
</linearGradient>
<linearGradient id="paint6_linear_489_2037" x1="355.126" y1="37.2914" x2="355.126" y2="258.811" gradientUnits="userSpaceOnUse">
<stop stop-color="#2F2F2F"/>
<stop offset="0.9963" stop-color="#FED71D"/>
</linearGradient>
<linearGradient id="paint7_linear_489_2037" x1="394.987" y1="167.759" x2="489.543" y2="167.759" gradientUnits="userSpaceOnUse">
<stop stop-color="#8BADFC"/>
<stop offset="0.9786" stop-color="#2D6FFC"/>
</linearGradient>
<linearGradient id="paint8_linear_489_2037" x1="166.381" y1="41.593" x2="297.656" y2="41.593" gradientUnits="userSpaceOnUse">
<stop stop-color="#8BADFC"/>
<stop offset="0.9786" stop-color="#2D6FFC"/>
</linearGradient>
<linearGradient id="paint9_linear_489_2037" x1="312.072" y1="65.2264" x2="407.571" y2="65.2264" gradientUnits="userSpaceOnUse">
<stop stop-color="#8BADFC"/>
<stop offset="0.9786" stop-color="#2D6FFC"/>
</linearGradient>
<linearGradient id="paint10_linear_489_2037" x1="162.152" y1="286.19" x2="223.772" y2="286.19" gradientUnits="userSpaceOnUse">
<stop stop-color="#8BADFC"/>
<stop offset="0.9786" stop-color="#2D6FFC"/>
</linearGradient>
<linearGradient id="paint11_linear_489_2037" x1="152.935" y1="296.392" x2="194.028" y2="296.392" gradientUnits="userSpaceOnUse">
<stop stop-color="#8BADFC"/>
<stop offset="0.9786" stop-color="#2D6FFC"/>
</linearGradient>
<linearGradient id="paint12_linear_489_2037" x1="289.226" y1="314.741" x2="341.236" y2="314.741" gradientUnits="userSpaceOnUse">
<stop stop-color="#8BADFC"/>
<stop offset="0.9786" stop-color="#2D6FFC"/>
</linearGradient>
<clipPath id="clip0_489_2037">
<rect width="492" height="330" fill="white"/>
</clipPath>
</defs>
</svg>
