<svg width="292" height="478" viewBox="0 0 292 478" fill="none" xmlns="http://www.w3.org/2000/svg">
<g clip-path="url(#clip0_501_872)">
<path d="M47.8131 253.343C30.849 192.001 19.323 124.47 2.35885 63.1278C-0.167728 54.044 -2.1529 42.8371 4.6087 36.3953C7.90528 33.2588 12.5253 32.149 16.9288 31.1477C62.8403 20.737 108.74 10.2539 154.687 0C153.472 5.16313 154.687 16.563 155 18.4087C155.83 23.3065 156.456 26.8169 161.004 29.1814C164.553 31.0391 168.824 31.015 172.674 29.9655C177.162 28.7471 181.397 26.3223 185.439 24.0544C185.09 32.9331 184.862 40.4727 188.074 47.7107C192.405 57.47 200.31 60.0757 209.851 54.9126C210.958 67.169 214.904 79.0152 217.599 90.9821C220.739 104.915 224.048 118.812 227.429 132.697C232.951 155.352 238.75 177.935 244.393 200.554C245.163 203.642 246.041 206.73 246.631 209.855L47.8131 253.343Z" fill="#9E412C"/>
<path d="M292.001 238.107L258.157 295.119L228.801 259.508C228.801 259.508 267.241 231.931 269.166 231.762C271.091 231.593 292.001 238.107 292.001 238.107Z" fill="#E6576E"/>
<path d="M12.502 351.587L69.4702 363.337L89.5746 320.126L71.672 280.812L12.502 351.587Z" fill="#E6576E"/>
<path d="M47.3559 253.379C30.7286 193.907 19.4673 128.439 2.84 68.9541C0.373586 60.1358 -1.57549 49.2666 5.10189 43.0178C8.35035 39.9778 12.8982 38.8921 17.2295 37.915C62.4311 27.7576 105.912 18.5894 151.15 8.58887C150.729 12.1596 151.306 22.2808 151.619 24.0783C152.425 28.8312 154.579 33.548 159.043 35.8401C162.532 37.6375 166.743 37.6013 170.532 36.588C174.96 35.4058 179.123 33.0414 183.105 30.8458C180.928 37.734 178.738 44.4172 181.89 51.438C186.137 60.8958 197.699 65.7573 207.096 60.7389C208.178 72.6214 212.04 84.1057 214.675 95.7107C217.743 109.222 220.992 122.697 224.3 136.147C229.702 158.115 235.381 180.01 240.916 201.941C241.674 204.933 242.528 207.924 243.105 210.952L47.3559 253.379Z" fill="#853725"/>
<path d="M51.5195 261.438C60.9401 311.019 76.9537 409.492 86.3622 459.073C87.5894 465.502 89.3099 472.692 94.9044 476.07C99.9576 479.11 106.37 477.94 112.121 476.661C167.429 464.405 222.725 452.148 278.033 439.892C287.153 437.865 292.832 428.709 290.594 419.613L244.009 221.291L51.5195 261.438Z" fill="#FF617A"/>
<g opacity="0.3">
<path d="M290.606 419.613L244.021 221.291L214.989 227.347L255.932 401.627C258.17 410.723 252.491 419.891 243.371 421.905C190.891 433.534 138.422 445.164 85.9414 456.793C86.0858 457.565 86.2302 458.325 86.3745 459.073C87.6017 465.502 89.3222 472.692 94.9168 476.07C99.9699 479.11 106.383 477.94 112.134 476.661C167.442 464.405 222.737 452.148 278.045 439.892C287.165 437.865 292.844 428.709 290.606 419.613Z" fill="#FF617A"/>
</g>
<path d="M97.7424 228.179L71.5382 233.776C66.3166 234.886 61.1793 231.545 60.0604 226.309L54.4778 200.047C53.3709 194.812 56.7036 189.661 61.9252 188.539L88.1294 182.941C93.351 181.831 98.4884 185.173 99.6073 190.409L105.19 216.683C106.297 221.906 102.964 227.057 97.7424 228.179Z" fill="#BA4C33"/>
<path d="M154.604 216.031L128.4 221.628C123.178 222.738 118.041 219.397 116.922 214.161L111.339 187.887C110.232 182.652 113.565 177.5 118.787 176.379L144.979 170.781C150.2 169.671 155.338 173.013 156.457 178.248L162.039 204.522C163.158 209.77 159.825 214.921 154.604 216.031Z" fill="#BA4C33"/>
<path d="M212.703 203.401L186.499 208.998C181.278 210.108 176.14 206.767 175.021 201.531L169.439 175.257C168.332 170.022 171.665 164.871 176.886 163.749L203.09 158.151C208.312 157.041 213.449 160.383 214.568 165.618L220.151 191.88C221.258 197.128 217.925 202.279 212.703 203.401Z" fill="#BA4C33"/>
<path d="M82.4511 168.2L56.2589 173.797C51.0373 174.907 45.9 171.566 44.7811 166.33L39.1985 140.056C38.0917 134.82 41.4243 129.669 46.6459 128.547L72.8501 122.95C78.0717 121.84 83.2091 125.182 84.328 130.417L89.9105 156.691C91.0054 161.927 87.6727 167.078 82.4511 168.2Z" fill="#BA4C33"/>
<path d="M139.311 156.052L113.107 161.649C107.885 162.759 102.748 159.418 101.629 154.182L96.0462 127.92C94.9393 122.685 98.272 117.534 103.494 116.412L129.698 110.814C134.919 109.705 140.057 113.046 141.176 118.282L146.758 144.544C147.865 149.791 144.532 154.93 139.311 156.052Z" fill="#BA4C33"/>
<path d="M197.41 143.422L171.206 149.019C165.985 150.129 160.847 146.787 159.728 141.552L154.146 115.278C153.039 110.042 156.372 104.891 161.593 103.769L187.797 98.1718C193.019 97.0619 198.156 100.403 199.275 105.639L204.858 131.913C205.965 137.149 202.632 142.3 197.41 143.422Z" fill="#BA4C33"/>
<path d="M70.1192 107.69L43.9872 113.565C38.7777 114.735 33.6042 111.454 32.4372 106.23L26.5779 80.0284C25.4109 74.805 28.6834 69.6177 33.8929 68.4476L60.025 62.5727C65.2345 61.4025 70.408 64.6838 71.575 69.9072L77.4343 96.1089C78.6133 101.332 75.3288 106.52 70.1192 107.69Z" fill="#BA4C33"/>
<path d="M126.848 94.9271L100.716 100.802C95.5062 101.972 90.3327 98.6909 89.1657 93.4674L83.3064 67.2657C82.1394 62.0423 85.4119 56.855 90.6215 55.6849L116.753 49.81C121.963 48.6398 127.136 51.9211 128.304 57.1445L134.163 83.3462C135.33 88.5697 132.057 93.7569 126.848 94.9271Z" fill="#BA4C33"/>
<path d="M147.011 80.4633C148.202 85.6867 153.508 88.9559 158.862 87.7737L185.716 81.8264C191.07 80.6442 194.451 75.4449 193.259 70.2214L191.13 60.8723C187.16 58.9542 183.803 55.6488 181.902 51.4267C179.724 46.5651 180.097 41.8725 181.264 37.1557C179.472 36.468 177.474 36.263 175.453 36.7093L148.587 42.6686C143.233 43.8508 139.852 49.0502 141.044 54.2736L147.011 80.4633Z" fill="#BA4C33"/>
<path d="M12.502 351.588C44.2887 325.977 78.6261 294.383 132.623 252.608C157.985 268.109 221.534 301.091 221.534 301.091C221.534 301.091 249.495 271.873 292.001 238.108L250.782 207.201C202.512 216.466 41.2929 253.911 41.2929 253.911C41.2929 253.911 16.0031 344.326 12.502 351.588Z" fill="#FF6E85"/>
<path d="M178.246 263.38C180.291 262.21 182.697 268.579 183.299 269.726C184.694 272.343 186.583 274.491 189.363 275.649C192.034 276.758 194.849 276.819 197.676 277.132C199.938 277.386 203.499 277.977 203.499 280.824C203.499 285.167 210.201 284.551 210.201 280.233C210.201 276.372 207.506 273.405 204.125 271.861C200.323 270.124 196.076 271.016 192.286 269.557C188.304 268.025 187.871 262.307 184.899 259.484C181.855 256.588 178.029 255.792 174.348 257.879C170.594 260.002 174.504 265.503 178.246 263.38Z" fill="#E6576E"/>
<path d="M258.686 227.455C251.924 224.367 246.643 231.038 246.402 237.299C246.258 241.038 247.148 244.657 245.632 248.24C244.224 251.558 241.614 254.067 238.305 255.418C234.299 257.034 236.621 263.368 240.651 261.739C245.837 259.64 250.084 255.551 252.069 250.255C253.055 247.613 253.38 244.935 253.296 242.124C253.26 240.845 252.418 232.003 255.811 233.559C259.757 235.344 262.632 229.252 258.686 227.455Z" fill="#E6576E"/>
<path d="M50.6529 298.449C49.7265 297.809 50.4845 296.651 51.2906 296.024C52.6381 294.962 55.0444 295.035 56.6566 294.842C59.905 294.456 63.0452 293.792 66.0049 292.344C71.7318 289.534 76.2676 284.841 78.8062 278.966C80.5267 274.985 74.4509 272.09 72.7304 276.083C71.0821 279.895 68.4954 283.019 64.9822 285.251C61.1442 287.676 57.2341 287.736 52.9389 288.52C49.3054 289.184 45.9246 290.74 44.3004 294.275C42.8326 297.483 43.3259 301.537 46.3457 303.624C49.8589 306.073 54.2142 300.934 50.6529 298.449Z" fill="#E6576E"/>
<path d="M87.324 317.473C86.4336 351.19 93.3878 384.968 107.464 415.609C110.015 421.158 118.978 417.876 116.404 412.279C102.628 382.314 95.9625 349.634 96.8287 316.652C96.9009 314.047 94.0254 312.129 91.6673 312.31C88.8519 312.515 87.3962 314.903 87.324 317.473Z" fill="#FFC7D0"/>
</g>
<defs>
<clipPath id="clip0_501_872">
<rect width="292" height="478" fill="white"/>
</clipPath>
</defs>
</svg>
