<svg width="406" height="303" viewBox="0 0 406 303" fill="none" xmlns="http://www.w3.org/2000/svg">
<g clip-path="url(#clip0_489_2125)">
<path fill-rule="evenodd" clip-rule="evenodd" d="M0 148.962L18.8351 134.728C63.1139 95.8871 108.825 59.1432 154.536 22.1785L162.356 15.7786L167.423 11.5856C169.956 9.48912 172.379 7.50296 174.913 5.40645L186.368 1.98584C209.609 -1.87614 234.722 -0.000320274 257.302 5.29611C308.741 17.1027 366.347 45.3504 399.611 86.9494C262.92 106.59 135.26 126.231 0 150.838V148.962Z" fill="#FEE459"/>
<path fill-rule="evenodd" clip-rule="evenodd" d="M139.004 124.577V124.246L399.721 86.9502L399.831 97.3224C400.161 119.06 401.814 140.577 403.686 162.204C404.898 175.224 406.22 188.906 405.889 202.037C405.559 213.071 403.906 224.106 398.289 233.705C385.402 255.774 355.112 262.284 331.871 265.925C311.714 269.125 291.557 272.546 271.29 275.746C243.093 280.27 214.895 284.573 186.698 288.546C186.037 283.801 183.944 279.498 180.529 276.077C176.454 271.994 170.947 269.677 165.109 269.677C159.271 269.677 153.764 271.994 149.688 276.077C145.613 280.16 143.3 285.677 143.3 291.525C143.3 292.518 143.41 293.401 143.52 294.283C134.378 295.387 125.236 296.49 116.094 297.483C98.5803 299.469 80.9569 301.125 63.4436 302.228C50.7768 303 37.1186 303.552 24.3416 302.449C15.7502 301.676 3.19348 299.8 0.439815 289.98L0.109375 288.766V149.845L139.004 124.577ZM220.953 186.589C220.953 180.741 218.64 175.224 214.565 171.141C210.489 167.059 204.982 164.742 199.144 164.742C193.306 164.742 187.799 167.059 183.724 171.141C179.648 175.224 177.335 180.741 177.335 186.589C177.335 192.437 179.648 197.955 183.724 202.037C187.799 206.12 193.306 208.437 199.144 208.437C204.982 208.437 210.489 206.12 214.565 202.037C218.64 197.844 220.953 192.327 220.953 186.589ZM335.285 204.244C335.285 195.748 331.981 187.693 325.923 181.624C319.975 175.665 311.824 172.245 303.343 172.245C294.861 172.245 286.821 175.555 280.763 181.624C274.815 187.582 271.4 195.748 271.4 204.244C271.4 212.74 274.705 220.795 280.763 226.864C286.711 232.823 294.861 236.243 303.343 236.243C311.824 236.243 319.865 232.933 325.923 226.864C331.981 220.795 335.285 212.74 335.285 204.244ZM84.9222 212.63C78.2032 212.63 71.8148 215.278 67.0785 220.023C62.3422 224.768 59.6986 231.168 59.6986 237.898C59.6986 244.629 62.3422 251.029 67.0785 255.774C71.8148 260.519 78.2032 263.167 84.9222 263.167C91.6411 263.167 98.0296 260.519 102.766 255.774C107.502 251.029 110.146 244.629 110.146 237.898C110.146 231.168 107.502 224.768 102.766 220.023C98.0296 215.168 91.6411 212.63 84.9222 212.63Z" fill="#E5AF17"/>
<path fill-rule="evenodd" clip-rule="evenodd" d="M174.032 25.3785C182.954 20.1924 192.206 19.3097 194.52 23.5027C196.943 27.5853 191.546 35.199 182.624 40.385C173.702 45.5711 164.449 46.4539 162.136 42.2609C159.713 38.1782 165 30.5646 174.032 25.3785Z" fill="#FDC103"/>
<path fill-rule="evenodd" clip-rule="evenodd" d="M159.601 97.2116C159.601 88.8256 148.366 82.0947 134.378 82.0947C120.499 82.0947 109.154 88.8256 109.154 97.2116C109.154 105.598 120.389 112.329 134.378 112.329C148.366 112.329 159.601 105.487 159.601 97.2116ZM134.378 91.1428C138.563 91.1428 143.19 91.9152 146.935 93.9014C147.816 94.3427 150.239 95.9979 150.459 97.1013C150.239 98.2047 147.816 99.8598 146.935 100.301C143.19 102.287 138.563 103.06 134.378 103.06C130.192 103.06 125.566 102.287 121.821 100.301C120.94 99.8598 118.517 98.2047 118.296 97.1013C118.517 95.9979 120.94 94.3427 121.821 93.9014C125.566 91.9152 130.302 91.1428 134.378 91.1428Z" fill="#FDC103"/>
<path fill-rule="evenodd" clip-rule="evenodd" d="M292.989 51.4191C292.989 45.7916 285.279 41.1572 275.916 41.1572C266.444 41.1572 258.844 45.7916 258.844 51.4191C258.844 57.0465 266.554 61.6809 275.916 61.6809C285.279 61.6809 292.989 57.1569 292.989 51.4191ZM275.806 50.3156C277.238 50.3156 280.212 50.6467 282.195 51.5294C280.102 52.3018 277.128 52.7432 275.806 52.7432C274.374 52.7432 271.4 52.4121 269.418 51.5294C271.511 50.6467 274.374 50.3156 275.806 50.3156Z" fill="#CF6C03"/>
<path fill-rule="evenodd" clip-rule="evenodd" d="M134.378 89.2666C130.193 89.2666 125.567 90.37 121.822 93.0182C120.94 93.6803 118.517 95.7768 118.297 97.3216C118.517 98.756 120.94 100.963 121.822 101.515C125.567 104.163 130.193 105.266 134.378 105.266C138.564 105.266 143.19 104.163 146.935 101.515C147.816 100.853 150.239 98.756 150.46 97.2112C150.239 95.7768 147.816 93.57 146.935 93.0182C143.3 90.2597 138.564 89.2666 134.378 89.2666Z" fill="#DC7901"/>
<path fill-rule="evenodd" clip-rule="evenodd" d="M275.806 50.0957C274.375 50.0957 271.401 50.5371 269.418 51.5302C271.511 52.5232 274.485 52.9646 275.806 52.9646C277.238 52.9646 280.212 52.5232 282.195 51.5302C280.212 50.4267 277.238 50.0957 275.806 50.0957Z" fill="#AE6619"/>
<path fill-rule="evenodd" clip-rule="evenodd" d="M300.039 51.4197C300.039 43.3647 289.244 36.8545 275.806 36.8545C262.479 36.8545 251.574 43.3647 251.574 51.4197C251.574 59.4747 262.369 65.9849 275.806 65.9849C289.244 65.9849 300.039 59.4747 300.039 51.4197ZM275.806 49.7645C277.789 49.7645 281.975 50.2059 284.949 51.4197C281.975 52.6334 277.789 53.0748 275.806 53.0748C273.824 53.0748 269.638 52.6334 266.664 51.4197C269.638 50.3163 273.824 49.7645 275.806 49.7645Z" fill="#E07F03"/>
<path fill-rule="evenodd" clip-rule="evenodd" d="M199.145 164.741C193.307 164.741 187.8 167.058 183.724 171.141C179.649 175.224 177.336 180.741 177.336 186.589C177.336 192.437 179.649 197.954 183.724 202.037C187.8 206.12 193.307 208.437 199.145 208.437C204.983 208.437 210.49 206.12 214.565 202.037C218.641 197.954 220.954 192.437 220.954 186.589C220.954 180.741 218.641 175.224 214.565 171.141C210.49 167.058 204.983 164.741 199.145 164.741Z" fill="#DC8D01"/>
<path fill-rule="evenodd" clip-rule="evenodd" d="M303.454 172.354C294.973 172.354 286.932 175.665 280.874 181.734C274.926 187.692 271.512 195.857 271.512 204.354C271.512 212.85 274.816 220.905 280.874 226.974C286.822 232.932 294.973 236.353 303.454 236.353C311.935 236.353 319.976 233.043 326.034 226.974C331.982 221.015 335.397 212.85 335.397 204.354C335.397 195.857 332.092 187.802 326.034 181.734C319.976 175.665 311.935 172.354 303.454 172.354Z" fill="#DC8D01"/>
<path fill-rule="evenodd" clip-rule="evenodd" d="M84.9228 212.63C78.2038 212.63 71.8153 215.278 67.079 220.023C62.3427 224.768 59.6992 231.167 59.6992 237.898C59.6992 244.629 62.3427 251.029 67.079 255.774C71.8153 260.518 78.2038 263.167 84.9228 263.167C91.6417 263.167 98.0302 260.518 102.767 255.774C107.503 251.029 110.146 244.629 110.146 237.898C110.146 231.167 107.503 224.768 102.767 220.023C98.0302 215.168 91.6417 212.63 84.9228 212.63Z" fill="#DC8D01"/>
<path fill-rule="evenodd" clip-rule="evenodd" d="M88.7782 212.409C83.0505 212.409 77.5432 214.616 73.4678 218.699C69.3924 222.781 67.1895 228.188 67.1895 234.036C67.1895 239.774 69.3924 245.291 73.4678 249.374C77.5432 253.457 82.9404 255.663 88.7782 255.663C94.5058 255.663 100.013 253.457 104.089 249.374C108.164 245.291 110.367 239.884 110.367 234.036C110.367 228.298 108.164 222.781 104.089 218.699C99.903 214.616 94.5058 212.409 88.7782 212.409Z" fill="#DC7901"/>
<path fill-rule="evenodd" clip-rule="evenodd" d="M297.945 176.327C291.116 176.327 284.618 178.975 279.771 183.83C274.925 188.685 272.281 195.196 272.281 202.037C272.281 208.878 274.925 215.388 279.771 220.243C284.618 225.098 291.116 227.747 297.945 227.747C304.774 227.747 311.273 225.098 316.12 220.243C320.966 215.388 323.61 208.878 323.61 202.037C323.61 195.196 320.966 188.685 316.12 183.83C311.273 178.975 304.774 176.327 297.945 176.327Z" fill="#DC7901"/>
</g>
<defs>
<clipPath id="clip0_489_2125">
<rect width="406" height="303" fill="white"/>
</clipPath>
</defs>
</svg>
