<svg width="227" height="347" viewBox="0 0 227 347" fill="none" xmlns="http://www.w3.org/2000/svg">
<g clip-path="url(#clip0_489_2143)">
<path d="M145.498 217.955C169.135 206.671 198.088 177.999 202.815 160.513C207.533 143.047 199.097 132.132 189.413 127.618C164.807 116.163 159.33 143.656 154.703 142.667C148.426 141.329 147.427 122.485 160.919 111.939C189.673 89.4394 214.079 111.559 223.094 132.221C234.597 158.576 219.536 209.067 168.555 235.422C162.888 233.245 145.498 217.955 145.498 217.955Z" fill="#FF8500"/>
<path d="M206.123 160.613C211.07 141.089 196.239 119.848 179.748 124.871C181.917 125.011 182.567 124.572 189.413 127.607C199.177 131.942 207.543 143.037 202.815 160.503C198.088 177.989 169.135 206.66 145.498 217.945C145.498 217.945 146.408 218.744 147.877 220.002C179.289 203.684 202.395 175.313 206.123 160.613Z" fill="#FFB666"/>
<path d="M177.608 103.411C206.662 109.393 220.524 133.081 216.116 160.334C212.588 182.124 187.223 219.354 157.33 227.363C162.077 231.158 165.935 234.413 168.544 235.422C219.524 209.068 234.586 158.566 223.082 132.222C215.877 115.704 198.836 98.2578 177.608 103.411Z" fill="#ED5C01"/>
<path d="M181.996 190.803C179.887 192.93 177.689 195.037 175.42 197.084C180.187 201.658 189.932 203.186 197.467 214.65C198.876 213.262 200.246 211.854 201.555 210.426C196.138 199.9 185.484 196.625 181.996 190.803Z" fill="#6D2E03"/>
<path d="M191.971 179.577C190.681 181.205 189.322 182.853 187.873 184.491C193.61 185.11 202.345 192 208.861 201.507C210.78 198.891 212.539 196.225 214.138 193.548C207.572 185.12 196.788 179.797 191.971 179.577Z" fill="#6D2E03"/>
<path d="M201.924 163.21C201.414 164.548 200.784 165.926 200.055 167.354C206.911 168.343 214.926 179.737 219.354 183.572C220.013 182.104 220.623 180.636 221.193 179.178C218.824 177.271 215.546 174.105 213.627 170.51C215.906 170.21 221.203 169.092 224.781 167.674C225.22 165.776 225.59 163.889 225.88 162.031C214.247 167.913 206.071 164.078 201.924 163.21Z" fill="#6D2E03"/>
<path d="M203.543 145.084C203.853 146.522 204.043 148.04 204.113 149.638C208.24 150.007 218.714 150.327 226.39 145.264C226.07 142.318 225.52 139.511 224.751 136.875C219.654 144.555 208.21 145.114 203.543 145.084Z" fill="#6D2E03"/>
<path d="M214.407 118.061C212.068 115.244 209.449 112.658 206.561 110.461C209.04 120.787 205.912 128.606 196.547 132.501C197.656 133.56 198.676 134.738 199.595 136.036C206.371 133.819 214.607 125.141 214.407 118.061Z" fill="#6D2E03"/>
<path d="M197.018 104.989C195.279 104.349 193.36 103.591 191.501 103.251C192.48 109.892 191.951 119.379 186.764 126.519C187.623 126.839 188.493 127.199 189.402 127.628C190.162 127.977 190.911 128.377 191.651 128.806C194.509 124.922 199.297 114.925 197.018 104.989Z" fill="#6D2E03"/>
<path d="M173.381 104.699C169.383 106.137 165.215 108.884 160.908 111.929C146.916 121.806 148.415 141.32 154.691 142.658C158.619 143.497 163.166 123.793 179.527 124.862C182.216 120.638 181.176 109.013 173.381 104.699Z" fill="#6D2E03"/>
<path d="M170.832 201.078C167.684 203.725 164.436 206.231 161.178 208.548C168.364 213.461 175.38 222.799 178.208 229.869C181.576 227.732 184.754 225.485 187.753 223.148C184.644 215.628 175.16 205.193 170.832 201.078Z" fill="#6D2E03"/>
<path d="M194.449 201.597C193.04 203.334 191.71 204.832 190.031 206.46C192.51 208.467 195.188 211.184 197.457 214.639C198.866 213.251 200.235 211.843 201.545 210.415C199.636 206.71 197.117 203.934 194.449 201.597Z" fill="#441D03"/>
<path d="M181.996 190.802C179.887 192.929 177.689 195.036 175.42 197.083C176.04 197.682 177.149 198.491 177.918 199.011C179.997 197.113 182.006 195.266 183.975 193.248C183.345 192.589 182.426 191.521 181.996 190.802Z" fill="#A78268"/>
<path d="M214.139 193.549C211.75 190.483 208.892 187.886 205.873 185.739C204.434 188.296 203.455 189.993 201.416 192.62C203.985 195.127 206.613 198.212 208.872 201.498C210.781 198.881 212.54 196.225 214.139 193.549Z" fill="#441D03"/>
<path d="M191.971 179.577C190.681 181.205 189.322 182.853 187.873 184.491C188.703 184.58 190.252 185.06 191.191 185.399C192.58 183.732 194.02 181.994 195.329 180.256C194.219 179.857 192.72 179.607 191.971 179.577Z" fill="#A78268"/>
<path d="M204.992 164.019C203.803 163.699 202.773 163.39 201.914 163.21C201.404 164.548 200.775 165.926 200.045 167.354C200.894 167.474 202.144 167.944 203.023 168.353C203.683 166.995 204.622 164.948 204.992 164.019Z" fill="#A78268"/>
<path d="M224.771 167.674C225.211 165.776 225.581 163.889 225.87 162.031C221.913 164.039 218.355 164.907 215.216 165.157C214.227 168.463 212.598 172.277 211.389 175.203C214.497 178.429 217.305 181.804 219.344 183.572C220.004 182.104 220.613 180.636 221.183 179.178C218.814 177.271 215.926 174.275 214.007 170.68C216.286 170.38 221.193 169.102 224.771 167.674Z" fill="#441D03"/>
<path d="M203.543 145.084C203.853 146.522 204.043 148.04 204.113 149.638C204.832 149.698 205.882 149.768 206.941 149.798C206.771 147.96 206.631 146.672 206.161 145.024C205.102 145.084 204.303 145.084 203.543 145.084Z" fill="#A78268"/>
<path d="M224.761 136.875C222.682 139.991 219.704 141.888 216.416 143.087C216.776 144.964 216.966 147.051 216.896 148.999C220.094 148.339 223.502 147.171 226.4 145.264C226.08 142.318 225.531 139.501 224.761 136.875Z" fill="#441D03"/>
<path d="M196.557 132.501C197.666 133.56 198.685 134.738 199.605 136.037C200.824 135.637 201.514 135.358 202.004 135.008C201.104 133.66 200.145 132.432 199.115 131.243C198.246 131.762 197.576 132.072 196.557 132.501Z" fill="#A78268"/>
<path d="M214.406 118.061C212.067 115.244 209.449 112.658 206.561 110.461C207.48 114.306 207.54 117.382 207.02 120.577C208.469 122.624 209.889 124.792 211.148 126.909C213.177 124.053 214.486 120.927 214.406 118.061Z" fill="#441D03"/>
<path d="M186.764 126.509C187.623 126.828 188.493 127.188 189.402 127.617C190.162 127.967 190.911 128.366 191.651 128.796C191.981 128.346 192.81 127.018 193.18 126.419C191.331 125.45 189.862 124.981 188.083 124.481C187.733 125.061 187.163 125.959 186.764 126.509Z" fill="#A78268"/>
<path d="M191.5 103.101C191.73 104.668 191.87 106.536 191.9 108.334C194.388 109.542 195.828 110.431 197.646 111.739C197.756 109.492 197.437 106.915 196.897 104.589C195.158 103.939 193.359 103.44 191.5 103.101Z" fill="#441D03"/>
<path d="M163.316 132.61C161.957 134.138 157.77 142.118 156.35 141.618C153.132 140.49 147.336 118.769 173.381 104.698C169.383 106.136 165.215 108.883 160.908 111.928C146.916 121.805 148.415 141.319 154.691 142.657C156.81 143.116 159.109 137.624 163.316 132.61Z" fill="#A78268"/>
<path d="M172.881 220.482C175.17 223.678 177.048 226.983 178.198 229.869C181.566 227.732 184.744 225.485 187.742 223.148C186.543 220.242 184.514 217.077 182.076 213.831C178.787 216.597 176.239 218.475 172.881 220.482Z" fill="#441D03"/>
<path d="M161.178 208.548C161.907 209.047 162.917 209.816 163.636 210.405C166.854 208.108 169.993 205.772 173.011 203.255C172.311 202.536 171.382 201.617 170.822 201.088C167.674 203.724 164.436 206.241 161.178 208.548Z" fill="#A78268"/>
<path d="M183.345 226.743C178.748 229.989 173.801 232.985 168.654 235.651L168.554 235.701L168.444 235.661C162.817 233.494 146.037 218.774 145.317 218.145L145.027 217.885L145.377 217.716C150.214 215.409 155.371 212.323 160.708 208.558C181.027 194.218 199.016 173.526 202.554 160.443C207.232 143.137 198.767 132.261 189.292 127.847C181.017 123.993 174.151 124.142 168.284 128.277C164.376 131.033 161.698 134.998 159.549 138.183C158.18 140.201 157.11 141.799 156.081 142.528C155.571 142.887 155.102 143.017 154.632 142.917C152.683 142.498 151.154 140.48 150.434 137.384C148.725 129.985 151.714 118.8 160.738 111.739C161.508 111.14 162.287 110.561 163.057 110.012C173.251 102.821 183.515 100.594 193.58 103.401C208.001 107.425 218.395 120.877 223.303 132.122C233.976 156.529 221.723 199.65 183.345 226.743ZM168.524 235.142C173.611 232.506 178.498 229.54 183.046 226.324C221.214 199.381 233.417 156.549 222.843 132.321C217.986 121.186 207.711 107.864 193.45 103.89C183.545 101.124 173.421 103.321 163.357 110.421C162.587 110.96 161.818 111.54 161.058 112.129C151.164 119.878 149.585 131.403 150.934 137.255C151.604 140.151 152.993 142.028 154.742 142.408C155.052 142.478 155.401 142.378 155.781 142.098C156.731 141.429 157.84 139.791 159.119 137.884C161.288 134.668 163.996 130.664 167.984 127.847C174.011 123.593 181.047 123.433 189.502 127.368C199.176 131.872 207.811 142.957 203.044 160.563C199.476 173.755 181.407 194.567 160.998 208.968C155.771 212.663 150.704 215.698 145.937 218.005C148.245 220.013 163.277 233.025 168.524 235.142Z" fill="#592301"/>
<path d="M36.8988 116.403C42.2958 134.318 18.6593 162.301 35.9094 195.575C39.4674 202.736 70.2098 313.975 80.8237 315.513C83.4822 322.064 100.862 321.205 105.32 317.351C106.619 317.111 137.351 323.902 137.351 323.902C156.53 325.44 178.628 319.408 181.886 308.333C183.425 304.568 198.666 251.899 186.313 232.366C180.826 223.687 168.144 223.747 160.478 217.975C151.773 211.424 148.215 200.279 147.116 189.913C145.057 170.4 143.728 129.725 124.039 118.041C129.726 109.772 122.13 100.444 122.13 100.444L36.8988 116.403Z" fill="#FF8500"/>
<path d="M32.9811 159.035C34.7801 146.812 44.5445 128.227 40.2369 115.974L36.8988 116.413C42.2958 134.329 18.6593 162.311 35.9094 195.586C36.4291 196.644 39.7272 201.737 42.7055 203.515C34.9999 190.163 30.6424 174.914 32.9811 159.035Z" fill="#FFB666"/>
<path d="M186.303 232.356C180.816 223.678 168.133 223.738 160.467 217.965C151.762 211.414 148.204 200.269 147.105 189.903C145.046 170.39 143.717 129.715 124.028 118.031C129.715 109.762 122.119 100.435 122.119 100.435L98.4629 104.869C124.268 129.096 144.766 166.635 129.255 217.246C134.592 216.847 139.789 216.507 144.017 220.023C163.196 226.104 173.69 241.254 177.797 257.172C183.494 279.083 171.921 305.377 157.079 322.943C169.372 320.746 179.716 315.633 181.865 308.333C183.414 304.568 198.656 251.899 186.303 232.356Z" fill="#ED5C01"/>
<path d="M147.105 189.903C146.805 187.097 146.525 183.861 146.206 180.336C145.076 183.691 143.707 186.857 142.168 189.833L144.717 197.283C145.646 195.725 146.545 194.057 147.395 192.29C147.285 191.491 147.185 190.692 147.105 189.903Z" fill="#6D2E03"/>
<path d="M147.105 189.903C146.805 187.097 146.525 183.861 146.206 180.336C145.076 183.691 143.707 186.857 142.168 189.833L144.717 197.283C145.646 195.725 146.545 194.057 147.395 192.29C147.285 191.491 147.185 190.692 147.105 189.903Z" fill="#6D2E03"/>
<path d="M147.106 189.903C146.806 187.097 146.526 183.861 146.206 180.336C145.007 183.891 143.688 187.077 142.229 189.993L144.697 197.223C145.657 195.645 146.566 193.997 147.396 192.28C147.286 191.491 147.186 190.692 147.106 189.903Z" fill="#441D03"/>
<path d="M147.624 250.162C147.624 250.162 109.496 220.732 110.495 215.719C117.171 204.923 130.174 159.445 99.7314 127.997C94.2146 118.091 84.4102 110.172 81.4519 108.064L64.2717 111.29C61.4234 116.763 56.4562 128.826 55.9365 130.374C48.7406 146.802 46.0522 167.075 48.8806 184.491C51.2292 198.901 60.8037 220.382 73.8463 248.924C74.1961 249.683 74.1461 276.516 78.7734 304.239C79.2832 307.315 80.8323 310.4 81.342 313.476C81.4619 314.615 81.5718 315.743 81.6718 316.882C86.0293 321.935 101.201 320.936 105.318 317.361C106.618 317.121 137.35 323.912 137.35 323.912C141.637 324.262 146.075 324.222 150.412 323.832C150.992 321.076 151.992 311.089 153.021 306.985C156.619 293.114 155.34 268.247 147.624 250.162Z" fill="#FEEDD3"/>
<path d="M126.686 243.062C125.147 257.432 116.552 278.883 110.306 292.185C97.4929 319.468 78.7637 304.219 78.7637 304.219C79.2734 307.295 80.8225 310.38 81.3322 313.456C81.4521 314.595 81.5621 315.723 81.662 316.862C86.0195 321.915 101.191 320.916 105.308 317.341C106.608 317.101 137.34 323.892 137.34 323.892C141.628 324.232 146.065 324.202 150.403 323.812C150.822 321.815 151.462 316.023 152.182 311.419C151.182 310.83 148.384 314.345 147.165 314.075C137.11 311.888 142.747 295.481 140.808 277.884C139.469 265.751 130.464 253.527 126.686 243.062Z" fill="#DDBC90"/>
<path d="M29.9531 176.681C30.7027 182.603 32.4417 188.754 35.6599 195.096C40.2872 198.082 51.3009 204.942 56.1581 205.941C51.5008 199.779 37.7087 190.092 29.9531 176.681Z" fill="#6D2E03"/>
<path d="M58.156 186.947C53.9284 182.813 33.72 170.19 32.5807 147.61C31.2414 153.053 30.0621 158.825 29.6523 164.887C38.8671 180.566 52.4793 185.779 58.156 186.947Z" fill="#6D2E03"/>
<path d="M42.6356 154.311C45.8038 161.98 51.0808 170.139 63.3638 173.475C54.3089 167.443 49.9914 159.493 47.7027 151.544C43.2653 136.125 46.4734 120.726 37.5186 119.338C38.2481 124.87 36.8389 131.232 35 138.302C38.488 140.06 39.5874 146.96 42.6356 154.311Z" fill="#6D2E03"/>
<path d="M67.7214 154.161C62.6243 148.009 52.0104 126.708 53.4196 113.316L46.6035 114.595C47.8528 121.385 53.6695 148.479 67.7214 154.161Z" fill="#6D2E03"/>
<path d="M87.8887 143.825C93.1756 142.317 120.53 127.947 112.994 102.142L103.81 103.859C109.606 120.886 96.9135 137.244 87.8887 143.825Z" fill="#6D2E03"/>
<path d="M110.626 142.417C100.762 150.057 89.9583 153.043 87.1699 167.483C94.1259 159.015 104.81 153.942 113.795 147.68C122.21 141.818 129.146 134.917 130.165 123.203C128.806 121.665 127.327 120.297 125.708 119.139C122.46 131.202 116.723 137.694 110.626 142.417Z" fill="#6D2E03"/>
<path d="M93.1562 185.109C113.854 180.176 134.173 160.972 140.049 142.686C138.95 139.021 137.641 135.516 136.092 132.311C131.224 164.197 104.6 178.069 93.1562 185.109Z" fill="#6D2E03"/>
<path d="M98.8125 207.619C110.006 192.49 136.851 182.443 144.776 166.635C144.406 163.679 143.977 160.653 143.457 157.637C129.615 182.813 100.352 189.973 98.8125 207.619Z" fill="#6D2E03"/>
<path d="M170.062 222.588C169.102 222.249 168.143 221.889 167.203 221.52C164.495 228.181 155.18 231.156 154.98 241.662C158.568 235.181 168.183 228.92 170.062 222.588Z" fill="#6D2E03"/>
<path d="M148.814 257.931C156.76 248.514 178.577 243.89 182.705 228.441C180.946 227.073 178.927 226.014 176.798 225.105C173.86 245.308 153.422 243.151 148.814 257.931Z" fill="#6D2E03"/>
<path d="M173.71 262.834C162.467 268.976 151.313 266.3 145.047 273.59C150.894 271.083 163.426 272.541 175.26 266.449C180.946 263.523 186.463 258.84 191.001 251.15C190.831 247.435 190.401 243.92 189.641 240.744C185.794 251.669 179.797 259.509 173.71 262.834Z" fill="#6D2E03"/>
<path d="M149.244 287.111C159.688 281.858 174.879 285.713 188.781 279.461C189.311 276.355 189.781 273.15 190.161 269.914C177.288 285.353 156.06 276.855 149.244 287.111Z" fill="#6D2E03"/>
<path d="M182.885 305.207C183.684 302.51 184.824 298.326 186.003 293.253C175.129 302.311 159.978 294.701 151.893 302.401C160.328 300.873 177.148 301.881 182.885 305.207Z" fill="#6D2E03"/>
<path d="M29.9531 176.681C30.7027 182.603 32.4417 188.754 35.6599 195.096C36.6793 195.755 38.0085 196.594 39.5077 197.522C37.149 192.809 35.47 188.385 34.1707 182.952C32.6516 180.965 31.2224 178.878 29.9531 176.681Z" fill="#A78268"/>
<path d="M33.77 155.34C33.1403 152.913 32.7206 150.336 32.5807 147.62C31.2414 153.063 30.0621 158.835 29.6523 164.897C30.3819 166.125 31.5912 167.943 32.3608 169.051C32.2009 164.477 32.7905 159.993 33.77 155.34Z" fill="#A78268"/>
<path d="M37.5186 119.338C38.2481 124.87 36.8389 131.232 35 138.302C35.7496 138.682 37.1887 140.619 37.7684 141.428C39.9472 134.447 40.7167 129.065 41.2764 121.365C40.4469 120.406 38.9477 119.558 37.5186 119.338Z" fill="#A78268"/>
<path d="M112.995 102.142L103.811 103.859C104.84 106.885 105.28 109.891 105.26 112.817L112.596 120.457C114.514 115.204 115.024 109.092 112.995 102.142Z" fill="#441D03"/>
<path d="M125.718 119.139C124.329 124.272 122.49 128.396 120.371 131.802L124.079 138.512C127.357 134.408 129.626 129.495 130.175 123.193C128.816 121.655 127.337 120.297 125.718 119.139Z" fill="#441D03"/>
<path d="M136.082 132.32C134.953 139.77 132.624 146.231 129.586 151.854L131.605 158.495C135.413 153.402 138.341 148.009 140.05 142.696C138.941 139.021 137.641 135.526 136.082 132.32Z" fill="#441D03"/>
<path d="M144.766 166.635C144.397 163.679 143.967 160.653 143.447 157.637C140.749 162.55 137.451 166.774 133.893 170.519L134.552 178.658C138.93 174.943 142.578 171.009 144.766 166.635Z" fill="#441D03"/>
<path d="M167.204 221.52C165.984 224.525 163.416 226.782 160.947 229.309L163.546 231.656C166.484 228.62 169.153 225.604 170.052 222.578C169.103 222.249 168.143 221.889 167.204 221.52Z" fill="#441D03"/>
<path d="M182.704 228.43C180.945 227.062 178.927 226.003 176.798 225.095C175.858 231.576 173.11 235.75 169.672 238.926L171.831 242.381C176.888 238.746 181.115 234.402 182.704 228.43Z" fill="#441D03"/>
<path d="M191 251.15C190.83 247.435 190.401 243.92 189.641 240.744C186.803 248.803 182.705 255.264 178.357 259.389C178.587 260.717 178.897 262.625 179.077 264.172C183.385 261.256 187.492 257.102 191 251.15Z" fill="#441D03"/>
<path d="M190.161 269.904C186.713 274.039 182.835 276.395 178.628 277.913C178.428 279.641 177.998 281.079 177.738 282.617C181.436 282.018 185.164 281.079 188.792 279.441C189.312 276.346 189.781 273.14 190.161 269.904Z" fill="#441D03"/>
<path d="M186.004 293.253C181.946 296.628 177.299 297.687 172.641 298.086L170.732 302.201C175.81 302.75 180.387 303.759 182.885 305.207C183.695 302.51 184.834 298.326 186.004 293.253Z" fill="#441D03"/>
<path d="M143.367 324.391C141.328 324.391 139.3 324.311 137.331 324.151C137.001 324.081 107.698 317.61 105.429 317.59C103.28 319.388 98.363 320.596 93.1459 320.596C86.6497 320.596 81.9923 318.779 80.6531 315.733C72.6277 313.885 54.3582 254.865 43.4244 219.523C39.4767 206.78 36.6283 197.573 35.6889 195.685C25.015 175.113 29.9921 156.289 33.9898 141.159C36.5284 131.562 38.7171 123.283 36.6583 116.463L36.5784 116.193L36.8582 116.143L122.239 100.135L122.339 100.255C122.419 100.344 129.845 109.662 124.408 117.931C141.808 128.526 144.746 161.052 146.695 182.613C146.935 185.22 147.155 187.686 147.385 189.863C148.324 198.741 151.383 210.785 160.647 217.755C163.706 220.052 167.653 221.45 171.481 222.799C177.258 224.836 183.224 226.943 186.552 232.206C198.915 251.759 183.894 304.138 182.145 308.413C179.037 318.898 160.287 324.391 143.367 324.391ZM105.409 317.091C107.658 317.091 136.191 323.382 137.401 323.652C139.32 323.802 141.338 323.882 143.367 323.882C159.688 323.882 178.647 318.409 181.635 308.253C183.384 303.979 198.346 251.869 186.093 232.496C182.865 227.382 176.978 225.305 171.281 223.298C167.423 221.93 163.426 220.522 160.307 218.175C150.893 211.094 147.795 198.911 146.845 189.933C146.615 187.756 146.395 185.289 146.156 182.673C144.207 161.132 141.268 128.566 123.888 118.25L123.648 118.11L123.808 117.881C128.975 110.371 122.849 101.822 122.009 100.714L37.218 116.612C39.1769 123.513 36.9881 131.772 34.4696 141.309C30.4918 156.349 25.5547 175.063 36.1286 195.466C37.0881 197.393 39.9464 206.621 43.8942 219.383C54.1483 252.508 73.2274 314.155 80.853 315.263L81.0029 315.283L81.0629 315.423C82.2422 318.349 86.7596 320.087 93.136 320.087C98.2131 320.087 103.15 318.879 105.149 317.151L105.199 317.101L105.269 317.091C105.299 317.091 105.349 317.091 105.409 317.091Z" fill="#592301"/>
<path d="M38.6976 239.276C15.9606 243.481 37.1584 298.247 45.3238 306.765C48.402 308.173 58.966 307.474 58.966 307.474C58.5562 297.887 38.6976 239.276 38.6976 239.276Z" fill="#FF8500"/>
<path d="M39.9668 243.061C39.1673 240.674 38.6976 239.276 38.6976 239.276C15.9606 243.481 37.1584 298.246 45.3238 306.765C45.9234 307.045 46.8129 307.234 47.8523 307.364C37.8381 288.689 21.3075 247.066 39.9668 243.061Z" fill="#FFB666"/>
<path d="M44.4849 256.742C44.295 256.153 44.1051 255.584 43.9252 255.015C37.4189 254.016 32.112 249.981 29.5934 247.954C29.0537 249.712 28.7239 251.679 28.584 253.786C32.9515 257.032 39.3978 258.54 44.4849 256.742Z" fill="#6D2E03"/>
<path d="M48.0128 270.593C39.7775 270.823 32.1819 266.848 29.1836 264.881C29.5134 267.068 29.9432 269.305 30.4529 271.552C36.9392 273.969 44.5448 273.16 48.0128 270.593Z" fill="#6D2E03"/>
<path d="M51.6611 283.965C42.6062 284.215 34.331 279.391 32.0723 277.724C32.7919 280.21 33.5914 282.667 34.4409 285.044C40.8372 287.321 48.243 286.492 51.6611 283.965Z" fill="#6D2E03"/>
<path d="M29.5934 247.944C29.0537 249.702 28.7239 251.669 28.584 253.776C29.4835 254.446 30.4729 255.035 31.5223 255.544C31.5823 253.726 32.012 251.909 32.4618 250.091C31.2924 249.293 30.323 248.534 29.5934 247.944Z" fill="#A78268"/>
<path d="M29.1836 264.882C29.5134 267.069 29.9432 269.306 30.4529 271.553C31.4523 271.922 32.8115 272.292 33.8509 272.521C33.3612 270.594 32.9115 268.797 32.5417 266.789C31.2124 266.12 29.9631 265.391 29.1836 264.882Z" fill="#A78268"/>
<path d="M32.0723 277.734C32.7919 280.221 33.5914 282.678 34.4409 285.054C35.6802 285.494 36.9595 285.813 38.2287 286.033C37.3892 284.036 36.8096 282.128 36.09 280.121C34.321 279.212 32.7819 278.264 32.0723 277.734Z" fill="#A78268"/>
<path d="M53.3291 307.903C49.2614 307.903 46.533 307.603 45.2137 306.994L45.1338 306.934C41.6658 303.309 36.3588 292.184 32.8009 281.039C30.1624 272.791 26.2246 257.481 29.4128 247.605C30.9819 242.751 34.0801 239.865 38.6375 239.026L38.8574 238.986L38.9273 239.196C39.7369 241.593 58.806 297.956 59.2157 307.464L59.2257 307.713L58.9759 307.733C58.9559 307.733 56.3174 307.903 53.3291 307.903ZM45.4736 306.555C46.7229 307.104 49.4413 307.394 53.3291 307.394C55.7677 307.394 57.9664 307.274 58.696 307.234C58.0064 297.377 39.8268 243.42 38.5276 239.576C34.29 240.434 31.3917 243.191 29.9125 247.764C26.7643 257.511 30.6821 272.701 33.3006 280.89C36.8186 291.925 42.0456 302.94 45.4736 306.555Z" fill="#592301"/>
<path d="M33.9106 311.489C32.6613 314.624 31.0522 324.87 42.4157 322.553C44.5945 324.461 54.9385 324.8 56.9274 323.322C57.5071 318.06 56.4777 305.547 56.0879 305.157C53.5593 303.679 50.0813 303.459 46.6833 304.937C40.0471 301.762 35.5796 307.314 33.9106 311.489Z" fill="#FEEDD3"/>
<path d="M39.858 315.453C40.0079 319.228 35.5504 321.055 33.4316 319.068C34.3011 321.724 36.7397 323.702 42.4165 322.553C44.5952 324.461 54.9393 324.8 56.9282 323.322C57.5078 318.059 56.4784 305.546 56.0887 305.157C56.0687 305.147 56.0487 305.137 56.0387 305.127C55.9288 318.289 40.0878 321.055 39.858 315.453Z" fill="#DDBC90"/>
<path d="M51.2607 324.501C47.9626 324.501 43.825 323.981 42.3458 322.833C38.2781 323.632 35.4298 322.903 33.9306 320.696C31.8718 317.67 33.0411 312.946 33.6708 311.388C35.1499 307.693 38.3381 303.739 42.8555 303.739C44.1048 303.739 45.3941 304.048 46.6933 304.657C48.2224 304.008 49.7915 303.679 51.3506 303.679C53.1296 303.679 54.8087 304.118 56.2278 304.937L56.2778 304.977C56.8275 305.526 57.717 318.489 57.1873 323.352L57.1773 323.462L57.0874 323.532C55.908 324.401 52.6199 324.501 51.2607 324.501ZM42.4957 322.274L42.5957 322.353C43.815 323.422 47.8826 323.981 51.2707 323.981C53.8492 323.981 55.908 323.672 56.6976 323.172C57.2373 317.939 56.2578 306.315 55.908 305.336C54.5888 304.578 53.0197 304.178 51.3606 304.178C49.8315 304.178 48.2924 304.508 46.7933 305.157L46.6833 305.207L46.5734 305.157C45.3041 304.548 44.0448 304.238 42.8455 304.238C38.588 304.238 35.5597 308.023 34.1405 311.568C33.311 313.635 32.6414 317.87 34.3504 320.396C35.7396 322.443 38.458 323.082 42.3558 322.294L42.4957 322.274Z" fill="#6F5E48"/>
<path d="M42.2159 322.713C39.9772 319.787 39.1677 316.712 39.8373 313.586C40.6868 309.561 43.925 306.166 46.5735 304.718L46.8233 305.167C44.2748 306.565 41.1566 309.831 40.347 313.686C39.7174 316.662 40.4869 319.598 42.6357 322.394L42.2159 322.713Z" fill="#6F5E48"/>
<path d="M72.2194 245.477C72.2194 245.477 48.8828 213.74 41.2172 203.135C39.788 201.167 35.8403 195.186 35.8403 195.186C35.8403 195.186 32.7021 231.486 38.6986 257.501C44.6952 283.516 56.3385 299.085 55.6589 315.263C51.0316 315.093 40.5875 323.052 40.5875 330.412C40.5875 337.772 43.7557 343.335 51.3814 341.198C53.3502 343.255 60.3762 342.995 62.5949 340.938C64.9036 342.736 77.9262 343.595 81.5241 331.271C85.1121 318.938 81.3442 260.108 72.2194 245.477Z" fill="#FF8500"/>
<path d="M76.3463 322.843C78.9648 325.689 79.9642 325.1 82.1429 328.096C84.4816 311.668 80.9736 262.625 73.0781 247.006C73.7577 258.101 73.7877 268.896 74.4074 279.761C75.1469 292.884 77.9653 307.364 76.3463 322.843Z" fill="#ED5C01"/>
<path d="M50.5105 283.675C44.0042 266.179 36.5285 246.825 38.1176 198.84L35.8988 195.115C35.8988 195.115 32.7007 231.486 38.6972 257.491C44.6938 283.506 56.3371 299.074 55.6575 315.253C54.3083 315.203 52.4793 315.842 50.5504 316.95C53.5587 317.26 56.497 317.819 59.2555 319.097C58.7358 306.784 54.838 295.31 50.5105 283.675Z" fill="#FFB666"/>
<path d="M67.7706 318.099C67.2209 318.239 63.7429 314.094 55.6475 315.263C51.0202 315.093 40.5762 323.052 40.5762 330.412C40.5762 337.772 43.7444 343.335 51.37 341.197C53.3389 343.255 60.3648 342.995 62.5836 340.938C64.8922 342.735 77.9148 343.594 81.5127 331.271C81.9825 329.643 82.3323 327.206 82.5521 324.171C82.4722 324.031 82.3822 323.901 82.2923 323.761C77.9648 324.56 71.0087 320.525 67.7706 318.099Z" fill="#FEEDD3"/>
<path d="M76.3466 322.843C74.4877 330.862 67.9015 339.131 61.0254 336.035C61.0254 336.035 62.0348 340.349 62.5845 340.918C63.7438 342.147 67.4017 342.007 68.751 341.887C73.4283 341.468 79.2749 338.891 81.5037 331.251C81.9734 329.624 82.3232 327.187 82.5431 324.151C82.4531 324.011 82.3732 323.881 82.2832 323.742C80.4543 324.141 78.3255 323.492 76.3466 322.843Z" fill="#DDBC90"/>
<path d="M49.9609 337.453C50.4307 344.943 60.9746 342.187 62.3538 341.128C60.6748 336.375 59.3056 331.551 60.0751 327.477C58.4361 341.977 53.4989 338.771 49.9609 337.453Z" fill="#DDBC90"/>
<path d="M48.9519 330.553C48.0824 332.181 47.9425 336.395 46.8132 337.533C46.2235 338.132 43.0054 338.802 41.5762 336.225C41.5762 336.225 42.1259 338.083 44.0048 340.549C46.8132 341.508 49.0319 341.827 51.3006 341.198C48.9519 335.346 48.9519 335.346 48.9519 330.553Z" fill="#DDBC90"/>
<path d="M74.4078 281.968C70.7999 275.596 53.17 279.261 44.375 276.315C45.2445 278.692 46.114 280.979 46.9735 283.186C53.11 283.536 65.8327 280.26 74.4078 281.968Z" fill="#6D2E03"/>
<path d="M71.6384 263.253C65.6618 253.566 50.7404 259.418 37.7578 252.967C38.0377 254.505 38.3475 256.023 38.6873 257.501C38.8672 258.27 39.0471 259.029 39.237 259.778C47.2324 262.174 62.0739 258.18 71.6384 263.253Z" fill="#6D2E03"/>
<path d="M58.5369 247.065C56.0483 231.357 42.2962 232.595 35.0703 219.643C35.0903 222.499 35.1403 225.495 35.2602 228.561C41.9364 235.391 53.9795 238.477 58.5369 247.065Z" fill="#6D2E03"/>
<path d="M70.4602 239.276C67.9316 223.327 45.8543 218.494 35.82 196.653C35.6901 198.421 35.4802 201.547 35.3203 205.591C45.3546 222.269 65.513 229.938 70.4602 239.276Z" fill="#6D2E03"/>
<path d="M44.3652 276.325C45.2347 278.702 46.1042 280.989 46.9637 283.196C47.9332 283.246 49.0625 283.216 50.3118 283.126C50.3018 283.056 50.2918 282.986 50.2918 282.926L48.183 277.174C46.8038 276.974 45.5046 276.705 44.3652 276.325Z" fill="#A78268"/>
<path d="M37.7578 252.967C38.0377 254.505 38.3475 256.023 38.6873 257.501C38.8672 258.27 39.0471 259.029 39.237 259.778C40.3463 260.107 41.5956 260.307 42.9348 260.437L41.6356 254.525C40.3363 254.105 39.0371 253.606 37.7578 252.967Z" fill="#A78268"/>
<path d="M35.0801 219.643C35.1001 222.499 35.15 225.495 35.27 228.561C36.2694 229.579 37.3888 230.508 38.5781 231.387L38.2083 224.057C37.0789 222.788 36.0195 221.34 35.0801 219.643Z" fill="#A78268"/>
<path d="M35.8298 196.653C35.6999 198.421 35.49 201.547 35.3301 205.591C36.1096 206.899 36.9691 208.138 37.8586 209.336L38.0385 200.878C37.259 199.539 36.5094 198.141 35.8298 196.653Z" fill="#A78268"/>
<path d="M75.8578 253.576C74.8184 250.141 72 245.617 72 245.617C75.9777 251.999 79.4857 268.316 81.3746 289.258C82.5939 302.74 82.9038 315.473 82.3241 323.771L82.8038 324.55C84.193 307.613 81.4246 271.912 75.8578 253.576Z" fill="#592301"/>
<path d="M48.5425 286.472C45.2743 278.193 41.5665 268.796 38.948 257.441C33.3612 233.204 35.8597 199.48 36.1795 195.455L35.9097 195.026L35.6998 195.006C35.6698 195.365 32.5116 231.796 38.4482 257.551C41.0767 268.946 44.7846 278.353 48.0627 286.652C52.1304 296.948 55.6384 305.856 55.4085 314.734L55.9182 314.754C56.1581 305.786 52.6201 296.828 48.5425 286.472Z" fill="#592301"/>
<path d="M82.3338 323.772C82.114 326.967 81.7542 329.514 81.2644 331.192C79.4455 337.403 75.2979 339.93 72.1297 340.958C67.8521 342.337 63.8144 341.558 62.7451 340.729L62.5752 340.599L62.4152 340.749C60.2665 342.736 53.3604 342.896 51.5615 341.018L51.4515 340.908L51.3016 340.948C48.4333 341.757 46.0846 341.488 44.3156 340.15C42.0669 338.452 40.8376 334.987 40.8376 330.413C40.8376 327.417 42.7165 323.882 45.9947 320.736C49.2228 317.63 53.3005 315.433 55.6491 315.523L55.909 315.533L55.919 315.273C55.929 315.103 55.919 314.944 55.929 314.774L55.4193 314.754C55.4193 314.834 55.4193 314.924 55.4193 315.004C52.8707 315.054 48.903 317.221 45.6449 320.356C43.666 322.264 40.3379 326.109 40.3379 330.403C40.3379 335.146 41.6471 338.751 44.0258 340.549C45.8947 341.967 48.3433 342.267 51.3116 341.468C52.331 342.406 54.3898 342.866 56.5286 342.866C58.8673 342.866 61.3159 342.317 62.6151 341.248C64.0843 342.187 68.172 342.766 72.2996 341.438C75.5877 340.379 79.8952 337.763 81.7742 331.331C82.2439 329.714 82.5937 327.397 82.8236 324.561L82.3338 323.772Z" fill="#6F5E48"/>
<path d="M62.3541 341.038C59.086 334.237 58.8561 327.326 61.6845 322.952C64.353 318.828 67.771 318.089 67.771 318.089C64.6328 319.517 63.6934 320.815 62.1143 323.232C59.3559 327.436 59.6257 334.167 62.8139 340.808L62.3541 341.038Z" fill="#6F5E48"/>
<path d="M152.053 207.619L110.566 215.718C101.322 229.41 103.73 255.295 103.5 281.289C103.331 300.473 101.901 317.45 103.84 323.043C109.147 323.382 139.81 320.476 139.81 320.476C132.524 287.711 158.479 226.184 152.053 207.619Z" fill="#FF8500"/>
<path d="M103.43 281.289C103.26 300.473 101.831 317.45 103.77 323.042C104.45 323.082 105.549 323.072 106.948 323.022C105.409 313.046 105.899 297.747 106.089 281.349C106.348 258.63 106.089 234.053 109.407 217.485C101.451 231.566 103.65 256.373 103.43 281.289Z" fill="#FFB666"/>
<path d="M151.993 207.619L133.304 211.264C136.632 221.52 140.08 233.254 137.741 244.779C130.186 282.058 129.446 302.95 130.186 327.467C138.861 326.758 139.75 320.476 139.75 320.476C132.464 287.711 158.41 226.184 151.993 207.619Z" fill="#ED5C01"/>
<path d="M152.692 210.556C145.427 220.782 122.08 229.72 116.453 237.299C127.697 230.988 142.158 229.16 152.772 220.562C153.102 216.717 153.122 213.342 152.692 210.556Z" fill="#6D2E03"/>
<path d="M112.746 251.9C125.249 245.339 138.501 250.412 148.845 243.631C149.475 240.685 150.065 237.819 150.594 235.053C139.801 246.537 119.672 242.413 112.746 251.9Z" fill="#6D2E03"/>
<path d="M112.746 277.894C122.68 272.681 133.134 276.206 142.209 274.728C142.899 271.103 143.648 267.478 144.418 263.873C133.374 270.324 118.503 270.015 112.746 277.894Z" fill="#6D2E03"/>
<path d="M152.691 210.556C149.613 214.89 143.057 219.344 136.73 223.238L137.82 228.661C143.067 226.614 148.374 224.117 152.771 220.552C153.101 216.717 153.121 213.342 152.691 210.556Z" fill="#441D03"/>
<path d="M150.594 235.053C147.145 238.718 142.748 240.785 138.131 242.223L137.201 247.376C141.329 246.897 145.267 245.978 148.845 243.631C149.474 240.685 150.064 237.819 150.594 235.053Z" fill="#441D03"/>
<path d="M133.443 268.357L132.424 275.038C135.802 275.158 139.12 275.238 142.208 274.728C142.898 271.103 143.647 267.478 144.417 263.873C141.039 265.85 137.211 267.219 133.443 268.357Z" fill="#441D03"/>
<path d="M104.9 323.332C104.45 323.332 104.07 323.322 103.76 323.302L103.59 323.293L103.53 323.133C102.161 319.188 102.441 309.801 102.801 297.907C102.951 292.854 103.121 287.111 103.171 281.289C103.221 276.196 103.151 271.053 103.091 266.09C102.881 249.283 102.671 233.254 106.819 221.94C107.698 219.553 110.496 215.718 110.496 215.718C103.111 226.653 103.351 245.807 103.61 266.08C103.67 271.053 103.74 276.196 103.69 281.299C103.64 287.131 103.471 292.874 103.311 297.927C102.961 309.601 102.681 318.858 103.96 322.803C109.347 323.053 136.322 320.546 139.43 320.257C135.612 302.501 141.359 276.456 146.446 253.457C150.863 233.454 154.681 216.168 151.753 207.699L152.243 207.529C155.221 216.138 151.393 233.484 146.956 253.567C141.859 276.636 136.092 302.78 140.01 320.426L140.07 320.706L139.78 320.736C138.59 320.846 112.315 323.332 104.9 323.332Z" fill="#592301"/>
<path d="M127.318 209.117C117.943 217.126 109.438 222.669 105.23 235.851C112.506 226.184 122.131 220.961 131.136 213.191C135.993 208.997 140.68 204.054 144.718 197.283L142.169 189.833C137.922 198.082 132.425 204.753 127.318 209.117Z" fill="#6D2E03"/>
<path d="M132.564 203.934C132.564 206.371 132.844 209.297 133.294 211.274C137.112 207.629 141.249 202.895 144.698 197.233L142.229 190.003C139.5 195.476 136.292 199.969 132.564 203.934Z" fill="#441D03"/>
<path d="M105.23 235.85C105.92 234.932 106.64 234.063 107.369 233.224L107.699 229.809C106.77 231.636 105.94 233.633 105.23 235.85Z" fill="#A78268"/>
<path d="M154.042 306.815C162.048 306.395 164.056 324.571 161.718 328.885C158.989 333.908 148.116 332.34 146.317 328.346C144.178 323.602 146.616 307.194 154.042 306.815Z" fill="#FEEDD3"/>
<path d="M157.78 308.203C155.861 312.278 154.522 316.172 153.712 319.708C152.623 324.451 151.854 328.146 145.877 326.908C145.987 327.457 146.137 327.946 146.317 328.346C148.116 332.34 158.989 333.908 161.718 328.885C163.647 325.34 162.627 312.467 157.78 308.203Z" fill="#DDBC90"/>
<path d="M154.792 332.29C150.814 332.29 147.066 330.633 146.077 328.446C144.487 324.92 145.327 315.753 148.545 310.48C150.064 307.993 151.903 306.675 154.022 306.565C156.331 306.445 158.26 307.724 159.829 310.35C163.007 315.683 163.736 325.699 161.937 329.005C160.808 331.092 158.2 332.29 154.792 332.29ZM154.312 307.065C154.232 307.065 154.142 307.065 154.052 307.075C152.113 307.174 150.414 308.413 148.985 310.75C145.927 315.763 145.017 324.851 146.546 328.236C147.456 330.253 151.004 331.781 154.792 331.781C158.01 331.781 160.448 330.683 161.488 328.755C163.047 325.879 162.617 316.023 159.389 310.61C157.99 308.253 156.281 307.065 154.312 307.065Z" fill="#6F5E48"/>
<path d="M160.916 306.426C169.052 305.557 172.66 324.971 170.641 329.724C168.282 335.267 157.049 334.158 154.87 329.964C152.281 324.991 153.371 307.235 160.916 306.426Z" fill="#FEEDD3"/>
<path d="M167.123 310.391C164.644 322.934 163.625 332.031 154.16 327.937C154.35 328.736 154.58 329.425 154.86 329.954C157.039 334.148 168.272 335.257 170.631 329.714C172.03 326.439 170.741 316.143 167.123 310.391Z" fill="#DDBC90"/>
<path d="M163.126 333.759C159.248 333.759 155.76 332.251 154.631 330.084C152.642 326.269 152.902 315.723 155.88 310.171C157.189 307.734 158.868 306.386 160.887 306.166C163.236 305.917 165.325 307.195 167.144 309.941C170.822 315.504 172.411 326.189 170.872 329.824C169.822 332.291 166.934 333.759 163.126 333.759ZM161.447 306.646C161.277 306.646 161.117 306.656 160.947 306.676C159.118 306.875 157.569 308.124 156.34 310.411C153.212 316.233 153.352 326.489 155.091 329.844C156.12 331.812 159.498 333.25 163.126 333.25C166.714 333.25 169.432 331.892 170.392 329.625C171.741 326.459 170.452 315.893 166.704 310.231C165.145 307.854 163.376 306.646 161.447 306.646Z" fill="#6F5E48"/>
<path d="M178.539 305.278C171.113 306.166 171.783 324.532 174.531 328.426C177.739 332.97 187.524 329.655 188.633 325.39C189.932 320.347 185.415 304.459 178.539 305.278Z" fill="#FEEDD3"/>
<path d="M183.057 307.225C185.076 313.007 187.454 322.274 181.158 324.691C178.3 325.829 175.651 325.49 173.143 324.401C173.482 326.179 173.962 327.617 174.532 328.426C177.74 332.97 187.524 329.654 188.634 325.39C189.623 321.575 187.264 311.509 183.057 307.225Z" fill="#DDBC90"/>
<path d="M179.478 330.873C177.859 330.873 175.65 330.473 174.321 328.586C172.282 325.69 171.343 314.924 173.981 309.012C175.061 306.606 176.58 305.267 178.509 305.028C180.518 304.788 182.407 305.837 184.166 308.094C187.823 312.817 189.842 321.735 188.883 325.46C188.133 328.296 183.656 330.873 179.478 330.873ZM179.048 305.507C178.889 305.507 178.729 305.517 178.569 305.537C176.83 305.747 175.441 306.985 174.451 309.212C171.873 314.994 172.762 325.48 174.741 328.286C175.95 329.994 177.989 330.353 179.478 330.353C183.386 330.353 187.704 327.917 188.373 325.33C189.303 321.745 187.224 312.897 183.746 308.403C182.257 306.486 180.678 305.507 179.048 305.507Z" fill="#6F5E48"/>
<path d="M171.512 305.596C163.476 305.916 162.607 326.348 165.215 330.922C168.254 336.245 179.037 333.439 180.586 328.815C182.435 323.332 178.967 305.297 171.512 305.596Z" fill="#FEEDD3"/>
<path d="M179.128 313.806C180.727 331.502 168.954 330.873 164.646 328.406C164.816 328.985 165.006 330.543 165.216 330.922C168.254 336.245 179.038 333.439 180.587 328.815C181.587 325.849 181.027 319.228 179.128 313.806Z" fill="#DDBC90"/>
<path d="M171.203 334.078C168.314 334.078 166.106 332.999 164.996 331.052C162.997 327.557 162.967 315.383 166.455 309.102C167.795 306.695 169.494 305.427 171.512 305.347C173.461 305.267 175.23 306.346 176.809 308.533C180.557 313.736 182.286 324.601 180.847 328.905C179.798 331.991 175.02 334.078 171.203 334.078ZM171.692 305.846C171.632 305.846 171.582 305.846 171.522 305.846C169.703 305.916 168.144 307.095 166.895 309.332C163.547 315.373 163.537 327.457 165.436 330.782C166.455 332.57 168.504 333.549 171.203 333.549C175.28 333.549 179.468 331.342 180.347 328.725C181.617 324.94 180.317 314.285 176.38 308.812C174.96 306.855 173.381 305.846 171.692 305.846Z" fill="#6F5E48"/>
<path d="M137.16 316.572C144.806 315.693 149.073 332.889 147.065 339.191C145.645 343.665 136.131 344.683 134.352 340.339C132.573 335.985 129.565 317.44 137.16 316.572Z" fill="#FEEDD3"/>
<path d="M145.596 324.82C147.285 336.235 138.61 337.893 134.053 336.674C134.273 337.503 134.143 339.82 134.343 340.329C136.122 344.673 145.636 343.655 147.055 339.181C148.095 335.965 147.475 329.873 145.596 324.82Z" fill="#DDBC90"/>
<path d="M139.829 343.375C137 343.375 134.861 342.277 134.112 340.429C132.713 337.004 130.354 324.231 133.602 318.749C134.462 317.301 135.641 316.482 137.13 316.312C139.379 316.052 141.418 317.211 143.237 319.698C147.104 324.98 148.713 334.877 147.314 339.271C146.455 341.957 142.897 343.375 139.829 343.375ZM137.72 316.791C137.54 316.791 137.37 316.801 137.19 316.821C135.871 316.971 134.821 317.71 134.052 319.008C130.944 324.261 133.262 336.974 134.592 340.23C135.261 341.877 137.23 342.856 139.839 342.856C142.717 342.856 146.045 341.568 146.825 339.101C148.184 334.817 146.605 325.16 142.827 319.987C141.268 317.87 139.549 316.791 137.72 316.791Z" fill="#6F5E48"/>
<path d="M129.005 316.321C120.34 317.44 120.27 336.924 124.168 343.105C126.937 347.489 137.69 346.021 138.48 340.908C139.279 335.795 137.61 315.213 129.005 316.321Z" fill="#FEEDD3"/>
<path d="M137.131 325.749C139.889 341.458 125.897 340.869 123.059 339.421C123.378 340.359 123.748 342.436 124.168 343.106C126.936 347.49 137.69 346.022 138.48 340.908C138.9 338.272 138.65 331.521 137.131 325.749Z" fill="#DDBC90"/>
<path d="M130.284 345.952C127.395 345.952 125.027 344.933 123.957 343.235C121.149 338.791 120.329 327.327 123.418 320.786C124.727 317.999 126.656 316.362 128.984 316.062C130.853 315.822 132.542 316.551 133.962 318.219C138.579 323.602 139.319 337.213 138.749 340.948C138.239 344.204 134.002 345.952 130.284 345.952ZM129.664 316.531C129.454 316.531 129.244 316.541 129.034 316.571C126.866 316.851 125.127 318.339 123.867 321.005C120.849 327.417 121.639 338.622 124.377 342.966C125.357 344.514 127.555 345.442 130.274 345.442C133.782 345.442 137.759 343.844 138.219 340.869C138.789 337.194 138.069 323.822 133.552 318.549C132.423 317.211 131.103 316.531 129.664 316.531Z" fill="#6F5E48"/>
<path d="M107.628 315.952C98.8029 315.952 95.2749 334.667 98.3831 341.078C100.592 345.632 111.546 345.552 113.005 340.749C114.464 335.945 116.023 315.952 107.628 315.952Z" fill="#FEEDD3"/>
<path d="M112.105 318.998C114.994 328.405 111.746 341.488 98.5332 339.77C98.4232 339.82 98.3033 339.88 98.1934 339.93C99.1328 346.121 111.656 345.672 112.995 340.759C114.004 337.074 115.224 324.76 112.105 318.998Z" fill="#DDBC90"/>
<path d="M105.759 344.693C102.161 344.693 99.1723 343.325 98.1529 341.198C95.9341 336.614 97.1235 326.438 100.552 320.646C102.47 317.4 104.919 315.683 107.627 315.683C109.326 315.683 110.736 316.462 111.825 318.009C115.833 323.692 114.274 337.433 113.244 340.819C112.385 343.685 108.677 344.693 105.759 344.693ZM107.627 316.222C104.439 316.222 102.261 318.788 100.981 320.935C97.6332 326.598 96.4538 336.514 98.6026 340.958C99.5421 342.906 102.35 344.164 105.749 344.164C108.707 344.164 112.015 343.085 112.745 340.669C113.854 336.994 115.123 323.612 111.405 318.329C110.426 316.931 109.157 316.222 107.627 316.222Z" fill="#6F5E48"/>
<path d="M117.983 317.351C108.918 317.351 106.249 336.664 109.437 343.295C111.706 347.999 122.97 347.919 124.469 342.946C125.968 337.983 126.987 317.351 117.983 317.351Z" fill="#FEEDD3"/>
<path d="M125.069 328.066C124.709 330.962 124.389 334.987 120.961 338.822C118.842 341.189 111.856 342.876 108.498 339.511C108.438 339.571 109.068 342.327 109.008 342.377C111.666 349.138 123.42 347.011 124.469 342.956C125.129 340.41 125.758 333.889 125.069 328.066Z" fill="#DDBC90"/>
<path d="M117.023 347.001C113.325 347.001 110.257 345.582 109.207 343.395C106.939 338.682 107.528 327.587 111.446 321.345C113.195 318.559 115.464 317.081 117.982 317.081C119.831 317.081 121.38 317.91 122.61 319.558C126.897 325.32 125.858 339.241 124.718 343.016C123.829 345.962 120.021 347.001 117.023 347.001ZM117.982 317.61C115.614 317.61 113.565 318.968 111.886 321.635C108.108 327.637 107.508 338.682 109.677 343.186C110.646 345.193 113.535 346.501 117.033 346.501C120.071 346.501 123.479 345.383 124.229 342.886C125.308 339.291 126.317 325.42 122.2 319.887C121.07 318.369 119.651 317.61 117.982 317.61Z" fill="#6F5E48"/>
<path d="M37.1377 197.853C36.2682 196.544 35.4386 195.256 35.2188 194.797L35.6885 194.577C36.1582 195.586 39.8561 200.939 39.8961 200.988C39.8961 200.988 38.227 199.49 37.1377 197.853Z" fill="#592301"/>
<path d="M119.402 13.7019C127.877 11.9643 132.885 -1.82705 144.958 1.19885C141.68 6.22205 126.258 25.2962 126.258 25.2962L119.402 13.7019Z" fill="#FF8500"/>
<path d="M144.038 0.998861C132.625 -1.11827 127.658 12.0139 119.402 13.7017L120.512 15.5791C128.247 14.3008 132.805 1.10871 144.038 0.998861Z" fill="#FFB666"/>
<path d="M126.228 25.7456L119.002 13.5221L119.352 13.4522C122.64 12.7831 125.388 10.2566 128.307 7.58019C132.104 4.1049 136.032 0.509766 141.589 0.509766C142.698 0.509766 143.848 0.659563 145.017 0.94917L145.367 1.03905L145.167 1.33864C141.919 6.31191 126.608 25.2662 126.458 25.456L126.228 25.7456ZM119.801 13.8817L126.288 24.8568C128.187 22.5 141.169 6.38181 144.537 1.3686C143.538 1.13891 142.548 1.02906 141.589 1.02906C136.232 1.02906 132.374 4.55429 128.656 7.96966C125.788 10.5861 123.07 13.0827 119.801 13.8817Z" fill="#592301"/>
<path d="M122.211 19.9535C131.216 12.953 138.901 -4.54331 148.686 2.91658C161.149 12.4137 154.283 42.1035 138.082 44.3305C131.306 39.7167 122.211 19.9535 122.211 19.9535Z" fill="#FFE3B3"/>
<path d="M153.932 10.6855C152.023 23.3284 147.146 38.7775 133.443 39.886C134.693 41.4039 136.911 43.5311 138.081 44.33C151.033 42.5524 158.019 23.2186 153.932 10.6855Z" fill="#DFB974"/>
<path d="M138.021 44.5998L137.941 44.5399C131.185 39.9361 122.35 20.862 121.981 20.0531L121.891 19.8633L122.051 19.7335C124.779 17.6164 127.427 14.4706 129.986 11.4347C134.583 5.98212 138.921 0.829102 143.858 0.829102C145.557 0.829102 147.186 1.43828 148.835 2.69657C155.621 7.86957 156.431 18.605 154.232 26.9537C152.193 34.6833 146.886 43.3615 138.111 44.5699L138.021 44.5998ZM122.53 20.0331C123.47 22.0304 131.855 39.6765 138.141 44.0705C146.616 42.8522 151.754 34.3837 153.742 26.8439C155.901 18.655 155.122 8.14919 148.535 3.12599C146.976 1.9376 145.447 1.35838 143.868 1.35838C139.181 1.35838 134.913 6.42153 130.396 11.7843C127.857 14.7802 125.249 17.886 122.53 20.0331Z" fill="#705D3A"/>
<path d="M124.688 21.572C130.454 20.7031 138.24 5.46379 144.436 10.1874C152.322 16.1992 144.896 37.5503 134.642 38.9484C130.344 36.0224 124.688 21.572 124.688 21.572Z" fill="#6D2E03"/>
<path d="M140.689 14.0422C144.476 13.0335 146.695 16.389 147.385 22.2411C148.264 17.2778 147.525 12.5442 144.426 10.1874C138.23 5.46379 130.454 20.7031 124.678 21.572C124.678 21.572 125.447 23.2797 127.486 27.3841C133.013 25.2969 136.741 15.0907 140.689 14.0422Z" fill="#411B02"/>
<path d="M134.572 39.2177L134.492 39.1577C130.185 36.2217 124.678 22.2506 124.448 21.6614L124.328 21.3618L124.648 21.3119C126.887 20.9724 129.465 18.3659 132.204 15.5996C135.412 12.364 138.72 9.01855 141.868 9.01855C142.838 9.01855 143.747 9.33812 144.587 9.97726C147.915 12.5138 148.884 17.9165 147.175 24.4077C145.456 30.9389 140.809 38.3588 134.682 39.1977L134.572 39.2177ZM125.038 21.7613C125.857 23.7885 130.864 35.9421 134.702 38.6784C140.549 37.7996 145.006 30.6193 146.675 24.2779C148.304 18.0763 147.385 12.7535 144.277 10.3867C143.527 9.81747 142.738 9.53785 141.878 9.53785C138.94 9.53785 135.702 12.8034 132.573 15.9691C129.895 18.6655 127.356 21.232 125.038 21.7613Z" fill="#210E01"/>
<path d="M38.7277 12.4827C32.991 13.0819 30.0927 -0.669504 15.541 3.13534C19.2689 8.04869 31.5419 23.7075 31.5419 23.7075L38.7277 12.4827Z" fill="#FF8500"/>
<path d="M37.3483 14.6497L38.7375 12.4827C33.0008 13.0819 30.1024 -0.669504 15.5508 3.13534C15.6307 3.24519 15.7307 3.36503 15.8206 3.48487C25.5351 0.868413 31.7515 14.1105 37.3483 14.6497Z" fill="#FFB666"/>
<path d="M31.5621 24.1573L31.3423 23.8677C31.2123 23.7179 19.0293 8.15897 15.3314 3.29556L15.1016 2.98598L15.4714 2.88611C17.1904 2.43672 18.8394 2.20703 20.3685 2.20703C26.535 2.20703 30.103 5.79218 32.9713 8.67827C34.8702 10.5857 36.5093 12.2335 38.3582 12.2335C38.4682 12.2335 38.5781 12.2235 38.698 12.2135L39.2277 12.1536L31.5621 24.1573ZM15.9811 3.29556C19.619 8.06909 29.8731 21.1713 31.5222 23.2785L38.2583 12.7627C36.2395 12.7028 34.5604 11.0051 32.6215 9.05775C29.8231 6.24157 26.3351 2.73631 20.3885 2.73631C18.9993 2.72633 17.5202 2.91607 15.9811 3.29556Z" fill="#592301"/>
<path d="M18.919 48.1051C3.14807 43.9907 0.519579 7.20051 14.1318 3.43561C24.7857 0.4896 27.744 14.9201 33.7206 21.4013C35.2597 44.51 18.919 48.1051 18.919 48.1051Z" fill="#FFE3B3"/>
<path d="M6.28702 13.5713C3.1888 25.9246 7.76618 45.1985 18.9198 48.1045C18.9198 48.1045 22.108 47.3955 25.536 44.6292C12.2336 40.8943 3.66852 32.6554 6.28702 13.5713Z" fill="#DFB974"/>
<path d="M18.9194 48.3644L18.8594 48.3444C9.92452 46.0176 5.16725 33.3947 5.0773 22.1299C5.01733 14.1907 7.346 5.04308 14.0622 3.18559C15.0216 2.91596 15.9611 2.78613 16.8506 2.78613C22.6872 2.78613 25.9453 8.47842 29.0935 13.981C30.6626 16.7173 32.1418 19.3038 33.9108 21.2312L33.9707 21.3011L33.9807 21.3909C35.5199 44.4497 19.1392 48.3145 18.9793 48.3544L18.9194 48.3644ZM16.8506 3.29544C16.011 3.29544 15.1215 3.42527 14.2021 3.67493C7.76576 5.46251 5.53703 14.3804 5.58701 22.1299C5.66696 33.175 10.2743 45.5282 18.9194 47.8351C19.9788 47.5655 34.8802 43.3412 33.471 21.5108C31.6821 19.5534 30.1429 16.8471 28.6438 14.2306C25.5756 8.85791 22.3974 3.29544 16.8506 3.29544Z" fill="#705D3A"/>
<path d="M22.8057 44.3C14.0108 42.0131 8.394 15.539 15.9897 13.4418C21.9263 11.804 26.7035 23.2286 30.0316 26.8437C30.8911 39.7262 22.8057 44.3 22.8057 44.3Z" fill="#6D2E03"/>
<path d="M29.4123 34.4534C29.952 32.3262 30.2319 29.7997 30.032 26.8337C26.7039 23.2186 21.9266 11.7841 15.99 13.4318C13.3415 14.1608 12.3021 17.8558 12.442 22.4496C12.4321 20.0728 14.291 16.3379 16.8495 16.3479C21.6568 16.3778 23.9654 30.309 29.4123 34.4534Z" fill="#411B02"/>
<path d="M22.8466 44.5697L22.7467 44.5398C16.88 43.0118 12.2427 31.088 12.1727 21.8605C12.1328 16.9471 13.472 13.8713 15.9206 13.1922C16.3304 13.0824 16.7401 13.0225 17.1599 13.0225C21.1176 13.0225 24.4957 18.2354 27.2041 22.4197C28.2935 24.1074 29.3329 25.7053 30.2224 26.674L30.2824 26.7439L30.2924 26.8338C31.1519 39.7263 23.0165 44.4799 22.9366 44.5298L22.8466 44.5697ZM17.1599 13.5318C16.7901 13.5318 16.4203 13.5817 16.0605 13.6816C13.8818 14.2808 12.6525 17.2667 12.6825 21.8505C12.7524 30.6586 17.2498 42.4426 22.7667 44.0105C23.6262 43.4612 30.5322 38.7077 29.7827 26.9436C28.8732 25.935 27.8538 24.3571 26.7744 22.6894C24.1259 18.6149 20.8378 13.5318 17.1599 13.5318Z" fill="#210E01"/>
<path d="M69.9894 5.31247C31.2816 -7.52015 30.1522 32.0562 23.0563 41.2538C20.108 45.0786 14.2713 50.5312 10.0437 58.0211C6.14598 64.9317 5.11656 73.8496 0.619141 78.044C3.78733 78.1738 8.60457 76.0067 8.60457 76.0067C8.60457 76.0067 2.82788 84.1557 6.67567 93.5929C7.21536 89.9778 10.3336 86.0232 10.3336 86.0232C10.3336 86.0232 6.26591 97.6774 15.7905 104.888C14.9509 102.381 16.0503 97.957 16.0503 97.957C16.0503 97.957 18.379 112.098 28.7031 115.094C27.074 112.787 27.5037 107.394 27.5037 107.394C31.6214 113.816 37.498 114.515 40.3064 118C41.3558 115.793 41.3358 112.477 41.3358 112.477C41.3358 112.477 43.3447 115.893 46.303 117.041C46.6228 114.345 49.1913 112.198 49.1913 112.198C48.3118 123.133 54.8681 138.892 73.4074 138.961C88.8186 139.021 101.671 128.825 100.812 115.513C106.489 115.403 111.815 110.909 111.815 110.909C111.815 110.909 111.086 113.965 108.028 117.58C114.904 116.622 124.538 107.694 124.538 107.694C124.538 107.694 124.108 113.406 122.569 115.583C131.414 112.887 136.102 103.649 136.102 103.649C136.102 103.649 137.031 106.356 137.691 109.382C143.108 103.839 144.837 93.3133 144.837 93.3133C144.837 93.3133 145.736 99.7546 148.774 101.632C148.754 95.5602 151.603 91.9152 151.773 85.6736C153.871 88.2402 156.83 88.9292 156.83 88.9292C156.83 88.9292 156.02 78.4933 152.932 73.6799C154.221 74.1892 157.809 75.7371 157.809 75.7371C155.111 53.7269 143.807 49.2729 137.131 41.084C131.044 33.6441 119.311 -15.3895 69.9894 5.31247Z" fill="#FF8500"/>
<path d="M67.6711 7.39047C67.6711 7.39047 66.8216 8.84849 66.4418 10.1168C75.7265 4.66416 92.277 0.509788 102.001 1.50844C93.5963 -0.758494 83.1323 -0.199252 69.9898 5.31328C42.1857 -3.90423 33.7706 13.9216 28.6035 28.1024C36.7289 13.9416 44.3545 1.87793 67.6711 7.39047Z" fill="#FFB666"/>
<path d="M157.809 75.7579C155.11 53.7477 143.807 49.2937 137.131 41.1048C132.743 35.7321 125.437 8.78857 103.26 1.87793C127.496 25.4959 142.208 60.6483 139.19 94.822C137.65 93.2841 136.621 91.2269 136.111 89.1697C135.602 92.7648 134.052 95.8407 133.543 99.4358C130.974 97.3786 131.484 93.2741 128.915 91.2169C128.406 95.8407 126.857 100.454 122.749 103.021C121.21 99.9451 120.18 96.8593 118.641 94.2928C114.014 101.992 104.26 108.663 96.0342 101.992C97.5734 112.258 94.4951 122.015 85.7601 128.177C75.9258 135.237 65.9115 135.687 56.377 132.381C60.2647 136.266 65.8415 138.922 73.4272 138.952C88.8384 139.012 101.691 128.816 100.832 115.504C106.508 115.394 111.835 110.9 111.835 110.9C111.835 110.9 111.106 113.956 108.047 117.571C114.923 116.613 124.558 107.685 124.558 107.685C124.558 107.685 124.128 113.397 122.589 115.574C131.434 112.878 136.121 103.64 136.121 103.64C136.121 103.64 137.051 106.346 137.71 109.372C143.127 103.83 144.856 93.3041 144.856 93.3041C144.856 93.3041 145.756 99.7454 148.794 101.623C148.774 95.551 151.622 91.906 151.792 85.6644C153.891 88.231 156.849 88.92 156.849 88.92C156.849 88.92 156.04 78.4842 152.952 73.6707C154.211 74.2199 157.809 75.7579 157.809 75.7579Z" fill="#ED5C01"/>
<path d="M157.809 75.7571C155.51 57.0225 146.216 50.4613 139.61 44.04C139.28 50.741 138.56 57.2721 134.552 62.9444C126.327 74.7484 109.377 75.3077 96.5342 71.7126C92.9363 70.7039 86.7698 77.3649 80.6033 76.8456C67.7607 76.3363 50.3507 80.5306 40.5863 70.2645C33.3904 78.5533 22.7864 73.1706 18.9187 66.1201C16.5 61.7161 14.861 56.5731 14.1414 51.8395C12.7122 53.7269 11.303 55.7741 10.0437 58.0111C6.14598 64.9218 5.11656 73.8397 0.619141 78.034C3.78733 78.1638 8.60457 75.9968 8.60457 75.9968C8.60457 75.9968 2.82788 84.1457 6.67567 93.5829C7.21536 89.9678 10.3336 86.0132 10.3336 86.0132C10.3336 86.0132 6.26591 97.6674 15.7905 104.878C14.9509 102.371 16.0503 97.947 16.0503 97.947C16.0503 97.947 18.379 112.088 28.7031 115.084C27.074 112.777 27.5037 107.384 27.5037 107.384C31.6214 113.806 37.498 114.505 40.3064 117.99C41.3558 115.783 41.3358 112.467 41.3358 112.467C41.3358 112.467 43.3447 115.883 46.303 117.031C46.6228 114.335 49.1913 112.188 49.1913 112.188C48.3118 123.123 54.8681 138.882 73.4074 138.951C88.8186 139.011 101.671 128.815 100.812 115.503C106.489 115.393 111.815 110.899 111.815 110.899C111.815 110.899 111.086 113.955 108.028 117.57C114.904 116.612 124.538 107.684 124.538 107.684C124.538 107.684 124.108 113.396 122.569 115.573C131.414 112.877 136.102 103.639 136.102 103.639C136.102 103.639 137.031 106.346 137.691 109.372C143.108 103.829 144.837 93.3033 144.837 93.3033C144.837 93.3033 145.736 99.7446 148.774 101.622C148.754 95.5503 151.603 91.9052 151.773 85.6637C153.871 88.2302 156.83 88.9193 156.83 88.9193C156.83 88.9193 156.02 78.4834 152.932 73.6699C154.211 74.2192 157.809 75.7571 157.809 75.7571Z" fill="#FEEDD3"/>
<path d="M157.809 75.7571C155.511 57.0225 146.216 50.4613 139.61 44.04C139.34 49.5725 138.8 54.9752 136.372 59.8886C139.16 71.3131 140.219 83.1271 139.18 94.8213C137.641 93.2833 136.611 91.2261 136.102 89.1689C135.592 92.764 134.043 95.8399 133.533 99.435C130.965 97.3778 131.474 93.2734 128.906 91.2161C128.396 95.8399 126.847 100.454 122.739 103.02C121.2 99.9443 120.171 96.8585 118.632 94.292C114.004 101.992 104.69 112.467 96.4644 105.796C95.6949 136.744 58.9459 134.827 51.9199 125.57C54.3285 135.157 65.822 138.932 73.4076 138.961C88.8188 139.021 101.671 128.825 100.812 115.513C106.489 115.403 111.816 110.909 111.816 110.909C111.816 110.909 111.086 113.965 108.028 117.58C114.904 116.622 124.538 107.694 124.538 107.694C124.538 107.694 124.109 113.406 122.569 115.583C131.414 112.887 136.102 103.649 136.102 103.649C136.102 103.649 137.031 106.356 137.691 109.382C143.108 103.839 144.837 93.3133 144.837 93.3133C144.837 93.3133 145.736 99.7546 148.774 101.632C148.754 95.5603 151.603 91.9152 151.773 85.6736C153.872 88.2402 156.83 88.9292 156.83 88.9292C156.83 88.9292 156.02 78.4934 152.932 73.6799C154.211 74.2192 157.809 75.7571 157.809 75.7571Z" fill="#DDBC90"/>
<path d="M94.4762 68.8671C87.3803 64.3132 82.9229 64.2234 79.3049 62.9551C77.436 65.5016 45.934 65.981 45.934 65.981C44.9846 66.4404 43.9852 66.9497 42.9757 67.4789C38.7282 71.5534 36.2596 78.0047 37.4389 83.5372C40.3572 92.9445 52.8501 96.939 63.8238 90.9472C77.0562 95.2314 93.0571 92.0357 100.123 78.9135C102.192 75.6179 97.2546 70.6447 94.4762 68.8671Z" fill="#FEEDD3"/>
<path d="M49.4121 112.887H48.9023C48.9023 110.431 50.8013 107.684 50.8812 107.564L51.301 107.854C51.281 107.884 49.4121 110.59 49.4121 112.887Z" fill="#6F5E48"/>
<path d="M68.3999 89.5787C65.8414 88.5202 63.133 84.975 63.133 81.8991C60.9542 88.4003 55.9071 91.3364 50.6101 91.0168C45.4831 90.7072 40.1161 87.3218 36.918 81.1402C37.9074 85.3445 40.0062 88.66 42.0051 90.0681C51.1998 96.9987 58.9553 93.1239 64.3123 90.7272C68.9196 93.3836 78.1344 93.2737 84.7106 91.2165C89.0981 89.8484 97.0135 86.0136 100.921 77.4951C92.5561 88.8298 75.7257 92.6246 68.3999 89.5787Z" fill="#DDBC90"/>
<path d="M19.9592 45.2986C21.2584 43.8306 22.3778 42.5624 23.2673 41.4139C24.9164 39.2668 26.2356 35.5419 27.7647 31.2177C31.9723 19.3238 37.739 3.03589 56.0485 3.03589C60.1861 3.03589 64.8535 3.88474 69.9006 5.56247L69.9905 5.59243L70.0805 5.55248C78.0559 2.20701 85.5216 0.50931 92.2778 0.50931C116.704 0.50931 127.418 22.5594 133.174 34.4034C134.683 37.5192 135.883 39.9858 136.932 41.2641C137.762 42.2827 138.661 43.2314 139.601 44.1702L139.661 43.5011C138.841 42.6722 138.062 41.8333 137.332 40.9445C136.323 39.7062 135.133 37.2695 133.634 34.1837C127.827 22.2299 117.034 0 92.2778 0C85.4817 0 77.976 1.6977 69.9805 5.04317C64.9134 3.37543 60.2261 2.52658 56.0585 2.52658C37.3792 2.52658 31.5426 19.0043 27.285 31.0479C25.7659 35.3321 24.4566 39.0271 22.8575 41.1043C21.978 42.2428 20.8687 43.5011 19.5794 44.9591C18.3701 46.3173 17.0509 47.8252 15.7116 49.463L15.6816 50.3218C17.1508 48.4843 18.63 46.8066 19.9592 45.2986Z" fill="#592301"/>
<path d="M158.119 76.1765L158.069 75.7371C156.011 58.9099 148.955 52.2988 142.728 46.4667C141.669 45.4681 140.639 44.4994 139.66 43.5107L139.6 44.1798C140.49 45.0686 141.419 45.9375 142.368 46.8362C148.475 52.5585 155.391 59.0297 157.5 75.3576C156.52 74.9382 154.042 73.8796 153.022 73.4801L152.283 73.1806L152.713 73.8496C155.401 78.044 156.35 86.7222 156.54 88.6097C155.711 88.34 153.582 87.5111 151.973 85.5438L151.533 85.0045L151.513 85.6936C151.433 88.7195 150.704 91.1662 149.994 93.523C149.295 95.8498 148.585 98.2566 148.515 101.163C145.916 99.0755 145.087 93.3632 145.087 93.3033L144.857 91.6356L144.587 93.3033C144.567 93.4032 142.878 103.38 137.831 108.882C137.191 106.066 136.352 103.619 136.342 103.589L136.142 103.02L135.872 103.559C135.822 103.649 131.365 112.288 123.139 115.154C124.409 112.667 124.779 107.953 124.799 107.734L124.848 107.085L124.369 107.524C124.279 107.614 115.334 115.833 108.678 117.221C111.376 113.845 112.046 111.099 112.076 110.979L112.256 110.22L111.656 110.72C111.606 110.76 106.329 115.154 100.812 115.254H100.542L100.562 115.523C100.912 120.896 99.0333 125.929 95.1355 130.083C89.9985 135.556 82.133 138.702 73.5479 138.702H73.418C66.2421 138.672 60.1855 136.195 55.908 131.542C50.4811 125.649 49.0219 117.69 49.4617 112.218L49.5116 111.609L49.0419 111.998C48.942 112.088 46.5933 114.075 46.1136 116.672C43.4351 115.453 41.5962 112.367 41.5762 112.338L41.0965 111.519L41.1065 112.467C41.1065 112.497 41.1165 115.393 40.2669 117.511C39.1176 116.232 37.5385 115.313 35.8795 114.345C33.211 112.787 30.1727 111.019 27.7541 107.244L27.3443 106.605L27.2844 107.364C27.2644 107.574 26.9246 112.088 28.1839 114.634C18.6693 111.339 16.3706 98.0369 16.3406 97.9071L16.1408 96.6787L15.8409 97.8871C15.801 98.0569 14.9314 101.642 15.4012 104.209C6.89605 97.1681 10.5839 86.2129 10.6139 86.0931L11.1136 84.655L10.1642 85.8534C10.0442 86.0032 7.46572 89.2987 6.62621 92.6642C3.498 83.8361 8.76498 76.2464 8.82495 76.1665L9.36464 75.3976L8.50513 75.787C8.46515 75.807 4.29754 77.6545 1.24928 77.7943C3.65791 75.2577 5.03712 71.3331 6.49628 67.1887C7.56567 64.1328 8.67503 60.9771 10.2741 58.1609C11.9232 55.2449 13.8021 52.6584 15.671 50.3315L15.701 49.4727C13.6822 51.9393 11.6133 54.7355 9.82437 57.9112C8.2153 60.7674 7.09594 63.9531 6.01655 67.0189C4.49742 71.353 3.05825 75.4375 0.459737 77.8642L0 78.2836L0.609651 78.3036C3.08823 78.4035 6.4663 77.1652 7.95544 76.566C6.67618 78.763 3.21816 85.8234 6.43631 93.6928L6.79611 94.5716L6.93603 93.6428C7.28583 91.286 8.78497 88.7495 9.73443 87.3214C9.00484 90.6569 8.01541 99.3351 15.641 105.097L16.3007 105.597L16.0408 104.808C15.5011 103.19 15.801 100.683 16.0608 99.2153C16.9103 102.741 20.0785 112.857 28.6336 115.343L29.3332 115.543L28.9134 114.944C27.7141 113.246 27.6742 109.731 27.7241 108.173C30.1327 111.608 33.0211 113.296 35.5896 114.794C37.4186 115.863 39.0077 116.791 40.107 118.16L40.3669 118.479L40.5468 118.11C41.2964 116.532 41.5162 114.435 41.5762 113.296C42.3358 114.375 44.0048 116.422 46.2135 117.281L46.5234 117.401L46.5633 117.071C46.7832 115.204 48.1624 113.576 48.902 112.827C48.6222 118.379 50.2012 126.099 55.5282 131.891C59.9057 136.655 66.0921 139.181 73.418 139.211H73.5579C82.2829 139.211 90.2883 136.015 95.5153 130.433C99.4431 126.249 101.372 121.176 101.092 115.753C105.58 115.563 109.737 112.807 111.326 111.618C110.916 112.737 109.917 114.954 107.838 117.411L107.408 117.92L108.078 117.83C114.145 116.981 122.16 110.17 124.229 108.323C124.069 109.871 123.549 113.766 122.37 115.433L121.94 116.042L122.66 115.823C130.285 113.496 134.893 106.286 136.052 104.278C136.352 105.227 136.982 107.254 137.441 109.431L137.541 109.901L137.871 109.561C142.149 105.187 144.157 97.6874 144.827 94.6714C145.267 96.6887 146.366 100.454 148.645 101.862L149.035 102.101V101.642C149.025 98.5861 149.734 96.1894 150.494 93.6528C151.153 91.4258 151.843 89.129 152.003 86.3327C154.082 88.5397 156.65 89.1589 156.77 89.1789L157.11 89.2588L157.08 88.9092C157.05 88.4998 156.3 79.2224 153.542 74.1992C155.091 74.8383 157.68 75.9468 157.71 75.9668L158.119 76.1765Z" fill="#6F5E48"/>
<path d="M93.7066 13.4321C81.0639 16.1784 78.1356 37.4096 80.4742 48.6644C82.9728 60.6881 94.0764 70.7744 105.61 68.5575C115.884 66.5801 125.688 54.097 121.021 43.7411C122.68 30.0496 106.299 10.6958 93.7066 13.4321Z" fill="#FEEDD3"/>
<path d="M56.7773 46.3469C56.7773 46.3469 56.6273 16.4973 45.6436 15.4787C34.6599 14.4601 26.7445 33.5542 25.2853 39.2865C23.8261 45.0187 20.568 62.0057 29.4529 66.7493C38.3478 71.5028 46.5431 65.1514 47.3826 64.8618C49.8812 60.7374 56.7773 46.3469 56.7773 46.3469Z" fill="#FEEDD3"/>
<path d="M64.1009 90.847C59.5635 93.084 55.4259 93.9628 51.7779 93.793L50.7785 95.4108C47.7203 104.419 51.9478 113.406 60.5629 116.612C67.0492 119.029 81.9707 118.619 91.875 110.92C96.9921 106.945 95.5029 91.5361 95.4629 85.1348C87.6274 92.365 75.5044 95.2011 64.1009 90.847Z" fill="#472D1F"/>
<path d="M53.498 106.086C53.6679 107.324 55.337 111.598 58.7051 113.356C64.2219 116.232 69.5389 115.303 74.0163 114.215C63.3924 115.583 56.7462 112.677 53.498 106.086Z" fill="#918179"/>
<path d="M69.4984 118.17C65.9705 118.17 62.7723 117.7 60.4736 116.841C51.7386 113.596 47.4711 104.338 50.5393 95.3205L50.5593 95.2706L51.6387 93.523L51.7886 93.533C55.5564 93.7127 59.6941 92.7341 63.9816 90.6169L64.0815 90.567L64.1815 90.6069C67.7394 91.9651 71.4473 92.6542 75.2052 92.6542C82.6609 92.6542 89.9767 89.838 95.2837 84.9346L95.7134 84.5352V85.1144C95.7234 86.093 95.7634 87.2715 95.8034 88.6296C96.0632 96.2093 96.453 107.654 92.0255 111.099C83.8502 117.481 73.5461 118.17 69.4984 118.17ZM51.019 95.5103C48.0607 104.258 52.1983 113.216 60.6635 116.362C62.9022 117.191 66.0404 117.65 69.5084 117.65C73.5061 117.65 83.6603 116.971 91.7257 110.7C95.9433 107.424 95.5435 95.6701 95.3037 88.6596C95.2637 87.5511 95.2337 86.5624 95.2137 85.7036C89.8568 90.4571 82.6009 93.1735 75.2152 93.1735C71.4373 93.1735 67.6995 92.4844 64.1115 91.1262C59.844 93.2134 55.7063 94.2021 51.9185 94.0523L51.019 95.5103Z" fill="#241710"/>
<path d="M64.1023 90.8465C58.6555 93.5329 53.7583 94.2619 49.6406 93.5528C52.2092 98.1766 52.6889 104.228 56.6366 109.132C63.1429 117.201 81.1826 113.476 86.2597 108.982C92.2862 103.639 91.7565 96.8284 91.8764 87.9404C84.1908 93.0235 73.8767 94.5814 64.1023 90.8465Z" fill="#7A0303"/>
<path d="M74.4665 93.7129C71.4982 93.7129 68.7997 94.372 66.4311 95.4405C62.0436 97.0184 55.8771 105.397 58.6655 111.039C66.3012 116.512 81.6424 113.067 86.2497 108.982C87.8588 107.554 89.7577 105.048 90.6572 102.441C88.3385 98.057 79.1538 93.7129 74.4665 93.7129Z" fill="#450000"/>
<path d="M86.2598 108.982C87.2792 108.073 88.1187 107.125 88.7983 106.126C84.2909 102.431 76.4754 102.142 71.5482 105.337C64.6222 101.832 58.5057 105.287 56.0371 108.323C56.227 108.593 56.4269 108.862 56.6368 109.122C63.133 117.201 81.1827 113.476 86.2598 108.982Z" fill="#FF877C"/>
<path d="M79.4231 103.139C86.2592 108.981 69.3988 114.124 60.6738 112.187C68.7292 115.942 82.0216 112.726 86.2592 108.971C87.2786 108.063 88.1181 107.114 88.7977 106.115C86.3291 104.098 82.8611 103.109 79.4231 103.139Z" fill="#ED6863"/>
<path d="M69.399 114.125C65.2613 114.125 59.6645 113.286 56.4364 109.281C56.2265 109.012 56.0266 108.742 55.8267 108.473L55.7168 108.313L55.8367 108.163C57.5458 106.066 61.1337 103.609 65.6211 103.609C67.62 103.609 69.5988 104.088 71.5277 105.047C73.7465 103.649 76.6048 102.87 79.5931 102.87C83.1811 102.87 86.5891 103.979 88.9578 105.926L89.1377 106.076L89.0077 106.266C88.2881 107.314 87.4486 108.263 86.4292 109.162C83.291 111.948 75.8153 114.125 69.399 114.125ZM56.3664 108.343C56.5163 108.552 56.6762 108.762 56.8362 108.972C59.9344 112.817 65.3713 113.626 69.399 113.626C76.4349 113.626 83.4109 111.169 86.0894 108.802C87.0089 107.983 87.7884 107.124 88.4481 106.196C86.1793 104.418 82.9712 103.409 79.6031 103.409C76.6548 103.409 73.8464 104.178 71.6976 105.576L71.5777 105.656L71.4478 105.586C69.5489 104.628 67.6 104.138 65.6411 104.138C61.4235 104.128 58.0455 106.365 56.3664 108.343Z" fill="#A03733"/>
<path d="M69.5391 107.564C69.5391 107.564 70.8683 105.257 72.3075 104.598L72.5274 105.067C71.1881 105.686 69.5591 107.554 69.5391 107.564Z" fill="#A03733"/>
<path d="M69.3988 114.125C65.2712 114.125 59.6644 113.286 56.4362 109.282C54.0376 106.306 52.9182 102.95 51.8289 99.6946C51.1093 97.5375 50.4297 95.5003 49.4102 93.6727L49.1504 93.2034L49.6801 93.2933C50.6495 93.463 51.659 93.5429 52.6884 93.5429C56.2363 93.5429 60.0342 92.5543 63.9819 90.6069L64.0818 90.557L64.1818 90.5969C67.7397 91.9551 71.4476 92.6441 75.2055 92.6441C81.1521 92.6441 86.8588 90.9365 91.726 87.7208L92.1358 87.4512L92.1258 87.9405C92.1158 88.7394 92.1058 89.5084 92.1058 90.2773C92.0458 98.0768 92.0058 104.238 86.429 109.172C83.2908 111.948 75.8051 114.125 69.3988 114.125ZM50.1098 93.8825C51.0193 95.6301 51.649 97.5275 52.3186 99.5348C53.388 102.74 54.4973 106.056 56.836 108.962C59.9342 112.807 65.3711 113.616 69.3988 113.616C76.4348 113.616 83.4108 111.159 86.0892 108.792C91.4961 103.999 91.5361 97.947 91.5961 90.2773C91.5961 89.6682 91.6061 89.049 91.6161 88.4199C86.7589 91.5257 81.0921 93.1634 75.2155 93.1634C71.4376 93.1634 67.6998 92.4744 64.1118 91.1162C59.1547 93.5529 54.3974 94.4916 50.1098 93.8825Z" fill="#241710"/>
<path d="M49.4707 93.5238C50.4302 96.1502 52.7188 101.713 55.0375 101.713C56.6166 101.713 59.5349 95.4013 60.6443 92.3154C56.5067 93.8034 52.7388 94.123 49.4707 93.5238Z" fill="#FCF9FC"/>
<path d="M60.6438 92.3154C58.565 93.0644 56.5861 93.5138 54.7172 93.7035C54.1875 96.6296 54.2175 99.0663 54.6772 101.713C54.6972 101.713 55.017 101.713 55.037 101.713C56.6261 101.713 59.5444 95.4013 60.6438 92.3154Z" fill="#B5B5B5"/>
<path d="M55.0467 101.962C52.628 101.962 50.3693 96.7292 49.23 93.6034L49.0801 93.184L49.5198 93.2639C52.8879 93.883 56.6457 93.4736 60.5635 92.0655L61.0732 91.8857L60.8933 92.3951C60.2037 94.2925 57.0355 101.962 55.0467 101.962ZM49.8696 93.8431C51.6486 98.6166 53.5775 101.443 55.0467 101.443C56.246 101.443 58.8145 96.4496 60.2237 92.7246C56.5758 93.9629 53.0678 94.3424 49.8696 93.8431Z" fill="#666666"/>
<path d="M81.5117 100.644C83.2107 100.644 86.159 93.3037 86.9585 90.5674C83.5405 91.9954 79.8126 92.8044 75.9648 92.8942C77.0042 95.6405 79.223 100.644 81.5117 100.644Z" fill="#FCF9FC"/>
<path d="M86.9592 90.5674C85.2102 91.2964 82.6917 91.9555 80.8027 92.345C81.4524 95.4907 81.3724 97.7477 81.5523 100.644C83.2613 100.524 86.1597 93.2837 86.9592 90.5674Z" fill="#B5B5B5"/>
<path d="M81.5123 100.904C79.2136 100.904 77.0948 96.5994 75.7256 92.9843L75.5957 92.6447L75.9555 92.6348C79.7433 92.5449 83.4112 91.7659 86.8592 90.3279L87.359 90.1182L87.209 90.6375C86.5694 92.8045 83.5312 100.904 81.5123 100.904ZM76.3353 93.1341C78.1342 97.7478 80.0132 100.384 81.5123 100.384C82.8016 100.384 85.4301 94.5621 86.5594 91.007C83.3013 92.2952 79.8733 93.0142 76.3353 93.1341Z" fill="#666666"/>
<path d="M52.6789 94.0727C50.2104 94.0727 47.8717 93.5933 45.7329 92.6446C42.7047 91.2964 40.2261 89.0395 38.4671 86.0935C37.6076 84.6454 36.918 81.1402 36.918 81.1402C38.3571 86.3032 41.5553 90.2179 45.9328 92.1653C51.0399 94.4422 57.2763 93.9029 63.9725 90.5974L64.0724 90.5474L64.1724 90.5874C78.3243 96.0001 94.465 90.2478 100.911 77.4951C100.911 77.4951 99.2023 81.4298 97.8331 83.0276C92.3362 89.4789 83.931 93.1439 75.1861 93.1439C71.4982 93.1439 67.7403 92.4948 64.1124 91.1167C60.0947 93.084 56.2369 94.0727 52.6789 94.0727Z" fill="#6F5E48"/>
<path d="M100.602 116.482C100.363 112.528 97.694 107.574 97.6641 107.524C97.6641 107.524 99.3331 109.532 100.183 112.118C100.642 113.506 101.022 115.034 101.112 116.452L100.602 116.482Z" fill="#6F5E48"/>
<path d="M15.441 82.2382C12.9824 89.9378 17.0301 107.704 34.3702 101.702C26.9844 100.903 16.3905 94.7313 19.8585 78.6431C14.8514 75.048 10.5638 70.1746 14.5915 56.0537C3.27799 70.7738 14.4116 81.3395 15.441 82.2382Z" fill="#6D2E03"/>
<path d="M20.7476 58.6902C17.0397 59.2395 18.7288 70.2746 28.0734 72.871C23.9957 68.9863 24.6354 58.111 20.7476 58.6902Z" fill="#6D2E03"/>
<path d="M28.0037 86.9917C30.992 86.6921 28.5534 81.629 27.8538 78.0938C25.9149 80.7302 24.8355 87.3113 28.0037 86.9917Z" fill="#6D2E03"/>
<path d="M134.552 87.0025C136.181 93.1142 130.445 102.142 125.688 104.838C132.234 103.68 138.07 99.186 138.92 91.2268C148.255 87.9413 154.501 75.0587 147.395 58.6709C147.575 64.7027 147.145 83.4374 134.552 87.0025Z" fill="#6D2E03"/>
<path d="M133.533 99.4458C132.953 98.9764 132.533 98.4072 132.194 97.778C130.395 100.894 127.936 103.57 125.697 104.838C131.464 103.82 136.671 100.215 138.41 93.9532C137.291 92.5551 136.521 90.8674 136.101 89.1797C135.582 92.7648 134.042 95.8507 133.533 99.4458Z" fill="#3F1803"/>
<path d="M147.405 58.6709C147.545 63.774 147.265 77.9648 139.559 84.3761C139.589 86.5931 139.559 88.8101 139.439 91.0271C148.484 87.4519 154.381 74.7491 147.405 58.6709Z" fill="#3F1803"/>
<path d="M125.048 76.9756C124.339 85.1146 121.79 93.0239 112.266 96.7388C119.971 97.9572 125.688 92.3148 127.487 80.1813C136.802 77.6147 151.123 63.2342 135.582 48.0947C141.669 63.6636 131.535 76.5961 125.048 76.9756Z" fill="#6D2E03"/>
<path d="M135.582 48.1045C137.621 53.3174 137.831 58.2408 136.981 62.495C137.701 65.7506 138.27 69.0461 138.69 72.3417C143.448 66.18 145.007 57.2821 135.582 48.1045Z" fill="#3F1803"/>
<path d="M117.123 96.5385C117.903 96.3288 118.642 96.0192 119.352 95.6297C119.122 95.1803 118.882 94.731 118.622 94.3115C118.172 95.0605 117.673 95.8095 117.123 96.5385Z" fill="#3F1803"/>
<path d="M129.545 53.4277C127.656 61.9861 118.951 69.6158 113.314 71.1238C120.34 71.9726 134.232 68.6172 129.545 53.4277Z" fill="#6D2E03"/>
<path d="M111.046 75.6279C113.744 80.8708 111.645 85.4546 110.076 88.83C116.143 87.5917 117.982 80.5313 111.046 75.6279Z" fill="#6D2E03"/>
<path d="M118.243 39.2166C119.982 43.8903 116.854 59.8986 101.493 59.8986C92.0882 59.8986 85.6719 52.6285 85.6719 44.9089C85.6719 35.981 93.2176 27.5225 101.493 27.5225C109.758 27.5125 117.334 36.7699 118.243 39.2166Z" fill="#DDBC90"/>
<path d="M120.661 42.4427C120.701 42.5726 119.472 43.2117 118.822 45.7483C116.844 53.4279 112.726 61.0375 101.712 61.0375C92.3076 61.0375 86.1211 54.067 86.1211 46.3474C86.1211 37.4195 93.207 30.2393 101.482 30.2393C109.758 30.2393 119.892 39.9561 120.661 42.4427Z" fill="black"/>
<path d="M101.483 61.0471C109.757 61.0471 116.465 54.7876 116.465 47.066C116.465 39.3445 109.757 33.085 101.483 33.085C93.2094 33.085 86.502 39.3445 86.502 47.066C86.502 54.7876 93.2094 61.0471 101.483 61.0471Z" fill="#FFDB00"/>
<path d="M87.5898 52.2785C89.8086 57.4115 95.1855 61.0466 101.482 61.0466C108.258 61.0466 113.985 56.8423 115.834 51.0801C107.079 55.9335 97.9439 56.9122 87.5898 52.2785Z" fill="#FFA400"/>
<path d="M101.253 42.2323C98.0745 42.412 95.6959 46.1869 95.9457 50.6608C96.1956 55.1348 98.984 58.6101 102.162 58.4203C105.34 58.2406 107.719 54.4657 107.469 49.9917C107.219 45.5278 104.441 42.0525 101.253 42.2323Z" fill="#5D3D1B"/>
<path d="M100.463 53.5767C98.6941 53.3171 97.2949 52.4383 96.0156 51.2998C96.4854 55.4542 99.1438 58.5899 102.172 58.4202C105.31 58.2404 107.669 54.5554 107.479 50.1514C105.94 52.608 103.261 53.6766 100.463 53.5767Z" fill="#362116"/>
<path d="M102.291 46.4066C100.212 46.5265 98.6632 49.123 98.8331 52.1988C99.003 55.2746 100.832 57.6814 102.921 57.5615C105 57.4417 106.549 54.8452 106.379 51.7694C106.199 48.6836 104.37 46.2868 102.291 46.4066Z" fill="black"/>
<path d="M101.951 46.496C100.742 46.4461 99.7326 47.4147 99.6926 48.6631C99.6526 49.9114 100.602 50.9699 101.811 51.0199C103.021 51.0698 104.03 50.1011 104.07 48.8528C104.11 47.6045 103.161 46.5459 101.951 46.496Z" fill="white"/>
<path d="M100.812 54.2858C100.252 54.2658 99.7921 54.7052 99.7721 55.2845C99.7522 55.8637 100.192 56.343 100.752 56.373C101.311 56.393 101.771 55.9536 101.791 55.3743C101.801 54.7951 101.361 54.3058 100.812 54.2858Z" fill="white"/>
<path d="M101.242 42.0524C97.9541 42.2421 95.4855 46.1069 95.7453 50.6607C95.9852 54.9749 98.6237 58.4601 101.742 58.59C101.892 58.5999 102.032 58.5999 102.182 58.59C105.47 58.4002 107.938 54.5354 107.679 49.9716C107.429 45.4677 104.55 41.8726 101.242 42.0524ZM102.142 58.0207C99.1534 58.2005 96.5549 54.835 96.325 50.6407C96.0851 46.3965 98.3039 42.8113 101.272 42.6416C101.402 42.6316 101.532 42.6316 101.652 42.6416C104.47 42.7614 106.859 46.007 107.089 50.0315C107.339 54.2558 105.12 57.851 102.142 58.0207Z" fill="#1B110B"/>
<path d="M101.482 61.4262C93.0072 61.4262 86.1211 54.9849 86.1211 47.0656C86.1211 39.1464 93.0072 32.7051 101.482 32.7051C109.957 32.7051 116.843 39.1464 116.843 47.0656C116.843 54.9849 109.957 61.4262 101.482 61.4262ZM101.482 33.4641C93.4269 33.4641 86.8707 39.5658 86.8707 47.0656C86.8707 54.5655 93.4269 60.6672 101.482 60.6672C109.538 60.6672 116.094 54.5655 116.094 47.0656C116.094 39.5658 109.538 33.4641 101.482 33.4641Z" fill="black"/>
<path d="M26.8244 41.7333C25.2753 45.8976 27.2142 58.5704 40.9063 58.5704C49.2915 58.5704 54.6185 52.5286 54.6185 45.648C54.6185 37.6887 48.8218 29.1104 41.446 29.1104C32.741 29.1104 27.6339 39.5562 26.8244 41.7333Z" fill="#DDBC90"/>
<path d="M24.2559 42.1924C24.2559 42.1924 25.715 43.181 26.0648 45.5278C27.2242 53.3572 31.3018 60.2878 40.9163 60.2878C49.3015 60.2878 54.9783 53.497 54.6085 46.6164C54.2687 40.3149 48.5519 32.6553 41.1762 32.6553C33.8004 32.6553 26.0248 39.1864 24.2559 42.1924Z" fill="black"/>
<path d="M40.907 59.9585C48.2813 59.9585 54.2594 54.3785 54.2594 47.4953C54.2594 40.6122 48.2813 35.0322 40.907 35.0322C33.5327 35.0322 27.5547 40.6122 27.5547 47.4953C27.5547 54.3785 33.5327 59.9585 40.907 59.9585Z" fill="#FFDB00"/>
<path d="M53.2986 52.1496C51.3198 56.7234 46.5225 59.959 40.9157 59.959C34.8692 59.959 29.7721 56.2141 28.123 51.0811C36.918 56.0643 45.1333 55.3253 53.2986 52.1496Z" fill="#FFA400"/>
<path d="M41.8445 41.5433C38.6563 41.5034 36.0278 45.0985 35.9678 49.5824C35.9079 54.0563 38.4364 57.7214 41.6246 57.7613C44.8128 57.8013 47.4413 54.2061 47.5012 49.7222C47.5612 45.2383 45.0227 41.5832 41.8445 41.5433Z" fill="#5D3D1B"/>
<path d="M40.2561 52.8081C38.5071 52.4286 37.1678 51.4499 35.9785 50.2216C36.1584 54.3959 38.587 57.7115 41.6253 57.7514C44.7735 57.7913 47.372 54.2761 47.5019 49.8721C45.7829 52.2189 43.0445 53.0977 40.2561 52.8081Z" fill="#362116"/>
<path d="M42.5751 45.7776C40.4863 45.7477 38.7673 48.2343 38.7273 51.3201C38.6873 54.4059 40.3364 56.9325 42.4252 56.9525C44.514 56.9824 46.233 54.4958 46.273 51.41C46.3229 48.3242 44.6639 45.7976 42.5751 45.7776Z" fill="black"/>
<path d="M42.2359 45.8473C41.0365 45.7075 39.9572 46.6063 39.8372 47.8546C39.7173 49.1029 40.5868 50.2214 41.7861 50.3512C42.9854 50.4911 44.0648 49.5923 44.1847 48.344C44.3147 47.0957 43.4352 45.9772 42.2359 45.8473Z" fill="white"/>
<path d="M40.5566 53.5371C40.0069 53.4772 39.5072 53.8866 39.4472 54.4558C39.3873 55.0251 39.797 55.5444 40.3467 55.6043C40.8964 55.6642 41.3961 55.2547 41.4561 54.6855C41.5061 54.1063 41.1063 53.597 40.5566 53.5371Z" fill="white"/>
<path d="M41.8454 41.3636C38.5473 41.3237 35.8189 45.0087 35.7589 49.5725C35.699 53.8966 38.0776 57.5517 41.1858 57.9012C41.3257 57.9212 41.4756 57.9312 41.6256 57.9312C44.9237 57.9711 47.6521 54.2861 47.7121 49.7223C47.772 45.1984 45.1535 41.4135 41.8454 41.3636ZM41.6256 57.3519C38.6273 57.322 36.2786 53.7868 36.3386 49.5825C36.3986 45.3382 38.8671 41.9129 41.8354 41.9428C41.9654 41.9428 42.0953 41.9528 42.2152 41.9628C45.0236 42.2824 47.1724 45.6877 47.1224 49.7123C47.0625 53.9665 44.5939 57.3919 41.6256 57.3519Z" fill="#1B110B"/>
<path d="M27.2148 47.4958C27.2148 40.4354 33.3613 34.7031 40.907 34.7031C48.4527 34.7031 54.5992 40.4453 54.5992 47.4958C54.5992 54.5562 48.4527 60.2885 40.907 60.2885C33.3613 60.2885 27.2148 54.5562 27.2148 47.4958ZM27.8845 47.4958C27.8845 54.1867 33.7211 59.6194 40.907 59.6194C48.0829 59.6194 53.9295 54.1768 53.9295 47.4958C53.9295 40.8049 48.0929 35.3722 40.907 35.3722C33.7311 35.3722 27.8845 40.8148 27.8845 47.4958Z" fill="black"/>
<path d="M12.2441 90.4177C12.2441 90.4177 15.6822 87.5117 21.0291 85.1449C27.6653 82.2088 36.94 79.3527 45.2952 81.2202L45.1853 81.7195C30.3038 78.404 12.424 90.2979 12.2441 90.4177Z" fill="#BFBFBF"/>
<path d="M3.05859 114.026C3.05859 114.026 8.25562 106.546 11.2239 103.62C28.8538 86.2038 48.7924 83.8171 49.0223 83.7871L49.0822 84.2964C48.8124 84.3264 21.8778 87.562 3.05859 114.026Z" fill="#BFBFBF"/>
<path d="M9.76562 127.567C9.76562 127.567 14.0332 120.247 16.3519 117.161C34.7813 92.7445 51.5617 86.2733 51.7416 86.1934L51.9215 86.6727C51.7116 86.7626 30.6137 94.9116 9.76562 127.567Z" fill="#BFBFBF"/>
<path d="M36.9199 117.282C36.9199 117.282 39.1986 109.672 40.7877 106.676C47.334 94.2927 55.3394 90.0284 55.4393 89.9785L55.6792 90.4379C55.5592 90.4978 43.4262 96.9691 36.9199 117.282Z" fill="#BFBFBF"/>
<path d="M95.6945 104.169C87.6891 89.9282 72.6777 84.9349 72.4978 84.875L72.3379 85.3643C72.5478 85.4342 92.4864 92.0653 98.4329 111.928H98.4429C97.7833 109.502 96.7339 106.006 95.6945 104.169Z" fill="#BFBFBF"/>
<path d="M99.1133 114.524C99.1133 114.535 99.1234 114.545 99.1234 114.565C99.1133 114.565 99.1133 114.545 99.1133 114.524Z" fill="black"/>
<path d="M108.366 99.186C95.0541 87.2721 77.684 82.3587 77.4641 82.2988L77.3242 82.7982C77.5741 82.8681 100.921 89.4691 114.093 105.957C112.324 103.54 110.115 100.754 108.366 99.186Z" fill="#BFBFBF"/>
<path d="M114.094 105.947C114.104 105.968 114.114 105.978 114.124 105.998C114.124 105.978 114.104 105.968 114.094 105.947Z" fill="black"/>
<path d="M121.36 93.0843C107.448 77.815 81.753 78.4341 81.4531 78.4341L81.4731 78.9435C81.8029 78.9335 114.234 78.1645 125.648 100.095L125.658 100.085C124.798 98.3871 122.879 94.752 121.36 93.0843Z" fill="#BFBFBF"/>
<path d="M83.6309 74.4692L83.7408 74.9685C83.9907 74.9086 107.137 69.8555 119.3 73.7802C117.412 73.0511 114.903 72.2123 112.964 72.0125C100.601 70.7542 84.5004 74.2695 83.6309 74.4692Z" fill="#BFBFBF"/>
<path d="M60.1559 38.7777C62.7944 34.3737 68.8209 33.7046 67.1719 25.1162C64.7632 30.0895 59.7161 30.6088 60.1559 38.7777Z" fill="#6D2E03"/>
<path d="M75.227 38.4574C72.5885 34.0534 66.562 33.3843 68.211 24.7959C70.6196 29.7791 75.6667 30.2885 75.227 38.4574Z" fill="#6D2E03"/>
<path d="M56.7773 25.5456C60.4452 21.9505 66.4518 22.8493 67.0415 14.1211C63.4435 18.3154 58.4264 17.5265 56.7773 25.5456Z" fill="#6D2E03"/>
<path d="M76.4372 26.0649C73.1791 22.1003 67.1126 22.33 67.4723 13.5918C70.5906 18.1556 75.6677 17.9159 76.4372 26.0649Z" fill="#6D2E03"/>
<path d="M46.6035 10.635C54.2691 9.12702 61.9048 12.2128 67.8014 7.20961C61.5949 7.51919 57.8671 4.12379 46.6035 10.635Z" fill="#6D2E03"/>
<path d="M90.0095 8.55825C80.505 7.14017 76.3473 11.8238 68.4219 7.79928C72.6894 7.24004 76.2574 5.21278 79.9053 5.053C82.8936 4.92317 86.6614 6.05165 90.0095 8.55825Z" fill="#6D2E03"/>
<path d="M68.4219 7.80933C68.8516 8.02903 69.2614 8.20879 69.6712 8.37856C71.7899 7.26007 74.2086 6.42121 76.6372 5.6123C74.0686 6.30137 71.4102 7.41986 68.4219 7.80933Z" fill="#A78268"/>
<path d="M66.8223 8.85816C66.8223 8.85816 68.2714 5.60257 70.8799 4.67383L71.0498 5.15318C68.6212 6.022 66.8423 8.8282 66.8223 8.85816Z" fill="#592301"/>
<path d="M92.2962 17.896C87.459 18.3254 90.7071 27.0236 88.3984 31.6274C95.5144 29.7599 97.7831 17.4066 92.2962 17.896Z" fill="#6D2E03"/>
<path d="M100.532 18.076C97.304 18.3656 99.4727 24.1578 97.9336 27.2236C102.681 25.9753 104.19 17.7465 100.532 18.076Z" fill="#6D2E03"/>
<path d="M76.6663 44.3005L60.1558 43.7412C60.1558 43.7412 49.0521 47.6759 44.5547 66.021L82.503 67.6189C85.0415 54.1771 76.6663 44.3005 76.6663 44.3005Z" fill="#FF8500"/>
<path d="M76.4766 44.46C80.8041 62.3358 72.6888 65.2119 65.6328 66.9096L82.5231 67.6186C84.2821 58.1914 80.4643 48.5844 76.4766 44.46Z" fill="#ED5C01"/>
<path d="M44.5645 66.0208L47.6827 66.1506C48.2923 58.3013 52.7798 50.372 57.9368 44.8994C54.4488 47.0765 47.7926 52.8187 44.5645 66.0208Z" fill="#FFB666"/>
<path d="M82.7223 67.8888L44.2344 66.271L44.3043 65.9714C46.9728 55.0862 52.0199 49.2141 55.6778 46.2282C57.9665 44.3707 60.2352 43.9912 60.2352 43.9912C60.1253 44.0312 49.3315 48.0657 44.874 65.7817L82.2926 67.3596C84.6312 54.3072 76.5459 44.5704 76.4659 44.4706C76.4659 44.4706 78.2449 45.8087 79.6941 48.595C81.8728 52.7893 84.2714 59.62 82.7623 67.6691L82.7223 67.8888Z" fill="#592301"/>
<path d="M82.4925 66.4603C81.0233 58.4811 66.7715 65.5515 60.7949 65.5116C56.2575 65.4816 46.5031 60.059 44.6142 65.8611C42.8652 71.2139 49.2415 72.3823 54.0188 76.0673C57.8566 79.0233 59.4457 82.2689 62.1641 82.1391C64.8126 82.0093 65.822 77.6552 70.0096 75.2384C76.0862 71.7132 83.302 70.8643 82.4925 66.4603Z" fill="#FF7E7E"/>
<path d="M82.4936 66.4606C82.1738 64.7229 81.2543 63.7043 79.9451 63.165C81.4842 67.3194 75.1978 70.1855 71.0702 72.2427C67.892 73.8306 62.9448 80.2319 60.3063 74.3299C58.3375 78.7439 55.2692 76.2273 53.4902 75.6681C53.6701 75.7979 53.85 75.9278 54.0299 76.0676C57.8677 79.0236 59.4568 82.2692 62.1753 82.1393C64.8237 82.0095 65.8332 77.6554 70.0208 75.2387C76.0873 71.7135 83.3032 70.8646 82.4936 66.4606Z" fill="#D35E5E"/>
<path d="M47.3832 64.8729C51.9506 63.6046 54.3792 66.7603 59.0266 66.8802C64.9132 67.03 75.0874 61.4176 79.7447 62.9355C73.928 61.6972 64.9332 65.522 60.7956 65.4921C56.2582 65.4621 46.5037 60.0394 44.6148 65.8416C44.4349 66.4008 44.0551 68.0686 44.8147 69.5466C44.7947 66.9101 46.2839 65.1825 47.3832 64.8729Z" fill="#FFB7B7"/>
<path d="M61.9949 82.3892C60.2359 82.3892 58.9267 81.061 57.2776 79.3932C56.3182 78.4246 55.2388 77.326 53.8596 76.2675C52.5404 75.2489 51.1012 74.43 49.712 73.641C46.134 71.6038 43.0358 69.8362 44.355 65.7817C44.9847 63.8543 46.4638 62.9255 48.8824 62.9255C50.9313 62.9255 53.3199 63.5747 55.6286 64.2038C57.5875 64.7331 59.4364 65.2424 60.7856 65.2524C62.5846 65.2524 65.0832 64.6332 67.7217 63.9841C70.8699 63.2052 74.128 62.4062 76.8664 62.4062C80.3144 62.4062 82.2234 63.7145 82.7231 66.4208C83.3227 69.6564 80.0246 71.0246 75.847 72.7622C74.048 73.5112 71.9992 74.3601 70.1103 75.4586C68.1214 76.617 66.8721 78.1949 65.7728 79.593C64.6234 81.061 63.624 82.3193 62.1448 82.3992C62.1149 82.3892 62.0549 82.3892 61.9949 82.3892ZM48.8924 63.4349C46.6937 63.4349 45.4044 64.2338 44.8448 65.9415C43.6554 69.5965 46.4338 71.1844 49.9618 73.2016C51.361 74.0005 52.8102 74.8294 54.1594 75.868C55.5586 76.9466 56.658 78.0551 57.6274 79.0437C59.2565 80.7015 60.4358 81.8899 61.9849 81.8899C62.0149 81.8998 62.0849 81.8899 62.1349 81.8899C63.3741 81.8299 64.2636 80.7015 65.383 79.2834C66.4524 77.9252 67.7916 76.2275 69.8704 75.0292C71.7893 73.9207 73.8481 73.0618 75.6671 72.3028C79.6248 70.6551 82.753 69.3468 82.2333 66.5307C81.7836 64.084 80.0846 62.9355 76.8764 62.9355C74.1979 62.9355 70.9698 63.7345 67.8516 64.5034C65.1731 65.1625 62.6446 65.7917 60.8356 65.7917H60.7856C59.3764 65.7817 57.4975 65.2724 55.4987 64.7231C53.23 64.074 50.8713 63.4349 48.8924 63.4349Z" fill="#762E2F"/>
<path d="M62.6141 82.2193C60.9351 80.8312 60.2854 77.7554 60.0356 75.1489C59.8257 72.892 60.4453 70.8447 60.4453 70.8447C60.4453 70.9346 60.0156 79.4131 62.9439 81.8298L62.6141 82.2193Z" fill="#762E2F"/>
<path d="M52.3404 70.6246C51.0811 70.0055 49.0423 70.6646 48.9023 72.7218C50.5514 73.6805 52.3404 74.6292 53.8995 75.8176C54.4792 76.257 54.9989 76.7064 55.4786 77.1458C55.9083 75.2683 54.1893 71.5334 52.3404 70.6246Z" fill="#BF4750"/>
<path d="M52.3421 70.6251C51.8024 70.3655 50.8329 70.4654 50.2233 70.6751C49.4237 72.8821 54.5308 74.2103 55.4803 77.1463C55.91 75.2688 54.191 71.5339 52.3421 70.6251Z" fill="#9B313D"/>
<path d="M55.5993 77.5754L55.3294 77.3358C54.7797 76.8364 54.27 76.407 53.7603 76.0175C52.5111 75.0588 51.1218 74.2799 49.7326 73.491C49.4028 73.3012 49.073 73.1215 48.7532 72.9317L48.6133 72.8518L48.6233 72.702C48.7832 70.4451 51.0619 69.766 52.4111 70.4351C54.29 71.3638 56.139 75.1787 55.6692 77.2259L55.5993 77.5754ZM49.183 72.5922C49.4528 72.752 49.7226 72.9018 50.0025 73.0615C51.3817 73.8605 52.7709 74.6494 54.0302 75.6181C54.4499 75.9476 54.8797 76.2972 55.3194 76.6966C55.4694 74.7892 53.8603 71.6035 52.2612 70.8246C52.0413 70.7147 51.7915 70.6548 51.5316 70.6348C50.5122 70.5549 49.3429 71.2041 49.183 72.5922Z" fill="#762E2F"/>
<path d="M70.7807 70.3255C68.9118 71.2542 66.9929 75.3886 67.3727 77.346C68.1123 76.597 68.9518 75.868 69.9812 75.2388C71.3304 74.4299 72.7496 73.7309 74.1588 73.0817C74.3187 70.7249 72.12 69.6564 70.7807 70.3255Z" fill="#BF4750"/>
<path d="M72.2899 70.2153C71.7802 70.0655 71.2305 70.0954 70.7807 70.3251C68.9118 71.2539 66.9929 75.3883 67.3727 77.3456C67.3927 77.3256 67.4027 77.3157 67.4227 77.2957C68.662 74.09 74.0189 73.3111 72.2899 70.2153Z" fill="#9B313D"/>
<path d="M67.2234 77.8251L67.1435 77.4257C66.7637 75.4284 68.7126 71.1342 70.6915 70.1455C71.511 69.7361 72.6603 69.9059 73.4299 70.575C74.1195 71.1642 74.4793 72.053 74.4093 73.0816L74.3993 73.2314L74.2494 73.3013C73.0601 73.8505 71.531 74.5795 70.0818 75.4484C69.1823 75.9876 68.3528 76.6567 67.5133 77.5156L67.2234 77.8251ZM71.421 70.3453C71.2211 70.3652 71.0313 70.4252 70.8614 70.5051C69.1823 71.3339 67.5033 74.8891 67.5632 76.8365C68.3128 76.1075 69.0724 75.5183 69.8819 75.0289C71.2711 74.1901 72.7403 73.481 73.9096 72.9318C73.9296 72.1129 73.6398 71.3939 73.0801 70.9045C72.6104 70.4951 71.9907 70.2854 71.421 70.3453Z" fill="#762E2F"/>
<path d="M48.3225 18.9243C53.1597 19.3537 49.9116 28.0519 52.2203 32.6557C45.1043 30.7882 42.8356 18.435 48.3225 18.9243Z" fill="#6D2E03"/>
<path d="M40.0863 19.1044C43.3145 19.394 41.1457 25.1861 42.6848 28.252C37.9376 27.0037 36.4284 18.7748 40.0863 19.1044Z" fill="#6D2E03"/>
<path d="M64.0741 91.057C61.2157 87.1922 62.8648 81.9892 62.9348 81.7695L63.4245 81.9293C63.4045 81.9793 61.7854 87.1023 64.4839 90.7574L64.0741 91.057Z" fill="#6F5E48"/>
<path d="M122.219 27.633C117.492 28.4619 125.517 35.3126 123.169 43.0521C127.246 40.0662 128.006 26.6244 122.219 27.633Z" fill="#6D2E03"/>
<path d="M123.279 27.623C124.359 29.4805 125.388 31.358 126.378 33.2654C126.248 30.3793 125.288 27.9426 123.279 27.623Z" fill="#3F1803"/>
<path d="M51.0608 341.587C50.9908 341.447 44.1847 327.286 55.4583 315.083L55.838 315.433C44.8144 327.366 51.4505 341.218 51.5205 341.357L51.0608 341.587Z" fill="#6F5E48"/>
</g>
<defs>
<clipPath id="clip0_489_2143">
<rect width="227" height="347" fill="white"/>
</clipPath>
</defs>
</svg>
