<svg width="462" height="222" viewBox="0 0 462 222" fill="none" xmlns="http://www.w3.org/2000/svg">
<g clip-path="url(#clip0_490_2691)">
<path d="M167.625 197.589C167.625 197.589 234.215 225.685 294.376 192.983C294.376 192.983 281.058 220.158 232.838 222C184.158 223.842 167.625 197.589 167.625 197.589Z" fill="#FAD6BE"/>
<path d="M422.964 4.60547C422.046 4.60547 420.668 5.06605 419.75 5.98721C397.706 4.14489 377.04 5.98721 353.159 7.82954C312.286 10.593 271.873 13.3565 231 15.1988C156.602 17.9623 77.6123 20.7258 4.59245 7.82954C2.29622 7.36895 0 10.1324 0 11.5142C0.459245 22.5681 12.3996 27.1739 23.4215 32.2403C47.7614 42.8337 50.0577 75.5349 56.4871 93.9582C62.9165 111.921 79.9086 158.439 108.841 170.875C167.624 226.605 283.813 216.933 355.455 174.099C392.654 151.991 418.372 120.211 429.394 85.6677C432.149 76.9167 432.608 68.1656 433.068 59.4146C433.986 44.676 439.956 33.6221 443.63 19.3441C447.304 8.29011 433.527 5.98721 422.964 4.60547Z" fill="#EE7964"/>
<path d="M203.445 18.8843C141.906 21.1872 72.5604 22.5689 12.3993 11.9756C11.9401 11.9756 10.5624 13.3573 11.4808 13.8179C34.4431 23.4901 67.5087 23.0295 92.7671 24.4113C129.047 26.2536 166.705 25.3324 202.527 21.1872C203.445 20.7266 204.823 18.8843 203.445 18.8843Z" fill="#EE7964"/>
<path d="M452.815 14.278C444.089 3.68465 431.69 0.921162 417.912 0L409.187 1.38174C411.942 4.60581 416.994 6.90871 412.861 6.90871C398.165 7.36929 383.469 9.21162 368.314 11.0539C361.884 12.4357 355.455 13.3568 349.026 14.278C345.811 14.7386 342.596 14.7386 339.381 15.1992C324.686 17.5021 309.99 19.805 295.294 21.6473C263.606 25.7925 231.918 29.9378 199.771 32.7012C138.232 38.2282 74.8566 39.61 14.2363 26.2531C18.8288 28.556 23.4212 30.3983 27.0952 33.6224C34.4431 40.0705 40.8725 46.9793 45.465 54.8091C55.5683 71.39 62.9163 88.8921 72.5604 105.473C75.3159 110.079 78.0713 115.145 80.8268 119.751C84.0415 123.896 87.7155 127.581 91.8487 131.726C126.292 165.349 175.89 185.154 231.918 186.535C280.598 187.917 329.278 171.797 366.477 148.307C388.061 134.95 395.869 113.763 407.809 95.3403C415.616 83.3652 422.505 71.39 428.475 58.9544C432.149 51.5851 436.282 20.2656 461.081 33.6224C461.541 34.083 462 34.083 462.459 34.083C460.163 27.6349 457.867 20.2656 452.815 14.278Z" fill="#FAD6BE"/>
<path d="M415.156 1.84277C418.371 4.14568 422.045 5.988 425.719 7.83033C427.097 8.29091 428.475 9.21207 429.393 10.1332C411.023 13.8179 392.194 17.0419 373.365 19.8054C363.262 21.6478 352.699 23.0295 342.137 24.4112C332.492 25.3324 325.604 25.793 323.308 26.2536H322.848C266.82 32.2411 209.415 35.0046 152.469 34.544C130.884 34.544 38.1167 39.6104 11.4805 23.4901C13.7767 27.1747 16.9914 30.3988 22.5023 33.1623C25.717 34.544 28.4725 36.3863 31.6872 37.7681C38.5759 43.2951 42.7091 48.3614 46.3831 55.2702C50.5163 63.5606 55.1087 71.8511 59.7011 80.1415C63.3751 84.7473 66.5898 88.8926 70.2638 93.4984C74.8562 99.4859 79.4487 105.013 84.0411 111C89.0928 117.909 94.6037 124.818 100.574 131.727C111.137 143.241 124.455 152.453 140.069 159.822C140.528 159.822 140.987 160.283 140.987 160.283C167.624 172.718 199.771 179.166 235.133 179.627C368.773 181.469 410.564 83.8262 439.496 17.5025C444.548 21.1872 450.059 23.9507 456.488 24.4112C446.844 12.8967 435.363 3.22452 415.156 1.84277Z" fill="#C4464A"/>
<path d="M360.507 129.884C317.797 169.494 245.696 183.772 174.513 165.349C154.306 160.283 137.314 151.071 123.078 140.478C106.086 124.357 92.7674 106.855 79.9086 89.3532C78.0716 86.1291 76.2346 82.4445 74.8569 79.2204C68.8867 66.7847 62.4573 50.6644 48.2207 40.5316C85.8788 44.2163 134.099 41.4528 142.366 41.4528C214.008 40.071 287.028 36.847 357.292 27.1748C367.396 26.2536 377.958 25.3324 388.062 24.4113C404.594 22.569 419.29 21.1872 433.068 17.042C413.32 56.1914 398.165 95.3407 360.507 129.884Z" fill="#8C0C00"/>
<path d="M248.909 96.7227C226.406 96.7227 203.444 97.1832 180.941 99.4861C168.082 100.868 154.764 102.25 142.365 105.013C132.72 107.316 113.432 113.304 105.625 121.594C111.136 128.042 117.106 134.49 123.536 140.478C137.313 151.071 154.305 159.822 174.971 165.349C246.154 183.772 318.255 169.494 360.965 129.884C365.557 125.739 369.691 121.133 373.365 116.988C349.484 97.1832 277.382 97.1832 248.909 96.7227Z" fill="#FF7858"/>
<path d="M349.943 132.648C298.967 142.32 245.235 145.544 192.881 140.017C169.001 137.714 142.365 133.569 118.025 127.121C115.728 127.582 113.891 128.503 112.514 129.424C116.188 133.109 119.402 137.254 123.536 140.478C137.313 151.071 154.305 159.822 174.971 165.349C242.939 182.851 311.826 170.416 355.454 134.951C352.699 134.951 351.321 134.03 349.943 132.648Z" fill="white"/>
<path opacity="0.6" d="M349.944 132.647C343.055 134.029 335.707 135.411 328.819 136.332C304.479 173.639 227.785 175.481 169.92 163.967C171.757 164.428 173.135 164.888 174.972 165.349C242.94 182.851 311.826 170.415 355.455 134.95C352.699 134.95 351.322 134.029 349.944 132.647Z" fill="#B8A997"/>
<path d="M411.942 30.8596C414.698 27.175 416.994 23.4903 419.749 19.8057C410.105 21.648 399.543 23.0297 388.521 23.9509C378.417 24.8721 367.855 26.2538 357.751 26.7144C287.028 36.8472 214.008 40.0712 142.366 41.453C135.018 41.453 96.4411 43.7559 62.457 41.9135C76.2344 53.4281 90.4709 63.5609 107.004 71.3907C151.55 81.0629 208.497 81.5235 233.755 80.6023C295.753 77.3783 352.7 64.0214 402.757 41.453C405.972 37.7683 409.187 34.5443 411.942 30.8596Z" fill="white"/>
<path opacity="0.6" d="M388.061 24.4111C377.958 25.3323 367.395 26.714 357.292 27.1746C287.028 36.8468 214.008 40.0709 142.366 41.4526C135.018 41.4526 96.4411 43.7555 62.457 41.9132C68.4272 46.9796 74.3974 51.5854 80.8268 55.7306C81.2861 53.8883 83.123 52.5066 85.4193 52.046C108.841 47.9007 132.262 49.2825 155.684 48.3613C187.372 46.9796 219.059 44.2161 250.747 41.4526C278.761 39.1497 307.694 37.768 335.248 33.1622C354.077 29.9381 371.988 26.714 391.276 27.6352C394.491 27.6352 397.246 29.9381 397.246 32.241C397.246 35.9256 397.246 39.6103 396.787 43.2949C399.083 42.3738 400.92 41.4526 403.217 40.5315C406.431 37.3074 409.646 34.0833 412.401 30.3987C415.157 26.714 417.453 23.0294 420.209 19.3447C409.646 22.1082 399.083 23.0294 388.061 24.4111Z" fill="#B8A997"/>
<path d="M181.861 110.539C179.564 105.934 169.002 105.934 163.491 105.934C156.143 105.934 148.795 106.855 142.366 109.618C140.988 110.079 139.61 111.461 138.692 112.842C138.232 113.303 137.773 113.303 137.314 113.763C129.966 122.054 150.632 122.975 156.602 122.975C164.869 122.975 186.912 120.212 181.861 110.539Z" fill="#EF7874"/>
<path d="M187.372 124.817C183.698 124.817 179.105 130.344 183.698 130.805C187.372 130.805 192.423 124.817 187.372 124.817Z" fill="#EF7874"/>
<path d="M252.585 192.523C227.326 189.759 202.986 188.838 177.728 184.232C175.891 183.772 173.135 185.614 174.513 186.996C191.964 201.734 228.704 205.88 251.207 197.129C253.044 196.207 256.259 192.983 252.585 192.523Z" fill="#EE7964"/>
</g>
<defs>
<clipPath id="clip0_490_2691">
<rect width="462" height="222" fill="white"/>
</clipPath>
</defs>
</svg>
