<svg width="477" height="381" viewBox="0 0 477 381" fill="none" xmlns="http://www.w3.org/2000/svg">
<g clip-path="url(#clip0_424_1690)">
<path d="M381.857 72.8066C381.857 72.8066 424.915 94.709 416.803 147.693C409.702 194.056 413.812 212.593 432.754 235.563C451.695 258.532 423.781 267.52 443.214 328.918C446.697 338.399 443.965 349.63 439.227 350.136C442.217 353.379 448.199 373.106 411.819 373.106C397.548 373.106 385.53 373.106 385.899 361.245C381.57 350.82 393.806 345.772 412.064 342.776C412.16 337.81 416.052 327.673 421.282 325.43C423.713 321.065 427.51 275.003 412.556 257.287C397.602 239.557 366.207 209.187 363.967 194.795C361.741 180.403 381.857 72.8066 381.857 72.8066Z" fill="#D09A4F"/>
<path d="M423.632 326.305C428.33 308.507 425.216 275.564 415.152 260.229C425.476 280.626 423.482 321.503 421.283 325.429C417.378 327.112 414.223 333.186 412.83 338.221C415.684 333.227 418.648 328.193 423.632 326.305Z" fill="#EDC39A"/>
<path d="M443.214 328.918C423.781 267.507 451.681 258.519 432.753 235.563C413.812 212.594 409.701 194.057 416.803 147.694C421.022 120.169 399.91 87.2946 389.722 75.2559C398.981 91.8229 400.757 123.178 396.305 142.618C392.822 157.831 400.729 185.315 406.151 201.239C416.748 232.362 433.805 240.94 432.316 253.471C427.455 294.156 434.747 317.564 436.987 324.048C438.707 328.836 442.012 345.855 434.091 348.947C436.795 353.625 437.151 364.351 430.759 366.731C413.197 373.284 395.772 371.848 387.674 367.921C391.484 373.092 401.002 373.106 411.832 373.106C448.212 373.106 442.231 353.393 439.24 350.137C443.965 349.644 446.71 338.413 443.214 328.918Z" fill="#B77E39"/>
<path d="M411.819 373.475C401.399 373.475 392.4 373.475 388.098 369.029C386.282 367.155 385.435 364.624 385.531 361.314C384.329 358.386 384.37 355.718 385.667 353.406C388.426 348.427 396.701 344.952 411.71 342.462C411.942 337.646 415.602 327.605 421.023 325.143C423.14 320.683 427.264 275.277 412.283 257.52C408.528 253.074 403.721 247.793 398.613 242.212C383.004 225.111 365.306 205.726 363.599 194.836C361.373 180.54 380.655 77.13 381.475 72.7386L381.57 72.2461L382.021 72.4787C382.13 72.5334 392.973 78.1287 402.656 90.1538C411.6 101.249 421.378 120.251 417.172 147.762C410.249 193.003 413.649 211.828 433.041 235.331C441.972 246.165 440.634 253.785 438.613 265.332C436.332 278.314 433.218 296.099 443.57 328.809C446.246 336.101 445.209 344.049 442.86 347.825C442.013 349.179 441.002 350.055 439.896 350.383C441.385 352.517 442.983 357.634 440.893 362.422C438.695 367.47 431.866 373.475 411.819 373.475ZM382.13 73.3816C380.642 81.3983 362.219 181.074 364.35 194.727C366.016 205.384 384.397 225.522 399.173 241.706C404.281 247.287 409.088 252.568 412.857 257.028C427.592 274.484 424.383 320.642 421.624 325.594L421.556 325.703L421.433 325.758C416.298 327.961 412.529 338.112 412.434 342.777V343.091L412.119 343.146C397.371 345.567 388.931 349.042 386.295 353.776C385.094 355.937 385.08 358.331 386.227 361.108L386.254 361.177V361.259C386.159 364.392 386.924 366.758 388.617 368.51C392.7 372.737 401.549 372.737 411.805 372.737C431.443 372.737 438.08 366.977 440.197 362.134C442.341 357.223 440.402 351.984 438.94 350.397L438.435 349.849L439.172 349.767C440.292 349.644 441.344 348.837 442.218 347.428C444.471 343.803 445.454 336.128 442.86 329.055C432.44 296.154 435.581 278.26 437.861 265.209C439.855 253.867 441.166 246.371 432.454 235.809C412.898 212.101 409.456 193.154 416.421 147.653C420.586 120.429 410.931 101.632 402.082 90.66C393.629 80.1123 384.261 74.5581 382.13 73.3816Z" fill="black"/>
<path d="M429.148 260.215C429.176 260.037 431.77 241.925 424.71 237.109C420.968 234.564 417.158 230.091 414.29 226.26C411.545 222.608 410.152 218.887 410.152 218.887C410.234 219.01 417.95 231.61 425.133 236.493C429.421 239.407 430.377 246.603 430.405 252.335C430.432 256.576 429.148 260.215 429.148 260.215Z" fill="#44250C"/>
<path d="M385.599 363.202C385.108 353.133 409.484 351.204 409.484 351.204C409.252 351.231 385.722 354.433 386.35 363.147L385.599 363.202Z" fill="#44250C"/>
<path d="M396.278 353.857C394.721 350.191 391.73 347.455 386.227 351.477C380.71 355.499 377.555 359.206 378.211 361.327C379.044 363.981 389.532 366.826 395.363 363.584C399.528 361.272 396.278 353.857 396.278 353.857Z" fill="#712703"/>
<path d="M378.129 360.602C378.252 358.413 381.297 355.075 386.213 351.491C390.747 348.194 394.503 349.603 396.101 353.461C393.902 350.779 390.665 350.205 387.88 351.874C384.411 353.939 380.437 357.018 378.129 360.602Z" fill="#963A15"/>
<path d="M390.583 361.915C394.366 361.122 396.892 357.401 396.318 353.967C396.673 354.842 399.254 361.436 395.362 363.598C389.531 366.84 379.043 364.008 378.21 361.341C378.128 361.067 378.101 360.752 378.142 360.424C381.542 362.148 385.981 362.886 390.583 361.915Z" fill="#471400"/>
<path d="M381.174 363.981C379.331 363.242 378.156 362.339 377.883 361.436C377.187 359.206 380.15 355.472 386.022 351.203C388.426 349.452 390.57 348.823 392.4 349.315C394.134 349.794 395.554 351.272 396.592 353.721C396.743 354.049 399.911 361.45 395.527 363.885C394.039 364.72 392.236 365.171 390.351 365.322C387.17 365.582 383.742 365.007 381.174 363.981ZM386.418 351.764C380.97 355.732 377.952 359.357 378.525 361.231C378.73 361.901 379.822 362.695 381.42 363.338C385.271 364.884 391.403 365.39 395.186 363.283C399.023 361.149 395.991 354.076 395.95 353.994C394.995 351.751 393.738 350.396 392.209 349.986C391.744 349.863 391.253 349.822 390.747 349.863C389.464 349.958 388.016 350.601 386.418 351.764Z" fill="#2D0B00"/>
<path d="M401.742 359.837C399.98 355.705 396.607 352.6 390.38 357.142C384.152 361.684 380.574 365.87 381.325 368.278C382.268 371.287 394.108 374.489 400.704 370.822C405.415 368.209 401.742 359.837 401.742 359.837Z" fill="#712703"/>
<path d="M381.244 367.443C381.381 364.967 384.822 361.205 390.38 357.141C395.501 353.407 399.735 355.007 401.551 359.358C399.066 356.321 395.406 355.678 392.251 357.566C388.345 359.919 383.852 363.393 381.244 367.443Z" fill="#963A15"/>
<path d="M395.309 368.934C399.583 368.031 402.437 363.832 401.795 359.946C402.205 360.931 405.1 368.387 400.717 370.822C394.121 374.489 382.267 371.287 381.338 368.278C381.243 367.963 381.215 367.621 381.27 367.252C385.094 369.194 390.119 370.029 395.309 368.934Z" fill="#471400"/>
<path d="M384.685 371.26C382.595 370.425 381.284 369.399 380.957 368.387C380.178 365.87 383.524 361.656 390.147 356.827C392.865 354.843 395.296 354.132 397.358 354.706C399.324 355.254 400.908 356.923 402.097 359.686C402.26 360.069 405.838 368.414 400.895 371.164C399.201 372.094 397.18 372.614 395.05 372.792C391.445 373.079 387.58 372.436 384.685 371.26ZM390.612 357.456C384.453 361.943 381.039 366.047 381.694 368.154C381.926 368.92 383.155 369.81 384.958 370.535C389.301 372.272 396.224 372.847 400.512 370.48C404.855 368.072 401.414 360.069 401.386 359.987C400.308 357.456 398.887 355.924 397.153 355.445C396.634 355.295 396.074 355.254 395.501 355.295C394.053 355.431 392.414 356.156 390.612 357.456Z" fill="#2D0B00"/>
<path d="M225.316 185.383C225.316 185.383 215.852 254.031 211.864 264.771C212.615 268.013 211.113 281.502 205.883 285.483C204.135 293.718 194.425 319.93 197.416 332.667C200.407 345.403 193.674 350.643 193.674 350.643C196.665 350.643 213.803 362.558 179.472 367.62C161.295 370.301 147.12 366.539 149.482 357.921C143.569 349.275 155.286 343.255 172.753 337.044C173.504 333.802 178.352 323.884 181.971 318.193C188.58 307.837 186.955 282.5 186.955 282.5C183.965 281.502 184.333 265.715 187.952 264.524C184.47 251.295 194.179 209.611 176.495 189.391C158.782 169.158 225.316 185.383 225.316 185.383Z" fill="#D09A4F"/>
<path d="M185.097 315.088C189.002 308.453 187.651 283.294 189.562 282.432C185.247 280.312 185.616 266.987 190.177 263.95C187.596 253.471 188.661 233.128 186.626 220.378C187.309 236.548 185.657 257 187.569 264.278C183.95 265.469 183.581 281.256 186.572 282.255C186.572 282.255 188.197 307.591 181.587 317.947C178.774 322.352 174.172 332.38 172.369 336.798C177.04 328.18 181.15 321.682 185.097 315.088Z" fill="#EDC39A"/>
<path d="M224.933 185.137C224.933 185.137 219.921 183.92 213.024 182.565C218.323 206.711 207.917 235.016 205.8 259.094C207.289 266.577 206.265 278.725 201.034 284.088C198.44 291.94 194.548 310.929 192.581 326.183C192.076 330.519 199.819 339.726 190.191 351.067C194.67 354.556 194.507 358.181 193.332 359.317C191.256 361.341 179.703 364.132 170.349 364.474C158.072 364.912 147.365 355.39 171.141 345.746C163.316 348.126 155.395 348.4 148.977 360.78C150.492 367.155 163.261 369.7 179.075 367.361C213.421 362.299 196.268 350.383 193.278 350.383C193.278 350.383 200.01 345.144 197.019 332.407C194.029 319.671 203.752 293.473 205.486 285.223C210.717 281.229 212.219 267.753 211.468 264.511C215.469 253.786 224.933 185.137 224.933 185.137Z" fill="#B77E39"/>
<path d="M168.163 368.578C159.601 368.578 152.937 366.813 150.055 363.571C148.58 361.902 148.13 359.946 148.676 357.729C147.215 355.513 146.805 353.352 147.474 351.299C149.427 345.294 160.407 340.642 172.028 336.497C172.93 333.009 177.668 323.364 181.246 317.728C187.378 308.097 186.326 285.004 186.19 282.487C184.688 281.639 184.169 277.89 184.169 274.539C184.182 271.132 184.81 265.277 187.105 264.046C186.081 259.791 186.285 252.828 186.531 244.784C187.064 227.191 187.801 203.099 175.797 189.364C172.943 186.108 172.069 183.523 173.189 181.69C178.174 173.44 223.103 184.289 225.015 184.754L225.342 184.836L225.301 185.164C224.919 187.955 215.838 253.567 211.864 264.525C212.56 267.958 211.044 281.283 205.827 285.428C205.404 287.398 204.53 290.394 203.533 293.828C200.187 305.32 195.135 322.694 197.388 332.311C199.914 343.05 195.681 348.522 194.083 350.15C196.227 350.821 200.324 353.666 200.57 357.059C200.816 360.452 197.306 365.048 179.143 367.716C175.265 368.304 171.564 368.578 168.163 368.578ZM184.319 179.323C179.061 179.323 175.074 180.075 173.844 182.086C172.916 183.618 173.776 185.903 176.385 188.885C188.593 202.839 187.842 227.095 187.31 244.825C187.064 252.992 186.845 260.051 187.924 264.183L188.02 264.525L187.678 264.634C186.121 265.14 184.947 269.408 184.933 274.552C184.92 278.465 185.657 281.543 186.681 281.885L186.914 281.967L186.927 282.213C186.995 283.253 188.484 307.796 181.888 318.138C178.337 323.706 173.448 333.693 172.711 336.867L172.67 337.072L172.479 337.14C160.967 341.231 150.055 345.8 148.198 351.532C147.583 353.434 147.979 355.363 149.4 357.456L149.495 357.592L149.454 357.757C148.894 359.781 149.29 361.574 150.629 363.078C154.48 367.429 165.637 368.975 179.048 366.991C197.565 364.269 200.024 359.645 199.846 357.127C199.6 353.776 194.711 350.766 193.318 350.766H192.239L193.086 350.096C193.154 350.041 199.587 344.829 196.691 332.503C194.397 322.707 199.477 305.21 202.85 293.65C203.875 290.148 204.749 287.111 205.158 285.168L205.186 285.032L205.295 284.949C210.43 281.023 211.864 267.78 211.14 264.607L211.112 264.497L211.153 264.388C214.936 254.196 223.813 190.637 224.537 185.411C221.491 184.699 198.385 179.323 184.319 179.323Z" fill="#44250C"/>
<path d="M151.979 357.825C151.652 356.58 151.856 355.335 152.594 354.131C156.063 348.413 171.153 345.731 171.153 345.731C171.003 345.759 156.541 349.069 153.236 354.514C152.608 355.554 152.43 356.566 152.703 357.62L151.979 357.825Z" fill="#44250C"/>
<path d="M159.067 350.287C157.606 346.881 154.834 344.323 149.685 348.071C144.537 351.819 141.601 355.267 142.215 357.25C142.994 359.727 152.772 362.367 158.207 359.357C162.099 357.209 159.067 350.287 159.067 350.287Z" fill="#712703"/>
<path d="M142.162 356.567C142.271 354.528 145.112 351.409 149.7 348.071C153.92 344.993 157.43 346.307 158.918 349.904C156.87 347.401 153.852 346.867 151.244 348.427C148.007 350.37 144.306 353.229 142.162 356.567Z" fill="#963A15"/>
<path d="M153.755 357.798C157.279 357.059 159.641 353.584 159.108 350.383C159.45 351.19 161.84 357.346 158.221 359.357C152.772 362.381 143.008 359.74 142.229 357.25C142.147 356.99 142.134 356.703 142.175 356.402C145.329 358.016 149.481 358.701 153.755 357.798Z" fill="#471400"/>
<path d="M144.988 359.727C143.268 359.043 142.175 358.195 141.916 357.36C141.274 355.281 144.032 351.806 149.509 347.825C151.748 346.197 153.756 345.595 155.463 346.074C157.088 346.525 158.399 347.907 159.368 350.178C159.505 350.493 162.455 357.387 158.371 359.645C156.979 360.411 155.299 360.835 153.537 360.985C150.574 361.218 147.392 360.684 144.988 359.727ZM149.891 348.331C144.811 352.038 141.998 355.418 142.53 357.169C142.721 357.798 143.732 358.537 145.234 359.139C148.826 360.575 154.534 361.054 158.071 359.084C161.649 357.1 158.822 350.493 158.781 350.424C157.894 348.331 156.719 347.072 155.285 346.676C154.848 346.553 154.398 346.512 153.92 346.553C152.718 346.662 151.366 347.25 149.891 348.331Z" fill="#2D0B00"/>
<path d="M164.175 355.869C162.523 352.011 159.395 349.124 153.578 353.365C147.774 357.592 144.442 361.505 145.138 363.749C146.012 366.553 157.06 369.535 163.205 366.115C167.589 363.667 164.175 355.869 164.175 355.869Z" fill="#712703"/>
<path d="M145.057 362.955C145.18 360.643 148.389 357.127 153.578 353.352C158.344 349.877 162.305 351.354 163.998 355.417C161.676 352.586 158.276 351.984 155.326 353.748C151.68 355.937 147.501 359.18 145.057 362.955Z" fill="#963A15"/>
<path d="M158.167 364.351C162.155 363.516 164.818 359.59 164.217 355.965C164.599 356.881 167.303 363.831 163.206 366.102C157.061 369.522 146.013 366.526 145.139 363.735C145.043 363.448 145.03 363.12 145.071 362.778C148.649 364.597 153.333 365.363 158.167 364.351Z" fill="#471400"/>
<path d="M148.266 366.513C146.327 365.733 145.098 364.789 144.798 363.831C144.06 361.478 147.187 357.552 153.374 353.051C155.914 351.204 158.167 350.534 160.093 351.067C161.923 351.573 163.411 353.133 164.504 355.705C164.654 356.061 168 363.845 163.384 366.403C161.813 367.279 159.915 367.757 157.935 367.922C154.576 368.209 150.97 367.607 148.266 366.513ZM153.797 353.653C148.061 357.839 144.866 361.656 145.494 363.626C145.713 364.337 146.86 365.172 148.539 365.842C152.595 367.47 159.055 368.004 163.042 365.787C167.085 363.544 163.889 356.088 163.848 356.006C162.838 353.639 161.513 352.216 159.901 351.779C159.41 351.642 158.905 351.601 158.358 351.642C156.993 351.751 155.477 352.422 153.797 353.653Z" fill="#2D0B00"/>
<path d="M185.752 282.118L186.244 281.557C186.954 282.186 188.866 282.405 189.548 282.432C189.548 282.432 186.79 283.02 185.752 282.118Z" fill="black"/>
<path d="M387.522 73.2725C387.522 73.2725 406.587 84.7503 414.056 110.21C419.628 129.184 428.764 130.799 441.71 134.301C454.67 137.789 462.14 150.526 459.901 175.985C454.165 175.739 452.676 173.742 452.676 173.742C452.676 173.742 456.91 147.037 442.707 142.783C428.505 138.542 412.8 144.78 397.86 123.808C382.92 102.836 387.522 73.2725 387.522 73.2725Z" fill="#D09A4F"/>
<path d="M448.799 141.128C438.871 133.932 426.731 139.993 414.317 128.227C404.976 119.362 411.081 108.131 387.811 97.1865C389.094 105.833 391.948 115.518 397.875 123.836C412.829 144.808 428.52 138.57 442.722 142.811C456.925 147.052 452.691 173.77 452.691 173.77C452.691 173.77 453.784 175.22 457.676 175.808C456.884 158.188 456.665 146.833 448.799 141.128Z" fill="#B77E39"/>
<path d="M460.257 176.382L459.901 176.369C454.057 176.109 452.459 174.057 452.391 173.974L452.295 173.851L452.322 173.701C452.363 173.441 456.337 147.27 442.613 143.166C438.666 141.99 434.678 141.634 430.445 141.251C419.615 140.28 408.431 139.281 397.561 124.055C382.689 103.206 387.114 73.5328 387.155 73.2318L387.236 72.6846L387.714 72.9719C387.906 73.0813 406.983 84.8191 414.412 110.128C419.67 128.049 428.246 130.334 440.1 133.508L441.821 133.973C455.996 137.79 462.373 152.346 460.284 176.054L460.257 176.382ZM453.087 173.632C453.483 174.016 455.163 175.356 459.574 175.602C461.568 152.182 455.531 138.419 441.629 134.671L439.922 134.205C427.837 130.977 419.097 128.651 413.716 110.319C407.024 87.5415 390.842 75.8995 387.824 73.9021C387.291 78.1294 384.628 104.601 398.175 123.603C408.841 138.556 419.861 139.541 430.513 140.498C434.788 140.882 438.816 141.237 442.831 142.441C456.72 146.586 453.469 171.074 453.087 173.632Z" fill="#44250C"/>
<path d="M454.124 166.245C449.549 165.246 448.088 180.363 453.154 194.892C458.207 209.421 441.192 216.931 449.522 232.417C457.852 247.904 462.509 248.164 457.156 255.715C464.844 251.16 473.448 240.092 466.401 227.862C459.354 215.632 480.453 208.764 476.029 193.633C471.604 178.503 460.529 167.627 454.124 166.245Z" fill="#632311"/>
<path d="M453.142 194.892C448.089 180.363 449.536 165.246 454.111 166.245C459.915 167.504 469.543 176.533 474.596 189.475C474.964 194.769 472.725 200.829 470.444 205.139C467.194 211.267 462.892 214.975 462.209 220.611C462.155 226.672 471.4 236.18 464.053 246.891C468.013 239.695 463.247 229.148 460.857 223.648C459.628 218.395 462.469 213.046 465.514 208.477C473.858 195.959 470.349 183.045 461.172 174.194C462.005 178.845 463.329 187.915 463.903 192.512C464.708 198.463 462.797 204.331 460.243 210.091C458.399 214.086 454.972 222.636 457.047 228.696C459.014 234.442 467.139 238.519 460.68 250.722C464.818 235.947 454.712 235.701 454.084 225.864C453.21 216.124 461.185 206.288 461.049 196.014C460.871 188.353 454.89 166.847 454.371 168.051C449.004 177.135 454.234 188.708 456.037 198.558C456.747 201.335 455.791 207.41 453.729 211.254C449.304 220.803 448.021 229.558 455.272 238.492C457.594 241.392 461.335 247.302 459.123 252.363C460.448 247.302 455.791 244.155 449.482 232.417C441.179 216.917 458.208 209.421 453.142 194.892Z" fill="#4C170B"/>
<path d="M456.843 255.496C460.434 250.434 459.41 248.888 455.573 243.101C453.948 240.639 451.708 237.274 449.181 232.581C444.648 224.154 447.515 217.957 450.301 211.978C452.773 206.657 455.108 201.636 452.8 195.001C448.608 182.962 448.84 170.157 451.831 166.751C452.5 165.985 453.319 165.684 454.193 165.875C460.339 167.202 471.769 177.818 476.357 193.51C478.611 201.198 474.35 206.903 470.581 211.937C466.661 217.191 463.261 221.719 466.689 227.67C473.872 240.146 465.023 251.446 457.307 256.016L455.832 256.891L456.843 255.496ZM452.377 167.243C449.509 170.486 449.373 182.949 453.483 194.768C455.887 201.677 453.388 207.081 450.957 212.293C448.13 218.381 445.467 224.127 449.823 232.239C452.336 236.904 454.466 240.119 456.173 242.705C459.656 247.958 461.049 250.051 458.386 254.47C465.432 249.586 472.547 239.285 466.061 228.039C462.401 221.678 466.088 216.739 469.994 211.513C473.831 206.383 477.805 201.075 475.647 193.729C471.141 178.297 459.997 167.886 454.016 166.6C453.429 166.464 452.882 166.669 452.377 167.243Z" fill="#2B0800"/>
<path d="M457.321 256.03C460.435 254.238 463.002 248.259 461.582 240.735C460.981 237.534 459.424 235.701 457.936 233.922C455.778 231.364 453.743 228.956 454.563 222.595C455.327 216.671 456.884 212.8 458.263 209.38C460.025 205.002 461.541 201.226 461.227 194.55C460.681 182.963 453.689 166.273 453.62 166.108L452.951 166.396C453.019 166.56 459.957 183.127 460.503 194.591C460.817 201.117 459.329 204.824 457.594 209.12C456.201 212.581 454.631 216.493 453.852 222.513C452.992 229.189 455.232 231.843 457.389 234.401C458.892 236.18 460.312 237.876 460.885 240.886C462.237 248.082 459.875 253.745 456.966 255.414L457.321 256.03Z" fill="#2B0800"/>
<path d="M459.779 253.595C467.235 246.782 467.809 236.631 461.431 224.25C459.383 220.255 462.906 213.935 466.02 208.34C467.727 205.289 469.324 202.389 469.884 200.145C473.025 187.395 464.231 172.593 464.149 172.442L463.521 172.825C463.602 172.976 472.233 187.518 469.174 199.967C468.642 202.129 467.058 204.974 465.378 207.984C462.182 213.73 458.55 220.242 460.789 224.578C467.085 236.809 466.58 246.385 459.287 253.047L459.779 253.595Z" fill="#2B0800"/>
<path d="M231.666 66.0762C231.666 66.0762 239.395 37.1147 247.111 27.1417C248.6 28.8928 248.736 35.8835 248.736 35.8835C249.228 30.767 255.715 15.5407 266.435 9.91804C265.943 11.7923 262.57 19.6585 262.57 19.6585C267.801 14.2958 274.902 1.18992 290.975 0.4375C287.984 3.31039 278.521 11.6691 278.521 11.6691C287.37 9.54867 297.954 0.806872 308.291 1.92867C305.929 4.17226 302.815 8.54999 302.815 8.54999C309.288 6.3064 326.482 2.55797 334.839 11.546C330.974 12.2984 319.394 12.5447 319.394 12.5447C327.861 14.2958 340.944 16.5394 346.556 26.6492C344.317 27.1417 335.344 25.0212 335.344 25.0212C342.692 28.6465 351.295 33.38 357.522 60.3441C343.552 46.9783 281.634 36.4854 231.666 66.0762Z" fill="#632311"/>
<path d="M327.15 21.0133C330.141 21.0133 332.38 19.5222 335.371 20.2609C325.648 16.5125 315.187 13.5164 304.726 14.2689C307.717 12.0253 309.957 10.5204 313.698 9.78169C306.966 9.78169 300.247 9.78169 295.017 14.2689C294.265 11.2729 298.007 10.5204 297.256 7.52441C289.035 9.768 282.303 15.76 273.33 16.5125C273.33 15.0213 271.842 13.5164 272.579 12.0253C268.1 15.7737 267.349 24.0093 260.616 25.5005C260.616 24.0093 259.128 23.2569 259.865 21.7521C253.133 26.2392 253.884 36.7321 246.414 40.4669C247.11 39.0715 245.226 38.9757 245.554 37.7582C242.331 45.7339 242.522 54.2841 239.408 61.8357C287.833 37.5666 344.261 47.6491 357.494 60.3172C356.033 53.9832 354.435 48.894 352.755 44.7352C345.545 35.5556 336.873 27.4978 327.15 21.0133Z" fill="#4C170B"/>
<path d="M231.064 66.8563L231.297 65.967C231.379 65.6797 239.135 36.8277 246.81 26.8957L247.097 26.5264L247.397 26.8684C248.326 27.9491 248.749 30.8083 248.941 33.0109C250.852 26.3485 257.093 14.3508 266.243 9.56262L266.994 9.16589L266.776 9.98671C266.434 11.2727 264.795 15.2537 263.758 17.7298C264.304 17.0869 264.864 16.3892 265.478 15.6504C270.668 9.33005 277.755 0.656661 290.961 0.0410413L291.958 0L291.234 0.684022C288.912 2.91393 282.644 8.49555 279.981 10.8486C282.781 9.97303 285.744 8.53659 288.858 7.03174C295.194 3.98101 301.749 0.807145 308.345 1.53221L309.151 1.61429L308.564 2.17519C306.911 3.74844 304.863 6.38876 303.825 7.79785C312.388 5.08912 327.519 3.0781 335.125 11.259L335.59 11.7515L334.934 11.8746C332.326 12.3808 326.372 12.6544 322.643 12.7912C330.837 14.5149 341.885 17.3878 346.911 26.4306L347.156 26.8684L346.665 26.9778C345.176 27.3061 341.011 26.5674 338.143 25.9791C344.726 29.5224 352.264 35.8154 357.904 60.2213L358.191 61.4388L357.289 60.5769C343.797 47.6626 282.426 36.4584 231.897 66.3638L231.064 66.8563ZM247.097 27.7713C240.364 36.9235 233.618 60.4128 232.266 65.283C281.907 36.3763 341.694 46.6503 356.866 59.2636C350.571 32.9288 342.035 28.7289 335.153 25.3498L332.189 23.886L335.412 24.6521C338.225 25.3225 343.701 26.4306 345.927 26.3348C340.533 17.2373 328.953 14.8706 320.458 13.1469L316.047 12.244L319.366 12.1756C319.475 12.1756 329.731 11.943 334.06 11.3C326.208 3.63899 310.885 6.14251 302.924 8.90596L301.818 9.28901L302.5 8.33138C302.623 8.16722 305.191 4.56926 307.444 2.24359C301.326 1.8879 295.14 4.85655 289.172 7.74312C285.444 9.53526 281.934 11.2453 278.602 12.0388L277.141 12.3945L278.274 11.3958C278.356 11.3137 286.441 4.18621 289.978 0.889228C277.769 1.87422 271.036 10.1098 266.093 16.1566C264.891 17.6341 263.853 18.9064 262.843 19.9324L261.436 21.3688L262.228 19.522C262.255 19.4536 264.836 13.4068 265.792 10.7118C255.851 16.5123 249.61 30.8631 249.118 35.9248L248.367 35.8974C248.326 34.119 248.039 29.5497 247.097 27.7713Z" fill="#2B0800"/>
<path d="M61.918 172.222C61.918 172.222 69.3879 181.963 70.139 195.999C71.2589 193.372 73.1298 187.572 73.1298 187.572C72.9386 192.442 71.8188 201.608 84.3416 211.348C83.5905 208.161 81.9108 202.141 81.9108 202.141C84.1504 205.548 89.5719 213.414 94.9935 215.849C93.6825 213.045 89.5719 206.3 89.5719 206.3C96.8644 212.101 112.187 215.849 122.279 215.849C111.067 208.544 73.2663 184.11 71.8597 166.805C65.4686 170.156 61.918 172.222 61.918 172.222Z" fill="#632311"/>
<path d="M73.743 182.756C73.743 190.239 76.8703 200.5 80.653 204.056C79.9975 200.965 79.3011 198.762 79.7244 196.984C81.964 201.471 85.7059 204.467 88.6966 208.215C88.2323 206.669 86.9213 203.769 86.9213 202.278C89.1882 205.206 92.9164 208.12 95.8388 210.007C103.746 213.646 114.548 215.849 122.277 215.849C111.066 208.544 73.265 184.11 71.8584 166.805C68.4443 168.597 65.8633 170.02 64.1699 170.964C68.5536 175.957 70.7386 182.359 70.7386 188.775C71.4897 186.505 73.743 185.013 73.743 182.756Z" fill="#4C170B"/>
<path d="M95.7576 216.602L94.8426 216.191C91.292 214.591 87.2634 210.582 82.8797 204.248C83.4397 206.3 84.2454 209.338 84.7097 211.28L84.9555 212.306L84.1225 211.663C73.4296 203.345 72.5556 195.52 72.6648 190.226C72.023 192.128 71.1353 194.672 70.4935 196.163L69.8653 197.641L69.7834 196.04C69.0459 182.291 61.7125 172.565 61.6442 172.469L61.3848 172.127L61.7535 171.908C61.7945 171.88 65.3861 169.801 71.7089 166.477L72.2142 166.217L72.2552 166.778C73.6208 183.728 110.151 207.504 122.155 215.316L123.562 216.232H122.305C112.91 216.232 98.7756 213.004 90.8823 207.71C92.1797 209.885 94.4466 213.729 95.3616 215.699L95.7576 216.602ZM88.1511 204.686L89.8035 205.999C96.8365 211.595 111.094 215.152 120.981 215.453C108.362 207.231 73.6208 184.316 71.545 167.38C66.6424 169.965 63.4878 171.757 62.4636 172.332C63.72 174.11 69.3191 182.647 70.3979 194.344C71.4631 191.512 72.7604 187.504 72.7741 187.449L73.6071 184.863L73.4706 188.365C73.2384 193.318 72.8697 201.512 83.7264 210.377C82.9207 207.121 81.5687 202.292 81.5551 202.237L80.9132 199.925L82.2242 201.923C87.5092 209.953 91.5105 213.469 94.1598 214.988C92.5484 211.882 89.2982 206.547 89.2572 206.478L88.1511 204.686Z" fill="#2B0800"/>
<path d="M106.329 103.014C106.329 103.014 101.345 133.097 115.178 141.524C112.379 141.716 108.077 138.911 108.077 138.911C110.139 141.716 115.929 152.386 123.591 154.438C121.529 155.369 117.65 154.438 117.65 154.438C122.28 158.748 131.443 167.353 140.224 168.666C132.754 170.349 101.536 165.67 96.1142 146.011C90.6927 126.352 94.1204 103.821 106.329 103.014Z" fill="#632311"/>
<path d="M111.122 150.567C112.61 150.567 114.112 150.567 115.601 150.567C109.619 147.571 106.629 140.827 103.638 134.835C105.127 134.835 106.629 136.326 108.117 136.326C103.01 129.923 103.351 116.954 95.1438 115.203C92.8223 123.644 93.1364 135.245 96.0998 145.998C100.934 163.522 126.253 169.145 136.987 168.954C126.622 165.178 117.144 159.815 111.122 150.567Z" fill="#4C170B"/>
<path d="M136.536 169.35C125.351 169.35 100.538 163.44 95.7583 146.107C91.6478 131.209 92.631 115.367 98.1481 107.583C100.319 104.519 103.064 102.85 106.301 102.631L106.765 102.604L106.683 103.069C106.629 103.37 101.904 133.001 115.355 141.196L116.366 141.812L115.191 141.894C113.32 142.017 110.848 140.895 109.305 140.061C109.415 140.211 109.51 140.375 109.619 140.553C112.323 144.685 117.349 152.373 123.672 154.069L124.682 154.343L123.74 154.781C122.347 155.424 120.203 155.246 118.851 155.041C123.754 159.596 132.152 167.079 140.278 168.297L142.258 168.598L140.305 169.036C139.363 169.241 138.079 169.35 136.536 169.35ZM105.891 103.438C103.092 103.766 100.702 105.312 98.7627 108.035C93.3684 115.641 92.4262 131.223 96.4821 145.916C101.385 163.728 127.987 169.186 137.997 168.584C129.94 166.382 122.019 159.008 117.581 154.89L116.352 153.741L117.745 154.069C117.772 154.083 120.34 154.685 122.306 154.398C116.297 152.072 111.613 144.917 109.019 140.95C108.527 140.197 108.104 139.541 107.776 139.117L106.56 137.461L108.281 138.583C108.322 138.61 111.285 140.526 113.798 141.032C102.095 132.222 105.304 107.337 105.891 103.438Z" fill="#2B0800"/>
<path d="M97.1097 113.247C97.1097 113.247 98.1066 140.211 109.073 152.934C120.039 165.671 131.25 168.913 145.958 163.413C157.088 159.296 176.111 84.2857 223.949 76.2964C227.937 68.0607 256.342 18.3871 290.974 16.636C325.606 14.8849 343.933 35.6244 358.696 53.8878C371.41 69.6203 400.238 66.2276 406.097 107.994C413.826 163.058 381.297 185.507 393.642 233.06C405.987 280.614 391.402 259.272 372.338 297.468C353.274 335.664 364.117 352.887 345.244 357.375C350.666 360.179 367.873 380.426 318.15 379.468C299.318 379.099 293.2 372.82 296.341 366.363C287.751 357.758 306.938 348.578 322.643 348.017C321.769 340.657 329.062 331.149 338.348 328.167C343.305 326.58 368.965 259.546 364.513 241.679C359.843 222.964 346.951 210.228 344.575 181.649C338.102 188.64 299.468 227.082 235.434 199.872C209.514 196.876 198.303 209.352 180.864 200.87C175.387 204.113 140.619 236.07 100.251 210.611C59.8827 185.152 66.2328 139.09 66.2328 139.09C69.9474 134.589 97.1097 113.247 97.1097 113.247Z" fill="#D09A4F"/>
<path d="M354.516 110.087C344.26 125.464 341.556 157.435 344.069 182.155C344.246 181.978 344.397 181.8 344.547 181.649C345.844 207.109 363.434 230.694 364.84 244.73C365.277 229.941 354.53 214.619 350.323 190.5C345.257 161.443 348.125 127.475 354.516 110.087Z" fill="#EDC39A"/>
<path d="M340.219 329.302C348.781 317.934 367.845 268.452 364.991 247.179C364.759 270.381 342.854 326.717 338.32 328.167C330.741 330.602 324.487 337.387 322.93 343.817C329.963 333.666 335.33 331.177 340.219 329.302Z" fill="#EDC39A"/>
<path d="M161.868 151.429C158.481 155.041 155.655 157.476 153.811 158.789C171.4 127.42 191.175 76.9257 237.934 77.9517C234.943 76.4605 229.835 76.2827 228.852 76.3237C238.575 56.8565 253.748 36.1443 273.781 25.3915C294.88 14.0641 322.876 20.7675 343.183 39.9885C351.554 47.9095 356.757 55.721 371.697 63.6967C368.938 61.8772 360.758 56.4597 358.696 53.9015C343.934 35.6381 325.621 14.8986 290.975 16.6497C256.329 18.3871 227.924 68.0744 223.936 76.31C176.098 84.2994 157.075 159.309 145.945 163.427C142.859 164.576 139.923 165.342 137.096 165.725C147.625 166.423 156.474 161.649 161.868 151.429Z" fill="#EDC39A"/>
<path d="M368.214 62.3285C369.416 62.7252 370.563 63.1904 371.683 63.6965C369.621 62.5748 367.627 61.4256 365.756 60.167C366.548 61.2477 367.381 62.0549 368.214 62.3285Z" fill="#B77E39"/>
<path d="M406.097 108.007C402.232 80.4271 388.343 72.5335 375.698 65.8301C409.524 91.905 399.05 142.167 387.674 174.275C383.769 185.301 379.89 210.747 383.536 225.371C390.651 254.018 395.144 256.33 376.367 278.793C367.695 289.163 356.265 319.424 354.776 334.527C354.025 344.268 348.549 352.75 339.454 356.498C341.147 359.617 352.059 366.977 343.442 372.094C329.485 378.893 302.746 376.704 295.699 370.781C296.751 375.432 303.702 379.18 318.15 379.468C367.873 380.425 350.666 360.178 345.244 357.374C364.117 352.887 353.274 335.663 372.338 297.467C391.402 259.271 405.974 280.613 393.642 233.06C381.31 185.506 413.812 163.071 406.097 108.007Z" fill="#B77E39"/>
<path d="M344.548 181.649C343.25 172.306 339.741 132.988 354.517 110.087C348.044 120.128 343.551 132.714 336.832 143.207C324.118 161.922 310.721 173.236 287.546 179.228C268.114 183.715 245.335 179.228 238.152 163.427C233.672 170.91 228.428 176.902 220.958 182.894C219.47 182.894 217.968 185.138 217.217 185.89C206.005 200.118 182.257 203.21 172.547 187.491C165.077 206.206 147.146 210.98 128.451 209.489C108.267 208.737 75.0138 187.463 87.4274 168.995C98.4207 152.633 83.1666 146.094 98.9669 128.104C99.3766 126.052 100.401 122.126 101.589 119.868C100.333 112.577 97.1233 113.274 97.1233 113.274C97.1233 113.274 69.961 134.616 66.2192 139.117C66.2192 139.117 59.869 185.179 100.237 210.638C140.605 236.097 175.36 204.154 180.85 200.898C198.289 209.379 209.501 196.903 235.42 199.899C299.441 227.082 338.061 188.64 344.548 181.649Z" fill="#B77E39"/>
<path d="M321.441 379.878C320.376 379.878 319.27 379.865 318.136 379.851C306.583 379.632 298.758 377.129 296.122 372.806C294.948 370.89 294.866 368.688 295.89 366.444C293.937 364.379 293.364 362.108 294.251 359.864C296.846 353.256 310.98 348.181 322.219 347.675C321.619 340.123 329.13 330.752 338.211 327.824C340.287 327.154 347.525 311.832 354.585 290.915C362.437 267.658 366.001 249.285 364.131 241.774C362.369 234.688 359.419 228.477 356.292 221.897C351.389 211.554 345.831 199.844 344.261 182.525C339.795 187.217 328.72 197.423 311.704 203.948C288.106 212.991 262.419 211.746 235.325 200.254C223.635 198.914 214.963 200.733 207.302 202.347C198.248 204.249 190.409 205.891 180.863 201.321C180.29 201.677 179.429 202.306 178.364 203.086C167.972 210.693 136.344 233.854 100.032 210.952C79.0695 197.737 70.8894 178.886 67.7212 165.41C64.2935 150.813 65.8366 139.185 65.8503 139.062L65.8639 138.952L65.9322 138.87C69.6467 134.369 95.7712 113.821 96.8773 112.96L97.4509 112.508L97.4782 113.247C97.4919 113.52 98.598 140.225 109.346 152.701C120.311 165.424 131.209 168.529 145.808 163.085C149.154 161.853 153.483 153.481 158.972 142.879C171.618 118.473 190.696 81.6177 223.676 75.9813C225.929 71.3847 234 57.1844 245.662 43.805C260.957 26.2803 276.184 17.0187 290.933 16.2799C327.272 14.4604 346.336 38.0592 358.955 53.6686C363.038 58.7303 368.856 61.8084 375.028 65.0644C387.893 71.8772 402.464 79.593 406.451 107.952C410.234 134.944 404.458 153.891 398.858 172.209C393.123 191.006 387.701 208.764 393.983 232.964C401.795 263.075 398.804 265.852 390.801 273.239C386.117 277.576 379.699 283.5 372.652 297.632C364.226 314.513 361.645 327.318 359.774 336.676C357.439 348.277 356.128 354.816 346.173 357.511C349.027 359.467 353.984 364.898 352.687 370.042C351.54 374.598 345.107 379.878 321.441 379.878ZM344.848 180.773L344.916 181.622C346.377 199.269 351.758 210.61 356.961 221.568C360.102 228.19 363.065 234.442 364.854 241.583C367.599 252.609 359.078 279.915 355.295 291.147C349.477 308.384 341.379 327.578 338.443 328.522C329.498 331.395 322.138 340.67 322.998 347.962L323.053 348.372L322.643 348.386C310.161 348.838 297.215 354.31 294.934 360.124C294.129 362.176 294.688 364.187 296.587 366.089L296.778 366.28L296.655 366.526C295.644 368.619 295.672 370.658 296.737 372.409C299.236 376.499 306.843 378.88 318.136 379.099C344.042 379.605 350.829 374.352 351.963 369.864C353.288 364.611 347.484 358.975 345.053 357.716L344.151 357.251L345.135 357.018C355.418 354.57 356.702 348.167 359.037 336.539C360.921 327.14 363.516 314.281 371.983 297.303C379.098 283.062 385.571 277.07 390.296 272.706C398.053 265.524 400.962 262.842 393.259 233.169C386.923 208.75 392.372 190.897 398.148 172.004C403.72 153.755 409.469 134.903 405.714 108.062C401.795 80.0855 387.387 72.4655 374.687 65.7347C368.46 62.4377 362.574 59.3186 358.381 54.1474C345.859 38.6474 326.917 15.2129 290.974 17.0324C276.43 17.7711 261.381 26.937 246.222 44.2975C234.451 57.7727 226.38 72.0961 224.249 76.4738L224.167 76.6517L223.976 76.679C191.256 82.1375 172.219 118.897 159.628 143.207C153.851 154.37 149.672 162.442 146.054 163.769C131.318 169.268 119.806 166.012 108.758 153.18C98.8438 141.675 97.0139 118.391 96.7408 113.986C92.8487 117.05 70.1383 135.026 66.5331 139.24C66.3829 140.43 65.1811 151.511 68.4177 165.232C71.5586 178.571 79.6568 197.204 100.387 210.282C136.276 232.91 167.59 209.981 177.886 202.457C179.115 201.554 180.017 200.897 180.604 200.542L180.781 200.446L180.959 200.528C190.355 205.097 197.743 203.551 207.097 201.581C214.813 199.953 223.567 198.12 235.407 199.488L235.516 199.516C262.446 210.952 287.97 212.211 311.39 203.223C329.034 196.451 340.232 185.698 344.233 181.389L344.848 180.773Z" fill="#44250C"/>
<path d="M346.172 194.851C339.876 161.033 343.659 137.502 347.851 123.877C350.747 114.478 354.516 110.087 354.516 110.087C354.338 110.361 336.326 137.886 346.909 194.714L346.172 194.851Z" fill="#44250C"/>
<path d="M377.432 271.735C393.751 256.112 387.865 241.091 387.81 240.94C387.81 240.94 389.736 243.8 389.627 248.601C389.517 253.171 388.206 259.3 383.536 265.88C382.034 267.987 377.432 271.735 377.432 271.735Z" fill="#44250C"/>
<path d="M183.718 202.498C180.031 201.472 177.368 198.818 175.51 196.027C172.916 192.128 172.547 187.49 172.547 187.49C172.574 187.613 175.51 199.447 183.923 201.786L183.718 202.498Z" fill="#44250C"/>
<path d="M145.494 163.933L145.275 163.221C152.978 160.786 161.786 151.524 161.868 151.429C161.868 151.429 158.945 155.588 154.671 158.802C151.871 160.923 148.621 162.948 145.494 163.933Z" fill="#44250C"/>
<path d="M237.933 77.951C237.81 77.9236 226.202 75.1602 218.937 77.8005L218.678 77.1028C221.942 75.9126 225.984 75.7621 229.521 75.981C234.082 76.2683 237.933 77.951 237.933 77.951Z" fill="#44250C"/>
<path d="M296.013 368.483L295.275 368.387C296.641 359.754 319.597 357.374 319.597 357.374C319.365 357.415 296.928 361.081 296.013 368.483Z" fill="#44250C"/>
<path d="M305.518 359.577C303.961 355.91 300.97 353.174 295.467 357.196C289.95 361.218 286.795 364.926 287.451 367.046C288.284 369.7 298.772 372.546 304.603 369.304C308.768 366.992 305.518 359.577 305.518 359.577Z" fill="#712703"/>
<path d="M287.369 366.308C287.492 364.119 290.537 360.781 295.454 357.197C299.988 353.9 303.743 355.309 305.341 359.167C303.142 356.485 299.906 355.911 297.12 357.58C293.651 359.659 289.691 362.724 287.369 366.308Z" fill="#963A15"/>
<path d="M299.823 367.635C303.606 366.841 306.132 363.12 305.559 359.687C305.914 360.562 308.495 367.156 304.603 369.318C298.771 372.56 288.283 369.728 287.45 367.06C287.368 366.787 287.341 366.472 287.382 366.144C290.783 367.867 295.221 368.592 299.823 367.635Z" fill="#471400"/>
<path d="M290.415 369.687C288.571 368.948 287.397 368.045 287.123 367.142C286.427 364.912 289.39 361.178 295.263 356.909C297.666 355.158 299.81 354.529 301.64 355.022C303.374 355.5 304.795 356.978 305.833 359.427C305.983 359.755 309.151 367.156 304.767 369.591C303.279 370.426 301.476 370.877 299.592 371.028C296.41 371.301 292.982 370.727 290.415 369.687ZM295.672 357.47C290.223 361.438 287.205 365.063 287.779 366.937C287.984 367.608 289.076 368.401 290.674 369.044C294.525 370.59 300.657 371.096 304.44 368.989C308.277 366.855 305.245 359.782 305.204 359.7C304.248 357.457 302.992 356.102 301.463 355.692C300.998 355.569 300.507 355.528 300.001 355.569C298.704 355.678 297.256 356.321 295.672 357.47Z" fill="#2D0B00"/>
<path d="M310.994 365.556C309.232 361.424 305.859 358.319 299.631 362.861C293.404 367.403 289.826 371.589 290.577 373.997C291.52 377.006 303.36 380.207 309.956 376.541C314.653 373.928 310.994 365.556 310.994 365.556Z" fill="#712703"/>
<path d="M290.482 373.162C290.619 370.685 294.06 366.923 299.618 362.86C304.74 359.125 308.973 360.726 310.789 365.076C308.304 362.039 304.644 361.396 301.489 363.284C297.584 365.637 293.104 369.112 290.482 373.162Z" fill="#963A15"/>
<path d="M304.547 374.653C308.821 373.75 311.676 369.55 311.034 365.665C311.443 366.65 314.338 374.106 309.955 376.541C303.359 380.207 291.505 377.006 290.577 373.996C290.481 373.682 290.454 373.34 290.508 372.97C294.346 374.913 299.358 375.748 304.547 374.653Z" fill="#471400"/>
<path d="M293.923 376.978C291.834 376.144 290.523 375.118 290.195 374.106C289.416 371.588 292.762 367.375 299.386 362.546C302.103 360.562 304.534 359.851 306.596 360.425C308.563 360.972 310.147 362.641 311.335 365.405C311.499 365.788 315.077 374.133 310.133 376.883C308.453 377.813 306.419 378.333 304.288 378.511C300.697 378.798 296.832 378.141 293.923 376.978ZM299.85 363.175C293.691 367.662 290.277 371.766 290.932 373.873C291.164 374.639 292.394 375.528 294.196 376.253C298.539 377.991 305.463 378.565 309.751 376.199C314.093 373.791 310.652 365.788 310.625 365.706C309.546 363.175 308.126 361.643 306.391 361.164C305.872 361.013 305.312 360.972 304.739 361.013C303.291 361.15 301.653 361.862 299.85 363.175Z" fill="#2D0B00"/>
<path d="M186.23 264.949L186.79 265.456C188.415 263.664 190.095 263.937 190.177 263.951C190.163 263.951 188.142 262.829 186.23 264.949Z" fill="#D09A4F"/>
<path d="M239.462 358.127C239.462 358.127 249.855 349.139 242.958 336.156C236.062 323.173 239.148 294.718 239.968 287.235C244.529 283.746 243.382 262.774 239.859 260.531C240.569 253.047 237.906 216.343 235.98 204.865C243.778 185.89 237.414 166.423 237.414 166.423L191.065 176.656C183.595 202.361 214.99 260.777 216.984 264.525C214.499 269.012 217.735 284.499 221.887 286.989C227.076 297.591 226.516 331.546 223.963 334.419C218.992 339.001 212.997 348.154 212.751 351.888C200.815 356.567 186.025 364.871 192.376 371.233C193.304 378.634 202.973 380.959 218.732 379.55C252.6 376.5 243.122 361.629 239.462 358.127Z" fill="#D09A4F"/>
<path d="M226.626 335.418C228.988 319.357 227.964 300.095 224.728 286.838C217.613 281.38 217.162 266.085 219.634 263.308C210.402 243.362 189.904 206.37 191.42 176.766C183.95 202.471 214.977 260.777 216.971 264.526C214.486 269.013 217.722 284.499 221.874 286.989C227.063 297.591 226.503 331.546 223.949 334.419C218.978 339.002 212.983 348.154 212.738 351.889C207.33 354.009 201.335 356.882 196.978 359.974C203.834 356.308 209.214 354.009 213.598 353.271C215.278 347.579 220.44 338.92 226.626 335.418Z" fill="#EDC39A"/>
<path d="M239.462 358.127C239.462 358.127 249.855 349.139 242.958 336.156C236.062 323.173 239.148 294.718 239.967 287.235C244.529 283.746 243.381 262.774 239.858 260.531C240.568 253.047 237.905 216.343 235.98 204.865C243.778 185.89 237.414 166.423 237.414 166.423L236.649 166.587C236.267 168.393 235.734 170.034 234.423 170.91C231.378 173.961 220.521 168.94 220.521 168.94C229.807 186.273 231.009 199.844 229.042 206.493C232.033 216.794 235.42 245.81 235.857 260.667C238.793 265.784 239.285 282.816 235.83 287.755C235.925 306.469 233.057 326.073 239.476 337.934C242.712 346.266 240.5 352.819 235.42 356.553C239.94 362.942 238.233 368.674 234.3 371.41C223.334 379.044 199.149 378.442 192.635 372.45C194.437 378.894 203.874 380.905 218.746 379.564C252.599 376.5 243.122 361.629 239.462 358.127Z" fill="#B77E39"/>
<path d="M210.771 380.303C199.136 380.303 192.827 377.32 191.994 371.397C190.696 370.056 190.218 368.565 190.546 366.951C191.953 360.192 207.316 353.612 212.369 351.615C212.833 347.702 218.528 338.865 223.676 334.131C226.093 331.409 226.681 297.892 221.56 287.235C217.422 284.54 214.09 269.436 216.52 264.511C211.659 255.4 190.341 213.908 189.536 187.285C189.303 179.652 191.393 176.752 191.393 176.752C184.401 200.788 211.659 253.8 217.19 264.183L217.367 264.525L217.271 264.703C214.827 269.122 218.118 284.307 222.038 286.66L222.133 286.715L222.188 286.811C224.455 291.448 225.943 301.449 226.162 313.583C226.339 322.763 225.711 332.955 224.195 334.651C219.115 339.33 213.311 348.345 213.079 351.902L213.065 352.135L212.847 352.217C203.124 356.02 192.349 361.93 191.27 367.087C190.969 368.496 191.406 369.755 192.595 370.945L192.69 371.041L192.704 371.164C193.564 377.936 202.291 380.631 218.651 379.154C232.539 377.909 240.856 374.434 242.713 369.098C244.229 364.734 241.074 360.179 239.176 358.373L238.876 358.086L239.19 357.812C239.599 357.456 249.268 348.865 242.604 336.306C239.422 330.314 236.308 316.935 239.572 287.166L239.586 287.002L239.709 286.906C242.003 285.155 242.768 278.397 242.508 272.487C242.249 266.618 241.033 261.707 239.627 260.818L239.436 260.695L239.463 260.462C240.187 252.719 237.442 215.96 235.585 204.892L235.571 204.783L235.612 204.687C243.259 186.054 237.087 166.696 237.032 166.505C237.032 166.505 238.671 169.2 239.381 173.756C240.528 181.198 241.115 193.168 236.349 204.878C238.193 216.001 240.897 252.131 240.228 260.325C242.14 261.871 243.068 267.767 243.273 272.46C243.519 278.028 242.877 285.224 240.31 287.399C237.1 316.867 240.146 330.068 243.273 335.951C249.569 347.784 241.648 356.471 239.982 358.099C242.003 360.179 244.994 364.816 243.423 369.331C241.443 375.036 233.126 378.593 218.719 379.879C215.851 380.18 213.202 380.303 210.771 380.303Z" fill="#44250C"/>
<path d="M237.537 201.609L236.786 201.582C237.291 185.083 220.672 169.091 220.494 168.927C220.494 168.927 223.703 170.979 226.844 175.028C231.733 181.349 237.865 191.376 237.537 201.609Z" fill="#44250C"/>
<path d="M203.997 361.998C202.44 358.331 199.449 355.595 193.946 359.617C188.428 363.639 185.274 367.347 185.929 369.467C186.762 372.121 197.25 374.967 203.082 371.725C207.233 369.413 203.997 361.998 203.997 361.998Z" fill="#712703"/>
<path d="M185.848 368.742C185.971 366.554 189.016 363.216 193.932 359.631C198.466 356.334 202.222 357.743 203.819 361.601C201.621 358.92 198.384 358.345 195.598 360.014C192.13 362.08 188.156 365.158 185.848 368.742Z" fill="#963A15"/>
<path d="M198.288 370.056C202.071 369.262 204.597 365.541 204.023 362.107C204.379 362.983 206.96 369.577 203.068 371.738C197.236 374.981 186.748 372.149 185.915 369.481C185.833 369.208 185.806 368.893 185.847 368.565C189.261 370.288 193.699 371.027 198.288 370.056Z" fill="#471400"/>
<path d="M188.893 372.122C187.05 371.383 185.875 370.48 185.602 369.577C184.906 367.347 187.869 363.612 193.741 359.344C196.145 357.593 198.289 356.964 200.119 357.456C201.853 357.935 203.273 359.412 204.311 361.861C204.461 362.19 207.63 369.591 203.246 372.026C201.757 372.86 199.955 373.312 198.07 373.462C194.875 373.722 191.461 373.148 188.893 372.122ZM194.137 359.905C188.688 363.872 185.67 367.498 186.244 369.372C186.449 370.042 187.541 370.836 189.139 371.479C192.99 373.024 199.122 373.531 202.905 371.424C206.742 369.29 203.71 362.217 203.669 362.135C202.713 359.891 201.457 358.537 199.927 358.126C199.463 358.003 198.972 357.962 198.466 358.003C197.183 358.099 195.735 358.742 194.137 359.905Z" fill="#2D0B00"/>
<path d="M192.975 372.6C192.648 371.355 192.853 370.111 193.59 368.907C197.059 363.188 212.149 360.507 212.149 360.507C211.999 360.534 197.537 363.845 194.218 369.29C193.59 370.329 193.412 371.342 193.686 372.395L192.975 372.6Z" fill="#44250C"/>
<path d="M209.46 367.978C207.699 363.846 204.326 360.741 198.098 365.283C191.871 369.824 188.293 374.011 189.044 376.418C189.986 379.428 201.826 382.629 208.422 378.963C213.134 376.35 209.46 367.978 209.46 367.978Z" fill="#712703"/>
<path d="M188.963 375.583C189.099 373.107 192.541 369.345 198.099 365.282C203.22 361.547 207.453 363.148 209.27 367.498C206.784 364.461 203.124 363.818 199.97 365.706C196.051 368.059 191.571 371.534 188.963 375.583Z" fill="#963A15"/>
<path d="M203.027 377.075C207.302 376.172 210.156 371.972 209.514 368.087C209.924 369.072 212.819 376.528 208.435 378.963C201.839 382.629 189.986 379.428 189.057 376.418C188.961 376.104 188.934 375.762 188.989 375.392C192.813 377.335 197.824 378.169 203.027 377.075Z" fill="#471400"/>
<path d="M192.404 379.4C190.314 378.566 189.003 377.54 188.675 376.527C187.897 374.01 191.243 369.797 197.866 364.967C200.584 362.984 203.014 362.272 205.077 362.847C207.043 363.394 208.627 365.063 209.815 367.827C209.979 368.21 213.557 376.555 208.614 379.305C206.934 380.235 204.899 380.755 202.769 380.933C199.163 381.22 195.299 380.577 192.404 379.4ZM198.33 365.597C192.171 370.084 188.757 374.188 189.413 376.295C189.645 377.061 190.874 377.95 192.677 378.675C197.019 380.413 203.943 380.987 208.231 378.621C212.574 376.213 209.132 368.21 209.105 368.128C208.026 365.597 206.606 364.065 204.872 363.586C204.353 363.435 203.793 363.394 203.219 363.435C201.758 363.572 200.119 364.297 198.33 365.597Z" fill="#2D0B00"/>
<path d="M216.888 265.551L216.164 265.346C216.779 263.116 219.619 263.28 219.619 263.28C219.605 263.294 217.379 263.773 216.888 265.551Z" fill="black"/>
<path d="M220.535 286.29L221.122 285.825C222.106 287.056 224.7 286.838 224.728 286.838C224.714 286.838 222.078 287.781 220.535 286.29Z" fill="black"/>
<path d="M87.4551 56.172C87.4551 56.172 98.5167 52.3825 107.502 33.7908C113.102 22.2034 136.126 29.7003 131.483 50.5219C126.102 74.6405 99.3087 75.1741 97.6153 74.791C95.8947 74.4216 87.4551 56.172 87.4551 56.172Z" fill="#D09A4F"/>
<path d="M110.015 32.7921C111.681 30.4801 116.065 28.3049 122.743 29.7414C115.669 26.4444 109.715 29.1942 107.489 33.7908C98.503 52.3688 87.4414 56.172 87.4414 56.172C87.4414 56.172 89.9132 56.9107 90.0771 57.2527C101.999 50.4399 104.621 41.4381 110.015 32.7921Z" fill="#EDC39A"/>
<path d="M122.743 29.7412C133.149 35.6238 132.098 46.3903 127.113 55.8708C121.296 66.9383 106.711 70.9603 96.168 72.4789C96.4138 72.7662 97.438 74.7772 97.5882 74.8045C99.2953 75.1876 126.075 74.6541 131.456 50.5355C133.859 39.7826 128.888 32.5867 122.743 29.7412Z" fill="#B77E39"/>
<path d="M97.5192 75.1736C95.7712 74.7769 89.1069 60.6587 87.1131 56.3357L86.9355 55.9526L87.3316 55.8158C87.4408 55.7748 98.3522 51.8348 107.16 33.6262C109.55 28.6738 115.436 26.6902 121.472 28.797C128.505 31.2594 134.446 38.9478 131.837 50.6036C126.143 76.1176 97.7923 75.2284 97.5192 75.1736ZM87.9598 56.3767C91.9884 65.0501 96.6861 74.0929 97.683 74.4486C100.278 75.0231 125.965 73.5046 131.1 50.4531C133.599 39.2488 127.932 31.8614 121.213 29.5084C115.559 27.5247 110.042 29.3579 107.83 33.9545C99.7042 50.7541 90.0219 55.5149 87.9598 56.3767Z" fill="#44250C"/>
<path d="M94.3242 60.8371C94.3242 60.8371 100.702 58.0737 107.038 49.2908C110.917 43.9281 119.056 27.2927 125.092 41.3562C132.289 58.101 108.663 70.3724 98.4621 70.5776C96.8506 64.0931 94.3242 60.8371 94.3242 60.8371Z" fill="#F99A9A"/>
<path d="M115.314 41.8071C117.977 37.6756 122.511 37.1968 125.174 41.5472C125.146 41.4788 125.119 41.424 125.092 41.3556C119.056 27.2921 110.917 43.9139 107.038 49.2903C100.702 58.0594 94.3242 60.8366 94.3242 60.8366C94.3242 60.8366 96.8506 64.0925 98.4757 70.5907C98.6396 70.5907 98.2982 63.8052 98.4621 63.7915C107.789 59.9747 111.108 48.3463 115.314 41.8071Z" fill="#E57676"/>
<path d="M98.1746 70.9739L98.1063 70.6866C96.5359 64.3525 94.0504 61.1103 94.0231 61.0692L93.7227 60.6862L94.1597 60.4946C94.2279 60.4673 100.537 57.6491 106.723 49.0715C107.283 48.3054 107.912 47.3204 108.635 46.1849C111.626 41.5199 115.737 35.1311 119.888 35.4731C122.032 35.651 123.848 37.5252 125.419 41.2052C127.645 46.3901 127.181 51.5066 124.04 56.4042C118.386 65.2144 105.33 70.8234 98.4614 70.9602L98.1746 70.9739ZM94.8834 60.9871C95.5799 61.9995 97.4372 65.0502 98.7618 70.2078C105.535 69.9205 117.99 64.4756 123.425 56.0075C126.429 51.3288 126.88 46.4585 124.75 41.5199C123.316 38.1682 121.65 36.3897 119.847 36.2392C116.133 35.9246 112.172 42.0945 109.277 46.609C108.567 47.7034 107.912 48.7432 107.338 49.5229C101.862 57.1019 96.4129 60.2074 94.8834 60.9871Z" fill="#44250C"/>
<path d="M35.7251 54.9681C35.7251 54.9681 27.9546 47.4439 27.7225 28.346C27.5723 16.444 5.36716 13.6532 1.07909 32.9153C-3.87814 55.228 18.3406 66.2134 19.9111 66.5691C21.4952 66.9248 35.7251 54.9681 35.7251 54.9681Z" fill="#D09A4F"/>
<path d="M26.0009 26.5125C25.5229 23.9269 22.6961 20.3837 16.5371 18.9473C23.7613 18.9746 27.6533 23.626 27.7216 28.3457C27.9538 47.4436 35.7242 54.9678 35.7242 54.9678C35.7242 54.9678 33.3616 54.6121 33.0885 54.831C25.7824 44.4476 27.1207 35.87 26.0009 26.5125Z" fill="#EDC39A"/>
<path d="M16.538 18.9476C5.51739 19.7684 2.18526 29.1942 2.63592 39.0988C3.15486 50.6588 13.8068 59.77 22.0278 65.1874C21.7137 65.3379 20.0613 66.6102 19.9248 66.5692C18.3543 66.2135 -3.86447 55.2281 1.09276 32.9153C3.29142 22.9696 10.2834 18.9065 16.538 18.9476Z" fill="#B77E39"/>
<path d="M0.75089 32.8465C3.15439 22.0663 11.1297 17.9485 17.9851 18.6599C23.8573 19.2755 28.0088 23.2429 28.0634 28.332C28.2956 47.0331 35.8885 54.6394 35.9568 54.7078L36.2299 54.9814L35.9431 55.2277C32.57 58.0595 21.4538 67.2665 19.8424 66.9108C19.5829 66.8561 -4.49312 56.4316 0.75089 32.8465ZM27.3806 28.3457C27.326 23.6259 23.434 19.9185 17.9168 19.3439C11.3755 18.6599 3.72796 22.6136 1.42005 32.9833C-3.31868 54.2974 17.5891 65.6932 19.9926 66.2268C20.9758 66.3362 28.4458 60.6041 35.2193 54.9267C33.8264 53.4082 27.5855 45.5967 27.3806 28.3457Z" fill="#44250C"/>
<path d="M28.1318 56.1717C28.1318 56.1717 23.8711 51.3425 22.0138 41.5063C20.8804 35.4869 20.5799 18.359 10.01 27.7575C-2.58112 38.9481 12.3862 58.5111 20.8394 62.711C24.7451 57.8955 28.1318 56.1717 28.1318 56.1717Z" fill="#F99A9A"/>
<path d="M18.0278 31.971C17.4269 27.4702 13.808 25.2813 9.875 27.8806C9.91597 27.8396 9.97059 27.7985 10.0116 27.7575C20.5815 18.359 20.882 35.4869 22.0154 41.5063C23.8727 51.3425 28.1334 56.1717 28.1334 56.1717C28.1334 56.1717 24.733 57.8955 20.841 62.6973C20.7044 62.6289 23.6542 57.0883 23.5176 57.0062C17.1948 50.1523 18.9837 39.0986 18.0278 31.971Z" fill="#E57676"/>
<path d="M20.69 63.0122C14.9953 60.1803 6.26896 50.3578 4.98527 40.7541C4.27515 35.4187 5.88659 30.9589 9.79228 27.4841C12.5509 25.0216 14.8041 24.1734 16.675 24.8711C20.294 26.2118 21.2226 33.1752 21.8917 38.2643C22.0556 39.5092 22.2058 40.5763 22.3561 41.4381C24.1723 51.0555 28.3512 55.8983 28.3921 55.9394L28.6926 56.2814L28.2965 56.4866C28.2692 56.5003 24.9098 58.2377 21.1133 62.9301L20.9358 63.149L20.69 63.0122ZM21.6732 41.5613C21.5094 40.6857 21.3591 39.5502 21.1953 38.36C20.5398 33.4488 19.6385 26.718 16.4156 25.5278C14.8451 24.9395 12.7557 25.774 10.2293 28.0176C6.51478 31.3146 4.97162 35.5692 5.65443 40.672C6.8835 49.9063 15.1729 59.3595 20.731 62.2734C23.8582 58.484 26.6168 56.6508 27.5864 56.0762C26.6305 54.8176 23.2847 50.0705 21.6732 41.5613Z" fill="#44250C"/>
<path d="M54.8575 53.4912C54.8575 53.4912 23.2432 41.8218 13.2332 61.5763C3.20946 81.3446 11.3349 96.4477 11.3349 96.4477C7.14247 100.374 -4.43806 111.086 8.68562 132.427C6.97859 141.251 2.04868 157.668 29.2929 159.159C29.1837 161.95 28.0093 176.396 45.0933 175.343C62.1773 174.303 74.6318 169.925 76.2159 153.659C77.8 137.393 92.1664 137.53 99.4043 128.665C105.55 121.127 116.242 101.222 103.542 89.4297C104.198 84.2038 105.345 62.1919 94.8704 55.0097C82.1154 46.2816 54.8575 53.4912 54.8575 53.4912Z" fill="#D09A4F"/>
<path d="M81.1738 64.8454C81.1738 64.8454 82.9218 61.0969 85.8306 61.8357C91.894 63.3542 96.5371 70.8237 96.5371 70.8237C93.5328 68.4981 86.0491 64.7359 81.1738 64.8454Z" fill="black"/>
<path d="M23.7619 61.4118C23.7619 61.4118 21.9047 57.7318 19.6241 58.4158C14.8717 59.8249 11.9766 67.0755 11.9766 67.0755C14.1479 64.8456 19.788 61.2477 23.7619 61.4118Z" fill="black"/>
<path d="M15.145 96.5427C8.42616 85.571 8.4125 75.0917 12.3455 65.8027C15.186 59.0856 25.1961 51.835 32.3929 50.1934C22.6833 51.0963 16.3331 55.4466 13.2195 61.5892C3.20946 81.3437 11.3349 96.4469 11.3349 96.4469C7.14247 100.373 -4.43806 111.085 8.68562 132.426C8.07109 135.573 6.85568 141.852 7.57947 146.435C7.96184 141.291 8.8495 135.983 10.2151 132.44C7.72969 127.228 4.83456 119.156 5.08037 113.315C5.42178 105.23 8.74025 101.249 15.145 96.5427Z" fill="#EDC39A"/>
<path d="M66.9435 114.766C65.5915 113.931 65.1136 113.658 62.1092 109.923C64.0484 114.697 58.5312 115.819 58.0396 122.618C57.6026 128.638 58.3674 141.484 52.0035 147.448C45.0115 154.001 28.7469 154.111 24.213 146.956C25.9201 154.986 10.9801 154.193 7.23828 144.534C8.22153 155.397 19.1602 158.228 26.7668 158.954C29.2932 159.145 32.4614 158.94 33.9636 157.107C41.5975 158.502 49.3679 158.83 55.2947 153.345C65.6052 143.809 60.5114 126.887 63.0105 122.468C64.6083 117.899 65.4823 115.669 66.9435 114.766Z" fill="#B77E39"/>
<path d="M103.528 89.4296C104.184 84.2037 105.331 62.1919 94.8567 55.0096C86.9907 49.6196 73.5939 50.3036 64.4851 51.6169C75.0961 52.1778 89.1074 51.2202 95.3073 59.0727C101.302 66.5559 102.682 81.4402 100.497 88.1163C99.7729 87.9521 98.5985 87.5691 97.8747 87.4049C105.713 92.2341 106.792 101.099 105.454 108.281C103.037 119.116 93.573 131.524 83.7541 133.481C83.918 132.756 86.5673 128.87 87.0999 128.09C68.7868 146.244 75.0278 155.451 67.4349 164.33C63.7204 168.544 35.2744 180.35 29.2383 162.059C30.085 171.717 35.6704 175.931 45.0796 175.356C62.1636 174.317 74.6181 169.939 76.2022 153.673C77.7863 137.407 92.1527 137.544 99.3906 128.679C105.536 121.127 116.229 101.222 103.528 89.4296Z" fill="#B77E39"/>
<path d="M38.8522 175.315C36.3531 174.754 34.291 173.687 32.7068 172.127C28.569 168.051 28.8011 161.717 28.8967 159.514C19.4739 158.953 13.0008 156.463 9.6687 152.14C5.40794 146.613 6.91013 139.24 8.01629 133.863C8.11189 133.398 8.20748 132.947 8.28942 132.509C-4.67039 111.318 6.41851 100.538 10.8705 96.3652C9.87354 94.2585 3.61897 79.7025 12.8916 61.4117C22.6422 42.1771 52.7816 52.369 54.871 53.094C57.056 52.5331 82.6205 46.1717 95.0614 54.6946C106.519 62.5609 104.184 86.871 103.924 89.2925C116.911 101.577 105.276 122.03 99.6772 128.897C97.0689 132.099 93.5046 134.164 90.0495 136.162C83.6311 139.883 77.5814 143.399 76.5708 153.686C74.8364 171.512 59.6916 174.823 45.0931 175.712C42.7852 175.862 40.6958 175.725 38.8522 175.315ZM29.6751 158.803L29.6478 159.446C29.5522 161.484 29.2791 167.681 33.2258 171.58C35.8341 174.152 39.8081 175.288 45.0521 174.959C60.0467 174.043 74.1536 170.828 75.8334 153.604C76.8712 142.933 83.3853 139.158 89.6808 135.505C93.0676 133.535 96.5772 131.51 99.1036 128.405C104.607 121.66 116.065 101.564 103.282 89.6892L103.146 89.5524L103.173 89.3609C104.075 82.1239 104.307 61.9042 94.6517 55.2966C82.1972 46.76 55.226 53.7507 54.9529 53.8328L54.8437 53.8601L54.7344 53.8191C54.4203 53.7097 23.3113 42.4917 13.5744 61.7264C3.74188 81.1116 11.5806 96.119 11.6625 96.2695L11.7991 96.5294L11.5942 96.7209C7.31982 100.716 -3.90564 111.222 8.99954 132.235L9.08148 132.358L9.05417 132.509C8.95857 132.988 8.86298 133.494 8.75373 134.014C7.68854 139.253 6.21366 146.436 10.2696 151.689C13.5061 155.889 19.9109 158.283 29.3064 158.789L29.6751 158.803Z" fill="#44250C"/>
<path d="M65.6052 144.26C65.7008 138.473 64.0894 127.967 63.0651 122.002C62.3277 124.369 61.8497 127.132 62.0682 130.046C62.6828 138.254 62.1638 160.95 37.3504 157.817C37.6508 162.414 34.2504 167.544 45.2437 167.708C60.4431 167.955 65.455 152.66 65.6052 144.26Z" fill="#3E0000"/>
<path d="M45.2579 167.708C51.3076 167.626 54.0935 166.641 58.8049 162.195C55.8825 156.983 39.6588 158.405 37.0915 162.578C36.873 166.928 40.4782 167.777 45.2579 167.708Z" fill="#F99A9A"/>
<path d="M42.3623 160.074C40.1773 159.978 37.6645 161.648 37.0773 162.591C36.968 164.821 37.8693 166.121 39.4125 166.86C38.4702 166.107 37.6372 161.894 42.3623 160.074Z" fill="#E57676"/>
<path d="M58.7908 162.209C58.0944 160.977 56.6604 160.129 54.8442 159.582C56.6604 161.347 54.0794 165.67 50.0781 167.311C53.2054 166.682 55.5406 165.273 58.7908 162.209Z" fill="#E57676"/>
<path d="M40.8739 167.749C39.5356 167.448 38.566 166.955 37.8831 166.244C37.0365 165.355 36.6404 164.124 36.7087 162.578V162.482L36.7633 162.4C38.4021 159.718 44.643 158.378 49.6822 158.474C54.4619 158.569 57.9169 159.855 59.1187 162.017L59.2552 162.277L59.0367 162.482C54.4072 166.846 51.5667 168.009 45.2439 168.091C43.4822 168.118 42.0347 168.009 40.8739 167.749ZM37.4598 162.714C37.4188 164.014 37.7329 164.999 38.4294 165.724C39.5629 166.901 41.6659 167.393 45.2575 167.338C51.3209 167.256 53.9566 166.23 58.3266 162.14C57.1248 160.389 53.9293 159.308 49.6822 159.226C44.247 159.117 38.8118 160.676 37.4598 162.714Z" fill="#A30000"/>
<path d="M41.0519 167.667C39.5224 167.325 38.4299 166.764 37.7334 165.971C36.4634 164.548 36.6546 162.66 36.8594 160.649C36.955 159.719 37.0506 158.748 36.9823 157.831L36.955 157.38L37.4056 157.434C45.1488 158.406 51.1712 156.914 55.2954 152.974C62.1372 146.463 62.0552 134.766 61.7002 130.046C61.509 127.433 61.8504 124.67 62.7107 121.865L63.175 120.374L63.4345 121.92C64.4314 127.748 66.0838 138.405 65.9746 144.246C65.797 153.946 60.1433 168.31 45.2444 168.078C43.5783 168.064 42.199 167.927 41.0519 167.667ZM37.7471 158.241C37.7607 159.076 37.6788 159.924 37.5968 160.731C37.4193 162.564 37.2418 164.302 38.2933 165.478C39.3585 166.669 41.6391 167.284 45.258 167.339C61.3041 167.585 65.1142 150.758 65.2235 144.246C65.3191 138.979 63.9671 129.718 62.9702 123.726C62.4649 125.887 62.2737 127.98 62.4239 130.005C62.8746 135.997 62.6015 147.037 55.787 153.535C51.5945 157.544 45.5175 159.131 37.7471 158.241Z" fill="#44250C"/>
<path d="M23.5844 159.049C23.1337 158.953 22.6831 158.83 22.2188 158.693L22.4236 157.968C28.1865 159.664 32.7477 158.228 33.4715 157.024L33.6081 156.791L33.8676 156.846C43.0446 158.734 50.0912 157.571 54.8299 153.399C62.1087 146.983 62.0541 134.93 61.6854 130.06C61.0435 121.441 66.506 114.067 66.5607 113.985L67.1615 114.437C67.1069 114.505 61.8083 121.66 62.4365 129.991C62.8052 134.985 62.8598 147.311 55.3216 153.96C50.4463 158.255 43.2494 159.5 33.9495 157.626C32.857 158.926 28.883 160.239 23.5844 159.049Z" fill="#44250C"/>
<path d="M34.8512 157.858C30.768 156.942 25.1689 151.798 22.7654 142.81C20.5531 134.519 23.6804 125.559 23.7214 125.477L24.3905 125.805C24.3496 125.887 21.3452 134.601 23.4892 142.618C25.9747 151.962 31.8605 157.16 36.012 157.256L35.9984 158.009C35.616 157.995 35.2336 157.954 34.8512 157.858Z" fill="#44250C"/>
<path d="M77.9784 45.3639C77.9784 45.3639 84.4242 35.9381 83.2088 32.2034C80.3 33.2157 75.2062 38.3459 75.2062 38.3459C75.2198 34.2554 75.5612 24.9117 63.4618 24.0361C65.36 26.2797 67.7225 31.0268 66.1794 35.6782C64.2539 30.2607 60.5393 22.9554 45.8862 25.1442C50.7751 27.2921 53.3425 31.5467 53.0557 34.0365C49.2319 29.9871 42.0078 27.4015 35.644 32.0665C39.1263 32.7506 41.4479 35.0626 43.51 37.9902C38.3342 35.0352 32.1753 34.7479 26.5898 41.807C28.8295 42.0533 37.351 42.1901 37.351 42.1901C34.0462 45.0082 27.5458 49.5638 30.3726 59.7831C32.9673 54.9949 35.8215 52.4914 37.0096 51.739C35.4391 54.8445 32.7352 60.0567 37.9792 66.8559C39.7135 62.5055 45.9408 55.3096 49.3822 52.4914C49.6007 55.9252 49.8192 58.0594 46.8967 62.9706C52.9055 61.0007 57.1662 57.2249 59.1601 53.3396C60.7442 57.0607 58.6411 61.671 56.2786 66.7328C60.8125 64.8859 68.8424 59.1401 70.9045 53.4764C73.0212 56.664 73.4855 59.9746 73.4855 59.9746C77.3229 56.6503 79.3167 52.8334 79.9859 51.3833C81.0511 53.9142 81.3378 53.9279 81.3378 53.9279C83.5365 49.7143 82.3621 46.0069 77.9784 45.3639Z" fill="#632311"/>
<path d="M42.0487 41.7112C38.1157 40.0149 33.6228 40.4526 30.3317 40.5758C35.125 36.2801 42.0214 37.9628 46.4734 42.0259C45.9954 37.3198 43.5373 35.4182 40.3827 32.4222C45.8998 29.5493 49.3275 35.555 54.2711 37.4293C55.9781 33.202 54.6808 29.2894 52.25 26.4439C59.1464 27.7709 64.7045 32.2581 65.6468 39.9738C68.9516 33.4346 68.7741 27.7162 64.7591 24.1866C64.3358 24.1319 63.9124 24.0772 63.4618 24.0498C65.36 26.2934 67.7225 31.0405 66.1794 35.6918C64.2539 30.2744 60.5393 22.969 45.8862 25.1579C50.7751 27.3057 53.3425 31.5604 53.0557 34.0502C49.2319 30.0008 42.0078 27.4152 35.644 32.0802C39.1263 32.7642 41.4479 35.0762 43.51 38.0038C38.3342 35.0489 32.1753 34.7616 26.5898 41.8207C28.8295 42.0669 37.351 42.2037 37.351 42.2037C36.6955 42.7646 33.2404 45.4186 32.0933 48.059C33.773 46.2258 39.9866 41.9301 42.0487 41.7112Z" fill="#7A3D2E"/>
<path d="M77.9767 45.3643C77.9767 45.3643 84.4225 35.9385 83.2071 32.2038C80.2983 33.2161 75.2045 38.3463 75.2045 38.3463C75.2182 34.8714 75.464 27.6071 68.1033 24.9531C73.1151 28.852 74.5217 36.4857 73.1697 42.6146C74.2213 41.3149 75.8464 40.9045 76.8979 39.6185C76.816 43.4354 75.027 44.5709 76.5701 47.991C78.4274 49.9473 75.5869 52.3824 74.945 55.2963C74.8631 52.2045 73.2107 48.4561 71.5173 45.7747C70.9438 51.7805 66.9971 56.596 63.1051 60.3307C64.0883 55.9393 64.2658 50.5219 61.439 46.062C58.8443 50.8502 57.1919 55.9393 52.1664 57.8956C52.9858 54.2429 53.2316 49.6873 51.6884 46.2809C48.0149 52.3413 39.7392 55.0911 37.3903 62.246C36.1749 57.3757 38.7696 52.5876 41.214 48.5245C34.8912 49.1812 32.119 54.0924 30.2617 59.4141C30.289 59.5373 30.3163 59.6604 30.3573 59.7835C32.952 54.9954 35.8062 52.4918 36.9943 51.7394C35.4238 54.8449 32.7198 60.0571 37.9639 66.8563C39.6982 62.5059 45.9255 55.31 49.3668 52.4918C49.5853 55.9256 49.8038 58.0598 46.8814 62.971C52.8902 61.0011 57.1509 57.2253 59.1447 53.34C60.7289 57.0611 58.6258 61.6714 56.2633 66.7332C60.7971 64.8863 68.827 59.1405 70.8891 53.4768C73.0059 56.6644 73.4702 59.975 73.4702 59.975C77.3076 56.6507 79.3014 52.8338 79.9706 51.3837C81.0357 53.9146 81.3225 53.9283 81.3225 53.9283C83.5348 49.7147 82.3604 46.0073 77.9767 45.3643Z" fill="#4C170B"/>
<path d="M38.074 67.5949L37.6779 67.075C33.0348 61.0693 34.455 56.2675 35.9436 53.0252C34.6735 54.147 32.6524 56.3085 30.6859 59.9475L30.2489 60.7684L30.0031 59.8791C27.3128 50.166 32.9119 45.4052 36.3396 42.546C34.018 42.505 28.337 42.3682 26.5481 42.1766L25.8789 42.1082L26.3023 41.5747C31.9013 34.5019 37.8555 34.8987 42.2664 36.9234C40.6687 34.9123 38.5929 33.0108 35.5885 32.4362L34.7555 32.272L35.452 31.7658C41.3515 27.4428 48.4118 29.1392 52.6998 33.1339C52.3857 30.8493 50.1188 27.4018 45.7761 25.5002L44.588 24.9803L45.8717 24.7888C59.2002 22.7915 63.7478 28.3594 66.1649 34.4609C67.0116 30.2336 64.7856 26.1569 63.2152 24.2963L62.6416 23.6123L63.5293 23.6807C75.1371 24.5289 75.6287 33.1612 75.6287 37.4706C77.1036 36.0478 80.7635 32.6961 83.1397 31.8753L83.4947 31.7522L83.6176 32.1215C84.7238 35.528 79.9714 43.1206 78.6604 45.1316C78.6741 45.1316 78.6741 45.1316 78.6877 45.1316C80.3948 45.5147 81.6511 46.4039 82.3066 47.7172C83.1806 49.441 82.9621 51.7119 81.6921 54.106L81.5828 54.3112L81.337 54.2975C81.1595 54.2838 80.8864 54.2702 79.9987 52.2728C79.0837 54.0786 77.1036 57.3482 73.7578 60.2485L73.2389 60.7L73.1433 60.0159C73.1433 59.9886 72.7199 57.1704 70.9992 54.2838C68.5684 59.7423 61.1257 65.1598 56.4416 67.075L55.554 67.4307L55.9637 66.5689C58.0804 62.0406 60.0879 57.7587 59.1046 54.2565C56.7557 58.2512 52.3038 61.6029 47.0325 63.3266L46.0902 63.6412L46.6091 62.7794C49.2584 58.3332 49.2858 56.2949 49.0946 53.2715C45.6395 56.3085 39.9858 62.9572 38.3607 67.0066L38.074 67.5949ZM37.9374 50.6996L37.2819 52.0129C35.807 54.9542 33.3489 59.8244 37.8828 66.1174C39.9722 61.5618 45.899 54.8584 49.1355 52.2044L49.6954 51.7393L49.7637 52.6969C49.9686 55.8434 50.1051 57.9775 47.7153 62.2869C52.6998 60.4263 56.8104 57.0746 58.8178 53.1757L59.1866 52.4643L59.5007 53.2031C61.0711 56.9105 59.1319 61.4934 57.0289 65.9943C61.713 63.7917 68.6913 58.429 70.5486 53.3536L70.808 52.6559L71.2177 53.2715C72.8155 55.6792 73.4847 58.1144 73.7305 59.2498C77.1719 56.1033 79.0018 52.6148 79.6437 51.2194L79.9987 50.4533L80.3265 51.2331C80.7771 52.3002 81.0776 52.8884 81.2687 53.2168C82.1837 51.2468 82.3203 49.4273 81.6238 48.0456C80.9956 46.8006 79.7256 46.0072 77.9503 45.7472L77.3631 45.6652L77.7045 45.1727C77.7591 45.0769 83.5903 36.4856 82.9758 32.7372C80.1353 33.9958 75.5468 38.5924 75.4921 38.6334L74.8503 39.2764V38.0725C74.8776 34.0231 74.9186 25.6917 64.294 24.5015C66.0283 26.8956 68.0222 31.3554 66.5473 35.8016L66.2059 36.8276L65.8372 35.8016C63.6931 29.7685 59.7874 23.8586 47.169 25.3497C51.4434 27.6617 53.7377 31.5333 53.4236 34.0778L53.328 34.8713L52.7818 34.2967C49.0809 30.3704 42.5122 28.0448 36.5445 31.9026C39.9722 32.874 42.1299 35.3912 43.8096 37.7716L44.7792 39.1396L43.318 38.3051C39.1801 35.9384 33.1031 34.6387 27.3128 41.4926C30.2079 41.6978 37.2682 41.821 37.3502 41.821L38.3471 41.8346L37.596 42.4776C37.3775 42.6555 37.159 42.847 36.9268 43.0385C33.5537 45.8567 28.5009 50.0566 30.5084 58.7847C33.4854 53.6409 36.4762 51.6435 36.8176 51.4246L37.9374 50.6996Z" fill="black"/>
<path d="M68.5415 115.681C68.4186 115.64 68.282 115.599 68.1591 115.545C66.534 114.956 65.1957 114.094 64.1578 113.246C62.3825 111.782 62.0957 109.922 62.0957 109.922C62.1367 109.977 65.6736 115.627 72.6657 115.558C72.6657 115.558 70.6718 116.379 68.5415 115.681Z" fill="#44250C"/>
<path d="M104.99 91.5084C103.815 89.3332 97.9433 87.418 97.8887 87.4043C97.8887 87.4043 103.201 87.76 105.632 91.1664L104.99 91.5084Z" fill="#44250C"/>
<path d="M77.7863 148.241L77.0625 148.063C77.8819 144.629 79.7118 140.43 81.5418 136.722C83.9862 131.784 87.1272 128.076 87.1272 128.076C87.0452 128.213 79.6708 140.334 77.7863 148.241Z" fill="#44250C"/>
<path d="M18.7921 65.2559C13.0701 64.8865 8.11284 72.0141 7.14325 81.1663C6.18731 90.3185 10.052 98.0206 15.774 98.3899C21.496 98.7593 26.9175 91.6455 27.8735 82.4933C28.8431 73.3547 24.5277 65.6253 18.7921 65.2559Z" fill="#B77E39"/>
<path d="M18.3828 69.9075C13.0159 69.497 8.05867 75.5301 7.32123 83.3964C6.58379 91.2626 10.3256 97.966 15.6925 98.3764C21.0594 98.7868 26.0167 92.7538 26.7541 84.8875C27.4915 77.0213 23.7497 70.3179 18.3828 69.9075Z" fill="black"/>
<path d="M18.2727 71.0153C13.1106 70.6186 8.35822 76.4191 7.63444 83.9843C6.92432 91.5359 10.5159 97.9931 15.678 98.3898C20.8401 98.7866 25.5924 92.9861 26.3162 85.4208C27.04 77.8555 23.4348 71.412 18.2727 71.0153Z" fill="white"/>
<path d="M7.63444 83.9707C6.92432 91.5223 10.5159 97.9795 15.678 98.3762C20.8401 98.7729 25.5924 92.9724 26.3162 85.4071C24.2678 92.0832 10.6525 91.1392 7.63444 83.9707Z" fill="#D4D9E0"/>
<path d="M14.6818 98.6087C13.0703 98.253 11.5955 97.3091 10.3664 95.8453C7.99021 93.0134 6.82942 88.5673 7.26643 83.9433C8.00386 76.2002 12.9474 70.2218 18.3007 70.6322C20.2945 70.7827 22.1245 71.7951 23.5993 73.5462C25.9755 76.378 27.1363 80.8242 26.6993 85.4481C25.9619 93.1913 21.0183 99.1696 15.665 98.7455C15.3236 98.7182 15.0095 98.6771 14.6818 98.6087ZM18.2461 71.3847C13.3025 71.0016 8.70033 76.6653 8.01752 84.0117C7.59418 88.4442 8.68668 92.6851 10.94 95.3528C12.2783 96.9534 13.9307 97.8563 15.7197 97.9931C20.6632 98.3761 25.2654 92.7125 25.9482 85.3661C26.3716 80.9336 25.2791 76.6927 23.0258 74.025C21.6875 72.438 20.035 71.5215 18.2461 71.3847Z" fill="black"/>
<path d="M18.327 77.1859C15.0768 76.9533 12.0861 80.4145 11.6491 84.9153C11.2121 89.4162 13.5063 93.2467 16.7565 93.4793C20.0067 93.7118 22.9975 90.2507 23.4345 85.7498C23.8715 81.249 21.5909 77.4184 18.327 77.1859Z" fill="#542416"/>
<path d="M18.6682 88.6633C15.8141 88.7181 13.1374 87.6099 11.6762 85.1338C11.3075 89.5252 13.5608 93.2326 16.7427 93.4652C19.8154 93.6841 22.6422 90.5923 23.2704 86.4471C21.9457 87.5689 20.4845 88.4308 18.6682 88.6633Z" fill="#A74F45"/>
<path d="M16.0335 93.739C14.9547 93.4928 13.9714 92.8771 13.1657 91.9195C11.7181 90.2095 11.008 87.5691 11.2675 84.8604C11.7181 80.168 14.9001 76.5564 18.3414 76.789C19.6934 76.8847 20.9225 77.5414 21.9057 78.7042C23.3533 80.4143 24.0634 83.0546 23.804 85.7633C23.3533 90.4557 20.1714 94.0673 16.7163 93.8348C16.4978 93.8348 16.2657 93.7937 16.0335 93.739ZM18.3005 77.5551C15.2551 77.3362 12.4283 80.6605 12.0186 84.9425C11.7728 87.446 12.4146 89.8811 13.7393 91.4407C14.586 92.4394 15.6375 93.0139 16.7846 93.096C19.83 93.3149 22.6568 89.9906 23.0665 85.7086C23.3123 83.2051 22.6705 80.77 21.3458 79.2104C20.4991 78.2117 19.4476 77.6371 18.3005 77.5551Z" fill="#261005"/>
<path d="M17.9589 80.8656C16.0607 80.7288 14.3127 82.8629 14.0396 85.6127C13.7665 88.3762 15.0911 90.7155 16.9893 90.8523C18.8876 90.9891 20.6356 88.855 20.9087 86.1052C21.1818 83.3554 19.8572 81.0024 17.9589 80.8656Z" fill="black"/>
<path d="M16.7986 80.4007C15.6925 80.4417 14.7775 81.4541 14.7638 82.658C14.7502 83.8619 15.6242 84.8195 16.7303 84.7784C17.8365 84.7374 18.7515 83.725 18.7651 82.5212C18.7788 81.3036 17.9048 80.3597 16.7986 80.4007Z" fill="white"/>
<path d="M18.9426 88.3076C18.6012 88.3213 18.3281 88.6359 18.3145 89.0053C18.3145 89.3747 18.5739 89.662 18.9153 89.6483C19.2567 89.6346 19.5299 89.32 19.5435 88.9506C19.5572 88.5949 19.284 88.3076 18.9426 88.3076Z" fill="white"/>
<path d="M84.7242 68.9905C78.1829 68.498 72.6248 76.0633 71.6825 85.8585C70.7402 95.6537 75.2741 103.985 81.8291 104.478C88.3705 104.97 94.4475 97.4185 95.3898 87.6233C96.3321 77.8281 91.2656 69.4693 84.7242 68.9905Z" fill="#B77E39"/>
<path d="M94.1343 90.1533C94.8526 81.7291 90.4577 74.474 84.318 73.9486C78.1782 73.4232 72.6186 79.8265 71.9003 88.2506C71.1819 96.6748 75.5769 103.93 81.7166 104.455C87.8564 104.981 93.416 98.5774 94.1343 90.1533Z" fill="black"/>
<path d="M93.642 90.7127C94.3321 82.6198 90.1093 75.65 84.21 75.1451C78.3107 74.6403 72.969 80.7917 72.2789 88.8846C71.5887 96.9775 75.8116 103.947 81.7109 104.452C87.6102 104.957 92.9519 98.8057 93.642 90.7127Z" fill="white"/>
<path d="M72.2842 88.8818C71.5877 96.9807 75.8075 103.944 81.707 104.464C87.6065 104.97 92.9461 98.8275 93.6426 90.7287C91.403 97.8562 75.8348 96.6113 72.2842 88.8818Z" fill="#D4D9E0"/>
<path d="M80.5875 104.655C75.0704 103.424 71.2466 96.6246 71.9158 88.8404C72.2572 84.8457 73.7184 81.193 76.0263 78.539C78.3616 75.8577 81.284 74.517 84.2611 74.7769C90.3518 75.2968 94.7354 82.4653 94.0253 90.7557C93.6839 94.7504 92.2227 98.403 89.9148 101.057C87.5795 103.738 84.6571 105.079 81.68 104.819C81.3113 104.792 80.9426 104.737 80.5875 104.655ZM84.1928 75.5157C81.4615 75.2831 78.7576 76.528 76.5862 79.0315C74.3876 81.5624 72.9946 85.0783 72.6669 88.9088C71.9977 96.7887 76.0673 103.588 81.7483 104.08C84.4796 104.313 87.1835 103.068 89.3549 100.565C91.5535 98.0336 92.9465 94.5178 93.2742 90.6873C93.9434 82.821 89.8738 76.0082 84.1928 75.5157Z" fill="black"/>
<path d="M84.3831 81.7683C80.6686 81.4673 77.2955 85.1336 76.8722 89.9492C76.4488 94.7647 79.1254 98.9098 82.84 99.2108C86.5545 99.5118 89.9276 95.8454 90.3509 91.0299C90.7742 86.2144 88.1113 82.0692 84.3831 81.7683Z" fill="#542416"/>
<path d="M84.9582 94.0942C81.6943 94.1079 78.6217 92.8767 76.9146 90.1953C76.5732 94.9014 79.1952 98.9098 82.8415 99.2107C86.3511 99.498 89.5194 96.2284 90.1885 91.7959C88.6727 92.9724 87.0203 93.8753 84.9582 94.0942Z" fill="#A74F45"/>
<path d="M82.035 99.4708C80.7376 99.1836 79.5632 98.4448 78.6072 97.3093C77.0231 95.4351 76.2584 92.7401 76.5042 89.9219C76.9412 84.9012 80.4918 81.0843 84.4112 81.399C86.0226 81.5358 87.4702 82.3156 88.6309 83.6836C90.2151 85.5578 90.9798 88.2529 90.734 91.0711C90.297 96.0918 86.7464 99.9086 82.827 99.594C82.5539 99.5666 82.2944 99.5256 82.035 99.4708ZM84.3565 82.1377C80.8469 81.8505 77.665 85.3663 77.2553 89.9766C77.0231 92.6033 77.7332 95.0931 79.1808 96.8168C80.205 98.0207 81.4751 98.7184 82.8817 98.8415C86.3913 99.1288 89.5732 95.613 89.9829 91.0027C90.2151 88.376 89.5049 85.8862 88.0574 84.1624C87.0332 82.9586 85.7631 82.2472 84.3565 82.1377Z" fill="#261005"/>
<path d="M84.0156 85.7217C81.8443 85.5439 79.8778 87.8012 79.6183 90.7561C79.3588 93.7111 80.902 96.2557 83.0733 96.4198C85.2447 96.5977 87.2112 94.3404 87.4707 91.3854C87.7301 88.4305 86.187 85.8996 84.0156 85.7217Z" fill="black"/>
<path d="M82.6771 85.188C81.4207 85.2154 80.3828 86.2825 80.3828 87.5821C80.3828 88.8817 81.407 89.9078 82.6634 89.8804C83.9334 89.8531 84.9577 88.786 84.9577 87.4863C84.9713 86.2004 83.9471 85.1607 82.6771 85.188Z" fill="white"/>
<path d="M85.2707 93.7109C84.8883 93.7246 84.5742 94.053 84.5742 94.4497C84.5742 94.8464 84.8883 95.1611 85.2707 95.1611C85.6531 95.1474 85.9672 94.8191 85.9808 94.4223C85.9672 94.0256 85.6531 93.7109 85.2707 93.7109Z" fill="white"/>
<path d="M88.9718 76.8293C88.7397 76.7746 88.4939 76.7062 88.248 76.6241L88.4939 75.9127C92.4951 77.2944 94.5709 73.546 94.6665 73.3818C94.6528 73.3955 93.1097 77.7596 88.9718 76.8293Z" fill="black"/>
<path d="M85.7344 75.4206L85.7753 74.6682C91.1149 74.9691 92.2211 69.8663 92.2621 69.6475C92.2621 69.6611 91.7158 75.7626 85.7344 75.4206Z" fill="black"/>
<path d="M82.3065 75.2155L82.1836 74.4768C86.9633 73.697 88.2606 67.9239 88.2743 67.8691C88.2743 67.8691 87.6051 74.3537 82.3065 75.2155Z" fill="black"/>
<path d="M3.27734 78.1292C3.44122 78.2249 7.21035 80.4138 8.89007 77.7188L9.51826 78.1155C7.03282 81.905 3.27734 78.1292 3.27734 78.1292Z" fill="black"/>
<path d="M6.89706 75.8723C4.15214 75.2567 2.26758 72.3291 2.26758 72.3291C2.29489 72.3565 5.24465 75.2704 8.20806 75.2704C9.32787 75.2704 10.3111 74.8463 11.1442 73.9981L11.6768 74.5316C10.6935 75.5166 9.53272 76.0228 8.20806 76.0228C7.7574 76.0228 7.3204 75.9681 6.89706 75.8723Z" fill="black"/>
<path d="M9.7511 72.9992C6.378 72.2468 3.87891 68.0605 3.87891 68.0605C3.93353 68.1289 9.25948 74.5177 13.4246 71.6038L13.848 72.2194C12.496 73.1634 11.0894 73.3001 9.7511 72.9992Z" fill="black"/>
<path d="M57.1916 91.0708C57.1916 91.0708 51.0326 84.5589 44.8327 82.0691C38.6327 79.5793 33.5799 79.5109 27.8443 82.0144C22.1223 84.5179 16.4959 94.4636 15.5536 98.0615C14.147 98.1299 9.46293 99.0055 8.3158 104.313C7.18233 109.621 9.88628 122.604 22.7368 129.841C26.0963 129.431 35.8059 124.232 38.0045 122.755C40.2032 121.277 49.8036 114.929 50.1996 110.128L57.1916 91.0708Z" fill="#D09A4F"/>
<path d="M41.0234 99.6344C35.9979 101.577 32.5838 106.57 30.7129 112.617C34.3864 106.242 40.4908 97.5549 50.8559 102.671C47.9744 100.277 46.3084 98.8546 41.0234 99.6344Z" fill="#EDC39A"/>
<path d="M15.0624 100.36C14.7756 103.588 15.2672 108.459 16.4007 111.345C13.451 94.4362 27.1755 77.3357 46.4172 82.7942C45.8983 82.5342 45.3657 82.288 44.8331 82.0691C38.6331 79.5793 33.5803 79.5109 27.8447 82.0144C22.1227 84.5179 16.4963 94.4636 15.554 98.0615C14.1474 98.1299 9.46333 99.0055 8.31621 104.313C7.41489 108.541 8.95805 117.652 16.1276 124.834C16.0457 124.67 15.9501 124.492 15.8272 124.314C9.69549 117.57 6.15851 102.207 15.0624 100.36Z" fill="#EDC39A"/>
<path d="M22.7645 130.265C19.9377 129.636 10.5149 122.098 8.08403 111.236C6.36334 103.602 9.81838 100.155 11.3752 99.0191C12.6862 98.0752 14.2157 97.6374 15.117 97.8289C19.3641 87.5002 25.1544 81.5492 32.3239 80.1265C38.4146 78.9089 44.5053 81.2483 49.1758 83.9844C54.1466 86.8983 57.0554 90.8793 57.0554 90.8793C56.9325 90.7562 44.6555 78.4301 32.4741 80.8515C25.4958 82.2469 19.8557 88.1569 15.6906 98.4446L15.5267 98.855L15.158 98.6224C14.7346 98.3625 13.3007 98.5677 11.8395 99.6211C10.3919 100.661 7.22369 103.862 8.83513 111.072C11.1704 121.455 20.3337 128.952 22.9557 129.54C24.294 129.841 32.8975 125.874 40.1763 120.785C46.0348 116.681 49.4625 112.946 49.8176 110.251L50.555 110.347C50.0771 114.068 44.874 118.418 40.5996 121.4C33.3891 126.421 24.4579 130.648 22.7645 130.265Z" fill="#44250C"/>
<path d="M14.6521 105.49C14.3789 101.755 14.7067 96.9808 17.2331 93.2734L17.8476 93.6975C13.2728 100.415 16.3591 111.222 16.4001 111.332C16.4001 111.332 14.8979 108.828 14.6521 105.49Z" fill="#44250C"/>
<path d="M30.7129 112.618C30.7129 112.618 31.9966 108.021 33.0891 106.297C35.6428 102.275 38.5516 99.9085 41.7745 99.2245C43.2903 98.8961 44.7106 98.9919 45.9806 99.2792C49.1216 100.004 50.8696 102.672 50.8696 102.672C50.8286 102.631 46.841 98.9098 41.9247 99.9495C37.5683 100.88 33.7992 105.134 30.7129 112.618Z" fill="#44250C"/>
<path d="M35.5605 119.636C35.5605 119.636 40.3402 118.199 42.1975 117.324C44.0548 116.448 48.2336 114.04 49.3944 112.043C50.5551 110.046 50.6507 105.901 46.6221 106.502C42.5935 107.118 36.1614 118.076 35.5605 119.636Z" fill="#630000"/>
<path d="M42.0478 115.832C43.7685 114.697 47.4966 111.687 48.3706 109.553C48.712 108.705 49.0671 107.829 48.8486 106.817C48.316 106.516 47.5922 106.379 46.6226 106.516C43.3724 107.009 38.5381 114.259 36.4897 117.843C36.2165 118.541 36.039 119.075 35.9844 119.335C35.998 119.335 40.3271 116.968 42.0478 115.832Z" fill="#3A0202"/>
<path d="M34.6992 120.497L34.945 119.813C35.7644 117.57 43.0569 106.187 47.5361 106.037C48.6969 105.996 49.5846 106.653 50.1718 107.98C50.718 109.197 50.7044 110.442 50.1172 111.66C47.6727 116.845 35.8873 120.169 35.3957 120.306L34.6992 120.497ZM48.0277 106.83C47.8775 106.803 47.7273 106.789 47.5634 106.789C43.9172 106.913 37.6217 116.188 35.9966 119.348C38.7005 118.5 47.5088 115.476 49.4617 111.345C49.9533 110.319 49.9669 109.32 49.5026 108.294C49.1202 107.446 48.6423 106.967 48.0277 106.83Z" fill="#44250C"/>
<path d="M29.4844 124.902C29.539 124.861 34.3187 121.236 35.5341 118.609L36.2169 118.924C34.9196 121.729 29.4844 124.902 29.4844 124.902Z" fill="#44250C"/>
</g>
<defs>
<clipPath id="clip0_424_1690">
<rect width="477" height="381" fill="white"/>
</clipPath>
</defs>
</svg>
