<svg width="437" height="477" viewBox="0 0 437 477" fill="none" xmlns="http://www.w3.org/2000/svg">
<g clip-path="url(#clip0_502_1420)">
<path d="M386.935 324.313C371.592 368.82 344.11 408.175 313.552 444.011C301.637 457.993 287.959 472.264 269.958 475.975C258.843 478.279 247.504 476.295 236.165 473.192C212.238 466.632 186.933 466.632 163.006 473.192C151.667 476.295 140.328 478.279 129.213 475.975C111.212 472.232 97.5345 457.961 85.6189 444.011C55.0613 408.175 27.5786 368.82 12.2357 324.313C-3.10716 279.806 -5.4134 229.508 13.3568 186.345C32.127 143.182 74.1518 108.978 121.205 106.611C140.584 105.619 159.611 109.778 178.317 115.314C192.186 119.409 206.953 119.409 220.822 115.314C239.528 109.778 258.587 105.651 277.934 106.611C324.987 109.01 367.012 143.182 385.782 186.345C404.584 229.508 402.278 279.806 386.935 324.313Z" fill="#E20813"/>
<path d="M225.915 131.216C225.915 135.247 213.263 148.398 197.664 148.398C182.064 148.398 169.412 135.247 169.412 131.216C169.412 127.184 182.064 133.744 197.664 133.744C213.263 133.744 225.915 127.152 225.915 131.216Z" fill="#AB1314"/>
<path d="M48.3024 285.118C27.8345 272.735 18.7056 221.925 43.4977 181.002C68.2897 140.079 117.618 124.625 138.053 137.007C158.521 149.39 120.372 171.627 95.5802 212.518C70.7882 253.409 68.7382 297.5 48.3024 285.118Z" fill="#E83942"/>
<path d="M386.936 324.313C371.593 368.82 344.11 408.175 313.553 444.011C301.637 457.993 287.96 472.264 269.958 475.975C258.844 478.279 247.505 476.295 236.166 473.191C212.238 466.632 186.934 466.632 163.007 473.191C151.668 476.295 140.329 478.279 129.214 475.975C113.07 472.615 100.418 460.809 89.3672 448.33C112.526 456.297 138.407 456.521 161.309 447.722C173.897 442.891 186.165 435.5 199.65 436.044C214 436.588 226.524 446.059 240.682 448.33C253.559 450.378 266.819 446.251 277.806 439.275C288.793 432.3 297.761 422.605 306.154 412.655C340.106 372.371 366.884 324.665 375.052 272.671C382.996 222.085 371.689 167.243 338.537 128.336C359.069 142.798 375.725 163.308 385.783 186.377C404.585 229.508 402.279 279.806 386.936 324.313Z" fill="#D5040A"/>
<path d="M197.888 141.103C196.35 141.103 195.069 139.951 194.877 138.447C194.236 133.488 193.756 128.464 192.955 123.537C188.919 99.2837 176.139 76.5664 157.497 60.5043C154.422 57.8486 150.93 54.8729 150.77 50.8094C150.61 46.2339 154.774 42.8103 158.522 40.1866C163.454 36.6991 169.476 33.0835 175.178 35.0353C179.598 36.5711 182.257 41.0185 184.339 45.2101C198.56 73.8467 204.326 106.579 200.963 138.351C200.771 139.919 199.457 141.103 197.888 141.103Z" fill="#753600"/>
<path d="M199.426 95.7323C209.452 76.1187 219.83 56.409 234.596 39.419C249.33 22.397 268.965 8.09464 292.124 2.68727C315.827 -2.84808 340.843 1.27943 364.898 5.40695C388.922 9.53447 412.977 13.694 437 17.8215C408.621 33.2117 396.577 64.568 373.643 86.1015C351.926 106.483 320.503 117.362 289.209 118.162C257.915 118.962 226.876 110.195 199.842 95.9243L199.426 95.7323Z" fill="#68AF14"/>
<path d="M437.001 17.8215C408.621 33.2116 396.577 64.568 373.643 86.1014C351.926 106.483 320.504 117.362 289.209 118.162C257.915 118.962 226.877 110.195 199.843 95.9243L199.65 95.8283C232.418 79.8302 270.599 63.5761 313.841 49.1138C357.628 34.4595 398.467 24.4127 434.823 17.4375C435.559 17.5655 436.264 17.6935 437.001 17.8215Z" fill="#569F10"/>
</g>
<defs>
<clipPath id="clip0_502_1420">
<rect width="437" height="477" fill="white"/>
</clipPath>
</defs>
</svg>
