<svg width="350" height="444" viewBox="0 0 413 444" fill="none" xmlns="http://www.w3.org/2000/svg">
<g clip-path="url(#clip0_502_1398)">
<path d="M213.201 83.5H199.201L201.101 71.5H211.201L213.201 83.5Z" fill="#73B9FF"/>
<path d="M246.9 8.79985C246.5 12.5998 245.6 14.6998 242.7 14.6998H242.2C237.1 14.6998 206.2 14.6998 206.2 14.6998C206.2 14.6998 200.4 14.6998 193.4 14.6998H169.7C166.8 14.6998 165.9 12.5998 165.5 8.79985C165.1 4.99985 165.1 1.19985 170.5 0.399845C171.4 0.299845 172.8 0.199845 174.7 0.0998451C179.4 -0.100155 186.601 -0.000154942 193 0.0998451C193.201 0.0998451 193.3 0.0998451 193.5 0.0998451C200.5 0.199845 206.301 0.399845 206.301 0.399845C206.301 0.399845 236.5 -0.400155 242 0.399845C247.3 1.19985 247.3 4.99985 246.9 8.79985Z" fill="#FFBAEB"/>
<path d="M242.202 14.5996C240.102 25.8996 233.202 61.9996 232.502 65.2996C231.702 69.1996 228.002 72.8996 223.302 73.6996C220.702 74.1996 215.702 74.5996 211.802 74.9996C208.702 75.2996 206.202 75.3996 206.202 75.3996C206.202 75.3996 205.402 75.3996 204.202 75.2996H204.102C203.102 75.1996 201.902 75.0996 200.502 74.9996C199.602 74.8996 198.602 74.7996 197.502 74.6996C194.302 74.3996 191.002 73.9996 189.002 73.6996C184.802 72.9996 181.502 70.0996 180.202 66.6996C180.002 66.1996 179.902 65.7996 179.802 65.2996C179.102 61.9996 172.202 25.8996 170.102 14.5996H193.302C200.302 14.5996 206.102 14.5996 206.102 14.5996C206.102 14.5996 237.102 14.5996 242.202 14.5996Z" fill="#FF9EEA"/>
<path d="M206.201 415.999C205.001 415.999 203.901 415.999 202.901 415.899C195.001 415.499 190.801 413.899 190.801 413.899C190.801 413.999 190.801 414.199 190.801 414.399C191.301 416.299 192.201 423.199 195.701 430.299C197.601 434.299 202.301 441.699 206.201 442.999C206.601 442.999 208.401 441.899 210.001 440.299C218.801 431.299 221.601 415.499 221.601 413.899C221.201 414.099 215.901 415.999 206.201 415.999Z" fill="#59B7FF"/>
<path d="M296.001 345.299C226.301 350.999 206.201 350.099 206.201 350.099C206.201 350.099 186.001 350.899 116.401 345.299C106.201 344.499 96.8012 343.399 88.2012 342.099C37.5012 334.699 12.7012 321.399 12.7012 321.399C13.7012 323.699 15.7012 327.299 17.1012 329.599C23.6012 340.699 31.7012 351.199 50.5012 363.399C61.6012 370.799 67.9012 372.899 77.3012 376.199C94.7012 382.099 108.501 385.599 119.701 388.099C124.001 388.699 154.801 393.099 185.001 394.799C192.201 395.199 199.401 395.499 206.201 395.499C242.101 395.499 289.401 388.599 293.001 388.099C293.001 388.099 293.001 388.099 293.101 388.099C302.901 385.799 328.501 378.999 343.501 373.199C360.901 366.499 381.501 349.899 389.101 339.199C394.701 331.299 398.501 324.299 399.801 321.399C398.601 321.899 364.601 339.699 296.001 345.299Z" fill="#66C4FF"/>
<path d="M190.701 414C190.801 414 190.801 414 190.701 414C190.701 414 194.901 415.6 202.801 416C203.801 416.1 204.901 416.1 206.101 416.1C215.901 416.1 221.201 414.2 221.501 414.1C248.201 403.7 243.501 399.2 259.601 394.8C268.301 392.4 277.601 391.6 289.401 389C290.001 388.9 291.201 388.7 292.901 388.3L293.001 388.2C288.901 388.8 243.301 395.6 206.201 395.6C199.401 395.6 192.201 395.4 185.001 394.9C154.801 393.2 124.001 388.8 119.701 388.2C139.701 392.6 151.301 393.4 160.001 397.3C167.901 400.9 166.801 403.7 184.801 411.5C184.901 411.6 189.801 413.7 190.601 414C190.601 413.9 190.601 413.9 190.701 414Z" fill="#33A5FF"/>
<path d="M400.4 261.6C400.3 261.4 400.2 261.1 400.1 260.9C400.1 260.9 387.9 276.4 331.6 282.9C275.3 289.4 206.1 289.6 206.1 289.6C206.1 289.6 142.7 289.4 87.9004 283.7C85.4004 283.4 83.0004 283.2 80.5004 282.9C24.2004 276.4 12.0004 260.9 12.0004 260.9C12.0004 260.9 11.9004 260.9 11.9004 260.8C9.70044 265.9 7.50044 271.8 5.30044 278.5C5.30044 278.6 3.20044 280.1 1.80044 282.9C1.50044 283.5 1.30044 284 1.20044 284.5C0.600439 287.4 0.700447 303.4 74.9004 316.2C78.1004 316.7 81.3004 317.3 84.4004 317.8C160.4 330.1 206.1 328.3 206.1 328.3C206.1 328.3 255.6 330.3 337.3 316.2C409.8 303.7 411.5 288.1 411 284.7C410.3 282.2 409.1 280.7 406.7 278.4C406.7 278.4 403.8 268.9 400.4 261.6Z" fill="#AA82FF"/>
<path d="M382.3 232.1C381.9 231.7 381.6 231.4 381.2 231.1C370.9 222.1 353.4 212.2 344.6 208.6C343.2 208 344.2 208.4 343.5 205.9C343.1 204.6 342.5 203.3 341.5 202.1C342.1 203.2 345.6 212.5 300.1 216.4C255.4 220.3 213.2 221.3 206.9 221.4C206.4 221.4 206.1 221.4 206.1 221.4C206.1 221.4 205.9 221.4 205.6 221.4C201.1 221.3 167.7 220.5 129 217.7C123.5 217.3 117.8 216.8 112.1 216.4C66.4004 212.4 70.2004 203.1 70.8004 202.1C70.7004 202.2 70.6004 202.3 70.5004 202.4C69.0004 204.2 68.3004 206.3 68.4004 208.3C60.5004 211.8 52.4004 216.6 52.4004 216.5C43.4004 221.6 36.2004 226 29.9004 232.3C30.0004 233.5 32.6004 246.2 89.8004 253C92.7004 253.3 95.5004 253.7 98.3004 254C155 260.1 206.1 259.7 206.1 259.7C206.1 259.7 262.4 260.1 322.4 253C381.8 245.9 382.3 232.4 382.3 232.1Z" fill="#73C9FF"/>
<path d="M293.3 214.1C245 217.2 206.2 218.3 206.2 218.3C206.2 218.3 167.4 217.3 119.1 214.1C70.8002 211 75.1002 198.8 75.1002 198.8C76.5002 198.2 78.1002 197.6 80.0002 197.3C88.6002 195.8 104 190.6 117.7 180.7C117.7 180.7 133.1 190.4 206.2 190.4C279.3 190.4 294.7 180.7 294.7 180.7C308.4 190.6 323.8 195.8 332.4 197.3C334.3 197.6 336 198.2 337.3 198.8C337.2 198.8 341.6 210.9 293.3 214.1Z" fill="#FFC7F7"/>
<path d="M273.701 158.9C273.701 158.9 257.401 164.3 206.201 164.3C155.001 164.3 138.701 158.9 138.701 158.9C143.301 152.6 146.601 147.2 148.901 142.8C148.901 142.8 167.201 146.9 206.301 146.9C245.301 146.9 263.701 142.8 263.701 142.8C265.801 147.2 269.101 152.6 273.701 158.9Z" fill="#F0F7FF"/>
<path d="M206.2 140C241.3 140.6 260.4 136.2 260.4 136.2C260.4 136.2 260.4 136.2 260.4 136.1C259.7 134.3 259.1 132.6 258.4 130.8C256.8 126 258.9 120.8 258 118.5C257.3 116.8 250.8 115.2 249.6 113.7C249.6 113.7 226.7 115.8 206.1 115.8C196.8 115.8 187 115.4 179.1 114.9C169.5 114.3 162.7 113.7 162.7 113.7C161.6 115 157.8 116 155.5 117.3C155.2 117.5 154.9 117.6 154.7 117.8C153 119.3 155.5 125.4 154.1 130.2C153.5 132.1 152.8 134 152 136V136.1C152 136.1 160.6 138.1 176.8 139.2C184.8 139.8 194.6 140.2 206.2 140Z" fill="#FFC7F7"/>
<path d="M249.502 113.6C249.502 113.5 249.402 113.4 249.402 113.4C248.202 108.6 248.302 91.2998 248.102 88.7998C247.802 85.5998 245.002 83.8998 242.002 82.8998C236.602 80.9998 212.202 79.1998 206.902 78.7998C204.402 78.7998 199.402 79.2998 196.802 79.4998C169.902 81.5998 172.602 82.7998 172.102 82.3998C164.202 84.2998 164.002 87.3998 164.002 91.0998C163.902 94.6998 163.702 112.4 162.602 113.8C201.402 117.3 234.302 115.5 249.502 113.6Z" fill="#AA82FF"/>
<path d="M263.501 142.8C263.501 142.8 245.201 146.9 206.101 146.9C167.101 146.9 148.701 142.8 148.701 142.8C150.001 140.3 151.101 138.1 151.801 136.2C151.801 136.2 170.901 140.6 206.001 140C241.101 140.6 260.201 136.2 260.201 136.2C261.201 138.1 262.201 140.3 263.501 142.8Z" fill="#73C2FF"/>
<path d="M294.601 180.699C290.601 177.899 287.201 174.999 284.801 172.299C281.801 169.499 277.601 164.299 273.801 158.899C273.801 158.899 257.501 164.299 206.301 164.299C190.701 164.299 178.401 163.799 168.701 163.099C147.401 161.599 139.301 159.099 138.701 158.899C136.201 162.399 133.601 165.599 131.301 168.399C127.301 172.999 122.701 177.099 117.701 180.599H117.801C117.801 180.599 125.101 185.199 153.801 188.099C166.601 189.399 183.701 190.299 206.301 190.299C276.701 190.399 293.501 181.299 294.601 180.699Z" fill="#AA82FF"/>
<path d="M343.901 208.2C343.701 207.9 344.101 207.7 343.601 205.9C342.801 203.1 340.801 200.5 337.301 198.8V198.9C337.501 199.6 337.901 203.2 330.701 206.8C324.801 209.8 313.801 212.7 293.301 214C291.001 214.2 288.801 214.3 286.701 214.4C285.901 214.4 285.101 214.5 284.401 214.6C243.201 217.3 227.101 218.2 206.701 218.2H205.901C198.801 218.2 192.701 217.9 186.001 217.5C173.401 216.7 158.701 215.2 132.001 213.3C129.201 213.1 126.301 212.9 123.201 212.7C77.0008 209.7 75.2008 199.6 75.1008 198.7C70.5008 200.9 68.3008 204.7 68.5008 208.1C68.6008 208.5 70.2008 213.5 113.901 217.3C119.001 217.7 124.001 218.1 128.901 218.5C168.101 221.3 201.201 221.3 205.701 221.3C206.001 221.3 206.201 221.3 206.201 221.3C206.201 221.3 206.501 221.3 207.001 221.3C213.301 221.3 254.001 221.2 298.601 217.3C344.301 213.5 340.301 210.1 343.901 208.2Z" fill="#FF9EEA"/>
<path d="M382.3 232.1C382.3 232.4 381.8 245.9 322.4 252.9C262.4 260 206.1 259.6 206.1 259.6C206.1 259.6 155.1 260 98.3 253.9C95.5 253.6 92.6 253.3 89.8 252.9C32.7 246.1 30 233.4 29.9 232.2C23.3 238.8 17.7 247.4 12 260.8C12.1 260.9 12.1 261 12.1 261C13.1 262.1 26.4 276.7 80.5 283C82.9 283.3 85.4 283.5 87.9 283.8C142.7 289.5 206.1 289.7 206.1 289.7C206.1 289.7 275.4 289.5 331.6 283C387.9 276.5 400.1 261 400.1 261C396.7 252.4 389.7 239.2 382.3 232.1Z" fill="#F0F7FF"/>
<path d="M412.301 307.1C412.001 294 412.101 288.4 411.101 284.9C411.601 288.3 409.801 303.9 337.401 316.4C255.701 330.5 206.201 328.5 206.201 328.5C206.201 328.5 160.501 330.3 84.501 318C81.401 317.5 78.201 317 75.001 316.4C0.800964 303.5 0.700964 287.5 1.30096 284.6C0.400964 287.5 0.500964 291.3 0.000964322 307.1C-0.0990357 312.8 7.60096 318.7 12.601 321.4C12.601 321.4 37.401 334.7 88.101 342.1C96.701 343.4 106.101 344.5 116.301 345.3C186.001 351 206.101 350.1 206.101 350.1C206.101 350.1 226.301 350.9 295.901 345.3C364.501 339.7 398.501 321.9 399.601 321.4C399.901 321.2 412.501 314.5 412.301 307.1Z" fill="#FF9EEA"/>
<path d="M193.4 0.1C193.3 0.5 192.2 8.9 193.4 14.6H169.7C166.8 14.6 165.9 12.5 165.5 8.7C165.1 4.9 165.1 1.1 170.5 0.3C171.4 0.2 172.8 0.1 174.7 0L193.4 0.1Z" fill="#FF9EEA"/>
<path d="M204.202 75.2C203.202 75.1 201.902 75 200.502 74.9C199.602 74.8 198.602 74.7 197.502 74.6C194.302 74.3 191.002 73.9 189.002 73.6C184.802 72.9 181.502 70 180.202 66.6C180.002 66.1 179.902 65.7 179.802 65.2C179.102 61.9 172.202 25.8 170.102 14.5H193.302C193.302 14.5 195.302 57.8 201.302 71.3C202.202 73.4 203.202 74.8 204.202 75.2Z" fill="#FF85F3"/>
<path opacity="0.34" d="M84.401 317.9C84.501 305.1 85.101 295.8 88.001 283.8C89.401 277.8 91.501 271.2 94.301 263.2C95.401 260 96.801 256.9 98.401 254C109.201 233.7 128.901 218.7 128.901 218.7C128.901 218.1 129.201 215.8 129.901 214.9C130.201 214.5 130.201 214.7 131.901 213.5C137.901 209.3 146.001 199.5 153.601 188.2C159.201 180 164.501 171.1 168.501 163.2C171.901 156.5 174.401 150.4 175.501 146C176.001 143.9 176.401 141.7 176.701 139.3C177.901 131.7 178.501 122.9 179.001 114.9C179.601 104.9 179.901 96.2 180.601 92.9C181.601 88.5 192.201 83.7 199.401 81C203.201 79.6 206.001 78.7 206.001 78.7L200.301 76L199.801 79.1C198.701 79.2 197.601 79.3 196.801 79.4C169.901 81.5 172.601 82.7 172.101 82.3C164.201 84.2 164.001 87.3 164.001 91C163.901 94.6 163.701 112.4 162.601 113.7C161.501 115 157.601 116.1 155.401 117.4C155.101 117.6 154.801 117.7 154.601 117.9C152.901 119.4 155.401 125.5 154.001 130.3C150.101 143.1 139.501 158.6 131.101 168.4C117.001 184.6 94.601 194.7 79.901 197.3C71.801 198.7 68.101 203.8 68.401 208.2C60.501 211.7 52.401 216.5 52.401 216.4C30.501 228.8 19.101 237.5 5.40096 278.6C5.40096 278.7 3.30096 280.2 1.90096 283C0.200964 286.5 0.500964 288.3 0.000964322 307.1C-0.0990357 312.8 7.60096 318.7 12.601 321.4C13.601 323.7 15.601 327.3 17.001 329.6C23.501 340.7 31.601 351.2 50.401 363.4C61.501 370.8 67.801 372.9 77.201 376.2C125.701 392.6 146.301 391 159.901 397.2C167.801 400.8 166.701 403.6 184.701 411.4C184.801 411.5 189.701 413.6 190.501 413.9C191.001 414.1 191.501 422.1 195.601 430.4C197.501 434.4 202.201 441.8 206.101 443.1C204.401 434.4 202.201 425.8 202.801 416V415.9C201.301 407.2 184.901 394.8 184.901 394.8C109.701 371.9 90.601 346.3 88.101 342.1C85.501 337.9 84.301 337 84.401 317.9Z" fill="#AA82FF"/>
</g>
<defs>
<clipPath id="clip0_502_1398">
<rect width="412.3" height="443.1" fill="white"/>
</clipPath>
</defs>
</svg>
