<svg width="288" height="380" viewBox="0 0 288 380" fill="none" xmlns="http://www.w3.org/2000/svg">
<g clip-path="url(#clip0_426_2478)">
<path d="M109.081 243.295C106.062 252.766 99.573 259.32 102.467 278.466C104.973 295.053 118.386 308.129 118.386 312.748C118.386 317.351 106.824 325.012 97.6746 329.881C93.7844 331.956 87.1399 336.325 80.7911 341.131C72.0926 347.716 92.6951 355.502 93.3487 353.692C93.7999 352.444 94.2512 351.445 95.3249 351.164C97.9391 350.478 102.623 351.445 103.463 349.37C104.303 347.294 107.462 339.867 117.39 332.096C125.388 325.824 134.523 320.066 135.534 315.509C136.546 310.953 129.979 304.868 135.534 297.409C141.089 289.95 153.943 291.324 155.032 291.464C156.106 291.604 109.081 243.295 109.081 243.295Z" fill="white"/>
<path d="M93.3642 353.692C93.8154 352.444 94.2667 351.445 95.3404 351.164C97.9546 350.477 102.638 351.445 103.479 349.37C104.319 347.294 107.478 339.867 117.406 332.096C125.404 325.823 134.538 320.066 135.55 315.509C136.561 310.953 129.994 304.867 135.55 297.409C141.105 289.95 153.958 291.323 155.047 291.464C155.499 291.526 147.609 283.178 138.242 273.426C128.734 281.821 126.493 286.783 125.171 293.009C123.614 300.311 128.578 307.13 128.438 312.919C128.298 318.708 119.491 326.463 113.235 330.817C106.202 335.701 102.841 343.783 99.6819 346.296C95.9162 349.292 91.4969 344.923 85.8483 350.462C85.7861 350.93 85.7861 351.367 85.8016 351.773C89.3962 353.536 93.0841 354.441 93.3642 353.692Z" fill="#DDDDDD"/>
<path d="M95.0455 331.379C93.6606 332.206 92.1201 333.189 90.4551 334.281C94.5943 335.67 100.865 341.038 103.806 348.528C104.351 347.279 105.331 345.282 107.027 342.848C104.927 340.055 100.212 334.328 95.0455 331.379Z" fill="#323335"/>
<path d="M107.961 323.732C105.689 325.277 103.246 326.775 100.85 328.133C104.88 328.757 110.388 331.066 113.423 335.498C114.605 334.374 115.928 333.235 117.391 332.096C117.92 331.69 118.449 331.269 118.978 330.863C117.188 328.772 113.112 324.684 107.961 323.732Z" fill="#323335"/>
<path d="M113.205 319.816C118.2 319.504 125.016 321.002 128.75 323.421C130.151 322.282 131.427 321.174 132.485 320.113C130.182 317.835 125.249 313.996 118.185 313.902C117.562 315.65 115.71 317.71 113.205 319.816Z" fill="#323335"/>
<path d="M111.555 300.405C113.282 303.183 114.931 305.617 116.176 307.661C120.689 305.164 129.356 306.444 133.76 307.333C133.278 305.523 133.029 303.573 133.527 301.497C124.112 298.299 116.441 298.735 111.555 300.405Z" fill="#323335"/>
<path d="M103.494 283.194C104.366 286.314 105.548 289.264 106.886 292.041C113.531 289.622 130.383 292.057 139.891 293.742C143.299 291.932 147.313 291.401 150.363 291.292C143.594 287.407 122.432 276.781 103.494 283.194Z" fill="#323335"/>
<path d="M101.596 344.158C102.436 345.516 103.198 346.967 103.805 348.512C103.65 348.122 104.801 346.452 104.972 346.124C105.564 345.048 106.186 343.753 107.042 342.894C106.824 342.551 104.568 339.945 104.63 339.852C103.525 341.474 102.529 342.957 101.596 344.158Z" fill="#1F2021"/>
<path d="M116.518 328.336C115.382 329.241 114.246 330.068 113.203 330.801C112.363 331.379 111.585 332.003 110.854 332.658C111.818 333.485 112.69 334.421 113.421 335.498C113.172 335.124 118.416 331.332 118.976 330.864C118.385 330.177 117.545 329.272 116.518 328.336Z" fill="#1F2021"/>
<path d="M124.066 321.315C125.856 321.892 127.474 322.61 128.735 323.421C129.466 322.828 130.166 322.22 130.866 321.58C131.629 320.893 132.563 320.519 131.987 319.645C131.084 318.287 128.828 317.133 127.459 316.368C126.681 318.007 125.498 319.676 124.066 321.315Z" fill="#1F2021"/>
<path d="M127.146 306.366C128.376 306.475 129.605 306.631 130.819 306.818C131.69 306.959 132.888 307.38 133.713 307.239C133.355 307.302 133.386 302.075 133.62 301.575C131.083 300.405 127.971 299.89 125.217 299.5C125.653 301.856 126.446 304.166 127.146 306.366Z" fill="#1F2021"/>
<path d="M125.451 291.652C130.695 292.213 135.939 293.04 139.892 293.743C143.175 291.995 146.505 291.901 150.022 291.199C147.797 289.374 144.482 288.188 141.821 287.049C140.545 286.502 130.026 281.915 129.388 282.851C127.241 285.925 126.183 288.671 125.451 291.652Z" fill="#1F2021"/>
<path d="M138.756 273.973C136.547 271.679 134.259 269.291 131.972 266.92C125.779 265.562 111.26 262.769 102.095 263.924C101.69 267.076 101.597 270.711 102.033 275.034C109.004 272.506 124.549 270.54 138.756 273.973Z" fill="#323335"/>
<path d="M92.6335 354.223C92.6024 354.223 92.5712 354.223 92.5401 354.223C89.4435 354.16 80.0136 350.275 78.5665 345.781C77.9907 344.002 78.691 342.364 80.6205 340.897C86.6892 336.31 93.4893 331.784 97.5351 329.631C107.774 324.185 118.107 316.852 118.107 312.732C118.107 311.078 116.193 308.113 113.75 304.353C109.533 297.831 103.759 288.905 102.172 278.497C99.9626 263.908 103.121 256.714 106.187 249.755C107.152 247.555 108.07 245.48 108.786 243.202L108.926 242.765L109.252 243.092C109.361 243.217 120.954 255.107 132.345 266.935C155.546 290.996 155.406 291.277 155.25 291.573L155.157 291.745L154.939 291.729C154.379 291.651 141.277 290.091 135.706 297.565C132.236 302.231 133.605 306.303 134.819 309.908C135.504 311.936 136.142 313.84 135.768 315.557C134.959 319.223 129.341 323.421 122.822 328.274C121.079 329.584 119.258 330.926 117.515 332.299C110.964 337.433 106.047 343.534 103.682 349.464C103.075 350.977 100.803 351.04 98.5933 351.118C97.4418 351.149 96.2592 351.196 95.3722 351.43C94.423 351.679 94.0184 352.6 93.5827 353.786C93.4582 354.192 92.9136 354.223 92.6335 354.223ZM109.19 243.81C108.49 245.948 107.619 247.914 106.7 249.989C103.666 256.87 100.538 264.001 102.732 278.435C104.289 288.734 110.03 297.596 114.216 304.072C116.799 308.051 118.651 310.938 118.651 312.748C118.651 317.382 107.416 325.012 97.7841 330.13C93.7539 332.268 86.9849 336.778 80.9473 341.35C79.3601 342.551 78.691 343.862 78.9866 345.251C79.7802 348.996 87.1561 352.522 91.0618 353.443C92.5401 353.786 93.0381 353.661 93.1003 353.583C93.5671 352.304 94.0495 351.211 95.2633 350.899C96.2125 350.65 97.4262 350.603 98.6088 350.571C100.647 350.509 102.748 350.447 103.215 349.261C105.611 343.238 110.591 337.074 117.22 331.878C118.962 330.505 120.783 329.147 122.526 327.852C128.672 323.265 134.492 318.927 135.255 315.463C135.597 313.902 135.006 312.139 134.337 310.111C133.138 306.569 131.66 302.153 135.317 297.253C140.483 290.325 151.796 290.887 154.503 291.137C151.158 287.064 121.359 256.309 109.19 243.81Z" fill="#666666"/>
<path d="M82.3014 340.008C73.0583 346.858 63.9396 354.894 64.1886 358.358C64.6087 364.022 84.9934 361.806 89.4127 359.325C93.4429 357.047 92.8672 352.694 94.7501 351.445C92.3848 347.123 86.8607 341.849 82.3014 340.008Z" fill="#323335"/>
<path d="M83.9352 340.788C83.375 340.476 82.8304 340.211 82.2858 339.992C73.0426 346.842 63.924 354.878 64.173 358.342C64.1885 358.545 64.2352 358.748 64.313 358.935C66.0247 353.115 79.0958 343.753 83.9352 340.788Z" fill="#626468"/>
<path d="M89.3962 359.309C93.4264 357.031 92.8507 352.678 94.7335 351.429C94.0333 350.165 93.0685 348.823 91.9326 347.497C91.3413 351.757 89.4584 355.97 85.0547 357.171C78.4569 358.966 71.0655 361.478 64.2188 358.591C65.1991 363.944 85.0547 361.775 89.3962 359.309Z" fill="#1F2021"/>
<path d="M74.0224 362.18C70.6457 362.18 67.5802 361.79 65.744 360.807C64.5925 360.183 63.9857 359.372 63.9079 358.373C63.5966 354.02 76.5433 343.924 82.1296 339.789L82.2541 339.695L82.3941 339.758C86.8134 341.537 92.462 346.717 94.9829 351.305L95.1073 351.523L94.8895 351.663C94.2204 352.116 93.8625 353.068 93.4734 354.191C92.8355 355.954 92.0574 358.155 89.5366 359.559C87.1558 360.901 80.1222 362.18 74.0224 362.18ZM82.3319 340.319C71.097 348.652 64.2502 355.549 64.4525 358.326C64.5147 359.122 65.0282 359.793 66.0086 360.308C71.0347 363.007 85.6463 361.119 89.272 359.075C91.6061 357.765 92.3219 355.767 92.9599 354.004C93.349 352.896 93.7069 351.944 94.3915 351.367C91.8862 346.967 86.5644 342.083 82.3319 340.319Z" fill="black"/>
<path d="M114.901 47.4668C110.979 44.8454 102.903 44.6269 94.9206 38.7599C83.3278 30.2402 78.9863 16.8989 81.4138 14.2307C82.7987 12.7171 91.2794 14.1682 98.095 14.7144C105.315 15.2917 112.66 17.1798 118.013 26.7605C123.63 36.825 121.53 48.1378 121.53 48.1378L114.901 47.4668Z" fill="white"/>
<path d="M114.046 43.2376C113.564 42.8163 105.986 42.239 97.2563 36.7152C89.3981 31.7376 83.8429 22.0632 80.8708 15.3848C79.9371 19.5978 84.4964 31.1134 94.9066 38.7593C102.718 44.5015 110.576 44.8292 114.607 47.2946L115.789 47.0917C115.789 47.0917 114.7 44.0334 114.046 43.2376Z" fill="#DDDDDD"/>
<path d="M121.748 48.4341L114.808 47.7319L114.746 47.7007C113.236 46.6865 111.058 46.0311 108.553 45.2821C104.585 44.0806 99.6517 42.5982 94.7656 38.9938C85.1957 31.9564 81.0099 22.3133 80.543 17.5541C80.3874 15.9313 80.6208 14.7142 81.2122 14.0588C82.3481 12.8105 87.2186 13.3411 92.8672 13.934C94.6256 14.1213 96.4306 14.3085 98.1112 14.4489C105.363 15.0263 112.816 16.8987 118.247 26.6355C123.849 36.6688 121.81 48.0752 121.795 48.2L121.748 48.4341ZM114.995 47.2014L121.281 47.8411C121.546 46.1247 122.791 35.9354 117.749 26.9008C112.443 17.3981 105.145 15.5568 98.049 14.9951C96.3528 14.8546 94.5322 14.6674 92.7894 14.4802C87.7477 13.9496 82.5504 13.3879 81.6012 14.4177C81.1188 14.9483 80.9165 16.0405 81.0721 17.4917C81.6323 23.1247 86.7207 32.4089 95.0769 38.5413C99.9007 42.0833 104.787 43.5657 108.708 44.7516C111.229 45.5006 113.423 46.1715 114.995 47.2014Z" fill="#666666"/>
<path d="M86.4395 19.8945C89.1937 22.0323 98.0167 22.8593 103.805 27.8369C110.652 33.7195 112.831 40.8349 113.515 42.208C103.121 39.3837 88.369 31.0513 86.4395 19.8945Z" fill="#EC918E"/>
<path d="M103.805 27.8369C98.0168 22.8749 89.2093 22.0323 86.4551 19.8945C88.7581 23.265 93.084 23.9515 98.2813 27.0255C103.681 30.2243 108.909 37.4176 111.15 41.4902C111.959 41.7555 112.753 42.0052 113.531 42.208C112.831 40.8349 110.652 33.7195 103.805 27.8369Z" fill="#D17171"/>
<path d="M114.045 42.645L113.453 42.489C103.588 39.8051 88.1826 31.5819 86.1753 19.9571L86.0508 19.2549L86.611 19.6918C87.638 20.4876 89.6453 21.1273 91.9483 21.8763C95.7141 23.0778 100.398 24.5758 103.977 27.6497C109.906 32.7366 112.333 38.6816 113.376 41.2095C113.547 41.6152 113.671 41.9116 113.765 42.1145L114.045 42.645ZM86.8444 20.4876C89.2096 31.3166 103.494 39.0405 113.033 41.7868C112.987 41.662 112.924 41.5371 112.878 41.3967C111.851 38.9001 109.454 33.0487 103.635 28.0398C100.133 25.0283 95.5118 23.5615 91.7927 22.3756C89.7854 21.7359 88.0114 21.1742 86.8444 20.4876Z" fill="#666666"/>
<path d="M115.29 46.5301C115.29 46.5301 114.372 44.6421 113.268 42.3327L113.766 42.0986C114.87 44.408 115.788 46.2961 115.788 46.2961L115.29 46.5301Z" fill="#666666"/>
<path d="M121.732 46.4057C115.632 33.9382 110.295 23.2496 110.855 22.5162C111.4 21.7828 135.223 18.3344 155.203 31.27C173.705 43.2381 184.333 60.7924 185.282 81.4831C187.29 125.345 164.182 153.978 164.804 174.123C156.791 162.014 155.017 137.501 155.017 137.501C155.017 137.501 175.728 85.3684 159.28 71.169C142.817 56.9695 121.732 46.4057 121.732 46.4057Z" fill="white"/>
<path d="M172.555 113.518C174.702 105.373 182.436 77.9413 166.47 55.4094C153.368 36.9189 131.567 35.9983 116.66 36.0139C118.201 39.1814 119.943 42.7079 121.749 46.406C121.749 46.406 142.833 56.9698 159.297 71.1693C175.745 85.3688 155.033 137.501 155.033 137.501C155.033 137.501 156.714 160.595 164.136 173.031C164.401 173.171 164.619 173.218 164.805 173.14C164.805 171.892 164.899 170.628 165.07 169.317C164.588 156.07 170.547 121.055 172.555 113.518Z" fill="#DDDDDD"/>
<path d="M158.38 157.973C162.005 157.068 165.522 156.6 168.167 156.896C169.334 153.385 170.735 149.671 172.213 145.739C168.152 146.519 160.496 148.142 156.668 149.984C157.119 152.496 157.695 155.226 158.38 157.973Z" fill="#323335"/>
<path d="M157.258 131.322C155.951 135.145 155.018 137.501 155.018 137.501C155.018 137.501 155.127 138.968 155.407 141.339C161.818 138.624 169.427 134.926 175.994 135.488C177.254 131.946 178.483 128.232 179.635 124.363C175.013 124.097 165.148 124.503 157.258 131.322Z" fill="#323335"/>
<path d="M164.23 104.889C163.312 110.163 162.051 115.375 160.76 120.025C168.851 113.331 177.036 108.447 183.603 107.48C184.428 102.689 185.004 97.6804 185.253 92.4375C180.273 94.1227 171.279 97.8832 164.23 104.889Z" fill="#323335"/>
<path d="M180.553 60.4336C176.134 63.3671 168.556 69.2186 163.545 77.4106C164.51 79.7979 165.085 82.5286 165.381 85.4777C171.31 80.1724 179.168 75.5381 184.474 73.9465C183.696 69.2186 182.374 64.7246 180.553 60.4336Z" fill="#323335"/>
<path d="M161.771 36.0137C157.663 42.973 151.034 58.1711 148.934 63.0551C152.435 65.5673 155.952 68.298 159.282 71.1691C159.92 71.7152 160.495 72.3394 161.024 72.9947C162.705 64.2566 166.766 52.0076 170.828 44.7986C168.151 41.6623 165.132 38.7287 161.771 36.0137Z" fill="#323335"/>
<path d="M138.15 23.8426C132.206 22.2823 126.604 21.6893 122.029 21.5801C126.993 28.477 130.417 41.6466 130.261 51.0557C133.264 52.7877 136.859 54.9411 140.702 57.4377C141.247 51.321 141.823 34.5781 138.15 23.8426Z" fill="#323335"/>
<path d="M156.684 150.015C156.792 150.608 156.901 151.232 157.026 151.841C157.026 151.872 157.041 151.903 157.041 151.935C157.166 152.543 157.29 153.152 157.415 153.776C157.43 153.838 157.446 153.901 157.462 153.963C157.586 154.572 157.726 155.18 157.866 155.804C157.882 155.882 157.897 155.945 157.913 156.023C158.053 156.647 158.208 157.271 158.364 157.895C158.364 157.926 158.38 157.942 158.38 157.973C160.963 157.333 163.484 156.912 165.678 156.819C165.973 153.667 166.378 150.296 166.814 146.848C163.157 147.69 159.127 148.783 156.668 149.968C156.684 149.984 156.684 150 156.684 150.015Z" fill="#1F2021"/>
<path d="M155.113 137.251V137.267C155.097 137.313 155.082 137.345 155.066 137.376C155.051 137.391 155.051 137.407 155.051 137.423C155.051 137.438 155.035 137.438 155.035 137.454C155.02 137.469 155.02 137.485 155.02 137.485C155.02 137.485 155.02 137.501 155.02 137.532C155.035 137.782 155.144 139.17 155.393 141.324C159.408 139.623 163.905 137.547 168.308 136.346C168.931 132.32 169.569 128.466 170.191 125.049C166.021 125.923 161.368 127.733 157.26 131.306C156.202 134.442 155.393 136.564 155.113 137.251Z" fill="#1F2021"/>
<path d="M173.101 111.427C174.004 107.963 175.249 102.72 175.887 96.4629C172.028 98.507 167.873 101.253 164.232 104.873C163.672 108.15 162.971 111.411 162.209 114.517C162.193 114.548 162.193 114.579 162.178 114.61C161.882 115.812 161.571 116.998 161.26 118.168C161.244 118.23 161.229 118.293 161.213 118.355C161.057 118.917 160.917 119.479 160.762 120.025C164.932 116.592 169.118 113.627 173.101 111.427Z" fill="#1F2021"/>
<path d="M172.526 66.7373C169.382 69.624 166.13 73.2129 163.562 77.4103C164.278 79.2048 164.792 81.1708 165.119 83.293C165.119 83.3086 165.119 83.3086 165.119 83.3242C165.165 83.6675 165.228 84.0107 165.259 84.354C165.259 84.3696 165.259 84.3852 165.259 84.4164C165.305 84.7753 165.336 85.1186 165.383 85.4775C168.449 82.7312 172.028 80.1722 175.513 78.1125C174.937 74.352 173.973 70.529 172.526 66.7373Z" fill="#1F2021"/>
<path d="M156.807 45.6406C153.571 52.4127 150.303 59.8869 148.949 63.0545C150.661 64.2872 152.373 65.5667 154.069 66.8774C154.131 66.9242 154.193 66.9711 154.255 67.0179C155.034 67.6264 155.812 68.2506 156.59 68.8903C156.73 68.9996 156.87 69.1244 157.01 69.2336C157.788 69.8734 158.55 70.5131 159.313 71.1685C159.624 71.4338 159.92 71.7146 160.2 72.0111C160.231 72.0423 160.246 72.0735 160.278 72.1047C160.542 72.3856 160.807 72.6977 161.056 72.9941C162.083 67.6732 163.981 61.0572 166.237 55.0653C163.405 51.1956 160.231 48.106 156.807 45.6406Z" fill="#1F2021"/>
<path d="M140.781 38.385C136.595 37.3083 132.378 36.7154 128.332 36.4033C129.624 41.4278 130.324 46.655 130.246 51.0553C130.246 51.4766 134.51 53.5987 134.977 53.8952C136.719 54.9719 138.68 56.6259 140.61 57.25C141.356 54.9875 141.03 51.8355 141.076 49.4481C141.139 45.75 141.061 42.0675 140.781 38.385Z" fill="#1F2021"/>
<path d="M165.116 175.09L164.587 174.279C156.636 162.249 154.769 137.766 154.753 137.532V137.47L154.769 137.407C154.971 136.892 175.215 85.2905 159.11 71.3875C142.864 57.3596 121.826 46.7647 121.608 46.6554L121.531 46.6086L119.881 43.2538C112.583 28.3677 110.078 23.0936 110.638 22.3603C111.432 21.2836 135.551 18.2253 155.36 31.036C174.157 43.207 184.599 60.6521 185.563 81.4676C186.777 107.854 178.903 128.763 172.57 145.568C168.415 156.6 164.836 166.118 165.085 174.107L165.116 175.09ZM155.298 137.548C155.407 138.905 157.258 161.297 164.51 173.156C164.556 165.26 168.042 156.023 172.041 145.381C178.343 128.622 186.201 107.776 184.988 81.4988C184.038 60.8549 173.691 43.5659 155.049 31.5041C135.426 18.8026 112.49 22.0326 111.074 22.7035C110.965 23.8582 115.54 33.1737 120.364 43.0197L121.935 46.2185C123.413 46.9675 143.674 57.3753 159.452 70.9818C166.361 76.9424 167.746 89.9872 163.576 109.742C160.604 123.863 155.687 136.565 155.298 137.548Z" fill="#666666"/>
<path d="M103.154 182.003C94.6892 183.563 77.0432 203.833 72.4528 205.128C59.2261 193.472 47.8511 174.232 38.4835 173.358C29.1158 172.484 15.858 181.55 8.32656 190.398C0.79511 199.229 21.74 210.386 23.1249 204.675C24.5098 198.964 22.7515 199.51 24.681 196.936C26.6105 194.361 34.4221 189.742 36.9896 189.742C39.5572 189.742 50.9321 222.229 66.9442 224.57C80.171 226.505 101.956 215.738 105.053 213.117C108.149 210.48 103.154 182.003 103.154 182.003Z" fill="white"/>
<path d="M23.1092 204.675C24.4942 198.964 22.7358 199.51 24.6653 196.935C26.5949 194.361 34.4064 189.742 36.974 189.742C39.5415 189.742 50.9165 222.229 66.9286 224.57C80.1553 226.505 101.94 215.738 105.037 213.116C106.111 212.196 106.22 208.154 105.877 203.286C98.0036 209.278 79.9841 221.699 68.2046 219.795C52.7682 217.283 44.5054 188.572 38.4367 185.56C32.3679 182.549 18.5966 192.8 11.2363 201.102C11.2363 201.102 12.0766 202.1 13.4148 203.723C17.6941 206.344 22.4713 207.296 23.1092 204.675Z" fill="#DDDDDD"/>
<path d="M56.5798 188.119C54.6502 185.888 52.7674 183.766 50.9468 181.847C50.8845 187.542 49.0017 193.3 46.3563 193.69C44.4735 193.971 41.7347 193.908 39.9297 193.815C40.8478 195.469 41.937 197.544 43.1819 199.807C45.1581 199.729 47.7412 199.276 49.2818 198.199C51.2891 196.826 55.1482 191.583 56.5798 188.119Z" fill="#323335"/>
<path d="M61.8393 194.189C60.4388 192.597 59.0695 191.006 57.7157 189.43C57.1866 193.034 55.755 200.259 54.4479 202.162C53.0474 204.191 49.5151 204.893 46.0762 204.846C46.8698 206.188 47.7256 207.546 48.597 208.903C50.7289 208.435 54.6658 207.296 57.1088 204.862C59.6919 202.272 61.2169 196.842 61.8393 194.189Z" fill="#323335"/>
<path d="M69.013 201.913C67.6748 200.587 66.3677 199.214 65.0761 197.81C65.4651 202.865 64.2514 211.588 61.5127 213.117C59.0541 214.474 53.4055 212.977 50.8535 212.196C52.5496 214.521 54.3858 216.721 56.3309 218.609C58.4628 218.282 61.3882 217.424 64.1736 215.27C68.0327 212.29 68.8574 205.377 69.013 201.913Z" fill="#323335"/>
<path d="M76.7777 217.47C77.8203 215.145 75.4084 207 74.4747 204.02C73.6655 204.581 72.9809 204.987 72.4674 205.127C72.0628 204.769 71.6738 204.41 71.2692 204.051C72.2806 207.998 73.3543 214.708 72.7474 216.191C72.125 217.673 65.076 221.028 62.1816 222.963C63.7222 223.774 65.3094 224.336 66.9588 224.57C68.0014 224.726 69.0907 224.788 70.2266 224.788C72.2806 222.9 75.8752 219.467 76.7777 217.47Z" fill="#323335"/>
<path d="M86.8761 206.423C85.6624 203.645 82.0989 200.759 80.1383 199.308C78.7222 200.572 77.4151 201.726 76.248 202.662C79.1579 204.051 81.8033 205.69 82.379 207.172C82.9392 208.639 83.017 218.251 82.768 222.838C84.3708 222.401 85.958 221.902 87.5141 221.356C87.7786 217.236 88.0898 209.185 86.8761 206.423Z" fill="#323335"/>
<path d="M88.339 191.911C87.1564 192.957 85.9738 194.018 84.8223 195.063C90.0507 195.453 92.3537 197.95 93.0384 199.853C93.6764 201.632 97.3487 211.338 98.3135 216.955C99.9318 216.175 101.332 215.442 102.468 214.802C101.052 210.261 97.8 200.134 96.2439 197.232C94.859 194.595 90.751 192.785 88.339 191.911Z" fill="#323335"/>
<path d="M47.6015 199.042C46.5745 197.232 45.6097 195.484 44.6916 193.861C43.1511 193.939 41.5483 193.97 40.0078 193.799C40.1945 194.345 42.7154 199.838 43.1978 199.822C44.5671 199.775 46.201 199.525 47.6015 199.042Z" fill="#1F2021"/>
<path d="M50.7599 204.378C49.3283 204.752 47.6944 204.893 46.0605 204.862C46.8541 206.204 47.71 207.561 48.5814 208.919C49.6862 208.685 51.2579 208.263 52.8606 207.577C52.1448 206.531 51.4446 205.455 50.7599 204.378Z" fill="#1F2021"/>
<path d="M61.5594 216.923C60.2368 215.987 58.9608 214.879 57.7626 213.631C55.2729 213.459 52.4563 212.679 50.8691 212.195C52.1451 213.943 53.4834 215.613 54.8994 217.126L54.915 217.142C55.3818 217.641 55.8642 218.14 56.3466 218.608C57.8093 218.374 59.6455 217.891 61.5594 216.923Z" fill="#1F2021"/>
<path d="M75.4394 219.467C72.8874 219.982 70.4444 220.138 68.2347 219.779C68.0947 219.748 67.9391 219.732 67.799 219.701C65.7294 220.871 63.5042 222.073 62.166 222.978C64.2823 224.086 66.6009 224.71 68.9972 224.788C69.2929 224.803 69.6041 224.803 69.8998 224.725C70.989 224.491 71.7515 223.415 72.4829 222.666C73.043 222.073 74.7392 219.607 75.4394 219.467Z" fill="#1F2021"/>
<path d="M87.5155 221.355C87.6245 219.655 87.7334 217.267 87.7489 214.88C86.1462 215.691 84.5123 216.44 82.894 217.111C82.894 219.249 82.8473 221.309 82.7539 222.838C84.3722 222.401 85.9594 221.902 87.5155 221.355Z" fill="#1F2021"/>
<path d="M102.469 214.786C101.894 212.96 101.038 210.245 100.104 207.468C98.9682 208.248 97.7545 209.059 96.4785 209.871C97.2566 212.383 97.9568 214.926 98.2991 216.955C99.933 216.159 101.333 215.426 102.469 214.786Z" fill="#1F2021"/>
<path d="M70.2422 225.069C69.0751 225.069 67.9547 224.991 66.8966 224.835C55.4749 223.166 46.543 206.61 41.2056 196.733C39.4317 193.425 37.58 190.023 36.9886 190.023C34.5145 190.023 26.8274 194.517 24.8979 197.092C23.9331 198.387 23.9331 198.792 23.9642 199.791C23.9953 200.68 24.0265 202.022 23.3729 204.722C23.1395 205.705 22.377 206.298 21.1944 206.454C17.4131 206.953 10.0373 202.974 7.39193 198.075C5.86697 195.266 6.11595 192.535 8.10773 190.21C15.7481 181.238 29.0059 172.203 38.4981 173.077C44.4423 173.639 50.9467 181.16 58.4626 189.883C62.9441 195.063 67.5657 200.431 72.4985 204.8C74.3658 204.16 78.3027 200.571 82.8464 196.436C89.5998 190.288 97.9871 182.642 103.091 181.706L103.371 181.659L103.418 181.94C103.931 184.874 108.351 210.636 105.223 213.304C102.08 216.003 83.3288 225.069 70.2422 225.069ZM36.9886 189.461C37.8756 189.461 39.0738 191.615 41.688 196.467C46.9787 206.267 55.8328 222.666 66.9744 224.289C79.781 226.161 101.473 215.785 104.865 212.898C107.277 210.839 104.336 190.413 102.935 182.33C97.956 183.469 89.8021 190.881 83.2355 196.873C78.5361 201.149 74.4591 204.862 72.5296 205.393L72.3896 205.44L72.2806 205.346C67.27 200.93 62.5862 195.516 58.0736 190.273C50.9312 182.003 44.1933 174.185 38.4669 173.655C29.146 172.781 16.0904 181.737 8.54344 190.585C6.6917 192.754 6.47385 195.188 7.88988 197.825C10.3952 202.459 17.5998 206.391 21.1322 205.923C22.0969 205.798 22.6727 205.362 22.8438 204.613C23.4818 201.976 23.4352 200.68 23.4196 199.822C23.3885 198.792 23.3729 198.231 24.4622 196.779C26.5006 194.033 34.3433 189.461 36.9886 189.461Z" fill="#666666"/>
<path d="M13.3653 185.233C11.5136 186.919 9.80191 188.666 8.32363 190.398C0.776623 199.23 -0.686096 209.731 0.776623 210.387C2.23934 211.027 21.3792 210.293 23.1064 204.676C24.1801 201.181 23.8845 199.823 23.8533 198.294C22.7952 190.695 19.0762 186.638 13.3653 185.233Z" fill="#323335"/>
<path d="M14.6726 185.623C14.2524 185.483 13.8167 185.343 13.3655 185.233C11.5137 186.919 9.80203 188.666 8.32375 190.398C1.36806 198.559 -0.421439 208.124 0.512211 210.059C2.64405 198.387 10.7668 189.431 14.6726 185.623Z" fill="#626468"/>
<path d="M0.776574 210.387C2.23929 211.026 21.3791 210.293 23.1064 204.676C24.1801 201.18 23.8844 199.823 23.8533 198.294C23.4332 195.313 22.6084 192.895 21.4102 190.944C21.2858 193.425 20.7878 197.857 18.9672 201.227C15.3415 207.921 3.39079 209.856 0.589844 210.231C0.652087 210.293 0.71433 210.356 0.776574 210.387Z" fill="#1F2021"/>
<path d="M3.31384 210.839C1.94448 210.839 0.979712 210.761 0.684056 210.636C0.419522 210.511 0.217231 210.215 0.108305 209.747C-0.529689 206.953 1.64883 197.794 8.10658 190.211C9.60042 188.463 11.2965 186.715 13.1794 185.015L13.2883 184.921L13.4284 184.952C19.4971 186.434 23.1072 190.913 24.1342 198.231C24.1342 198.496 24.1498 198.73 24.1654 198.964C24.2276 200.259 24.2898 201.742 23.3718 204.738C22.9827 205.986 21.7846 207.094 19.7928 208.015C15.2023 210.137 7.4219 210.839 3.31384 210.839ZM13.4439 185.529C11.6389 187.183 9.97388 188.869 8.52672 190.569C2.19346 198.013 0.0305009 206.922 0.637374 209.622C0.715178 209.949 0.808543 210.09 0.886347 210.121C1.80444 210.527 13.4595 210.324 19.5594 207.515C21.3955 206.673 22.5004 205.674 22.8427 204.582C23.7297 201.664 23.6674 200.306 23.6052 198.996C23.5896 198.762 23.5896 198.527 23.574 198.293C22.5937 191.209 19.2637 187.012 13.4439 185.529Z" fill="black"/>
<path d="M121.951 111.864C125.094 124.784 118.481 137.501 111.307 152.98C104.134 168.459 94.4394 187.433 101.193 227.52C107.946 267.512 133.762 289.389 163.53 295.053C173.862 281.79 164.961 171.939 164.774 162.935C163.763 113.783 172.742 108.15 172.072 88.7705C171.528 72.4645 164.743 56.9699 152.123 50.6191C128.611 59.2012 121.951 111.864 121.951 111.864Z" fill="white"/>
<path d="M163.545 295.053C170.267 286.424 168.508 240.455 166.641 204.426C134.228 224.851 147.688 254.67 135.706 261.333C128.159 265.515 118.683 261.052 108.973 252.798C120.363 276.906 140.795 290.731 163.545 295.053Z" fill="#DDDDDD"/>
<path d="M172.104 88.7703C171.606 73.9935 165.988 59.8876 155.547 52.6318L153.509 57.0633C153.509 57.0633 166.735 65.4894 160.775 90.1122C153.742 104.202 133.933 107.916 122.371 109.024C122.076 110.834 121.951 111.864 121.951 111.864C122.511 114.189 122.76 116.498 122.745 118.823C127.818 120.15 136.438 122.241 141.994 122.662C147.004 123.036 154.442 124.612 156.092 129.621C157.897 135.082 157.305 158.863 161.725 171.127C163.047 172.095 164.261 172.937 165.381 173.702C165.039 168.178 164.79 164.34 164.775 162.935C163.779 113.783 172.757 108.15 172.104 88.7703Z" fill="#DDDDDD"/>
<path d="M161.662 88.77C165.537 85.3996 168.213 78.4715 169.676 73.7123C168.291 69.0624 166.299 64.7557 163.747 61.042C164.416 71.5278 163.638 80.8745 161.662 88.77Z" fill="#1F2021"/>
<path d="M120.784 140.918C122.169 141.386 129.545 132.851 134.929 130.604C140.406 128.31 149.074 127.203 156.792 123.052C161.398 120.587 165.817 116.264 168.618 113.19C170.454 104.515 172.228 98.5539 172.119 90.0811C169.847 100.083 163.436 108.899 158.721 114.579C152.839 121.679 141.9 124.066 136.952 125.814C131.988 127.561 125.561 132.445 123.352 131.806C121.936 131.384 121.733 130.245 121.469 128.092C120.753 130.901 119.773 133.756 118.621 136.69C119.197 138.671 120.053 140.669 120.784 140.918Z" fill="#323335"/>
<path d="M120.784 140.918C122.169 141.386 129.545 132.851 134.929 130.604C140.406 128.31 149.074 127.203 156.792 123.052C161.398 120.587 165.817 116.264 168.618 113.19C170.454 104.515 172.228 98.5539 172.119 90.0811C169.847 100.083 163.436 108.899 158.721 114.579C152.839 121.679 141.9 124.066 136.952 125.814C131.988 127.561 125.561 132.445 123.352 131.806C121.936 131.384 121.733 130.245 121.469 128.092C120.753 130.901 119.773 133.756 118.621 136.69C119.197 138.671 120.053 140.669 120.784 140.918Z" fill="#323335"/>
<path d="M112.489 160.235C114.667 160.189 126.852 148.252 131.924 145.583C137.682 142.541 144.606 143.165 153.632 142.822C158.736 142.619 162.719 140.372 165.209 138.452C165.551 132.975 166.065 128.326 166.641 124.269C162.626 127.951 154.021 133.1 149.773 134.661C144.529 136.596 142.537 136.049 132.609 139.077C122.681 142.119 116.893 151.029 115.586 150.967C114.776 150.92 114.574 148.689 114.418 146.286C113.407 148.454 112.364 150.686 111.306 152.964C110.808 154.025 110.31 155.117 109.797 156.21C110.435 158.207 111.477 160.251 112.489 160.235Z" fill="#323335"/>
<path d="M112.489 160.235C114.667 160.189 126.852 148.252 131.924 145.583C137.682 142.541 144.606 143.165 153.632 142.822C158.736 142.619 162.719 140.372 165.209 138.452C165.551 132.975 166.065 128.326 166.641 124.269C162.626 127.951 154.021 133.1 149.773 134.661C144.529 136.596 142.537 136.049 132.609 139.077C122.681 142.119 116.893 151.029 115.586 150.967C114.776 150.92 114.574 148.689 114.418 146.286C113.407 148.454 112.364 150.686 111.306 152.964C110.808 154.025 110.31 155.117 109.797 156.21C110.435 158.207 111.477 160.251 112.489 160.235Z" fill="#323335"/>
<path d="M109.206 182.002C111.26 182.002 121.514 170.939 137.682 163.762C145.167 160.438 159.016 157.863 164.711 156.896C164.695 153.65 164.727 150.623 164.804 147.783C158.004 151.513 142.537 151.669 132.811 157.582C125.295 162.154 110.855 175.371 109.703 174.996C108.754 174.684 106.934 169.02 106.031 164.838C105.02 167.366 104.039 170.019 103.152 172.89C104.584 177.228 107.12 182.002 109.206 182.002Z" fill="#323335"/>
<path d="M109.206 182.002C111.26 182.002 121.514 170.939 137.682 163.762C145.167 160.438 159.016 157.863 164.711 156.896C164.695 153.65 164.727 150.623 164.804 147.783C158.004 151.513 142.537 151.669 132.811 157.582C125.295 162.154 110.855 175.371 109.703 174.996C108.754 174.684 106.934 169.02 106.031 164.838C105.02 167.366 104.039 170.019 103.152 172.89C104.584 177.228 107.12 182.002 109.206 182.002Z" fill="#323335"/>
<path d="M168.617 113.175C168.99 111.411 169.363 109.757 169.706 108.181C169.768 107.901 169.83 107.604 169.893 107.323C169.908 107.23 169.939 107.136 169.955 107.058C170.048 106.605 170.157 106.169 170.25 105.732C170.25 105.7 170.266 105.685 170.266 105.654C170.359 105.201 170.453 104.764 170.546 104.312C170.546 104.296 170.546 104.28 170.562 104.249C171.511 99.6462 172.18 95.3395 172.118 90.0498C169.846 100.052 163.435 108.868 158.72 114.548C155.234 118.745 149.99 121.304 145.244 123.052C147.563 123.442 150.006 124.113 152.029 125.205C153.631 124.581 155.234 123.879 156.79 123.036C161.412 120.586 165.816 116.264 168.617 113.175Z" fill="#1F2021"/>
<path d="M165.66 132.679C165.66 132.648 165.66 132.617 165.675 132.601C165.846 130.807 166.017 129.121 166.22 127.514C166.235 127.436 166.235 127.374 166.251 127.296C166.313 126.859 166.36 126.422 166.422 125.985C166.438 125.891 166.453 125.798 166.453 125.704C166.515 125.22 166.578 124.737 166.655 124.269C164.259 126.453 160.26 129.153 156.525 131.321C156.961 133.802 157.241 137.703 157.568 142.244C160.82 141.417 163.419 139.841 165.239 138.452C165.333 136.424 165.488 134.489 165.66 132.679Z" fill="#1F2021"/>
<path d="M164.805 147.784C163.062 148.736 160.759 149.454 158.129 150.094C158.347 152.699 158.611 155.352 158.938 157.942C161.241 157.49 163.248 157.146 164.711 156.897C164.696 153.667 164.742 150.624 164.805 147.784Z" fill="#1F2021"/>
<path d="M112.598 204.02C120.036 203.38 131.52 193.877 143.004 190.757C149.695 188.931 159.359 188.385 166.283 188.26C165.972 182.861 165.661 178.04 165.427 174.061C159.732 174.607 151.563 175.98 143.113 179.335C127.583 185.514 119.18 196.109 113.936 197.419C109.408 198.559 102.39 193.534 99.6049 189.883C99.3093 192.426 99.107 195.095 98.998 197.919C102.266 200.462 108.117 204.41 112.598 204.02Z" fill="#323335"/>
<path d="M123.585 223.322C142.553 218.999 161.102 206.033 167.031 201.601C166.828 197.684 166.626 193.924 166.424 190.397C160.106 195.079 134.462 213.616 122.075 215.317C109.658 217.002 103.153 212.461 99.1387 209.262C99.2632 211.619 99.4499 214.053 99.7144 216.596C104.383 220.107 113.626 225.6 123.585 223.322Z" fill="#323335"/>
<path d="M132.749 247.321C147.407 245.058 162.065 232.435 168.087 226.693C167.932 222.121 167.761 217.564 167.574 213.102C160.976 220.061 142.007 237.802 130.15 238.661C120.176 239.378 108.552 237.209 102.592 234.323C103.323 237.428 104.195 240.424 105.159 243.295C110.217 245.511 120.876 249.162 132.749 247.321Z" fill="#323335"/>
<path d="M167.107 213.601C162.719 218.173 153.803 226.599 144.902 232.419C143.657 236.663 142.988 240.751 142.428 244.481C153.196 239.924 162.875 231.639 167.699 227.082C167.527 222.557 167.325 218.032 167.107 213.601Z" fill="#1F2021"/>
<path d="M136.577 272.755C145.058 270.742 162.968 257.323 168.524 253.047C168.539 247.305 168.461 241.297 168.321 235.228C160.572 244.091 138.849 265.624 132.749 266.856C125.809 268.261 121.763 267.371 115.523 264.188C117.562 267.153 119.772 269.899 122.121 272.443C125.856 273.363 131.131 274.05 136.577 272.755Z" fill="#1F2021"/>
<path d="M143.206 281.056C140.094 282.398 137.184 282.897 133.963 282.757C137.028 284.894 140.249 286.783 143.579 288.421C153.663 286.954 163.248 277.951 167.994 272.802C168.29 268.136 168.446 262.971 168.508 257.51C163.388 264.001 149.477 278.325 143.206 281.056Z" fill="#1F2021"/>
<path d="M163.67 295.349L163.499 295.318C147.984 292.369 134.166 285.113 123.554 274.346C111.774 262.394 104.165 246.65 100.944 227.566C94.3929 188.744 103.231 169.723 110.343 154.431L111.074 152.855C111.572 151.778 112.07 150.717 112.552 149.656C119.01 135.8 124.597 123.847 121.687 111.911L121.671 111.864V111.817C121.687 111.692 123.398 98.4601 127.958 84.3698C132.175 71.325 139.784 54.8318 152.046 50.3535L152.155 50.3066L152.264 50.3535C164.059 56.2985 171.761 70.9973 172.368 88.7389C172.633 96.3691 171.419 101.815 169.879 108.712C167.467 119.556 164.448 133.054 165.07 162.904C165.101 164.293 165.35 168.209 165.677 173.639C167.56 203.801 172.571 283.912 163.763 295.209L163.67 295.349ZM122.231 111.848C125.157 123.957 119.539 135.987 113.05 149.906C112.552 150.951 112.07 152.028 111.572 153.105L110.841 154.681C103.761 169.894 94.9531 188.837 101.489 227.488C107.635 263.861 130.198 288.374 163.436 294.772C171.964 283.163 167 203.692 165.132 173.717C164.775 168.084 164.541 164.371 164.526 162.966C163.903 133.054 167.062 118.948 169.349 108.634C170.874 101.784 172.088 96.3691 171.824 88.8013C171.232 71.3094 163.685 56.829 152.139 50.9464C129.42 59.3569 122.48 109.96 122.231 111.848Z" fill="#666666"/>
<path d="M200.455 262.066C202.742 274.939 211.098 277.217 218.817 277.779C226.535 278.325 232.261 275.985 235.638 280.744C239.777 279.433 239.699 276.453 239.637 276.25C239.575 276.047 239.295 272.38 231.779 271.834C226.488 271.444 221.96 270.055 219.61 269.213C216.747 268.183 210.694 264.719 206.492 250.067C196.144 236.46 200.455 262.066 200.455 262.066Z" fill="white"/>
<path d="M236.602 277.685C233.225 272.911 227.499 275.267 219.78 274.721C212.062 274.175 203.706 271.881 201.419 259.008C201.419 259.008 200.127 251.331 200.656 246.618C198.306 249.38 200.454 262.082 200.454 262.082C202.741 274.955 211.097 277.233 218.816 277.795C226.534 278.341 232.26 276 235.637 280.759C237.1 281.071 236.602 277.685 236.602 277.685Z" fill="#DDDDDD"/>
<path d="M231.78 271.834C230.41 271.741 229.088 271.569 227.843 271.351C226.769 273.551 226.349 275.985 226.178 277.717C227.423 277.67 228.574 277.639 229.648 277.717C229.912 275.829 230.597 273.847 232.075 271.85C231.966 271.85 231.873 271.85 231.78 271.834Z" fill="#323335"/>
<path d="M222.831 270.243C221.524 269.884 220.435 269.51 219.61 269.213C219.252 269.088 218.832 268.917 218.381 268.683C217.649 271.881 218.209 275.548 218.707 277.764C218.739 277.764 218.785 277.764 218.816 277.78C220.092 277.873 221.306 277.889 222.458 277.858C222.302 275.736 222.364 272.521 222.831 270.243Z" fill="#323335"/>
<path d="M216.39 267.45C215.347 266.669 214.196 265.593 213.029 264.095C208.983 266.139 206.789 269.572 205.777 273.083C207.193 274.424 208.812 275.376 210.508 276.078C211.628 273.988 214.134 269.603 216.39 267.45Z" fill="#323335"/>
<path d="M206.709 273.878C206.585 273.785 206.46 273.676 206.336 273.582C206.445 273.691 206.585 273.785 206.709 273.878Z" fill="#DDDDDD"/>
<path d="M207.301 274.331C207.161 274.237 207.037 274.143 206.896 274.034C207.037 274.143 207.177 274.237 207.301 274.331Z" fill="#DDDDDD"/>
<path d="M207.924 274.753C207.784 274.659 207.628 274.565 207.488 274.456C207.628 274.565 207.768 274.659 207.924 274.753Z" fill="#DDDDDD"/>
<path d="M209.199 275.486C209.028 275.392 208.857 275.299 208.67 275.205C208.841 275.299 209.028 275.392 209.199 275.486Z" fill="#DDDDDD"/>
<path d="M209.853 275.797C209.666 275.704 209.48 275.626 209.293 275.532C209.464 275.61 209.651 275.704 209.853 275.797Z" fill="#DDDDDD"/>
<path d="M208.562 275.127C208.407 275.033 208.236 274.939 208.08 274.846C208.236 274.939 208.391 275.033 208.562 275.127Z" fill="#DDDDDD"/>
<path d="M210.507 276.079C210.305 276.001 210.103 275.907 209.9 275.813C210.087 275.907 210.289 275.985 210.507 276.079Z" fill="#DDDDDD"/>
<path d="M226.162 277.716C227.407 277.67 228.558 277.638 229.632 277.716C228.558 277.654 227.407 277.67 226.162 277.716Z" fill="#323335"/>
<path d="M226.676 274.674C226.411 275.782 226.255 276.843 226.162 277.732C227.407 277.686 228.558 277.654 229.632 277.732C229.772 276.734 230.037 275.704 230.472 274.658C229.305 274.565 228.029 274.612 226.676 274.674Z" fill="#1F2021"/>
<path d="M218.707 277.764C218.738 277.764 218.785 277.764 218.816 277.779C218.785 277.779 218.738 277.779 218.707 277.764Z" fill="#323335"/>
<path d="M222.395 274.799C221.554 274.799 220.683 274.767 219.78 274.705C219.251 274.674 218.707 274.611 218.162 274.564C218.287 275.782 218.504 276.889 218.691 277.763C218.722 277.763 218.769 277.763 218.8 277.779C219.423 277.826 220.029 277.841 220.621 277.857C220.652 277.857 220.683 277.857 220.714 277.857C221.305 277.872 221.881 277.872 222.457 277.857C222.395 276.983 222.379 275.906 222.395 274.799Z" fill="#1F2021"/>
<path d="M209.277 275.517C209.246 275.501 209.215 275.485 209.199 275.47C209.23 275.485 209.246 275.501 209.277 275.517Z" fill="#323335"/>
<path d="M209.885 275.814C209.869 275.814 209.854 275.798 209.838 275.798C209.854 275.798 209.869 275.798 209.885 275.814Z" fill="#323335"/>
<path d="M208.671 275.205C208.625 275.189 208.594 275.158 208.547 275.143C208.594 275.158 208.64 275.174 208.671 275.205Z" fill="#323335"/>
<path d="M206.898 274.034C206.835 273.987 206.773 273.925 206.695 273.878C206.773 273.94 206.835 273.987 206.898 274.034Z" fill="#323335"/>
<path d="M207.488 274.456C207.425 274.409 207.363 274.378 207.316 274.331C207.363 274.378 207.425 274.425 207.488 274.456Z" fill="#323335"/>
<path d="M208.079 274.846C208.033 274.814 207.971 274.783 207.924 274.752C207.971 274.783 208.017 274.814 208.079 274.846Z" fill="#323335"/>
<path d="M206.912 270.181C206.429 271.132 206.04 272.1 205.76 273.083C205.682 273.333 207.503 274.487 207.721 274.628C208.608 275.205 209.542 275.595 210.491 276.079C210.88 275.346 211.44 274.347 212.109 273.255C210.242 272.568 208.483 271.601 206.912 270.181Z" fill="#1F2021"/>
<path d="M235.529 281.072L235.42 280.9C233.132 277.686 229.818 277.826 225.212 278.029C223.298 278.107 221.119 278.216 218.801 278.045C210.896 277.483 202.493 275.142 200.19 262.113C199.941 260.615 197.809 247.368 201.108 245.932C202.415 245.355 204.251 246.665 206.71 249.895L206.757 249.989C209.744 260.397 214.226 266.95 219.703 268.948C221.928 269.759 226.441 271.164 231.794 271.554C238.376 272.037 239.637 274.908 239.886 276.126C239.948 276.344 239.963 277.187 239.481 278.154C239.03 279.059 238.003 280.276 235.715 281.01L235.529 281.072ZM228.153 277.405C231.296 277.405 233.848 277.889 235.746 280.432C239.59 279.121 239.372 276.36 239.372 276.344C239.372 276.344 239.356 276.313 239.356 276.25C239.139 275.158 237.972 272.568 231.763 272.115C226.348 271.71 221.773 270.29 219.516 269.478C213.868 267.434 209.277 260.756 206.243 250.208C203.458 246.556 202.042 246.151 201.326 246.447C198.867 247.508 200.065 258.056 200.734 262.035C202.975 274.69 211.145 276.968 218.847 277.514C221.135 277.686 223.298 277.577 225.196 277.499C226.223 277.436 227.219 277.405 228.153 277.405Z" fill="#666666"/>
<path d="M234.269 279.278C235.063 276.875 237.226 275.252 239 274.753C240.774 274.253 254.063 280.214 260.583 292.416C269.266 308.675 262.232 332.768 269.95 343.69C265.407 342.723 261.267 335.67 261.267 335.67C261.267 335.67 262.652 343.55 269.95 352.803C277.248 362.056 281.808 364.553 287.036 365.66C275.459 370.217 259.198 362.212 251.48 352.803C251.199 355.019 252.444 356.954 252.444 356.954C252.444 356.954 241.147 347.466 237.833 332.237C234.518 317.008 237.911 302.902 237.413 295.038C236.868 286.346 234.02 280.011 234.269 279.278Z" fill="#323335"/>
<path d="M244.258 279.854C249.751 282.882 257.64 289.576 260.037 303.338C261.608 312.295 260.643 316.508 263.18 328.351C258.185 318.178 259.383 311.171 257.453 303.525C255.29 294.881 252.256 286.205 244.258 279.854Z" fill="#4A4C51"/>
<path d="M244.258 294.304C248.475 307.568 242.764 319.926 247.728 335.686C247.308 329.054 246.748 320.925 247.915 314.231C248.397 321.112 250.062 328.087 251.369 332.237C250.824 320.082 256.815 304.946 246.888 287.673C251.696 300.203 251.291 313.591 250.607 316.634C249.875 307.256 246.872 297.675 244.258 294.304Z" fill="#4A4C51"/>
<path d="M237.428 295.053C237.926 302.918 234.534 317.023 237.848 332.253C241.163 347.482 252.46 356.969 252.46 356.969C252.46 356.969 251.215 355.034 251.495 352.819C259.213 362.212 275.474 370.232 287.052 365.676C281.808 364.568 277.264 362.087 269.966 352.819C262.668 343.565 261.283 335.686 261.283 335.686C261.283 335.686 265.282 342.504 269.748 343.644C264.395 338.245 263.135 332.346 260.318 329.787C258.7 337.808 258.902 343.784 265.515 351.992C262.03 347.747 257.797 345.36 252.74 334.219C251.184 341.319 254.125 348.777 258.715 354.067C254.67 350.228 246.765 346.561 242.906 336.247C239.047 325.933 241.365 310.329 241.785 299.204C242.159 289.139 238.58 280.432 235.903 276.672C235.203 277.39 234.627 278.263 234.285 279.278C234.02 280.011 236.868 286.346 237.428 295.053Z" fill="#1F2021"/>
<path d="M279.675 367.268C269.654 367.268 258.263 361.166 251.712 353.536C251.728 355.331 252.662 356.813 252.677 356.829L253.642 358.342L252.257 357.188C252.148 357.094 240.851 347.451 237.552 332.315C235.342 322.126 236.105 312.514 236.727 304.774C237.039 300.967 237.303 297.675 237.132 295.069C236.758 289.202 235.311 284.333 234.533 281.712C234.051 280.073 233.88 279.496 233.989 279.2C234.829 276.656 237.07 275.018 238.906 274.503C240.773 273.988 254.171 279.855 260.8 292.307C265.281 300.702 265.593 310.922 265.904 320.799C266.184 329.803 266.448 338.307 270.152 343.55L270.557 344.127L269.872 343.987C266.48 343.269 263.383 339.368 261.905 337.23C262.698 339.976 264.877 345.984 270.136 352.662C277.403 361.869 281.854 364.318 287.067 365.411L287.969 365.598L287.113 365.941C284.826 366.846 282.305 367.268 279.675 367.268ZM251.292 352.147L251.697 352.647C259.477 362.118 274.929 369.437 286.071 365.738C281.107 364.506 276.688 361.806 269.747 352.99C262.48 343.784 261.018 335.81 261.002 335.732L260.738 334.234L261.516 335.545C261.547 335.607 265.219 341.787 269.312 343.238C265.904 337.823 265.655 329.553 265.375 320.815C265.079 311 264.752 300.858 260.333 292.572C253.953 280.62 240.773 274.581 239.061 275.049C237.428 275.501 235.296 277.062 234.518 279.387C234.471 279.59 234.767 280.557 235.062 281.571C235.84 284.208 237.303 289.124 237.677 295.053C237.848 297.69 237.583 300.998 237.272 304.837C236.649 312.529 235.887 322.095 238.081 332.206C240.742 344.455 248.725 353.068 251.572 355.814C251.292 355.019 251.043 353.958 251.183 352.787L251.292 352.147Z" fill="black"/>
<path d="M251.277 353.006C250.499 352.132 249.643 350.79 248.927 349.573C248.056 348.075 247.838 346.405 247.838 346.405C247.853 346.452 250.016 350.743 251.697 352.631L251.277 353.006Z" fill="black"/>
<path d="M285.526 366.035C274.975 366.035 260.971 355.284 254.84 342.973C253.579 340.367 253.393 337.964 253.393 337.964C257.936 352.569 275.209 366.659 287.004 365.411L287.066 365.957C286.568 366.004 286.055 366.035 285.526 366.035Z" fill="black"/>
<path d="M155.034 221.043C149.805 230.374 144.11 253.718 150.365 275.033C156.621 296.347 177.052 305.554 184.226 309.845C191.399 314.136 195.118 316.991 194.838 321.454C194.543 326.307 186.84 344.672 181.051 350.477C175.263 356.282 157.072 371.761 158.862 376.879C160.651 381.997 190.154 379.5 192.348 375.225C194.543 370.949 189.174 366.237 189.174 366.237C189.174 366.237 193.469 366.44 194.932 364.099C196.394 361.759 195.787 352.974 197.297 350.352C198.806 347.731 213.729 324.809 212.873 317.038C211.722 306.584 199.693 299.577 201.576 286.08C202.961 276.203 213.978 255.809 205.015 238.535C196.052 221.262 173.909 208.045 172.368 199.729C167.685 202.6 155.034 221.043 155.034 221.043Z" fill="white"/>
<path d="M189.188 366.221C189.188 366.221 193.483 366.424 194.946 364.084C196.424 361.727 195.801 352.958 197.311 350.337C198.82 347.715 213.743 324.793 212.887 317.022C211.736 306.568 199.707 299.562 201.59 286.064C202.975 276.187 213.992 255.793 205.029 238.52C196.066 221.246 173.923 208.03 172.382 199.713C170.593 200.805 167.652 204.16 164.695 207.889C173.876 218.594 189.982 231.217 195.568 242.374C202.555 256.355 191.896 282.647 195.568 292.993C199.24 303.338 204.796 303.9 205.776 315.696C206.741 327.493 194.37 341.349 193.172 348.527C191.989 355.72 191.709 357.421 188.41 359.496C185.096 361.571 179.758 366.174 180.49 370.778C180.879 373.212 186.963 374.164 192.689 374.367C193.887 370.341 189.188 366.221 189.188 366.221Z" fill="#DDDDDD"/>
<path d="M181.051 350.478C180.288 351.242 179.324 352.163 178.203 353.224C184.381 353.302 191.85 356.625 195.709 361.463C195.896 360.214 196.005 358.716 196.129 357.218C193.546 354.753 187.929 350.462 181.082 350.462C181.066 350.462 181.066 350.462 181.051 350.478Z" fill="#323335"/>
<path d="M189.702 336.247C188.753 338.291 187.742 340.335 186.684 342.254C191.772 341.49 197.421 342.41 200.611 344.923C201.762 343.019 203.1 340.772 204.454 338.353C202.104 337.043 196.409 334.562 189.702 336.247Z" fill="#323335"/>
<path d="M193.779 325.98C193.265 327.587 192.596 329.444 191.803 331.41C196.627 330.052 204.345 330.037 207.768 332.252C208.235 331.332 208.686 330.411 209.122 329.49C207.255 327.509 202.197 323.421 193.779 325.98Z" fill="#323335"/>
<path d="M208.795 306.974C204.376 306.771 196.44 307.692 192.814 316.118C193.592 316.992 194.137 317.897 194.479 318.849C198.152 315.993 203.691 311.765 212.919 317.632C212.919 317.429 212.919 317.226 212.888 317.039C212.499 313.403 210.787 310.189 208.795 306.974Z" fill="#323335"/>
<path d="M188.425 299.609C195.241 296.8 201.886 299.421 205.247 301.247C203.504 298.251 202.026 295.052 201.559 291.354C191.118 288.561 178.404 296.332 175.09 304.539C176.226 305.242 177.315 305.897 178.342 306.49C179.743 304.696 182.652 301.996 188.425 299.609Z" fill="#323335"/>
<path d="M193.188 282.803C196.518 283.771 199.631 284.535 201.778 285.035C202.525 281.04 204.517 275.625 206.135 269.509C199.802 272.817 185.828 272.083 177.301 275.048C170.392 277.451 162.549 282.46 158.814 290.808C159.437 291.573 160.075 292.306 160.728 293.008C162.985 291.12 169.069 286.158 172.617 284.379C177.005 282.148 183.727 280.041 193.188 282.803Z" fill="#323335"/>
<path d="M152.48 276.624C162.502 265.483 178.203 256.995 187.586 255.622C195.148 254.498 203.613 257.79 207.908 261.223C208.826 255.278 208.873 249.037 206.912 243.014C201.139 246.509 196.907 247.258 188.333 248.803C178.56 250.55 160.93 255.809 152.48 276.624Z" fill="#323335"/>
<path d="M164.804 240.596C176.241 231.873 188.97 231.499 202.742 234.604C200.081 230.5 196.782 226.63 193.327 223.041C178.311 221.465 161.443 231.296 154.036 244.871C152.869 237.194 154.487 227.192 156.417 219.047C155.561 220.264 155.032 221.029 155.032 221.029C150.488 229.143 145.587 247.852 148.497 266.623C149.99 258.368 154.721 248.304 164.804 240.596Z" fill="#323335"/>
<path d="M190.902 357.234C192.77 358.435 194.435 359.855 195.695 361.447C195.882 360.199 195.991 358.701 196.115 357.203C195.166 356.298 193.812 355.143 192.147 354.051C191.82 355.424 191.463 356.423 190.902 357.234Z" fill="#1F2021"/>
<path d="M198.962 336.246C197.702 338.509 196.488 340.646 195.477 342.612C197.484 343.096 199.273 343.876 200.627 344.937C200.658 344.906 200.674 344.859 200.705 344.813C201.981 342.69 203.241 340.553 204.455 338.399C204.455 338.384 204.471 338.368 204.471 338.368C203.335 337.713 201.405 336.823 198.962 336.246Z" fill="#1F2021"/>
<path d="M208.454 330.864C208.687 330.411 208.905 329.943 209.123 329.49C208.189 328.507 206.477 326.978 203.925 326.026C203.35 327.556 202.665 329.085 201.934 330.583C204.268 330.801 206.368 331.332 207.753 332.237C208.002 331.784 208.22 331.332 208.454 330.864Z" fill="#1F2021"/>
<path d="M212.888 317.022C212.686 315.181 212.141 313.371 211.394 311.686C211.021 310.827 210.601 310 210.134 309.205C209.978 308.939 209.029 306.989 208.796 306.989C207.38 306.926 205.606 306.973 203.738 307.348C204.641 309.283 205.341 311.608 205.683 314.791C207.815 315.056 210.196 315.899 212.919 317.631C212.919 317.412 212.919 317.209 212.888 317.022Z" fill="#1F2021"/>
<path d="M201.561 291.369C199.445 290.808 197.251 290.683 195.041 290.901C195.166 291.666 195.337 292.368 195.57 293.008C196.395 295.333 197.313 297.158 198.262 298.734C201.141 299.28 203.599 300.373 205.249 301.262C203.506 298.251 202.028 295.052 201.561 291.369Z" fill="#1F2021"/>
<path d="M201.95 284.223C202.665 281.477 205.264 272.552 205.544 271.6C205.638 271.272 205.949 269.587 206.12 269.493C203.724 270.741 200.254 271.412 196.394 271.927C195.803 275.953 195.227 279.839 194.947 283.303C197.593 284.036 200.005 284.629 201.763 285.019C201.747 285.019 201.825 284.723 201.95 284.223Z" fill="#1F2021"/>
<path d="M208.251 257.915C208.298 257.603 208.345 257.354 208.36 257.229C208.485 255.715 208.547 254.202 208.5 252.688C208.407 249.427 207.909 246.119 206.897 242.998C203.521 245.042 200.673 246.134 197.188 247.024C197.857 249.911 198.059 253.094 197.997 256.433C201.996 257.525 205.575 259.351 207.909 261.223C207.691 261.067 208.065 259.054 208.251 257.915Z" fill="#1F2021"/>
<path d="M202.743 234.619C201.078 232.06 199.18 229.594 197.141 227.222C197.126 227.207 197.126 227.191 197.11 227.176C196.721 226.723 196.317 226.271 195.912 225.818C195.896 225.787 195.865 225.771 195.85 225.74C195.461 225.303 195.056 224.866 194.652 224.429C194.636 224.398 194.605 224.383 194.589 224.351C194.185 223.914 193.765 223.478 193.344 223.041C189.205 222.604 184.91 223.041 180.725 224.18C183.619 227.066 186.42 229.953 188.894 232.824C193.376 232.887 197.997 233.542 202.743 234.619Z" fill="#1F2021"/>
<path d="M170.703 380C169.38 380 168.088 379.953 166.89 379.875C163.498 379.641 159.312 378.939 158.612 376.957C157.102 372.65 168.742 361.712 176.46 354.488C178.234 352.818 179.775 351.382 180.864 350.275C186.652 344.47 194.293 325.979 194.573 321.423C194.837 317.226 191.554 314.526 184.1 310.064C183.307 309.595 182.373 309.065 181.268 308.456C172.336 303.463 155.702 294.163 150.116 275.095C144.031 254.358 149.198 230.921 154.815 220.903L154.831 220.888C155.344 220.139 167.559 202.35 172.274 199.479L172.617 199.276L172.694 199.666C173.395 203.474 178.732 208.529 184.894 214.365C191.865 220.966 200.533 229.189 205.31 238.395C212.048 251.393 207.566 266.108 204.298 276.843C203.194 280.479 202.229 283.615 201.887 286.096C200.813 293.82 204.345 299.391 207.768 304.774C210.305 308.753 212.701 312.529 213.184 316.992C213.946 323.92 202.431 342.582 198.65 348.714C198.136 349.541 197.763 350.15 197.576 350.462C196.845 351.726 196.627 354.597 196.409 357.359C196.191 360.261 195.973 362.992 195.211 364.224C194.028 366.112 191.227 366.44 189.905 366.487C191.227 367.813 194.511 371.667 192.628 375.319C191.212 378.049 179.946 380 170.703 380ZM155.266 221.2C149.711 231.139 144.592 254.389 150.614 274.955C156.138 293.804 172.648 303.026 181.517 307.988C182.607 308.597 183.556 309.127 184.349 309.611C192.005 314.183 195.367 316.992 195.102 321.47C194.806 326.198 187.228 344.657 181.237 350.665C180.132 351.773 178.592 353.208 176.818 354.878C169.676 361.572 157.725 372.791 159.11 376.77C159.577 378.096 162.346 379.001 166.906 379.329C176.087 379.969 190.652 377.878 192.099 375.085C194.184 371.043 189.049 366.487 188.987 366.44L188.395 365.925L189.189 365.956C189.236 365.956 193.344 366.128 194.713 363.944C195.413 362.836 195.631 360.043 195.833 357.328C196.051 354.503 196.285 351.57 197.078 350.197C197.265 349.885 197.638 349.276 198.152 348.433C201.918 342.348 213.355 323.811 212.608 317.054C212.126 312.716 209.776 309.018 207.271 305.086C203.8 299.609 200.19 293.96 201.311 286.034C201.669 283.506 202.618 280.354 203.738 276.703C206.975 266.045 211.425 251.471 204.781 238.66C200.05 229.532 191.772 221.699 184.474 214.771C178.203 208.826 173.192 204.082 172.196 200.166C167.419 203.552 155.624 220.685 155.266 221.2Z" fill="#666666"/>
<path d="M158.86 376.864C160.65 381.982 190.153 379.485 192.347 375.21C194.541 370.934 189.173 366.222 189.173 366.222C189.173 366.222 189.282 366.222 189.453 366.222C184.162 363.023 175.915 360.245 171.247 359.777C164.602 366.253 157.724 373.634 158.86 376.864Z" fill="#323335"/>
<path d="M174.141 360.261C173.083 360.027 172.118 359.871 171.262 359.777C164.711 366.128 157.973 373.368 158.813 376.692C161.646 371.075 170.079 363.039 174.141 360.261Z" fill="#626468"/>
<path d="M192.362 375.209C194.571 370.918 189.187 366.222 189.187 366.222C189.187 366.222 189.296 366.222 189.467 366.222C188.222 365.473 186.806 364.739 185.313 364.053C186.697 367.735 186.293 370.325 185.188 372.151C183.352 375.163 168.865 378.065 158.797 376.567C158.812 376.661 158.844 376.754 158.875 376.848C160.649 381.982 190.152 379.501 192.362 375.209Z" fill="#1F2021"/>
<path d="M170.702 380C169.379 380 168.087 379.953 166.889 379.875C163.497 379.641 159.311 378.938 158.611 376.957C157.662 374.226 161.505 368.874 171.075 359.59L171.168 359.496L171.293 359.512C176.319 360.011 184.535 362.929 189.608 365.987L190.448 366.502H189.873C191.195 367.844 194.479 371.683 192.596 375.334C191.211 378.049 179.945 380 170.702 380ZM171.371 360.073C167.916 363.428 157.879 373.196 159.14 376.77C159.607 378.096 162.377 379.001 166.936 379.329C176.117 379.968 190.682 377.877 192.129 375.084C194.214 371.043 189.079 366.487 189.017 366.44L188.488 365.987C183.119 362.945 175.525 360.526 171.371 360.073Z" fill="black"/>
<path d="M146.037 171.705C142.302 188.791 157.443 206.142 159.373 210.106C153.646 211.214 148.184 213.554 143.843 214.413C135.751 216.004 128.593 217.565 124.828 221.075C121.062 224.571 113.795 239.878 113.717 243.919C113.624 247.976 130.352 254.795 131.628 249.911C132.919 245.027 130.803 240.877 132.001 236.648C133.199 232.404 135.082 229.189 137.696 228.628C145.881 226.88 160.555 229.143 169.207 227.239C177.205 225.491 180.411 218.485 180.411 215.442C180.411 212.4 176.739 205.035 174.436 197.389C172.568 191.194 172.926 169.536 158.128 162.904L146.037 171.705Z" fill="white"/>
<path d="M131.986 236.648C133.185 232.404 135.067 229.189 137.682 228.628C145.867 226.88 160.541 229.143 169.192 227.239C177.191 225.491 180.396 218.485 180.396 215.442C180.396 212.4 176.724 205.035 174.421 197.389C172.554 191.194 172.911 169.536 158.113 162.904L157.926 163.045C163.871 168.974 166.594 177.4 168.072 184.079C169.613 191.007 173.798 203.958 174.078 208.062C174.405 212.915 178.436 216.113 172.694 220.841C166.952 225.569 156.37 224.43 149.197 223.868C142.023 223.307 133.76 222.48 130.726 227.535C127.692 232.591 123.288 243.701 130.181 249.74C130.539 250.052 130.913 250.317 131.271 250.567C131.411 250.379 131.535 250.161 131.597 249.911C132.904 245.027 130.788 240.877 131.986 236.648Z" fill="#DDDDDD"/>
<path d="M147.982 221.185C147.826 218.267 145.601 215.583 144.341 214.304C144.17 214.335 144.014 214.382 143.843 214.413C142.318 214.709 140.824 215.006 139.377 215.318C140.871 216.722 141.68 219.063 142.038 222.074C142.302 224.353 141.042 226.724 140.031 228.238C141.929 228.019 144.045 227.926 146.286 227.91C147.048 226.397 148.107 223.806 147.982 221.185Z" fill="#323335"/>
<path d="M161.443 219.156C161.147 217.19 155.919 213.07 153.849 211.51C152.013 212.056 150.255 212.633 148.574 213.148C152.107 214.958 155.25 218.375 155.483 219.53C155.686 220.466 152.791 225.241 151.095 227.956C153.025 227.987 155.001 228.034 156.93 228.05C158.611 225.662 161.723 220.95 161.443 219.156Z" fill="#323335"/>
<path d="M175.884 214.273C174.702 210.965 171.169 207.875 159.234 209.857C159.281 209.935 159.327 210.028 159.359 210.106C158.658 210.247 157.958 210.403 157.258 210.574C157.289 210.668 157.429 210.73 157.429 210.73C161.568 211.355 169.8 212.556 170.827 215.115C171.574 216.972 169.053 223.885 167.621 227.536C168.15 227.458 168.679 227.364 169.177 227.255C170.951 226.865 172.476 226.209 173.783 225.414C174.795 222.215 176.522 216.051 175.884 214.273Z" fill="#323335"/>
<path d="M177.814 206.907C176.896 204.519 175.884 201.882 174.997 199.167C172.181 197.778 167.217 195.532 165.381 196.015C163.062 196.624 158.16 203.552 156.775 206.127C157.18 206.719 157.553 207.266 157.896 207.749C160.572 205.409 166.408 200.041 167.45 199.838C168.462 199.635 175.246 204.504 177.814 206.907Z" fill="#323335"/>
<path d="M160.572 189.555C161.802 189.15 170.345 191.896 173.83 194.439C173.504 192.442 173.161 189.914 172.679 187.168C169.878 186.279 162.658 184.125 160.308 184.859C158.129 185.545 153.134 192.598 150.676 196.203C151.22 197.233 151.781 198.231 152.341 199.183C154.784 195.657 159.421 189.946 160.572 189.555Z" fill="#323335"/>
<path d="M157.272 177.213C159.715 176.729 167.667 178.305 170.95 179.647C170.281 177.4 169.456 175.169 168.398 173.062C164.601 171.689 157.552 169.551 154.269 171.314C151.063 173.046 148.029 181.129 146.473 185.904C146.924 187.542 147.484 189.15 148.107 190.71C150.83 185.093 154.782 177.696 157.272 177.213Z" fill="#323335"/>
<path d="M142.023 223.432C141.805 225.257 140.84 227.036 140.016 228.238C140.467 228.191 140.949 228.144 141.416 228.097C141.447 228.097 141.494 228.097 141.525 228.082C143.003 227.957 144.591 227.91 146.256 227.894C146.769 226.88 147.407 225.382 147.749 223.728C145.851 223.603 143.906 223.463 142.023 223.432Z" fill="#1F2021"/>
<path d="M153.383 224.181C152.605 225.523 151.765 226.896 151.111 227.941C151.765 227.957 152.434 227.972 153.088 227.972C154.379 228.004 155.655 228.019 156.947 228.035C157.616 227.083 158.518 225.757 159.343 224.384C157.305 224.415 155.282 224.321 153.383 224.181Z" fill="#1F2021"/>
<path d="M175.883 214.272C175.743 213.882 175.571 213.476 175.354 213.102C176.085 215.598 176.256 217.923 172.724 220.841C171.743 221.652 170.623 222.277 169.409 222.776C168.896 224.305 168.071 225.897 167.775 227.457C169.347 227.441 171.074 226.786 172.506 226.146C172.942 225.959 173.377 225.741 173.704 225.397C174.793 224.274 175.073 221.122 175.4 219.624C175.727 218.079 176.443 215.848 175.883 214.272Z" fill="#1F2021"/>
<path d="M177.19 205.269C177.159 205.175 177.128 205.082 177.081 204.988C176.615 203.771 176.148 202.507 175.696 201.212C175.696 201.196 175.681 201.181 175.681 201.181C175.447 200.525 175.214 199.854 174.996 199.183C174.078 198.731 172.911 198.169 171.713 197.654C172.258 199.636 172.771 201.524 173.176 203.209C174.981 204.52 176.755 205.94 177.828 206.923C177.61 206.377 177.393 205.831 177.19 205.269Z" fill="#1F2021"/>
<path d="M173.814 194.424C173.799 194.362 173.799 194.284 173.783 194.221C173.752 193.987 173.705 193.737 173.674 193.488C173.674 193.472 173.674 193.441 173.659 193.425C173.379 191.615 173.083 189.478 172.678 187.168C171.714 186.856 170.204 186.404 168.555 185.967C169.037 187.917 169.644 190.164 170.298 192.474C171.651 193.098 172.912 193.769 173.814 194.424Z" fill="#1F2021"/>
<path d="M168.322 173.031C167.108 172.594 165.567 172.079 163.934 171.643C165.007 173.843 165.863 176.121 166.563 178.337C168.275 178.742 169.847 179.195 170.92 179.632C170.251 177.385 169.411 175.138 168.322 173.031Z" fill="#1F2021"/>
<path d="M128.33 251.877C127.832 251.877 127.271 251.831 126.68 251.752C121.078 250.957 113.36 246.868 113.422 243.919C113.516 239.925 120.674 224.539 124.626 220.873C128.376 217.393 135.223 215.832 143.781 214.147C145.773 213.757 148.03 213.039 150.41 212.29C153.149 211.417 155.981 210.527 158.938 209.919C158.533 209.185 157.802 208.124 156.899 206.813C152.791 200.806 144.777 189.119 144.902 176.87C145.073 173.047 146.022 171.72 146.022 171.72C142.988 185.545 152.698 199.698 157.35 206.501C158.44 208.093 159.233 209.248 159.607 209.997L159.762 210.324L159.405 210.387C156.355 210.98 153.414 211.916 150.566 212.805C148.17 213.57 145.898 214.288 143.875 214.678C135.394 216.347 128.625 217.892 124.984 221.278C121.172 224.82 114.045 240.143 113.951 243.935C113.889 246.51 121.514 250.473 126.727 251.206C128.252 251.425 130.882 251.534 131.317 249.833C131.955 247.383 131.737 245.105 131.52 242.905C131.302 240.736 131.099 238.676 131.691 236.554C133.06 231.717 135.098 228.877 137.588 228.347C141.634 227.489 147.096 227.582 152.885 227.691C158.704 227.801 164.711 227.925 169.099 226.958C176.77 225.273 180.085 218.516 180.085 215.442C180.085 213.742 178.84 210.496 177.408 206.751C176.319 203.927 175.105 200.712 174.125 197.467C173.736 196.172 173.44 194.174 173.083 191.865C171.744 182.986 169.519 168.116 157.911 162.904C157.911 162.904 160.478 163.294 162.517 165.104C170.624 171.752 172.46 184.016 173.627 191.771C173.969 194.065 174.265 196.047 174.639 197.295C175.603 200.525 176.833 203.724 177.906 206.533C179.416 210.496 180.614 213.617 180.614 215.427C180.614 218.766 177.268 225.725 169.192 227.489C164.742 228.456 158.704 228.347 152.853 228.238C147.096 228.128 141.65 228.019 137.682 228.877C134.787 229.501 133.107 233.465 132.189 236.695C131.613 238.708 131.815 240.721 132.033 242.827C132.266 245.074 132.5 247.399 131.815 249.958C131.566 251.222 130.321 251.877 128.33 251.877Z" fill="#666666"/>
<path d="M114.917 239.238C114.186 241.25 113.735 242.92 113.704 243.919C113.61 247.976 113.735 263.829 117.749 264.328C122.2 264.875 130.338 254.795 131.63 249.911C132.034 248.366 132.096 246.899 132.034 245.463C129.047 236.179 118.574 236.273 114.917 239.238Z" fill="#323335"/>
<path d="M116.63 238.255C115.96 238.52 115.385 238.863 114.918 239.238C114.186 241.251 113.735 242.92 113.704 243.919C113.626 247.57 113.704 260.787 116.661 263.752C114.684 257.026 114.233 243.591 116.63 238.255Z" fill="#626468"/>
<path d="M131.63 249.911C132.035 248.366 132.097 246.899 132.035 245.464C131.023 242.296 129.125 240.221 126.931 238.973C128.02 241.937 127.942 243.498 126.915 249.162C125.795 255.357 121.951 261.161 118.217 264.329C122.761 264.173 130.385 254.623 131.63 249.911Z" fill="#1F2021"/>
<path d="M118.108 264.625C117.968 264.625 117.843 264.61 117.703 264.594C113.097 264.017 113.377 245.963 113.424 243.903C113.439 242.92 113.859 241.313 114.653 239.144L114.684 239.066L114.746 239.019C116.66 237.459 120.675 236.523 124.659 237.709C127.273 238.489 130.727 240.455 132.299 245.37L132.315 245.448C132.392 247.165 132.252 248.6 131.894 249.973C130.681 254.576 122.916 264.625 118.108 264.625ZM115.151 239.409C114.404 241.469 114 243.03 113.984 243.935C113.797 251.815 114.669 263.673 117.781 264.064C121.967 264.594 130.043 254.81 131.35 249.848C131.692 248.538 131.817 247.165 131.754 245.526C130.245 240.861 126.977 238.988 124.488 238.255C120.737 237.116 116.972 237.974 115.151 239.409Z" fill="black"/>
<path d="M155.873 53.1146C149.26 48.3242 136.049 40.8344 120.037 43.9863C112.428 45.4843 104.616 50.1186 100.648 57.2496C97.8004 62.3833 97.8004 71.9952 86.8612 82.8555C78.7695 97.2266 105.97 124.611 105.97 124.611C105.97 124.611 110.078 119.181 115.151 118.307C125.359 116.544 137.761 121.912 148.42 118.229C159.079 114.547 165.21 100.831 160.386 88.3792L155.873 53.1146Z" fill="white"/>
<path d="M115.166 118.323C125.374 116.56 137.776 121.928 148.435 118.245C159.095 114.563 165.226 100.847 160.402 88.3953L160.386 88.2236C162.534 95.7603 158.363 109.398 151.485 112.066C138.788 116.997 124.892 110.303 115.929 111.973C109.813 113.112 105.674 114.797 102.453 119.946C105.534 123.613 106.001 124.612 106.001 124.612C106.001 124.612 110.093 119.197 115.166 118.323Z" fill="#DDDDDD"/>
<path d="M104.43 92.4678C109.394 95.5885 120.597 102.782 120.784 104.764C120.971 106.745 114.902 113.19 112.148 116.045C120.597 113.002 128.487 109.351 127.771 105.263C126.199 96.3219 104.43 92.4678 104.43 92.4678Z" fill="#323335"/>
<path d="M124.551 96.041C129.141 97.9759 140.361 102.86 140.438 105.528C140.532 108.196 130.791 112.534 125.64 115.483C136.937 115.951 146.834 111.676 146.865 106.73C146.927 98.0695 124.551 96.041 124.551 96.041Z" fill="#323335"/>
<path d="M108.569 56.797C105.208 63.0385 100.571 70.5284 97.9102 73.2903C102.501 70.8092 108.476 61.5874 112.88 56.797C116.817 52.5216 122.621 46.4205 131.848 43.4557C128.192 43.0812 124.27 43.1749 120.178 43.9707C113.487 47.2319 111.526 51.2889 108.569 56.797Z" fill="#323335"/>
<path d="M119.212 56.797C115.073 61.8682 108.179 72.9157 103.869 77.16C110.576 74.5853 120.364 63.1633 122.822 60.1206C125.094 57.2963 136.998 48.2773 145.526 47.1538C143.331 46.1864 140.935 45.3282 138.368 44.6416C130.027 46.9198 122.869 52.3187 119.212 56.797Z" fill="#323335"/>
<path d="M153.09 91.7653C157.229 75.3189 151.3 61.9152 145.512 59.1533C153.775 71.5896 151.16 90.1113 148.126 94.496C149.231 95.2762 152.95 100.207 153.09 105.793C153.214 110.786 150.927 114.188 147.986 118.417C148.142 118.37 148.297 118.323 148.453 118.261C149.713 117.824 150.911 117.246 152.032 116.544C159.75 106.168 158.458 97.0238 153.09 91.7653Z" fill="#323335"/>
<path d="M121.998 111.832C119.804 111.644 117.75 111.629 115.914 111.972C114.529 113.533 113.129 115.015 112.133 116.029C115.743 114.75 119.229 113.345 121.998 111.832Z" fill="#1F2021"/>
<path d="M138.508 113.86C135.722 113.72 132.968 113.361 130.338 112.955C128.642 113.844 126.993 114.703 125.654 115.467C130.385 115.67 134.882 115.03 138.508 113.86Z" fill="#1F2021"/>
<path d="M151.89 111.894C150.956 114.079 149.572 116.123 147.969 118.401C148.124 118.354 148.28 118.307 148.436 118.245C148.762 118.136 149.074 118.011 149.385 117.886C149.634 117.793 149.867 117.683 150.101 117.574C150.163 117.543 150.225 117.512 150.287 117.48C150.552 117.356 150.816 117.215 151.081 117.075C151.112 117.059 151.143 117.044 151.159 117.028C151.392 116.903 151.626 116.763 151.859 116.622C151.906 116.591 151.952 116.56 151.999 116.529C154.971 112.534 156.605 108.711 157.196 105.231C155.905 108.29 154.162 110.818 151.89 111.894Z" fill="#1F2021"/>
<path d="M106.017 125.049L105.799 124.83C104.679 123.707 78.5522 97.1334 86.6439 82.7466L86.6906 82.6842C94.4243 74.9916 96.6806 67.8606 98.3301 62.6489C99.0147 60.4956 99.6061 58.6231 100.431 57.1252C104.103 50.5091 111.603 45.3755 120.006 43.7215C135.194 40.7255 148 47.0607 156.061 52.8965L155.734 53.349C147.767 47.5756 135.116 41.3185 120.115 44.2676C111.868 45.8904 104.508 50.9304 100.913 57.3904C100.104 58.8416 99.5282 60.6828 98.8591 62.805C97.1941 68.0634 94.9222 75.2568 87.1107 83.0275C79.6415 96.4 103.418 121.569 105.97 124.206C106.857 123.114 110.576 118.838 115.12 118.058C119.617 117.278 124.426 117.871 129.498 118.479C135.832 119.244 142.398 120.04 148.343 117.996C153.213 116.31 157.383 112.347 159.795 107.12C162.503 101.253 162.721 94.4339 160.387 88.4108C160.387 88.4108 161.492 89.3471 162.067 92.187C163.094 97.2582 162.487 102.61 160.293 107.354C157.819 112.722 153.524 116.779 148.514 118.511C142.461 120.602 135.832 119.806 129.436 119.026C124.394 118.417 119.633 117.84 115.214 118.604C110.312 119.447 106.251 124.752 106.204 124.799L106.017 125.049Z" fill="#666666"/>
<path d="M83.2987 111.239C80.9023 115.842 73.2775 128.653 78.8016 133.631C84.7614 139.014 93.2576 135.519 97.5524 133.131C107.62 127.514 110.748 115.124 108.585 107.869C105.986 99.271 83.2987 111.239 83.2987 111.239Z" fill="#323335"/>
<path d="M97.5356 133.132C104.911 129.013 108.568 121.257 109.128 114.548C102.717 122.693 97.2555 128.935 88.4325 132.43C84.5423 133.975 80.3098 133.912 77.2754 131.338C77.5866 132.211 78.0846 132.992 78.7848 133.631C84.7602 139.015 93.2564 135.519 97.5356 133.132Z" fill="#1F2021"/>
<path d="M86.4725 136.767C83.7338 136.767 80.9795 135.987 78.5987 133.849C73.4014 129.168 79.4234 117.918 82.3177 112.503C82.5978 111.989 82.8468 111.52 83.0491 111.13L83.0958 111.052L83.1736 111.005C83.8427 110.647 99.8237 102.299 106.344 105.029C107.62 105.56 108.444 106.48 108.833 107.775C110.919 114.735 108.195 127.483 97.6763 133.366C94.922 134.895 90.7206 136.767 86.4725 136.767ZM83.5004 111.458C83.2981 111.848 83.0647 112.285 82.8157 112.769C79.9836 118.058 74.1172 129.044 78.9877 133.444C84.7919 138.687 93.0236 135.347 97.4118 132.898C107.682 127.155 110.343 114.719 108.304 107.947C107.962 106.808 107.246 106.028 106.126 105.544C100.057 102.985 84.7141 110.818 83.5004 111.458Z" fill="black"/>
<path d="M86.0205 116.701C83.064 121.679 78.3646 129.138 82.7839 131.072C88.2302 133.46 99.9475 116.561 102.079 109.446C98.7026 108.962 97.3955 108.197 97.3955 108.197L86.0205 116.701Z" fill="#8E0202"/>
<path d="M102.08 109.445C100.369 109.196 99.2016 108.883 98.4547 108.634C91.639 112.816 87.3909 118.09 85.3836 122.786C83.5941 126.953 83.2517 129.543 83.9831 131.306C89.7717 131.213 100.089 116.092 102.08 109.445Z" fill="#FFB3B3"/>
<path d="M102.079 109.445C100.368 109.196 99.2006 108.883 98.4537 108.634C97.4267 109.258 96.4619 109.929 95.5438 110.6C95.326 118.402 91.0779 125.658 85.8027 130.854C91.7314 128.31 100.29 115.437 102.079 109.445Z" fill="#E27979"/>
<path d="M83.7956 131.571L83.7178 131.399C82.9242 129.496 83.3754 126.718 85.1183 122.677C87.4524 117.262 92.1362 112.191 98.2983 108.399L98.4072 108.337L98.5317 108.384C99.2008 108.618 100.383 108.93 102.111 109.18L102.422 109.226L102.329 109.538C100.259 116.42 89.8332 131.509 83.9668 131.587L83.7956 131.571ZM98.485 108.945C90.3623 113.97 86.9389 119.837 85.6318 122.895C84.0134 126.671 83.5466 129.262 84.1691 131.009C89.6776 130.604 99.5587 116.31 101.737 109.663C100.508 109.492 99.3876 109.226 98.485 108.945Z" fill="#A52F2F"/>
<path d="M83.9203 131.587C83.4691 131.587 83.0645 131.509 82.6755 131.337C81.7729 130.932 81.1661 130.292 80.886 129.418C79.9212 126.391 82.9711 121.273 85.4297 117.169L85.8499 116.498L97.3649 107.885L97.5205 107.978C97.5361 107.978 98.8432 108.727 102.111 109.195L102.422 109.242L102.329 109.554C100.493 115.655 91.9653 128.341 86.0988 131.056C85.3208 131.4 84.5894 131.587 83.9203 131.587ZM86.2389 116.888L85.9121 117.434C83.6402 121.242 80.5281 126.453 81.415 129.231C81.6484 129.964 82.1308 130.479 82.9089 130.807C83.718 131.15 84.7139 131.056 85.8966 130.51C91.5451 127.889 99.7457 115.78 101.722 109.664C99.17 109.274 97.8628 108.727 97.4271 108.525L86.2389 116.888Z" fill="black"/>
<path d="M108.568 107.854C107.401 104.468 103.605 101.363 101.13 99.4278C98.6562 97.4929 94.4392 94.9339 93.9569 91.2046C93.4745 87.4753 96.0265 81.2493 89.5065 80.0479C87.2657 82.482 85.0561 84.3701 79.8276 87.4753C74.5836 90.5804 66.6632 91.6883 63.1464 96.6035C59.6297 101.503 57.2177 114.844 64.5936 120.212C73.6188 126.766 90.0978 121.694 101.675 108.213L108.568 107.854Z" fill="#323335"/>
<path d="M80.4819 88.6455C85.617 85.4624 88.5735 82.6849 89.5539 80.0478C89.5383 80.0478 89.5228 80.0478 89.5072 80.0322C87.2664 82.4664 85.0568 84.3545 79.8283 87.4596C74.5843 90.5648 66.6639 91.6727 63.1471 96.5879C61.7155 98.5852 60.4707 101.987 59.9883 105.669C60.8441 102.985 62.2135 99.7555 64.3609 97.1964C68.22 92.5933 75.907 91.4854 80.4819 88.6455Z" fill="#626468"/>
<path d="M64.5938 120.196C73.4635 126.64 89.5223 121.834 101.068 108.883C100.664 108.602 99.9947 108.196 98.9211 107.557C96.7737 109.819 84.574 119.119 75.0352 119.4C67.5193 119.618 63.0689 118.838 59.8789 110.896C60.2368 114.578 61.6217 118.042 64.5938 120.196Z" fill="#1F2021"/>
<path d="M74.0854 123.286C70.4442 123.286 67.1142 122.365 64.4377 120.415C56.9374 114.953 59.2248 101.596 62.9283 96.4315C65.2469 93.2015 69.4016 91.5943 73.4319 90.0339C75.5948 89.1913 77.8356 88.3331 79.6873 87.2408C84.9158 84.1356 87.1099 82.2476 89.3039 79.8602L89.4129 79.751L89.5685 79.7822C94.7035 80.734 94.4701 84.6662 94.2523 88.1146C94.19 89.2225 94.1122 90.2836 94.2367 91.173C94.6413 94.2469 97.6912 96.5251 100.134 98.3351C100.539 98.6472 100.943 98.9281 101.286 99.2089C104.382 101.628 107.697 104.53 108.817 107.76L108.304 107.947C107.09 104.421 102.795 101.081 100.959 99.6458C100.601 99.365 100.212 99.0841 99.8075 98.7876C97.2711 96.8996 94.1122 94.559 93.6765 91.2354C93.552 90.2836 93.6143 89.2069 93.6921 88.0678C93.8944 84.713 94.1122 81.2489 89.5996 80.3439C87.4055 82.7157 85.1803 84.6194 79.9674 87.7089C78.0846 88.8324 75.8127 89.7062 73.6342 90.5488C69.6817 92.078 65.5892 93.654 63.3796 96.7591C59.7072 101.893 57.8088 114.922 64.7645 119.978C73.7431 126.5 90.2065 121.132 101.473 108.025L101.893 108.384C93.7699 117.824 82.9551 123.286 74.0854 123.286Z" fill="black"/>
<path d="M76.5147 113.112C73.9005 110.803 75.8923 106.277 79.269 104.343C82.6457 102.408 86.1624 103.999 86.9249 106.137C87.6874 108.275 86.7382 110.506 83.626 112.628C80.9807 114.423 77.9618 114.391 76.5147 113.112Z" fill="#1A1314"/>
<path d="M83.626 112.628C86.7382 110.506 87.6874 108.274 86.9249 106.137C86.816 105.84 86.6448 105.544 86.4425 105.263C86.4114 107.712 85.2599 110.115 82.0699 111.707C79.7825 112.846 77.5573 112.565 75.8145 112.238C76.0012 112.55 76.2346 112.846 76.5302 113.111C77.9618 114.391 80.9807 114.422 83.626 112.628Z" fill="#3A2B25"/>
<path d="M79.377 114.313C78.1165 114.313 77.0273 113.939 76.3426 113.33C75.3623 112.472 74.9266 111.286 75.0666 109.882C75.2845 107.697 76.9184 105.372 79.1436 104.093C80.8553 103.11 82.8004 102.922 84.4965 103.547C85.8036 104.03 86.7995 104.966 87.1885 106.028C87.7798 107.682 87.6553 110.209 83.7807 112.846C82.2713 113.876 80.7152 114.313 79.377 114.313ZM76.7005 112.909C77.9921 114.048 80.8708 114.173 83.4695 112.41C86.3482 110.443 87.4219 108.368 86.675 106.23C86.3482 105.31 85.4613 104.498 84.3098 104.077C82.7692 103.5 80.9797 103.687 79.4237 104.576C77.3852 105.747 75.8291 107.947 75.6268 109.928C75.4868 111.146 75.8602 112.16 76.7005 112.909Z" fill="black"/>
<path d="M73.2913 104.483C73.6959 103.328 74.365 102.267 75.2986 101.378C76.2012 100.504 77.306 99.8487 78.4575 99.4586C80.6671 98.7252 82.052 99.6302 82.052 99.6302C80.1069 99.7707 78.0529 100.457 76.3257 102.111C74.6606 103.703 73.6025 105.388 73.4625 107.807C73.4625 107.807 72.7311 106.402 73.2913 104.483Z" fill="#626468"/>
<path d="M73.2916 104.483C73.6962 103.328 74.3653 102.267 75.299 101.378C76.2015 100.504 77.3063 99.8487 78.4578 99.4586C80.6675 98.7252 82.0524 99.6302 82.0524 99.6302C79.8427 99.3025 77.3997 100.114 75.6724 101.768C74.0074 103.36 73.2138 105.497 73.4472 107.807C73.4628 107.807 72.7314 106.402 73.2916 104.483Z" fill="black"/>
<path d="M96.1035 108.477C98.8578 108.477 102.094 110.038 103.619 113.783L103.153 105.45L96.1035 108.477Z" fill="#323335"/>
<path d="M103.619 113.877C102.11 110.163 98.6711 108.478 96.1035 108.478C96.1035 108.478 97.4884 107.869 99.029 108.525C100.367 109.071 101.69 109.991 102.748 111.302C103.619 112.504 103.619 113.877 103.619 113.877Z" fill="black"/>
<path d="M117.967 86.8194C116.084 79.392 123.055 68.8906 131.084 67.9075C141.012 66.6904 144.731 77.9252 142.786 86.0548C140.312 96.4157 120.768 97.8513 117.967 86.8194Z" fill="#DDDDDD"/>
<path d="M117.967 87.7558C116.084 81.2334 123.055 72.0115 131.084 71.1377C141.012 70.0611 144.731 79.9383 142.786 87.0848C140.312 96.1819 120.768 97.4302 117.967 87.7558Z" fill="black"/>
<path d="M118.293 88.0206C116.457 81.7479 123.257 72.9161 131.068 72.0891C140.732 71.0592 144.357 80.5308 142.459 87.3808C140.047 96.119 121.032 97.3205 118.293 88.0206Z" fill="white"/>
<path d="M132.159 89.1911C127.553 90.6579 120.97 90.5174 118.045 86.6477C118.092 87.1158 118.169 87.5839 118.309 88.0208C121.033 97.3207 140.048 96.1192 142.46 87.3811C142.942 85.6178 143.067 83.6674 142.818 81.7793C140.157 85.3838 136.687 87.7556 132.159 89.1911Z" fill="#EDEDED"/>
<path d="M129.667 94.762C124.953 94.762 119.475 93.0144 118.028 88.1148C117.234 85.3998 117.966 82.0761 120.035 78.9554C122.681 74.992 126.898 72.2613 131.021 71.8244C135.876 71.3095 138.755 73.4004 140.311 75.2573C142.91 78.3312 143.875 83.2464 142.707 87.4751C141.338 92.4371 135.052 94.7308 129.808 94.7777C129.776 94.762 129.73 94.762 129.667 94.762ZM118.557 87.9432C119.926 92.6087 125.482 94.2315 129.808 94.2003C134.865 94.1535 140.887 91.9846 142.178 87.3034C143.299 83.2464 142.381 78.5341 139.891 75.6005C138.413 73.8529 135.69 71.8712 131.084 72.3706C127.1 72.7919 123.054 75.4289 120.487 79.2674C118.526 82.2322 117.81 85.3997 118.557 87.9432Z" fill="black"/>
<path d="M126.883 61.8691C128.501 58.7327 130.524 56.7979 133.372 56.7979C136.219 56.7979 140.81 58.093 143.751 67.2992C136.406 55.7836 126.883 61.8691 126.883 61.8691Z" fill="#323335"/>
<path d="M126.883 61.8691C128.501 58.7328 137.044 53.9892 143.751 67.2992C136.406 55.7836 126.883 61.8691 126.883 61.8691Z" fill="#1F2021"/>
<path d="M144.654 69.2337L143.518 67.4549C136.407 56.3138 127.413 61.8687 127.024 62.1028L126.168 62.6489L126.635 61.7439C128.44 58.233 130.649 56.5322 133.373 56.5322C138.165 56.5322 141.76 60.1367 144.016 67.2208L144.654 69.2337ZM132.828 60.0119C135.816 60.0119 139.472 61.1822 142.818 65.4888C140.64 59.9027 137.465 57.0628 133.373 57.0628C131.054 57.0628 129.187 58.3735 127.568 61.1822C128.595 60.7141 130.509 60.0119 132.828 60.0119Z" fill="black"/>
<path d="M142.771 50.1349C146.242 47.3262 148.498 37.9327 149.26 33.7665C150.381 27.6654 153.742 16.5086 158.628 11.0941C165.708 3.26098 180.491 -0.515145 182.887 0.405481C185.284 1.32611 190.232 19.0208 184.91 32.2841C179.588 45.5474 165.179 45.7658 161.958 51.7421C158.737 57.7339 157.819 59.7624 156.901 60.7611L142.771 50.1349Z" fill="white"/>
<path d="M184.911 32.2846C189.812 20.0824 186 4.13533 183.51 0.952148C184.957 10.1584 184.008 28.4461 178.858 35.0465C173.256 42.2399 163.11 43.7378 159.889 49.9482C157.555 54.4733 158.177 56.0181 157.104 60.5432C157.975 59.4509 158.971 57.3132 161.959 51.7426C165.18 45.7663 179.589 45.5479 184.911 32.2846Z" fill="#DDDDDD"/>
<path d="M156.776 60.933C157.274 60.3868 157.757 59.4038 158.659 57.5937C159.359 56.1738 160.324 54.2389 161.725 51.6175C163.032 49.1989 166.051 47.7165 169.552 46.0001C174.858 43.3943 181.456 40.1643 184.661 32.1907C188.707 22.1262 186.809 8.73816 184.257 2.85552C183.479 1.06108 182.95 0.733395 182.81 0.686584C180.429 -0.234042 165.708 3.71373 158.862 11.2972C153.742 16.9614 150.536 28.5082 149.556 33.8291C148.871 37.5272 147.58 43.285 145.619 47.186C144.11 49.9947 142.803 50.1351 142.803 50.1351C146.195 47.3888 148.28 37.7457 149.027 33.7199C150.023 28.3522 153.26 16.6805 158.472 10.9227C165.615 3.01155 180.491 -0.811383 183.027 0.156054C183.572 0.374507 184.163 1.20151 184.786 2.62146C187.385 8.59772 189.299 22.1887 185.206 32.3936C181.923 40.57 175.216 43.8468 169.832 46.4994C166.409 48.169 163.468 49.6202 162.254 51.8827C160.853 54.5042 159.889 56.4235 159.188 57.8434C159.11 57.9838 159.048 58.1243 158.986 58.2647C157.866 60.4336 156.776 60.933 156.776 60.933Z" fill="#666666"/>
<path d="M159.281 45.3758C161.117 40.3046 161.491 28.9762 164.603 21.9701C167.731 14.964 177.285 8.23871 179.495 6.39746C182.342 15.791 180.351 23.6241 178.032 29.2415C173.986 39.0095 159.281 45.3758 159.281 45.3758Z" fill="#EC918E"/>
<path d="M179.588 6.72514C179.557 6.61591 179.526 6.50669 179.495 6.39746C177.285 8.23871 167.731 14.964 164.603 21.9701C161.475 28.9762 161.117 40.3046 159.281 45.3758C159.281 45.3758 159.359 45.3446 159.499 45.2822C163.965 39.4776 164.977 28.2896 166.999 23.4993C169.691 17.1329 175.122 12.4986 179.588 6.72514Z" fill="#D17171"/>
<path d="M158.799 45.8755L159.017 45.2669C159.779 43.176 160.293 39.9148 160.837 36.4664C161.615 31.5355 162.518 25.9494 164.354 21.8456C167.077 15.7601 174.453 9.98666 178.001 7.20918C178.561 6.77227 178.997 6.42899 179.308 6.17933L179.635 5.91406L179.759 6.31976C182.047 13.8876 181.564 21.4087 178.281 29.351C174.235 39.1034 159.546 45.5634 159.39 45.6258L158.799 45.8755ZM179.355 6.8659C179.075 7.08435 178.748 7.34961 178.359 7.64609C174.842 10.3924 167.528 16.1034 164.868 22.064C163.062 26.1054 162.176 31.6604 161.397 36.5444C160.9 39.6963 160.417 42.7079 159.748 44.83C162.487 43.5349 174.266 37.5742 177.767 29.117C180.942 21.4555 181.471 14.1685 179.355 6.8659Z" fill="#666666"/>
<path d="M153.492 53.0373C153.523 53.0061 157.133 49.979 159.016 45.2666L159.53 45.4694C158.565 47.888 157.196 49.8385 156.044 51.2117C154.877 52.6004 153.492 53.0373 153.492 53.0373Z" fill="#666666"/>
<path d="M134.306 77.4732C130.524 77.4264 127.428 80.5939 127.381 84.5573C127.35 88.5207 130.384 91.7663 134.166 91.8131C137.947 91.8599 141.044 88.6923 141.09 84.7289C141.121 80.7656 138.087 77.52 134.306 77.4732Z" fill="#0092FF"/>
<path d="M127.383 84.6982C127.414 88.5992 130.417 91.7824 134.167 91.8292C137.762 91.876 140.734 89.0049 141.061 85.3224C139.614 86.3679 138.011 87.1949 135.926 87.4913C132.58 87.663 129.343 86.8204 127.383 84.6982Z" fill="#005DCC"/>
<path d="M134.571 80.266C132.066 80.2347 130.012 82.4505 129.981 85.2124C129.95 87.9742 131.973 90.2524 134.478 90.2836C136.983 90.3148 139.037 88.0991 139.068 85.3372C139.084 82.5753 137.077 80.3128 134.571 80.266Z" fill="black"/>
<path d="M132.362 79.7979C131.382 79.7979 130.604 80.5624 130.604 81.4987C130.604 82.4349 131.397 83.1995 132.362 83.1995C133.342 83.1995 134.12 82.4349 134.12 81.4987C134.12 80.5468 133.342 79.7979 132.362 79.7979Z" fill="white"/>
<path d="M136.656 87.3506C136.143 87.3506 135.723 87.7563 135.723 88.2556C135.723 88.7549 136.143 89.1606 136.656 89.1606C137.17 89.1606 137.59 88.7549 137.59 88.2556C137.59 87.7563 137.17 87.3506 136.656 87.3506Z" fill="white"/>
<path d="M134.244 92.1408H134.151C130.183 92.094 126.977 88.6924 127.024 84.5574C127.055 80.4848 130.292 77.1611 134.213 77.1611H134.306C138.274 77.2079 141.48 80.6096 141.433 84.7446C141.402 88.8172 138.181 92.1408 134.244 92.1408ZM134.213 77.7853C130.681 77.7853 127.771 80.828 127.724 84.5574C127.693 88.3335 130.572 91.4542 134.166 91.5011H134.244C137.776 91.5011 140.686 88.4583 140.733 84.729C140.764 80.9529 137.885 77.8321 134.291 77.7853H134.213Z" fill="#003084"/>
</g>
<defs>
<clipPath id="clip0_426_2478">
<rect width="288" height="380" fill="white"/>
</clipPath>
</defs>
</svg>
