<svg width="399" height="353" viewBox="0 0 399 353" fill="none" xmlns="http://www.w3.org/2000/svg">
<g clip-path="url(#clip0_426_2430)">
<path d="M249.966 118.357C249.966 118.357 250.908 111.993 248.497 104.165C246.087 96.3371 242.367 88.5093 241.537 87.2046C240.706 85.9 236.14 77.754 236.14 77.754C236.14 77.754 239.653 72.5354 241.904 66.5373C244.155 60.5391 242.686 54.3819 242.063 52.5522C241.441 50.7225 240.02 45.9813 235.31 41.3832C230.6 36.7852 222.474 32.9349 218.547 32.5053C214.619 32.0916 205.663 34.6373 205.503 34.9077C205.344 35.1623 198.335 39.3944 196.595 42.1628C191.566 39.8717 178.363 34.5895 169.055 34.0168C159.731 33.444 150.041 34.1281 145.171 35.0032C140.302 35.8942 128.887 39.5376 128.887 39.5376L127.003 40.4286C127.003 40.4286 119.356 34.4782 111.086 34.0645C102.816 33.6508 95.376 34.9555 88.4631 43.7697C85.0625 48.5746 83.8013 54.3182 84.1685 56.4502C84.5357 58.5822 84.0567 63.8643 86.2599 68.8124C88.4631 73.7764 89.9798 76.0675 89.9798 76.0675C89.9798 76.0675 80.0016 90.4821 78.0379 98.6282C76.0901 106.774 76.3615 108.365 77.4791 113.87C78.5967 119.375 77.6228 124.514 77.6228 124.514L72.498 161.076C72.498 161.076 58.2252 160.63 48.0873 169.524C43.9045 173.772 37.9655 182.252 36.9916 192.419C36.1614 200.358 37.9016 213.357 42.7231 222.903C47.5445 232.433 55.7187 245.591 65.6968 252.48C73.871 258.955 88.6068 268.549 88.6068 268.549C88.6068 268.549 99.6387 274.118 99.4311 274.182C99.2236 274.245 81.4544 270.252 79.1874 268.756C76.9203 267.261 73.0727 262.663 68.7142 262.424C64.3558 262.185 60.7477 264.794 59.1512 267.229C57.5547 269.663 56.3892 275.263 61.2426 280.657C64.6272 283.059 68.2992 283.028 68.2992 283.028C68.2992 283.028 74.8289 280.593 75.1003 280.657C75.3717 280.721 83.6895 281.389 87.6649 282.741C91.6402 284.094 97.5473 284.857 95.1685 286.91C92.7897 288.962 89.2294 290.744 85.0466 292.335C80.8637 293.926 77.8942 294.881 74.5415 293.306C71.1888 291.746 69.273 290.108 63.1584 291.953C57.0437 293.799 55.5431 298.667 55.3674 300.338C55.1918 302.008 54.3936 308.691 61.5459 311.507C66.1918 313.384 71.6678 312.175 74.8449 309.136C78.0219 306.097 78.8202 304.618 78.8202 304.618C78.8202 304.618 88.527 301.277 92.9174 300.895C97.3238 300.513 101.89 298.731 100.453 302.565C99.0161 306.4 93.2686 312.859 92.0074 314.291C90.7461 315.723 88.064 316.582 87.5052 316.837C86.9464 317.075 82.3006 319.382 81.0872 325.046C79.9058 328.976 83.3543 333.845 86.7389 334.927C90.1235 336.009 94.003 336.836 98.8564 332.349C101.858 328.976 101.507 324.108 101.507 324.108C101.507 324.108 101.012 320.735 104.54 316.837C108.068 312.939 110.543 310.059 115.364 306.05C120.186 302.056 124.305 300.067 124.305 300.067C124.305 300.067 132.096 296.583 137.045 295.851C142.01 295.119 152.994 294.149 154.399 293.274C155.788 292.399 157.608 292.606 159.284 288.469C160.961 284.332 159.875 280.912 159.811 280.816C159.747 280.705 159.492 279.671 159.364 279.702C159.22 279.734 180.278 286.353 194.104 287.26C207.93 288.167 214.428 288.167 214.428 288.167C214.428 288.167 213.901 292.431 208.09 296.551C202.278 300.672 189.762 305.429 189.075 305.684C188.389 305.938 186.808 305.906 184.461 305.286C182.114 304.665 176.958 303.09 173.222 308.564C171.306 312.255 169.486 317.394 173.844 322.071C177.022 324.887 181.46 325.237 184.11 324.092C186.76 322.946 190.081 319.367 190.193 319.319C190.305 319.287 194.519 316.184 198.431 314.657C202.342 313.13 207.579 313.162 207.786 313.305C207.994 313.448 211.73 312.016 211.458 317.203C211.187 322.389 210.101 330.711 208.776 333.033C207.451 335.356 206.302 338.841 205.631 340.066C204.961 341.291 202.901 349.946 213.071 352.412C218.132 352.173 222.362 352.523 224.422 347.13C226.481 341.736 222.155 335.85 222.155 335.85C222.155 335.85 221.389 334.672 221.596 332.652C221.804 330.631 222.857 322.31 223.416 320.098C223.975 317.887 225.795 313.655 228.764 318.667C231.734 323.678 235.997 330.106 236.061 331.538C236.124 332.97 235.087 341.036 238.711 344.202C242.335 347.368 248.21 348.1 252.042 344.441C255.873 340.782 255.841 337.059 255.458 335.213C255.075 333.368 253.638 330.106 248.274 327.56C242.894 325.015 241.185 320.226 241.09 320.178C240.978 320.146 237.593 314.928 237.322 313.4C237.05 311.873 236.795 309.009 242.447 311.316C248.098 313.607 253.367 317.441 254.708 319.526C256.033 321.61 257.853 326.622 266.889 323.949C270.896 321.021 272.237 318.667 271.631 315.357C271.04 312.048 268.071 307.084 263.042 307.8C258.013 308.532 255.426 308.85 254.005 308.245C252.568 307.657 243.772 305.143 241.568 302.088C239.365 299.033 238.775 295.135 239.19 293.035C239.605 290.951 240.627 288.087 240.627 288.087C240.627 288.087 256.863 284.953 266.027 281.357C275.191 277.761 287.085 269.663 290.581 267.165C294.094 264.667 298.644 260.276 298.644 260.483C298.644 260.69 295.499 266.195 295.483 266.481C295.451 266.767 291.443 274.15 293.359 279.575C295.115 283.203 298.644 288.087 309.181 289.805C319.702 291.524 322.751 291.842 330.973 294.976C339.195 298.111 344.591 304.586 344.591 304.586C344.591 304.586 352.654 315.23 352.973 316.169C353.292 317.107 353.34 320.83 353.34 320.83C353.34 320.83 350.786 330.361 361.482 331.761C364.835 331.411 368.076 332.349 372.514 326.813C375.308 322.326 374.813 318.778 372.275 315.93C369.736 313.082 368.124 311.65 367.07 312.032C366.017 312.414 362.249 310.25 360.604 308.42C358.96 306.575 354.218 298.779 353.548 297.395C352.877 296.01 351.903 291.476 354.985 292.24C358.05 293.003 363.462 294.881 368.842 298.19C374.223 301.499 375.963 301.213 376.075 303.202C376.186 305.191 377.256 312.032 386.659 312C392.391 310.473 395.488 307.752 395.664 303.759C395.839 299.765 395.775 294.324 390.395 292.558C385.015 290.776 381.662 291.587 381.535 291.683C381.391 291.794 374.446 289.137 372.323 288.23C370.199 287.323 364.468 283.362 364.436 283.219C364.404 283.075 360.636 280.116 366.671 279.257C372.706 278.382 380.529 279.989 380.529 279.989C380.529 279.989 384.584 284.205 391.385 282.662C398.186 281.134 398.027 277.3 398.33 275.152C398.649 272.988 397.707 268.056 393.333 266.147C388.974 264.238 386.627 264.858 384.073 265.94C381.519 267.022 380.625 267.786 378.134 267.961C375.659 268.136 352.334 267.547 351.744 267.547C351.153 267.547 336.178 266.29 332.298 263.442C336.832 260.387 352.51 249.839 352.51 249.839C352.51 249.839 366.224 239.052 372.834 231.431C379.427 223.81 386.979 213.691 391.162 204.495C395.344 195.315 397.5 179.659 397.5 179.659C397.5 179.659 397.819 166.978 394.195 158.673C390.587 150.368 382.668 144.211 374.973 141.029C367.278 137.847 357.683 137.163 350.195 138.054C342.707 138.945 334.342 141.14 327.573 144.402C320.803 147.679 305.716 157.83 305.716 157.83C305.716 157.83 292.242 141.824 280.507 134.442C268.773 127.06 253 118.086 249.711 118.373" fill="#9CCE07"/>
<path d="M77.2407 113.042C76.8894 113.042 68.1565 106.678 65.8575 104.132C63.5586 101.587 61.8822 95.1591 61.8822 94.7454C61.8822 94.3318 60.9084 79.4716 60.9084 79.4716C60.9084 79.4716 61.2915 64.0864 61.2596 63.641C61.2276 63.1955 62.441 59.7748 64.0535 58.0406C65.666 56.3064 76.5222 47.3171 77.1129 47.2216C77.7036 47.1102 82.8444 44.9942 83.5788 45.1374C84.3132 45.2806 87.5541 45.5829 87.5541 45.5829C87.5541 45.5829 100.087 39.0438 100.151 38.8688C100.214 38.6937 101.236 34.5889 101.236 34.5889C101.236 34.5889 101.795 28.193 97.4685 26.1724C93.1419 24.1518 88.9431 23.4518 86.5004 25.3451C84.0578 27.2384 83.3234 30.4522 82.9402 30.9455C82.557 31.4387 79.0287 34.398 77.56 35.1935C76.0912 35.989 69.5934 38.9801 68.1725 39.6165C66.7356 40.237 65.1072 40.4916 64.8198 39.6802C64.5324 38.8688 65.2668 34.9867 66.4961 32.616C67.7255 30.2454 70.1202 24.7246 71.1739 23.7859C72.2276 22.8472 74.7022 20.7629 74.8778 20.7629C75.0534 20.7629 79.843 18.7105 80.0824 14.6057C80.3219 10.5008 78.5817 6.42782 75.261 4.93226C71.9402 3.4367 68.7313 3.32533 64.5803 5.87096C61.6427 7.57335 61.7226 13.9852 61.7226 14.2556C61.7226 14.5261 62.8082 16.5944 61.6587 19.7129C60.5092 22.8472 59.1043 27.8271 58.0346 29.5295C56.949 31.2319 55.7676 34.7798 54.2349 35.1935C52.7023 35.6072 51.9998 35.8935 51.0579 34.7798C50.1159 33.6661 48.4077 24.6132 48.4077 24.6132C48.4077 24.6132 46.4919 19.0446 47.5296 16.2285C48.5833 13.4124 50.2117 9.48258 49.9403 8.5757C49.6689 7.66882 50.0521 4.70952 45.965 2.21161C41.8779 -0.286294 38.3497 0.747871 37.4077 1.16154C36.4658 1.5752 29.8243 6.82557 30.9099 10.5486C31.9955 14.2716 37.2002 18.5196 37.2002 18.5196C37.2002 18.5196 38.4614 23.8495 38.4933 24.0563C38.5252 24.2632 39.6428 33.1411 39.4353 34.7003C39.2277 36.2595 39.2597 37.7232 38.1421 38.1369C37.0245 38.5506 35.5877 39.1074 32.4905 37.755C29.3773 36.4027 22.5442 32.9183 21.3149 32.1228C20.0856 31.3273 18.8403 29.2749 18.8403 29.2749C18.8403 29.2749 15.9027 21.4152 9.66035 21.7653C3.418 22.1153 1.39041 26.1883 1.10304 27.3657C0.831635 28.543 -0.924507 35.3685 5.39768 39.2983C10.5225 41.4144 13.6357 39.9984 13.6357 39.9984C13.6357 39.9984 17.6908 40.7621 21.1712 43.5464C24.6675 46.3306 33.2089 51.6128 35.3482 55.2722C37.4716 58.9315 39.4991 61.7795 39.4034 65.9957C39.2916 70.2119 38.9563 78.2784 38.8765 78.517C38.8126 78.7557 37.3758 103.051 37.3758 103.051V125.325C37.3758 125.325 42.6762 132.691 45.039 135.189C47.4018 137.687 59.7589 150.797 59.9185 150.893C60.0782 151.004 73.0099 160.502 73.1217 160.709C73.2334 160.916 75.261 160.232 75.261 160.232C75.261 160.232 84.9039 122.604 84.5846 122.191C84.2174 121.745 77.2407 113.042 77.2407 113.042Z" fill="#9CCE07"/>
<path d="M247.556 102.335C247.556 102.335 216.296 157.034 164.346 160.169C164.346 160.169 178.443 160.869 191.854 157.734C205.264 154.6 210.98 151.052 210.98 151.052C210.98 151.052 230.186 145.547 238.28 139.358C244.076 133.169 248.482 128.078 249.6 121.618C250.717 115.127 249.631 103.783 247.556 102.335Z" fill="#7BAE02"/>
<path d="M1.93279 25.4408C2.07647 25.2022 5.63672 34.9074 20.9951 37.1985C32.7295 42.2739 45.7091 55.0179 46.7628 57.309C47.8165 59.6001 51.9675 105.931 52.1271 110.004C52.2868 114.077 71.9238 132.708 83.7061 139.756C95.4883 146.804 105.387 151.338 105.387 151.338C105.387 151.338 105.004 161.473 104.716 163.43C104.445 165.371 102.896 170.383 102.896 170.383C102.896 170.383 86.9789 161.887 78.246 161.823C72.4826 161.091 72.6582 161.41 72.4826 161.091C72.307 160.773 58.2737 149.429 52.4145 143.176C46.5553 136.908 37.3274 127.234 37.056 125.993C36.7846 124.737 37.4073 100.171 37.4711 99.9643C37.535 99.7575 38.9399 67.8893 38.9399 67.8893C38.9399 67.8893 40.1213 60.0933 34.9965 55.0498C29.8717 50.0062 19.4944 41.1283 16.046 40.476C12.5815 39.8078 9.24482 40.2055 7.69621 39.6009C6.16356 39.0123 3.19406 38.5509 1.48579 35.2097C-0.238441 31.8686 0.735405 27.3501 1.93279 25.4408Z" fill="#7BAE02"/>
<path d="M100.245 30.373C100.245 30.373 98.9839 33.7142 90.5384 37.2622C82.0928 40.8102 80.2089 40.2533 72.386 46.5219C64.5631 52.7905 61.1466 60.5706 61.0029 62.3208C60.8592 64.055 64.611 57.4682 64.611 57.4682C64.611 57.4682 71.0769 50.8336 72.0667 50.404C73.0566 49.9585 79.714 45.9492 81.0232 45.6787C82.3323 45.4241 87.0261 45.44 87.0261 45.44C87.0261 45.44 90.7778 41.1284 92.0072 40.301C93.2365 39.4737 97.0841 36.1803 98.1537 35.7348C99.2234 35.2893 100.932 34.9075 100.852 34.8279C100.772 34.7484 101.554 31.4549 100.245 30.373Z" fill="#7BAE02"/>
<path d="M78.0864 6.55566C78.0864 6.55566 75.7874 14.7017 71.86 17.6133C67.9325 20.5407 66.7352 24.757 64.532 30.2937C62.3288 35.8305 63.3346 40.9854 64.6437 41.3036C65.9529 41.6218 64.8194 39.6489 64.8194 39.6489C64.8194 39.6489 65.0109 36.6101 66.4318 33.1098C67.8527 29.6096 70.8542 24.1046 71.1735 23.7546C71.5088 23.4046 73.5523 21.4158 73.8077 21.4794C74.0632 21.5272 79.0443 19.8089 79.8266 15.7359C80.6089 11.6788 81.0718 9.68998 78.0864 6.55566Z" fill="#7BAE02"/>
<path d="M34.1989 3.05469C34.1989 3.05469 30.8462 8.43234 37.1844 15.4806C37.1844 15.4806 39.8027 18.0898 40.7925 22.7834C41.7823 27.4769 42.1016 38.0731 38.9086 38.3913C39.4833 35.4638 39.8505 30.7226 39.2279 29.4179C38.6053 28.1133 37.2323 19.7127 36.8651 18.9808C36.4979 18.2489 31.5168 12.4099 30.942 10.7871C30.3832 9.16421 31.0378 4.97982 34.1989 3.05469Z" fill="#7BAE02"/>
<path d="M265.309 229.156C265.309 229.156 293.903 208.17 317.164 190.319C340.409 172.467 358.961 174.981 359.583 193.453C360.206 211.925 329.729 262.026 325.642 267.356C321.554 272.686 342.501 285.828 345.119 291.253C347.737 296.678 363.926 326.892 373.457 325.015C371.413 328.308 367.742 331.745 362.824 332.015C357.907 332.286 355.704 329.66 355.704 329.66C355.704 329.66 353.038 326.001 353.293 322.151C353.549 318.285 353.708 317.044 353.501 316.821C353.293 316.598 344.337 304.236 344.337 304.236C344.337 304.236 340.042 298.906 334.438 296.774C328.835 294.642 323.279 292.383 320.66 291.81C318.042 291.237 304.631 288.517 304.631 288.517C304.631 288.517 297.671 286.735 294.526 281.468C291.38 276.202 293.424 271.031 293.424 271.031L297.926 261.326C297.926 261.326 284.42 271.143 283.621 272.129C282.839 273.115 273.308 278.541 267.912 280.37C262.515 282.2 251.053 286.21 249.424 286.639C247.796 287.053 240.372 288.103 240.372 288.103L249.217 269.361L258.636 247.023L263.825 230.524L265.309 229.156Z" fill="#7BAE02"/>
<path d="M398.203 276.091C398.203 276.091 393.589 280.164 383.611 277.411C373.633 274.659 365.283 276.616 363.399 278.557C361.515 280.498 363.128 280.466 363.128 280.466C363.128 280.466 365.714 278.445 373.329 279.034C380.945 279.623 381.184 280.036 381.184 280.036C381.184 280.036 385.447 284.762 390.859 283.091C396.271 281.42 397.038 279.607 397.181 279.161C397.293 278.732 398.203 276.091 398.203 276.091Z" fill="#7BAE02"/>
<path d="M395.68 305.731C395.952 305.317 391.274 308.229 382.621 301.626C373.968 295.008 359.152 289.455 356.997 289.582C354.826 289.725 352.814 291.078 352.878 291.873C352.942 292.669 354.73 290.871 362.856 295.008C370.982 299.144 375.389 301.96 375.389 301.96C375.389 301.96 377.129 307.704 377.384 307.943C377.624 308.181 380.801 311.904 384.744 311.777C388.703 311.65 391.737 311.682 395.68 305.731Z" fill="#7BAE02"/>
<path d="M258.093 177.797C258.093 177.797 260.599 200.819 252.745 227.739C244.89 254.675 229.02 289.9 229.643 296.471C230.266 303.042 227.919 306.956 236.556 320.114C245.193 333.272 251.835 341.354 248.338 346.986C252.106 344.902 254.517 342.388 255.092 338.792C255.666 335.197 254.884 330.758 250.318 328.355C245.752 325.953 244.139 325.062 242.719 322.723C241.298 320.368 238.424 316.932 237.642 314.688C236.859 312.445 237.258 310.409 239.206 310.52C241.154 310.631 244.794 311.84 245.752 312.525C246.71 313.209 253.543 317.568 253.719 317.855C253.894 318.141 254.357 321.021 256.544 322.834C258.732 324.648 265.293 326.271 268.646 322.421C271.999 318.555 271.025 313.972 270.945 313.368C270.881 312.779 268.007 308.006 264.734 307.799C261.446 307.592 258.141 308.006 257.199 308.292C256.257 308.563 252.346 308.467 247.221 305.795C242.096 303.122 240.34 301.96 239.51 297.649C238.679 293.337 239.925 289.232 239.925 289.232L249.536 268.215C249.536 268.215 260.631 242.376 260.743 241.963C260.855 241.549 264.926 230.539 265.086 225.989C265.245 221.455 266.97 216.172 265.613 209.235C264.255 202.299 264.415 194.63 263.202 193.532C262.02 192.402 258.093 177.797 258.093 177.797Z" fill="#7BAE02"/>
<path d="M224.678 316.2C224.678 316.2 221.437 316.089 219.761 323.089C218.085 330.09 218.707 338.745 216.823 342.245C214.94 345.746 208.554 350.185 208.554 350.185C208.554 350.185 213.375 354.098 220.08 351.33C224.998 349.198 225.636 344.552 224.902 341.879C224.167 339.222 222.491 335.674 221.757 334.417C221.022 333.161 222.076 325.174 222.076 324.665C222.076 324.155 223.752 317.457 223.912 317.457C224.072 317.457 224.678 316.2 224.678 316.2Z" fill="#7BAE02"/>
<path d="M211.203 312.906C211.203 312.906 202.406 310.122 194.727 312.97C187.048 315.818 173.845 319.032 170.923 314.784C171.833 318.475 171.753 325.428 183.28 324.664C189.634 322.23 190.544 318.889 190.544 318.889C190.544 318.889 193.753 314.991 199.549 314.291C205.344 313.59 210.373 313.113 210.373 313.113L211.203 312.906Z" fill="#7BAE02"/>
<path d="M100.82 184.527C100.82 184.527 34.3257 176.365 67.6768 226.021C101.028 275.677 132.719 271.429 128.009 282.693C123.299 293.973 97.8509 294.482 87.8887 296.885C77.9424 299.287 60.8597 308.229 55.0644 303.774C56.6769 307.465 59.1834 314.052 68.6666 311.968C75.2123 309.884 75.9468 307.433 76.1064 307.163C76.2661 306.908 77.9424 304.601 81.343 303.663C84.7435 302.724 93.3807 300.322 94.1151 300.528C94.8494 300.735 102.497 299.335 100.453 303.026C98.4097 306.733 92.0715 314.768 91.6564 315.023C91.2413 315.277 78.4533 328.483 85.0628 333.765C90.7783 337.567 94.3864 335.96 98.6332 332.412C100.517 328.817 101.411 326.048 101.507 323.646C101.619 321.243 103.55 317.743 104.652 315.977C105.754 314.195 119.531 301.881 119.787 301.881C120.042 301.881 127.115 298.38 133.98 296.662C140.845 294.944 152.356 293.687 152.579 293.639C152.803 293.591 157.816 292.128 159.7 288.214C161.584 284.3 158.87 279.543 158.87 279.543C158.87 279.543 144.469 274.69 136.822 269.265C129.174 263.839 119.18 254.707 114.774 248.343C110.368 241.979 106.807 234.978 103.934 227.469C101.06 219.959 100.118 207.692 100.118 207.692C100.118 207.692 99.7507 193.023 99.7507 192.562C99.7188 192.1 100.82 184.527 100.82 184.527Z" fill="#7BAE02"/>
<path d="M96.2539 286.464C96.2539 286.464 96.5254 283.823 90.6023 281.659C84.6633 279.496 69.6561 279.925 64.4834 275.12C59.3107 270.315 58.7519 268.088 58.7519 268.088C58.7519 268.088 56.6605 272.304 58.3687 276.504C60.077 280.721 64.3397 282.105 64.3397 282.105C64.3397 282.105 67.9318 282.9 72.8651 281.405C77.7823 279.909 79.5066 281.023 79.5066 281.023L92.6618 283.95C92.6618 283.95 96.1901 285 96.2539 286.464Z" fill="#7BAE02"/>
<path d="M94.2423 38.5829C94.2423 38.5829 109.329 33.428 126.635 44.2152C135.289 41.4309 164.297 36.2441 194.296 46.2676C211.586 39.2194 222.714 33.2848 231.303 38.1534C225.507 34.2554 219.952 31.6461 214.476 32.378C208.999 33.1098 205.391 34.5736 202.949 36.451C200.506 38.3284 196.914 41.3991 196.77 41.4945C196.627 41.6059 186.505 37.7397 186.361 37.7397C186.217 37.7397 168.304 33.3167 158.773 33.428C149.242 33.5394 142.297 35.3373 142.297 35.3373C142.297 35.3373 127.322 40.5876 127.21 40.6195C127.098 40.6513 118.062 34.4622 111.357 34.0485C104.652 33.6349 99.0957 35.0191 98.8881 35.3373C98.7125 35.6714 94.2423 38.5829 94.2423 38.5829Z" fill="#BFEA24"/>
<path d="M37.8857 1.22587C37.8857 1.22587 46.4111 4.0738 45.7086 10.9629C45.0061 17.852 45.0061 25.3617 45.98 28.146C46.9539 30.9302 49.6839 38.3762 51.8392 38.3126C54.0104 38.2489 55.8145 38.3126 58.9596 32.6008C62.1048 26.889 64.6911 20.5568 65.1062 17.2952C65.5213 14.0336 63.8769 5.85574 70.0234 3.51694C67.2295 4.392 62.1686 6.30123 62.0249 10.6447C61.8813 14.9882 62.2006 18.8226 61.3544 21.4C60.5242 23.9775 56.501 32.4576 55.7666 33.3963C55.0322 34.335 53.9147 35.8942 52.7971 35.4806C51.6795 35.0669 50.9452 34.51 49.9394 31.7258C48.9336 28.9415 47.2572 20.1431 47.2891 18.1543C47.3211 16.1656 49.1092 12.1721 49.5243 11.297C49.9393 10.422 50.6418 5.45799 46.7304 2.88053C42.8508 0.318987 39.0671 0.350808 37.8857 1.22587Z" fill="#BFEA24"/>
<path d="M249.12 123.273C249.12 123.273 288.154 146.374 298.628 162.873L305.748 157.718C305.748 157.718 295.227 146.422 288.937 141.108C282.647 135.778 267.464 126.598 263.696 124.402C259.928 122.207 250.445 118.197 250.445 118.197L249.12 123.273Z" fill="#BFEA24"/>
<path d="M295.275 166.214C295.275 166.214 350.993 130.512 390.379 152.85C386.611 148.888 386.052 146.231 378.437 142.619C370.822 139.008 357.555 135.937 346.874 138.164C336.193 140.392 322.08 147.217 322.08 147.217C322.08 147.217 307.424 155.777 305.317 157.861C303.225 159.946 295.275 166.214 295.275 166.214Z" fill="#BFEA24"/>
<path d="M61.8019 95.2227C61.9137 95.5409 60.9718 103.782 64.6278 109.319C68.2998 114.856 90.0762 126.964 90.0762 126.964C90.0762 126.964 89.5493 123.877 89.3897 123.734C89.23 123.575 82.2692 121.538 80.3375 118.722C78.4057 115.906 77.1444 112.883 77.1444 112.883C77.1444 112.883 68.9703 106.98 65.9848 103.496C62.9994 99.9798 61.8019 95.2227 61.8019 95.2227Z" fill="#BFEA24"/>
<path d="M83.8488 163.239C83.8488 163.239 65.473 165.276 53.8344 174.042C43.3134 182.348 37.5021 197.844 38.1248 208.806C38.1248 208.806 36.4005 200.978 36.8635 195.808C37.3425 190.637 38.1727 187.137 40.9985 180.104C43.8243 173.072 49.2205 167.583 55.0797 164.91C60.9389 162.253 68.65 161.155 68.7937 161.155C68.9374 161.155 81.6776 160.789 83.9766 163.51" fill="#BFEA24"/>
<path d="M229.34 67.4119C229.388 66.9982 231.384 59.3295 225.94 53.5859C220.496 47.8423 213.535 47.8423 213.535 47.8423C213.535 47.8423 206.047 45.9172 199.965 55.5588C197.139 61.4615 196.772 70.1644 204.259 75.1284C210.805 78.2627 217.877 79.5673 223.944 75.2875C229.5 71.2304 229.34 67.4119 229.34 67.4119Z" fill="white"/>
<path d="M121.718 51.0721C121.718 51.0721 116.482 41.5737 107.637 43.1329C101.554 44.3898 96.7969 47.2059 95.4877 56.0838C95.0726 61.6206 96.6851 66.8391 105.546 69.0347C111.517 69.7189 115.492 70.0211 119.579 64.8026C123.65 59.584 123.187 54.6201 121.718 51.0721Z" fill="white"/>
<path d="M285.872 139.31C285.872 139.31 283.493 141.665 279.741 141.187C275.989 140.71 273.643 138.833 272.621 137.687C271.599 136.541 269.603 134.473 269.603 132.994C269.603 131.514 269.779 127.854 269.779 127.854C269.779 127.854 282.423 136.223 282.423 136.16C282.439 136.064 286.031 138.737 285.872 139.31Z" fill="#597303"/>
<path d="M257.981 121.507C257.981 121.507 259.162 126.582 256.48 128.571C253.798 130.56 250.573 130.592 250.19 130.592C249.807 130.592 246.215 130.098 246.215 130.098C246.215 130.098 248.721 124.705 249.248 122.652C249.775 120.6 250.254 118.022 250.254 118.022L257.981 121.507Z" fill="#597303"/>
<path d="M266.155 136.144C266.155 136.144 265.485 133.71 262.915 133.472C260.344 133.233 259.211 133.408 258.764 134.697C258.317 135.985 258.269 137.195 260.232 138.531C262.18 139.852 263.936 140.058 264.176 139.963C264.399 139.836 266.858 138.133 266.155 136.144Z" fill="#597303"/>
<path d="M260.662 145.118C259.96 144.147 256.863 141.888 254.66 140.695C252.456 139.517 251.099 140.138 250.046 140.933C248.992 141.729 247.954 143.543 250.109 147.234C252.281 150.925 255.905 153.073 259.257 152.452C262.61 151.832 262.227 147.759 262.227 147.616C262.227 147.472 260.662 145.118 260.662 145.118Z" fill="#597303"/>
<path d="M288.491 154.139C288.427 154.059 284.755 148.809 279.694 149.334C274.633 149.859 273.659 149.509 272.19 152.739C270.721 155.968 270.067 158.625 273.1 161.712C276.134 164.814 282.041 167.551 286.048 167.169C290.055 166.787 291.396 162.189 291.348 161.982C291.332 161.791 290.726 156.573 288.491 154.139Z" fill="#597303"/>
<path d="M89.4859 123.511C89.4859 123.511 93.7486 124.657 102.226 122.604C110.704 120.552 120.378 117.561 125.375 117.943C130.373 118.324 140.111 120.345 146.785 122.286C153.458 124.227 157.258 126.359 157.258 126.359C157.258 126.359 164.729 128.523 172.792 127.68C180.854 126.852 185.644 126.98 191.263 124.402C196.883 121.825 204.179 116.749 204.499 116.606C204.818 116.463 206.67 114.665 206.67 114.665C206.67 114.665 220.544 129.716 210.022 151.322C204.211 155.554 190.545 174.806 192.269 185.768C193.994 196.73 210.166 212.258 210.166 212.258C210.166 212.258 216.84 218.416 218.436 219.497C220.033 220.579 221.725 224.891 222.028 225.973C222.348 227.055 223.561 232.544 223.737 236.696C223.912 240.833 222.858 253.195 221.948 261.119C221.038 269.042 217.335 281.229 217.335 281.229L214.748 288.389C214.748 288.389 188.837 287.275 175.65 284.491C162.446 281.706 149.531 276.774 139.552 270.712C129.574 264.651 119.309 255.55 114.631 248.661C109.953 241.772 105.275 231.892 102.753 222.425C100.246 212.958 99.4002 201.758 99.8952 198.003C100.39 194.248 100.103 186.388 101.508 179.213C102.897 172.053 104.796 161.6 104.796 161.6C104.796 161.6 106.122 147.615 105.212 144.544C100.885 141.617 93.8284 133.487 91.737 129.939C89.6296 126.407 89.2145 124.386 89.4859 123.511Z" fill="#FFFFB9"/>
<path d="M213.471 140.328C213.471 140.328 167.587 161.202 123.125 154.313C134.747 157.75 148.844 159.85 149.212 159.945C149.579 160.057 169.695 161.568 178.651 159.691C178.651 159.691 190.018 159.007 198.129 156.302C206.239 153.581 210.23 151.036 210.23 151.036C210.23 151.036 213.631 144.035 213.471 140.328Z" fill="#D7DB86"/>
<path d="M119.834 152.738C119.834 152.738 96.8926 205.242 131.25 264.953C131.25 264.953 146.193 276.154 162.254 280.752C178.315 285.35 197.026 287.148 197.728 287.434C198.431 287.704 214.412 288.198 214.412 288.198C214.412 288.198 219.792 277.824 221.261 264.81C222.73 251.795 224.198 245.399 223.735 236.696C223.288 227.993 222.73 223.618 215.881 217.349C209.032 211.081 200.586 203.508 196.323 195.855C192.061 188.202 192.061 184.861 192.061 184.447C192.061 184.033 194.567 169.062 201.48 160.995C208.393 152.929 208.537 152.643 208.537 152.643C208.537 152.643 190.177 158.832 180.534 159.802C170.891 160.773 148.827 160.852 139.472 158.545C130.132 156.254 119.834 152.738 119.834 152.738Z" fill="#D7DB86"/>
<path d="M151.557 103.862C151.557 103.862 151.142 98.6436 147.054 100.696C142.967 102.748 139.407 105.008 139.056 105.644C138.705 106.265 136.965 108.397 140.621 108.397C144.293 108.397 148.651 107.346 149.178 107.14C149.721 106.917 151.349 105.453 151.557 103.862Z" fill="#597303"/>
<path d="M112.029 103.688C111.965 103.465 109.155 98.6758 107.111 97.8485C105.068 97.0212 102.29 97.0689 101.763 98.4213C101.236 99.7736 102.45 101.969 105.116 102.956C107.782 103.942 111.55 104.579 111.55 104.579C111.55 104.579 112.396 105.04 112.029 103.688Z" fill="#597303"/>
<path d="M183.201 126.694C183.201 126.694 166.182 129.144 158.12 126.376C150.058 123.607 144.039 120.998 140.319 120.218C136.599 119.439 134.603 119.646 134.396 119.693C134.188 119.741 130.053 120.107 123.236 124.546C116.435 128.985 114.535 132.692 114.535 132.692C114.535 132.692 123.332 136.192 135.96 138.117C148.589 140.042 158.008 137.751 158.216 137.751C158.423 137.751 167.332 135.556 171.1 134.044C174.867 132.533 180.679 129.764 180.679 129.764C180.679 129.764 183.664 127.171 183.201 126.694Z" fill="#EC8788"/>
<path d="M134.172 119.232C134.172 119.232 124.274 116.989 116.163 119.184C108.053 121.38 101.396 122.78 101.396 122.78C101.396 122.78 104.796 129.987 114.742 132.851C116.786 129.462 121.176 124.817 126.365 122.414C131.554 120.012 133.964 119.853 133.964 119.853L134.172 119.232Z" fill="#A03C41"/>
<path d="M274.25 149.811C276.613 148.427 279.774 148.125 282.313 149.048C286.479 150.559 290.056 154.41 291.429 158.88C292.243 161.521 291.828 163.987 290.311 165.658C289.05 167.042 287.166 167.742 284.835 167.742C283.973 167.742 283.047 167.647 282.089 167.44C276.964 166.39 271.233 162.333 270.706 156.923C270.626 156.191 270.658 155.46 270.77 154.728C271.089 152.691 272.318 150.941 274.25 149.811ZM271.824 156.828C272.286 161.521 277.523 165.356 282.297 166.342C285.458 166.995 287.996 166.485 289.433 164.894C290.678 163.526 290.998 161.458 290.311 159.214C289.066 155.141 285.681 151.482 281.897 150.114C281.035 149.811 280.109 149.652 279.151 149.652C277.635 149.652 276.086 150.034 274.809 150.798C273.659 151.466 272.223 152.723 271.871 154.919C271.776 155.555 271.76 156.191 271.824 156.828Z" fill="black"/>
<path d="M256.288 140.679C258.97 142.142 261.126 144.211 262.227 146.358C263.026 147.949 263.041 149.636 262.243 150.988C261.493 152.293 260.072 153.104 258.364 153.2C258.252 153.2 258.14 153.216 258.012 153.216C256.161 153.216 254.564 152.388 253.51 151.672C252.664 151.084 251.898 150.447 251.211 149.779C249.902 148.475 248.976 147.074 248.481 145.611C247.859 143.765 248.114 141.888 249.184 140.567C250.589 138.849 252.983 138.881 256.288 140.679ZM249.583 145.245C250.03 146.533 250.844 147.79 252.042 148.968C252.664 149.588 253.383 150.193 254.181 150.734C255.139 151.402 256.639 152.166 258.316 152.07C259.657 151.991 260.695 151.418 261.269 150.431C261.86 149.413 261.844 148.109 261.221 146.883C260.232 144.927 258.252 143.033 255.761 141.681C254.245 140.854 252.999 140.44 252.01 140.44C251.195 140.44 250.557 140.726 250.11 141.283C249.28 142.301 249.088 143.781 249.583 145.245Z" fill="black"/>
<path d="M257.933 135.316C258.092 133.662 259.386 132.596 261.253 132.596C262.994 132.596 264.893 133.487 265.979 134.823C266.745 135.746 267.049 137.035 266.777 138.101C266.554 138.96 265.979 139.628 265.133 139.978C264.702 140.153 264.223 140.233 263.744 140.233C262.323 140.233 260.774 139.564 259.705 138.848C258.491 138.005 257.805 136.669 257.933 135.316ZM260.359 137.894C261.605 138.737 263.489 139.405 264.702 138.912C265.213 138.705 265.548 138.339 265.676 137.814C265.851 137.098 265.628 136.176 265.101 135.539C264.207 134.457 262.674 133.741 261.253 133.741C259.992 133.741 259.162 134.378 259.066 135.428C258.986 136.335 259.481 137.305 260.359 137.894Z" fill="black"/>
<path d="M203.794 75.3985C199.564 72.5824 197.105 67.4434 197.376 62.0021C197.408 61.3339 197.488 60.6657 197.6 59.9974C198.749 53.6174 204.13 48.4784 210.691 47.492C217.125 46.5215 223.815 49.3853 227.327 54.6198C230.36 59.1224 231.893 66.4888 228.077 72.0097C225.06 76.385 219.712 78.3897 214.395 78.3897C210.548 78.3897 206.716 77.3396 203.794 75.3985ZM227.135 71.3573C230.632 66.2661 229.195 59.4406 226.369 55.2403C223.543 51.0559 218.323 48.4466 213.102 48.4466C212.352 48.4466 211.601 48.4943 210.851 48.6057C204.768 49.5126 199.787 54.2698 198.718 60.1725C198.606 60.777 198.542 61.3975 198.51 62.018C198.255 67.0775 200.522 71.8187 204.417 74.4121C210.963 78.7874 222.298 78.3897 227.135 71.3573Z" fill="black"/>
<path d="M114.31 69.3848C113.72 69.6075 113.129 69.7825 112.522 69.9257C111.484 70.1644 110.415 70.2757 109.345 70.2757C105.434 70.2757 101.395 68.7643 98.441 66.0595C95.9664 63.7844 94.6253 60.7933 94.5774 57.4044C94.5295 53.5541 96.2218 49.5129 99.0956 46.6172C101.714 43.9762 105.051 42.5283 108.483 42.5283H108.499C113.32 42.5283 117.871 44.8353 120.664 48.6697C123.235 52.2017 123.921 56.6089 122.564 60.7614C121.239 64.7072 118.158 67.9369 114.31 69.3848ZM119.722 49.322C117.152 45.774 112.953 43.6579 108.483 43.6579C108.483 43.6579 108.483 43.6579 108.467 43.6579C105.338 43.6579 102.305 44.9944 99.8938 47.4128C97.2276 50.1016 95.6631 53.8246 95.711 57.3885C95.7429 60.4591 96.9562 63.1639 99.2073 65.2163C102.704 68.4142 107.828 69.8303 112.251 68.812C112.81 68.6847 113.352 68.5256 113.895 68.3188C117.423 66.9982 120.249 64.0389 121.447 60.3955C122.724 56.5293 122.101 52.5995 119.722 49.322Z" fill="black"/>
<path d="M214.668 54.4766C219.984 54.4766 224.295 58.7723 224.295 64.0704C224.295 69.3685 219.984 73.6643 214.668 73.6643C209.352 73.6643 205.041 69.3685 205.041 64.0704C205.041 58.7723 209.352 54.4766 214.668 54.4766ZM216.504 65.2478C218.771 65.2478 220.623 63.4181 220.623 61.1429C220.623 58.8837 218.787 57.0381 216.504 57.0381C214.237 57.0381 212.385 58.8678 212.385 61.1429C212.385 63.4181 214.237 65.2478 216.504 65.2478ZM212.385 70.164C213.439 70.164 214.285 69.3208 214.285 68.2707C214.285 67.2206 213.439 66.3774 212.385 66.3774C211.331 66.3774 210.485 67.2206 210.485 68.2707C210.501 69.3208 211.347 70.164 212.385 70.164Z" fill="black"/>
<path d="M109.729 65.7889C105.083 65.7889 101.315 62.0341 101.315 57.4042C101.315 52.7743 105.083 49.0195 109.729 49.0195C114.375 49.0195 118.143 52.7743 118.143 57.4042C118.143 62.0341 114.375 65.7889 109.729 65.7889ZM106.089 61.0636C106.089 61.9704 106.823 62.7182 107.749 62.7182C108.659 62.7182 109.41 61.9864 109.41 61.0636C109.41 60.1567 108.675 59.4089 107.749 59.4089C106.823 59.4248 106.089 60.1567 106.089 61.0636ZM111.341 51.2788C109.362 51.2788 107.749 52.8857 107.749 54.8586C107.749 56.8314 109.362 58.4384 111.341 58.4384C113.321 58.4384 114.934 56.8314 114.934 54.8586C114.934 52.8698 113.321 51.2788 111.341 51.2788Z" fill="black"/>
<path d="M0.527527 27.2387C1.70895 24.4226 3.68863 22.4815 6.22708 21.6542C9.13272 20.6996 12.2938 21.3519 14.0021 22.3542C16.4607 23.818 18.1211 26.7773 19.4621 29.1638L19.8932 29.9275C20.9149 31.7095 31.436 37.8508 36.4011 38.1531C37.0397 38.1849 37.8539 38.1372 38.1732 37.7076C39.7857 35.5438 38.4446 28.8138 37.5506 24.3589C37.2313 22.752 36.9439 21.3519 36.8481 20.3973C36.6725 18.854 35.5071 17.7085 34.1341 16.3879C32.5535 14.8446 30.7654 13.1104 30.4301 10.3739C29.8394 5.37805 33.5913 1.06638 39.3547 0.111764C41.941 -0.317812 44.5114 0.366327 46.6028 2.00508C48.6942 3.65974 50.0513 6.10992 50.2429 8.56009C50.4185 10.9625 49.6841 12.649 48.9657 14.3037C48.3271 15.7833 47.7044 17.1834 47.896 18.9813C48.3271 23.2293 50.0672 33.1255 52.3822 34.9233C52.6057 35.0983 52.8133 35.162 53.0049 35.1302C55.6391 34.7324 60.4446 22.7202 61.3865 18.9813C61.7058 17.6926 61.61 16.3879 61.4983 15.0196C61.3705 13.4286 61.2268 11.6149 61.7218 9.53061C62.2486 7.25545 64.1485 5.02802 66.5433 3.86658C68.4112 2.95969 71.4285 2.24373 75.1803 3.96204C78.3095 5.40987 80.369 8.2578 80.832 11.774C81.2311 14.8764 80.2413 17.8994 78.3095 19.4904C76.6651 20.8269 75.4677 21.4315 74.5098 21.9088C73.2805 22.5134 72.4663 22.927 71.3487 24.518C68.6506 28.4001 64.4838 38.4395 65.4576 39.4418C66.2399 40.2692 73.0889 37.4053 79.5229 33.5232C81.4547 32.3618 82.1731 30.9299 82.9234 29.4184C83.6418 27.9865 84.3763 26.5068 86.1165 25.1544C87.7289 23.8816 90.0119 23.3725 92.5663 23.7225C95.5039 24.1203 98.218 25.6158 99.6708 27.6046C101.826 30.548 101.762 33.1255 101.635 34.1596C113.976 30.8344 125.359 38.6463 127.322 40.0941C129.446 39.06 141.611 33.4437 158.406 32.855C175.425 32.2663 193.53 39.9032 196.372 41.1442C198.718 38.6781 214.795 23.1498 233.778 39.235C248.482 51.6927 243.548 66.1233 239.557 73.3147C238.982 74.317 239.525 73.2988 238.982 74.317C238.04 75.8921 237.21 77.0218 236.811 77.5468C237.753 79.0265 241.473 85.0405 244.874 92.6933C245.368 93.8707 244.874 92.6933 245.4 93.8866C246.901 97.3709 248.306 101.158 249.328 104.976C250.525 109.415 250.956 113.647 250.653 117.641C251.627 118.022 254.277 119.104 258.045 120.918C258.109 120.934 258.156 120.966 258.22 120.998C261.413 122.541 265.357 124.593 269.763 127.171C269.779 127.171 269.795 127.171 269.811 127.171C269.907 127.203 269.987 127.266 270.05 127.33C275.159 130.337 280.843 134.06 286.558 138.515C286.638 138.547 286.702 138.594 286.766 138.658C286.782 138.674 286.782 138.674 286.782 138.69C293.344 143.829 299.969 149.922 305.844 157.034C311.703 152.786 319.079 148.125 327.876 143.813C339.898 137.942 353.149 135.81 365.203 137.815C376.713 139.803 386.245 145.261 391.944 153.248C396.319 159.373 400.086 172.626 396.303 189.809C393.94 200.485 388.464 213.897 376.506 228.153C375.676 229.123 376.506 228.153 375.676 229.123C366.001 240.388 352.255 252.146 332.793 263.442C342.005 268.485 374.398 267.658 379.14 267.34C380.417 267.26 381.695 266.624 382.924 266.003C383.594 265.669 384.281 265.335 384.967 265.065C387.171 264.237 389.406 264.11 391.625 264.683C394.85 265.51 397.5 268.135 398.554 271.508C399.559 274.77 398.905 278.175 396.766 280.593C394.946 282.661 392.247 283.711 388.528 283.759C385.127 283.823 383.227 282.423 381.854 281.404C381.136 280.863 380.561 280.45 379.986 280.354L379.811 280.323C366.384 278.159 364.213 280.132 363.877 280.784C363.814 280.895 363.75 281.086 363.909 281.452C365.203 284.602 377.192 290.266 379.859 291.126C380.737 291.412 381.695 291.285 382.892 291.11C384.76 290.855 387.075 290.537 390.268 291.698C393.317 292.812 395.536 295.501 396.335 299.097C397.197 302.931 396.223 306.845 393.78 309.295C391.625 311.459 388.288 312.62 384.856 312.398C381.71 312.175 378.949 310.807 377.304 308.595C376.346 307.322 375.899 305.874 375.452 304.474L375.34 304.108C375.021 303.09 374.686 302.024 373.824 301.563C373.425 301.356 372.706 300.926 371.764 300.369C367.693 297.983 356.885 291.667 353.883 292.51C353.58 292.589 353.468 292.733 353.42 292.828C351.824 295.787 360.716 308.34 363.223 310.122C363.846 310.552 364.74 310.822 365.777 311.141C368.22 311.872 371.573 312.859 373.648 317.075C376.634 323.089 373.249 328.387 368.587 330.981C366.863 331.935 364.676 332.476 362.504 332.476C359.695 332.476 356.869 331.569 355.017 329.453C352.558 326.669 352.702 322.962 352.814 319.987C352.846 319.159 352.877 318.38 352.846 317.696C352.798 316.614 350.69 312.318 343.027 303.822C334.933 294.849 319.239 291.603 312.869 290.632C304.934 289.423 295.962 288.039 292.721 278.827C290.901 273.656 294.222 266.958 297.383 262.185C291.635 267.388 284.882 272.383 276.995 276.663C275.766 277.315 276.995 276.663 275.766 277.315C265.931 282.486 254.389 286.559 240.866 288.628C237.258 299.208 243.612 303.345 245.784 304.411C250.988 306.972 255.538 308.42 257.071 308.006C257.278 307.959 257.518 307.879 257.805 307.784C260.104 307.084 264.383 305.763 268.773 309.231C270.945 310.95 272.078 313.511 271.95 316.439C271.823 319.478 270.274 322.405 268.007 323.901C265.772 325.364 262.898 325.921 260.296 325.364C258.061 324.887 256.209 323.646 255.043 321.832C254.357 320.782 254.133 320.082 253.942 319.509C253.67 318.698 253.527 318.253 252.026 317.171C248.482 314.593 240.994 310.266 238.695 310.791C238.2 310.902 238.04 311.157 237.961 311.347C237.482 312.493 238.519 315.325 240.755 318.905C242.686 322.023 244.969 325.428 247.54 326.446L247.939 326.605C249.966 327.401 251.723 328.085 253.303 329.931C253.91 330.631 254.421 331.378 254.836 332.158C255.458 333.526 254.836 332.158 255.458 333.526C257.326 338.522 255.203 343.868 250.126 346.509C246.757 348.259 241.808 347.671 238.631 345.141C235.183 342.404 235.294 337.933 235.39 333.988C235.406 333.367 235.422 332.763 235.422 332.174C235.422 331.601 234.64 329.66 233.49 327.337C232.788 325.953 233.49 327.337 232.788 325.953C230.856 322.278 228.27 318.189 226.434 317.091C226.051 316.868 225.763 316.805 225.572 316.916C224.406 317.537 223.672 320.273 223.193 323.28C223.017 324.41 223.193 323.28 223.017 324.41C222.714 326.637 222.522 328.881 222.379 330.456C222.283 331.585 222.203 332.492 222.123 333.065C221.948 334.306 222.682 335.626 223.544 337.138C224.422 338.681 225.412 340.447 225.62 342.531C225.636 342.706 226.146 346.827 223.448 349.866C221.644 351.919 218.85 352.953 215.194 352.953H215.178C215.146 352.953 215.019 352.953 214.827 352.953C213.678 352.953 210.022 352.746 207.324 350.296C205.456 348.593 204.45 346.175 204.338 343.12C204.338 342.993 204.178 339.954 207.324 335.245C209.176 332.476 210.357 326.096 210.82 321.037C210.916 319.875 210.82 321.037 210.916 319.875C211.139 316.805 211.059 314.434 210.66 314.02C209.527 313.225 201.72 313.877 196.643 315.961C195.014 316.693 196.643 315.961 195.046 316.709L194.631 316.916C193.322 317.584 191.837 318.396 190.88 319.557L190.592 319.907C188.996 321.864 187.479 323.71 184.797 324.648C181.077 325.953 177.309 325.476 174.483 323.344C171.721 321.275 170.269 317.902 170.492 314.1C170.572 312.811 170.875 311.522 171.386 310.329C171.881 309.279 171.386 310.329 171.881 309.279C172.679 307.815 173.781 306.527 175.106 305.572C177.341 303.965 180.023 303.472 182.626 304.188C183.089 304.315 183.52 304.442 183.951 304.586C185.962 305.206 187.559 305.699 190.129 304.697L191.007 304.363C195.014 302.835 205.679 298.794 211.746 292.16C211.762 292.144 212.56 291.189 213.805 288.659C198.128 288.532 184.318 286.989 171.594 283.95C167.97 283.075 164.106 282.009 160.115 280.657C161.168 282.454 161.919 285.716 158.79 290.569C156.555 294.037 151.318 294.674 144.676 295.469C140.19 296.01 135.129 296.615 130.021 298.206C128.041 298.874 130.021 298.206 128.041 298.874C123.986 300.338 119.931 302.485 116.163 305.795C102.417 317.855 102.225 320.591 101.954 324.744C101.906 325.476 101.858 326.239 101.73 327.114C101.315 330.169 99.2238 333.16 96.2862 334.926C94.5301 335.977 92.6781 336.517 90.8421 336.517C89.7405 336.517 88.6549 336.327 87.6012 335.945C84.1527 334.688 81.5025 332.063 80.4967 328.944C79.6187 326.192 80.0816 323.376 81.8538 320.798C84.3124 317.234 86.6752 316.407 88.591 315.739C89.8842 315.293 90.89 314.927 91.7202 313.877C92.0874 313.4 92.5983 312.779 93.173 312.079C95.2964 309.486 100.916 302.613 100.006 301.34C98.8247 299.972 82.1731 303.313 79.1557 305.111C78.3893 305.572 77.7827 306.352 77.0642 307.259C75.3879 309.406 73.2965 312.063 67.7885 312.843C59.5665 314.004 55.3357 307.879 54.5854 303.758C54.1064 301.101 54.9207 297.919 56.7087 295.453C58.0179 293.655 60.4605 291.396 64.7073 290.791C69.1775 290.171 71.684 291.253 73.9031 292.207C75.5316 292.923 76.9525 293.528 78.8842 293.258C82.1092 292.828 87.4256 291.11 91.0976 289.328C92.6143 288.532 91.0976 289.328 92.6143 288.532C94.115 287.689 95.1048 286.862 95.1527 286.225C95.2804 284.523 82.9873 281.977 76.2979 281.229C75.2442 281.102 74.1586 281.532 72.9133 282.009C72.1151 282.311 71.237 282.645 70.2631 282.868C65.6013 283.457 64.372 282.645 63.7972 282.423C60.7639 280.879 62.4083 281.786 60.4605 280.418C57.8902 278.159 56.3894 274.627 57.3314 270.172C57.9221 267.372 59.5026 265.128 61.8974 263.649C64.819 261.851 68.2834 261.628 70.4387 262.201C74.2225 263.203 76.8088 265.621 78.8364 267.865C80.353 269.551 87.234 271.174 95.951 273.227C91.353 270.904 86.9945 268.231 82.9873 265.653C77.16 261.914 68.5708 256.139 61.2269 249.298C49.285 238.176 39.9453 222.743 37.1355 207.247C36.9599 206.213 37.1355 207.247 36.9599 206.213C35.0281 194.28 37.0078 182.347 44.7349 172.34C51.089 164.098 61.5462 160.757 71.4445 160.614C55.6391 150.193 36.9759 126.407 36.7843 126.153C36.7204 126.057 36.6725 125.962 36.6566 125.834C36.2734 120.202 36.7683 106.233 37.343 93.7911C37.391 92.6615 37.343 93.7911 37.391 92.6456C37.6943 86.3292 37.9976 80.4902 38.2211 76.449C38.3329 74.3488 38.4127 72.6942 38.4766 71.6282C38.5245 70.244 38.4447 71.66 38.5245 70.244C38.6203 66.1233 37.9497 60.5865 36.3851 57.6431C34.8206 54.6838 26.838 47.7629 22.4476 44.8354L21.4738 44.1831C17.69 41.6374 16.1573 40.5874 12.6291 40.6192C8.60583 40.6828 5.57248 39.5373 5.41284 39.4736C-2.31427 36.0529 0.479645 27.366 0.527527 27.2387ZM257.39 121.92C254.069 120.329 251.627 119.311 250.509 118.866C250.062 122.764 248.913 126.407 247.061 129.732C251.802 130.353 255.027 129.716 256.608 127.823C258.316 125.771 257.63 122.764 257.39 121.92ZM269.955 128.666C269.651 130.416 269.492 134.903 274.489 138.61C279.55 142.381 283.828 140.122 285.329 139.088C280.013 134.983 274.744 131.514 269.955 128.666ZM171.833 282.884C184.605 285.939 198.511 287.466 214.316 287.562C215.035 285.987 215.849 283.934 216.727 281.309C219.712 272.383 222.49 256.664 223.193 244.731C223.911 232.465 221.692 222.664 217.398 219.164L216.679 218.591C211.379 214.295 195.222 201.249 191.231 184.734C191.151 184.432 191.342 184.113 191.662 184.05C191.965 183.97 192.284 184.161 192.348 184.479C196.244 200.628 212.177 213.484 217.398 217.716L218.116 218.304C222.762 222.091 225.077 232.003 224.326 244.827C223.624 256.839 220.814 272.686 217.813 281.691C216.855 284.539 215.977 286.718 215.21 288.373C213.694 291.667 212.656 292.892 212.592 292.971C206.334 299.813 195.493 303.933 191.406 305.492L190.544 305.827C187.591 306.972 185.659 306.368 183.599 305.747C183.184 305.62 182.753 305.492 182.306 305.365C179.401 304.57 177.134 305.588 175.761 306.574C173.366 308.293 171.785 311.22 171.61 314.243C171.418 317.664 172.711 320.671 175.154 322.501C177.676 324.394 181.045 324.807 184.398 323.646C186.761 322.819 188.118 321.18 189.682 319.271L189.969 318.921C191.071 317.584 192.668 316.709 194.088 315.977L194.663 315.691L194.935 315.548C199.533 313.225 209.303 311.793 211.267 313.161C213.438 314.673 211.203 331.506 208.218 335.945C205.296 340.304 205.424 343.088 205.424 343.136C205.52 345.889 206.382 348.036 208.026 349.516C210.437 351.728 213.869 351.887 214.827 351.887C215.035 351.887 215.083 351.887 215.099 351.887C218.451 351.887 220.942 350.98 222.522 349.198C224.869 346.541 224.422 342.786 224.422 342.738C224.231 340.861 223.353 339.286 222.49 337.774C221.58 336.151 220.702 334.608 220.942 332.985C221.022 332.444 221.085 331.569 221.181 330.456C221.74 323.869 222.474 317.33 224.965 315.993C225.364 315.786 226.019 315.643 226.961 316.2C229.196 317.521 232.261 322.516 234.321 326.637C234.337 326.669 234.352 326.685 234.352 326.717C235.646 329.31 236.524 331.553 236.524 332.269C236.524 332.858 236.508 333.479 236.492 334.115C236.396 337.806 236.3 341.975 239.302 344.345C242.112 346.573 246.614 347.114 249.567 345.586C254.389 343.072 256.257 337.87 254.006 333.176C253.59 332.333 253.064 331.522 252.409 330.758C251.004 329.135 249.456 328.53 247.492 327.751L247.093 327.592C244.203 326.462 241.792 322.866 239.749 319.605C237.178 315.468 236.204 312.573 236.875 310.997C237.146 310.361 237.673 309.931 238.408 309.772C242.143 308.929 252.569 316.264 252.664 316.343C254.373 317.584 254.66 318.221 254.995 319.239C255.171 319.764 255.379 320.369 255.969 321.307C257.246 323.296 259.13 324.044 260.503 324.33C262.818 324.823 265.373 324.33 267.352 323.026C269.316 321.737 270.673 319.159 270.785 316.471C270.897 313.909 269.923 311.682 268.039 310.202C264.111 307.099 260.216 308.293 258.125 308.945C257.821 309.04 257.566 309.12 257.342 309.168C254.564 309.884 247.396 306.527 245.257 305.492C240.355 303.09 236.62 297.299 239.86 288.039C239.86 288.039 239.86 288.039 239.86 288.023C240.116 287.291 240.419 286.528 240.77 285.748C241.569 283.966 242.766 281.452 244.155 278.541C251.004 264.142 263.76 237.349 265.245 221.709C267.001 203.142 257.741 178.545 257.646 178.29C257.534 177.988 257.678 177.67 257.981 177.558C258.268 177.447 258.604 177.59 258.715 177.893C258.811 178.147 268.151 202.983 266.379 221.821C264.878 237.651 252.074 264.571 245.193 279.034C243.804 281.945 242.622 284.443 241.824 286.209C241.633 286.639 241.457 287.053 241.297 287.45C278.608 281.579 300.719 260.132 312.725 243.109C325.865 224.462 330.079 206.929 330.127 206.754C330.207 206.451 330.51 206.26 330.814 206.324C331.117 206.404 331.309 206.706 331.245 207.008C331.197 207.183 326.95 224.907 313.699 243.729C310.746 247.929 307.169 252.4 302.907 256.839C302.891 256.871 302.875 256.919 302.843 256.95C302.715 257.078 290.917 270.299 293.791 278.509C296.792 287.068 305.429 288.405 313.029 289.566C319.526 290.569 335.539 293.878 343.873 303.122C351.217 311.268 353.915 315.993 353.979 317.712C354.011 318.443 353.979 319.239 353.947 320.082C353.835 322.994 353.724 326.303 355.879 328.753C358.705 331.983 364.452 332.015 368.044 330.042C372.227 327.719 375.277 322.994 372.626 317.648C370.758 313.877 367.821 313.002 365.442 312.302C364.34 311.984 363.319 311.666 362.536 311.125C360.429 309.629 350.275 296.296 352.383 292.351C352.622 291.921 353.005 291.619 353.548 291.46C356.597 290.601 364.372 294.785 372.323 299.447C373.249 299.988 373.951 300.401 374.351 300.608C375.628 301.292 376.075 302.692 376.442 303.87L376.538 304.188C376.969 305.556 377.368 306.861 378.214 307.974C379.667 309.916 382.11 311.125 384.935 311.316C388.049 311.522 391.05 310.488 392.966 308.563C395.137 306.383 395.983 302.867 395.217 299.415C394.499 296.217 392.551 293.814 389.869 292.844C386.947 291.778 384.872 292.064 383.036 292.319C381.742 292.494 380.625 292.653 379.491 292.287C377.767 291.73 364.452 285.923 362.824 281.945C362.52 281.198 362.664 280.641 362.84 280.307C364.069 277.968 369.832 277.618 379.986 279.257L380.162 279.288C381.024 279.432 381.726 279.941 382.541 280.545C383.85 281.516 385.446 282.725 388.512 282.677C391.896 282.63 394.307 281.707 395.903 279.893C397.771 277.777 398.346 274.786 397.452 271.906C396.526 268.899 394.179 266.576 391.337 265.844C389.358 265.335 387.346 265.446 385.366 266.194C384.728 266.433 384.105 266.751 383.435 267.085C382.11 267.753 380.721 268.438 379.22 268.549C378.853 268.581 341.239 270.267 331.66 264.158C331.42 264.285 331.197 264.428 330.957 264.556C330.862 264.603 330.766 264.635 330.67 264.635C330.478 264.635 330.271 264.54 330.175 264.349C330.015 264.078 330.111 263.728 330.383 263.569C350.738 252.002 364.947 239.942 374.83 228.407C374.877 228.232 374.989 228.105 375.149 228.042C387.282 213.754 392.822 200.31 395.185 189.634C398.889 172.738 395.265 159.85 391.018 153.9C385.494 146.168 376.234 140.869 364.963 138.992C353.149 137.019 340.137 139.119 328.323 144.879C303.418 157.05 290.119 172.117 289.975 172.276C289.767 172.515 289.4 172.547 289.161 172.34C288.921 172.133 288.889 171.767 289.097 171.528C289.177 171.433 294.573 165.323 304.838 157.75C299.107 150.813 292.657 144.847 286.239 139.819C285.377 140.456 283.142 141.84 280.204 141.84C278.304 141.84 276.101 141.267 273.786 139.549C267.959 135.221 268.55 129.716 268.901 128.078C265.085 125.85 261.605 124.021 258.699 122.589C258.971 124.084 259.098 126.614 257.47 128.571C256.049 130.273 253.622 131.132 250.222 131.132C249.056 131.132 247.779 131.021 246.406 130.83C243.564 135.476 239.334 139.501 233.762 142.763C233.666 142.811 233.57 142.842 233.474 142.842C233.283 142.842 233.091 142.747 232.979 142.556C232.82 142.285 232.916 141.935 233.187 141.776C246.997 133.694 252.313 120.743 248.178 105.326C244.458 91.4523 235.678 78.0241 235.598 77.8809C235.454 77.6741 235.47 77.3877 235.646 77.1968C235.821 76.9899 236.907 75.6694 238.184 73.5533C238.184 73.5374 238.184 73.5215 238.184 73.5056C238.216 73.4101 238.28 73.3306 238.344 73.2829C242.271 66.5847 247.588 52.52 232.995 40.1578C213.422 23.5634 197.569 41.4783 196.898 42.2579C196.739 42.4489 196.451 42.5125 196.228 42.4011C196.036 42.3057 176.511 33.4118 158.406 34.0483C140.254 34.6847 127.61 41.2556 127.482 41.3192C127.275 41.4306 127.035 41.3988 126.859 41.2556C126.684 41.1124 109.378 27.5569 93.7957 39.3305C75.6593 53.0291 90.3153 75.6535 90.459 75.8762C90.5867 76.0831 90.5867 76.3376 90.443 76.5445C85.9887 82.3517 82.2848 89.1135 79.8741 94.9844C79.8741 94.9844 79.8741 95.0003 79.8581 95.0003C78.0062 99.5188 76.9046 103.496 76.8248 106.09C76.729 108.922 77.16 118.436 86.8509 122.143C92.8537 124.434 98.8406 122.939 107.877 120.679C110.367 120.059 113.193 119.343 116.275 118.659C130.946 115.397 148.987 122.414 154.91 124.721C161.36 127.234 174.132 128.364 186.058 125.659C196.18 123.368 204.45 116.05 205.982 114.618C204.402 113.154 202.614 112.677 202.486 112.645C202.183 112.565 201.991 112.247 202.071 111.945C202.151 111.642 202.454 111.451 202.774 111.531C202.837 111.547 208.681 113.09 209.479 119.025C209.527 119.343 209.303 119.629 208.984 119.661C208.952 119.661 208.936 119.661 208.904 119.661C208.617 119.661 208.377 119.454 208.329 119.168C208.122 117.593 207.499 116.384 206.749 115.445C205.152 116.94 196.691 124.418 186.298 126.773C185.755 126.9 185.196 127.012 184.637 127.107C183.328 128.284 170.428 139.294 145.938 139.294C143.24 139.294 140.382 139.167 137.412 138.865C108.931 136.033 102.129 125.787 100.948 123.48C96.7492 124.355 93.189 124.737 89.7405 124.116C90.2195 125.898 93.6839 136.351 110.096 147.52C119.324 153.804 136.742 158.434 155.581 159.644C176.99 161.012 196.356 157.846 210.149 150.734C210.437 150.591 210.772 150.702 210.916 150.972C211.059 151.259 210.948 151.593 210.676 151.736C197.713 158.434 181.237 161.139 165.096 161.139C142.298 161.139 120.138 155.73 109.457 148.459C108.084 147.52 106.823 146.597 105.626 145.69C106.36 152.961 105.706 161.107 103.582 171.067C103.582 171.067 103.582 171.067 103.582 171.083C103.502 171.449 103.439 171.799 103.359 172.165C97.3878 199.18 100.533 224.589 112.172 243.713C126.891 267.801 152.739 278.318 171.833 282.884ZM75.6912 105.994C75.787 103.433 76.8088 99.5825 78.549 95.2071L79.012 94.0934C81.4227 88.318 85.0149 81.7789 89.3095 76.1149C87.7928 73.6329 79.1557 58.4068 86.5635 45.6309C86.4677 45.6468 86.3719 45.6627 86.2761 45.6309C83.3066 44.7399 74.3661 48.9402 71.7479 51.5495C71.1412 52.1541 70.327 52.8701 69.4808 53.6337C66.4634 56.3226 62.3285 59.9978 62.1049 62.9889C61.8016 66.7438 61.0991 82.5744 62.4402 92.932L62.5999 94.0934C63.0628 97.18 63.7334 99.6779 64.6913 101.046C67.9482 105.74 73.7914 110.131 76.4256 111.977C75.8349 109.956 75.6274 107.903 75.6912 105.994ZM132.735 119.55C127.37 118.754 121.719 118.579 116.53 119.725C113.465 120.409 110.655 121.109 108.164 121.729C106.009 122.27 104.013 122.764 102.161 123.177C103.039 124.673 106.009 128.698 114.183 132.246C120.122 123.846 128.344 120.679 132.735 119.55ZM115.269 132.708C120.505 134.824 127.706 136.717 137.572 137.703C162.717 140.201 177.628 131.037 182.354 127.505C171.418 129.223 160.402 128.046 154.511 125.755C151.206 124.466 144.054 121.682 135.88 120.091C135.05 120.186 123.171 121.729 115.269 132.708ZM45.6609 173.119C28.0993 195.871 40.9831 228.964 62.0251 248.55C69.3052 255.328 77.8465 261.055 83.6259 264.778C91.9756 270.14 101.89 275.931 112.203 278.111C112.507 278.175 112.714 278.477 112.65 278.795C112.587 279.066 112.363 279.241 112.092 279.241C112.044 279.241 112.012 279.241 111.964 279.225C108.244 278.429 104.588 277.188 101.028 275.661H101.012C99.2877 275.247 97.6113 274.849 96.0148 274.483C86.5794 272.272 79.7783 270.665 77.9902 268.692C76.0744 266.576 73.6477 264.285 70.1513 263.362C68.2355 262.853 65.1383 263.076 62.5041 264.683C60.3807 265.987 58.9918 267.976 58.4649 270.458C57.2675 276.122 60.3009 279.877 64.0846 281.357C64.9308 281.564 65.7929 281.786 66.7029 282.009C69.0657 282.279 70.8857 281.595 72.4982 280.975C73.8233 280.466 75.0846 279.988 76.4097 280.132C76.6172 280.148 96.5896 282.534 96.2862 286.353C96.2064 287.434 94.8972 288.564 93.0294 289.63C92.9814 289.662 92.9336 289.694 92.8857 289.71C88.7188 292.032 81.8857 294.037 79.028 294.419C76.7769 294.721 75.1484 294.021 73.4402 293.273C71.3647 292.367 69.0019 291.348 64.851 291.937C61.0034 292.478 58.8002 294.514 57.6347 296.137C56.0542 298.317 55.2878 301.244 55.7189 303.567C56.4054 307.418 60.1572 312.779 67.6288 311.729C72.6738 311.029 74.6056 308.563 76.1542 306.574C76.9046 305.62 77.623 304.713 78.565 304.14C80.7043 302.867 99.0641 298.094 100.932 300.672C102.145 302.342 99.4473 306.224 94.0671 312.795C93.4923 313.495 92.9974 314.116 92.6302 314.577C91.5925 315.898 90.3153 316.343 88.9742 316.821C87.1382 317.457 85.0468 318.189 82.8117 321.45C81.2471 323.726 80.832 326.208 81.5983 328.61C82.4924 331.41 84.8871 333.749 88.0003 334.895C90.4749 335.801 93.205 335.467 95.6955 333.972C98.3457 332.381 100.23 329.692 100.597 326.987C100.709 326.16 100.756 325.412 100.804 324.696C101.092 320.257 101.283 317.33 115.396 304.967C124.784 296.726 135.736 295.421 144.517 294.371C150.855 293.608 155.868 293.003 157.816 289.996C162.047 283.441 158.598 280.418 158.039 279.988C141.324 274.022 122.852 263.346 111.23 244.27C99.4154 224.891 96.2383 199.18 102.273 171.878C102.321 171.656 102.369 171.433 102.417 171.21C100.868 170.24 93.6839 166.008 82.9554 163.191C80.0338 162.428 76.8247 161.951 73.504 161.855C73.488 161.855 73.488 161.855 73.4721 161.855C73.4561 161.855 73.4561 161.839 73.4402 161.839C63.2863 161.537 52.2066 164.639 45.6609 173.119ZM5.89178 38.4872C5.92371 38.5031 8.84537 39.5691 12.661 39.5532C16.4926 39.5055 18.3925 40.7783 22.1602 43.308L23.1341 43.9603C27.5884 46.9514 35.7466 53.9838 37.4388 57.1817C39.211 60.5388 39.8496 66.5528 39.6899 70.7372C39.658 71.5646 39.5462 73.6647 39.3866 76.5922C38.748 88.668 37.2473 116.829 37.8061 125.675C39.4026 127.712 58.2893 151.386 73.6158 160.71C76.9844 160.821 80.2573 161.298 83.2268 162.078C93.4285 164.751 100.485 168.712 102.656 170.017C104.732 160.025 105.275 151.927 104.396 144.672C90.6505 133.726 88.6709 124.45 88.591 124.021C88.5751 123.957 88.5751 123.877 88.591 123.814C87.8726 123.639 87.1702 123.416 86.4517 123.145C81.4866 121.252 78.533 117.672 77.0004 113.774C75.8988 113.058 67.9003 107.713 63.7174 101.699C58.864 94.7298 60.9076 63.2276 60.9395 62.9094C61.2109 59.4569 65.5374 55.6066 68.6985 52.7905C69.5447 52.0427 70.3429 51.3268 70.9177 50.754C73.5679 48.1129 82.9713 43.4671 86.5794 44.549C86.771 44.6126 86.9147 44.7718 86.9626 44.9468C88.4154 42.6398 90.4111 40.4123 93.1092 38.3758C95.5199 36.5621 97.9626 35.3211 100.389 34.5256C100.389 34.4619 100.389 34.4142 100.405 34.3506C100.437 34.2392 101.092 31.5504 98.7129 28.2888C97.4357 26.5386 95.009 25.2181 92.3748 24.8681C90.1716 24.5658 88.1281 24.9953 86.787 26.0613C85.2543 27.2705 84.5998 28.5751 83.9133 29.9434C83.115 31.5344 82.2848 33.1732 80.0816 34.5097C78.7246 35.337 66.7188 42.4648 64.5955 40.2373C62.6637 38.2008 68.6347 26.3795 70.3908 23.8816C71.668 22.036 72.6898 21.5428 73.983 20.8905C74.9409 20.4132 76.0265 19.8723 77.5591 18.6153C79.1876 17.2789 80.0178 14.6537 79.6666 11.9331C79.2674 8.81465 77.4474 6.30084 74.6854 5.01211C71.3487 3.46882 68.6826 4.10523 67.0381 4.90074C64.9308 5.91899 63.2864 7.84413 62.8234 9.80109C62.3764 11.7103 62.5041 13.3491 62.6318 14.9401C62.7436 16.4197 62.8553 17.8039 62.4881 19.2677C62.1369 20.6359 57.1558 35.6711 53.1645 36.2757C52.6536 36.3552 52.1427 36.212 51.6797 35.8302C48.343 33.2527 46.7625 19.2358 46.7465 19.1086C46.523 17.0084 47.2254 15.4015 47.912 13.8582C48.5984 12.2672 49.253 10.7716 49.1093 8.65555C48.9497 6.50767 47.7523 4.3757 45.9004 2.91196C44.0644 1.46413 41.7973 0.875454 39.5462 1.24139C34.3257 2.10054 31.0528 5.79171 31.5797 10.2307C31.8511 12.5536 33.4316 14.0809 34.9483 15.5606C36.4011 16.9766 37.7901 18.3131 37.9977 20.27C38.0934 21.1769 38.3648 22.5452 38.6841 24.1362C39.674 29.0684 41.015 35.8143 39.0992 38.3758C38.5883 39.06 37.6624 39.3623 36.3372 39.2827C31.2124 38.9645 20.2285 32.7914 18.9034 30.4685L18.4723 29.6889C17.2111 27.4296 15.6305 24.6135 13.4273 23.3089C11.9426 22.4338 9.16464 21.861 6.59427 22.7043C4.3432 23.4361 2.66684 25.1067 1.5972 27.6046C1.5014 27.9546 -0.893402 35.4484 5.89178 38.4872Z" fill="black"/>
<path d="M148.54 108.063C147.167 108.413 144.373 108.906 141.995 108.906C140.079 108.906 138.434 108.588 137.987 107.633C137.429 106.424 138.913 105.183 140.111 104.34C140.781 103.735 145.507 99.4873 148.397 99.4873C150.057 99.4873 151.637 101.222 151.909 103.369C152.132 105.167 151.366 107.331 148.54 108.063ZM150.759 103.529C150.568 101.985 149.45 100.649 148.381 100.649C146.273 100.649 142.234 103.958 140.845 105.215C140.829 105.231 140.813 105.247 140.781 105.263C139.137 106.408 138.945 107.029 139.009 107.156C139.392 107.967 144.102 108.015 148.221 106.949C150.839 106.297 150.871 104.34 150.759 103.529Z" fill="black"/>
<path d="M104.093 96.6074C107.765 96.6074 110.192 100.108 111.788 102.415C112.251 103.099 112.539 104.053 112.124 104.69C111.98 104.897 111.677 105.215 111.022 105.215C110.878 105.215 110.719 105.199 110.559 105.167C107.127 104.483 104.604 103.544 102.609 102.176C102.257 101.937 101.954 101.635 101.714 101.285C101.044 100.299 100.932 99.0258 101.459 98.0393C101.97 97.1325 102.912 96.6074 104.093 96.6074ZM102.688 100.633C102.848 100.871 103.056 101.062 103.279 101.237C105.131 102.51 107.51 103.401 110.799 104.053C111.054 104.101 111.166 104.069 111.182 104.069C111.23 103.974 111.166 103.528 110.862 103.067C108.915 100.267 106.935 97.753 104.109 97.753C103.343 97.753 102.8 98.0393 102.513 98.5803C102.177 99.169 102.257 99.9963 102.688 100.633Z" fill="black"/>
</g>
<defs>
<clipPath id="clip0_426_2430">
<rect width="399" height="353" fill="white" transform="matrix(-1 0 0 1 399 0)"/>
</clipPath>
</defs>
</svg>
