<svg width="29" height="29" viewBox="0 0 29 29" fill="none" xmlns="http://www.w3.org/2000/svg">
<g clip-path="url(#clip0_0_123)">
<path d="M28.2926 14.7713C28.2926 13.5832 28.1963 12.7162 27.9879 11.817H14.4351V17.1796H22.3903C22.2299 18.5123 21.3638 20.5193 19.4391 21.8679L19.4122 22.0474L23.6973 25.3706L23.9942 25.4002C26.7208 22.8794 28.2926 19.1705 28.2926 14.7713Z" fill="#4285F4"/>
<path d="M14.4351 28.9004C18.3324 28.9004 21.6043 27.6159 23.9942 25.4002L19.4391 21.8679C18.2202 22.7189 16.5842 23.3129 14.4351 23.3129C10.6178 23.3129 7.37802 20.7922 6.22311 17.3081L6.05383 17.3225L1.59807 20.7745L1.53979 20.9367C3.91352 25.657 8.78934 28.9004 14.4351 28.9004Z" fill="#34A853"/>
<path d="M6.22301 17.3081C5.91828 16.409 5.74192 15.4456 5.74192 14.4502C5.74192 13.4547 5.91828 12.4914 6.20698 11.5923L6.19891 11.4008L1.6873 7.89331L1.53969 7.9636C0.561366 9.92243 0 12.1221 0 14.4502C0 16.7783 0.561366 18.9778 1.53969 20.9367L6.22301 17.3081Z" fill="#FBBC05"/>
<path d="M14.4351 5.58737C17.1456 5.58737 18.974 6.75943 20.0165 7.7389L24.0904 3.75705C21.5884 1.42897 18.3324 0 14.4351 0C8.78934 0 3.91352 3.24324 1.53979 7.9636L6.20708 11.5923C7.37802 8.10816 10.6178 5.58737 14.4351 5.58737Z" fill="#EB4335"/>
</g>
<defs>
<clipPath id="clip0_0_123">
<rect width="28.306" height="29" rx="14.153" fill="white"/>
</clipPath>
</defs>
</svg>
