<svg width="28" height="23" viewBox="0 0 28 23" fill="none" xmlns="http://www.w3.org/2000/svg">
<g clip-path="url(#clip0_0_138)">
<path d="M28 2.80096C26.9515 3.2683 25.8394 3.57507 24.7006 3.71105C25.8868 2.99574 26.7975 1.86302 27.2264 0.513392C26.0988 1.18665 24.8651 1.661 23.5786 1.91595C22.5307 0.792693 21.0378 0.0906982 19.3855 0.0906982C16.213 0.0906982 13.6408 2.67858 13.6408 5.87041C13.6408 6.32348 13.6917 6.76455 13.7896 7.18768C9.01534 6.94657 4.78253 4.64558 1.94917 1.1487C1.4548 2.00234 1.17152 2.9953 1.17152 4.0544C1.17152 6.05969 2.18575 7.82871 3.72706 8.86525C2.81482 8.83651 1.92265 8.5886 1.12503 8.14224C1.1247 8.16645 1.1247 8.19066 1.1247 8.21498C1.1247 11.0154 3.10483 13.3515 5.73267 13.8824C4.88675 14.1139 3.99944 14.1478 3.13852 13.9815C3.86947 16.2777 5.99102 17.9487 8.50467 17.9955C6.53866 19.5456 4.06164 20.4697 1.37036 20.4697C0.906609 20.4697 0.449422 20.4423 0 20.3889C2.5422 22.0288 5.56172 22.9857 8.80578 22.9857C19.3722 22.9857 25.1501 14.1785 25.1501 6.54071C25.1501 6.29002 25.1447 6.04077 25.1335 5.79294C26.2581 4.97493 27.2288 3.96176 28 2.80096Z" fill="#55ACEE"/>
</g>
<defs>
<clipPath id="clip0_0_138">
<rect width="28" height="23" rx="11.5" fill="white"/>
</clipPath>
</defs>
</svg>
