<svg width="29" height="28" viewBox="0 0 29 28" fill="none" xmlns="http://www.w3.org/2000/svg">
<g clip-path="url(#clip0_0_132)">
<path d="M28.306 14C28.306 6.26806 21.9694 0 14.153 0C6.33657 0 0 6.26795 0 14C0 20.9877 5.17558 26.7797 11.9416 27.8299V18.0469H8.34806V14H11.9416V10.9156C11.9416 7.40687 14.0546 5.46875 17.2873 5.46875C18.8359 5.46875 20.4555 5.74219 20.4555 5.74219V9.1875H18.6709C16.9126 9.1875 16.3644 10.2667 16.3644 11.3739V14H20.2897L19.6622 18.0469H16.3644V27.8299C23.1304 26.7797 28.306 20.9879 28.306 14Z" fill="#1877F2"/>
<path d="M19.6623 18.0469L20.2897 14H16.3645V11.3739C16.3645 10.2666 16.9128 9.1875 18.671 9.1875H20.4556V5.74219C20.4556 5.74219 18.836 5.46875 17.2874 5.46875C14.0547 5.46875 11.9417 7.40688 11.9417 10.9156V14H8.34814V18.0469H11.9417V27.8299C12.6732 27.9433 13.4126 28.0002 14.1531 28C14.8936 28.0002 15.6329 27.9434 16.3645 27.8299V18.0469H19.6623Z" fill="white"/>
</g>
<defs>
<clipPath id="clip0_0_132">
<rect width="28.306" height="28" rx="14" fill="white"/>
</clipPath>
</defs>
</svg>
